<?xml version="1.0" encoding="UTF-8" standalone="no"?>
<!DOCTYPE svg PUBLIC "-//W3C//DTD SVG 1.1//EN"
 "http://www.w3.org/Graphics/SVG/1.1/DTD/svg11.dtd">
<!-- Generated by graphviz version 2.38.0 (20140413.2041)
 -->
<!-- Title: %3 Pages: 1 -->
<svg width="758pt" height="479pt"
 viewBox="0.00 0.00 758.41 479.00" xmlns="http://www.w3.org/2000/svg" xmlns:xlink="http://www.w3.org/1999/xlink">
<g id="graph0" class="graph" transform="scale(1 1) rotate(0) translate(4 475)">
<title>%3</title>
<!-- 9118780525858573852 -->
<g id="node1" class="node"><title>9118780525858573852</title>
<polygon fill="#ffffff" stroke="black" points="552.909,-297 433.909,-297 433.909,-261 552.909,-261 552.909,-297"/>
<text text-anchor="middle" x="493.409" y="-275.3" font-family="Times New Roman,serif" font-size="14.00">Admission NC (1)</text>
</g>
<!-- 8794229938327540079 -->
<g id="node2" class="node"><title>8794229938327540079</title>
<polygon fill="#ffffff" stroke="black" points="304.409,-210 240.409,-210 240.409,-174 304.409,-174 304.409,-210"/>
<text text-anchor="middle" x="272.409" y="-188.3" font-family="Times New Roman,serif" font-size="14.00">CRP (1)</text>
</g>
<!-- 9118780525858573852&#45;&gt;8794229938327540079 -->
<g id="edge1" class="edge"><title>9118780525858573852&#45;&gt;8794229938327540079</title>
<path fill="none" stroke="black" d="M448.952,-260.901C409.561,-245.751 352.483,-223.798 313.986,-208.991"/>
<polygon fill="black" stroke="black" points="315.211,-205.712 304.621,-205.389 312.698,-212.246 315.211,-205.712"/>
<text text-anchor="middle" x="452.409" y="-231.8" font-family="Times New Roman,serif" font-size="14.00">352.0209956661446</text>
</g>
<!-- &#45;4990305070490083274 -->
<g id="node9" class="node"><title>&#45;4990305070490083274</title>
<polygon fill="#ffffff" stroke="black" points="322.909,-36 221.909,-36 221.909,-0 322.909,-0 322.909,-36"/>
<text text-anchor="middle" x="272.409" y="-14.3" font-family="Times New Roman,serif" font-size="14.00">Leucocytes (1)</text>
</g>
<!-- 9118780525858573852&#45;&gt;&#45;4990305070490083274 -->
<g id="edge2" class="edge"><title>9118780525858573852&#45;&gt;&#45;4990305070490083274</title>
<path fill="none" stroke="black" stroke-width="1.06942" d="M504.726,-260.861C507.786,-255.376 510.716,-249.131 512.409,-243 530.878,-176.135 559.392,-142.222 517.409,-87 495.189,-57.7718 398.395,-37.8161 333.327,-27.4237"/>
<polygon fill="black" stroke="black" stroke-width="1.06942" points="333.593,-23.9229 323.173,-25.838 332.513,-30.8391 333.593,-23.9229"/>
<text text-anchor="middle" x="598.909" y="-144.8" font-family="Times New Roman,serif" font-size="14.00">413.88573943558873</text>
</g>
<!-- 5659693541288529527 -->
<g id="node8" class="node"><title>5659693541288529527</title>
<polygon fill="#ffffff" stroke="black" points="126.409,-123 28.4093,-123 28.4093,-87 126.409,-87 126.409,-123"/>
<text text-anchor="middle" x="77.4093" y="-101.3" font-family="Times New Roman,serif" font-size="14.00">LacticAcid (1)</text>
</g>
<!-- 8794229938327540079&#45;&gt;5659693541288529527 -->
<g id="edge3" class="edge"><title>8794229938327540079&#45;&gt;5659693541288529527</title>
<path fill="none" stroke="black" stroke-width="1.31761" d="M240.275,-191.581C178.33,-191.94 45.9725,-188.751 17.4093,-156 8.79222,-146.119 15.243,-136.57 26.609,-128.511"/>
<polygon fill="black" stroke="black" stroke-width="1.31761" points="28.5106,-131.45 35.1383,-123.184 24.8026,-125.513 28.5106,-131.45"/>
<text text-anchor="middle" x="73.4093" y="-144.8" font-family="Times New Roman,serif" font-size="14.00">635.0609593596025</text>
</g>
<!-- 8794229938327540079&#45;&gt;&#45;4990305070490083274 -->
<g id="edge4" class="edge"><title>8794229938327540079&#45;&gt;&#45;4990305070490083274</title>
<path fill="none" stroke="black" stroke-width="2.22933" d="M272.409,-173.879C272.409,-144.001 272.409,-82.1129 272.409,-46.2736"/>
<polygon fill="black" stroke="black" stroke-width="2.22933" points="275.909,-46.0516 272.409,-36.0516 268.909,-46.0516 275.909,-46.0516"/>
<text text-anchor="middle" x="331.909" y="-101.3" font-family="Times New Roman,serif" font-size="14.00">1447.5559849444596</text>
</g>
<!-- 4941573644585563234 -->
<g id="node3" class="node"><title>4941573644585563234</title>
<polygon fill="#ffffff" stroke="black" points="700.909,-471 575.909,-471 575.909,-435 700.909,-435 700.909,-471"/>
<text text-anchor="middle" x="638.409" y="-449.3" font-family="Times New Roman,serif" font-size="14.00">ER Registration (1)</text>
</g>
<!-- 7781181950460006610 -->
<g id="node5" class="node"><title>7781181950460006610</title>
<polygon fill="#ffffff" stroke="black" points="684.909,-384 591.909,-384 591.909,-348 684.909,-348 684.909,-384"/>
<text text-anchor="middle" x="638.409" y="-362.3" font-family="Times New Roman,serif" font-size="14.00">ER Triage (1)</text>
</g>
<!-- 4941573644585563234&#45;&gt;7781181950460006610 -->
<g id="edge5" class="edge"><title>4941573644585563234&#45;&gt;7781181950460006610</title>
<path fill="none" stroke="black" stroke-width="1.69913" d="M638.409,-434.799C638.409,-423.163 638.409,-407.548 638.409,-394.237"/>
<polygon fill="black" stroke="black" stroke-width="1.69913" points="641.909,-394.175 638.409,-384.175 634.909,-394.175 641.909,-394.175"/>
<text text-anchor="middle" x="694.409" y="-405.8" font-family="Times New Roman,serif" font-size="14.00">975.0622549553615</text>
</g>
<!-- &#45;1916228938975785919 -->
<g id="node4" class="node"><title>&#45;1916228938975785919</title>
<polygon fill="#ffffff" stroke="black" points="705.409,-297 571.409,-297 571.409,-261 705.409,-261 705.409,-297"/>
<text text-anchor="middle" x="638.409" y="-275.3" font-family="Times New Roman,serif" font-size="14.00">ER Sepsis Triage (1)</text>
</g>
<!-- 7781181950460006610&#45;&gt;&#45;1916228938975785919 -->
<g id="edge6" class="edge"><title>7781181950460006610&#45;&gt;&#45;1916228938975785919</title>
<path fill="none" stroke="black" stroke-width="1.62265" d="M638.409,-347.799C638.409,-336.163 638.409,-320.548 638.409,-307.237"/>
<polygon fill="black" stroke="black" stroke-width="1.62265" points="641.909,-307.175 638.409,-297.175 634.909,-307.175 641.909,-307.175"/>
<text text-anchor="middle" x="694.409" y="-318.8" font-family="Times New Roman,serif" font-size="14.00">906.9086835285297</text>
</g>
<!-- 1341266047991071662 -->
<g id="node6" class="node"><title>1341266047991071662</title>
<polygon fill="#ffffff" stroke="black" points="550.909,-384 435.909,-384 435.909,-348 550.909,-348 550.909,-384"/>
<text text-anchor="middle" x="493.409" y="-362.3" font-family="Times New Roman,serif" font-size="14.00">IV Antibiotics (1)</text>
</g>
<!-- 1341266047991071662&#45;&gt;9118780525858573852 -->
<g id="edge7" class="edge"><title>1341266047991071662&#45;&gt;9118780525858573852</title>
<path fill="none" stroke="black" stroke-width="1.15378" d="M493.409,-347.799C493.409,-336.163 493.409,-320.548 493.409,-307.237"/>
<polygon fill="black" stroke="black" stroke-width="1.15378" points="496.909,-307.175 493.409,-297.175 489.909,-307.175 496.909,-307.175"/>
<text text-anchor="middle" x="549.409" y="-318.8" font-family="Times New Roman,serif" font-size="14.00">489.0657987041584</text>
</g>
<!-- 1513237216211266658 -->
<g id="node7" class="node"><title>1513237216211266658</title>
<polygon fill="#ffffff" stroke="black" points="538.409,-471 448.409,-471 448.409,-435 538.409,-435 538.409,-471"/>
<text text-anchor="middle" x="493.409" y="-449.3" font-family="Times New Roman,serif" font-size="14.00">IV Liquid (1)</text>
</g>
<!-- 1513237216211266658&#45;&gt;1341266047991071662 -->
<g id="edge8" class="edge"><title>1513237216211266658&#45;&gt;1341266047991071662</title>
<path fill="none" stroke="black" stroke-width="1.15566" d="M493.409,-434.799C493.409,-423.163 493.409,-407.548 493.409,-394.237"/>
<polygon fill="black" stroke="black" stroke-width="1.15566" points="496.909,-394.175 493.409,-384.175 489.909,-394.175 496.909,-394.175"/>
<text text-anchor="middle" x="549.409" y="-405.8" font-family="Times New Roman,serif" font-size="14.00">490.7442915761516</text>
</g>
<!-- 5659693541288529527&#45;&gt;8794229938327540079 -->
<g id="edge9" class="edge"><title>5659693541288529527&#45;&gt;8794229938327540079</title>
<path fill="none" stroke="black" stroke-width="1.06069" d="M102.99,-123.185C124.18,-137.399 151.044,-155.364 152.409,-156 177.257,-167.573 206.798,-176.247 230.352,-182.064"/>
<polygon fill="black" stroke="black" stroke-width="1.06069" points="229.841,-185.541 240.38,-184.459 231.467,-178.732 229.841,-185.541"/>
<text text-anchor="middle" x="205.409" y="-144.8" font-family="Times New Roman,serif" font-size="14.00">406.108796668398</text>
</g>
<!-- 5659693541288529527&#45;&gt;&#45;4990305070490083274 -->
<g id="edge10" class="edge"><title>5659693541288529527&#45;&gt;&#45;4990305070490083274</title>
<path fill="none" stroke="black" stroke-width="1.24163" d="M28.182,-88.8198C8.04485,-80.0995 -7.95475,-68.0837 4.40929,-54 30.8168,-23.9195 141.057,-18.3878 211.662,-18.0442"/>
<polygon fill="black" stroke="black" stroke-width="1.24163" points="211.782,-21.5441 221.777,-18.0289 211.772,-14.5441 211.782,-21.5441"/>
<text text-anchor="middle" x="60.4093" y="-57.8" font-family="Times New Roman,serif" font-size="14.00">567.3569912997484</text>
</g>
<!-- &#45;4990305070490083274&#45;&gt;8794229938327540079 -->
<g id="edge11" class="edge"><title>&#45;4990305070490083274&#45;&gt;8794229938327540079</title>
<path fill="none" stroke="black" stroke-width="2.6" d="M322.143,-36.1523C365.411,-54.0524 417.927,-84.8222 395.409,-123 378,-152.517 342.674,-170.113 314.329,-179.985"/>
<polygon fill="black" stroke="black" stroke-width="2.6" points="313.048,-176.721 304.635,-183.161 315.228,-183.373 313.048,-176.721"/>
<text text-anchor="middle" x="457.409" y="-101.3" font-family="Times New Roman,serif" font-size="14.00">1777.886011485514</text>
</g>
<!-- &#45;4990305070490083274&#45;&gt;5659693541288529527 -->
<g id="edge12" class="edge"><title>&#45;4990305070490083274&#45;&gt;5659693541288529527</title>
<path fill="none" stroke="black" stroke-width="1.09204" d="M221.652,-27.1283C196.059,-32.5064 165.087,-41.0215 139.409,-54 131.949,-57.7709 117.706,-69.1328 104.751,-80.0742"/>
<polygon fill="black" stroke="black" stroke-width="1.09204" points="102.253,-77.6044 96.9233,-86.7609 106.8,-82.9269 102.253,-77.6044"/>
<text text-anchor="middle" x="198.909" y="-57.8" font-family="Times New Roman,serif" font-size="14.00">434.04745462487995</text>
</g>
<!-- &#45;4990305070490083274&#45;&gt;&#45;4990305070490083274 -->
<g id="edge13" class="edge"><title>&#45;4990305070490083274&#45;&gt;&#45;4990305070490083274</title>
<path fill="none" stroke="black" stroke-width="1.11795" d="M323.193,-25.5746C333.517,-24.7495 340.909,-22.2246 340.909,-18 340.909,-15.3596 338.022,-13.3832 333.335,-12.0707"/>
<polygon fill="black" stroke="black" stroke-width="1.11795" points="333.625,-8.57199 323.193,-10.4254 332.504,-15.4817 333.625,-8.57199"/>
<text text-anchor="middle" x="396.909" y="-14.3" font-family="Times New Roman,serif" font-size="14.00">457.1371414433423</text>
</g>
</g>
</svg>
