<?xml version="1.0" encoding="UTF-8" standalone="no"?>
<!DOCTYPE svg PUBLIC "-//W3C//DTD SVG 1.1//EN"
 "http://www.w3.org/Graphics/SVG/1.1/DTD/svg11.dtd">
<!-- Generated by graphviz version 2.38.0 (20140413.2041)
 -->
<!-- Title: %3 Pages: 1 -->
<svg width="747pt" height="479pt"
 viewBox="0.00 0.00 747.16 479.00" xmlns="http://www.w3.org/2000/svg" xmlns:xlink="http://www.w3.org/1999/xlink">
<g id="graph0" class="graph" transform="scale(1 1) rotate(0) translate(4 475)">
<title>%3</title>
<!-- &#45;6760735685208204671 -->
<g id="node1" class="node"><title>&#45;6760735685208204671</title>
<polygon fill="#ffffff" stroke="black" points="541.662,-297 422.662,-297 422.662,-261 541.662,-261 541.662,-297"/>
<text text-anchor="middle" x="482.162" y="-275.3" font-family="Times New Roman,serif" font-size="14.00">Admission NC (1)</text>
</g>
<!-- 7850561497370058999 -->
<g id="node2" class="node"><title>7850561497370058999</title>
<polygon fill="#ffffff" stroke="black" points="298.162,-210 234.162,-210 234.162,-174 298.162,-174 298.162,-210"/>
<text text-anchor="middle" x="266.162" y="-188.3" font-family="Times New Roman,serif" font-size="14.00">CRP (1)</text>
</g>
<!-- &#45;6760735685208204671&#45;&gt;7850561497370058999 -->
<g id="edge1" class="edge"><title>&#45;6760735685208204671&#45;&gt;7850561497370058999</title>
<path fill="none" stroke="black" d="M438.711,-260.901C400.6,-245.904 345.551,-224.241 307.945,-209.442"/>
<polygon fill="black" stroke="black" points="308.893,-206.054 298.306,-205.649 306.33,-212.568 308.893,-206.054"/>
<text text-anchor="middle" x="443.162" y="-231.8" font-family="Times New Roman,serif" font-size="14.00">369.0689267147019</text>
</g>
<!-- 6179918396602481755 -->
<g id="node9" class="node"><title>6179918396602481755</title>
<polygon fill="#ffffff" stroke="black" points="316.662,-36 215.662,-36 215.662,-0 316.662,-0 316.662,-36"/>
<text text-anchor="middle" x="266.162" y="-14.3" font-family="Times New Roman,serif" font-size="14.00">Leucocytes (1)</text>
</g>
<!-- &#45;6760735685208204671&#45;&gt;6179918396602481755 -->
<g id="edge2" class="edge"><title>&#45;6760735685208204671&#45;&gt;6179918396602481755</title>
<path fill="none" stroke="black" stroke-width="1.04356" d="M494.989,-260.671C498.292,-255.278 501.409,-249.132 503.162,-243 522.227,-176.333 546.948,-142.334 505.162,-87 483.662,-58.5292 390.175,-38.4622 326.698,-27.8245"/>
<polygon fill="black" stroke="black" stroke-width="1.04356" points="327.218,-24.3631 316.783,-26.1983 326.085,-31.2708 327.218,-24.3631"/>
<text text-anchor="middle" x="584.162" y="-144.8" font-family="Times New Roman,serif" font-size="14.00">407.4162952027497</text>
</g>
<!-- 1152587832168206417 -->
<g id="node8" class="node"><title>1152587832168206417</title>
<polygon fill="#ffffff" stroke="black" points="117.162,-123 19.1621,-123 19.1621,-87 117.162,-87 117.162,-123"/>
<text text-anchor="middle" x="68.1621" y="-101.3" font-family="Times New Roman,serif" font-size="14.00">LacticAcid (1)</text>
</g>
<!-- 7850561497370058999&#45;&gt;1152587832168206417 -->
<g id="edge3" class="edge"><title>7850561497370058999&#45;&gt;1152587832168206417</title>
<path fill="none" stroke="black" stroke-width="1.29544" d="M233.766,-191.7C170.585,-192.296 34.5122,-189.549 5.16208,-156 -3.65285,-145.924 2.97113,-136.382 14.7063,-128.388"/>
<polygon fill="black" stroke="black" stroke-width="1.29544" points="16.737,-131.252 23.5203,-123.113 13.1422,-125.245 16.737,-131.252"/>
<text text-anchor="middle" x="61.1621" y="-144.8" font-family="Times New Roman,serif" font-size="14.00">629.1430875896871</text>
</g>
<!-- 7850561497370058999&#45;&gt;6179918396602481755 -->
<g id="edge4" class="edge"><title>7850561497370058999&#45;&gt;6179918396602481755</title>
<path fill="none" stroke="black" stroke-width="2.22231" d="M266.162,-173.879C266.162,-144.001 266.162,-82.1129 266.162,-46.2736"/>
<polygon fill="black" stroke="black" stroke-width="2.22231" points="269.662,-46.0516 266.162,-36.0516 262.662,-46.0516 269.662,-46.0516"/>
<text text-anchor="middle" x="319.162" y="-101.3" font-family="Times New Roman,serif" font-size="14.00">1445.06525159209</text>
</g>
<!-- &#45;2410219256766748193 -->
<g id="node3" class="node"><title>&#45;2410219256766748193</title>
<polygon fill="#ffffff" stroke="black" points="689.662,-471 564.662,-471 564.662,-435 689.662,-435 689.662,-471"/>
<text text-anchor="middle" x="627.162" y="-449.3" font-family="Times New Roman,serif" font-size="14.00">ER Registration (1)</text>
</g>
<!-- &#45;2872325205858232948 -->
<g id="node5" class="node"><title>&#45;2872325205858232948</title>
<polygon fill="#ffffff" stroke="black" points="673.662,-384 580.662,-384 580.662,-348 673.662,-348 673.662,-384"/>
<text text-anchor="middle" x="627.162" y="-362.3" font-family="Times New Roman,serif" font-size="14.00">ER Triage (1)</text>
</g>
<!-- &#45;2410219256766748193&#45;&gt;&#45;2872325205858232948 -->
<g id="edge5" class="edge"><title>&#45;2410219256766748193&#45;&gt;&#45;2872325205858232948</title>
<path fill="none" stroke="black" stroke-width="1.68364" d="M627.162,-434.799C627.162,-423.163 627.162,-407.548 627.162,-394.237"/>
<polygon fill="black" stroke="black" stroke-width="1.68364" points="630.662,-394.175 627.162,-384.175 623.662,-394.175 630.662,-394.175"/>
<text text-anchor="middle" x="683.162" y="-405.8" font-family="Times New Roman,serif" font-size="14.00">970.8765596782519</text>
</g>
<!-- 8892003065059452103 -->
<g id="node4" class="node"><title>8892003065059452103</title>
<polygon fill="#ffffff" stroke="black" points="694.162,-297 560.162,-297 560.162,-261 694.162,-261 694.162,-297"/>
<text text-anchor="middle" x="627.162" y="-275.3" font-family="Times New Roman,serif" font-size="14.00">ER Sepsis Triage (1)</text>
</g>
<!-- &#45;2872325205858232948&#45;&gt;8892003065059452103 -->
<g id="edge6" class="edge"><title>&#45;2872325205858232948&#45;&gt;8892003065059452103</title>
<path fill="none" stroke="black" stroke-width="1.60896" d="M627.162,-347.799C627.162,-336.163 627.162,-320.548 627.162,-307.237"/>
<polygon fill="black" stroke="black" stroke-width="1.60896" points="630.662,-307.175 627.162,-297.175 623.662,-307.175 630.662,-307.175"/>
<text text-anchor="middle" x="683.162" y="-318.8" font-family="Times New Roman,serif" font-size="14.00">905.1320182009038</text>
</g>
<!-- &#45;6564841300794043563 -->
<g id="node6" class="node"><title>&#45;6564841300794043563</title>
<polygon fill="#ffffff" stroke="black" points="539.662,-384 424.662,-384 424.662,-348 539.662,-348 539.662,-384"/>
<text text-anchor="middle" x="482.162" y="-362.3" font-family="Times New Roman,serif" font-size="14.00">IV Antibiotics (1)</text>
</g>
<!-- &#45;6564841300794043563&#45;&gt;&#45;6760735685208204671 -->
<g id="edge7" class="edge"><title>&#45;6564841300794043563&#45;&gt;&#45;6760735685208204671</title>
<path fill="none" stroke="black" stroke-width="1.13603" d="M482.162,-347.799C482.162,-336.163 482.162,-320.548 482.162,-307.237"/>
<polygon fill="black" stroke="black" stroke-width="1.13603" points="485.662,-307.175 482.162,-297.175 478.662,-307.175 485.662,-307.175"/>
<text text-anchor="middle" x="538.162" y="-318.8" font-family="Times New Roman,serif" font-size="14.00">488.8160417307633</text>
</g>
<!-- &#45;1926219633770359302 -->
<g id="node7" class="node"><title>&#45;1926219633770359302</title>
<polygon fill="#ffffff" stroke="black" points="527.162,-471 437.162,-471 437.162,-435 527.162,-435 527.162,-471"/>
<text text-anchor="middle" x="482.162" y="-449.3" font-family="Times New Roman,serif" font-size="14.00">IV Liquid (1)</text>
</g>
<!-- &#45;1926219633770359302&#45;&gt;&#45;6564841300794043563 -->
<g id="edge8" class="edge"><title>&#45;1926219633770359302&#45;&gt;&#45;6564841300794043563</title>
<path fill="none" stroke="black" stroke-width="1.15014" d="M482.162,-434.799C482.162,-423.163 482.162,-407.548 482.162,-394.237"/>
<polygon fill="black" stroke="black" stroke-width="1.15014" points="485.662,-394.175 482.162,-384.175 478.662,-394.175 485.662,-394.175"/>
<text text-anchor="middle" x="538.162" y="-405.8" font-family="Times New Roman,serif" font-size="14.00">501.2345373557402</text>
</g>
<!-- 1152587832168206417&#45;&gt;7850561497370058999 -->
<g id="edge9" class="edge"><title>1152587832168206417&#45;&gt;7850561497370058999</title>
<path fill="none" stroke="black" stroke-width="1.03986" d="M91.9389,-123.102C110.846,-136.601 134.962,-153.558 140.162,-156 166.894,-168.551 198.991,-177.384 224.1,-183.036"/>
<polygon fill="black" stroke="black" stroke-width="1.03986" points="223.533,-186.495 234.047,-185.193 225.016,-179.654 223.533,-186.495"/>
<text text-anchor="middle" x="196.162" y="-144.8" font-family="Times New Roman,serif" font-size="14.00">404.1564941052253</text>
</g>
<!-- 1152587832168206417&#45;&gt;6179918396602481755 -->
<g id="edge10" class="edge"><title>1152587832168206417&#45;&gt;6179918396602481755</title>
<path fill="none" stroke="black" stroke-width="1.2222" d="M22.8667,-86.9903C5.94535,-78.1208 -6.79619,-66.5195 4.16208,-54 29.7486,-24.7682 136.09,-18.893 205.178,-18.2661"/>
<polygon fill="black" stroke="black" stroke-width="1.2222" points="205.527,-21.7643 215.508,-18.2085 205.488,-14.7644 205.527,-21.7643"/>
<text text-anchor="middle" x="57.1621" y="-57.8" font-family="Times New Roman,serif" font-size="14.00">564.674210462558</text>
</g>
<!-- 6179918396602481755&#45;&gt;7850561497370058999 -->
<g id="edge11" class="edge"><title>6179918396602481755&#45;&gt;7850561497370058999</title>
<path fill="none" stroke="black" stroke-width="2.6" d="M314.919,-36.1243C337.845,-46.9188 362.989,-63.3696 376.162,-87 383.953,-100.975 383.953,-109.025 376.162,-123 361.589,-149.141 332.366,-166.496 307.702,-177.127"/>
<polygon fill="black" stroke="black" stroke-width="2.6" points="306.108,-173.997 298.166,-181.01 308.748,-180.48 306.108,-173.997"/>
<text text-anchor="middle" x="441.662" y="-101.3" font-family="Times New Roman,serif" font-size="14.00">1777.5448849107918</text>
</g>
<!-- 6179918396602481755&#45;&gt;1152587832168206417 -->
<g id="edge12" class="edge"><title>6179918396602481755&#45;&gt;1152587832168206417</title>
<path fill="none" stroke="black" stroke-width="1.07531" d="M215.529,-27.3769C189.968,-32.8194 158.987,-41.3172 133.162,-54 125.364,-57.8298 110.227,-69.3723 96.5223,-80.4029"/>
<polygon fill="black" stroke="black" stroke-width="1.07531" points="94.235,-77.7517 88.6846,-86.7763 98.6514,-83.1828 94.235,-77.7517"/>
<text text-anchor="middle" x="192.662" y="-57.8" font-family="Times New Roman,serif" font-size="14.00">435.36359864951953</text>
</g>
<!-- 6179918396602481755&#45;&gt;6179918396602481755 -->
<g id="edge13" class="edge"><title>6179918396602481755&#45;&gt;6179918396602481755</title>
<path fill="none" stroke="black" stroke-width="1.10065" d="M316.946,-25.5746C327.27,-24.7495 334.662,-22.2246 334.662,-18 334.662,-15.3596 331.774,-13.3832 327.088,-12.0707"/>
<polygon fill="black" stroke="black" stroke-width="1.10065" points="327.377,-8.57199 316.946,-10.4254 326.256,-15.4817 327.377,-8.57199"/>
<text text-anchor="middle" x="394.162" y="-14.3" font-family="Times New Roman,serif" font-size="14.00">457.67000330544647</text>
</g>
</g>
</svg>
