<?xml version="1.0" encoding="UTF-8" standalone="no"?>
<!DOCTYPE svg PUBLIC "-//W3C//DTD SVG 1.1//EN"
 "http://www.w3.org/Graphics/SVG/1.1/DTD/svg11.dtd">
<!-- Generated by graphviz version 2.38.0 (20140413.2041)
 -->
<!-- Title: %3 Pages: 1 -->
<svg width="741pt" height="479pt"
 viewBox="0.00 0.00 741.39 479.00" xmlns="http://www.w3.org/2000/svg" xmlns:xlink="http://www.w3.org/1999/xlink">
<g id="graph0" class="graph" transform="scale(1 1) rotate(0) translate(4 475)">
<title>%3</title>
<!-- &#45;6760735685208204671 -->
<g id="node1" class="node"><title>&#45;6760735685208204671</title>
<polygon fill="#ffffff" stroke="black" points="535.894,-297 416.894,-297 416.894,-261 535.894,-261 535.894,-297"/>
<text text-anchor="middle" x="476.394" y="-275.3" font-family="Times New Roman,serif" font-size="14.00">Admission NC (1)</text>
</g>
<!-- 7850561497370058999 -->
<g id="node2" class="node"><title>7850561497370058999</title>
<polygon fill="#ffffff" stroke="black" points="297.394,-210 233.394,-210 233.394,-174 297.394,-174 297.394,-210"/>
<text text-anchor="middle" x="265.394" y="-188.3" font-family="Times New Roman,serif" font-size="14.00">CRP (1)</text>
</g>
<!-- &#45;6760735685208204671&#45;&gt;7850561497370058999 -->
<g id="edge1" class="edge"><title>&#45;6760735685208204671&#45;&gt;7850561497370058999</title>
<path fill="none" stroke="black" d="M433.949,-260.901C396.941,-245.993 343.583,-224.498 306.865,-209.707"/>
<polygon fill="black" stroke="black" points="308.028,-206.402 297.444,-205.911 305.412,-212.894 308.028,-206.402"/>
<text text-anchor="middle" x="433.894" y="-231.8" font-family="Times New Roman,serif" font-size="14.00">369.17329013467</text>
</g>
<!-- 6179918396602481755 -->
<g id="node9" class="node"><title>6179918396602481755</title>
<polygon fill="#ffffff" stroke="black" points="315.894,-36 214.894,-36 214.894,-0 315.894,-0 315.894,-36"/>
<text text-anchor="middle" x="265.394" y="-14.3" font-family="Times New Roman,serif" font-size="14.00">Leucocytes (1)</text>
</g>
<!-- &#45;6760735685208204671&#45;&gt;6179918396602481755 -->
<g id="edge2" class="edge"><title>&#45;6760735685208204671&#45;&gt;6179918396602481755</title>
<path fill="none" stroke="black" stroke-width="1.04419" d="M485.37,-260.898C502.946,-224.782 536.89,-139.734 497.394,-87 476.807,-59.513 387.744,-39.3815 326.159,-28.4333"/>
<polygon fill="black" stroke="black" stroke-width="1.04419" points="326.597,-24.9571 316.145,-26.6905 325.397,-31.8534 326.597,-24.9571"/>
<text text-anchor="middle" x="572.394" y="-144.8" font-family="Times New Roman,serif" font-size="14.00">408.0835792509516</text>
</g>
<!-- 1152587832168206417 -->
<g id="node8" class="node"><title>1152587832168206417</title>
<polygon fill="#ffffff" stroke="black" points="119.394,-123 21.3938,-123 21.3938,-87 119.394,-87 119.394,-123"/>
<text text-anchor="middle" x="70.3938" y="-101.3" font-family="Times New Roman,serif" font-size="14.00">LacticAcid (1)</text>
</g>
<!-- 7850561497370058999&#45;&gt;1152587832168206417 -->
<g id="edge3" class="edge"><title>7850561497370058999&#45;&gt;1152587832168206417</title>
<path fill="none" stroke="black" stroke-width="1.29433" d="M232.998,-191.7C169.817,-192.296 33.744,-189.549 4.39385,-156 -4.69053,-145.616 2.31343,-135.99 14.6193,-128.014"/>
<polygon fill="black" stroke="black" stroke-width="1.29433" points="16.4117,-131.021 23.3558,-123.019 12.9373,-124.944 16.4117,-131.021"/>
<text text-anchor="middle" x="60.3938" y="-144.8" font-family="Times New Roman,serif" font-size="14.00">628.3323977727144</text>
</g>
<!-- 7850561497370058999&#45;&gt;6179918396602481755 -->
<g id="edge4" class="edge"><title>7850561497370058999&#45;&gt;6179918396602481755</title>
<path fill="none" stroke="black" stroke-width="2.22169" d="M265.394,-173.879C265.394,-144.001 265.394,-82.1129 265.394,-46.2736"/>
<polygon fill="black" stroke="black" stroke-width="2.22169" points="268.894,-46.0516 265.394,-36.0516 261.894,-46.0516 268.894,-46.0516"/>
<text text-anchor="middle" x="314.894" y="-101.3" font-family="Times New Roman,serif" font-size="14.00">1444.8917827352</text>
</g>
<!-- &#45;2410219256766748193 -->
<g id="node3" class="node"><title>&#45;2410219256766748193</title>
<polygon fill="#ffffff" stroke="black" points="683.894,-471 558.894,-471 558.894,-435 683.894,-435 683.894,-471"/>
<text text-anchor="middle" x="621.394" y="-449.3" font-family="Times New Roman,serif" font-size="14.00">ER Registration (1)</text>
</g>
<!-- &#45;2872325205858232948 -->
<g id="node5" class="node"><title>&#45;2872325205858232948</title>
<polygon fill="#ffffff" stroke="black" points="667.894,-384 574.894,-384 574.894,-348 667.894,-348 667.894,-384"/>
<text text-anchor="middle" x="621.394" y="-362.3" font-family="Times New Roman,serif" font-size="14.00">ER Triage (1)</text>
</g>
<!-- &#45;2410219256766748193&#45;&gt;&#45;2872325205858232948 -->
<g id="edge5" class="edge"><title>&#45;2410219256766748193&#45;&gt;&#45;2872325205858232948</title>
<path fill="none" stroke="black" stroke-width="1.68409" d="M621.394,-434.799C621.394,-423.163 621.394,-407.548 621.394,-394.237"/>
<polygon fill="black" stroke="black" stroke-width="1.68409" points="624.894,-394.175 621.394,-384.175 617.894,-394.175 624.894,-394.175"/>
<text text-anchor="middle" x="677.394" y="-405.8" font-family="Times New Roman,serif" font-size="14.00">971.5249952002545</text>
</g>
<!-- 8892003065059452103 -->
<g id="node4" class="node"><title>8892003065059452103</title>
<polygon fill="#ffffff" stroke="black" points="688.394,-297 554.394,-297 554.394,-261 688.394,-261 688.394,-297"/>
<text text-anchor="middle" x="621.394" y="-275.3" font-family="Times New Roman,serif" font-size="14.00">ER Sepsis Triage (1)</text>
</g>
<!-- &#45;2872325205858232948&#45;&gt;8892003065059452103 -->
<g id="edge6" class="edge"><title>&#45;2872325205858232948&#45;&gt;8892003065059452103</title>
<path fill="none" stroke="black" stroke-width="1.60909" d="M621.394,-347.799C621.394,-336.163 621.394,-320.548 621.394,-307.237"/>
<polygon fill="black" stroke="black" stroke-width="1.60909" points="624.894,-307.175 621.394,-297.175 617.894,-307.175 624.894,-307.175"/>
<text text-anchor="middle" x="677.394" y="-318.8" font-family="Times New Roman,serif" font-size="14.00">905.4842140017279</text>
</g>
<!-- &#45;6564841300794043563 -->
<g id="node6" class="node"><title>&#45;6564841300794043563</title>
<polygon fill="#ffffff" stroke="black" points="533.894,-384 418.894,-384 418.894,-348 533.894,-348 533.894,-384"/>
<text text-anchor="middle" x="476.394" y="-362.3" font-family="Times New Roman,serif" font-size="14.00">IV Antibiotics (1)</text>
</g>
<!-- &#45;6564841300794043563&#45;&gt;&#45;6760735685208204671 -->
<g id="edge7" class="edge"><title>&#45;6564841300794043563&#45;&gt;&#45;6760735685208204671</title>
<path fill="none" stroke="black" stroke-width="1.13677" d="M476.394,-347.799C476.394,-336.163 476.394,-320.548 476.394,-307.237"/>
<polygon fill="black" stroke="black" stroke-width="1.13677" points="479.894,-307.175 476.394,-297.175 472.894,-307.175 479.894,-307.175"/>
<text text-anchor="middle" x="535.894" y="-318.8" font-family="Times New Roman,serif" font-size="14.00">489.59668527679526</text>
</g>
<!-- &#45;1926219633770359302 -->
<g id="node7" class="node"><title>&#45;1926219633770359302</title>
<polygon fill="#ffffff" stroke="black" points="521.394,-471 431.394,-471 431.394,-435 521.394,-435 521.394,-471"/>
<text text-anchor="middle" x="476.394" y="-449.3" font-family="Times New Roman,serif" font-size="14.00">IV Liquid (1)</text>
</g>
<!-- &#45;1926219633770359302&#45;&gt;&#45;6564841300794043563 -->
<g id="edge8" class="edge"><title>&#45;1926219633770359302&#45;&gt;&#45;6564841300794043563</title>
<path fill="none" stroke="black" stroke-width="1.15014" d="M476.394,-434.799C476.394,-423.163 476.394,-407.548 476.394,-394.237"/>
<polygon fill="black" stroke="black" stroke-width="1.15014" points="479.894,-394.175 476.394,-384.175 472.894,-394.175 479.894,-394.175"/>
<text text-anchor="middle" x="535.894" y="-405.8" font-family="Times New Roman,serif" font-size="14.00">501.37199479455506</text>
</g>
<!-- 1152587832168206417&#45;&gt;7850561497370058999 -->
<g id="edge9" class="edge"><title>1152587832168206417&#45;&gt;7850561497370058999</title>
<path fill="none" stroke="black" stroke-width="1.03956" d="M93.156,-123.111C111.261,-136.616 134.363,-153.576 139.394,-156 165.999,-168.819 198.098,-177.647 223.239,-183.231"/>
<polygon fill="black" stroke="black" stroke-width="1.03956" points="222.692,-186.693 233.202,-185.356 224.152,-179.847 222.692,-186.693"/>
<text text-anchor="middle" x="195.394" y="-144.8" font-family="Times New Roman,serif" font-size="14.00">404.0096291639593</text>
</g>
<!-- 1152587832168206417&#45;&gt;6179918396602481755 -->
<g id="edge10" class="edge"><title>1152587832168206417&#45;&gt;6179918396602481755</title>
<path fill="none" stroke="black" stroke-width="1.2245" d="M23.3558,-86.981C6.15378,-78.1902 -6.68044,-66.6585 4.39385,-54 29.8413,-24.9123 135.517,-18.9795 204.351,-18.3044"/>
<polygon fill="black" stroke="black" stroke-width="1.2245" points="204.666,-21.8026 214.644,-18.2395 204.622,-14.8027 204.666,-21.8026"/>
<text text-anchor="middle" x="60.3938" y="-57.8" font-family="Times New Roman,serif" font-size="14.00">566.8465816433908</text>
</g>
<!-- 6179918396602481755&#45;&gt;7850561497370058999 -->
<g id="edge11" class="edge"><title>6179918396602481755&#45;&gt;7850561497370058999</title>
<path fill="none" stroke="black" stroke-width="2.6" d="M309.531,-36.0641C331.443,-47.0515 355.855,-63.6965 368.394,-87 375.975,-101.09 375.975,-108.91 368.394,-123 355.276,-147.379 329.164,-164.471 306.515,-175.421"/>
<polygon fill="black" stroke="black" stroke-width="2.6" points="305.027,-172.253 297.394,-179.6 307.943,-178.617 305.027,-172.253"/>
<text text-anchor="middle" x="433.894" y="-101.3" font-family="Times New Roman,serif" font-size="14.00">1777.9943309506186</text>
</g>
<!-- 6179918396602481755&#45;&gt;1152587832168206417 -->
<g id="edge12" class="edge"><title>6179918396602481755&#45;&gt;1152587832168206417</title>
<path fill="none" stroke="black" stroke-width="1.07491" d="M214.847,-28.6971C191.214,-34.3104 163.119,-42.5684 139.394,-54 135.11,-56.0643 117.721,-68.6695 101.473,-80.7057"/>
<polygon fill="black" stroke="black" stroke-width="1.07491" points="99.0929,-78.114 93.156,-86.8892 103.269,-83.7316 99.0929,-78.114"/>
<text text-anchor="middle" x="195.394" y="-57.8" font-family="Times New Roman,serif" font-size="14.00">435.1332744147762</text>
</g>
<!-- 6179918396602481755&#45;&gt;6179918396602481755 -->
<g id="edge13" class="edge"><title>6179918396602481755&#45;&gt;6179918396602481755</title>
<path fill="none" stroke="black" stroke-width="1.10072" d="M316.178,-25.5746C326.501,-24.7495 333.894,-22.2246 333.894,-18 333.894,-15.3596 331.006,-13.3832 326.32,-12.0707"/>
<polygon fill="black" stroke="black" stroke-width="1.10072" points="326.609,-8.57199 316.178,-10.4254 325.488,-15.4817 326.609,-8.57199"/>
<text text-anchor="middle" x="393.394" y="-14.3" font-family="Times New Roman,serif" font-size="14.00">457.85804414681905</text>
</g>
</g>
</svg>
