<?xml version="1.0" encoding="UTF-8" standalone="no"?>
<!DOCTYPE svg PUBLIC "-//W3C//DTD SVG 1.1//EN"
 "http://www.w3.org/Graphics/SVG/1.1/DTD/svg11.dtd">
<!-- Generated by graphviz version 2.38.0 (20140413.2041)
 -->
<!-- Title: %3 Pages: 1 -->
<svg width="748pt" height="479pt"
 viewBox="0.00 0.00 748.41 479.00" xmlns="http://www.w3.org/2000/svg" xmlns:xlink="http://www.w3.org/1999/xlink">
<g id="graph0" class="graph" transform="scale(1 1) rotate(0) translate(4 475)">
<title>%3</title>
<!-- 118450489566830562 -->
<g id="node1" class="node"><title>118450489566830562</title>
<polygon fill="#ffffff" stroke="black" points="542.908,-297 423.908,-297 423.908,-261 542.908,-261 542.908,-297"/>
<text text-anchor="middle" x="483.408" y="-275.3" font-family="Times New Roman,serif" font-size="14.00">Admission NC (1)</text>
</g>
<!-- 4941769122289558835 -->
<g id="node2" class="node"><title>4941769122289558835</title>
<polygon fill="#ffffff" stroke="black" points="304.408,-210 240.408,-210 240.408,-174 304.408,-174 304.408,-210"/>
<text text-anchor="middle" x="272.408" y="-188.3" font-family="Times New Roman,serif" font-size="14.00">CRP (1)</text>
</g>
<!-- 118450489566830562&#45;&gt;4941769122289558835 -->
<g id="edge1" class="edge"><title>118450489566830562&#45;&gt;4941769122289558835</title>
<path fill="none" stroke="black" d="M440.963,-260.901C403.955,-245.993 350.597,-224.498 313.879,-209.707"/>
<polygon fill="black" stroke="black" points="315.042,-206.402 304.458,-205.911 312.426,-212.894 315.042,-206.402"/>
<text text-anchor="middle" x="447.408" y="-231.8" font-family="Times New Roman,serif" font-size="14.00">358.8602502609192</text>
</g>
<!-- 6570115252564267433 -->
<g id="node9" class="node"><title>6570115252564267433</title>
<polygon fill="#ffffff" stroke="black" points="322.908,-36 221.908,-36 221.908,-0 322.908,-0 322.908,-36"/>
<text text-anchor="middle" x="272.408" y="-14.3" font-family="Times New Roman,serif" font-size="14.00">Leucocytes (1)</text>
</g>
<!-- 118450489566830562&#45;&gt;6570115252564267433 -->
<g id="edge2" class="edge"><title>118450489566830562&#45;&gt;6570115252564267433</title>
<path fill="none" stroke="black" stroke-width="1.05791" d="M498.118,-260.925C501.896,-255.54 505.445,-249.334 507.408,-243 521.208,-198.471 630.02,-251.048 504.408,-87 483.53,-59.7335 394.547,-39.5407 333.059,-28.5194"/>
<polygon fill="black" stroke="black" stroke-width="1.05791" points="333.516,-25.0462 323.062,-26.7643 332.306,-31.9408 333.516,-25.0462"/>
<text text-anchor="middle" x="607.408" y="-144.8" font-family="Times New Roman,serif" font-size="14.00">410.2251120422896</text>
</g>
<!-- &#45;5670009864185339888 -->
<g id="node8" class="node"><title>&#45;5670009864185339888</title>
<polygon fill="#ffffff" stroke="black" points="119.408,-123 21.4078,-123 21.4078,-87 119.408,-87 119.408,-123"/>
<text text-anchor="middle" x="70.4078" y="-101.3" font-family="Times New Roman,serif" font-size="14.00">LacticAcid (1)</text>
</g>
<!-- 4941769122289558835&#45;&gt;&#45;5670009864185339888 -->
<g id="edge3" class="edge"><title>4941769122289558835&#45;&gt;&#45;5670009864185339888</title>
<path fill="none" stroke="black" stroke-width="1.30471" d="M240.143,-191.828C175.725,-192.715 34.7453,-190.557 4.40776,-156 -4.69448,-145.632 2.30501,-136.01 14.6123,-128.032"/>
<polygon fill="black" stroke="black" stroke-width="1.30471" points="16.4067,-131.038 23.3505,-123.036 12.932,-124.961 16.4067,-131.038"/>
<text text-anchor="middle" x="60.4078" y="-144.8" font-family="Times New Roman,serif" font-size="14.00">629.1503677086391</text>
</g>
<!-- 4941769122289558835&#45;&gt;6570115252564267433 -->
<g id="edge4" class="edge"><title>4941769122289558835&#45;&gt;6570115252564267433</title>
<path fill="none" stroke="black" stroke-width="2.2116" d="M272.408,-173.879C272.408,-144.001 272.408,-82.1129 272.408,-46.2736"/>
<polygon fill="black" stroke="black" stroke-width="2.2116" points="275.908,-46.0516 272.408,-36.0516 268.908,-46.0516 275.908,-46.0516"/>
<text text-anchor="middle" x="325.408" y="-101.3" font-family="Times New Roman,serif" font-size="14.00">1433.60657328668</text>
</g>
<!-- &#45;1744131764726653331 -->
<g id="node3" class="node"><title>&#45;1744131764726653331</title>
<polygon fill="#ffffff" stroke="black" points="690.908,-471 565.908,-471 565.908,-435 690.908,-435 690.908,-471"/>
<text text-anchor="middle" x="628.408" y="-449.3" font-family="Times New Roman,serif" font-size="14.00">ER Registration (1)</text>
</g>
<!-- &#45;8305476247514553090 -->
<g id="node5" class="node"><title>&#45;8305476247514553090</title>
<polygon fill="#ffffff" stroke="black" points="674.908,-384 581.908,-384 581.908,-348 674.908,-348 674.908,-384"/>
<text text-anchor="middle" x="628.408" y="-362.3" font-family="Times New Roman,serif" font-size="14.00">ER Triage (1)</text>
</g>
<!-- &#45;1744131764726653331&#45;&gt;&#45;8305476247514553090 -->
<g id="edge5" class="edge"><title>&#45;1744131764726653331&#45;&gt;&#45;8305476247514553090</title>
<path fill="none" stroke="black" stroke-width="1.6828" d="M628.408,-434.799C628.408,-423.163 628.408,-407.548 628.408,-394.237"/>
<polygon fill="black" stroke="black" stroke-width="1.6828" points="631.908,-394.175 628.408,-384.175 624.908,-394.175 631.908,-394.175"/>
<text text-anchor="middle" x="684.408" y="-405.8" font-family="Times New Roman,serif" font-size="14.00">964.5348074074712</text>
</g>
<!-- 3296544575651183754 -->
<g id="node4" class="node"><title>3296544575651183754</title>
<polygon fill="#ffffff" stroke="black" points="695.408,-297 561.408,-297 561.408,-261 695.408,-261 695.408,-297"/>
<text text-anchor="middle" x="628.408" y="-275.3" font-family="Times New Roman,serif" font-size="14.00">ER Sepsis Triage (1)</text>
</g>
<!-- &#45;8305476247514553090&#45;&gt;3296544575651183754 -->
<g id="edge6" class="edge"><title>&#45;8305476247514553090&#45;&gt;3296544575651183754</title>
<path fill="none" stroke="black" stroke-width="1.61392" d="M628.408,-347.799C628.408,-336.163 628.408,-320.548 628.408,-307.237"/>
<polygon fill="black" stroke="black" stroke-width="1.61392" points="631.908,-307.175 628.408,-297.175 624.908,-307.175 631.908,-307.175"/>
<text text-anchor="middle" x="684.408" y="-318.8" font-family="Times New Roman,serif" font-size="14.00">903.4309140582144</text>
</g>
<!-- &#45;8429177058128869877 -->
<g id="node6" class="node"><title>&#45;8429177058128869877</title>
<polygon fill="#ffffff" stroke="black" points="540.908,-384 425.908,-384 425.908,-348 540.908,-348 540.908,-384"/>
<text text-anchor="middle" x="483.408" y="-362.3" font-family="Times New Roman,serif" font-size="14.00">IV Antibiotics (1)</text>
</g>
<!-- &#45;8429177058128869877&#45;&gt;118450489566830562 -->
<g id="edge7" class="edge"><title>&#45;8429177058128869877&#45;&gt;118450489566830562</title>
<path fill="none" stroke="black" stroke-width="1.14436" d="M483.408,-347.799C483.408,-336.163 483.408,-320.548 483.408,-307.237"/>
<polygon fill="black" stroke="black" stroke-width="1.14436" points="486.908,-307.175 483.408,-297.175 479.908,-307.175 486.908,-307.175"/>
<text text-anchor="middle" x="542.908" y="-318.8" font-family="Times New Roman,serif" font-size="14.00">486.90993783806016</text>
</g>
<!-- 6215314419735287562 -->
<g id="node7" class="node"><title>6215314419735287562</title>
<polygon fill="#ffffff" stroke="black" points="528.408,-471 438.408,-471 438.408,-435 528.408,-435 528.408,-471"/>
<text text-anchor="middle" x="483.408" y="-449.3" font-family="Times New Roman,serif" font-size="14.00">IV Liquid (1)</text>
</g>
<!-- 6215314419735287562&#45;&gt;&#45;8429177058128869877 -->
<g id="edge8" class="edge"><title>6215314419735287562&#45;&gt;&#45;8429177058128869877</title>
<path fill="none" stroke="black" stroke-width="1.16349" d="M483.408,-434.799C483.408,-423.163 483.408,-407.548 483.408,-394.237"/>
<polygon fill="black" stroke="black" stroke-width="1.16349" points="486.908,-394.175 483.408,-384.175 479.908,-394.175 486.908,-394.175"/>
<text text-anchor="middle" x="539.408" y="-405.8" font-family="Times New Roman,serif" font-size="14.00">503.8802238351361</text>
</g>
<!-- &#45;5670009864185339888&#45;&gt;4941769122289558835 -->
<g id="edge9" class="edge"><title>&#45;5670009864185339888&#45;&gt;4941769122289558835</title>
<path fill="none" stroke="black" stroke-width="1.03953" d="M93.1616,-123.128C111.261,-136.644 134.36,-153.61 139.408,-156 168.398,-169.726 203.586,-178.684 230.485,-184.099"/>
<polygon fill="black" stroke="black" stroke-width="1.03953" points="229.877,-187.546 240.359,-186.003 231.202,-180.673 229.877,-187.546"/>
<text text-anchor="middle" x="198.908" y="-144.8" font-family="Times New Roman,serif" font-size="14.00">393.92933848094646</text>
</g>
<!-- &#45;5670009864185339888&#45;&gt;6570115252564267433 -->
<g id="edge10" class="edge"><title>&#45;5670009864185339888&#45;&gt;6570115252564267433</title>
<path fill="none" stroke="black" stroke-width="1.22905" d="M23.3505,-86.9641C6.14405,-78.1695 -6.6883,-66.6394 4.40776,-54 30.8153,-23.9195 141.056,-18.3878 211.661,-18.0442"/>
<polygon fill="black" stroke="black" stroke-width="1.22905" points="211.781,-21.5441 221.775,-18.0289 211.77,-14.5441 211.781,-21.5441"/>
<text text-anchor="middle" x="60.4078" y="-57.8" font-family="Times New Roman,serif" font-size="14.00">562.0341921509646</text>
</g>
<!-- 6570115252564267433&#45;&gt;4941769122289558835 -->
<g id="edge11" class="edge"><title>6570115252564267433&#45;&gt;4941769122289558835</title>
<path fill="none" stroke="black" stroke-width="2.6" d="M321.165,-36.1243C344.091,-46.9188 369.235,-63.3696 382.408,-87 390.198,-100.975 390.198,-109.025 382.408,-123 367.835,-149.141 338.612,-166.496 313.948,-177.127"/>
<polygon fill="black" stroke="black" stroke-width="2.6" points="312.354,-173.997 304.412,-181.01 314.994,-180.48 312.354,-173.997"/>
<text text-anchor="middle" x="444.408" y="-101.3" font-family="Times New Roman,serif" font-size="14.00">1778.132469010292</text>
</g>
<!-- 6570115252564267433&#45;&gt;&#45;5670009864185339888 -->
<g id="edge12" class="edge"><title>6570115252564267433&#45;&gt;&#45;5670009864185339888</title>
<path fill="none" stroke="black" stroke-width="1.09016" d="M221.607,-27.7575C196.146,-33.2825 165.304,-41.7392 139.408,-54 135.11,-56.0351 117.721,-68.6405 101.477,-80.684"/>
<polygon fill="black" stroke="black" stroke-width="1.09016" points="99.0945,-78.0939 93.1616,-86.8719 103.274,-83.7096 99.0945,-78.0939"/>
<text text-anchor="middle" x="198.908" y="-57.8" font-family="Times New Roman,serif" font-size="14.00">438.83612549398435</text>
</g>
<!-- 6570115252564267433&#45;&gt;6570115252564267433 -->
<g id="edge13" class="edge"><title>6570115252564267433&#45;&gt;6570115252564267433</title>
<path fill="none" stroke="black" stroke-width="1.11442" d="M323.192,-25.5746C333.515,-24.7495 340.908,-22.2246 340.908,-18 340.908,-15.3596 338.02,-13.3832 333.334,-12.0707"/>
<polygon fill="black" stroke="black" stroke-width="1.11442" points="333.623,-8.57199 323.192,-10.4254 332.502,-15.4817 333.623,-8.57199"/>
<text text-anchor="middle" x="396.908" y="-14.3" font-family="Times New Roman,serif" font-size="14.00">460.3518271867899</text>
</g>
</g>
</svg>
