<?xml version="1.0" encoding="UTF-8" standalone="no"?>
<!DOCTYPE svg PUBLIC "-//W3C//DTD SVG 1.1//EN"
 "http://www.w3.org/Graphics/SVG/1.1/DTD/svg11.dtd">
<!-- Generated by graphviz version 2.38.0 (20140413.2041)
 -->
<!-- Title: %3 Pages: 1 -->
<svg width="746pt" height="479pt"
 viewBox="0.00 0.00 746.27 479.00" xmlns="http://www.w3.org/2000/svg" xmlns:xlink="http://www.w3.org/1999/xlink">
<g id="graph0" class="graph" transform="scale(1 1) rotate(0) translate(4 475)">
<title>%3</title>
<!-- 118450489566830562 -->
<g id="node1" class="node"><title>118450489566830562</title>
<polygon fill="#ffffff" stroke="black" points="540.772,-297 421.772,-297 421.772,-261 540.772,-261 540.772,-297"/>
<text text-anchor="middle" x="481.272" y="-275.3" font-family="Times New Roman,serif" font-size="14.00">Admission NC (1)</text>
</g>
<!-- 4941769122289558835 -->
<g id="node2" class="node"><title>4941769122289558835</title>
<polygon fill="#ffffff" stroke="black" points="297.272,-210 233.272,-210 233.272,-174 297.272,-174 297.272,-210"/>
<text text-anchor="middle" x="265.272" y="-188.3" font-family="Times New Roman,serif" font-size="14.00">CRP (1)</text>
</g>
<!-- 118450489566830562&#45;&gt;4941769122289558835 -->
<g id="edge1" class="edge"><title>118450489566830562&#45;&gt;4941769122289558835</title>
<path fill="none" stroke="black" d="M437.821,-260.901C399.71,-245.904 344.661,-224.241 307.055,-209.442"/>
<polygon fill="black" stroke="black" points="308.003,-206.054 297.416,-205.649 305.44,-212.568 308.003,-206.054"/>
<text text-anchor="middle" x="442.272" y="-231.8" font-family="Times New Roman,serif" font-size="14.00">409.3489340393305</text>
</g>
<!-- 6570115252564267433 -->
<g id="node9" class="node"><title>6570115252564267433</title>
<polygon fill="#ffffff" stroke="black" points="315.772,-36 214.772,-36 214.772,-0 315.772,-0 315.772,-36"/>
<text text-anchor="middle" x="265.272" y="-14.3" font-family="Times New Roman,serif" font-size="14.00">Leucocytes (1)</text>
</g>
<!-- 118450489566830562&#45;&gt;6570115252564267433 -->
<g id="edge2" class="edge"><title>118450489566830562&#45;&gt;6570115252564267433</title>
<path fill="none" stroke="black" stroke-width="1.00867" d="M494.131,-260.68C497.436,-255.287 500.544,-249.139 502.272,-243 521.058,-176.259 545.025,-142.353 503.272,-87 481.902,-58.6683 389.04,-38.5895 325.83,-27.9074"/>
<polygon fill="black" stroke="black" stroke-width="1.00867" points="326.393,-24.453 315.956,-26.2739 325.25,-31.3591 326.393,-24.453"/>
<text text-anchor="middle" x="586.772" y="-144.8" font-family="Times New Roman,serif" font-size="14.00">416.93237184786864</text>
</g>
<!-- &#45;5670009864185339888 -->
<g id="node8" class="node"><title>&#45;5670009864185339888</title>
<polygon fill="#ffffff" stroke="black" points="122.272,-123 24.2722,-123 24.2722,-87 122.272,-87 122.272,-123"/>
<text text-anchor="middle" x="73.2722" y="-101.3" font-family="Times New Roman,serif" font-size="14.00">LacticAcid (1)</text>
</g>
<!-- 4941769122289558835&#45;&gt;&#45;5670009864185339888 -->
<g id="edge3" class="edge"><title>4941769122289558835&#45;&gt;&#45;5670009864185339888</title>
<path fill="none" stroke="black" stroke-width="1.2641" d="M233.138,-191.581C171.193,-191.94 38.8354,-188.751 10.2722,-156 1.47292,-145.91 8.10082,-136.365 19.8348,-128.372"/>
<polygon fill="black" stroke="black" stroke-width="1.2641" points="21.8636,-131.237 28.6472,-123.098 18.269,-125.23 21.8636,-131.237"/>
<text text-anchor="middle" x="66.2722" y="-144.8" font-family="Times New Roman,serif" font-size="14.00">640.3792858894077</text>
</g>
<!-- 4941769122289558835&#45;&gt;6570115252564267433 -->
<g id="edge4" class="edge"><title>4941769122289558835&#45;&gt;6570115252564267433</title>
<path fill="none" stroke="black" stroke-width="2.20244" d="M265.272,-173.879C265.272,-144.001 265.272,-82.1129 265.272,-46.2736"/>
<polygon fill="black" stroke="black" stroke-width="2.20244" points="268.772,-46.0516 265.272,-36.0516 261.772,-46.0516 268.772,-46.0516"/>
<text text-anchor="middle" x="321.272" y="-101.3" font-family="Times New Roman,serif" font-size="14.00">1461.231542623777</text>
</g>
<!-- &#45;1744131764726653331 -->
<g id="node3" class="node"><title>&#45;1744131764726653331</title>
<polygon fill="#ffffff" stroke="black" points="688.772,-471 563.772,-471 563.772,-435 688.772,-435 688.772,-471"/>
<text text-anchor="middle" x="626.272" y="-449.3" font-family="Times New Roman,serif" font-size="14.00">ER Registration (1)</text>
</g>
<!-- &#45;8305476247514553090 -->
<g id="node5" class="node"><title>&#45;8305476247514553090</title>
<polygon fill="#ffffff" stroke="black" points="672.772,-384 579.772,-384 579.772,-348 672.772,-348 672.772,-384"/>
<text text-anchor="middle" x="626.272" y="-362.3" font-family="Times New Roman,serif" font-size="14.00">ER Triage (1)</text>
</g>
<!-- &#45;1744131764726653331&#45;&gt;&#45;8305476247514553090 -->
<g id="edge5" class="edge"><title>&#45;1744131764726653331&#45;&gt;&#45;8305476247514553090</title>
<path fill="none" stroke="black" stroke-width="1.61331" d="M626.272,-434.799C626.272,-423.163 626.272,-407.548 626.272,-394.237"/>
<polygon fill="black" stroke="black" stroke-width="1.61331" points="629.772,-394.175 626.272,-384.175 622.772,-394.175 629.772,-394.175"/>
<text text-anchor="middle" x="675.772" y="-405.8" font-family="Times New Roman,serif" font-size="14.00">945.86628038882</text>
</g>
<!-- 3296544575651183754 -->
<g id="node4" class="node"><title>3296544575651183754</title>
<polygon fill="#ffffff" stroke="black" points="693.272,-297 559.272,-297 559.272,-261 693.272,-261 693.272,-297"/>
<text text-anchor="middle" x="626.272" y="-275.3" font-family="Times New Roman,serif" font-size="14.00">ER Sepsis Triage (1)</text>
</g>
<!-- &#45;8305476247514553090&#45;&gt;3296544575651183754 -->
<g id="edge6" class="edge"><title>&#45;8305476247514553090&#45;&gt;3296544575651183754</title>
<path fill="none" stroke="black" stroke-width="1.57709" d="M626.272,-347.799C626.272,-336.163 626.272,-320.548 626.272,-307.237"/>
<polygon fill="black" stroke="black" stroke-width="1.57709" points="629.772,-307.175 626.272,-297.175 622.772,-307.175 629.772,-307.175"/>
<text text-anchor="middle" x="682.272" y="-318.8" font-family="Times New Roman,serif" font-size="14.00">914.1817507830452</text>
</g>
<!-- &#45;8429177058128869877 -->
<g id="node6" class="node"><title>&#45;8429177058128869877</title>
<polygon fill="#ffffff" stroke="black" points="538.772,-384 423.772,-384 423.772,-348 538.772,-348 538.772,-384"/>
<text text-anchor="middle" x="481.272" y="-362.3" font-family="Times New Roman,serif" font-size="14.00">IV Antibiotics (1)</text>
</g>
<!-- &#45;8429177058128869877&#45;&gt;118450489566830562 -->
<g id="edge7" class="edge"><title>&#45;8429177058128869877&#45;&gt;118450489566830562</title>
<path fill="none" stroke="black" stroke-width="1.0834" d="M481.272,-347.799C481.272,-336.163 481.272,-320.548 481.272,-307.237"/>
<polygon fill="black" stroke="black" stroke-width="1.0834" points="484.772,-307.175 481.272,-297.175 477.772,-307.175 484.772,-307.175"/>
<text text-anchor="middle" x="537.272" y="-318.8" font-family="Times New Roman,serif" font-size="14.00">482.3019171547032</text>
</g>
<!-- 6215314419735287562 -->
<g id="node7" class="node"><title>6215314419735287562</title>
<polygon fill="#ffffff" stroke="black" points="526.272,-471 436.272,-471 436.272,-435 526.272,-435 526.272,-471"/>
<text text-anchor="middle" x="481.272" y="-449.3" font-family="Times New Roman,serif" font-size="14.00">IV Liquid (1)</text>
</g>
<!-- 6215314419735287562&#45;&gt;&#45;8429177058128869877 -->
<g id="edge8" class="edge"><title>6215314419735287562&#45;&gt;&#45;8429177058128869877</title>
<path fill="none" stroke="black" stroke-width="1.0707" d="M481.272,-434.799C481.272,-423.163 481.272,-407.548 481.272,-394.237"/>
<polygon fill="black" stroke="black" stroke-width="1.0707" points="484.772,-394.175 481.272,-384.175 477.772,-394.175 484.772,-394.175"/>
<text text-anchor="middle" x="534.272" y="-405.8" font-family="Times New Roman,serif" font-size="14.00">471.194675851593</text>
</g>
<!-- &#45;5670009864185339888&#45;&gt;4941769122289558835 -->
<g id="edge9" class="edge"><title>&#45;5670009864185339888&#45;&gt;4941769122289558835</title>
<path fill="none" stroke="black" stroke-width="1.01669" d="M97.057,-123.085C115.969,-136.574 140.088,-153.525 145.272,-156 170.009,-167.809 199.548,-176.485 223.129,-182.245"/>
<polygon fill="black" stroke="black" stroke-width="1.01669" points="222.635,-185.725 233.171,-184.612 224.241,-178.911 222.635,-185.725"/>
<text text-anchor="middle" x="198.272" y="-144.8" font-family="Times New Roman,serif" font-size="14.00">423.953143647027</text>
</g>
<!-- &#45;5670009864185339888&#45;&gt;6570115252564267433 -->
<g id="edge10" class="edge"><title>&#45;5670009864185339888&#45;&gt;6570115252564267433</title>
<path fill="none" stroke="black" stroke-width="1.22797" d="M24.2562,-87.3069C6.30868,-78.5904 -7.12446,-67.027 4.27222,-54 29.7197,-24.9123 135.395,-18.9795 204.229,-18.3044"/>
<polygon fill="black" stroke="black" stroke-width="1.22797" points="204.545,-21.8026 214.522,-18.2395 204.501,-14.8027 204.545,-21.8026"/>
<text text-anchor="middle" x="60.2722" y="-57.8" font-family="Times New Roman,serif" font-size="14.00">608.7711894500255</text>
</g>
<!-- 6570115252564267433&#45;&gt;4941769122289558835 -->
<g id="edge11" class="edge"><title>6570115252564267433&#45;&gt;4941769122289558835</title>
<path fill="none" stroke="black" stroke-width="2.6" d="M311.052,-36.0649C352.095,-54.2127 402.786,-85.4502 381.272,-123 365.355,-150.781 333.196,-168.313 306.768,-178.604"/>
<polygon fill="black" stroke="black" stroke-width="2.6" points="305.51,-175.337 297.332,-182.073 307.925,-181.907 305.51,-175.337"/>
<text text-anchor="middle" x="443.272" y="-101.3" font-family="Times New Roman,serif" font-size="14.00">1809.008970788679</text>
</g>
<!-- 6570115252564267433&#45;&gt;&#45;5670009864185339888 -->
<g id="edge12" class="edge"><title>6570115252564267433&#45;&gt;&#45;5670009864185339888</title>
<path fill="none" stroke="black" stroke-width="1.04697" d="M214.615,-28.4714C190.958,-34.0352 162.875,-42.3168 139.272,-54 131.41,-57.8916 116.044,-69.4369 102.115,-80.4537"/>
<polygon fill="black" stroke="black" stroke-width="1.04697" points="99.7772,-77.8416 94.1479,-86.8172 104.146,-83.3111 99.7772,-77.8416"/>
<text text-anchor="middle" x="195.272" y="-57.8" font-family="Times New Roman,serif" font-size="14.00">450.4357347452254</text>
</g>
<!-- 6570115252564267433&#45;&gt;6570115252564267433 -->
<g id="edge13" class="edge"><title>6570115252564267433&#45;&gt;6570115252564267433</title>
<path fill="none" stroke="black" stroke-width="1.09899" d="M316.056,-25.5746C326.38,-24.7495 333.772,-22.2246 333.772,-18 333.772,-15.3596 330.885,-13.3832 326.198,-12.0707"/>
<polygon fill="black" stroke="black" stroke-width="1.09899" points="326.488,-8.57199 316.056,-10.4254 325.367,-15.4817 326.488,-8.57199"/>
<text text-anchor="middle" x="389.772" y="-14.3" font-family="Times New Roman,serif" font-size="14.00">495.9433033182714</text>
</g>
</g>
</svg>
