<?xml version="1.0" encoding="UTF-8" standalone="no"?>
<!DOCTYPE svg PUBLIC "-//W3C//DTD SVG 1.1//EN"
 "http://www.w3.org/Graphics/SVG/1.1/DTD/svg11.dtd">
<!-- Generated by graphviz version 2.38.0 (20140413.2041)
 -->
<!-- Title: %3 Pages: 1 -->
<svg width="481pt" height="392pt"
 viewBox="0.00 0.00 481.00 392.00" xmlns="http://www.w3.org/2000/svg" xmlns:xlink="http://www.w3.org/1999/xlink">
<g id="graph0" class="graph" transform="scale(1 1) rotate(0) translate(4 388)">
<title>%3</title>
<!-- &#45;7777132172360584665 -->
<g id="node1" class="node"><title>&#45;7777132172360584665</title>
<polygon fill="#ffffff" stroke="black" points="134,-384 0,-384 0,-348 134,-348 134,-384"/>
<text text-anchor="middle" x="67" y="-362.3" font-family="Times New Roman,serif" font-size="14.00">01_HOOFD_010 (1)</text>
</g>
<!-- 5390265939567840027 -->
<g id="node2" class="node"><title>5390265939567840027</title>
<polygon fill="#ffffff" stroke="black" points="134,-297 0,-297 0,-261 134,-261 134,-297"/>
<text text-anchor="middle" x="67" y="-275.3" font-family="Times New Roman,serif" font-size="14.00">01_HOOFD_011 (1)</text>
</g>
<!-- &#45;7777132172360584665&#45;&gt;5390265939567840027 -->
<g id="edge1" class="edge"><title>&#45;7777132172360584665&#45;&gt;5390265939567840027</title>
<path fill="none" stroke="black" stroke-width="1.26785" d="M67,-347.799C67,-336.163 67,-320.548 67,-307.237"/>
<polygon fill="black" stroke="black" stroke-width="1.26785" points="70.5001,-307.175 67,-297.175 63.5001,-307.175 70.5001,-307.175"/>
<text text-anchor="middle" x="123" y="-318.8" font-family="Times New Roman,serif" font-size="14.00">423.5837009677588</text>
</g>
<!-- &#45;4861257761949471234 -->
<g id="node3" class="node"><title>&#45;4861257761949471234</title>
<polygon fill="#ffffff" stroke="black" points="134,-210 0,-210 0,-174 134,-174 134,-210"/>
<text text-anchor="middle" x="67" y="-188.3" font-family="Times New Roman,serif" font-size="14.00">01_HOOFD_020 (1)</text>
</g>
<!-- 5390265939567840027&#45;&gt;&#45;4861257761949471234 -->
<g id="edge2" class="edge"><title>5390265939567840027&#45;&gt;&#45;4861257761949471234</title>
<path fill="none" stroke="black" stroke-width="1.61956" d="M67,-260.799C67,-249.163 67,-233.548 67,-220.237"/>
<polygon fill="black" stroke="black" stroke-width="1.61956" points="70.5001,-220.175 67,-210.175 63.5001,-220.175 70.5001,-220.175"/>
<text text-anchor="middle" x="126.5" y="-231.8" font-family="Times New Roman,serif" font-size="14.00">463.65814103439766</text>
</g>
<!-- 389743508946519245 -->
<g id="node4" class="node"><title>389743508946519245</title>
<polygon fill="#ffffff" stroke="black" points="286,-384 152,-384 152,-348 286,-348 286,-384"/>
<text text-anchor="middle" x="219" y="-362.3" font-family="Times New Roman,serif" font-size="14.00">01_HOOFD_330 (1)</text>
</g>
<!-- &#45;7916874907130223389 -->
<g id="node9" class="node"><title>&#45;7916874907130223389</title>
<polygon fill="#ffffff" stroke="black" points="277,-297 161,-297 161,-261 277,-261 277,-297"/>
<text text-anchor="middle" x="219" y="-275.3" font-family="Times New Roman,serif" font-size="14.00">09_AH_I_010 (1)</text>
</g>
<!-- 389743508946519245&#45;&gt;&#45;7916874907130223389 -->
<g id="edge3" class="edge"><title>389743508946519245&#45;&gt;&#45;7916874907130223389</title>
<path fill="none" stroke="black" stroke-width="2.6" d="M219,-347.799C219,-336.163 219,-320.548 219,-307.237"/>
<polygon fill="black" stroke="black" stroke-width="2.6" points="222.5,-307.175 219,-297.175 215.5,-307.175 222.5,-307.175"/>
<text text-anchor="middle" x="275" y="-318.8" font-family="Times New Roman,serif" font-size="14.00">575.3719463082803</text>
</g>
<!-- 791431759772031367 -->
<g id="node5" class="node"><title>791431759772031367</title>
<polygon fill="#ffffff" stroke="black" points="286,-210 152,-210 152,-174 286,-174 286,-210"/>
<text text-anchor="middle" x="219" y="-188.3" font-family="Times New Roman,serif" font-size="14.00">01_HOOFD_380 (1)</text>
</g>
<!-- &#45;8390305537748324141 -->
<g id="node6" class="node"><title>&#45;8390305537748324141</title>
<polygon fill="#ffffff" stroke="black" points="286,-123 152,-123 152,-87 286,-87 286,-123"/>
<text text-anchor="middle" x="219" y="-101.3" font-family="Times New Roman,serif" font-size="14.00">01_HOOFD_430 (1)</text>
</g>
<!-- 791431759772031367&#45;&gt;&#45;8390305537748324141 -->
<g id="edge4" class="edge"><title>791431759772031367&#45;&gt;&#45;8390305537748324141</title>
<path fill="none" stroke="black" stroke-width="2.36237" d="M219,-173.799C219,-162.163 219,-146.548 219,-133.237"/>
<polygon fill="black" stroke="black" stroke-width="2.36237" points="222.5,-133.175 219,-123.175 215.5,-133.175 222.5,-133.175"/>
<text text-anchor="middle" x="272" y="-144.8" font-family="Times New Roman,serif" font-size="14.00">548.295371322341</text>
</g>
<!-- 4486019545031078369 -->
<g id="node10" class="node"><title>4486019545031078369</title>
<polygon fill="#ffffff" stroke="black" points="279.5,-36 158.5,-36 158.5,-0 279.5,-0 279.5,-36"/>
<text text-anchor="middle" x="219" y="-14.3" font-family="Times New Roman,serif" font-size="14.00">11_AH_II_010 (1)</text>
</g>
<!-- &#45;8390305537748324141&#45;&gt;4486019545031078369 -->
<g id="edge5" class="edge"><title>&#45;8390305537748324141&#45;&gt;4486019545031078369</title>
<path fill="none" stroke="black" d="M219,-86.799C219,-75.1626 219,-59.5479 219,-46.2368"/>
<polygon fill="black" stroke="black" points="222.5,-46.1754 219,-36.1754 215.5,-46.1755 222.5,-46.1754"/>
<text text-anchor="middle" x="278.5" y="-57.8" font-family="Times New Roman,serif" font-size="14.00">393.06382613848723</text>
</g>
<!-- &#45;5961310495201202036 -->
<g id="node7" class="node"><title>&#45;5961310495201202036</title>
<polygon fill="#ffffff" stroke="black" points="417.5,-384 304.5,-384 304.5,-348 417.5,-348 417.5,-384"/>
<text text-anchor="middle" x="361" y="-362.3" font-family="Times New Roman,serif" font-size="14.00">02_DRZ_010 (1)</text>
</g>
<!-- &#45;7167353463370794037 -->
<g id="node8" class="node"><title>&#45;7167353463370794037</title>
<polygon fill="#ffffff" stroke="black" points="416.5,-297 305.5,-297 305.5,-261 416.5,-261 416.5,-297"/>
<text text-anchor="middle" x="361" y="-275.3" font-family="Times New Roman,serif" font-size="14.00">04_BPT_005 (1)</text>
</g>
<!-- &#45;5961310495201202036&#45;&gt;&#45;7167353463370794037 -->
<g id="edge6" class="edge"><title>&#45;5961310495201202036&#45;&gt;&#45;7167353463370794037</title>
<path fill="none" stroke="black" stroke-width="1.33476" d="M361,-347.799C361,-336.163 361,-320.548 361,-307.237"/>
<polygon fill="black" stroke="black" stroke-width="1.33476" points="364.5,-307.175 361,-297.175 357.5,-307.175 364.5,-307.175"/>
<text text-anchor="middle" x="417" y="-318.8" font-family="Times New Roman,serif" font-size="14.00">431.2067823300661</text>
</g>
<!-- &#45;7916874907130223389&#45;&gt;791431759772031367 -->
<g id="edge7" class="edge"><title>&#45;7916874907130223389&#45;&gt;791431759772031367</title>
<path fill="none" stroke="black" stroke-width="1.06542" d="M219,-260.799C219,-249.163 219,-233.548 219,-220.237"/>
<polygon fill="black" stroke="black" stroke-width="1.06542" points="222.5,-220.175 219,-210.175 215.5,-220.175 222.5,-220.175"/>
<text text-anchor="middle" x="275" y="-231.8" font-family="Times New Roman,serif" font-size="14.00">400.5178338029139</text>
</g>
</g>
</svg>
