<?xml version="1.0" encoding="UTF-8" standalone="no"?>
<!DOCTYPE svg PUBLIC "-//W3C//DTD SVG 1.1//EN"
 "http://www.w3.org/Graphics/SVG/1.1/DTD/svg11.dtd">
<!-- Generated by graphviz version 2.38.0 (20140413.2041)
 -->
<!-- Title: %3 Pages: 1 -->
<svg width="751pt" height="479pt"
 viewBox="0.00 0.00 751.48 479.00" xmlns="http://www.w3.org/2000/svg" xmlns:xlink="http://www.w3.org/1999/xlink">
<g id="graph0" class="graph" transform="scale(1 1) rotate(0) translate(4 475)">
<title>%3</title>
<!-- 9118780525858573852 -->
<g id="node1" class="node"><title>9118780525858573852</title>
<polygon fill="#ffffff" stroke="black" points="545.978,-297 426.978,-297 426.978,-261 545.978,-261 545.978,-297"/>
<text text-anchor="middle" x="486.478" y="-275.3" font-family="Times New Roman,serif" font-size="14.00">Admission NC (1)</text>
</g>
<!-- 8794229938327540079 -->
<g id="node2" class="node"><title>8794229938327540079</title>
<polygon fill="#ffffff" stroke="black" points="297.478,-210 233.478,-210 233.478,-174 297.478,-174 297.478,-210"/>
<text text-anchor="middle" x="265.478" y="-188.3" font-family="Times New Roman,serif" font-size="14.00">CRP (1)</text>
</g>
<!-- 9118780525858573852&#45;&gt;8794229938327540079 -->
<g id="edge1" class="edge"><title>9118780525858573852&#45;&gt;8794229938327540079</title>
<path fill="none" stroke="black" d="M442.021,-260.901C402.63,-245.751 345.552,-223.798 307.055,-208.991"/>
<polygon fill="black" stroke="black" points="308.279,-205.712 297.689,-205.389 305.766,-212.246 308.279,-205.712"/>
<text text-anchor="middle" x="445.478" y="-231.8" font-family="Times New Roman,serif" font-size="14.00">368.5977704284992</text>
</g>
<!-- &#45;4990305070490083274 -->
<g id="node9" class="node"><title>&#45;4990305070490083274</title>
<polygon fill="#ffffff" stroke="black" points="315.978,-36 214.978,-36 214.978,-0 315.978,-0 315.978,-36"/>
<text text-anchor="middle" x="265.478" y="-14.3" font-family="Times New Roman,serif" font-size="14.00">Leucocytes (1)</text>
</g>
<!-- 9118780525858573852&#45;&gt;&#45;4990305070490083274 -->
<g id="edge2" class="edge"><title>9118780525858573852&#45;&gt;&#45;4990305070490083274</title>
<path fill="none" stroke="black" stroke-width="1.04423" d="M497.795,-260.861C500.854,-255.376 503.784,-249.131 505.478,-243 523.947,-176.135 552.461,-142.222 510.478,-87 488.257,-57.7718 391.464,-37.8161 326.396,-27.4237"/>
<polygon fill="black" stroke="black" stroke-width="1.04423" points="326.662,-23.9229 316.242,-25.838 325.582,-30.8391 326.662,-23.9229"/>
<text text-anchor="middle" x="588.478" y="-144.8" font-family="Times New Roman,serif" font-size="14.00">407.5502857577088</text>
</g>
<!-- 5659693541288529527 -->
<g id="node8" class="node"><title>5659693541288529527</title>
<polygon fill="#ffffff" stroke="black" points="122.478,-123 24.4779,-123 24.4779,-87 122.478,-87 122.478,-123"/>
<text text-anchor="middle" x="73.4779" y="-101.3" font-family="Times New Roman,serif" font-size="14.00">LacticAcid (1)</text>
</g>
<!-- 8794229938327540079&#45;&gt;5659693541288529527 -->
<g id="edge3" class="edge"><title>8794229938327540079&#45;&gt;5659693541288529527</title>
<path fill="none" stroke="black" stroke-width="1.29457" d="M233.082,-191.7C169.901,-192.296 33.8281,-189.549 4.47794,-156 -4.87091,-145.314 2.48856,-135.612 15.3422,-127.66"/>
<polygon fill="black" stroke="black" stroke-width="1.29457" points="17.3537,-130.55 24.4619,-122.693 14.0058,-124.402 17.3537,-130.55"/>
<text text-anchor="middle" x="60.4779" y="-144.8" font-family="Times New Roman,serif" font-size="14.00">628.0196132616578</text>
</g>
<!-- 8794229938327540079&#45;&gt;&#45;4990305070490083274 -->
<g id="edge4" class="edge"><title>8794229938327540079&#45;&gt;&#45;4990305070490083274</title>
<path fill="none" stroke="black" stroke-width="2.22214" d="M265.478,-173.879C265.478,-144.001 265.478,-82.1129 265.478,-46.2736"/>
<polygon fill="black" stroke="black" stroke-width="2.22214" points="268.978,-46.0516 265.478,-36.0516 261.978,-46.0516 268.978,-46.0516"/>
<text text-anchor="middle" x="321.478" y="-101.3" font-family="Times New Roman,serif" font-size="14.00">1444.910128063395</text>
</g>
<!-- 4941573644585563234 -->
<g id="node3" class="node"><title>4941573644585563234</title>
<polygon fill="#ffffff" stroke="black" points="693.978,-471 568.978,-471 568.978,-435 693.978,-435 693.978,-471"/>
<text text-anchor="middle" x="631.478" y="-449.3" font-family="Times New Roman,serif" font-size="14.00">ER Registration (1)</text>
</g>
<!-- 7781181950460006610 -->
<g id="node5" class="node"><title>7781181950460006610</title>
<polygon fill="#ffffff" stroke="black" points="677.978,-384 584.978,-384 584.978,-348 677.978,-348 677.978,-384"/>
<text text-anchor="middle" x="631.478" y="-362.3" font-family="Times New Roman,serif" font-size="14.00">ER Triage (1)</text>
</g>
<!-- 4941573644585563234&#45;&gt;7781181950460006610 -->
<g id="edge5" class="edge"><title>4941573644585563234&#45;&gt;7781181950460006610</title>
<path fill="none" stroke="black" stroke-width="1.68163" d="M631.478,-434.799C631.478,-423.163 631.478,-407.548 631.478,-394.237"/>
<polygon fill="black" stroke="black" stroke-width="1.68163" points="634.978,-394.175 631.478,-384.175 627.978,-394.175 634.978,-394.175"/>
<text text-anchor="middle" x="684.478" y="-405.8" font-family="Times New Roman,serif" font-size="14.00">968.892694492081</text>
</g>
<!-- &#45;1916228938975785919 -->
<g id="node4" class="node"><title>&#45;1916228938975785919</title>
<polygon fill="#ffffff" stroke="black" points="698.478,-297 564.478,-297 564.478,-261 698.478,-261 698.478,-297"/>
<text text-anchor="middle" x="631.478" y="-275.3" font-family="Times New Roman,serif" font-size="14.00">ER Sepsis Triage (1)</text>
</g>
<!-- 7781181950460006610&#45;&gt;&#45;1916228938975785919 -->
<g id="edge6" class="edge"><title>7781181950460006610&#45;&gt;&#45;1916228938975785919</title>
<path fill="none" stroke="black" stroke-width="1.60949" d="M631.478,-347.799C631.478,-336.163 631.478,-320.548 631.478,-307.237"/>
<polygon fill="black" stroke="black" stroke-width="1.60949" points="634.978,-307.175 631.478,-297.175 627.978,-307.175 634.978,-307.175"/>
<text text-anchor="middle" x="687.478" y="-318.8" font-family="Times New Roman,serif" font-size="14.00">905.3592405867294</text>
</g>
<!-- 1341266047991071662 -->
<g id="node6" class="node"><title>1341266047991071662</title>
<polygon fill="#ffffff" stroke="black" points="543.978,-384 428.978,-384 428.978,-348 543.978,-348 543.978,-384"/>
<text text-anchor="middle" x="486.478" y="-362.3" font-family="Times New Roman,serif" font-size="14.00">IV Antibiotics (1)</text>
</g>
<!-- 1341266047991071662&#45;&gt;9118780525858573852 -->
<g id="edge7" class="edge"><title>1341266047991071662&#45;&gt;9118780525858573852</title>
<path fill="none" stroke="black" stroke-width="1.13693" d="M486.478,-347.799C486.478,-336.163 486.478,-320.548 486.478,-307.237"/>
<polygon fill="black" stroke="black" stroke-width="1.13693" points="489.978,-307.175 486.478,-297.175 482.978,-307.175 489.978,-307.175"/>
<text text-anchor="middle" x="542.478" y="-318.8" font-family="Times New Roman,serif" font-size="14.00">489.1888408932877</text>
</g>
<!-- 1513237216211266658 -->
<g id="node7" class="node"><title>1513237216211266658</title>
<polygon fill="#ffffff" stroke="black" points="531.478,-471 441.478,-471 441.478,-435 531.478,-435 531.478,-471"/>
<text text-anchor="middle" x="486.478" y="-449.3" font-family="Times New Roman,serif" font-size="14.00">IV Liquid (1)</text>
</g>
<!-- 1513237216211266658&#45;&gt;1341266047991071662 -->
<g id="edge8" class="edge"><title>1513237216211266658&#45;&gt;1341266047991071662</title>
<path fill="none" stroke="black" stroke-width="1.15046" d="M486.478,-434.799C486.478,-423.163 486.478,-407.548 486.478,-394.237"/>
<polygon fill="black" stroke="black" stroke-width="1.15046" points="489.978,-394.175 486.478,-384.175 482.978,-394.175 489.978,-394.175"/>
<text text-anchor="middle" x="545.978" y="-405.8" font-family="Times New Roman,serif" font-size="14.00">501.10373705089887</text>
</g>
<!-- 5659693541288529527&#45;&gt;8794229938327540079 -->
<g id="edge9" class="edge"><title>5659693541288529527&#45;&gt;8794229938327540079</title>
<path fill="none" stroke="black" stroke-width="1.04006" d="M94.3537,-123.183C109.929,-135.736 130.073,-151.345 139.478,-156 166.034,-169.145 198.263,-177.984 223.478,-183.491"/>
<polygon fill="black" stroke="black" stroke-width="1.04006" points="222.963,-186.959 233.467,-185.58 224.395,-180.107 222.963,-186.959"/>
<text text-anchor="middle" x="195.478" y="-144.8" font-family="Times New Roman,serif" font-size="14.00">403.8805950364937</text>
</g>
<!-- 5659693541288529527&#45;&gt;&#45;4990305070490083274 -->
<g id="edge10" class="edge"><title>5659693541288529527&#45;&gt;&#45;4990305070490083274</title>
<path fill="none" stroke="black" stroke-width="1.2228" d="M28.8529,-86.9018C12.1871,-78.0112 -0.351972,-66.4179 10.4779,-54 35.1671,-25.6907 137.404,-19.4691 204.688,-18.5336"/>
<polygon fill="black" stroke="black" stroke-width="1.2228" points="204.795,-22.0328 214.758,-18.4291 204.722,-15.0332 204.795,-22.0328"/>
<text text-anchor="middle" x="63.4779" y="-57.8" font-family="Times New Roman,serif" font-size="14.00">564.811821158528</text>
</g>
<!-- &#45;4990305070490083274&#45;&gt;8794229938327540079 -->
<g id="edge11" class="edge"><title>&#45;4990305070490083274&#45;&gt;8794229938327540079</title>
<path fill="none" stroke="black" stroke-width="2.6" d="M311.257,-36.0649C352.301,-54.2127 402.992,-85.4502 381.478,-123 365.561,-150.781 333.402,-168.313 306.974,-178.604"/>
<polygon fill="black" stroke="black" stroke-width="2.6" points="305.716,-175.337 297.538,-182.073 308.131,-181.907 305.716,-175.337"/>
<text text-anchor="middle" x="446.978" y="-101.3" font-family="Times New Roman,serif" font-size="14.00">1777.6820638903444</text>
</g>
<!-- &#45;4990305070490083274&#45;&gt;5659693541288529527 -->
<g id="edge12" class="edge"><title>&#45;4990305070490083274&#45;&gt;5659693541288529527</title>
<path fill="none" stroke="black" stroke-width="1.0754" d="M214.821,-28.4714C191.164,-34.0352 163.08,-42.3168 139.478,-54 131.616,-57.8916 116.25,-69.4369 102.321,-80.4537"/>
<polygon fill="black" stroke="black" stroke-width="1.0754" points="99.983,-77.8416 94.3537,-86.8172 104.352,-83.3111 99.983,-77.8416"/>
<text text-anchor="middle" x="195.478" y="-57.8" font-family="Times New Roman,serif" font-size="14.00">435.0014969540439</text>
</g>
<!-- &#45;4990305070490083274&#45;&gt;&#45;4990305070490083274 -->
<g id="edge13" class="edge"><title>&#45;4990305070490083274&#45;&gt;&#45;4990305070490083274</title>
<path fill="none" stroke="black" stroke-width="1.10021" d="M316.262,-25.5746C326.585,-24.7495 333.978,-22.2246 333.978,-18 333.978,-15.3596 331.09,-13.3832 326.404,-12.0707"/>
<polygon fill="black" stroke="black" stroke-width="1.10021" points="326.693,-8.57199 316.262,-10.4254 325.572,-15.4817 326.693,-8.57199"/>
<text text-anchor="middle" x="389.978" y="-14.3" font-family="Times New Roman,serif" font-size="14.00">456.8534008918175</text>
</g>
</g>
</svg>
