<?xml version="1.0" encoding="UTF-8" standalone="no"?>
<!DOCTYPE svg PUBLIC "-//W3C//DTD SVG 1.1//EN"
 "http://www.w3.org/Graphics/SVG/1.1/DTD/svg11.dtd">
<!-- Generated by graphviz version 2.38.0 (20140413.2041)
 -->
<!-- Title: %3 Pages: 1 -->
<svg width="752pt" height="479pt"
 viewBox="0.00 0.00 752.16 479.00" xmlns="http://www.w3.org/2000/svg" xmlns:xlink="http://www.w3.org/1999/xlink">
<g id="graph0" class="graph" transform="scale(1 1) rotate(0) translate(4 475)">
<title>%3</title>
<!-- 9118780525858573852 -->
<g id="node1" class="node"><title>9118780525858573852</title>
<polygon fill="#ffffff" stroke="black" points="546.662,-297 427.662,-297 427.662,-261 546.662,-261 546.662,-297"/>
<text text-anchor="middle" x="487.162" y="-275.3" font-family="Times New Roman,serif" font-size="14.00">Admission NC (1)</text>
</g>
<!-- 8794229938327540079 -->
<g id="node2" class="node"><title>8794229938327540079</title>
<polygon fill="#ffffff" stroke="black" points="298.162,-210 234.162,-210 234.162,-174 298.162,-174 298.162,-210"/>
<text text-anchor="middle" x="266.162" y="-188.3" font-family="Times New Roman,serif" font-size="14.00">CRP (1)</text>
</g>
<!-- 9118780525858573852&#45;&gt;8794229938327540079 -->
<g id="edge1" class="edge"><title>9118780525858573852&#45;&gt;8794229938327540079</title>
<path fill="none" stroke="black" d="M442.705,-260.901C403.314,-245.751 346.236,-223.798 307.739,-208.991"/>
<polygon fill="black" stroke="black" points="308.963,-205.712 298.374,-205.389 306.451,-212.246 308.963,-205.712"/>
<text text-anchor="middle" x="446.162" y="-231.8" font-family="Times New Roman,serif" font-size="14.00">369.2555227824992</text>
</g>
<!-- &#45;4990305070490083274 -->
<g id="node9" class="node"><title>&#45;4990305070490083274</title>
<polygon fill="#ffffff" stroke="black" points="316.662,-36 215.662,-36 215.662,-0 316.662,-0 316.662,-36"/>
<text text-anchor="middle" x="266.162" y="-14.3" font-family="Times New Roman,serif" font-size="14.00">Leucocytes (1)</text>
</g>
<!-- 9118780525858573852&#45;&gt;&#45;4990305070490083274 -->
<g id="edge2" class="edge"><title>9118780525858573852&#45;&gt;&#45;4990305070490083274</title>
<path fill="none" stroke="black" stroke-width="1.04405" d="M498.479,-260.861C501.538,-255.376 504.469,-249.131 506.162,-243 524.631,-176.135 553.145,-142.222 511.162,-87 488.941,-57.7718 392.148,-37.8161 327.08,-27.4237"/>
<polygon fill="black" stroke="black" stroke-width="1.04405" points="327.346,-23.9229 316.926,-25.838 326.266,-30.8391 327.346,-23.9229"/>
<text text-anchor="middle" x="589.162" y="-144.8" font-family="Times New Roman,serif" font-size="14.00">408.0366030129826</text>
</g>
<!-- 5659693541288529527 -->
<g id="node8" class="node"><title>5659693541288529527</title>
<polygon fill="#ffffff" stroke="black" points="117.162,-123 19.1621,-123 19.1621,-87 117.162,-87 117.162,-123"/>
<text text-anchor="middle" x="68.1621" y="-101.3" font-family="Times New Roman,serif" font-size="14.00">LacticAcid (1)</text>
</g>
<!-- 8794229938327540079&#45;&gt;5659693541288529527 -->
<g id="edge3" class="edge"><title>8794229938327540079&#45;&gt;5659693541288529527</title>
<path fill="none" stroke="black" stroke-width="1.29495" d="M233.766,-191.7C170.585,-192.296 34.5122,-189.549 5.16208,-156 -3.65285,-145.924 2.97113,-136.382 14.7063,-128.388"/>
<polygon fill="black" stroke="black" stroke-width="1.29495" points="16.737,-131.252 23.5203,-123.113 13.1422,-125.245 16.737,-131.252"/>
<text text-anchor="middle" x="61.1621" y="-144.8" font-family="Times New Roman,serif" font-size="14.00">628.9263725296078</text>
</g>
<!-- 8794229938327540079&#45;&gt;&#45;4990305070490083274 -->
<g id="edge4" class="edge"><title>8794229938327540079&#45;&gt;&#45;4990305070490083274</title>
<path fill="none" stroke="black" stroke-width="2.22197" d="M266.162,-173.879C266.162,-144.001 266.162,-82.1129 266.162,-46.2736"/>
<polygon fill="black" stroke="black" stroke-width="2.22197" points="269.662,-46.0516 266.162,-36.0516 262.662,-46.0516 269.662,-46.0516"/>
<text text-anchor="middle" x="325.662" y="-101.3" font-family="Times New Roman,serif" font-size="14.00">1445.0797933598928</text>
</g>
<!-- 4941573644585563234 -->
<g id="node3" class="node"><title>4941573644585563234</title>
<polygon fill="#ffffff" stroke="black" points="694.662,-471 569.662,-471 569.662,-435 694.662,-435 694.662,-471"/>
<text text-anchor="middle" x="632.162" y="-449.3" font-family="Times New Roman,serif" font-size="14.00">ER Registration (1)</text>
</g>
<!-- 7781181950460006610 -->
<g id="node5" class="node"><title>7781181950460006610</title>
<polygon fill="#ffffff" stroke="black" points="678.662,-384 585.662,-384 585.662,-348 678.662,-348 678.662,-384"/>
<text text-anchor="middle" x="632.162" y="-362.3" font-family="Times New Roman,serif" font-size="14.00">ER Triage (1)</text>
</g>
<!-- 4941573644585563234&#45;&gt;7781181950460006610 -->
<g id="edge5" class="edge"><title>4941573644585563234&#45;&gt;7781181950460006610</title>
<path fill="none" stroke="black" stroke-width="1.68328" d="M632.162,-434.799C632.162,-423.163 632.162,-407.548 632.162,-394.237"/>
<polygon fill="black" stroke="black" stroke-width="1.68328" points="635.662,-394.175 632.162,-384.175 628.662,-394.175 635.662,-394.175"/>
<text text-anchor="middle" x="688.162" y="-405.8" font-family="Times New Roman,serif" font-size="14.00">970.8164000539404</text>
</g>
<!-- &#45;1916228938975785919 -->
<g id="node4" class="node"><title>&#45;1916228938975785919</title>
<polygon fill="#ffffff" stroke="black" points="699.162,-297 565.162,-297 565.162,-261 699.162,-261 699.162,-297"/>
<text text-anchor="middle" x="632.162" y="-275.3" font-family="Times New Roman,serif" font-size="14.00">ER Sepsis Triage (1)</text>
</g>
<!-- 7781181950460006610&#45;&gt;&#45;1916228938975785919 -->
<g id="edge6" class="edge"><title>7781181950460006610&#45;&gt;&#45;1916228938975785919</title>
<path fill="none" stroke="black" stroke-width="1.60864" d="M632.162,-347.799C632.162,-336.163 632.162,-320.548 632.162,-307.237"/>
<polygon fill="black" stroke="black" stroke-width="1.60864" points="635.662,-307.175 632.162,-297.175 628.662,-307.175 635.662,-307.175"/>
<text text-anchor="middle" x="688.162" y="-318.8" font-family="Times New Roman,serif" font-size="14.00">905.1016656222232</text>
</g>
<!-- 1341266047991071662 -->
<g id="node6" class="node"><title>1341266047991071662</title>
<polygon fill="#ffffff" stroke="black" points="544.662,-384 429.662,-384 429.662,-348 544.662,-348 544.662,-384"/>
<text text-anchor="middle" x="487.162" y="-362.3" font-family="Times New Roman,serif" font-size="14.00">IV Antibiotics (1)</text>
</g>
<!-- 1341266047991071662&#45;&gt;9118780525858573852 -->
<g id="edge7" class="edge"><title>1341266047991071662&#45;&gt;9118780525858573852</title>
<path fill="none" stroke="black" stroke-width="1.13586" d="M487.162,-347.799C487.162,-336.163 487.162,-320.548 487.162,-307.237"/>
<polygon fill="black" stroke="black" stroke-width="1.13586" points="490.662,-307.175 487.162,-297.175 483.662,-307.175 490.662,-307.175"/>
<text text-anchor="middle" x="546.662" y="-318.8" font-family="Times New Roman,serif" font-size="14.00">488.86446227023265</text>
</g>
<!-- 1513237216211266658 -->
<g id="node7" class="node"><title>1513237216211266658</title>
<polygon fill="#ffffff" stroke="black" points="532.162,-471 442.162,-471 442.162,-435 532.162,-435 532.162,-471"/>
<text text-anchor="middle" x="487.162" y="-449.3" font-family="Times New Roman,serif" font-size="14.00">IV Liquid (1)</text>
</g>
<!-- 1513237216211266658&#45;&gt;1341266047991071662 -->
<g id="edge8" class="edge"><title>1513237216211266658&#45;&gt;1341266047991071662</title>
<path fill="none" stroke="black" stroke-width="1.14936" d="M487.162,-434.799C487.162,-423.163 487.162,-407.548 487.162,-394.237"/>
<polygon fill="black" stroke="black" stroke-width="1.14936" points="490.662,-394.175 487.162,-384.175 483.662,-394.175 490.662,-394.175"/>
<text text-anchor="middle" x="546.662" y="-405.8" font-family="Times New Roman,serif" font-size="14.00">500.75011647665724</text>
</g>
<!-- 5659693541288529527&#45;&gt;8794229938327540079 -->
<g id="edge9" class="edge"><title>5659693541288529527&#45;&gt;8794229938327540079</title>
<path fill="none" stroke="black" stroke-width="1.03932" d="M91.9389,-123.102C110.846,-136.601 134.962,-153.558 140.162,-156 166.894,-168.551 198.991,-177.384 224.1,-183.036"/>
<polygon fill="black" stroke="black" stroke-width="1.03932" points="223.533,-186.495 234.047,-185.193 225.016,-179.654 223.533,-186.495"/>
<text text-anchor="middle" x="196.162" y="-144.8" font-family="Times New Roman,serif" font-size="14.00">403.8705301763112</text>
</g>
<!-- 5659693541288529527&#45;&gt;&#45;4990305070490083274 -->
<g id="edge10" class="edge"><title>5659693541288529527&#45;&gt;&#45;4990305070490083274</title>
<path fill="none" stroke="black" stroke-width="1.22256" d="M22.8667,-86.9903C5.94535,-78.1208 -6.79619,-66.5195 4.16208,-54 29.7486,-24.7682 136.09,-18.893 205.178,-18.2661"/>
<polygon fill="black" stroke="black" stroke-width="1.22256" points="205.527,-21.7643 215.508,-18.2085 205.488,-14.7644 205.527,-21.7643"/>
<text text-anchor="middle" x="57.1621" y="-57.8" font-family="Times New Roman,serif" font-size="14.00">565.194240722714</text>
</g>
<!-- &#45;4990305070490083274&#45;&gt;8794229938327540079 -->
<g id="edge11" class="edge"><title>&#45;4990305070490083274&#45;&gt;8794229938327540079</title>
<path fill="none" stroke="black" stroke-width="2.6" d="M315.895,-36.1523C359.164,-54.0524 411.679,-84.8222 389.162,-123 371.753,-152.517 336.427,-170.113 308.082,-179.985"/>
<polygon fill="black" stroke="black" stroke-width="2.6" points="306.801,-176.721 298.388,-183.161 308.981,-183.373 306.801,-176.721"/>
<text text-anchor="middle" x="451.162" y="-101.3" font-family="Times New Roman,serif" font-size="14.00">1777.892891807412</text>
</g>
<!-- &#45;4990305070490083274&#45;&gt;5659693541288529527 -->
<g id="edge12" class="edge"><title>&#45;4990305070490083274&#45;&gt;5659693541288529527</title>
<path fill="none" stroke="black" stroke-width="1.07464" d="M215.529,-27.3769C189.968,-32.8194 158.987,-41.3172 133.162,-54 125.364,-57.8298 110.227,-69.3723 96.5223,-80.4029"/>
<polygon fill="black" stroke="black" stroke-width="1.07464" points="94.235,-77.7517 88.6846,-86.7763 98.6514,-83.1828 94.235,-77.7517"/>
<text text-anchor="middle" x="192.662" y="-57.8" font-family="Times New Roman,serif" font-size="14.00">434.97127129940293</text>
</g>
<!-- &#45;4990305070490083274&#45;&gt;&#45;4990305070490083274 -->
<g id="edge13" class="edge"><title>&#45;4990305070490083274&#45;&gt;&#45;4990305070490083274</title>
<path fill="none" stroke="black" stroke-width="1.10072" d="M316.946,-25.5746C327.27,-24.7495 334.662,-22.2246 334.662,-18 334.662,-15.3596 331.774,-13.3832 327.088,-12.0707"/>
<polygon fill="black" stroke="black" stroke-width="1.10072" points="327.377,-8.57199 316.946,-10.4254 326.256,-15.4817 327.377,-8.57199"/>
<text text-anchor="middle" x="390.662" y="-14.3" font-family="Times New Roman,serif" font-size="14.00">457.9283258977603</text>
</g>
</g>
</svg>
