<?xml version="1.0" encoding="UTF-8" standalone="no"?>
<!DOCTYPE svg PUBLIC "-//W3C//DTD SVG 1.1//EN"
 "http://www.w3.org/Graphics/SVG/1.1/DTD/svg11.dtd">
<!-- Generated by graphviz version 2.38.0 (20140413.2041)
 -->
<!-- Title: %3 Pages: 1 -->
<svg width="754pt" height="479pt"
 viewBox="0.00 0.00 753.52 479.00" xmlns="http://www.w3.org/2000/svg" xmlns:xlink="http://www.w3.org/1999/xlink">
<g id="graph0" class="graph" transform="scale(1 1) rotate(0) translate(4 475)">
<title>%3</title>
<!-- &#45;6760735685208204671 -->
<g id="node1" class="node"><title>&#45;6760735685208204671</title>
<polygon fill="#ffffff" stroke="black" points="548.019,-297 429.019,-297 429.019,-261 548.019,-261 548.019,-297"/>
<text text-anchor="middle" x="488.519" y="-275.3" font-family="Times New Roman,serif" font-size="14.00">Admission NC (1)</text>
</g>
<!-- 7850561497370058999 -->
<g id="node2" class="node"><title>7850561497370058999</title>
<polygon fill="#ffffff" stroke="black" points="304.519,-210 240.519,-210 240.519,-174 304.519,-174 304.519,-210"/>
<text text-anchor="middle" x="272.519" y="-188.3" font-family="Times New Roman,serif" font-size="14.00">CRP (1)</text>
</g>
<!-- &#45;6760735685208204671&#45;&gt;7850561497370058999 -->
<g id="edge1" class="edge"><title>&#45;6760735685208204671&#45;&gt;7850561497370058999</title>
<path fill="none" stroke="black" d="M445.068,-260.901C406.957,-245.904 351.907,-224.241 314.302,-209.442"/>
<polygon fill="black" stroke="black" points="315.249,-206.054 304.662,-205.649 312.686,-212.568 315.249,-206.054"/>
<text text-anchor="middle" x="449.519" y="-231.8" font-family="Times New Roman,serif" font-size="14.00">368.9446861195383</text>
</g>
<!-- 6179918396602481755 -->
<g id="node9" class="node"><title>6179918396602481755</title>
<polygon fill="#ffffff" stroke="black" points="323.019,-36 222.019,-36 222.019,-0 323.019,-0 323.019,-36"/>
<text text-anchor="middle" x="272.519" y="-14.3" font-family="Times New Roman,serif" font-size="14.00">Leucocytes (1)</text>
</g>
<!-- &#45;6760735685208204671&#45;&gt;6179918396602481755 -->
<g id="edge2" class="edge"><title>&#45;6760735685208204671&#45;&gt;6179918396602481755</title>
<path fill="none" stroke="black" stroke-width="1.04254" d="M501.377,-260.68C504.682,-255.287 507.791,-249.139 509.519,-243 528.305,-176.259 552.272,-142.353 510.519,-87 489.148,-58.6683 396.286,-38.5895 333.077,-27.9074"/>
<polygon fill="black" stroke="black" stroke-width="1.04254" points="333.639,-24.453 323.202,-26.2739 332.497,-31.3591 333.639,-24.453"/>
<text text-anchor="middle" x="594.019" y="-144.8" font-family="Times New Roman,serif" font-size="14.00">406.42044491738653</text>
</g>
<!-- 1152587832168206417 -->
<g id="node8" class="node"><title>1152587832168206417</title>
<polygon fill="#ffffff" stroke="black" points="123.519,-123 25.5187,-123 25.5187,-87 123.519,-87 123.519,-123"/>
<text text-anchor="middle" x="74.5187" y="-101.3" font-family="Times New Roman,serif" font-size="14.00">LacticAcid (1)</text>
</g>
<!-- 7850561497370058999&#45;&gt;1152587832168206417 -->
<g id="edge3" class="edge"><title>7850561497370058999&#45;&gt;1152587832168206417</title>
<path fill="none" stroke="black" stroke-width="1.29523" d="M240.254,-191.828C175.836,-192.715 34.8562,-190.557 4.51866,-156 -5.10945,-145.033 2.81219,-135.153 16.2885,-127.128"/>
<polygon fill="black" stroke="black" stroke-width="1.29523" points="18.0791,-130.141 25.29,-122.378 14.8123,-123.95 18.0791,-130.141"/>
<text text-anchor="middle" x="60.5187" y="-144.8" font-family="Times New Roman,serif" font-size="14.00">629.0177033553581</text>
</g>
<!-- 7850561497370058999&#45;&gt;6179918396602481755 -->
<g id="edge4" class="edge"><title>7850561497370058999&#45;&gt;6179918396602481755</title>
<path fill="none" stroke="black" stroke-width="2.22295" d="M272.519,-173.879C272.519,-144.001 272.519,-82.1129 272.519,-46.2736"/>
<polygon fill="black" stroke="black" stroke-width="2.22295" points="276.019,-46.0516 272.519,-36.0516 269.019,-46.0516 276.019,-46.0516"/>
<text text-anchor="middle" x="328.519" y="-101.3" font-family="Times New Roman,serif" font-size="14.00">1446.258233189879</text>
</g>
<!-- &#45;2410219256766748193 -->
<g id="node3" class="node"><title>&#45;2410219256766748193</title>
<polygon fill="#ffffff" stroke="black" points="696.019,-471 571.019,-471 571.019,-435 696.019,-435 696.019,-471"/>
<text text-anchor="middle" x="633.519" y="-449.3" font-family="Times New Roman,serif" font-size="14.00">ER Registration (1)</text>
</g>
<!-- &#45;2872325205858232948 -->
<g id="node5" class="node"><title>&#45;2872325205858232948</title>
<polygon fill="#ffffff" stroke="black" points="680.019,-384 587.019,-384 587.019,-348 680.019,-348 680.019,-384"/>
<text text-anchor="middle" x="633.519" y="-362.3" font-family="Times New Roman,serif" font-size="14.00">ER Triage (1)</text>
</g>
<!-- &#45;2410219256766748193&#45;&gt;&#45;2872325205858232948 -->
<g id="edge5" class="edge"><title>&#45;2410219256766748193&#45;&gt;&#45;2872325205858232948</title>
<path fill="none" stroke="black" stroke-width="1.68718" d="M633.519,-434.799C633.519,-423.163 633.519,-407.548 633.519,-394.237"/>
<polygon fill="black" stroke="black" stroke-width="1.68718" points="637.019,-394.175 633.519,-384.175 630.019,-394.175 637.019,-394.175"/>
<text text-anchor="middle" x="689.519" y="-405.8" font-family="Times New Roman,serif" font-size="14.00">974.2923482417292</text>
</g>
<!-- 8892003065059452103 -->
<g id="node4" class="node"><title>8892003065059452103</title>
<polygon fill="#ffffff" stroke="black" points="700.519,-297 566.519,-297 566.519,-261 700.519,-261 700.519,-297"/>
<text text-anchor="middle" x="633.519" y="-275.3" font-family="Times New Roman,serif" font-size="14.00">ER Sepsis Triage (1)</text>
</g>
<!-- &#45;2872325205858232948&#45;&gt;8892003065059452103 -->
<g id="edge6" class="edge"><title>&#45;2872325205858232948&#45;&gt;8892003065059452103</title>
<path fill="none" stroke="black" stroke-width="1.60996" d="M633.519,-347.799C633.519,-336.163 633.519,-320.548 633.519,-307.237"/>
<polygon fill="black" stroke="black" stroke-width="1.60996" points="637.019,-307.175 633.519,-297.175 630.019,-307.175 637.019,-307.175"/>
<text text-anchor="middle" x="689.519" y="-318.8" font-family="Times New Roman,serif" font-size="14.00">906.2641904047998</text>
</g>
<!-- &#45;6564841300794043563 -->
<g id="node6" class="node"><title>&#45;6564841300794043563</title>
<polygon fill="#ffffff" stroke="black" points="546.019,-384 431.019,-384 431.019,-348 546.019,-348 546.019,-384"/>
<text text-anchor="middle" x="488.519" y="-362.3" font-family="Times New Roman,serif" font-size="14.00">IV Antibiotics (1)</text>
</g>
<!-- &#45;6564841300794043563&#45;&gt;&#45;6760735685208204671 -->
<g id="edge7" class="edge"><title>&#45;6564841300794043563&#45;&gt;&#45;6760735685208204671</title>
<path fill="none" stroke="black" stroke-width="1.13487" d="M488.519,-347.799C488.519,-336.163 488.519,-320.548 488.519,-307.237"/>
<polygon fill="black" stroke="black" stroke-width="1.13487" points="492.019,-307.175 488.519,-297.175 485.019,-307.175 492.019,-307.175"/>
<text text-anchor="middle" x="544.519" y="-318.8" font-family="Times New Roman,serif" font-size="14.00">487.7545835392619</text>
</g>
<!-- &#45;1926219633770359302 -->
<g id="node7" class="node"><title>&#45;1926219633770359302</title>
<polygon fill="#ffffff" stroke="black" points="533.519,-471 443.519,-471 443.519,-435 533.519,-435 533.519,-471"/>
<text text-anchor="middle" x="488.519" y="-449.3" font-family="Times New Roman,serif" font-size="14.00">IV Liquid (1)</text>
</g>
<!-- &#45;1926219633770359302&#45;&gt;&#45;6564841300794043563 -->
<g id="edge8" class="edge"><title>&#45;1926219633770359302&#45;&gt;&#45;6564841300794043563</title>
<path fill="none" stroke="black" stroke-width="1.15128" d="M488.519,-434.799C488.519,-423.163 488.519,-407.548 488.519,-394.237"/>
<polygon fill="black" stroke="black" stroke-width="1.15128" points="492.019,-394.175 488.519,-384.175 485.019,-394.175 492.019,-394.175"/>
<text text-anchor="middle" x="544.519" y="-405.8" font-family="Times New Roman,serif" font-size="14.00">502.2131277844257</text>
</g>
<!-- 1152587832168206417&#45;&gt;7850561497370058999 -->
<g id="edge9" class="edge"><title>1152587832168206417&#45;&gt;7850561497370058999</title>
<path fill="none" stroke="black" stroke-width="1.03758" d="M95.0412,-123.224C110.36,-135.8 130.19,-151.419 139.519,-156 168.309,-170.139 203.508,-179.077 230.461,-184.379"/>
<polygon fill="black" stroke="black" stroke-width="1.03758" points="229.883,-187.832 240.357,-186.236 231.174,-180.952 229.883,-187.832"/>
<text text-anchor="middle" x="199.019" y="-144.8" font-family="Times New Roman,serif" font-size="14.00">402.04777498167743</text>
</g>
<!-- 1152587832168206417&#45;&gt;6179918396602481755 -->
<g id="edge10" class="edge"><title>1152587832168206417&#45;&gt;6179918396602481755</title>
<path fill="none" stroke="black" stroke-width="1.22242" d="M29.8769,-86.8871C13.2071,-77.9931 0.669527,-66.4011 11.5187,-54 36.9661,-24.9123 142.642,-18.9795 211.475,-18.3044"/>
<polygon fill="black" stroke="black" stroke-width="1.22242" points="211.791,-21.8026 221.769,-18.2395 211.747,-14.8027 211.791,-21.8026"/>
<text text-anchor="middle" x="67.5187" y="-57.8" font-family="Times New Roman,serif" font-size="14.00">564.8762770108899</text>
</g>
<!-- 6179918396602481755&#45;&gt;7850561497370058999 -->
<g id="edge11" class="edge"><title>6179918396602481755&#45;&gt;7850561497370058999</title>
<path fill="none" stroke="black" stroke-width="2.6" d="M318.298,-36.0649C359.342,-54.2127 410.033,-85.4502 388.519,-123 372.602,-150.781 340.443,-168.313 314.015,-178.604"/>
<polygon fill="black" stroke="black" stroke-width="2.6" points="312.756,-175.337 304.578,-182.073 315.172,-181.907 312.756,-175.337"/>
<text text-anchor="middle" x="450.519" y="-101.3" font-family="Times New Roman,serif" font-size="14.00">1778.405764997545</text>
</g>
<!-- 6179918396602481755&#45;&gt;1152587832168206417 -->
<g id="edge12" class="edge"><title>6179918396602481755&#45;&gt;1152587832168206417</title>
<path fill="none" stroke="black" stroke-width="1.07299" d="M221.768,-28.9847C198.221,-34.6426 170.255,-42.8554 146.519,-54 142.05,-56.0983 123.611,-68.9166 106.514,-81.0478"/>
<polygon fill="black" stroke="black" stroke-width="1.07299" points="104.413,-78.2475 98.2955,-86.898 108.472,-83.9502 104.413,-78.2475"/>
<text text-anchor="middle" x="202.519" y="-57.8" font-family="Times New Roman,serif" font-size="14.00">433.2467165799346</text>
</g>
<!-- 6179918396602481755&#45;&gt;6179918396602481755 -->
<g id="edge13" class="edge"><title>6179918396602481755&#45;&gt;6179918396602481755</title>
<path fill="none" stroke="black" stroke-width="1.10543" d="M323.303,-25.5746C333.626,-24.7495 341.019,-22.2246 341.019,-18 341.019,-15.3596 338.131,-13.3832 333.445,-12.0707"/>
<polygon fill="black" stroke="black" stroke-width="1.10543" points="333.734,-8.57199 323.303,-10.4254 332.613,-15.4817 333.734,-8.57199"/>
<text text-anchor="middle" x="400.519" y="-14.3" font-family="Times New Roman,serif" font-size="14.00">461.81855231439346</text>
</g>
</g>
</svg>
