<?xml version="1.0" encoding="UTF-8" standalone="no"?>
<!DOCTYPE svg PUBLIC "-//W3C//DTD SVG 1.1//EN"
 "http://www.w3.org/Graphics/SVG/1.1/DTD/svg11.dtd">
<!-- Generated by graphviz version 2.38.0 (20140413.2041)
 -->
<!-- Title: %3 Pages: 1 -->
<svg width="765pt" height="479pt"
 viewBox="0.00 0.00 765.42 479.00" xmlns="http://www.w3.org/2000/svg" xmlns:xlink="http://www.w3.org/1999/xlink">
<g id="graph0" class="graph" transform="scale(1 1) rotate(0) translate(4 475)">
<title>%3</title>
<!-- 9118780525858573852 -->
<g id="node1" class="node"><title>9118780525858573852</title>
<polygon fill="#ffffff" stroke="black" points="559.919,-297 440.919,-297 440.919,-261 559.919,-261 559.919,-297"/>
<text text-anchor="middle" x="500.419" y="-275.3" font-family="Times New Roman,serif" font-size="14.00">Admission NC (1)</text>
</g>
<!-- 8794229938327540079 -->
<g id="node2" class="node"><title>8794229938327540079</title>
<polygon fill="#ffffff" stroke="black" points="311.419,-210 247.419,-210 247.419,-174 311.419,-174 311.419,-210"/>
<text text-anchor="middle" x="279.419" y="-188.3" font-family="Times New Roman,serif" font-size="14.00">CRP (1)</text>
</g>
<!-- 9118780525858573852&#45;&gt;8794229938327540079 -->
<g id="edge1" class="edge"><title>9118780525858573852&#45;&gt;8794229938327540079</title>
<path fill="none" stroke="black" stroke-width="1.22165" d="M455.963,-260.901C416.571,-245.751 359.493,-223.798 320.996,-208.991"/>
<polygon fill="black" stroke="black" stroke-width="1.22165" points="322.221,-205.712 311.631,-205.389 319.708,-212.246 322.221,-205.712"/>
<text text-anchor="middle" x="459.419" y="-231.8" font-family="Times New Roman,serif" font-size="14.00">401.7484328942573</text>
</g>
<!-- &#45;4990305070490083274 -->
<g id="node9" class="node"><title>&#45;4990305070490083274</title>
<polygon fill="#ffffff" stroke="black" points="329.919,-36 228.919,-36 228.919,-0 329.919,-0 329.919,-36"/>
<text text-anchor="middle" x="279.419" y="-14.3" font-family="Times New Roman,serif" font-size="14.00">Leucocytes (1)</text>
</g>
<!-- 9118780525858573852&#45;&gt;&#45;4990305070490083274 -->
<g id="edge2" class="edge"><title>9118780525858573852&#45;&gt;&#45;4990305070490083274</title>
<path fill="none" stroke="black" stroke-width="1.25777" d="M511.736,-260.861C514.796,-255.376 517.726,-249.131 519.419,-243 537.888,-176.135 566.402,-142.222 524.419,-87 502.199,-57.7718 405.405,-37.8161 340.338,-27.4237"/>
<polygon fill="black" stroke="black" stroke-width="1.25777" points="340.604,-23.9229 330.183,-25.838 339.523,-30.8391 340.604,-23.9229"/>
<text text-anchor="middle" x="605.919" y="-144.8" font-family="Times New Roman,serif" font-size="14.00">436.30501051763633</text>
</g>
<!-- 5659693541288529527 -->
<g id="node8" class="node"><title>5659693541288529527</title>
<polygon fill="#ffffff" stroke="black" points="126.419,-123 28.4194,-123 28.4194,-87 126.419,-87 126.419,-123"/>
<text text-anchor="middle" x="77.4194" y="-101.3" font-family="Times New Roman,serif" font-size="14.00">LacticAcid (1)</text>
</g>
<!-- 8794229938327540079&#45;&gt;5659693541288529527 -->
<g id="edge3" class="edge"><title>8794229938327540079&#45;&gt;5659693541288529527</title>
<path fill="none" stroke="black" stroke-width="1.44767" d="M247.155,-191.828C182.737,-192.715 41.757,-190.557 11.4194,-156 2.31719,-145.632 9.31668,-136.01 21.6239,-128.032"/>
<polygon fill="black" stroke="black" stroke-width="1.44767" points="23.4184,-131.038 30.3621,-123.036 19.9437,-124.961 23.4184,-131.038"/>
<text text-anchor="middle" x="67.4194" y="-144.8" font-family="Times New Roman,serif" font-size="14.00">617.9622801527954</text>
</g>
<!-- 8794229938327540079&#45;&gt;&#45;4990305070490083274 -->
<g id="edge4" class="edge"><title>8794229938327540079&#45;&gt;&#45;4990305070490083274</title>
<path fill="none" stroke="black" stroke-width="2.30841" d="M279.419,-173.879C279.419,-144.001 279.419,-82.1129 279.419,-46.2736"/>
<polygon fill="black" stroke="black" stroke-width="2.30841" points="282.92,-46.0516 279.419,-36.0516 275.92,-46.0516 282.92,-46.0516"/>
<text text-anchor="middle" x="338.919" y="-101.3" font-family="Times New Roman,serif" font-size="14.00">1441.3727416169393</text>
</g>
<!-- 4941573644585563234 -->
<g id="node3" class="node"><title>4941573644585563234</title>
<polygon fill="#ffffff" stroke="black" points="707.919,-471 582.919,-471 582.919,-435 707.919,-435 707.919,-471"/>
<text text-anchor="middle" x="645.419" y="-449.3" font-family="Times New Roman,serif" font-size="14.00">ER Registration (1)</text>
</g>
<!-- 7781181950460006610 -->
<g id="node5" class="node"><title>7781181950460006610</title>
<polygon fill="#ffffff" stroke="black" points="691.919,-384 598.919,-384 598.919,-348 691.919,-348 691.919,-384"/>
<text text-anchor="middle" x="645.419" y="-362.3" font-family="Times New Roman,serif" font-size="14.00">ER Triage (1)</text>
</g>
<!-- 4941573644585563234&#45;&gt;7781181950460006610 -->
<g id="edge5" class="edge"><title>4941573644585563234&#45;&gt;7781181950460006610</title>
<path fill="none" stroke="black" stroke-width="1.82234" d="M645.419,-434.799C645.419,-423.163 645.419,-407.548 645.419,-394.237"/>
<polygon fill="black" stroke="black" stroke-width="1.82234" points="648.92,-394.175 645.419,-384.175 641.92,-394.175 648.92,-394.175"/>
<text text-anchor="middle" x="701.419" y="-405.8" font-family="Times New Roman,serif" font-size="14.00">976.3820299298934</text>
</g>
<!-- &#45;1916228938975785919 -->
<g id="node4" class="node"><title>&#45;1916228938975785919</title>
<polygon fill="#ffffff" stroke="black" points="712.419,-297 578.419,-297 578.419,-261 712.419,-261 712.419,-297"/>
<text text-anchor="middle" x="645.419" y="-275.3" font-family="Times New Roman,serif" font-size="14.00">ER Sepsis Triage (1)</text>
</g>
<!-- 7781181950460006610&#45;&gt;&#45;1916228938975785919 -->
<g id="edge6" class="edge"><title>7781181950460006610&#45;&gt;&#45;1916228938975785919</title>
<path fill="none" stroke="black" stroke-width="1.48132" d="M645.419,-347.799C645.419,-336.163 645.419,-320.548 645.419,-307.237"/>
<polygon fill="black" stroke="black" stroke-width="1.48132" points="648.92,-307.175 645.419,-297.175 641.92,-307.175 648.92,-307.175"/>
<text text-anchor="middle" x="701.419" y="-318.8" font-family="Times New Roman,serif" font-size="14.00">650.1569727019672</text>
</g>
<!-- 1341266047991071662 -->
<g id="node6" class="node"><title>1341266047991071662</title>
<polygon fill="#ffffff" stroke="black" points="557.919,-384 442.919,-384 442.919,-348 557.919,-348 557.919,-384"/>
<text text-anchor="middle" x="500.419" y="-362.3" font-family="Times New Roman,serif" font-size="14.00">IV Antibiotics (1)</text>
</g>
<!-- 1341266047991071662&#45;&gt;9118780525858573852 -->
<g id="edge7" class="edge"><title>1341266047991071662&#45;&gt;9118780525858573852</title>
<path fill="none" stroke="black" stroke-width="1.22456" d="M500.419,-347.799C500.419,-336.163 500.419,-320.548 500.419,-307.237"/>
<polygon fill="black" stroke="black" stroke-width="1.22456" points="503.92,-307.175 500.419,-297.175 496.92,-307.175 503.92,-307.175"/>
<text text-anchor="middle" x="556.419" y="-318.8" font-family="Times New Roman,serif" font-size="14.00">404.5381132578541</text>
</g>
<!-- 1513237216211266658 -->
<g id="node7" class="node"><title>1513237216211266658</title>
<polygon fill="#ffffff" stroke="black" points="545.419,-471 455.419,-471 455.419,-435 545.419,-435 545.419,-471"/>
<text text-anchor="middle" x="500.419" y="-449.3" font-family="Times New Roman,serif" font-size="14.00">IV Liquid (1)</text>
</g>
<!-- 1513237216211266658&#45;&gt;1341266047991071662 -->
<g id="edge8" class="edge"><title>1513237216211266658&#45;&gt;1341266047991071662</title>
<path fill="none" stroke="black" stroke-width="1.38469" d="M500.419,-434.799C500.419,-423.163 500.419,-407.548 500.419,-394.237"/>
<polygon fill="black" stroke="black" stroke-width="1.38469" points="503.92,-394.175 500.419,-384.175 496.92,-394.175 503.92,-394.175"/>
<text text-anchor="middle" x="549.919" y="-405.8" font-family="Times New Roman,serif" font-size="14.00">557.71679517702</text>
</g>
<!-- 5659693541288529527&#45;&gt;8794229938327540079 -->
<g id="edge9" class="edge"><title>5659693541288529527&#45;&gt;8794229938327540079</title>
<path fill="none" stroke="black" stroke-width="1.22233" d="M100.173,-123.128C118.273,-136.644 141.372,-153.61 146.419,-156 175.409,-169.726 210.598,-178.684 237.497,-184.099"/>
<polygon fill="black" stroke="black" stroke-width="1.22233" points="236.888,-187.546 247.37,-186.003 238.214,-180.673 236.888,-187.546"/>
<text text-anchor="middle" x="205.919" y="-144.8" font-family="Times New Roman,serif" font-size="14.00">402.40275365894206</text>
</g>
<!-- 5659693541288529527&#45;&gt;&#45;4990305070490083274 -->
<g id="edge10" class="edge"><title>5659693541288529527&#45;&gt;&#45;4990305070490083274</title>
<path fill="none" stroke="black" d="M28.1732,-88.8031C8.03089,-80.0783 -7.96763,-68.0635 4.41943,-54 18.3476,-38.1868 141.927,-27.629 218.608,-22.537"/>
<polygon fill="black" stroke="black" points="218.887,-26.0263 228.638,-21.8842 218.432,-19.0411 218.887,-26.0263"/>
<text text-anchor="middle" x="63.9194" y="-57.8" font-family="Times New Roman,serif" font-size="14.00">189.71420539932217</text>
</g>
<!-- &#45;4990305070490083274&#45;&gt;8794229938327540079 -->
<g id="edge11" class="edge"><title>&#45;4990305070490083274&#45;&gt;8794229938327540079</title>
<path fill="none" stroke="black" stroke-width="2.6" d="M329.153,-36.1523C372.421,-54.0524 424.937,-84.8222 402.419,-123 385.011,-152.517 349.684,-170.113 321.339,-179.985"/>
<polygon fill="black" stroke="black" stroke-width="2.6" points="320.058,-176.721 311.645,-183.161 322.238,-183.373 320.058,-176.721"/>
<text text-anchor="middle" x="464.419" y="-101.3" font-family="Times New Roman,serif" font-size="14.00">1720.312440703699</text>
</g>
<!-- &#45;4990305070490083274&#45;&gt;5659693541288529527 -->
<g id="edge12" class="edge"><title>&#45;4990305070490083274&#45;&gt;5659693541288529527</title>
<path fill="none" stroke="black" stroke-width="1.24113" d="M228.619,-27.7575C203.157,-33.2825 172.315,-41.7392 146.419,-54 142.121,-56.0351 124.733,-68.6405 108.488,-80.684"/>
<polygon fill="black" stroke="black" stroke-width="1.24113" points="106.106,-78.0939 100.173,-86.8719 110.285,-83.7096 106.106,-78.0939"/>
<text text-anchor="middle" x="205.919" y="-57.8" font-family="Times New Roman,serif" font-size="14.00">420.38382038447895</text>
</g>
<!-- &#45;4990305070490083274&#45;&gt;&#45;4990305070490083274 -->
<g id="edge13" class="edge"><title>&#45;4990305070490083274&#45;&gt;&#45;4990305070490083274</title>
<path fill="none" stroke="black" stroke-width="1.25408" d="M330.203,-25.5746C340.527,-24.7495 347.919,-22.2246 347.919,-18 347.919,-15.3596 345.032,-13.3832 340.346,-12.0707"/>
<polygon fill="black" stroke="black" stroke-width="1.25408" points="340.635,-8.57199 330.203,-10.4254 339.514,-15.4817 340.635,-8.57199"/>
<text text-anchor="middle" x="407.419" y="-14.3" font-family="Times New Roman,serif" font-size="14.00">432.77005847017443</text>
</g>
</g>
</svg>
