<?xml version="1.0" encoding="UTF-8" standalone="no"?>
<!DOCTYPE svg PUBLIC "-//W3C//DTD SVG 1.1//EN"
 "http://www.w3.org/Graphics/SVG/1.1/DTD/svg11.dtd">
<!-- Generated by graphviz version 2.38.0 (20140413.2041)
 -->
<!-- Title: %3 Pages: 1 -->
<svg width="746pt" height="479pt"
 viewBox="0.00 0.00 746.48 479.00" xmlns="http://www.w3.org/2000/svg" xmlns:xlink="http://www.w3.org/1999/xlink">
<g id="graph0" class="graph" transform="scale(1 1) rotate(0) translate(4 475)">
<title>%3</title>
<!-- 9118780525858573852 -->
<g id="node1" class="node"><title>9118780525858573852</title>
<polygon fill="#ffffff" stroke="black" points="540.978,-297 421.978,-297 421.978,-261 540.978,-261 540.978,-297"/>
<text text-anchor="middle" x="481.478" y="-275.3" font-family="Times New Roman,serif" font-size="14.00">Admission NC (1)</text>
</g>
<!-- 8794229938327540079 -->
<g id="node2" class="node"><title>8794229938327540079</title>
<polygon fill="#ffffff" stroke="black" points="297.478,-210 233.478,-210 233.478,-174 297.478,-174 297.478,-210"/>
<text text-anchor="middle" x="265.478" y="-188.3" font-family="Times New Roman,serif" font-size="14.00">CRP (1)</text>
</g>
<!-- 9118780525858573852&#45;&gt;8794229938327540079 -->
<g id="edge1" class="edge"><title>9118780525858573852&#45;&gt;8794229938327540079</title>
<path fill="none" stroke="black" d="M438.027,-260.901C399.916,-245.904 344.867,-224.241 307.261,-209.442"/>
<polygon fill="black" stroke="black" points="308.209,-206.054 297.622,-205.649 305.645,-212.568 308.209,-206.054"/>
<text text-anchor="middle" x="442.478" y="-231.8" font-family="Times New Roman,serif" font-size="14.00">368.1645497884274</text>
</g>
<!-- &#45;4990305070490083274 -->
<g id="node9" class="node"><title>&#45;4990305070490083274</title>
<polygon fill="#ffffff" stroke="black" points="315.978,-36 214.978,-36 214.978,-0 315.978,-0 315.978,-36"/>
<text text-anchor="middle" x="265.478" y="-14.3" font-family="Times New Roman,serif" font-size="14.00">Leucocytes (1)</text>
</g>
<!-- 9118780525858573852&#45;&gt;&#45;4990305070490083274 -->
<g id="edge2" class="edge"><title>9118780525858573852&#45;&gt;&#45;4990305070490083274</title>
<path fill="none" stroke="black" stroke-width="1.0509" d="M494.337,-260.68C497.641,-255.287 500.75,-249.139 502.478,-243 521.264,-176.259 545.231,-142.353 503.478,-87 482.107,-58.6683 389.245,-38.5895 326.036,-27.9074"/>
<polygon fill="black" stroke="black" stroke-width="1.0509" points="326.598,-24.453 316.161,-26.2739 325.456,-31.3591 326.598,-24.453"/>
<text text-anchor="middle" x="583.478" y="-144.8" font-family="Times New Roman,serif" font-size="14.00">413.0702948512439</text>
</g>
<!-- 5659693541288529527 -->
<g id="node8" class="node"><title>5659693541288529527</title>
<polygon fill="#ffffff" stroke="black" points="122.478,-123 24.4779,-123 24.4779,-87 122.478,-87 122.478,-123"/>
<text text-anchor="middle" x="73.4779" y="-101.3" font-family="Times New Roman,serif" font-size="14.00">LacticAcid (1)</text>
</g>
<!-- 8794229938327540079&#45;&gt;5659693541288529527 -->
<g id="edge3" class="edge"><title>8794229938327540079&#45;&gt;5659693541288529527</title>
<path fill="none" stroke="black" stroke-width="1.30003" d="M233.082,-191.7C169.901,-192.296 33.8281,-189.549 4.47794,-156 -4.87091,-145.314 2.48856,-135.612 15.3422,-127.66"/>
<polygon fill="black" stroke="black" stroke-width="1.30003" points="17.3537,-130.55 24.4619,-122.693 14.0058,-124.402 17.3537,-130.55"/>
<text text-anchor="middle" x="60.4779" y="-144.8" font-family="Times New Roman,serif" font-size="14.00">632.8791648402436</text>
</g>
<!-- 8794229938327540079&#45;&gt;&#45;4990305070490083274 -->
<g id="edge4" class="edge"><title>8794229938327540079&#45;&gt;&#45;4990305070490083274</title>
<path fill="none" stroke="black" stroke-width="2.21901" d="M265.478,-173.879C265.478,-144.001 265.478,-82.1129 265.478,-46.2736"/>
<polygon fill="black" stroke="black" stroke-width="2.21901" points="268.978,-46.0516 265.478,-36.0516 261.978,-46.0516 268.978,-46.0516"/>
<text text-anchor="middle" x="321.478" y="-101.3" font-family="Times New Roman,serif" font-size="14.00">1443.704542641841</text>
</g>
<!-- 4941573644585563234 -->
<g id="node3" class="node"><title>4941573644585563234</title>
<polygon fill="#ffffff" stroke="black" points="688.978,-471 563.978,-471 563.978,-435 688.978,-435 688.978,-471"/>
<text text-anchor="middle" x="626.478" y="-449.3" font-family="Times New Roman,serif" font-size="14.00">ER Registration (1)</text>
</g>
<!-- 7781181950460006610 -->
<g id="node5" class="node"><title>7781181950460006610</title>
<polygon fill="#ffffff" stroke="black" points="672.978,-384 579.978,-384 579.978,-348 672.978,-348 672.978,-384"/>
<text text-anchor="middle" x="626.478" y="-362.3" font-family="Times New Roman,serif" font-size="14.00">ER Triage (1)</text>
</g>
<!-- 4941573644585563234&#45;&gt;7781181950460006610 -->
<g id="edge5" class="edge"><title>4941573644585563234&#45;&gt;7781181950460006610</title>
<path fill="none" stroke="black" stroke-width="1.6837" d="M626.478,-434.799C626.478,-423.163 626.478,-407.548 626.478,-394.237"/>
<polygon fill="black" stroke="black" stroke-width="1.6837" points="629.978,-394.175 626.478,-384.175 622.978,-394.175 629.978,-394.175"/>
<text text-anchor="middle" x="682.478" y="-405.8" font-family="Times New Roman,serif" font-size="14.00">971.3938151262406</text>
</g>
<!-- &#45;1916228938975785919 -->
<g id="node4" class="node"><title>&#45;1916228938975785919</title>
<polygon fill="#ffffff" stroke="black" points="693.478,-297 559.478,-297 559.478,-261 693.478,-261 693.478,-297"/>
<text text-anchor="middle" x="626.478" y="-275.3" font-family="Times New Roman,serif" font-size="14.00">ER Sepsis Triage (1)</text>
</g>
<!-- 7781181950460006610&#45;&gt;&#45;1916228938975785919 -->
<g id="edge6" class="edge"><title>7781181950460006610&#45;&gt;&#45;1916228938975785919</title>
<path fill="none" stroke="black" stroke-width="1.60057" d="M626.478,-347.799C626.478,-336.163 626.478,-320.548 626.478,-307.237"/>
<polygon fill="black" stroke="black" stroke-width="1.60057" points="629.978,-307.175 626.478,-297.175 622.978,-307.175 629.978,-307.175"/>
<text text-anchor="middle" x="682.478" y="-318.8" font-family="Times New Roman,serif" font-size="14.00">898.0523584054646</text>
</g>
<!-- 1341266047991071662 -->
<g id="node6" class="node"><title>1341266047991071662</title>
<polygon fill="#ffffff" stroke="black" points="538.978,-384 423.978,-384 423.978,-348 538.978,-348 538.978,-384"/>
<text text-anchor="middle" x="481.478" y="-362.3" font-family="Times New Roman,serif" font-size="14.00">IV Antibiotics (1)</text>
</g>
<!-- 1341266047991071662&#45;&gt;9118780525858573852 -->
<g id="edge7" class="edge"><title>1341266047991071662&#45;&gt;9118780525858573852</title>
<path fill="none" stroke="black" stroke-width="1.14386" d="M481.478,-347.799C481.478,-336.163 481.478,-320.548 481.478,-307.237"/>
<polygon fill="black" stroke="black" stroke-width="1.14386" points="484.978,-307.175 481.478,-297.175 477.978,-307.175 484.978,-307.175"/>
<text text-anchor="middle" x="537.478" y="-318.8" font-family="Times New Roman,serif" font-size="14.00">495.0944078234654</text>
</g>
<!-- 1513237216211266658 -->
<g id="node7" class="node"><title>1513237216211266658</title>
<polygon fill="#ffffff" stroke="black" points="526.478,-471 436.478,-471 436.478,-435 526.478,-435 526.478,-471"/>
<text text-anchor="middle" x="481.478" y="-449.3" font-family="Times New Roman,serif" font-size="14.00">IV Liquid (1)</text>
</g>
<!-- 1513237216211266658&#45;&gt;1341266047991071662 -->
<g id="edge8" class="edge"><title>1513237216211266658&#45;&gt;1341266047991071662</title>
<path fill="none" stroke="black" stroke-width="1.1497" d="M481.478,-434.799C481.478,-423.163 481.478,-407.548 481.478,-394.237"/>
<polygon fill="black" stroke="black" stroke-width="1.1497" points="484.978,-394.175 481.478,-384.175 477.978,-394.175 484.978,-394.175"/>
<text text-anchor="middle" x="540.978" y="-405.8" font-family="Times New Roman,serif" font-size="14.00">500.25017832610627</text>
</g>
<!-- 5659693541288529527&#45;&gt;8794229938327540079 -->
<g id="edge9" class="edge"><title>5659693541288529527&#45;&gt;8794229938327540079</title>
<path fill="none" stroke="black" stroke-width="1.04234" d="M94.3537,-123.183C109.929,-135.736 130.073,-151.345 139.478,-156 166.034,-169.145 198.263,-177.984 223.478,-183.491"/>
<polygon fill="black" stroke="black" stroke-width="1.04234" points="222.963,-186.959 233.467,-185.58 224.395,-180.107 222.963,-186.959"/>
<text text-anchor="middle" x="195.478" y="-144.8" font-family="Times New Roman,serif" font-size="14.00">405.5204069870023</text>
</g>
<!-- 5659693541288529527&#45;&gt;&#45;4990305070490083274 -->
<g id="edge10" class="edge"><title>5659693541288529527&#45;&gt;&#45;4990305070490083274</title>
<path fill="none" stroke="black" stroke-width="1.2236" d="M28.8529,-86.9018C12.1871,-78.0112 -0.351972,-66.4179 10.4779,-54 35.1671,-25.6907 137.404,-19.4691 204.688,-18.5336"/>
<polygon fill="black" stroke="black" stroke-width="1.2236" points="204.795,-22.0328 214.758,-18.4291 204.722,-15.0332 204.795,-22.0328"/>
<text text-anchor="middle" x="66.4779" y="-57.8" font-family="Times New Roman,serif" font-size="14.00">565.4502439219118</text>
</g>
<!-- &#45;4990305070490083274&#45;&gt;8794229938327540079 -->
<g id="edge11" class="edge"><title>&#45;4990305070490083274&#45;&gt;8794229938327540079</title>
<path fill="none" stroke="black" stroke-width="2.6" d="M311.257,-36.0649C352.301,-54.2127 402.992,-85.4502 381.478,-123 365.561,-150.781 333.402,-168.313 306.974,-178.604"/>
<polygon fill="black" stroke="black" stroke-width="2.6" points="305.716,-175.337 297.538,-182.073 308.131,-181.907 305.716,-175.337"/>
<text text-anchor="middle" x="443.478" y="-101.3" font-family="Times New Roman,serif" font-size="14.00">1779.856385329019</text>
</g>
<!-- &#45;4990305070490083274&#45;&gt;5659693541288529527 -->
<g id="edge12" class="edge"><title>&#45;4990305070490083274&#45;&gt;5659693541288529527</title>
<path fill="none" stroke="black" stroke-width="1.06741" d="M214.812,-29.9012C192.893,-35.5924 167.314,-43.5757 145.478,-54 141.023,-56.127 122.584,-68.9448 105.483,-81.0687"/>
<polygon fill="black" stroke="black" stroke-width="1.06741" points="103.384,-78.267 97.2627,-86.9149 107.441,-83.9715 103.384,-78.267"/>
<text text-anchor="middle" x="198.478" y="-57.8" font-family="Times New Roman,serif" font-size="14.00">427.638629912196</text>
</g>
<!-- &#45;4990305070490083274&#45;&gt;&#45;4990305070490083274 -->
<g id="edge13" class="edge"><title>&#45;4990305070490083274&#45;&gt;&#45;4990305070490083274</title>
<path fill="none" stroke="black" stroke-width="1.10639" d="M316.262,-25.5746C326.585,-24.7495 333.978,-22.2246 333.978,-18 333.978,-15.3596 331.09,-13.3832 326.404,-12.0707"/>
<polygon fill="black" stroke="black" stroke-width="1.10639" points="326.693,-8.57199 316.262,-10.4254 325.572,-15.4817 326.693,-8.57199"/>
<text text-anchor="middle" x="389.978" y="-14.3" font-family="Times New Roman,serif" font-size="14.00">462.0349010260198</text>
</g>
</g>
</svg>
