<?xml version="1.0" encoding="UTF-8" standalone="no"?>
<!DOCTYPE svg PUBLIC "-//W3C//DTD SVG 1.1//EN"
 "http://www.w3.org/Graphics/SVG/1.1/DTD/svg11.dtd">
<!-- Generated by graphviz version 2.38.0 (20140413.2041)
 -->
<!-- Title: %3 Pages: 1 -->
<svg width="746pt" height="479pt"
 viewBox="0.00 0.00 746.39 479.00" xmlns="http://www.w3.org/2000/svg" xmlns:xlink="http://www.w3.org/1999/xlink">
<g id="graph0" class="graph" transform="scale(1 1) rotate(0) translate(4 475)">
<title>%3</title>
<!-- &#45;6760735685208204671 -->
<g id="node1" class="node"><title>&#45;6760735685208204671</title>
<polygon fill="#ffffff" stroke="black" points="540.894,-297 421.894,-297 421.894,-261 540.894,-261 540.894,-297"/>
<text text-anchor="middle" x="481.394" y="-275.3" font-family="Times New Roman,serif" font-size="14.00">Admission NC (1)</text>
</g>
<!-- 7850561497370058999 -->
<g id="node2" class="node"><title>7850561497370058999</title>
<polygon fill="#ffffff" stroke="black" points="297.394,-210 233.394,-210 233.394,-174 297.394,-174 297.394,-210"/>
<text text-anchor="middle" x="265.394" y="-188.3" font-family="Times New Roman,serif" font-size="14.00">CRP (1)</text>
</g>
<!-- &#45;6760735685208204671&#45;&gt;7850561497370058999 -->
<g id="edge1" class="edge"><title>&#45;6760735685208204671&#45;&gt;7850561497370058999</title>
<path fill="none" stroke="black" d="M437.943,-260.901C399.832,-245.904 344.783,-224.241 307.177,-209.442"/>
<polygon fill="black" stroke="black" points="308.125,-206.054 297.538,-205.649 305.561,-212.568 308.125,-206.054"/>
<text text-anchor="middle" x="442.394" y="-231.8" font-family="Times New Roman,serif" font-size="14.00">369.3811251409406</text>
</g>
<!-- 6179918396602481755 -->
<g id="node9" class="node"><title>6179918396602481755</title>
<polygon fill="#ffffff" stroke="black" points="315.894,-36 214.894,-36 214.894,-0 315.894,-0 315.894,-36"/>
<text text-anchor="middle" x="265.394" y="-14.3" font-family="Times New Roman,serif" font-size="14.00">Leucocytes (1)</text>
</g>
<!-- &#45;6760735685208204671&#45;&gt;6179918396602481755 -->
<g id="edge2" class="edge"><title>&#45;6760735685208204671&#45;&gt;6179918396602481755</title>
<path fill="none" stroke="black" stroke-width="1.04427" d="M494.253,-260.68C497.557,-255.287 500.666,-249.139 502.394,-243 521.18,-176.259 545.147,-142.353 503.394,-87 482.023,-58.6683 389.161,-38.5895 325.952,-27.9074"/>
<polygon fill="black" stroke="black" stroke-width="1.04427" points="326.514,-24.453 316.077,-26.2739 325.372,-31.3591 326.514,-24.453"/>
<text text-anchor="middle" x="586.894" y="-144.8" font-family="Times New Roman,serif" font-size="14.00">408.43692944803826</text>
</g>
<!-- 1152587832168206417 -->
<g id="node8" class="node"><title>1152587832168206417</title>
<polygon fill="#ffffff" stroke="black" points="119.394,-123 21.3938,-123 21.3938,-87 119.394,-87 119.394,-123"/>
<text text-anchor="middle" x="70.3938" y="-101.3" font-family="Times New Roman,serif" font-size="14.00">LacticAcid (1)</text>
</g>
<!-- 7850561497370058999&#45;&gt;1152587832168206417 -->
<g id="edge3" class="edge"><title>7850561497370058999&#45;&gt;1152587832168206417</title>
<path fill="none" stroke="black" stroke-width="1.29334" d="M232.998,-191.7C169.817,-192.296 33.744,-189.549 4.39385,-156 -4.69053,-145.616 2.31343,-135.99 14.6193,-128.014"/>
<polygon fill="black" stroke="black" stroke-width="1.29334" points="16.4117,-131.021 23.3558,-123.019 12.9373,-124.944 16.4117,-131.021"/>
<text text-anchor="middle" x="60.3938" y="-144.8" font-family="Times New Roman,serif" font-size="14.00">628.1878996089774</text>
</g>
<!-- 7850561497370058999&#45;&gt;6179918396602481755 -->
<g id="edge4" class="edge"><title>7850561497370058999&#45;&gt;6179918396602481755</title>
<path fill="none" stroke="black" stroke-width="2.21801" d="M265.394,-173.879C265.394,-144.001 265.394,-82.1129 265.394,-46.2736"/>
<polygon fill="black" stroke="black" stroke-width="2.21801" points="268.894,-46.0516 265.394,-36.0516 261.894,-46.0516 268.894,-46.0516"/>
<text text-anchor="middle" x="321.394" y="-101.3" font-family="Times New Roman,serif" font-size="14.00">1444.012253089991</text>
</g>
<!-- &#45;2410219256766748193 -->
<g id="node3" class="node"><title>&#45;2410219256766748193</title>
<polygon fill="#ffffff" stroke="black" points="688.894,-471 563.894,-471 563.894,-435 688.894,-435 688.894,-471"/>
<text text-anchor="middle" x="626.394" y="-449.3" font-family="Times New Roman,serif" font-size="14.00">ER Registration (1)</text>
</g>
<!-- &#45;2872325205858232948 -->
<g id="node5" class="node"><title>&#45;2872325205858232948</title>
<polygon fill="#ffffff" stroke="black" points="672.894,-384 579.894,-384 579.894,-348 672.894,-348 672.894,-384"/>
<text text-anchor="middle" x="626.394" y="-362.3" font-family="Times New Roman,serif" font-size="14.00">ER Triage (1)</text>
</g>
<!-- &#45;2410219256766748193&#45;&gt;&#45;2872325205858232948 -->
<g id="edge5" class="edge"><title>&#45;2410219256766748193&#45;&gt;&#45;2872325205858232948</title>
<path fill="none" stroke="black" stroke-width="1.68271" d="M626.394,-434.799C626.394,-423.163 626.394,-407.548 626.394,-394.237"/>
<polygon fill="black" stroke="black" stroke-width="1.68271" points="629.894,-394.175 626.394,-384.175 622.894,-394.175 629.894,-394.175"/>
<text text-anchor="middle" x="682.394" y="-405.8" font-family="Times New Roman,serif" font-size="14.00">971.7274472057836</text>
</g>
<!-- 8892003065059452103 -->
<g id="node4" class="node"><title>8892003065059452103</title>
<polygon fill="#ffffff" stroke="black" points="693.394,-297 559.394,-297 559.394,-261 693.394,-261 693.394,-297"/>
<text text-anchor="middle" x="626.394" y="-275.3" font-family="Times New Roman,serif" font-size="14.00">ER Sepsis Triage (1)</text>
</g>
<!-- &#45;2872325205858232948&#45;&gt;8892003065059452103 -->
<g id="edge6" class="edge"><title>&#45;2872325205858232948&#45;&gt;8892003065059452103</title>
<path fill="none" stroke="black" stroke-width="1.606" d="M626.394,-347.799C626.394,-336.163 626.394,-320.548 626.394,-307.237"/>
<polygon fill="black" stroke="black" stroke-width="1.606" points="629.894,-307.175 626.394,-297.175 622.894,-307.175 629.894,-307.175"/>
<text text-anchor="middle" x="682.394" y="-318.8" font-family="Times New Roman,serif" font-size="14.00">904.0418637042695</text>
</g>
<!-- &#45;6564841300794043563 -->
<g id="node6" class="node"><title>&#45;6564841300794043563</title>
<polygon fill="#ffffff" stroke="black" points="538.894,-384 423.894,-384 423.894,-348 538.894,-348 538.894,-384"/>
<text text-anchor="middle" x="481.394" y="-362.3" font-family="Times New Roman,serif" font-size="14.00">IV Antibiotics (1)</text>
</g>
<!-- &#45;6564841300794043563&#45;&gt;&#45;6760735685208204671 -->
<g id="edge7" class="edge"><title>&#45;6564841300794043563&#45;&gt;&#45;6760735685208204671</title>
<path fill="none" stroke="black" stroke-width="1.13864" d="M481.394,-347.799C481.394,-336.163 481.394,-320.548 481.394,-307.237"/>
<polygon fill="black" stroke="black" stroke-width="1.13864" points="484.894,-307.175 481.394,-297.175 477.894,-307.175 484.894,-307.175"/>
<text text-anchor="middle" x="537.394" y="-318.8" font-family="Times New Roman,serif" font-size="14.00">491.6965964191196</text>
</g>
<!-- &#45;1926219633770359302 -->
<g id="node7" class="node"><title>&#45;1926219633770359302</title>
<polygon fill="#ffffff" stroke="black" points="526.394,-471 436.394,-471 436.394,-435 526.394,-435 526.394,-471"/>
<text text-anchor="middle" x="481.394" y="-449.3" font-family="Times New Roman,serif" font-size="14.00">IV Liquid (1)</text>
</g>
<!-- &#45;1926219633770359302&#45;&gt;&#45;6564841300794043563 -->
<g id="edge8" class="edge"><title>&#45;1926219633770359302&#45;&gt;&#45;6564841300794043563</title>
<path fill="none" stroke="black" stroke-width="1.14972" d="M481.394,-434.799C481.394,-423.163 481.394,-407.548 481.394,-394.237"/>
<polygon fill="black" stroke="black" stroke-width="1.14972" points="484.894,-394.175 481.394,-384.175 477.894,-394.175 484.894,-394.175"/>
<text text-anchor="middle" x="537.394" y="-405.8" font-family="Times New Roman,serif" font-size="14.00">501.4739267306089</text>
</g>
<!-- 1152587832168206417&#45;&gt;7850561497370058999 -->
<g id="edge9" class="edge"><title>1152587832168206417&#45;&gt;7850561497370058999</title>
<path fill="none" stroke="black" stroke-width="1.05114" d="M93.156,-123.111C111.261,-136.616 134.363,-153.576 139.394,-156 165.999,-168.819 198.098,-177.647 223.239,-183.231"/>
<polygon fill="black" stroke="black" stroke-width="1.05114" points="222.692,-186.693 233.202,-185.356 224.152,-179.847 222.692,-186.693"/>
<text text-anchor="middle" x="195.394" y="-144.8" font-family="Times New Roman,serif" font-size="14.00">414.4995542397295</text>
</g>
<!-- 1152587832168206417&#45;&gt;6179918396602481755 -->
<g id="edge10" class="edge"><title>1152587832168206417&#45;&gt;6179918396602481755</title>
<path fill="none" stroke="black" stroke-width="1.22298" d="M23.3558,-86.981C6.15378,-78.1902 -6.68044,-66.6585 4.39385,-54 29.8413,-24.9123 135.517,-18.9795 204.351,-18.3044"/>
<polygon fill="black" stroke="black" stroke-width="1.22298" points="204.666,-21.8026 214.644,-18.2395 204.622,-14.8027 204.666,-21.8026"/>
<text text-anchor="middle" x="60.3938" y="-57.8" font-family="Times New Roman,serif" font-size="14.00">566.1104381650139</text>
</g>
<!-- 6179918396602481755&#45;&gt;7850561497370058999 -->
<g id="edge11" class="edge"><title>6179918396602481755&#45;&gt;7850561497370058999</title>
<path fill="none" stroke="black" stroke-width="2.6" d="M311.173,-36.0649C352.217,-54.2127 402.908,-85.4502 381.394,-123 365.477,-150.781 333.318,-168.313 306.89,-178.604"/>
<polygon fill="black" stroke="black" stroke-width="2.6" points="305.632,-175.337 297.453,-182.073 308.047,-181.907 305.632,-175.337"/>
<text text-anchor="middle" x="443.394" y="-101.3" font-family="Times New Roman,serif" font-size="14.00">1781.033028614427</text>
</g>
<!-- 6179918396602481755&#45;&gt;1152587832168206417 -->
<g id="edge12" class="edge"><title>6179918396602481755&#45;&gt;1152587832168206417</title>
<path fill="none" stroke="black" stroke-width="1.07607" d="M214.847,-28.6971C191.214,-34.3104 163.119,-42.5684 139.394,-54 135.11,-56.0643 117.721,-68.6695 101.473,-80.7057"/>
<polygon fill="black" stroke="black" stroke-width="1.07607" points="99.0929,-78.114 93.156,-86.8892 103.269,-83.7316 99.0929,-78.114"/>
<text text-anchor="middle" x="195.394" y="-57.8" font-family="Times New Roman,serif" font-size="14.00">436.4972677577039</text>
</g>
<!-- 6179918396602481755&#45;&gt;6179918396602481755 -->
<g id="edge13" class="edge"><title>6179918396602481755&#45;&gt;6179918396602481755</title>
<path fill="none" stroke="black" stroke-width="1.10132" d="M316.178,-25.5746C326.501,-24.7495 333.894,-22.2246 333.894,-18 333.894,-15.3596 331.006,-13.3832 326.32,-12.0707"/>
<polygon fill="black" stroke="black" stroke-width="1.10132" points="326.609,-8.57199 316.178,-10.4254 325.488,-15.4817 326.609,-8.57199"/>
<text text-anchor="middle" x="393.394" y="-14.3" font-family="Times New Roman,serif" font-size="14.00">458.77822180000015</text>
</g>
</g>
</svg>
