<?xml version="1.0" encoding="UTF-8" standalone="no"?>
<!DOCTYPE svg PUBLIC "-//W3C//DTD SVG 1.1//EN"
 "http://www.w3.org/Graphics/SVG/1.1/DTD/svg11.dtd">
<!-- Generated by graphviz version 2.38.0 (20140413.2041)
 -->
<!-- Title: %3 Pages: 1 -->
<svg width="756pt" height="479pt"
 viewBox="0.00 0.00 756.48 479.00" xmlns="http://www.w3.org/2000/svg" xmlns:xlink="http://www.w3.org/1999/xlink">
<g id="graph0" class="graph" transform="scale(1 1) rotate(0) translate(4 475)">
<title>%3</title>
<!-- 9118780525858573852 -->
<g id="node1" class="node"><title>9118780525858573852</title>
<polygon fill="#ffffff" stroke="black" points="550.978,-297 431.978,-297 431.978,-261 550.978,-261 550.978,-297"/>
<text text-anchor="middle" x="491.478" y="-275.3" font-family="Times New Roman,serif" font-size="14.00">Admission NC (1)</text>
</g>
<!-- 8794229938327540079 -->
<g id="node2" class="node"><title>8794229938327540079</title>
<polygon fill="#ffffff" stroke="black" points="297.478,-210 233.478,-210 233.478,-174 297.478,-174 297.478,-210"/>
<text text-anchor="middle" x="265.478" y="-188.3" font-family="Times New Roman,serif" font-size="14.00">CRP (1)</text>
</g>
<!-- 9118780525858573852&#45;&gt;8794229938327540079 -->
<g id="edge1" class="edge"><title>9118780525858573852&#45;&gt;8794229938327540079</title>
<path fill="none" stroke="black" d="M446.015,-260.901C405.495,-245.661 346.674,-223.538 307.3,-208.73"/>
<polygon fill="black" stroke="black" points="308.324,-205.375 297.732,-205.131 305.86,-211.927 308.324,-205.375"/>
<text text-anchor="middle" x="451.978" y="-231.8" font-family="Times New Roman,serif" font-size="14.00">369.44019422964243</text>
</g>
<!-- &#45;4990305070490083274 -->
<g id="node9" class="node"><title>&#45;4990305070490083274</title>
<polygon fill="#ffffff" stroke="black" points="315.978,-36 214.978,-36 214.978,-0 315.978,-0 315.978,-36"/>
<text text-anchor="middle" x="265.478" y="-14.3" font-family="Times New Roman,serif" font-size="14.00">Leucocytes (1)</text>
</g>
<!-- 9118780525858573852&#45;&gt;&#45;4990305070490083274 -->
<g id="edge2" class="edge"><title>9118780525858573852&#45;&gt;&#45;4990305070490083274</title>
<path fill="none" stroke="black" stroke-width="1.04393" d="M506.122,-260.905C509.898,-255.518 513.462,-249.317 515.478,-243 536.556,-176.942 559.64,-142.048 517.478,-87 494.349,-56.8023 393.181,-36.9672 326.274,-26.8902"/>
<polygon fill="black" stroke="black" stroke-width="1.04393" points="326.66,-23.4093 316.257,-25.4153 325.64,-30.3346 326.66,-23.4093"/>
<text text-anchor="middle" x="600.978" y="-144.8" font-family="Times New Roman,serif" font-size="14.00">408.10593196754576</text>
</g>
<!-- 5659693541288529527 -->
<g id="node8" class="node"><title>5659693541288529527</title>
<polygon fill="#ffffff" stroke="black" points="122.478,-123 24.4779,-123 24.4779,-87 122.478,-87 122.478,-123"/>
<text text-anchor="middle" x="73.4779" y="-101.3" font-family="Times New Roman,serif" font-size="14.00">LacticAcid (1)</text>
</g>
<!-- 8794229938327540079&#45;&gt;5659693541288529527 -->
<g id="edge3" class="edge"><title>8794229938327540079&#45;&gt;5659693541288529527</title>
<path fill="none" stroke="black" stroke-width="1.29483" d="M233.082,-191.7C169.901,-192.296 33.8281,-189.549 4.47794,-156 -4.87091,-145.314 2.48856,-135.612 15.3422,-127.66"/>
<polygon fill="black" stroke="black" stroke-width="1.29483" points="17.3537,-130.55 24.4619,-122.693 14.0058,-124.402 17.3537,-130.55"/>
<text text-anchor="middle" x="60.4779" y="-144.8" font-family="Times New Roman,serif" font-size="14.00">628.9246716570793</text>
</g>
<!-- 8794229938327540079&#45;&gt;&#45;4990305070490083274 -->
<g id="edge4" class="edge"><title>8794229938327540079&#45;&gt;&#45;4990305070490083274</title>
<path fill="none" stroke="black" stroke-width="2.22167" d="M265.478,-173.879C265.478,-144.001 265.478,-82.1129 265.478,-46.2736"/>
<polygon fill="black" stroke="black" stroke-width="2.22167" points="268.978,-46.0516 265.478,-36.0516 261.978,-46.0516 268.978,-46.0516"/>
<text text-anchor="middle" x="324.978" y="-101.3" font-family="Times New Roman,serif" font-size="14.00">1444.6388094245399</text>
</g>
<!-- 4941573644585563234 -->
<g id="node3" class="node"><title>4941573644585563234</title>
<polygon fill="#ffffff" stroke="black" points="698.978,-471 573.978,-471 573.978,-435 698.978,-435 698.978,-471"/>
<text text-anchor="middle" x="636.478" y="-449.3" font-family="Times New Roman,serif" font-size="14.00">ER Registration (1)</text>
</g>
<!-- 7781181950460006610 -->
<g id="node5" class="node"><title>7781181950460006610</title>
<polygon fill="#ffffff" stroke="black" points="682.978,-384 589.978,-384 589.978,-348 682.978,-348 682.978,-384"/>
<text text-anchor="middle" x="636.478" y="-362.3" font-family="Times New Roman,serif" font-size="14.00">ER Triage (1)</text>
</g>
<!-- 4941573644585563234&#45;&gt;7781181950460006610 -->
<g id="edge5" class="edge"><title>4941573644585563234&#45;&gt;7781181950460006610</title>
<path fill="none" stroke="black" stroke-width="1.68379" d="M636.478,-434.799C636.478,-423.163 636.478,-407.548 636.478,-394.237"/>
<polygon fill="black" stroke="black" stroke-width="1.68379" points="639.978,-394.175 636.478,-384.175 632.978,-394.175 639.978,-394.175"/>
<text text-anchor="middle" x="689.478" y="-405.8" font-family="Times New Roman,serif" font-size="14.00">971.244064240547</text>
</g>
<!-- &#45;1916228938975785919 -->
<g id="node4" class="node"><title>&#45;1916228938975785919</title>
<polygon fill="#ffffff" stroke="black" points="703.478,-297 569.478,-297 569.478,-261 703.478,-261 703.478,-297"/>
<text text-anchor="middle" x="636.478" y="-275.3" font-family="Times New Roman,serif" font-size="14.00">ER Sepsis Triage (1)</text>
</g>
<!-- 7781181950460006610&#45;&gt;&#45;1916228938975785919 -->
<g id="edge6" class="edge"><title>7781181950460006610&#45;&gt;&#45;1916228938975785919</title>
<path fill="none" stroke="black" stroke-width="1.60888" d="M636.478,-347.799C636.478,-336.163 636.478,-320.548 636.478,-307.237"/>
<polygon fill="black" stroke="black" stroke-width="1.60888" points="639.978,-307.175 636.478,-297.175 632.978,-307.175 639.978,-307.175"/>
<text text-anchor="middle" x="692.478" y="-318.8" font-family="Times New Roman,serif" font-size="14.00">905.3222110769689</text>
</g>
<!-- 1341266047991071662 -->
<g id="node6" class="node"><title>1341266047991071662</title>
<polygon fill="#ffffff" stroke="black" points="548.978,-384 433.978,-384 433.978,-348 548.978,-348 548.978,-384"/>
<text text-anchor="middle" x="491.478" y="-362.3" font-family="Times New Roman,serif" font-size="14.00">IV Antibiotics (1)</text>
</g>
<!-- 1341266047991071662&#45;&gt;9118780525858573852 -->
<g id="edge7" class="edge"><title>1341266047991071662&#45;&gt;9118780525858573852</title>
<path fill="none" stroke="black" stroke-width="1.13613" d="M491.478,-347.799C491.478,-336.163 491.478,-320.548 491.478,-307.237"/>
<polygon fill="black" stroke="black" stroke-width="1.13613" points="494.978,-307.175 491.478,-297.175 487.978,-307.175 494.978,-307.175"/>
<text text-anchor="middle" x="547.478" y="-318.8" font-family="Times New Roman,serif" font-size="14.00">489.2456284770492</text>
</g>
<!-- 1513237216211266658 -->
<g id="node7" class="node"><title>1513237216211266658</title>
<polygon fill="#ffffff" stroke="black" points="536.478,-471 446.478,-471 446.478,-435 536.478,-435 536.478,-471"/>
<text text-anchor="middle" x="491.478" y="-449.3" font-family="Times New Roman,serif" font-size="14.00">IV Liquid (1)</text>
</g>
<!-- 1513237216211266658&#45;&gt;1341266047991071662 -->
<g id="edge8" class="edge"><title>1513237216211266658&#45;&gt;1341266047991071662</title>
<path fill="none" stroke="black" stroke-width="1.15031" d="M491.478,-434.799C491.478,-423.163 491.478,-407.548 491.478,-394.237"/>
<polygon fill="black" stroke="black" stroke-width="1.15031" points="494.978,-394.175 491.478,-384.175 487.978,-394.175 494.978,-394.175"/>
<text text-anchor="middle" x="550.978" y="-405.8" font-family="Times New Roman,serif" font-size="14.00">501.73268466669583</text>
</g>
<!-- 5659693541288529527&#45;&gt;8794229938327540079 -->
<g id="edge9" class="edge"><title>5659693541288529527&#45;&gt;8794229938327540079</title>
<path fill="none" stroke="black" stroke-width="1.03938" d="M94.3537,-123.183C109.929,-135.736 130.073,-151.345 139.478,-156 166.034,-169.145 198.263,-177.984 223.478,-183.491"/>
<polygon fill="black" stroke="black" stroke-width="1.03938" points="222.963,-186.959 233.467,-185.58 224.395,-180.107 222.963,-186.959"/>
<text text-anchor="middle" x="195.478" y="-144.8" font-family="Times New Roman,serif" font-size="14.00">404.0972743928273</text>
</g>
<!-- 5659693541288529527&#45;&gt;&#45;4990305070490083274 -->
<g id="edge10" class="edge"><title>5659693541288529527&#45;&gt;&#45;4990305070490083274</title>
<path fill="none" stroke="black" stroke-width="1.22284" d="M34.5544,-86.8835C19.0799,-77.7265 7.13493,-65.9052 17.4779,-54 41.2312,-26.659 139.087,-20.0805 204.545,-18.8205"/>
<polygon fill="black" stroke="black" stroke-width="1.22284" points="204.812,-22.3169 214.756,-18.6616 204.703,-15.3177 204.812,-22.3169"/>
<text text-anchor="middle" x="63.4779" y="-57.8" font-family="Times New Roman,serif" font-size="14.00">565.5623128835</text>
</g>
<!-- &#45;4990305070490083274&#45;&gt;8794229938327540079 -->
<g id="edge11" class="edge"><title>&#45;4990305070490083274&#45;&gt;8794229938327540079</title>
<path fill="none" stroke="black" stroke-width="2.6" d="M315.211,-36.1523C358.48,-54.0524 410.995,-84.8222 388.478,-123 371.069,-152.517 335.743,-170.113 307.398,-179.985"/>
<polygon fill="black" stroke="black" stroke-width="2.6" points="306.117,-176.721 297.704,-183.161 308.296,-183.373 306.117,-176.721"/>
<text text-anchor="middle" x="453.978" y="-101.3" font-family="Times New Roman,serif" font-size="14.00">1777.6086899182594</text>
</g>
<!-- &#45;4990305070490083274&#45;&gt;5659693541288529527 -->
<g id="edge12" class="edge"><title>&#45;4990305070490083274&#45;&gt;5659693541288529527</title>
<path fill="none" stroke="black" stroke-width="1.07374" d="M214.905,-26.8004C189.215,-32.1057 158.101,-40.6546 132.478,-54 119.572,-60.7216 107.02,-70.7129 96.8345,-80.001"/>
<polygon fill="black" stroke="black" stroke-width="1.07374" points="94.3999,-77.4862 89.5404,-86.9008 99.2103,-82.5715 94.3999,-77.4862"/>
<text text-anchor="middle" x="191.978" y="-57.8" font-family="Times New Roman,serif" font-size="14.00">434.33559237556216</text>
</g>
<!-- &#45;4990305070490083274&#45;&gt;&#45;4990305070490083274 -->
<g id="edge13" class="edge"><title>&#45;4990305070490083274&#45;&gt;&#45;4990305070490083274</title>
<path fill="none" stroke="black" stroke-width="1.1006" d="M316.262,-25.5746C326.585,-24.7495 333.978,-22.2246 333.978,-18 333.978,-15.3596 331.09,-13.3832 326.404,-12.0707"/>
<polygon fill="black" stroke="black" stroke-width="1.1006" points="326.693,-8.57199 316.262,-10.4254 325.572,-15.4817 326.693,-8.57199"/>
<text text-anchor="middle" x="389.978" y="-14.3" font-family="Times New Roman,serif" font-size="14.00">457.9807604535162</text>
</g>
</g>
</svg>
