<?xml version="1.0" encoding="UTF-8" standalone="no"?>
<!DOCTYPE svg PUBLIC "-//W3C//DTD SVG 1.1//EN"
 "http://www.w3.org/Graphics/SVG/1.1/DTD/svg11.dtd">
<!-- Generated by graphviz version 2.38.0 (20140413.2041)
 -->
<!-- Title: %3 Pages: 1 -->
<svg width="759pt" height="479pt"
 viewBox="0.00 0.00 758.61 479.00" xmlns="http://www.w3.org/2000/svg" xmlns:xlink="http://www.w3.org/1999/xlink">
<g id="graph0" class="graph" transform="scale(1 1) rotate(0) translate(4 475)">
<title>%3</title>
<!-- 9118780525858573852 -->
<g id="node1" class="node"><title>9118780525858573852</title>
<polygon fill="#ffffff" stroke="black" points="553.106,-297 434.106,-297 434.106,-261 553.106,-261 553.106,-297"/>
<text text-anchor="middle" x="493.606" y="-275.3" font-family="Times New Roman,serif" font-size="14.00">Admission NC (1)</text>
</g>
<!-- 8794229938327540079 -->
<g id="node2" class="node"><title>8794229938327540079</title>
<polygon fill="#ffffff" stroke="black" points="304.606,-210 240.606,-210 240.606,-174 304.606,-174 304.606,-210"/>
<text text-anchor="middle" x="272.606" y="-188.3" font-family="Times New Roman,serif" font-size="14.00">CRP (1)</text>
</g>
<!-- 9118780525858573852&#45;&gt;8794229938327540079 -->
<g id="edge1" class="edge"><title>9118780525858573852&#45;&gt;8794229938327540079</title>
<path fill="none" stroke="black" d="M449.149,-260.901C409.758,-245.751 352.68,-223.798 314.183,-208.991"/>
<polygon fill="black" stroke="black" points="315.407,-205.712 304.818,-205.389 312.895,-212.246 315.407,-205.712"/>
<text text-anchor="middle" x="456.106" y="-231.8" font-family="Times New Roman,serif" font-size="14.00">368.05340500942816</text>
</g>
<!-- &#45;4990305070490083274 -->
<g id="node9" class="node"><title>&#45;4990305070490083274</title>
<polygon fill="#ffffff" stroke="black" points="323.106,-36 222.106,-36 222.106,-0 323.106,-0 323.106,-36"/>
<text text-anchor="middle" x="272.606" y="-14.3" font-family="Times New Roman,serif" font-size="14.00">Leucocytes (1)</text>
</g>
<!-- 9118780525858573852&#45;&gt;&#45;4990305070490083274 -->
<g id="edge2" class="edge"><title>9118780525858573852&#45;&gt;&#45;4990305070490083274</title>
<path fill="none" stroke="black" stroke-width="1.04562" d="M509.799,-260.735C513.788,-255.436 517.514,-249.324 519.606,-243 534.041,-199.363 650.543,-259.309 517.606,-87 495.179,-57.9301 398.447,-37.9269 333.448,-27.482"/>
<polygon fill="black" stroke="black" stroke-width="1.04562" points="333.727,-23.9829 323.305,-25.8877 332.64,-30.898 333.727,-23.9829"/>
<text text-anchor="middle" x="624.106" y="-144.8" font-family="Times New Roman,serif" font-size="14.00">408.23517648245104</text>
</g>
<!-- 5659693541288529527 -->
<g id="node8" class="node"><title>5659693541288529527</title>
<polygon fill="#ffffff" stroke="black" points="129.606,-123 31.606,-123 31.606,-87 129.606,-87 129.606,-123"/>
<text text-anchor="middle" x="80.606" y="-101.3" font-family="Times New Roman,serif" font-size="14.00">LacticAcid (1)</text>
</g>
<!-- 8794229938327540079&#45;&gt;5659693541288529527 -->
<g id="edge3" class="edge"><title>8794229938327540079&#45;&gt;5659693541288529527</title>
<path fill="none" stroke="black" stroke-width="1.29572" d="M240.283,-191.46C179.395,-191.561 51.3146,-187.876 23.606,-156 15.1974,-146.327 21.4307,-136.779 32.3843,-128.66"/>
<polygon fill="black" stroke="black" stroke-width="1.29572" points="34.5798,-131.407 41.0527,-123.02 30.762,-125.54 34.5798,-131.407"/>
<text text-anchor="middle" x="76.606" y="-144.8" font-family="Times New Roman,serif" font-size="14.00">628.510904338814</text>
</g>
<!-- 8794229938327540079&#45;&gt;&#45;4990305070490083274 -->
<g id="edge4" class="edge"><title>8794229938327540079&#45;&gt;&#45;4990305070490083274</title>
<path fill="none" stroke="black" stroke-width="2.22264" d="M272.606,-173.879C272.606,-144.001 272.606,-82.1129 272.606,-46.2736"/>
<polygon fill="black" stroke="black" stroke-width="2.22264" points="276.106,-46.0516 272.606,-36.0516 269.106,-46.0516 276.106,-46.0516"/>
<text text-anchor="middle" x="328.606" y="-101.3" font-family="Times New Roman,serif" font-size="14.00">1444.903949693644</text>
</g>
<!-- 4941573644585563234 -->
<g id="node3" class="node"><title>4941573644585563234</title>
<polygon fill="#ffffff" stroke="black" points="701.106,-471 576.106,-471 576.106,-435 701.106,-435 701.106,-471"/>
<text text-anchor="middle" x="638.606" y="-449.3" font-family="Times New Roman,serif" font-size="14.00">ER Registration (1)</text>
</g>
<!-- 7781181950460006610 -->
<g id="node5" class="node"><title>7781181950460006610</title>
<polygon fill="#ffffff" stroke="black" points="685.106,-384 592.106,-384 592.106,-348 685.106,-348 685.106,-384"/>
<text text-anchor="middle" x="638.606" y="-362.3" font-family="Times New Roman,serif" font-size="14.00">ER Triage (1)</text>
</g>
<!-- 4941573644585563234&#45;&gt;7781181950460006610 -->
<g id="edge5" class="edge"><title>4941573644585563234&#45;&gt;7781181950460006610</title>
<path fill="none" stroke="black" stroke-width="1.68467" d="M638.606,-434.799C638.606,-423.163 638.606,-407.548 638.606,-394.237"/>
<polygon fill="black" stroke="black" stroke-width="1.68467" points="642.106,-394.175 638.606,-384.175 635.106,-394.175 642.106,-394.175"/>
<text text-anchor="middle" x="694.606" y="-405.8" font-family="Times New Roman,serif" font-size="14.00">971.0770696837288</text>
</g>
<!-- &#45;1916228938975785919 -->
<g id="node4" class="node"><title>&#45;1916228938975785919</title>
<polygon fill="#ffffff" stroke="black" points="705.606,-297 571.606,-297 571.606,-261 705.606,-261 705.606,-297"/>
<text text-anchor="middle" x="638.606" y="-275.3" font-family="Times New Roman,serif" font-size="14.00">ER Sepsis Triage (1)</text>
</g>
<!-- 7781181950460006610&#45;&gt;&#45;1916228938975785919 -->
<g id="edge6" class="edge"><title>7781181950460006610&#45;&gt;&#45;1916228938975785919</title>
<path fill="none" stroke="black" stroke-width="1.60981" d="M638.606,-347.799C638.606,-336.163 638.606,-320.548 638.606,-307.237"/>
<polygon fill="black" stroke="black" stroke-width="1.60981" points="642.106,-307.175 638.606,-297.175 635.106,-307.175 642.106,-307.175"/>
<text text-anchor="middle" x="694.606" y="-318.8" font-family="Times New Roman,serif" font-size="14.00">905.1455895255314</text>
</g>
<!-- 1341266047991071662 -->
<g id="node6" class="node"><title>1341266047991071662</title>
<polygon fill="#ffffff" stroke="black" points="551.106,-384 436.106,-384 436.106,-348 551.106,-348 551.106,-384"/>
<text text-anchor="middle" x="493.606" y="-362.3" font-family="Times New Roman,serif" font-size="14.00">IV Antibiotics (1)</text>
</g>
<!-- 1341266047991071662&#45;&gt;9118780525858573852 -->
<g id="edge7" class="edge"><title>1341266047991071662&#45;&gt;9118780525858573852</title>
<path fill="none" stroke="black" stroke-width="1.13719" d="M493.606,-347.799C493.606,-336.163 493.606,-320.548 493.606,-307.237"/>
<polygon fill="black" stroke="black" stroke-width="1.13719" points="497.106,-307.175 493.606,-297.175 490.106,-307.175 497.106,-307.175"/>
<text text-anchor="middle" x="549.606" y="-318.8" font-family="Times New Roman,serif" font-size="14.00">488.8828744093884</text>
</g>
<!-- 1513237216211266658 -->
<g id="node7" class="node"><title>1513237216211266658</title>
<polygon fill="#ffffff" stroke="black" points="538.606,-471 448.606,-471 448.606,-435 538.606,-435 538.606,-471"/>
<text text-anchor="middle" x="493.606" y="-449.3" font-family="Times New Roman,serif" font-size="14.00">IV Liquid (1)</text>
</g>
<!-- 1513237216211266658&#45;&gt;1341266047991071662 -->
<g id="edge8" class="edge"><title>1513237216211266658&#45;&gt;1341266047991071662</title>
<path fill="none" stroke="black" stroke-width="1.15088" d="M493.606,-434.799C493.606,-423.163 493.606,-407.548 493.606,-394.237"/>
<polygon fill="black" stroke="black" stroke-width="1.15088" points="497.106,-394.175 493.606,-384.175 490.106,-394.175 497.106,-394.175"/>
<text text-anchor="middle" x="549.606" y="-405.8" font-family="Times New Roman,serif" font-size="14.00">500.9375687145143</text>
</g>
<!-- 5659693541288529527&#45;&gt;8794229938327540079 -->
<g id="edge9" class="edge"><title>5659693541288529527&#45;&gt;8794229938327540079</title>
<path fill="none" stroke="black" stroke-width="1.04059" d="M104.391,-123.085C123.303,-136.574 147.422,-153.525 152.606,-156 177.343,-167.809 206.882,-176.485 230.463,-182.245"/>
<polygon fill="black" stroke="black" stroke-width="1.04059" points="229.969,-185.725 240.505,-184.612 231.575,-178.911 229.969,-185.725"/>
<text text-anchor="middle" x="205.606" y="-144.8" font-family="Times New Roman,serif" font-size="14.00">403.800334799484</text>
</g>
<!-- 5659693541288529527&#45;&gt;&#45;4990305070490083274 -->
<g id="edge10" class="edge"><title>5659693541288529527&#45;&gt;&#45;4990305070490083274</title>
<path fill="none" stroke="black" stroke-width="1.22363" d="M31.5587,-89.9836C9.68288,-81.3011 -8.52287,-68.955 4.60603,-54 31.0136,-23.9195 141.254,-18.3878 211.859,-18.0442"/>
<polygon fill="black" stroke="black" stroke-width="1.22363" points="211.979,-21.5441 221.974,-18.0289 211.968,-14.5441 211.979,-21.5441"/>
<text text-anchor="middle" x="60.606" y="-57.8" font-family="Times New Roman,serif" font-size="14.00">565.0164129753624</text>
</g>
<!-- &#45;4990305070490083274&#45;&gt;8794229938327540079 -->
<g id="edge11" class="edge"><title>&#45;4990305070490083274&#45;&gt;8794229938327540079</title>
<path fill="none" stroke="black" stroke-width="2.6" d="M318.385,-36.0649C359.429,-54.2127 410.12,-85.4502 388.606,-123 372.689,-150.781 340.53,-168.313 314.102,-178.604"/>
<polygon fill="black" stroke="black" stroke-width="2.6" points="312.844,-175.337 304.666,-182.073 315.259,-181.907 312.844,-175.337"/>
<text text-anchor="middle" x="454.106" y="-101.3" font-family="Times New Roman,serif" font-size="14.00">1777.2632100455771</text>
</g>
<!-- &#45;4990305070490083274&#45;&gt;5659693541288529527 -->
<g id="edge12" class="edge"><title>&#45;4990305070490083274&#45;&gt;5659693541288529527</title>
<path fill="none" stroke="black" stroke-width="1.07638" d="M222.033,-26.8004C196.343,-32.1057 165.229,-40.6546 139.606,-54 126.7,-60.7216 114.148,-70.7129 103.963,-80.001"/>
<polygon fill="black" stroke="black" stroke-width="1.07638" points="101.528,-77.4862 96.6685,-86.9008 106.338,-82.5715 101.528,-77.4862"/>
<text text-anchor="middle" x="199.106" y="-57.8" font-family="Times New Roman,serif" font-size="14.00">435.32193864697535</text>
</g>
<!-- &#45;4990305070490083274&#45;&gt;&#45;4990305070490083274 -->
<g id="edge13" class="edge"><title>&#45;4990305070490083274&#45;&gt;&#45;4990305070490083274</title>
<path fill="none" stroke="black" stroke-width="1.10172" d="M323.39,-25.5746C333.713,-24.7495 341.106,-22.2246 341.106,-18 341.106,-15.3596 338.218,-13.3832 333.532,-12.0707"/>
<polygon fill="black" stroke="black" stroke-width="1.10172" points="333.821,-8.57199 323.39,-10.4254 332.7,-15.4817 333.821,-8.57199"/>
<text text-anchor="middle" x="397.106" y="-14.3" font-family="Times New Roman,serif" font-size="14.00">457.6476628290826</text>
</g>
</g>
</svg>
