<?xml version="1.0" encoding="UTF-8" standalone="no"?>
<!DOCTYPE svg PUBLIC "-//W3C//DTD SVG 1.1//EN"
 "http://www.w3.org/Graphics/SVG/1.1/DTD/svg11.dtd">
<!-- Generated by graphviz version 2.38.0 (20140413.2041)
 -->
<!-- Title: %3 Pages: 1 -->
<svg width="758pt" height="479pt"
 viewBox="0.00 0.00 758.49 479.00" xmlns="http://www.w3.org/2000/svg" xmlns:xlink="http://www.w3.org/1999/xlink">
<g id="graph0" class="graph" transform="scale(1 1) rotate(0) translate(4 475)">
<title>%3</title>
<!-- 118450489566830562 -->
<g id="node1" class="node"><title>118450489566830562</title>
<polygon fill="#ffffff" stroke="black" points="552.992,-297 433.992,-297 433.992,-261 552.992,-261 552.992,-297"/>
<text text-anchor="middle" x="493.492" y="-275.3" font-family="Times New Roman,serif" font-size="14.00">Admission NC (1)</text>
</g>
<!-- 4941769122289558835 -->
<g id="node2" class="node"><title>4941769122289558835</title>
<polygon fill="#ffffff" stroke="black" points="304.492,-210 240.492,-210 240.492,-174 304.492,-174 304.492,-210"/>
<text text-anchor="middle" x="272.492" y="-188.3" font-family="Times New Roman,serif" font-size="14.00">CRP (1)</text>
</g>
<!-- 118450489566830562&#45;&gt;4941769122289558835 -->
<g id="edge1" class="edge"><title>118450489566830562&#45;&gt;4941769122289558835</title>
<path fill="none" stroke="black" d="M449.035,-260.901C409.644,-245.751 352.566,-223.798 314.069,-208.991"/>
<polygon fill="black" stroke="black" points="315.294,-205.712 304.704,-205.389 312.781,-212.246 315.294,-205.712"/>
<text text-anchor="middle" x="452.492" y="-231.8" font-family="Times New Roman,serif" font-size="14.00">358.0751789281782</text>
</g>
<!-- 6570115252564267433 -->
<g id="node9" class="node"><title>6570115252564267433</title>
<polygon fill="#ffffff" stroke="black" points="322.992,-36 221.992,-36 221.992,-0 322.992,-0 322.992,-36"/>
<text text-anchor="middle" x="272.492" y="-14.3" font-family="Times New Roman,serif" font-size="14.00">Leucocytes (1)</text>
</g>
<!-- 118450489566830562&#45;&gt;6570115252564267433 -->
<g id="edge2" class="edge"><title>118450489566830562&#45;&gt;6570115252564267433</title>
<path fill="none" stroke="black" stroke-width="1.04274" d="M504.809,-260.861C507.869,-255.376 510.799,-249.131 512.492,-243 530.961,-176.135 559.475,-142.222 517.492,-87 495.271,-57.7718 398.478,-37.8161 333.41,-27.4237"/>
<polygon fill="black" stroke="black" stroke-width="1.04274" points="333.676,-23.9229 323.256,-25.838 332.596,-30.8391 333.676,-23.9229"/>
<text text-anchor="middle" x="595.492" y="-144.8" font-family="Times New Roman,serif" font-size="14.00">395.9517544767751</text>
</g>
<!-- &#45;5670009864185339888 -->
<g id="node8" class="node"><title>&#45;5670009864185339888</title>
<polygon fill="#ffffff" stroke="black" points="122.492,-123 24.4923,-123 24.4923,-87 122.492,-87 122.492,-123"/>
<text text-anchor="middle" x="73.4923" y="-101.3" font-family="Times New Roman,serif" font-size="14.00">LacticAcid (1)</text>
</g>
<!-- 4941769122289558835&#45;&gt;&#45;5670009864185339888 -->
<g id="edge3" class="edge"><title>4941769122289558835&#45;&gt;&#45;5670009864185339888</title>
<path fill="none" stroke="black" stroke-width="1.29107" d="M240.227,-191.828C175.81,-192.715 34.8298,-190.557 4.49226,-156 -4.87497,-145.33 2.4799,-135.633 15.335,-127.678"/>
<polygon fill="black" stroke="black" stroke-width="1.29107" points="17.3486,-130.567 24.4564,-122.71 14.0004,-124.42 17.3486,-130.567"/>
<text text-anchor="middle" x="60.4923" y="-144.8" font-family="Times New Roman,serif" font-size="14.00">616.0315863533093</text>
</g>
<!-- 4941769122289558835&#45;&gt;6570115252564267433 -->
<g id="edge4" class="edge"><title>4941769122289558835&#45;&gt;6570115252564267433</title>
<path fill="none" stroke="black" stroke-width="2.22524" d="M272.492,-173.879C272.492,-144.001 272.492,-82.1129 272.492,-46.2736"/>
<polygon fill="black" stroke="black" stroke-width="2.22524" points="275.992,-46.0516 272.492,-36.0516 268.992,-46.0516 275.992,-46.0516"/>
<text text-anchor="middle" x="328.492" y="-101.3" font-family="Times New Roman,serif" font-size="14.00">1443.930551848753</text>
</g>
<!-- &#45;1744131764726653331 -->
<g id="node3" class="node"><title>&#45;1744131764726653331</title>
<polygon fill="#ffffff" stroke="black" points="700.992,-471 575.992,-471 575.992,-435 700.992,-435 700.992,-471"/>
<text text-anchor="middle" x="638.492" y="-449.3" font-family="Times New Roman,serif" font-size="14.00">ER Registration (1)</text>
</g>
<!-- &#45;8305476247514553090 -->
<g id="node5" class="node"><title>&#45;8305476247514553090</title>
<polygon fill="#ffffff" stroke="black" points="684.992,-384 591.992,-384 591.992,-348 684.992,-348 684.992,-384"/>
<text text-anchor="middle" x="638.492" y="-362.3" font-family="Times New Roman,serif" font-size="14.00">ER Triage (1)</text>
</g>
<!-- &#45;1744131764726653331&#45;&gt;&#45;8305476247514553090 -->
<g id="edge5" class="edge"><title>&#45;1744131764726653331&#45;&gt;&#45;8305476247514553090</title>
<path fill="none" stroke="black" stroke-width="1.68795" d="M638.492,-434.799C638.492,-423.163 638.492,-407.548 638.492,-394.237"/>
<polygon fill="black" stroke="black" stroke-width="1.68795" points="641.992,-394.175 638.492,-384.175 634.992,-394.175 641.992,-394.175"/>
<text text-anchor="middle" x="694.492" y="-405.8" font-family="Times New Roman,serif" font-size="14.00">967.7634940363661</text>
</g>
<!-- 3296544575651183754 -->
<g id="node4" class="node"><title>3296544575651183754</title>
<polygon fill="#ffffff" stroke="black" points="705.492,-297 571.492,-297 571.492,-261 705.492,-261 705.492,-297"/>
<text text-anchor="middle" x="638.492" y="-275.3" font-family="Times New Roman,serif" font-size="14.00">ER Sepsis Triage (1)</text>
</g>
<!-- &#45;8305476247514553090&#45;&gt;3296544575651183754 -->
<g id="edge6" class="edge"><title>&#45;8305476247514553090&#45;&gt;3296544575651183754</title>
<path fill="none" stroke="black" stroke-width="1.62678" d="M638.492,-347.799C638.492,-336.163 638.492,-320.548 638.492,-307.237"/>
<polygon fill="black" stroke="black" stroke-width="1.62678" points="641.992,-307.175 638.492,-297.175 634.992,-307.175 641.992,-307.175"/>
<text text-anchor="middle" x="694.492" y="-318.8" font-family="Times New Roman,serif" font-size="14.00">913.5509647650639</text>
</g>
<!-- &#45;8429177058128869877 -->
<g id="node6" class="node"><title>&#45;8429177058128869877</title>
<polygon fill="#ffffff" stroke="black" points="550.992,-384 435.992,-384 435.992,-348 550.992,-348 550.992,-384"/>
<text text-anchor="middle" x="493.492" y="-362.3" font-family="Times New Roman,serif" font-size="14.00">IV Antibiotics (1)</text>
</g>
<!-- &#45;8429177058128869877&#45;&gt;118450489566830562 -->
<g id="edge7" class="edge"><title>&#45;8429177058128869877&#45;&gt;118450489566830562</title>
<path fill="none" stroke="black" stroke-width="1.1475" d="M493.492,-347.799C493.492,-336.163 493.492,-320.548 493.492,-307.237"/>
<polygon fill="black" stroke="black" stroke-width="1.1475" points="496.992,-307.175 493.492,-297.175 489.992,-307.175 496.992,-307.175"/>
<text text-anchor="middle" x="549.492" y="-318.8" font-family="Times New Roman,serif" font-size="14.00">488.7999140518891</text>
</g>
<!-- 6215314419735287562 -->
<g id="node7" class="node"><title>6215314419735287562</title>
<polygon fill="#ffffff" stroke="black" points="538.492,-471 448.492,-471 448.492,-435 538.492,-435 538.492,-471"/>
<text text-anchor="middle" x="493.492" y="-449.3" font-family="Times New Roman,serif" font-size="14.00">IV Liquid (1)</text>
</g>
<!-- 6215314419735287562&#45;&gt;&#45;8429177058128869877 -->
<g id="edge8" class="edge"><title>6215314419735287562&#45;&gt;&#45;8429177058128869877</title>
<path fill="none" stroke="black" stroke-width="1.15909" d="M493.492,-434.799C493.492,-423.163 493.492,-407.548 493.492,-394.237"/>
<polygon fill="black" stroke="black" stroke-width="1.15909" points="496.992,-394.175 493.492,-384.175 489.992,-394.175 496.992,-394.175"/>
<text text-anchor="middle" x="552.992" y="-405.8" font-family="Times New Roman,serif" font-size="14.00">499.06399720395245</text>
</g>
<!-- &#45;5670009864185339888&#45;&gt;4941769122289558835 -->
<g id="edge9" class="edge"><title>&#45;5670009864185339888&#45;&gt;4941769122289558835</title>
<path fill="none" stroke="black" stroke-width="1.05507" d="M94.3505,-123.218C109.916,-135.792 130.056,-151.409 139.492,-156 168.335,-170.033 203.531,-178.976 230.47,-184.307"/>
<polygon fill="black" stroke="black" stroke-width="1.05507" points="229.884,-187.758 240.36,-186.176 231.184,-180.88 229.884,-187.758"/>
<text text-anchor="middle" x="198.992" y="-144.8" font-family="Times New Roman,serif" font-size="14.00">406.87828240114334</text>
</g>
<!-- &#45;5670009864185339888&#45;&gt;6570115252564267433 -->
<g id="edge10" class="edge"><title>&#45;5670009864185339888&#45;&gt;6570115252564267433</title>
<path fill="none" stroke="black" stroke-width="1.23586" d="M28.8477,-86.8848C12.1774,-77.9902 -0.359999,-66.3984 10.4923,-54 36.0787,-24.7682 142.42,-18.893 211.508,-18.2661"/>
<polygon fill="black" stroke="black" stroke-width="1.23586" points="211.857,-21.7643 221.838,-18.2085 211.818,-14.7644 211.857,-21.7643"/>
<text text-anchor="middle" x="63.4923" y="-57.8" font-family="Times New Roman,serif" font-size="14.00">567.103798684742</text>
</g>
<!-- 6570115252564267433&#45;&gt;4941769122289558835 -->
<g id="edge11" class="edge"><title>6570115252564267433&#45;&gt;4941769122289558835</title>
<path fill="none" stroke="black" stroke-width="2.6" d="M318.272,-36.0649C359.315,-54.2127 410.006,-85.4502 388.492,-123 372.575,-150.781 340.416,-168.313 313.988,-178.604"/>
<polygon fill="black" stroke="black" stroke-width="2.6" points="312.73,-175.337 304.552,-182.073 315.145,-181.907 312.73,-175.337"/>
<text text-anchor="middle" x="453.992" y="-101.3" font-family="Times New Roman,serif" font-size="14.00">1776.0581560648795</text>
</g>
<!-- 6570115252564267433&#45;&gt;&#45;5670009864185339888 -->
<g id="edge12" class="edge"><title>6570115252564267433&#45;&gt;&#45;5670009864185339888</title>
<path fill="none" stroke="black" stroke-width="1.0851" d="M221.898,-27.4568C196.347,-32.9202 165.364,-41.4124 139.492,-54 131.604,-57.8379 116.236,-69.3808 102.314,-80.4096"/>
<polygon fill="black" stroke="black" stroke-width="1.0851" points="99.9717,-77.801 94.3505,-86.7817 104.345,-83.2665 99.9717,-77.801"/>
<text text-anchor="middle" x="198.992" y="-57.8" font-family="Times New Roman,serif" font-size="14.00">433.49449326341926</text>
</g>
<!-- 6570115252564267433&#45;&gt;6570115252564267433 -->
<g id="edge13" class="edge"><title>6570115252564267433&#45;&gt;6570115252564267433</title>
<path fill="none" stroke="black" stroke-width="1.13967" d="M323.276,-25.5746C333.6,-24.7495 340.992,-22.2246 340.992,-18 340.992,-15.3596 338.105,-13.3832 333.418,-12.0707"/>
<polygon fill="black" stroke="black" stroke-width="1.13967" points="333.708,-8.57199 323.276,-10.4254 332.587,-15.4817 333.708,-8.57199"/>
<text text-anchor="middle" x="400.492" y="-14.3" font-family="Times New Roman,serif" font-size="14.00">481.85308171118214</text>
</g>
</g>
</svg>
