<?xml version="1.0" encoding="UTF-8" standalone="no"?>
<!DOCTYPE svg PUBLIC "-//W3C//DTD SVG 1.1//EN"
 "http://www.w3.org/Graphics/SVG/1.1/DTD/svg11.dtd">
<!-- Generated by graphviz version 2.38.0 (20140413.2041)
 -->
<!-- Title: %3 Pages: 1 -->
<svg width="777pt" height="479pt"
 viewBox="0.00 0.00 777.42 479.00" xmlns="http://www.w3.org/2000/svg" xmlns:xlink="http://www.w3.org/1999/xlink">
<g id="graph0" class="graph" transform="scale(1 1) rotate(0) translate(4 475)">
<title>%3</title>
<!-- 9118780525858573852 -->
<g id="node1" class="node"><title>9118780525858573852</title>
<polygon fill="#ffffff" stroke="black" points="564.919,-297 445.919,-297 445.919,-261 564.919,-261 564.919,-297"/>
<text text-anchor="middle" x="505.419" y="-275.3" font-family="Times New Roman,serif" font-size="14.00">Admission NC (1)</text>
</g>
<!-- 8794229938327540079 -->
<g id="node2" class="node"><title>8794229938327540079</title>
<polygon fill="#ffffff" stroke="black" points="311.419,-210 247.419,-210 247.419,-174 311.419,-174 311.419,-210"/>
<text text-anchor="middle" x="279.419" y="-188.3" font-family="Times New Roman,serif" font-size="14.00">CRP (1)</text>
</g>
<!-- 9118780525858573852&#45;&gt;8794229938327540079 -->
<g id="edge1" class="edge"><title>9118780525858573852&#45;&gt;8794229938327540079</title>
<path fill="none" stroke="black" d="M459.957,-260.901C419.437,-245.661 360.616,-223.538 321.242,-208.73"/>
<polygon fill="black" stroke="black" points="322.266,-205.375 311.674,-205.131 319.801,-211.927 322.266,-205.375"/>
<text text-anchor="middle" x="462.419" y="-231.8" font-family="Times New Roman,serif" font-size="14.00">339.0294152558751</text>
</g>
<!-- &#45;4990305070490083274 -->
<g id="node9" class="node"><title>&#45;4990305070490083274</title>
<polygon fill="#ffffff" stroke="black" points="329.919,-36 228.919,-36 228.919,-0 329.919,-0 329.919,-36"/>
<text text-anchor="middle" x="279.419" y="-14.3" font-family="Times New Roman,serif" font-size="14.00">Leucocytes (1)</text>
</g>
<!-- 9118780525858573852&#45;&gt;&#45;4990305070490083274 -->
<g id="edge2" class="edge"><title>9118780525858573852&#45;&gt;&#45;4990305070490083274</title>
<path fill="none" stroke="black" stroke-width="1.03329" d="M515.168,-260.857C534.312,-224.662 571.609,-139.472 531.419,-87 508.29,-56.8023 407.122,-36.9672 340.216,-26.8902"/>
<polygon fill="black" stroke="black" stroke-width="1.03329" points="340.601,-23.4093 330.198,-25.4153 339.582,-30.3346 340.601,-23.4093"/>
<text text-anchor="middle" x="608.919" y="-144.8" font-family="Times New Roman,serif" font-size="14.00">368.67116776378185</text>
</g>
<!-- 5659693541288529527 -->
<g id="node8" class="node"><title>5659693541288529527</title>
<polygon fill="#ffffff" stroke="black" points="126.419,-123 28.4194,-123 28.4194,-87 126.419,-87 126.419,-123"/>
<text text-anchor="middle" x="77.4194" y="-101.3" font-family="Times New Roman,serif" font-size="14.00">LacticAcid (1)</text>
</g>
<!-- 8794229938327540079&#45;&gt;5659693541288529527 -->
<g id="edge3" class="edge"><title>8794229938327540079&#45;&gt;5659693541288529527</title>
<path fill="none" stroke="black" stroke-width="1.2879" d="M247.155,-191.828C182.737,-192.715 41.757,-190.557 11.4194,-156 2.31719,-145.632 9.31668,-136.01 21.6239,-128.032"/>
<polygon fill="black" stroke="black" stroke-width="1.2879" points="23.4184,-131.038 30.3621,-123.036 19.9437,-124.961 23.4184,-131.038"/>
<text text-anchor="middle" x="67.4194" y="-144.8" font-family="Times New Roman,serif" font-size="14.00">595.3840452060697</text>
</g>
<!-- 8794229938327540079&#45;&gt;&#45;4990305070490083274 -->
<g id="edge4" class="edge"><title>8794229938327540079&#45;&gt;&#45;4990305070490083274</title>
<path fill="none" stroke="black" stroke-width="2.22328" d="M279.419,-173.879C279.419,-144.001 279.419,-82.1129 279.419,-46.2736"/>
<polygon fill="black" stroke="black" stroke-width="2.22328" points="282.92,-46.0516 279.419,-36.0516 275.92,-46.0516 282.92,-46.0516"/>
<text text-anchor="middle" x="338.919" y="-101.3" font-family="Times New Roman,serif" font-size="14.00">1428.2619403286105</text>
</g>
<!-- 4941573644585563234 -->
<g id="node3" class="node"><title>4941573644585563234</title>
<polygon fill="#ffffff" stroke="black" points="712.919,-471 587.919,-471 587.919,-435 712.919,-435 712.919,-471"/>
<text text-anchor="middle" x="650.419" y="-449.3" font-family="Times New Roman,serif" font-size="14.00">ER Registration (1)</text>
</g>
<!-- 7781181950460006610 -->
<g id="node5" class="node"><title>7781181950460006610</title>
<polygon fill="#ffffff" stroke="black" points="696.919,-384 603.919,-384 603.919,-348 696.919,-348 696.919,-384"/>
<text text-anchor="middle" x="650.419" y="-362.3" font-family="Times New Roman,serif" font-size="14.00">ER Triage (1)</text>
</g>
<!-- 4941573644585563234&#45;&gt;7781181950460006610 -->
<g id="edge5" class="edge"><title>4941573644585563234&#45;&gt;7781181950460006610</title>
<path fill="none" stroke="black" stroke-width="1.75082" d="M650.419,-434.799C650.419,-423.163 650.419,-407.548 650.419,-394.237"/>
<polygon fill="black" stroke="black" stroke-width="1.75082" points="653.92,-394.175 650.419,-384.175 646.92,-394.175 653.92,-394.175"/>
<text text-anchor="middle" x="709.919" y="-405.8" font-family="Times New Roman,serif" font-size="14.00">1007.5768152814018</text>
</g>
<!-- &#45;1916228938975785919 -->
<g id="node4" class="node"><title>&#45;1916228938975785919</title>
<polygon fill="#ffffff" stroke="black" points="717.419,-297 583.419,-297 583.419,-261 717.419,-261 717.419,-297"/>
<text text-anchor="middle" x="650.419" y="-275.3" font-family="Times New Roman,serif" font-size="14.00">ER Sepsis Triage (1)</text>
</g>
<!-- 7781181950460006610&#45;&gt;&#45;1916228938975785919 -->
<g id="edge6" class="edge"><title>7781181950460006610&#45;&gt;&#45;1916228938975785919</title>
<path fill="none" stroke="black" stroke-width="1.67031" d="M650.419,-347.799C650.419,-336.163 650.419,-320.548 650.419,-307.237"/>
<polygon fill="black" stroke="black" stroke-width="1.67031" points="653.92,-307.175 650.419,-297.175 646.92,-307.175 653.92,-307.175"/>
<text text-anchor="middle" x="703.419" y="-318.8" font-family="Times New Roman,serif" font-size="14.00">935.890794013007</text>
</g>
<!-- 1341266047991071662 -->
<g id="node6" class="node"><title>1341266047991071662</title>
<polygon fill="#ffffff" stroke="black" points="562.919,-384 447.919,-384 447.919,-348 562.919,-348 562.919,-384"/>
<text text-anchor="middle" x="505.419" y="-362.3" font-family="Times New Roman,serif" font-size="14.00">IV Antibiotics (1)</text>
</g>
<!-- 1341266047991071662&#45;&gt;9118780525858573852 -->
<g id="edge7" class="edge"><title>1341266047991071662&#45;&gt;9118780525858573852</title>
<path fill="none" stroke="black" stroke-width="1.23481" d="M505.419,-347.799C505.419,-336.163 505.419,-320.548 505.419,-307.237"/>
<polygon fill="black" stroke="black" stroke-width="1.23481" points="508.92,-307.175 505.419,-297.175 501.92,-307.175 508.92,-307.175"/>
<text text-anchor="middle" x="561.419" y="-318.8" font-family="Times New Roman,serif" font-size="14.00">548.1095851666037</text>
</g>
<!-- 1513237216211266658 -->
<g id="node7" class="node"><title>1513237216211266658</title>
<polygon fill="#ffffff" stroke="black" points="550.419,-471 460.419,-471 460.419,-435 550.419,-435 550.419,-471"/>
<text text-anchor="middle" x="505.419" y="-449.3" font-family="Times New Roman,serif" font-size="14.00">IV Liquid (1)</text>
</g>
<!-- 1513237216211266658&#45;&gt;1341266047991071662 -->
<g id="edge8" class="edge"><title>1513237216211266658&#45;&gt;1341266047991071662</title>
<path fill="none" stroke="black" stroke-width="1.1644" d="M505.419,-434.799C505.419,-423.163 505.419,-407.548 505.419,-394.237"/>
<polygon fill="black" stroke="black" stroke-width="1.1644" points="508.92,-394.175 505.419,-384.175 501.92,-394.175 508.92,-394.175"/>
<text text-anchor="middle" x="564.919" y="-405.8" font-family="Times New Roman,serif" font-size="14.00">485.41314841174545</text>
</g>
<!-- 5659693541288529527&#45;&gt;8794229938327540079 -->
<g id="edge9" class="edge"><title>5659693541288529527&#45;&gt;8794229938327540079</title>
<path fill="none" stroke="black" stroke-width="1.06585" d="M100.173,-123.128C118.273,-136.644 141.372,-153.61 146.419,-156 175.409,-169.726 210.598,-178.684 237.497,-184.099"/>
<polygon fill="black" stroke="black" stroke-width="1.06585" points="236.888,-187.546 247.37,-186.003 238.214,-180.673 236.888,-187.546"/>
<text text-anchor="middle" x="205.919" y="-144.8" font-family="Times New Roman,serif" font-size="14.00">397.66454591681014</text>
</g>
<!-- 5659693541288529527&#45;&gt;&#45;4990305070490083274 -->
<g id="edge10" class="edge"><title>5659693541288529527&#45;&gt;&#45;4990305070490083274</title>
<path fill="none" stroke="black" stroke-width="1.1916" d="M28.1732,-88.8031C8.03089,-80.0783 -7.96763,-68.0635 4.41943,-54 18.3476,-38.1868 141.927,-27.629 218.608,-22.537"/>
<polygon fill="black" stroke="black" stroke-width="1.1916" points="218.887,-26.0263 228.638,-21.8842 218.432,-19.0411 218.887,-26.0263"/>
<text text-anchor="middle" x="63.9194" y="-57.8" font-family="Times New Roman,serif" font-size="14.00">509.63399842919125</text>
</g>
<!-- &#45;4990305070490083274&#45;&gt;8794229938327540079 -->
<g id="edge11" class="edge"><title>&#45;4990305070490083274&#45;&gt;8794229938327540079</title>
<path fill="none" stroke="black" stroke-width="2.6" d="M329.153,-36.1523C372.421,-54.0524 424.937,-84.8222 402.419,-123 385.011,-152.517 349.684,-170.113 321.339,-179.985"/>
<polygon fill="black" stroke="black" stroke-width="2.6" points="320.058,-176.721 311.645,-183.161 322.238,-183.373 320.058,-176.721"/>
<text text-anchor="middle" x="467.919" y="-101.3" font-family="Times New Roman,serif" font-size="14.00">1763.7030314685524</text>
</g>
<!-- &#45;4990305070490083274&#45;&gt;5659693541288529527 -->
<g id="edge12" class="edge"><title>&#45;4990305070490083274&#45;&gt;5659693541288529527</title>
<path fill="none" stroke="black" stroke-width="1.05904" d="M228.619,-27.7575C203.157,-33.2825 172.315,-41.7392 146.419,-54 142.121,-56.0351 124.733,-68.6405 108.488,-80.684"/>
<polygon fill="black" stroke="black" stroke-width="1.05904" points="106.106,-78.0939 100.173,-86.8719 110.285,-83.7096 106.106,-78.0939"/>
<text text-anchor="middle" x="205.919" y="-57.8" font-family="Times New Roman,serif" font-size="14.00">391.60048210956813</text>
</g>
<!-- &#45;4990305070490083274&#45;&gt;&#45;4990305070490083274 -->
<g id="edge13" class="edge"><title>&#45;4990305070490083274&#45;&gt;&#45;4990305070490083274</title>
<path fill="none" stroke="black" stroke-width="1.15049" d="M330.203,-25.5746C340.527,-24.7495 347.919,-22.2246 347.919,-18 347.919,-15.3596 345.032,-13.3832 340.346,-12.0707"/>
<polygon fill="black" stroke="black" stroke-width="1.15049" points="340.635,-8.57199 330.203,-10.4254 339.514,-15.4817 340.635,-8.57199"/>
<text text-anchor="middle" x="403.919" y="-14.3" font-family="Times New Roman,serif" font-size="14.00">473.0291842237046</text>
</g>
</g>
</svg>
