<?xml version="1.0" encoding="UTF-8" standalone="no"?>
<!DOCTYPE svg PUBLIC "-//W3C//DTD SVG 1.1//EN"
 "http://www.w3.org/Graphics/SVG/1.1/DTD/svg11.dtd">
<!-- Generated by graphviz version 2.38.0 (20140413.2041)
 -->
<!-- Title: %3 Pages: 1 -->
<svg width="541pt" height="935pt"
 viewBox="0.00 0.00 541.00 935.00" xmlns="http://www.w3.org/2000/svg" xmlns:xlink="http://www.w3.org/1999/xlink">
<g id="graph0" class="graph" transform="scale(1 1) rotate(0) translate(4 931)">
<title>%3</title>
<!-- 8963278896705096053 -->
<g id="node1" class="node"><title>8963278896705096053</title>
<polygon fill="#ffffff" stroke="black" points="270.5,-492 156.5,-492 156.5,-456 270.5,-456 270.5,-492"/>
<text text-anchor="middle" x="213.5" y="-470.3" font-family="Times New Roman,serif" font-size="14.00">Admission IC (1)</text>
</g>
<!-- &#45;1770100704793462421 -->
<g id="node9" class="node"><title>&#45;1770100704793462421</title>
<polygon fill="#ffffff" stroke="black" points="263.5,-384 165.5,-384 165.5,-348 263.5,-348 263.5,-384"/>
<text text-anchor="middle" x="214.5" y="-362.3" font-family="Times New Roman,serif" font-size="14.00">LacticAcid (1)</text>
</g>
<!-- 8963278896705096053&#45;&gt;&#45;1770100704793462421 -->
<g id="edge1" class="edge"><title>8963278896705096053&#45;&gt;&#45;1770100704793462421</title>
<path fill="none" stroke="black" stroke-width="1.03423" d="M210.572,-455.962C209.725,-450.269 208.918,-443.878 208.5,-438 207.366,-422.04 207.143,-417.942 208.5,-402 208.72,-399.42 209.029,-396.745 209.392,-394.074"/>
<polygon fill="black" stroke="black" stroke-width="1.03423" points="212.877,-394.44 210.986,-384.015 205.964,-393.344 212.877,-394.44"/>
<text text-anchor="middle" x="221" y="-416.3" font-family="Times New Roman,serif" font-size="14.00">41.0</text>
</g>
<!-- 2977339776669527986 -->
<g id="node2" class="node"><title>2977339776669527986</title>
<polygon fill="#ffffff" stroke="black" points="362,-438 243,-438 243,-402 362,-402 362,-438"/>
<text text-anchor="middle" x="302.5" y="-416.3" font-family="Times New Roman,serif" font-size="14.00">Admission NC (1)</text>
</g>
<!-- &#45;5611732413124564962 -->
<g id="node10" class="node"><title>&#45;5611732413124564962</title>
<polygon fill="#ffffff" stroke="black" points="318,-297 217,-297 217,-261 318,-261 318,-297"/>
<text text-anchor="middle" x="267.5" y="-275.3" font-family="Times New Roman,serif" font-size="14.00">Leucocytes (1)</text>
</g>
<!-- 2977339776669527986&#45;&gt;&#45;5611732413124564962 -->
<g id="edge2" class="edge"><title>2977339776669527986&#45;&gt;&#45;5611732413124564962</title>
<path fill="none" stroke="black" stroke-width="1.36486" d="M299.337,-401.921C295.357,-381.195 288.005,-345.264 279.5,-315 278.76,-312.366 277.934,-309.64 277.071,-306.924"/>
<polygon fill="black" stroke="black" stroke-width="1.36486" points="280.354,-305.706 273.872,-297.325 273.713,-307.919 280.354,-305.706"/>
<text text-anchor="middle" x="311" y="-362.3" font-family="Times New Roman,serif" font-size="14.00">408.0</text>
</g>
<!-- 7679212782896214053 -->
<g id="node3" class="node"><title>7679212782896214053</title>
<polygon fill="#ffffff" stroke="black" points="299.5,-210 235.5,-210 235.5,-174 299.5,-174 299.5,-210"/>
<text text-anchor="middle" x="267.5" y="-188.3" font-family="Times New Roman,serif" font-size="14.00">CRP (1)</text>
</g>
<!-- 7501036634296831306 -->
<g id="node11" class="node"><title>7501036634296831306</title>
<polygon fill="#ffffff" stroke="black" points="93.5,-123 1.5,-123 1.5,-87 93.5,-87 93.5,-123"/>
<text text-anchor="middle" x="47.5" y="-101.3" font-family="Times New Roman,serif" font-size="14.00">Release A (1)</text>
</g>
<!-- 7679212782896214053&#45;&gt;7501036634296831306 -->
<g id="edge3" class="edge"><title>7679212782896214053&#45;&gt;7501036634296831306</title>
<path fill="none" stroke="black" stroke-width="1.28739" d="M235.4,-179.602C216.699,-172.886 192.699,-164.136 171.5,-156 147.229,-146.685 120.46,-135.95 98.0256,-126.821"/>
<polygon fill="black" stroke="black" stroke-width="1.28739" points="99.2772,-123.552 88.6959,-123.016 96.6335,-130.033 99.2772,-123.552"/>
<text text-anchor="middle" x="187" y="-144.8" font-family="Times New Roman,serif" font-size="14.00">322.0</text>
</g>
<!-- &#45;6340682542539990592 -->
<g id="node12" class="node"><title>&#45;6340682542539990592</title>
<polygon fill="#ffffff" stroke="black" points="203.5,-123 111.5,-123 111.5,-87 203.5,-87 203.5,-123"/>
<text text-anchor="middle" x="157.5" y="-101.3" font-family="Times New Roman,serif" font-size="14.00">Release B (1)</text>
</g>
<!-- 7679212782896214053&#45;&gt;&#45;6340682542539990592 -->
<g id="edge4" class="edge"><title>7679212782896214053&#45;&gt;&#45;6340682542539990592</title>
<path fill="none" stroke="black" stroke-width="1.01441" d="M245.24,-173.799C228.69,-161.01 205.922,-143.417 187.727,-129.357"/>
<polygon fill="black" stroke="black" stroke-width="1.01441" points="189.78,-126.52 179.727,-123.175 185.5,-132.059 189.78,-126.52"/>
<text text-anchor="middle" x="232" y="-144.8" font-family="Times New Roman,serif" font-size="14.00">19.0</text>
</g>
<!-- 5100329308523102100 -->
<g id="node13" class="node"><title>5100329308523102100</title>
<polygon fill="#ffffff" stroke="black" points="313.5,-123 221.5,-123 221.5,-87 313.5,-87 313.5,-123"/>
<text text-anchor="middle" x="267.5" y="-101.3" font-family="Times New Roman,serif" font-size="14.00">Release C (1)</text>
</g>
<!-- 7679212782896214053&#45;&gt;5100329308523102100 -->
<g id="edge5" class="edge"><title>7679212782896214053&#45;&gt;5100329308523102100</title>
<path fill="none" stroke="black" stroke-width="1.00901" d="M267.5,-173.799C267.5,-162.163 267.5,-146.548 267.5,-133.237"/>
<polygon fill="black" stroke="black" stroke-width="1.00901" points="271,-133.175 267.5,-123.175 264,-133.175 271,-133.175"/>
<text text-anchor="middle" x="280" y="-144.8" font-family="Times New Roman,serif" font-size="14.00">13.0</text>
</g>
<!-- &#45;120078133699724699 -->
<g id="node14" class="node"><title>&#45;120078133699724699</title>
<polygon fill="#ffffff" stroke="black" points="423.5,-123 331.5,-123 331.5,-87 423.5,-87 423.5,-123"/>
<text text-anchor="middle" x="377.5" y="-101.3" font-family="Times New Roman,serif" font-size="14.00">Release D (1)</text>
</g>
<!-- 7679212782896214053&#45;&gt;&#45;120078133699724699 -->
<g id="edge6" class="edge"><title>7679212782896214053&#45;&gt;&#45;120078133699724699</title>
<path fill="none" stroke="black" stroke-width="1.00811" d="M289.76,-173.799C306.31,-161.01 329.078,-143.417 347.273,-129.357"/>
<polygon fill="black" stroke="black" stroke-width="1.00811" points="349.5,-132.059 355.273,-123.175 345.22,-126.52 349.5,-132.059"/>
<text text-anchor="middle" x="342" y="-144.8" font-family="Times New Roman,serif" font-size="14.00">12.0</text>
</g>
<!-- &#45;5046209493808074049 -->
<g id="node15" class="node"><title>&#45;5046209493808074049</title>
<polygon fill="#ffffff" stroke="black" points="533,-123 442,-123 442,-87 533,-87 533,-123"/>
<text text-anchor="middle" x="487.5" y="-101.3" font-family="Times New Roman,serif" font-size="14.00">Release E (1)</text>
</g>
<!-- 7679212782896214053&#45;&gt;&#45;5046209493808074049 -->
<g id="edge7" class="edge"><title>7679212782896214053&#45;&gt;&#45;5046209493808074049</title>
<path fill="none" stroke="black" d="M299.515,-178.71C316.957,-172.008 338.92,-163.56 358.5,-156 383.413,-146.381 411.018,-135.686 434.278,-126.664"/>
<polygon fill="black" stroke="black" points="435.569,-129.918 443.626,-123.038 433.037,-123.392 435.569,-129.918"/>
<text text-anchor="middle" x="403.5" y="-144.8" font-family="Times New Roman,serif" font-size="14.00">3.0</text>
</g>
<!-- 2210185205199943469 -->
<g id="node4" class="node"><title>2210185205199943469</title>
<polygon fill="#ffffff" stroke="black" points="336,-927 211,-927 211,-891 336,-891 336,-927"/>
<text text-anchor="middle" x="273.5" y="-905.3" font-family="Times New Roman,serif" font-size="14.00">ER Registration (1)</text>
</g>
<!-- 6273081528733313447 -->
<g id="node6" class="node"><title>6273081528733313447</title>
<polygon fill="#ffffff" stroke="black" points="320,-840 227,-840 227,-804 320,-804 320,-840"/>
<text text-anchor="middle" x="273.5" y="-818.3" font-family="Times New Roman,serif" font-size="14.00">ER Triage (1)</text>
</g>
<!-- 2210185205199943469&#45;&gt;6273081528733313447 -->
<g id="edge8" class="edge"><title>2210185205199943469&#45;&gt;6273081528733313447</title>
<path fill="none" stroke="black" stroke-width="1.87207" d="M273.5,-890.799C273.5,-879.163 273.5,-863.548 273.5,-850.237"/>
<polygon fill="black" stroke="black" stroke-width="1.87207" points="277,-850.175 273.5,-840.175 270,-850.175 277,-850.175"/>
<text text-anchor="middle" x="289" y="-861.8" font-family="Times New Roman,serif" font-size="14.00">971.0</text>
</g>
<!-- &#45;7210516163256051069 -->
<g id="node5" class="node"><title>&#45;7210516163256051069</title>
<polygon fill="#ffffff" stroke="black" points="340.5,-753 206.5,-753 206.5,-717 340.5,-717 340.5,-753"/>
<text text-anchor="middle" x="273.5" y="-731.3" font-family="Times New Roman,serif" font-size="14.00">ER Sepsis Triage (1)</text>
</g>
<!-- 3582818912156600619 -->
<g id="node8" class="node"><title>3582818912156600619</title>
<polygon fill="#ffffff" stroke="black" points="318.5,-666 228.5,-666 228.5,-630 318.5,-630 318.5,-666"/>
<text text-anchor="middle" x="273.5" y="-644.3" font-family="Times New Roman,serif" font-size="14.00">IV Liquid (1)</text>
</g>
<!-- &#45;7210516163256051069&#45;&gt;3582818912156600619 -->
<g id="edge9" class="edge"><title>&#45;7210516163256051069&#45;&gt;3582818912156600619</title>
<path fill="none" stroke="black" stroke-width="1.25405" d="M273.5,-716.799C273.5,-705.163 273.5,-689.548 273.5,-676.237"/>
<polygon fill="black" stroke="black" stroke-width="1.25405" points="277,-676.175 273.5,-666.175 270,-676.175 277,-676.175"/>
<text text-anchor="middle" x="289" y="-687.8" font-family="Times New Roman,serif" font-size="14.00">285.0</text>
</g>
<!-- 6273081528733313447&#45;&gt;&#45;7210516163256051069 -->
<g id="edge10" class="edge"><title>6273081528733313447&#45;&gt;&#45;7210516163256051069</title>
<path fill="none" stroke="black" stroke-width="1.81261" d="M273.5,-803.799C273.5,-792.163 273.5,-776.548 273.5,-763.237"/>
<polygon fill="black" stroke="black" stroke-width="1.81261" points="277,-763.175 273.5,-753.175 270,-763.175 277,-763.175"/>
<text text-anchor="middle" x="289" y="-774.8" font-family="Times New Roman,serif" font-size="14.00">905.0</text>
</g>
<!-- 4276296693130101765 -->
<g id="node7" class="node"><title>4276296693130101765</title>
<polygon fill="#ffffff" stroke="black" points="331,-579 216,-579 216,-543 331,-543 331,-579"/>
<text text-anchor="middle" x="273.5" y="-557.3" font-family="Times New Roman,serif" font-size="14.00">IV Antibiotics (1)</text>
</g>
<!-- 4276296693130101765&#45;&gt;8963278896705096053 -->
<g id="edge11" class="edge"><title>4276296693130101765&#45;&gt;8963278896705096053</title>
<path fill="none" stroke="black" stroke-width="1.03874" d="M261.358,-542.799C252.819,-530.702 241.245,-514.305 231.618,-500.667"/>
<polygon fill="black" stroke="black" stroke-width="1.03874" points="234.25,-498.327 225.624,-492.175 228.531,-502.364 234.25,-498.327"/>
<text text-anchor="middle" x="260" y="-513.8" font-family="Times New Roman,serif" font-size="14.00">46.0</text>
</g>
<!-- 4276296693130101765&#45;&gt;2977339776669527986 -->
<g id="edge12" class="edge"><title>4276296693130101765&#45;&gt;2977339776669527986</title>
<path fill="none" stroke="black" stroke-width="1.43784" d="M277.056,-542.956C281.991,-519.3 290.971,-476.26 296.835,-448.153"/>
<polygon fill="black" stroke="black" stroke-width="1.43784" points="300.299,-448.688 298.915,-438.184 293.446,-447.258 300.299,-448.688"/>
<text text-anchor="middle" x="300" y="-513.8" font-family="Times New Roman,serif" font-size="14.00">489.0</text>
</g>
<!-- 3582818912156600619&#45;&gt;4276296693130101765 -->
<g id="edge13" class="edge"><title>3582818912156600619&#45;&gt;4276296693130101765</title>
<path fill="none" stroke="black" stroke-width="1.44865" d="M273.5,-629.799C273.5,-618.163 273.5,-602.548 273.5,-589.237"/>
<polygon fill="black" stroke="black" stroke-width="1.44865" points="277,-589.175 273.5,-579.175 270,-589.175 277,-589.175"/>
<text text-anchor="middle" x="289" y="-600.8" font-family="Times New Roman,serif" font-size="14.00">501.0</text>
</g>
<!-- &#45;1770100704793462421&#45;&gt;&#45;5611732413124564962 -->
<g id="edge14" class="edge"><title>&#45;1770100704793462421&#45;&gt;&#45;5611732413124564962</title>
<path fill="none" stroke="black" stroke-width="1.50631" d="M225.225,-347.799C232.768,-335.702 242.992,-319.305 251.496,-305.667"/>
<polygon fill="black" stroke="black" stroke-width="1.50631" points="254.47,-307.513 256.791,-297.175 248.53,-303.809 254.47,-307.513"/>
<text text-anchor="middle" x="260" y="-318.8" font-family="Times New Roman,serif" font-size="14.00">565.0</text>
</g>
<!-- &#45;5611732413124564962&#45;&gt;7679212782896214053 -->
<g id="edge15" class="edge"><title>&#45;5611732413124564962&#45;&gt;7679212782896214053</title>
<path fill="none" stroke="black" stroke-width="2.6" d="M267.5,-260.799C267.5,-249.163 267.5,-233.548 267.5,-220.237"/>
<polygon fill="black" stroke="black" stroke-width="2.6" points="271,-220.175 267.5,-210.175 264,-220.175 271,-220.175"/>
<text text-anchor="middle" x="286.5" y="-231.8" font-family="Times New Roman,serif" font-size="14.00">1779.0</text>
</g>
<!-- 7514097482190291457 -->
<g id="node16" class="node"><title>7514097482190291457</title>
<polygon fill="#ffffff" stroke="black" points="95,-36 0,-36 0,-0 95,-0 95,-36"/>
<text text-anchor="middle" x="47.5" y="-14.3" font-family="Times New Roman,serif" font-size="14.00">Return ER (1)</text>
</g>
<!-- 7501036634296831306&#45;&gt;7514097482190291457 -->
<g id="edge16" class="edge"><title>7501036634296831306&#45;&gt;7514097482190291457</title>
<path fill="none" stroke="black" stroke-width="1.24595" d="M47.5,-86.799C47.5,-75.1626 47.5,-59.5479 47.5,-46.2368"/>
<polygon fill="black" stroke="black" stroke-width="1.24595" points="51.0001,-46.1754 47.5,-36.1754 44.0001,-46.1755 51.0001,-46.1754"/>
<text text-anchor="middle" x="63" y="-57.8" font-family="Times New Roman,serif" font-size="14.00">276.0</text>
</g>
</g>
</svg>
