<?xml version="1.0" encoding="UTF-8" standalone="no"?>
<!DOCTYPE svg PUBLIC "-//W3C//DTD SVG 1.1//EN"
 "http://www.w3.org/Graphics/SVG/1.1/DTD/svg11.dtd">
<!-- Generated by graphviz version 2.38.0 (20140413.2041)
 -->
<!-- Title: %3 Pages: 1 -->
<svg width="757pt" height="479pt"
 viewBox="0.00 0.00 757.34 479.00" xmlns="http://www.w3.org/2000/svg" xmlns:xlink="http://www.w3.org/1999/xlink">
<g id="graph0" class="graph" transform="scale(1 1) rotate(0) translate(4 475)">
<title>%3</title>
<!-- 9118780525858573852 -->
<g id="node1" class="node"><title>9118780525858573852</title>
<polygon fill="#ffffff" stroke="black" points="551.842,-297 432.842,-297 432.842,-261 551.842,-261 551.842,-297"/>
<text text-anchor="middle" x="492.342" y="-275.3" font-family="Times New Roman,serif" font-size="14.00">Admission NC (1)</text>
</g>
<!-- 8794229938327540079 -->
<g id="node2" class="node"><title>8794229938327540079</title>
<polygon fill="#ffffff" stroke="black" points="298.342,-210 234.342,-210 234.342,-174 298.342,-174 298.342,-210"/>
<text text-anchor="middle" x="266.342" y="-188.3" font-family="Times New Roman,serif" font-size="14.00">CRP (1)</text>
</g>
<!-- 9118780525858573852&#45;&gt;8794229938327540079 -->
<g id="edge1" class="edge"><title>9118780525858573852&#45;&gt;8794229938327540079</title>
<path fill="none" stroke="black" d="M446.879,-260.901C406.359,-245.661 347.538,-223.538 308.164,-208.73"/>
<polygon fill="black" stroke="black" points="309.188,-205.375 298.596,-205.131 306.723,-211.927 309.188,-205.375"/>
<text text-anchor="middle" x="452.842" y="-231.8" font-family="Times New Roman,serif" font-size="14.00">367.28650274697986</text>
</g>
<!-- &#45;4990305070490083274 -->
<g id="node9" class="node"><title>&#45;4990305070490083274</title>
<polygon fill="#ffffff" stroke="black" points="316.842,-36 215.842,-36 215.842,-0 316.842,-0 316.842,-36"/>
<text text-anchor="middle" x="266.342" y="-14.3" font-family="Times New Roman,serif" font-size="14.00">Leucocytes (1)</text>
</g>
<!-- 9118780525858573852&#45;&gt;&#45;4990305070490083274 -->
<g id="edge2" class="edge"><title>9118780525858573852&#45;&gt;&#45;4990305070490083274</title>
<path fill="none" stroke="black" stroke-width="1.04529" d="M506.986,-260.905C510.761,-255.518 514.326,-249.317 516.342,-243 537.419,-176.942 560.504,-142.048 518.342,-87 495.212,-56.8023 394.044,-36.9672 327.138,-26.8902"/>
<polygon fill="black" stroke="black" stroke-width="1.04529" points="327.523,-23.4093 317.12,-25.4153 326.504,-30.3346 327.523,-23.4093"/>
<text text-anchor="middle" x="601.842" y="-144.8" font-family="Times New Roman,serif" font-size="14.00">407.19725670307355</text>
</g>
<!-- 5659693541288529527 -->
<g id="node8" class="node"><title>5659693541288529527</title>
<polygon fill="#ffffff" stroke="black" points="117.342,-123 19.3415,-123 19.3415,-87 117.342,-87 117.342,-123"/>
<text text-anchor="middle" x="68.3415" y="-101.3" font-family="Times New Roman,serif" font-size="14.00">LacticAcid (1)</text>
</g>
<!-- 8794229938327540079&#45;&gt;5659693541288529527 -->
<g id="edge3" class="edge"><title>8794229938327540079&#45;&gt;5659693541288529527</title>
<path fill="none" stroke="black" stroke-width="1.29545" d="M234.309,-191.715C171.103,-192.366 33.8862,-189.754 4.34154,-156 -4.56205,-145.828 2.17993,-136.262 14.0974,-128.275"/>
<polygon fill="black" stroke="black" stroke-width="1.29545" points="16.2023,-131.097 23.0461,-123.01 12.6524,-125.064 16.2023,-131.097"/>
<text text-anchor="middle" x="57.3415" y="-144.8" font-family="Times New Roman,serif" font-size="14.00">627.626076143278</text>
</g>
<!-- 8794229938327540079&#45;&gt;&#45;4990305070490083274 -->
<g id="edge4" class="edge"><title>8794229938327540079&#45;&gt;&#45;4990305070490083274</title>
<path fill="none" stroke="black" stroke-width="2.22762" d="M266.342,-173.879C266.342,-144.001 266.342,-82.1129 266.342,-46.2736"/>
<polygon fill="black" stroke="black" stroke-width="2.22762" points="269.842,-46.0516 266.342,-36.0516 262.842,-46.0516 269.842,-46.0516"/>
<text text-anchor="middle" x="325.842" y="-101.3" font-family="Times New Roman,serif" font-size="14.00">1449.0341683564882</text>
</g>
<!-- 4941573644585563234 -->
<g id="node3" class="node"><title>4941573644585563234</title>
<polygon fill="#ffffff" stroke="black" points="699.842,-471 574.842,-471 574.842,-435 699.842,-435 699.842,-471"/>
<text text-anchor="middle" x="637.342" y="-449.3" font-family="Times New Roman,serif" font-size="14.00">ER Registration (1)</text>
</g>
<!-- 7781181950460006610 -->
<g id="node5" class="node"><title>7781181950460006610</title>
<polygon fill="#ffffff" stroke="black" points="683.842,-384 590.842,-384 590.842,-348 683.842,-348 683.842,-384"/>
<text text-anchor="middle" x="637.342" y="-362.3" font-family="Times New Roman,serif" font-size="14.00">ER Triage (1)</text>
</g>
<!-- 4941573644585563234&#45;&gt;7781181950460006610 -->
<g id="edge5" class="edge"><title>4941573644585563234&#45;&gt;7781181950460006610</title>
<path fill="none" stroke="black" stroke-width="1.68625" d="M637.342,-434.799C637.342,-423.163 637.342,-407.548 637.342,-394.237"/>
<polygon fill="black" stroke="black" stroke-width="1.68625" points="640.842,-394.175 637.342,-384.175 633.842,-394.175 640.842,-394.175"/>
<text text-anchor="middle" x="693.342" y="-405.8" font-family="Times New Roman,serif" font-size="14.00">971.9893565194973</text>
</g>
<!-- &#45;1916228938975785919 -->
<g id="node4" class="node"><title>&#45;1916228938975785919</title>
<polygon fill="#ffffff" stroke="black" points="704.342,-297 570.342,-297 570.342,-261 704.342,-261 704.342,-297"/>
<text text-anchor="middle" x="637.342" y="-275.3" font-family="Times New Roman,serif" font-size="14.00">ER Sepsis Triage (1)</text>
</g>
<!-- 7781181950460006610&#45;&gt;&#45;1916228938975785919 -->
<g id="edge6" class="edge"><title>7781181950460006610&#45;&gt;&#45;1916228938975785919</title>
<path fill="none" stroke="black" stroke-width="1.6116" d="M637.342,-347.799C637.342,-336.163 637.342,-320.548 637.342,-307.237"/>
<polygon fill="black" stroke="black" stroke-width="1.6116" points="640.842,-307.175 637.342,-297.175 633.842,-307.175 640.842,-307.175"/>
<text text-anchor="middle" x="693.342" y="-318.8" font-family="Times New Roman,serif" font-size="14.00">906.2111580729369</text>
</g>
<!-- 1341266047991071662 -->
<g id="node6" class="node"><title>1341266047991071662</title>
<polygon fill="#ffffff" stroke="black" points="549.842,-384 434.842,-384 434.842,-348 549.842,-348 549.842,-384"/>
<text text-anchor="middle" x="492.342" y="-362.3" font-family="Times New Roman,serif" font-size="14.00">IV Antibiotics (1)</text>
</g>
<!-- 1341266047991071662&#45;&gt;9118780525858573852 -->
<g id="edge7" class="edge"><title>1341266047991071662&#45;&gt;9118780525858573852</title>
<path fill="none" stroke="black" stroke-width="1.14006" d="M492.342,-347.799C492.342,-336.163 492.342,-320.548 492.342,-307.237"/>
<polygon fill="black" stroke="black" stroke-width="1.14006" points="495.842,-307.175 492.342,-297.175 488.842,-307.175 495.842,-307.175"/>
<text text-anchor="middle" x="548.342" y="-318.8" font-family="Times New Roman,serif" font-size="14.00">490.7012459358987</text>
</g>
<!-- 1513237216211266658 -->
<g id="node7" class="node"><title>1513237216211266658</title>
<polygon fill="#ffffff" stroke="black" points="537.342,-471 447.342,-471 447.342,-435 537.342,-435 537.342,-471"/>
<text text-anchor="middle" x="492.342" y="-449.3" font-family="Times New Roman,serif" font-size="14.00">IV Liquid (1)</text>
</g>
<!-- 1513237216211266658&#45;&gt;1341266047991071662 -->
<g id="edge8" class="edge"><title>1513237216211266658&#45;&gt;1341266047991071662</title>
<path fill="none" stroke="black" stroke-width="1.1511" d="M492.342,-434.799C492.342,-423.163 492.342,-407.548 492.342,-394.237"/>
<polygon fill="black" stroke="black" stroke-width="1.1511" points="495.842,-394.175 492.342,-384.175 488.842,-394.175 495.842,-394.175"/>
<text text-anchor="middle" x="548.342" y="-405.8" font-family="Times New Roman,serif" font-size="14.00">500.4279585493506</text>
</g>
<!-- 5659693541288529527&#45;&gt;8794229938327540079 -->
<g id="edge9" class="edge"><title>5659693541288529527&#45;&gt;8794229938327540079</title>
<path fill="none" stroke="black" stroke-width="1.03867" d="M88.8641,-123.224C104.183,-135.8 124.013,-151.419 133.342,-156 162.132,-170.139 197.331,-179.077 224.284,-184.379"/>
<polygon fill="black" stroke="black" stroke-width="1.03867" points="223.706,-187.832 234.18,-186.236 224.997,-180.952 223.706,-187.832"/>
<text text-anchor="middle" x="192.842" y="-144.8" font-family="Times New Roman,serif" font-size="14.00">401.36069647060776</text>
</g>
<!-- 5659693541288529527&#45;&gt;&#45;4990305070490083274 -->
<g id="edge10" class="edge"><title>5659693541288529527&#45;&gt;&#45;4990305070490083274</title>
<path fill="none" stroke="black" stroke-width="1.22767" d="M23.6997,-86.8871C7.03,-77.9931 -5.5076,-66.4011 5.34154,-54 30.789,-24.9123 136.465,-18.9795 205.298,-18.3044"/>
<polygon fill="black" stroke="black" stroke-width="1.22767" points="205.614,-21.8026 215.592,-18.2395 205.57,-14.8027 205.614,-21.8026"/>
<text text-anchor="middle" x="61.3415" y="-57.8" font-family="Times New Roman,serif" font-size="14.00">567.9073814321913</text>
</g>
<!-- &#45;4990305070490083274&#45;&gt;8794229938327540079 -->
<g id="edge11" class="edge"><title>&#45;4990305070490083274&#45;&gt;8794229938327540079</title>
<path fill="none" stroke="black" stroke-width="2.6" d="M316.075,-36.1523C359.343,-54.0524 411.859,-84.8222 389.342,-123 371.933,-152.517 336.607,-170.113 308.261,-179.985"/>
<polygon fill="black" stroke="black" stroke-width="2.6" points="306.98,-176.721 298.567,-183.161 309.16,-183.373 306.98,-176.721"/>
<text text-anchor="middle" x="454.842" y="-101.3" font-family="Times New Roman,serif" font-size="14.00">1777.1650585171903</text>
</g>
<!-- &#45;4990305070490083274&#45;&gt;5659693541288529527 -->
<g id="edge12" class="edge"><title>&#45;4990305070490083274&#45;&gt;5659693541288529527</title>
<path fill="none" stroke="black" stroke-width="1.07722" d="M215.591,-28.9847C192.044,-34.6426 164.078,-42.8554 140.342,-54 135.873,-56.0983 117.434,-68.9166 100.337,-81.0478"/>
<polygon fill="black" stroke="black" stroke-width="1.07722" points="98.2354,-78.2475 92.1183,-86.898 102.295,-83.9502 98.2354,-78.2475"/>
<text text-anchor="middle" x="196.342" y="-57.8" font-family="Times New Roman,serif" font-size="14.00">435.3270263608961</text>
</g>
<!-- &#45;4990305070490083274&#45;&gt;&#45;4990305070490083274 -->
<g id="edge13" class="edge"><title>&#45;4990305070490083274&#45;&gt;&#45;4990305070490083274</title>
<path fill="none" stroke="black" stroke-width="1.10297" d="M317.125,-25.5746C327.449,-24.7495 334.842,-22.2246 334.842,-18 334.842,-15.3596 331.954,-13.3832 327.268,-12.0707"/>
<polygon fill="black" stroke="black" stroke-width="1.10297" points="327.557,-8.57199 317.125,-10.4254 326.436,-15.4817 327.557,-8.57199"/>
<text text-anchor="middle" x="390.842" y="-14.3" font-family="Times New Roman,serif" font-size="14.00">458.0208177495983</text>
</g>
</g>
</svg>
