<?xml version="1.0" encoding="UTF-8" standalone="no"?>
<!DOCTYPE svg PUBLIC "-//W3C//DTD SVG 1.1//EN"
 "http://www.w3.org/Graphics/SVG/1.1/DTD/svg11.dtd">
<!-- Generated by graphviz version 2.38.0 (20140413.2041)
 -->
<!-- Title: %3 Pages: 1 -->
<svg width="750pt" height="479pt"
 viewBox="0.00 0.00 750.38 479.00" xmlns="http://www.w3.org/2000/svg" xmlns:xlink="http://www.w3.org/1999/xlink">
<g id="graph0" class="graph" transform="scale(1 1) rotate(0) translate(4 475)">
<title>%3</title>
<!-- &#45;6760735685208204671 -->
<g id="node1" class="node"><title>&#45;6760735685208204671</title>
<polygon fill="#ffffff" stroke="black" points="544.881,-297 425.881,-297 425.881,-261 544.881,-261 544.881,-297"/>
<text text-anchor="middle" x="485.381" y="-275.3" font-family="Times New Roman,serif" font-size="14.00">Admission NC (1)</text>
</g>
<!-- 7850561497370058999 -->
<g id="node2" class="node"><title>7850561497370058999</title>
<polygon fill="#ffffff" stroke="black" points="291.381,-210 227.381,-210 227.381,-174 291.381,-174 291.381,-210"/>
<text text-anchor="middle" x="259.381" y="-188.3" font-family="Times New Roman,serif" font-size="14.00">CRP (1)</text>
</g>
<!-- &#45;6760735685208204671&#45;&gt;7850561497370058999 -->
<g id="edge1" class="edge"><title>&#45;6760735685208204671&#45;&gt;7850561497370058999</title>
<path fill="none" stroke="black" d="M439.919,-260.901C399.398,-245.661 340.578,-223.538 301.204,-208.73"/>
<polygon fill="black" stroke="black" points="302.227,-205.375 291.635,-205.131 299.763,-211.927 302.227,-205.375"/>
<text text-anchor="middle" x="445.881" y="-231.8" font-family="Times New Roman,serif" font-size="14.00">365.91800997475417</text>
</g>
<!-- 6179918396602481755 -->
<g id="node9" class="node"><title>6179918396602481755</title>
<polygon fill="#ffffff" stroke="black" points="309.881,-36 208.881,-36 208.881,-0 309.881,-0 309.881,-36"/>
<text text-anchor="middle" x="259.381" y="-14.3" font-family="Times New Roman,serif" font-size="14.00">Leucocytes (1)</text>
</g>
<!-- &#45;6760735685208204671&#45;&gt;6179918396602481755 -->
<g id="edge2" class="edge"><title>&#45;6760735685208204671&#45;&gt;6179918396602481755</title>
<path fill="none" stroke="black" stroke-width="1.04312" d="M500.025,-260.905C503.801,-255.518 507.366,-249.317 509.381,-243 530.459,-176.942 553.544,-142.048 511.381,-87 488.252,-56.8023 387.084,-36.9672 320.178,-26.8902"/>
<polygon fill="black" stroke="black" stroke-width="1.04312" points="320.563,-23.4093 310.16,-25.4153 319.544,-30.3346 320.563,-23.4093"/>
<text text-anchor="middle" x="591.381" y="-144.8" font-family="Times New Roman,serif" font-size="14.00">403.9086150454772</text>
</g>
<!-- 1152587832168206417 -->
<g id="node8" class="node"><title>1152587832168206417</title>
<polygon fill="#ffffff" stroke="black" points="119.381,-123 21.3813,-123 21.3813,-87 119.381,-87 119.381,-123"/>
<text text-anchor="middle" x="70.3813" y="-101.3" font-family="Times New Roman,serif" font-size="14.00">LacticAcid (1)</text>
</g>
<!-- 7850561497370058999&#45;&gt;1152587832168206417 -->
<g id="edge3" class="edge"><title>7850561497370058999&#45;&gt;1152587832168206417</title>
<path fill="none" stroke="black" stroke-width="1.29772" d="M227.247,-191.581C165.302,-191.94 32.9445,-188.751 4.38131,-156 -4.68697,-145.602 2.32102,-135.973 14.6256,-127.997"/>
<polygon fill="black" stroke="black" stroke-width="1.29772" points="16.4162,-131.005 23.3606,-123.004 12.942,-124.928 16.4162,-131.005"/>
<text text-anchor="middle" x="60.3813" y="-144.8" font-family="Times New Roman,serif" font-size="14.00">628.2293965775943</text>
</g>
<!-- 7850561497370058999&#45;&gt;6179918396602481755 -->
<g id="edge4" class="edge"><title>7850561497370058999&#45;&gt;6179918396602481755</title>
<path fill="none" stroke="black" stroke-width="2.22558" d="M259.381,-173.879C259.381,-144.001 259.381,-82.1129 259.381,-46.2736"/>
<polygon fill="black" stroke="black" stroke-width="2.22558" points="262.881,-46.0516 259.381,-36.0516 255.881,-46.0516 262.881,-46.0516"/>
<text text-anchor="middle" x="318.881" y="-101.3" font-family="Times New Roman,serif" font-size="14.00">1445.7189963077087</text>
</g>
<!-- &#45;2410219256766748193 -->
<g id="node3" class="node"><title>&#45;2410219256766748193</title>
<polygon fill="#ffffff" stroke="black" points="692.881,-471 567.881,-471 567.881,-435 692.881,-435 692.881,-471"/>
<text text-anchor="middle" x="630.381" y="-449.3" font-family="Times New Roman,serif" font-size="14.00">ER Registration (1)</text>
</g>
<!-- &#45;2872325205858232948 -->
<g id="node5" class="node"><title>&#45;2872325205858232948</title>
<polygon fill="#ffffff" stroke="black" points="676.881,-384 583.881,-384 583.881,-348 676.881,-348 676.881,-384"/>
<text text-anchor="middle" x="630.381" y="-362.3" font-family="Times New Roman,serif" font-size="14.00">ER Triage (1)</text>
</g>
<!-- &#45;2410219256766748193&#45;&gt;&#45;2872325205858232948 -->
<g id="edge5" class="edge"><title>&#45;2410219256766748193&#45;&gt;&#45;2872325205858232948</title>
<path fill="none" stroke="black" stroke-width="1.68777" d="M630.381,-434.799C630.381,-423.163 630.381,-407.548 630.381,-394.237"/>
<polygon fill="black" stroke="black" stroke-width="1.68777" points="633.881,-394.175 630.381,-384.175 626.881,-394.175 633.881,-394.175"/>
<text text-anchor="middle" x="686.381" y="-405.8" font-family="Times New Roman,serif" font-size="14.00">971.8775606673008</text>
</g>
<!-- 8892003065059452103 -->
<g id="node4" class="node"><title>8892003065059452103</title>
<polygon fill="#ffffff" stroke="black" points="697.381,-297 563.381,-297 563.381,-261 697.381,-261 697.381,-297"/>
<text text-anchor="middle" x="630.381" y="-275.3" font-family="Times New Roman,serif" font-size="14.00">ER Sepsis Triage (1)</text>
</g>
<!-- &#45;2872325205858232948&#45;&gt;8892003065059452103 -->
<g id="edge6" class="edge"><title>&#45;2872325205858232948&#45;&gt;8892003065059452103</title>
<path fill="none" stroke="black" stroke-width="1.61355" d="M630.381,-347.799C630.381,-336.163 630.381,-320.548 630.381,-307.237"/>
<polygon fill="black" stroke="black" stroke-width="1.61355" points="633.881,-307.175 630.381,-297.175 626.881,-307.175 633.881,-307.175"/>
<text text-anchor="middle" x="686.381" y="-318.8" font-family="Times New Roman,serif" font-size="14.00">906.4898200808802</text>
</g>
<!-- &#45;6564841300794043563 -->
<g id="node6" class="node"><title>&#45;6564841300794043563</title>
<polygon fill="#ffffff" stroke="black" points="542.881,-384 427.881,-384 427.881,-348 542.881,-348 542.881,-384"/>
<text text-anchor="middle" x="485.381" y="-362.3" font-family="Times New Roman,serif" font-size="14.00">IV Antibiotics (1)</text>
</g>
<!-- &#45;6564841300794043563&#45;&gt;&#45;6760735685208204671 -->
<g id="edge7" class="edge"><title>&#45;6564841300794043563&#45;&gt;&#45;6760735685208204671</title>
<path fill="none" stroke="black" stroke-width="1.14227" d="M485.381,-347.799C485.381,-336.163 485.381,-320.548 485.381,-307.237"/>
<polygon fill="black" stroke="black" stroke-width="1.14227" points="488.881,-307.175 485.381,-297.175 481.881,-307.175 488.881,-307.175"/>
<text text-anchor="middle" x="541.381" y="-318.8" font-family="Times New Roman,serif" font-size="14.00">491.2675335095453</text>
</g>
<!-- &#45;1926219633770359302 -->
<g id="node7" class="node"><title>&#45;1926219633770359302</title>
<polygon fill="#ffffff" stroke="black" points="530.381,-471 440.381,-471 440.381,-435 530.381,-435 530.381,-471"/>
<text text-anchor="middle" x="485.381" y="-449.3" font-family="Times New Roman,serif" font-size="14.00">IV Liquid (1)</text>
</g>
<!-- &#45;1926219633770359302&#45;&gt;&#45;6564841300794043563 -->
<g id="edge8" class="edge"><title>&#45;1926219633770359302&#45;&gt;&#45;6564841300794043563</title>
<path fill="none" stroke="black" stroke-width="1.15437" d="M485.381,-434.799C485.381,-423.163 485.381,-407.548 485.381,-394.237"/>
<polygon fill="black" stroke="black" stroke-width="1.15437" points="488.881,-394.175 485.381,-384.175 481.881,-394.175 488.881,-394.175"/>
<text text-anchor="middle" x="544.881" y="-405.8" font-family="Times New Roman,serif" font-size="14.00">501.92940985561376</text>
</g>
<!-- 1152587832168206417&#45;&gt;7850561497370058999 -->
<g id="edge9" class="edge"><title>1152587832168206417&#45;&gt;7850561497370058999</title>
<path fill="none" stroke="black" stroke-width="1.04488" d="M93.1514,-123.095C111.261,-136.589 134.366,-153.544 139.381,-156 163.998,-168.057 193.536,-176.736 217.146,-182.436"/>
<polygon fill="black" stroke="black" stroke-width="1.04488" points="216.67,-185.919 227.203,-184.772 218.254,-179.1 216.67,-185.919"/>
<text text-anchor="middle" x="192.381" y="-144.8" font-family="Times New Roman,serif" font-size="14.00">405.457816871097</text>
</g>
<!-- 1152587832168206417&#45;&gt;6179918396602481755 -->
<g id="edge10" class="edge"><title>1152587832168206417&#45;&gt;6179918396602481755</title>
<path fill="none" stroke="black" stroke-width="1.22578" d="M23.3606,-86.9962C6.16255,-78.2088 -6.67336,-66.6756 4.38131,-54 29.0704,-25.6907 131.308,-19.4691 198.591,-18.5336"/>
<polygon fill="black" stroke="black" stroke-width="1.22578" points="198.698,-22.0328 208.661,-18.4291 198.625,-15.0332 198.698,-22.0328"/>
<text text-anchor="middle" x="60.3813" y="-57.8" font-family="Times New Roman,serif" font-size="14.00">564.8409105641227</text>
</g>
<!-- 6179918396602481755&#45;&gt;7850561497370058999 -->
<g id="edge11" class="edge"><title>6179918396602481755&#45;&gt;7850561497370058999</title>
<path fill="none" stroke="black" stroke-width="2.6" d="M309.115,-36.1523C352.383,-54.0524 404.899,-84.8222 382.381,-123 364.972,-152.517 329.646,-170.113 301.301,-179.985"/>
<polygon fill="black" stroke="black" stroke-width="2.6" points="300.02,-176.721 291.607,-183.161 302.2,-183.373 300.02,-176.721"/>
<text text-anchor="middle" x="447.881" y="-101.3" font-family="Times New Roman,serif" font-size="14.00">1775.6077081275603</text>
</g>
<!-- 6179918396602481755&#45;&gt;1152587832168206417 -->
<g id="edge12" class="edge"><title>6179918396602481755&#45;&gt;1152587832168206417</title>
<path fill="none" stroke="black" stroke-width="1.08425" d="M208.615,-29.6921C186.677,-35.3454 161.112,-43.3569 139.381,-54 135.11,-56.0918 117.722,-68.6969 101.471,-80.7262"/>
<polygon fill="black" stroke="black" stroke-width="1.08425" points="99.0921,-78.1329 93.1514,-86.9055 103.266,-83.7523 99.0921,-78.1329"/>
<text text-anchor="middle" x="192.381" y="-57.8" font-family="Times New Roman,serif" font-size="14.00">440.147337910147</text>
</g>
<!-- 6179918396602481755&#45;&gt;6179918396602481755 -->
<g id="edge13" class="edge"><title>6179918396602481755&#45;&gt;6179918396602481755</title>
<path fill="none" stroke="black" stroke-width="1.1022" d="M310.165,-25.5746C320.489,-24.7495 327.881,-22.2246 327.881,-18 327.881,-15.3596 324.994,-13.3832 320.307,-12.0707"/>
<polygon fill="black" stroke="black" stroke-width="1.1022" points="320.597,-8.57199 310.165,-10.4254 319.476,-15.4817 320.597,-8.57199"/>
<text text-anchor="middle" x="387.381" y="-14.3" font-family="Times New Roman,serif" font-size="14.00">455.95964632124645</text>
</g>
</g>
</svg>
