<?xml version="1.0" encoding="UTF-8" standalone="no"?>
<!DOCTYPE svg PUBLIC "-//W3C//DTD SVG 1.1//EN"
 "http://www.w3.org/Graphics/SVG/1.1/DTD/svg11.dtd">
<!-- Generated by graphviz version 2.38.0 (20140413.2041)
 -->
<!-- Title: %3 Pages: 1 -->
<svg width="752pt" height="479pt"
 viewBox="0.00 0.00 752.25 479.00" xmlns="http://www.w3.org/2000/svg" xmlns:xlink="http://www.w3.org/1999/xlink">
<g id="graph0" class="graph" transform="scale(1 1) rotate(0) translate(4 475)">
<title>%3</title>
<!-- 118450489566830562 -->
<g id="node1" class="node"><title>118450489566830562</title>
<polygon fill="#ffffff" stroke="black" points="546.753,-297 427.753,-297 427.753,-261 546.753,-261 546.753,-297"/>
<text text-anchor="middle" x="487.253" y="-275.3" font-family="Times New Roman,serif" font-size="14.00">Admission NC (1)</text>
</g>
<!-- 4941769122289558835 -->
<g id="node2" class="node"><title>4941769122289558835</title>
<polygon fill="#ffffff" stroke="black" points="298.253,-210 234.253,-210 234.253,-174 298.253,-174 298.253,-210"/>
<text text-anchor="middle" x="266.253" y="-188.3" font-family="Times New Roman,serif" font-size="14.00">CRP (1)</text>
</g>
<!-- 118450489566830562&#45;&gt;4941769122289558835 -->
<g id="edge1" class="edge"><title>118450489566830562&#45;&gt;4941769122289558835</title>
<path fill="none" stroke="black" d="M442.796,-260.901C403.404,-245.751 346.327,-223.798 307.829,-208.991"/>
<polygon fill="black" stroke="black" points="309.054,-205.712 298.464,-205.389 306.541,-212.246 309.054,-205.712"/>
<text text-anchor="middle" x="449.753" y="-231.8" font-family="Times New Roman,serif" font-size="14.00">360.62534758335346</text>
</g>
<!-- 6570115252564267433 -->
<g id="node9" class="node"><title>6570115252564267433</title>
<polygon fill="#ffffff" stroke="black" points="316.753,-36 215.753,-36 215.753,-0 316.753,-0 316.753,-36"/>
<text text-anchor="middle" x="266.253" y="-14.3" font-family="Times New Roman,serif" font-size="14.00">Leucocytes (1)</text>
</g>
<!-- 118450489566830562&#45;&gt;6570115252564267433 -->
<g id="edge2" class="edge"><title>118450489566830562&#45;&gt;6570115252564267433</title>
<path fill="none" stroke="black" stroke-width="1.0513" d="M503.445,-260.735C507.435,-255.436 511.161,-249.324 513.253,-243 527.687,-199.363 644.19,-259.309 511.253,-87 488.825,-57.9301 392.094,-37.9269 327.095,-27.482"/>
<polygon fill="black" stroke="black" stroke-width="1.0513" points="327.374,-23.9829 316.951,-25.8877 326.287,-30.898 327.374,-23.9829"/>
<text text-anchor="middle" x="614.253" y="-144.8" font-family="Times New Roman,serif" font-size="14.00">406.0454568884848</text>
</g>
<!-- &#45;5670009864185339888 -->
<g id="node8" class="node"><title>&#45;5670009864185339888</title>
<polygon fill="#ffffff" stroke="black" points="120.253,-123 22.2525,-123 22.2525,-87 120.253,-87 120.253,-123"/>
<text text-anchor="middle" x="71.2525" y="-101.3" font-family="Times New Roman,serif" font-size="14.00">LacticAcid (1)</text>
</g>
<!-- 4941769122289558835&#45;&gt;&#45;5670009864185339888 -->
<g id="edge3" class="edge"><title>4941769122289558835&#45;&gt;&#45;5670009864185339888</title>
<path fill="none" stroke="black" stroke-width="1.30084" d="M234.119,-191.581C172.173,-191.94 39.8157,-188.751 11.2525,-156 2.63546,-146.119 9.08625,-136.57 20.4523,-128.511"/>
<polygon fill="black" stroke="black" stroke-width="1.30084" points="22.3539,-131.45 28.9816,-123.184 18.6458,-125.513 22.3539,-131.45"/>
<text text-anchor="middle" x="67.2525" y="-144.8" font-family="Times New Roman,serif" font-size="14.00">627.0058056890848</text>
</g>
<!-- 4941769122289558835&#45;&gt;6570115252564267433 -->
<g id="edge4" class="edge"><title>4941769122289558835&#45;&gt;6570115252564267433</title>
<path fill="none" stroke="black" stroke-width="2.22048" d="M266.253,-173.879C266.253,-144.001 266.253,-82.1129 266.253,-46.2736"/>
<polygon fill="black" stroke="black" stroke-width="2.22048" points="269.753,-46.0516 266.253,-36.0516 262.753,-46.0516 269.753,-46.0516"/>
<text text-anchor="middle" x="325.753" y="-101.3" font-family="Times New Roman,serif" font-size="14.00">1441.2909520954606</text>
</g>
<!-- &#45;1744131764726653331 -->
<g id="node3" class="node"><title>&#45;1744131764726653331</title>
<polygon fill="#ffffff" stroke="black" points="694.753,-471 569.753,-471 569.753,-435 694.753,-435 694.753,-471"/>
<text text-anchor="middle" x="632.253" y="-449.3" font-family="Times New Roman,serif" font-size="14.00">ER Registration (1)</text>
</g>
<!-- &#45;8305476247514553090 -->
<g id="node5" class="node"><title>&#45;8305476247514553090</title>
<polygon fill="#ffffff" stroke="black" points="678.753,-384 585.753,-384 585.753,-348 678.753,-348 678.753,-384"/>
<text text-anchor="middle" x="632.253" y="-362.3" font-family="Times New Roman,serif" font-size="14.00">ER Triage (1)</text>
</g>
<!-- &#45;1744131764726653331&#45;&gt;&#45;8305476247514553090 -->
<g id="edge5" class="edge"><title>&#45;1744131764726653331&#45;&gt;&#45;8305476247514553090</title>
<path fill="none" stroke="black" stroke-width="1.66798" d="M632.253,-434.799C632.253,-423.163 632.253,-407.548 632.253,-394.237"/>
<polygon fill="black" stroke="black" stroke-width="1.66798" points="635.753,-394.175 632.253,-384.175 628.753,-394.175 635.753,-394.175"/>
<text text-anchor="middle" x="688.253" y="-405.8" font-family="Times New Roman,serif" font-size="14.00">952.0821770629515</text>
</g>
<!-- 3296544575651183754 -->
<g id="node4" class="node"><title>3296544575651183754</title>
<polygon fill="#ffffff" stroke="black" points="699.253,-297 565.253,-297 565.253,-261 699.253,-261 699.253,-297"/>
<text text-anchor="middle" x="632.253" y="-275.3" font-family="Times New Roman,serif" font-size="14.00">ER Sepsis Triage (1)</text>
</g>
<!-- &#45;8305476247514553090&#45;&gt;3296544575651183754 -->
<g id="edge6" class="edge"><title>&#45;8305476247514553090&#45;&gt;3296544575651183754</title>
<path fill="none" stroke="black" stroke-width="1.61266" d="M632.253,-347.799C632.253,-336.163 632.253,-320.548 632.253,-307.237"/>
<polygon fill="black" stroke="black" stroke-width="1.61266" points="635.753,-307.175 632.253,-297.175 628.753,-307.175 635.753,-307.175"/>
<text text-anchor="middle" x="688.253" y="-318.8" font-family="Times New Roman,serif" font-size="14.00">903.0967036332879</text>
</g>
<!-- &#45;8429177058128869877 -->
<g id="node6" class="node"><title>&#45;8429177058128869877</title>
<polygon fill="#ffffff" stroke="black" points="544.753,-384 429.753,-384 429.753,-348 544.753,-348 544.753,-384"/>
<text text-anchor="middle" x="487.253" y="-362.3" font-family="Times New Roman,serif" font-size="14.00">IV Antibiotics (1)</text>
</g>
<!-- &#45;8429177058128869877&#45;&gt;118450489566830562 -->
<g id="edge7" class="edge"><title>&#45;8429177058128869877&#45;&gt;118450489566830562</title>
<path fill="none" stroke="black" stroke-width="1.1684" d="M487.253,-347.799C487.253,-336.163 487.253,-320.548 487.253,-307.237"/>
<polygon fill="black" stroke="black" stroke-width="1.1684" points="490.753,-307.175 487.253,-297.175 483.753,-307.175 490.753,-307.175"/>
<text text-anchor="middle" x="543.253" y="-318.8" font-family="Times New Roman,serif" font-size="14.00">509.7352081186474</text>
</g>
<!-- 6215314419735287562 -->
<g id="node7" class="node"><title>6215314419735287562</title>
<polygon fill="#ffffff" stroke="black" points="532.253,-471 442.253,-471 442.253,-435 532.253,-435 532.253,-471"/>
<text text-anchor="middle" x="487.253" y="-449.3" font-family="Times New Roman,serif" font-size="14.00">IV Liquid (1)</text>
</g>
<!-- 6215314419735287562&#45;&gt;&#45;8429177058128869877 -->
<g id="edge8" class="edge"><title>6215314419735287562&#45;&gt;&#45;8429177058128869877</title>
<path fill="none" stroke="black" stroke-width="1.15881" d="M487.253,-434.799C487.253,-423.163 487.253,-407.548 487.253,-394.237"/>
<polygon fill="black" stroke="black" stroke-width="1.15881" points="490.753,-394.175 487.253,-384.175 483.753,-394.175 490.753,-394.175"/>
<text text-anchor="middle" x="546.753" y="-405.8" font-family="Times New Roman,serif" font-size="14.00">501.24278984507055</text>
</g>
<!-- &#45;5670009864185339888&#45;&gt;4941769122289558835 -->
<g id="edge9" class="edge"><title>&#45;5670009864185339888&#45;&gt;4941769122289558835</title>
<path fill="none" stroke="black" stroke-width="1.03381" d="M96.8336,-123.185C118.024,-137.399 144.887,-155.364 146.253,-156 171.1,-167.573 200.641,-176.247 224.195,-182.064"/>
<polygon fill="black" stroke="black" stroke-width="1.03381" points="223.684,-185.541 234.224,-184.459 225.31,-178.732 223.684,-185.541"/>
<text text-anchor="middle" x="199.253" y="-144.8" font-family="Times New Roman,serif" font-size="14.00">390.562374838477</text>
</g>
<!-- &#45;5670009864185339888&#45;&gt;6570115252564267433 -->
<g id="edge10" class="edge"><title>&#45;5670009864185339888&#45;&gt;6570115252564267433</title>
<path fill="none" stroke="black" stroke-width="1.232" d="M23.1063,-86.8612C5.88073,-78.1224 -6.83628,-66.6686 4.25253,-54 29.839,-24.7682 136.18,-18.893 205.269,-18.2661"/>
<polygon fill="black" stroke="black" stroke-width="1.232" points="205.618,-21.7643 215.598,-18.2085 205.579,-14.7644 205.618,-21.7643"/>
<text text-anchor="middle" x="57.2525" y="-57.8" font-family="Times New Roman,serif" font-size="14.00">566.044151836537</text>
</g>
<!-- 6570115252564267433&#45;&gt;4941769122289558835 -->
<g id="edge11" class="edge"><title>6570115252564267433&#45;&gt;4941769122289558835</title>
<path fill="none" stroke="black" stroke-width="2.6" d="M315.986,-36.1523C359.254,-54.0524 411.77,-84.8222 389.253,-123 371.844,-152.517 336.518,-170.113 308.172,-179.985"/>
<polygon fill="black" stroke="black" stroke-width="2.6" points="306.891,-176.721 298.478,-183.161 309.071,-183.373 306.891,-176.721"/>
<text text-anchor="middle" x="451.253" y="-101.3" font-family="Times New Roman,serif" font-size="14.00">1777.334467725146</text>
</g>
<!-- 6570115252564267433&#45;&gt;&#45;5670009864185339888 -->
<g id="edge12" class="edge"><title>6570115252564267433&#45;&gt;&#45;5670009864185339888</title>
<path fill="none" stroke="black" stroke-width="1.08504" d="M215.496,-27.1283C189.902,-32.5064 158.93,-41.0215 133.253,-54 125.792,-57.7709 111.549,-69.1328 98.5941,-80.0742"/>
<polygon fill="black" stroke="black" stroke-width="1.08504" points="96.0967,-77.6044 90.7665,-86.7609 100.643,-82.9269 96.0967,-77.6044"/>
<text text-anchor="middle" x="192.753" y="-57.8" font-family="Times New Roman,serif" font-size="14.00">435.91916394137576</text>
</g>
<!-- 6570115252564267433&#45;&gt;6570115252564267433 -->
<g id="edge13" class="edge"><title>6570115252564267433&#45;&gt;6570115252564267433</title>
<path fill="none" stroke="black" stroke-width="1.10209" d="M317.036,-25.5746C327.36,-24.7495 334.753,-22.2246 334.753,-18 334.753,-15.3596 331.865,-13.3832 327.179,-12.0707"/>
<polygon fill="black" stroke="black" stroke-width="1.10209" points="327.468,-8.57199 317.036,-10.4254 326.347,-15.4817 327.468,-8.57199"/>
<text text-anchor="middle" x="390.753" y="-14.3" font-family="Times New Roman,serif" font-size="14.00">451.0210046722139</text>
</g>
</g>
</svg>
