<?xml version="1.0" encoding="UTF-8" standalone="no"?>
<!DOCTYPE svg PUBLIC "-//W3C//DTD SVG 1.1//EN"
 "http://www.w3.org/Graphics/SVG/1.1/DTD/svg11.dtd">
<!-- Generated by graphviz version 2.38.0 (20140413.2041)
 -->
<!-- Title: %3 Pages: 1 -->
<svg width="741pt" height="479pt"
 viewBox="0.00 0.00 741.27 479.00" xmlns="http://www.w3.org/2000/svg" xmlns:xlink="http://www.w3.org/1999/xlink">
<g id="graph0" class="graph" transform="scale(1 1) rotate(0) translate(4 475)">
<title>%3</title>
<!-- 118450489566830562 -->
<g id="node1" class="node"><title>118450489566830562</title>
<polygon fill="#ffffff" stroke="black" points="535.772,-297 416.772,-297 416.772,-261 535.772,-261 535.772,-297"/>
<text text-anchor="middle" x="476.272" y="-275.3" font-family="Times New Roman,serif" font-size="14.00">Admission NC (1)</text>
</g>
<!-- 4941769122289558835 -->
<g id="node2" class="node"><title>4941769122289558835</title>
<polygon fill="#ffffff" stroke="black" points="297.272,-210 233.272,-210 233.272,-174 297.272,-174 297.272,-210"/>
<text text-anchor="middle" x="265.272" y="-188.3" font-family="Times New Roman,serif" font-size="14.00">CRP (1)</text>
</g>
<!-- 118450489566830562&#45;&gt;4941769122289558835 -->
<g id="edge1" class="edge"><title>118450489566830562&#45;&gt;4941769122289558835</title>
<path fill="none" stroke="black" stroke-width="1.01205" d="M433.827,-260.901C396.819,-245.993 343.461,-224.498 306.744,-209.707"/>
<polygon fill="black" stroke="black" stroke-width="1.01205" points="307.906,-206.402 297.323,-205.911 305.29,-212.894 307.906,-206.402"/>
<text text-anchor="middle" x="440.272" y="-231.8" font-family="Times New Roman,serif" font-size="14.00">397.2556755618135</text>
</g>
<!-- 6570115252564267433 -->
<g id="node9" class="node"><title>6570115252564267433</title>
<polygon fill="#ffffff" stroke="black" points="315.772,-36 214.772,-36 214.772,-0 315.772,-0 315.772,-36"/>
<text text-anchor="middle" x="265.272" y="-14.3" font-family="Times New Roman,serif" font-size="14.00">Leucocytes (1)</text>
</g>
<!-- 118450489566830562&#45;&gt;6570115252564267433 -->
<g id="edge2" class="edge"><title>118450489566830562&#45;&gt;6570115252564267433</title>
<path fill="none" stroke="black" stroke-width="1.04871" d="M490.983,-260.925C494.76,-255.54 498.309,-249.334 500.272,-243 514.073,-198.471 622.884,-251.048 497.272,-87 476.394,-59.7335 387.412,-39.5407 325.923,-28.5194"/>
<polygon fill="black" stroke="black" stroke-width="1.04871" points="326.381,-25.0462 315.926,-26.7643 325.17,-31.9408 326.381,-25.0462"/>
<text text-anchor="middle" x="600.272" y="-144.8" font-family="Times New Roman,serif" font-size="14.00">431.4824555279728</text>
</g>
<!-- &#45;5670009864185339888 -->
<g id="node8" class="node"><title>&#45;5670009864185339888</title>
<polygon fill="#ffffff" stroke="black" points="122.272,-123 24.2722,-123 24.2722,-87 122.272,-87 122.272,-123"/>
<text text-anchor="middle" x="73.2722" y="-101.3" font-family="Times New Roman,serif" font-size="14.00">LacticAcid (1)</text>
</g>
<!-- 4941769122289558835&#45;&gt;&#45;5670009864185339888 -->
<g id="edge3" class="edge"><title>4941769122289558835&#45;&gt;&#45;5670009864185339888</title>
<path fill="none" stroke="black" stroke-width="1.17226" d="M233.138,-191.581C171.193,-191.94 38.8354,-188.751 10.2722,-156 1.47292,-145.91 8.10082,-136.365 19.8348,-128.372"/>
<polygon fill="black" stroke="black" stroke-width="1.17226" points="21.8636,-131.237 28.6472,-123.098 18.269,-125.23 21.8636,-131.237"/>
<text text-anchor="middle" x="63.2722" y="-144.8" font-family="Times New Roman,serif" font-size="14.00">546.856055257934</text>
</g>
<!-- 4941769122289558835&#45;&gt;6570115252564267433 -->
<g id="edge4" class="edge"><title>4941769122289558835&#45;&gt;6570115252564267433</title>
<path fill="none" stroke="black" stroke-width="2.07156" d="M265.272,-173.879C265.272,-144.001 265.272,-82.1129 265.272,-46.2736"/>
<polygon fill="black" stroke="black" stroke-width="2.07156" points="268.772,-46.0516 265.272,-36.0516 261.772,-46.0516 268.772,-46.0516"/>
<text text-anchor="middle" x="321.272" y="-101.3" font-family="Times New Roman,serif" font-size="14.00">1386.610851197546</text>
</g>
<!-- &#45;1744131764726653331 -->
<g id="node3" class="node"><title>&#45;1744131764726653331</title>
<polygon fill="#ffffff" stroke="black" points="683.772,-471 558.772,-471 558.772,-435 683.772,-435 683.772,-471"/>
<text text-anchor="middle" x="621.272" y="-449.3" font-family="Times New Roman,serif" font-size="14.00">ER Registration (1)</text>
</g>
<!-- &#45;8305476247514553090 -->
<g id="node5" class="node"><title>&#45;8305476247514553090</title>
<polygon fill="#ffffff" stroke="black" points="667.772,-384 574.772,-384 574.772,-348 667.772,-348 667.772,-384"/>
<text text-anchor="middle" x="621.272" y="-362.3" font-family="Times New Roman,serif" font-size="14.00">ER Triage (1)</text>
</g>
<!-- &#45;1744131764726653331&#45;&gt;&#45;8305476247514553090 -->
<g id="edge5" class="edge"><title>&#45;1744131764726653331&#45;&gt;&#45;8305476247514553090</title>
<path fill="none" stroke="black" stroke-width="1.63809" d="M621.272,-434.799C621.272,-423.163 621.272,-407.548 621.272,-394.237"/>
<polygon fill="black" stroke="black" stroke-width="1.63809" points="624.772,-394.175 621.272,-384.175 617.772,-394.175 624.772,-394.175"/>
<text text-anchor="middle" x="677.272" y="-405.8" font-family="Times New Roman,serif" font-size="14.00">981.8445954000337</text>
</g>
<!-- 3296544575651183754 -->
<g id="node4" class="node"><title>3296544575651183754</title>
<polygon fill="#ffffff" stroke="black" points="688.272,-297 554.272,-297 554.272,-261 688.272,-261 688.272,-297"/>
<text text-anchor="middle" x="621.272" y="-275.3" font-family="Times New Roman,serif" font-size="14.00">ER Sepsis Triage (1)</text>
</g>
<!-- &#45;8305476247514553090&#45;&gt;3296544575651183754 -->
<g id="edge6" class="edge"><title>&#45;8305476247514553090&#45;&gt;3296544575651183754</title>
<path fill="none" stroke="black" stroke-width="1.53815" d="M621.272,-347.799C621.272,-336.163 621.272,-320.548 621.272,-307.237"/>
<polygon fill="black" stroke="black" stroke-width="1.53815" points="624.772,-307.175 621.272,-297.175 617.772,-307.175 624.772,-307.175"/>
<text text-anchor="middle" x="677.272" y="-318.8" font-family="Times New Roman,serif" font-size="14.00">888.5188446285175</text>
</g>
<!-- &#45;8429177058128869877 -->
<g id="node6" class="node"><title>&#45;8429177058128869877</title>
<polygon fill="#ffffff" stroke="black" points="533.772,-384 418.772,-384 418.772,-348 533.772,-348 533.772,-384"/>
<text text-anchor="middle" x="476.272" y="-362.3" font-family="Times New Roman,serif" font-size="14.00">IV Antibiotics (1)</text>
</g>
<!-- &#45;8429177058128869877&#45;&gt;118450489566830562 -->
<g id="edge7" class="edge"><title>&#45;8429177058128869877&#45;&gt;118450489566830562</title>
<path fill="none" stroke="black" stroke-width="1.0449" d="M476.272,-347.799C476.272,-336.163 476.272,-320.548 476.272,-307.237"/>
<polygon fill="black" stroke="black" stroke-width="1.0449" points="479.772,-307.175 476.272,-297.175 472.772,-307.175 479.772,-307.175"/>
<text text-anchor="middle" x="529.272" y="-318.8" font-family="Times New Roman,serif" font-size="14.00">427.926444851228</text>
</g>
<!-- 6215314419735287562 -->
<g id="node7" class="node"><title>6215314419735287562</title>
<polygon fill="#ffffff" stroke="black" points="521.272,-471 431.272,-471 431.272,-435 521.272,-435 521.272,-471"/>
<text text-anchor="middle" x="476.272" y="-449.3" font-family="Times New Roman,serif" font-size="14.00">IV Liquid (1)</text>
</g>
<!-- 6215314419735287562&#45;&gt;&#45;8429177058128869877 -->
<g id="edge8" class="edge"><title>6215314419735287562&#45;&gt;&#45;8429177058128869877</title>
<path fill="none" stroke="black" stroke-width="1.19465" d="M476.272,-434.799C476.272,-423.163 476.272,-407.548 476.272,-394.237"/>
<polygon fill="black" stroke="black" stroke-width="1.19465" points="479.772,-394.175 476.272,-384.175 472.772,-394.175 479.772,-394.175"/>
<text text-anchor="middle" x="532.272" y="-405.8" font-family="Times New Roman,serif" font-size="14.00">567.7615813942548</text>
</g>
<!-- &#45;5670009864185339888&#45;&gt;4941769122289558835 -->
<g id="edge9" class="edge"><title>&#45;5670009864185339888&#45;&gt;4941769122289558835</title>
<path fill="none" stroke="black" stroke-width="1.03786" d="M94.1479,-123.183C109.723,-135.736 129.867,-151.345 139.272,-156 165.829,-169.145 198.058,-177.984 223.272,-183.491"/>
<polygon fill="black" stroke="black" stroke-width="1.03786" points="222.757,-186.959 233.262,-185.58 224.19,-180.107 222.757,-186.959"/>
<text text-anchor="middle" x="195.272" y="-144.8" font-family="Times New Roman,serif" font-size="14.00">421.3509991539277</text>
</g>
<!-- &#45;5670009864185339888&#45;&gt;6570115252564267433 -->
<g id="edge10" class="edge"><title>&#45;5670009864185339888&#45;&gt;6570115252564267433</title>
<path fill="none" stroke="black" stroke-width="1.18944" d="M24.2562,-87.3069C6.30868,-78.5904 -7.12446,-67.027 4.27222,-54 29.7197,-24.9123 135.395,-18.9795 204.229,-18.3044"/>
<polygon fill="black" stroke="black" stroke-width="1.18944" points="204.545,-21.8026 214.522,-18.2395 204.501,-14.8027 204.545,-21.8026"/>
<text text-anchor="middle" x="60.2722" y="-57.8" font-family="Times New Roman,serif" font-size="14.00">562.8938869202427</text>
</g>
<!-- 6570115252564267433&#45;&gt;4941769122289558835 -->
<g id="edge11" class="edge"><title>6570115252564267433&#45;&gt;4941769122289558835</title>
<path fill="none" stroke="black" stroke-width="2.6" d="M311.052,-36.0649C352.095,-54.2127 402.786,-85.4502 381.272,-123 365.355,-150.781 333.196,-168.313 306.768,-178.604"/>
<polygon fill="black" stroke="black" stroke-width="2.6" points="305.51,-175.337 297.332,-182.073 307.925,-181.907 305.51,-175.337"/>
<text text-anchor="middle" x="440.272" y="-101.3" font-family="Times New Roman,serif" font-size="14.00">1880.06573084472</text>
</g>
<!-- 6570115252564267433&#45;&gt;&#45;5670009864185339888 -->
<g id="edge12" class="edge"><title>6570115252564267433&#45;&gt;&#45;5670009864185339888</title>
<path fill="none" stroke="black" stroke-width="1.06759" d="M214.615,-28.4714C190.958,-34.0352 162.875,-42.3168 139.272,-54 131.41,-57.8916 116.044,-69.4369 102.115,-80.4537"/>
<polygon fill="black" stroke="black" stroke-width="1.06759" points="99.7772,-77.8416 94.1479,-86.8172 104.146,-83.3111 99.7772,-77.8416"/>
<text text-anchor="middle" x="195.272" y="-57.8" font-family="Times New Roman,serif" font-size="14.00">449.1117126772091</text>
</g>
<!-- 6570115252564267433&#45;&gt;6570115252564267433 -->
<g id="edge13" class="edge"><title>6570115252564267433&#45;&gt;6570115252564267433</title>
<path fill="none" stroke="black" d="M316.056,-25.5746C326.38,-24.7495 333.772,-22.2246 333.772,-18 333.772,-15.3596 330.885,-13.3832 326.198,-12.0707"/>
<polygon fill="black" stroke="black" points="326.488,-8.57199 316.056,-10.4254 325.367,-15.4817 326.488,-8.57199"/>
<text text-anchor="middle" x="393.272" y="-14.3" font-family="Times New Roman,serif" font-size="14.00">385.99939181666673</text>
</g>
</g>
</svg>
