<?xml version="1.0" encoding="UTF-8" standalone="no"?>
<!DOCTYPE svg PUBLIC "-//W3C//DTD SVG 1.1//EN"
 "http://www.w3.org/Graphics/SVG/1.1/DTD/svg11.dtd">
<!-- Generated by graphviz version 2.38.0 (20140413.2041)
 -->
<!-- Title: %3 Pages: 1 -->
<svg width="752pt" height="479pt"
 viewBox="0.00 0.00 752.42 479.00" xmlns="http://www.w3.org/2000/svg" xmlns:xlink="http://www.w3.org/1999/xlink">
<g id="graph0" class="graph" transform="scale(1 1) rotate(0) translate(4 475)">
<title>%3</title>
<!-- 9118780525858573852 -->
<g id="node1" class="node"><title>9118780525858573852</title>
<polygon fill="#ffffff" stroke="black" points="546.923,-297 427.923,-297 427.923,-261 546.923,-261 546.923,-297"/>
<text text-anchor="middle" x="487.423" y="-275.3" font-family="Times New Roman,serif" font-size="14.00">Admission NC (1)</text>
</g>
<!-- 8794229938327540079 -->
<g id="node2" class="node"><title>8794229938327540079</title>
<polygon fill="#ffffff" stroke="black" points="298.423,-210 234.423,-210 234.423,-174 298.423,-174 298.423,-210"/>
<text text-anchor="middle" x="266.423" y="-188.3" font-family="Times New Roman,serif" font-size="14.00">CRP (1)</text>
</g>
<!-- 9118780525858573852&#45;&gt;8794229938327540079 -->
<g id="edge1" class="edge"><title>9118780525858573852&#45;&gt;8794229938327540079</title>
<path fill="none" stroke="black" d="M442.966,-260.901C403.575,-245.751 346.497,-223.798 308,-208.991"/>
<polygon fill="black" stroke="black" points="309.225,-205.712 298.635,-205.389 306.712,-212.246 309.225,-205.712"/>
<text text-anchor="middle" x="446.423" y="-231.8" font-family="Times New Roman,serif" font-size="14.00">369.1835732393084</text>
</g>
<!-- &#45;4990305070490083274 -->
<g id="node9" class="node"><title>&#45;4990305070490083274</title>
<polygon fill="#ffffff" stroke="black" points="316.923,-36 215.923,-36 215.923,-0 316.923,-0 316.923,-36"/>
<text text-anchor="middle" x="266.423" y="-14.3" font-family="Times New Roman,serif" font-size="14.00">Leucocytes (1)</text>
</g>
<!-- 9118780525858573852&#45;&gt;&#45;4990305070490083274 -->
<g id="edge2" class="edge"><title>9118780525858573852&#45;&gt;&#45;4990305070490083274</title>
<path fill="none" stroke="black" stroke-width="1.04428" d="M498.74,-260.861C501.799,-255.376 504.73,-249.131 506.423,-243 524.892,-176.135 553.406,-142.222 511.423,-87 489.202,-57.7718 392.409,-37.8161 327.341,-27.4237"/>
<polygon fill="black" stroke="black" stroke-width="1.04428" points="327.607,-23.9229 317.187,-25.838 326.527,-30.8391 327.607,-23.9229"/>
<text text-anchor="middle" x="589.423" y="-144.8" font-family="Times New Roman,serif" font-size="14.00">408.1680917282489</text>
</g>
<!-- 5659693541288529527 -->
<g id="node8" class="node"><title>5659693541288529527</title>
<polygon fill="#ffffff" stroke="black" points="120.423,-123 22.4232,-123 22.4232,-87 120.423,-87 120.423,-123"/>
<text text-anchor="middle" x="71.4232" y="-101.3" font-family="Times New Roman,serif" font-size="14.00">LacticAcid (1)</text>
</g>
<!-- 8794229938327540079&#45;&gt;5659693541288529527 -->
<g id="edge3" class="edge"><title>8794229938327540079&#45;&gt;5659693541288529527</title>
<path fill="none" stroke="black" stroke-width="1.29475" d="M234.391,-191.715C171.185,-192.366 33.9678,-189.754 4.42315,-156 -4.67314,-145.608 2.24982,-136.033 14.54,-128.104"/>
<polygon fill="black" stroke="black" stroke-width="1.29475" points="16.312,-131.123 23.277,-123.139 12.8535,-125.037 16.312,-131.123"/>
<text text-anchor="middle" x="57.4232" y="-144.8" font-family="Times New Roman,serif" font-size="14.00">628.688609580716</text>
</g>
<!-- 8794229938327540079&#45;&gt;&#45;4990305070490083274 -->
<g id="edge4" class="edge"><title>8794229938327540079&#45;&gt;&#45;4990305070490083274</title>
<path fill="none" stroke="black" stroke-width="2.22141" d="M266.423,-173.879C266.423,-144.001 266.423,-82.1129 266.423,-46.2736"/>
<polygon fill="black" stroke="black" stroke-width="2.22141" points="269.923,-46.0516 266.423,-36.0516 262.923,-46.0516 269.923,-46.0516"/>
<text text-anchor="middle" x="322.423" y="-101.3" font-family="Times New Roman,serif" font-size="14.00">1444.555747582432</text>
</g>
<!-- 4941573644585563234 -->
<g id="node3" class="node"><title>4941573644585563234</title>
<polygon fill="#ffffff" stroke="black" points="694.923,-471 569.923,-471 569.923,-435 694.923,-435 694.923,-471"/>
<text text-anchor="middle" x="632.423" y="-449.3" font-family="Times New Roman,serif" font-size="14.00">ER Registration (1)</text>
</g>
<!-- 7781181950460006610 -->
<g id="node5" class="node"><title>7781181950460006610</title>
<polygon fill="#ffffff" stroke="black" points="678.923,-384 585.923,-384 585.923,-348 678.923,-348 678.923,-384"/>
<text text-anchor="middle" x="632.423" y="-362.3" font-family="Times New Roman,serif" font-size="14.00">ER Triage (1)</text>
</g>
<!-- 4941573644585563234&#45;&gt;7781181950460006610 -->
<g id="edge5" class="edge"><title>4941573644585563234&#45;&gt;7781181950460006610</title>
<path fill="none" stroke="black" stroke-width="1.68307" d="M632.423,-434.799C632.423,-423.163 632.423,-407.548 632.423,-394.237"/>
<polygon fill="black" stroke="black" stroke-width="1.68307" points="635.923,-394.175 632.423,-384.175 628.923,-394.175 635.923,-394.175"/>
<text text-anchor="middle" x="688.423" y="-405.8" font-family="Times New Roman,serif" font-size="14.00">970.5791921641878</text>
</g>
<!-- &#45;1916228938975785919 -->
<g id="node4" class="node"><title>&#45;1916228938975785919</title>
<polygon fill="#ffffff" stroke="black" points="699.423,-297 565.423,-297 565.423,-261 699.423,-261 699.423,-297"/>
<text text-anchor="middle" x="632.423" y="-275.3" font-family="Times New Roman,serif" font-size="14.00">ER Sepsis Triage (1)</text>
</g>
<!-- 7781181950460006610&#45;&gt;&#45;1916228938975785919 -->
<g id="edge6" class="edge"><title>7781181950460006610&#45;&gt;&#45;1916228938975785919</title>
<path fill="none" stroke="black" stroke-width="1.60861" d="M632.423,-347.799C632.423,-336.163 632.423,-320.548 632.423,-307.237"/>
<polygon fill="black" stroke="black" stroke-width="1.60861" points="635.923,-307.175 632.423,-297.175 628.923,-307.175 635.923,-307.175"/>
<text text-anchor="middle" x="688.423" y="-318.8" font-family="Times New Roman,serif" font-size="14.00">905.0238594301632</text>
</g>
<!-- 1341266047991071662 -->
<g id="node6" class="node"><title>1341266047991071662</title>
<polygon fill="#ffffff" stroke="black" points="544.923,-384 429.923,-384 429.923,-348 544.923,-348 544.923,-384"/>
<text text-anchor="middle" x="487.423" y="-362.3" font-family="Times New Roman,serif" font-size="14.00">IV Antibiotics (1)</text>
</g>
<!-- 1341266047991071662&#45;&gt;9118780525858573852 -->
<g id="edge7" class="edge"><title>1341266047991071662&#45;&gt;9118780525858573852</title>
<path fill="none" stroke="black" stroke-width="1.13601" d="M487.423,-347.799C487.423,-336.163 487.423,-320.548 487.423,-307.237"/>
<polygon fill="black" stroke="black" stroke-width="1.13601" points="490.923,-307.175 487.423,-297.175 483.923,-307.175 490.923,-307.175"/>
<text text-anchor="middle" x="543.423" y="-318.8" font-family="Times New Roman,serif" font-size="14.00">488.9304681897548</text>
</g>
<!-- 1513237216211266658 -->
<g id="node7" class="node"><title>1513237216211266658</title>
<polygon fill="#ffffff" stroke="black" points="532.423,-471 442.423,-471 442.423,-435 532.423,-435 532.423,-471"/>
<text text-anchor="middle" x="487.423" y="-449.3" font-family="Times New Roman,serif" font-size="14.00">IV Liquid (1)</text>
</g>
<!-- 1513237216211266658&#45;&gt;1341266047991071662 -->
<g id="edge8" class="edge"><title>1513237216211266658&#45;&gt;1341266047991071662</title>
<path fill="none" stroke="black" stroke-width="1.14972" d="M487.423,-434.799C487.423,-423.163 487.423,-407.548 487.423,-394.237"/>
<polygon fill="black" stroke="black" stroke-width="1.14972" points="490.923,-394.175 487.423,-384.175 483.923,-394.175 490.923,-394.175"/>
<text text-anchor="middle" x="546.923" y="-405.8" font-family="Times New Roman,serif" font-size="14.00">501.00638854456423</text>
</g>
<!-- 5659693541288529527&#45;&gt;8794229938327540079 -->
<g id="edge9" class="edge"><title>5659693541288529527&#45;&gt;8794229938327540079</title>
<path fill="none" stroke="black" stroke-width="1.03949" d="M90.9371,-123.239C105.515,-135.824 124.414,-151.446 133.423,-156 162.049,-170.469 197.256,-179.39 224.254,-184.602"/>
<polygon fill="black" stroke="black" stroke-width="1.03949" points="223.701,-188.059 234.169,-186.422 224.965,-181.174 223.701,-188.059"/>
<text text-anchor="middle" x="192.923" y="-144.8" font-family="Times New Roman,serif" font-size="14.00">403.95068150891086</text>
</g>
<!-- 5659693541288529527&#45;&gt;&#45;4990305070490083274 -->
<g id="edge10" class="edge"><title>5659693541288529527&#45;&gt;&#45;4990305070490083274</title>
<path fill="none" stroke="black" stroke-width="1.22252" d="M29.1522,-86.8158C13.0366,-77.8198 0.817528,-66.1607 11.4232,-54 36.1123,-25.6907 138.35,-19.4691 205.633,-18.5336"/>
<polygon fill="black" stroke="black" stroke-width="1.22252" points="205.74,-22.0328 215.703,-18.4291 205.667,-15.0332 205.74,-22.0328"/>
<text text-anchor="middle" x="60.9232" y="-57.8" font-family="Times New Roman,serif" font-size="14.00">565.10141958009</text>
</g>
<!-- &#45;4990305070490083274&#45;&gt;8794229938327540079 -->
<g id="edge11" class="edge"><title>&#45;4990305070490083274&#45;&gt;8794229938327540079</title>
<path fill="none" stroke="black" stroke-width="2.6" d="M312.203,-36.0649C353.246,-54.2127 403.937,-85.4502 382.423,-123 366.506,-150.781 334.347,-168.313 307.919,-178.604"/>
<polygon fill="black" stroke="black" stroke-width="2.6" points="306.661,-175.337 298.483,-182.073 309.076,-181.907 306.661,-175.337"/>
<text text-anchor="middle" x="447.923" y="-101.3" font-family="Times New Roman,serif" font-size="14.00">1777.8778880145564</text>
</g>
<!-- &#45;4990305070490083274&#45;&gt;5659693541288529527 -->
<g id="edge12" class="edge"><title>&#45;4990305070490083274&#45;&gt;5659693541288529527</title>
<path fill="none" stroke="black" stroke-width="1.07467" d="M215.666,-27.1283C190.073,-32.5064 159.101,-41.0215 133.423,-54 125.963,-57.7709 111.719,-69.1328 98.7647,-80.0742"/>
<polygon fill="black" stroke="black" stroke-width="1.07467" points="96.2673,-77.6044 90.9371,-86.7609 100.814,-82.9269 96.2673,-77.6044"/>
<text text-anchor="middle" x="192.923" y="-57.8" font-family="Times New Roman,serif" font-size="14.00">434.92244689584913</text>
</g>
<!-- &#45;4990305070490083274&#45;&gt;&#45;4990305070490083274 -->
<g id="edge13" class="edge"><title>&#45;4990305070490083274&#45;&gt;&#45;4990305070490083274</title>
<path fill="none" stroke="black" stroke-width="1.10091" d="M317.207,-25.5746C327.531,-24.7495 334.923,-22.2246 334.923,-18 334.923,-15.3596 332.035,-13.3832 327.349,-12.0707"/>
<polygon fill="black" stroke="black" stroke-width="1.10091" points="327.638,-8.57199 317.207,-10.4254 326.518,-15.4817 327.638,-8.57199"/>
<text text-anchor="middle" x="390.923" y="-14.3" font-family="Times New Roman,serif" font-size="14.00">458.0242413983285</text>
</g>
</g>
</svg>
