<?xml version="1.0" encoding="UTF-8" standalone="no"?>
<!DOCTYPE svg PUBLIC "-//W3C//DTD SVG 1.1//EN"
 "http://www.w3.org/Graphics/SVG/1.1/DTD/svg11.dtd">
<!-- Generated by graphviz version 2.38.0 (20140413.2041)
 -->
<!-- Title: %3 Pages: 1 -->
<svg width="736pt" height="479pt"
 viewBox="0.00 0.00 736.48 479.00" xmlns="http://www.w3.org/2000/svg" xmlns:xlink="http://www.w3.org/1999/xlink">
<g id="graph0" class="graph" transform="scale(1 1) rotate(0) translate(4 475)">
<title>%3</title>
<!-- &#45;6760735685208204671 -->
<g id="node1" class="node"><title>&#45;6760735685208204671</title>
<polygon fill="#ffffff" stroke="black" points="530.978,-297 411.978,-297 411.978,-261 530.978,-261 530.978,-297"/>
<text text-anchor="middle" x="471.478" y="-275.3" font-family="Times New Roman,serif" font-size="14.00">Admission NC (1)</text>
</g>
<!-- 7850561497370058999 -->
<g id="node2" class="node"><title>7850561497370058999</title>
<polygon fill="#ffffff" stroke="black" points="297.478,-210 233.478,-210 233.478,-174 297.478,-174 297.478,-210"/>
<text text-anchor="middle" x="265.478" y="-188.3" font-family="Times New Roman,serif" font-size="14.00">CRP (1)</text>
</g>
<!-- &#45;6760735685208204671&#45;&gt;7850561497370058999 -->
<g id="edge1" class="edge"><title>&#45;6760735685208204671&#45;&gt;7850561497370058999</title>
<path fill="none" stroke="black" d="M429.791,-260.799C394.113,-246.078 343.004,-224.989 307.291,-210.253"/>
<polygon fill="black" stroke="black" points="308.23,-206.854 297.651,-206.275 305.56,-213.325 308.23,-206.854"/>
<text text-anchor="middle" x="434.478" y="-231.8" font-family="Times New Roman,serif" font-size="14.00">368.940461160142</text>
</g>
<!-- 6179918396602481755 -->
<g id="node9" class="node"><title>6179918396602481755</title>
<polygon fill="#ffffff" stroke="black" points="315.978,-36 214.978,-36 214.978,-0 315.978,-0 315.978,-36"/>
<text text-anchor="middle" x="265.478" y="-14.3" font-family="Times New Roman,serif" font-size="14.00">Leucocytes (1)</text>
</g>
<!-- &#45;6760735685208204671&#45;&gt;6179918396602481755 -->
<g id="edge2" class="edge"><title>&#45;6760735685208204671&#45;&gt;6179918396602481755</title>
<path fill="none" stroke="black" stroke-width="1.04419" d="M483.551,-260.974C486.778,-255.493 489.825,-249.223 491.478,-243 503.659,-197.13 603.605,-238.247 490.478,-87 470.665,-60.5111 385.71,-40.3009 326.066,-29.0403"/>
<polygon fill="black" stroke="black" stroke-width="1.04419" points="326.456,-25.5531 315.987,-27.1763 325.183,-32.4364 326.456,-25.5531"/>
<text text-anchor="middle" x="593.978" y="-144.8" font-family="Times New Roman,serif" font-size="14.00">407.85051470347076</text>
</g>
<!-- 1152587832168206417 -->
<g id="node8" class="node"><title>1152587832168206417</title>
<polygon fill="#ffffff" stroke="black" points="122.478,-123 24.4779,-123 24.4779,-87 122.478,-87 122.478,-123"/>
<text text-anchor="middle" x="73.4779" y="-101.3" font-family="Times New Roman,serif" font-size="14.00">LacticAcid (1)</text>
</g>
<!-- 7850561497370058999&#45;&gt;1152587832168206417 -->
<g id="edge3" class="edge"><title>7850561497370058999&#45;&gt;1152587832168206417</title>
<path fill="none" stroke="black" stroke-width="1.29505" d="M233.082,-191.7C169.901,-192.296 33.8281,-189.549 4.47794,-156 -4.87091,-145.314 2.48856,-135.612 15.3422,-127.66"/>
<polygon fill="black" stroke="black" stroke-width="1.29505" points="17.3537,-130.55 24.4619,-122.693 14.0058,-124.402 17.3537,-130.55"/>
<text text-anchor="middle" x="60.4779" y="-144.8" font-family="Times New Roman,serif" font-size="14.00">628.7558263272236</text>
</g>
<!-- 7850561497370058999&#45;&gt;6179918396602481755 -->
<g id="edge4" class="edge"><title>7850561497370058999&#45;&gt;6179918396602481755</title>
<path fill="none" stroke="black" stroke-width="2.22317" d="M265.478,-173.879C265.478,-144.001 265.478,-82.1129 265.478,-46.2736"/>
<polygon fill="black" stroke="black" stroke-width="2.22317" points="268.978,-46.0516 265.478,-36.0516 261.978,-46.0516 268.978,-46.0516"/>
<text text-anchor="middle" x="314.978" y="-101.3" font-family="Times New Roman,serif" font-size="14.00">1446.0373949104</text>
</g>
<!-- &#45;2410219256766748193 -->
<g id="node3" class="node"><title>&#45;2410219256766748193</title>
<polygon fill="#ffffff" stroke="black" points="678.978,-471 553.978,-471 553.978,-435 678.978,-435 678.978,-471"/>
<text text-anchor="middle" x="616.478" y="-449.3" font-family="Times New Roman,serif" font-size="14.00">ER Registration (1)</text>
</g>
<!-- &#45;2872325205858232948 -->
<g id="node5" class="node"><title>&#45;2872325205858232948</title>
<polygon fill="#ffffff" stroke="black" points="662.978,-384 569.978,-384 569.978,-348 662.978,-348 662.978,-384"/>
<text text-anchor="middle" x="616.478" y="-362.3" font-family="Times New Roman,serif" font-size="14.00">ER Triage (1)</text>
</g>
<!-- &#45;2410219256766748193&#45;&gt;&#45;2872325205858232948 -->
<g id="edge5" class="edge"><title>&#45;2410219256766748193&#45;&gt;&#45;2872325205858232948</title>
<path fill="none" stroke="black" stroke-width="1.68434" d="M616.478,-434.799C616.478,-423.163 616.478,-407.548 616.478,-394.237"/>
<polygon fill="black" stroke="black" stroke-width="1.68434" points="619.978,-394.175 616.478,-384.175 612.978,-394.175 619.978,-394.175"/>
<text text-anchor="middle" x="672.478" y="-405.8" font-family="Times New Roman,serif" font-size="14.00">971.5541096873791</text>
</g>
<!-- 8892003065059452103 -->
<g id="node4" class="node"><title>8892003065059452103</title>
<polygon fill="#ffffff" stroke="black" points="683.478,-297 549.478,-297 549.478,-261 683.478,-261 683.478,-297"/>
<text text-anchor="middle" x="616.478" y="-275.3" font-family="Times New Roman,serif" font-size="14.00">ER Sepsis Triage (1)</text>
</g>
<!-- &#45;2872325205858232948&#45;&gt;8892003065059452103 -->
<g id="edge6" class="edge"><title>&#45;2872325205858232948&#45;&gt;8892003065059452103</title>
<path fill="none" stroke="black" stroke-width="1.60853" d="M616.478,-347.799C616.478,-336.163 616.478,-320.548 616.478,-307.237"/>
<polygon fill="black" stroke="black" stroke-width="1.60853" points="619.978,-307.175 616.478,-297.175 612.978,-307.175 619.978,-307.175"/>
<text text-anchor="middle" x="672.478" y="-318.8" font-family="Times New Roman,serif" font-size="14.00">904.7958378602441</text>
</g>
<!-- &#45;6564841300794043563 -->
<g id="node6" class="node"><title>&#45;6564841300794043563</title>
<polygon fill="#ffffff" stroke="black" points="528.978,-384 413.978,-384 413.978,-348 528.978,-348 528.978,-384"/>
<text text-anchor="middle" x="471.478" y="-362.3" font-family="Times New Roman,serif" font-size="14.00">IV Antibiotics (1)</text>
</g>
<!-- &#45;6564841300794043563&#45;&gt;&#45;6760735685208204671 -->
<g id="edge7" class="edge"><title>&#45;6564841300794043563&#45;&gt;&#45;6760735685208204671</title>
<path fill="none" stroke="black" stroke-width="1.13654" d="M471.478,-347.799C471.478,-336.163 471.478,-320.548 471.478,-307.237"/>
<polygon fill="black" stroke="black" stroke-width="1.13654" points="474.978,-307.175 471.478,-297.175 467.978,-307.175 474.978,-307.175"/>
<text text-anchor="middle" x="527.478" y="-318.8" font-family="Times New Roman,serif" font-size="14.00">489.1727515697768</text>
</g>
<!-- &#45;1926219633770359302 -->
<g id="node7" class="node"><title>&#45;1926219633770359302</title>
<polygon fill="#ffffff" stroke="black" points="516.478,-471 426.478,-471 426.478,-435 516.478,-435 516.478,-471"/>
<text text-anchor="middle" x="471.478" y="-449.3" font-family="Times New Roman,serif" font-size="14.00">IV Liquid (1)</text>
</g>
<!-- &#45;1926219633770359302&#45;&gt;&#45;6564841300794043563 -->
<g id="edge8" class="edge"><title>&#45;1926219633770359302&#45;&gt;&#45;6564841300794043563</title>
<path fill="none" stroke="black" stroke-width="1.14973" d="M471.478,-434.799C471.478,-423.163 471.478,-407.548 471.478,-394.237"/>
<polygon fill="black" stroke="black" stroke-width="1.14973" points="474.978,-394.175 471.478,-384.175 467.978,-394.175 474.978,-394.175"/>
<text text-anchor="middle" x="527.478" y="-405.8" font-family="Times New Roman,serif" font-size="14.00">500.7936455821239</text>
</g>
<!-- 1152587832168206417&#45;&gt;7850561497370058999 -->
<g id="edge9" class="edge"><title>1152587832168206417&#45;&gt;7850561497370058999</title>
<path fill="none" stroke="black" stroke-width="1.03908" d="M94.3537,-123.183C109.929,-135.736 130.073,-151.345 139.478,-156 166.034,-169.145 198.263,-177.984 223.478,-183.491"/>
<polygon fill="black" stroke="black" stroke-width="1.03908" points="222.963,-186.959 233.467,-185.58 224.395,-180.107 222.963,-186.959"/>
<text text-anchor="middle" x="195.478" y="-144.8" font-family="Times New Roman,serif" font-size="14.00">403.3507278400092</text>
</g>
<!-- 1152587832168206417&#45;&gt;6179918396602481755 -->
<g id="edge10" class="edge"><title>1152587832168206417&#45;&gt;6179918396602481755</title>
<path fill="none" stroke="black" stroke-width="1.22288" d="M28.8529,-86.9018C12.1871,-78.0112 -0.351972,-66.4179 10.4779,-54 35.1671,-25.6907 137.404,-19.4691 204.688,-18.5336"/>
<polygon fill="black" stroke="black" stroke-width="1.22288" points="204.795,-22.0328 214.758,-18.4291 204.722,-15.0332 204.795,-22.0328"/>
<text text-anchor="middle" x="63.4779" y="-57.8" font-family="Times New Roman,serif" font-size="14.00">565.203299657931</text>
</g>
<!-- 6179918396602481755&#45;&gt;7850561497370058999 -->
<g id="edge11" class="edge"><title>6179918396602481755&#45;&gt;7850561497370058999</title>
<path fill="none" stroke="black" stroke-width="2.6" d="M309.615,-36.0641C331.527,-47.0515 355.939,-63.6965 368.478,-87 376.059,-101.09 376.059,-108.91 368.478,-123 355.36,-147.379 329.248,-164.471 306.599,-175.421"/>
<polygon fill="black" stroke="black" stroke-width="2.6" points="305.111,-172.253 297.478,-179.6 308.027,-178.617 305.111,-172.253"/>
<text text-anchor="middle" x="430.478" y="-101.3" font-family="Times New Roman,serif" font-size="14.00">1777.867045334038</text>
</g>
<!-- 6179918396602481755&#45;&gt;1152587832168206417 -->
<g id="edge12" class="edge"><title>6179918396602481755&#45;&gt;1152587832168206417</title>
<path fill="none" stroke="black" stroke-width="1.075" d="M214.821,-28.4714C191.164,-34.0352 163.08,-42.3168 139.478,-54 131.616,-57.8916 116.25,-69.4369 102.321,-80.4537"/>
<polygon fill="black" stroke="black" stroke-width="1.075" points="99.983,-77.8416 94.3537,-86.8172 104.352,-83.3111 99.983,-77.8416"/>
<text text-anchor="middle" x="195.478" y="-57.8" font-family="Times New Roman,serif" font-size="14.00">434.9843337437588</text>
</g>
<!-- 6179918396602481755&#45;&gt;6179918396602481755 -->
<g id="edge13" class="edge"><title>6179918396602481755&#45;&gt;6179918396602481755</title>
<path fill="none" stroke="black" stroke-width="1.09961" d="M316.262,-25.5746C326.585,-24.7495 333.978,-22.2246 333.978,-18 333.978,-15.3596 331.09,-13.3832 326.404,-12.0707"/>
<polygon fill="black" stroke="black" stroke-width="1.09961" points="326.693,-8.57199 316.262,-10.4254 325.572,-15.4817 326.693,-8.57199"/>
<text text-anchor="middle" x="393.478" y="-14.3" font-family="Times New Roman,serif" font-size="14.00">456.65687278145754</text>
</g>
</g>
</svg>
