<?xml version="1.0" encoding="UTF-8" standalone="no"?>
<!DOCTYPE svg PUBLIC "-//W3C//DTD SVG 1.1//EN"
 "http://www.w3.org/Graphics/SVG/1.1/DTD/svg11.dtd">
<!-- Generated by graphviz version 2.38.0 (20140413.2041)
 -->
<!-- Title: %3 Pages: 1 -->
<svg width="751pt" height="479pt"
 viewBox="0.00 0.00 751.40 479.00" xmlns="http://www.w3.org/2000/svg" xmlns:xlink="http://www.w3.org/1999/xlink">
<g id="graph0" class="graph" transform="scale(1 1) rotate(0) translate(4 475)">
<title>%3</title>
<!-- 3703627156728642698 -->
<g id="node1" class="node"><title>3703627156728642698</title>
<polygon fill="#ffffff" stroke="black" points="545.899,-297 426.899,-297 426.899,-261 545.899,-261 545.899,-297"/>
<text text-anchor="middle" x="486.399" y="-275.3" font-family="Times New Roman,serif" font-size="14.00">Admission NC (1)</text>
</g>
<!-- 3579705282704473787 -->
<g id="node2" class="node"><title>3579705282704473787</title>
<polygon fill="#ffffff" stroke="black" points="297.399,-210 233.399,-210 233.399,-174 297.399,-174 297.399,-210"/>
<text text-anchor="middle" x="265.399" y="-188.3" font-family="Times New Roman,serif" font-size="14.00">CRP (1)</text>
</g>
<!-- 3703627156728642698&#45;&gt;3579705282704473787 -->
<g id="edge1" class="edge"><title>3703627156728642698&#45;&gt;3579705282704473787</title>
<path fill="none" stroke="black" d="M441.942,-260.901C402.55,-245.751 345.473,-223.798 306.975,-208.991"/>
<polygon fill="black" stroke="black" points="308.2,-205.712 297.61,-205.389 305.687,-212.246 308.2,-205.712"/>
<text text-anchor="middle" x="448.899" y="-231.8" font-family="Times New Roman,serif" font-size="14.00">376.94018874759035</text>
</g>
<!-- &#45;755878416217562554 -->
<g id="node9" class="node"><title>&#45;755878416217562554</title>
<polygon fill="#ffffff" stroke="black" points="315.899,-36 214.899,-36 214.899,-0 315.899,-0 315.899,-36"/>
<text text-anchor="middle" x="265.399" y="-14.3" font-family="Times New Roman,serif" font-size="14.00">Leucocytes (1)</text>
</g>
<!-- 3703627156728642698&#45;&gt;&#45;755878416217562554 -->
<g id="edge2" class="edge"><title>3703627156728642698&#45;&gt;&#45;755878416217562554</title>
<path fill="none" stroke="black" stroke-width="1.03624" d="M502.591,-260.735C506.581,-255.436 510.307,-249.324 512.399,-243 526.833,-199.363 643.336,-259.309 510.399,-87 487.971,-57.9301 391.24,-37.9269 326.241,-27.482"/>
<polygon fill="black" stroke="black" stroke-width="1.03624" points="326.52,-23.9829 316.097,-25.8877 325.433,-30.898 326.52,-23.9829"/>
<text text-anchor="middle" x="613.399" y="-144.8" font-family="Times New Roman,serif" font-size="14.00">408.7526642050597</text>
</g>
<!-- 8066172473611450852 -->
<g id="node8" class="node"><title>8066172473611450852</title>
<polygon fill="#ffffff" stroke="black" points="126.399,-123 28.3986,-123 28.3986,-87 126.399,-87 126.399,-123"/>
<text text-anchor="middle" x="77.3986" y="-101.3" font-family="Times New Roman,serif" font-size="14.00">LacticAcid (1)</text>
</g>
<!-- 3579705282704473787&#45;&gt;8066172473611450852 -->
<g id="edge3" class="edge"><title>3579705282704473787&#45;&gt;8066172473611450852</title>
<path fill="none" stroke="black" stroke-width="1.28482" d="M233.204,-191.439C172.559,-191.503 44.9892,-187.758 17.3986,-156 8.80033,-146.103 15.2557,-136.55 26.6202,-128.492"/>
<polygon fill="black" stroke="black" stroke-width="1.28482" points="28.5195,-131.432 35.1475,-123.167 24.8117,-125.495 28.5195,-131.432"/>
<text text-anchor="middle" x="66.8986" y="-144.8" font-family="Times New Roman,serif" font-size="14.00">626.99082948695</text>
</g>
<!-- 3579705282704473787&#45;&gt;&#45;755878416217562554 -->
<g id="edge4" class="edge"><title>3579705282704473787&#45;&gt;&#45;755878416217562554</title>
<path fill="none" stroke="black" stroke-width="2.22112" d="M265.399,-173.879C265.399,-144.001 265.399,-82.1129 265.399,-46.2736"/>
<polygon fill="black" stroke="black" stroke-width="2.22112" points="268.899,-46.0516 265.399,-36.0516 261.899,-46.0516 268.899,-46.0516"/>
<text text-anchor="middle" x="324.899" y="-101.3" font-family="Times New Roman,serif" font-size="14.00">1448.9813853809596</text>
</g>
<!-- &#45;6320656248013813873 -->
<g id="node3" class="node"><title>&#45;6320656248013813873</title>
<polygon fill="#ffffff" stroke="black" points="693.899,-471 568.899,-471 568.899,-435 693.899,-435 693.899,-471"/>
<text text-anchor="middle" x="631.399" y="-449.3" font-family="Times New Roman,serif" font-size="14.00">ER Registration (1)</text>
</g>
<!-- 2377219762996478470 -->
<g id="node5" class="node"><title>2377219762996478470</title>
<polygon fill="#ffffff" stroke="black" points="677.899,-384 584.899,-384 584.899,-348 677.899,-348 677.899,-384"/>
<text text-anchor="middle" x="631.399" y="-362.3" font-family="Times New Roman,serif" font-size="14.00">ER Triage (1)</text>
</g>
<!-- &#45;6320656248013813873&#45;&gt;2377219762996478470 -->
<g id="edge5" class="edge"><title>&#45;6320656248013813873&#45;&gt;2377219762996478470</title>
<path fill="none" stroke="black" stroke-width="1.68544" d="M631.399,-434.799C631.399,-423.163 631.399,-407.548 631.399,-394.237"/>
<polygon fill="black" stroke="black" stroke-width="1.68544" points="634.899,-394.175 631.399,-384.175 627.899,-394.175 634.899,-394.175"/>
<text text-anchor="middle" x="687.399" y="-405.8" font-family="Times New Roman,serif" font-size="14.00">978.6971543799541</text>
</g>
<!-- 7430045975075819265 -->
<g id="node4" class="node"><title>7430045975075819265</title>
<polygon fill="#ffffff" stroke="black" points="698.399,-297 564.399,-297 564.399,-261 698.399,-261 698.399,-297"/>
<text text-anchor="middle" x="631.399" y="-275.3" font-family="Times New Roman,serif" font-size="14.00">ER Sepsis Triage (1)</text>
</g>
<!-- 2377219762996478470&#45;&gt;7430045975075819265 -->
<g id="edge6" class="edge"><title>2377219762996478470&#45;&gt;7430045975075819265</title>
<path fill="none" stroke="black" stroke-width="1.60045" d="M631.399,-347.799C631.399,-336.163 631.399,-320.548 631.399,-307.237"/>
<polygon fill="black" stroke="black" stroke-width="1.60045" points="634.899,-307.175 631.399,-297.175 627.899,-307.175 634.899,-307.175"/>
<text text-anchor="middle" x="687.399" y="-318.8" font-family="Times New Roman,serif" font-size="14.00">904.0823032117237</text>
</g>
<!-- &#45;5705463351445563725 -->
<g id="node6" class="node"><title>&#45;5705463351445563725</title>
<polygon fill="#ffffff" stroke="black" points="543.899,-384 428.899,-384 428.899,-348 543.899,-348 543.899,-384"/>
<text text-anchor="middle" x="486.399" y="-362.3" font-family="Times New Roman,serif" font-size="14.00">IV Antibiotics (1)</text>
</g>
<!-- &#45;5705463351445563725&#45;&gt;3703627156728642698 -->
<g id="edge7" class="edge"><title>&#45;5705463351445563725&#45;&gt;3703627156728642698</title>
<path fill="none" stroke="black" stroke-width="1.12568" d="M486.399,-347.799C486.399,-336.163 486.399,-320.548 486.399,-307.237"/>
<polygon fill="black" stroke="black" stroke-width="1.12568" points="489.899,-307.175 486.399,-297.175 482.899,-307.175 489.899,-307.175"/>
<text text-anchor="middle" x="542.399" y="-318.8" font-family="Times New Roman,serif" font-size="14.00">487.2787370539162</text>
</g>
<!-- &#45;3862139582344886855 -->
<g id="node7" class="node"><title>&#45;3862139582344886855</title>
<polygon fill="#ffffff" stroke="black" points="531.399,-471 441.399,-471 441.399,-435 531.399,-435 531.399,-471"/>
<text text-anchor="middle" x="486.399" y="-449.3" font-family="Times New Roman,serif" font-size="14.00">IV Liquid (1)</text>
</g>
<!-- &#45;3862139582344886855&#45;&gt;&#45;5705463351445563725 -->
<g id="edge8" class="edge"><title>&#45;3862139582344886855&#45;&gt;&#45;5705463351445563725</title>
<path fill="none" stroke="black" stroke-width="1.14498" d="M486.399,-434.799C486.399,-423.163 486.399,-407.548 486.399,-394.237"/>
<polygon fill="black" stroke="black" stroke-width="1.14498" points="489.899,-394.175 486.399,-384.175 482.899,-394.175 489.899,-394.175"/>
<text text-anchor="middle" x="542.399" y="-405.8" font-family="Times New Roman,serif" font-size="14.00">504.2218764263393</text>
</g>
<!-- 8066172473611450852&#45;&gt;3579705282704473787 -->
<g id="edge9" class="edge"><title>8066172473611450852&#45;&gt;3579705282704473787</title>
<path fill="none" stroke="black" stroke-width="1.03168" d="M96.9299,-123.205C111.517,-135.771 130.421,-151.385 139.399,-156 165.753,-169.547 197.986,-178.378 223.253,-183.78"/>
<polygon fill="black" stroke="black" stroke-width="1.03168" points="222.768,-187.254 233.266,-185.822 224.167,-180.395 222.768,-187.254"/>
<text text-anchor="middle" x="195.399" y="-144.8" font-family="Times New Roman,serif" font-size="14.00">404.7559738488375</text>
</g>
<!-- 8066172473611450852&#45;&gt;&#45;755878416217562554 -->
<g id="edge10" class="edge"><title>8066172473611450852&#45;&gt;&#45;755878416217562554</title>
<path fill="none" stroke="black" stroke-width="1.21799" d="M28.1913,-88.8372C8.05956,-80.1218 -7.94118,-68.105 4.39861,-54 29.846,-24.9123 135.522,-18.9795 204.355,-18.3044"/>
<polygon fill="black" stroke="black" stroke-width="1.21799" points="204.671,-21.8026 214.649,-18.2395 204.627,-14.8027 204.671,-21.8026"/>
<text text-anchor="middle" x="60.3986" y="-57.8" font-family="Times New Roman,serif" font-size="14.00">568.3180251886182</text>
</g>
<!-- &#45;755878416217562554&#45;&gt;3579705282704473787 -->
<g id="edge11" class="edge"><title>&#45;755878416217562554&#45;&gt;3579705282704473787</title>
<path fill="none" stroke="black" stroke-width="2.6" d="M315.132,-36.1523C358.4,-54.0524 410.916,-84.8222 388.399,-123 370.99,-152.517 335.664,-170.113 307.318,-179.985"/>
<polygon fill="black" stroke="black" stroke-width="2.6" points="306.037,-176.721 297.624,-183.161 308.217,-183.373 306.037,-176.721"/>
<text text-anchor="middle" x="450.399" y="-101.3" font-family="Times New Roman,serif" font-size="14.00">1781.607438089488</text>
</g>
<!-- &#45;755878416217562554&#45;&gt;8066172473611450852 -->
<g id="edge12" class="edge"><title>&#45;755878416217562554&#45;&gt;8066172473611450852</title>
<path fill="none" stroke="black" stroke-width="1.06507" d="M214.886,-28.0805C191.13,-33.5736 162.922,-41.9083 139.399,-54 131.964,-57.8216 117.722,-69.1863 104.762,-80.1166"/>
<polygon fill="black" stroke="black" stroke-width="1.06507" points="102.268,-77.6431 96.9299,-86.7948 106.81,-82.9696 102.268,-77.6431"/>
<text text-anchor="middle" x="195.399" y="-57.8" font-family="Times New Roman,serif" font-size="14.00">434.0687582700686</text>
</g>
<!-- &#45;755878416217562554&#45;&gt;&#45;755878416217562554 -->
<g id="edge13" class="edge"><title>&#45;755878416217562554&#45;&gt;&#45;755878416217562554</title>
<path fill="none" stroke="black" stroke-width="1.09992" d="M316.182,-25.5746C326.506,-24.7495 333.899,-22.2246 333.899,-18 333.899,-15.3596 331.011,-13.3832 326.325,-12.0707"/>
<polygon fill="black" stroke="black" stroke-width="1.09992" points="326.614,-8.57199 316.182,-10.4254 325.493,-15.4817 326.614,-8.57199"/>
<text text-anchor="middle" x="393.399" y="-14.3" font-family="Times New Roman,serif" font-size="14.00">464.66410789489674</text>
</g>
</g>
</svg>
