<?xml version="1.0" encoding="UTF-8" standalone="no"?>
<!DOCTYPE svg PUBLIC "-//W3C//DTD SVG 1.1//EN"
 "http://www.w3.org/Graphics/SVG/1.1/DTD/svg11.dtd">
<!-- Generated by graphviz version 2.38.0 (20140413.2041)
 -->
<!-- Title: %3 Pages: 1 -->
<svg width="756pt" height="479pt"
 viewBox="0.00 0.00 756.34 479.00" xmlns="http://www.w3.org/2000/svg" xmlns:xlink="http://www.w3.org/1999/xlink">
<g id="graph0" class="graph" transform="scale(1 1) rotate(0) translate(4 475)">
<title>%3</title>
<!-- 9118780525858573852 -->
<g id="node1" class="node"><title>9118780525858573852</title>
<polygon fill="#ffffff" stroke="black" points="550.841,-297 431.841,-297 431.841,-261 550.841,-261 550.841,-297"/>
<text text-anchor="middle" x="491.341" y="-275.3" font-family="Times New Roman,serif" font-size="14.00">Admission NC (1)</text>
</g>
<!-- 8794229938327540079 -->
<g id="node2" class="node"><title>8794229938327540079</title>
<polygon fill="#ffffff" stroke="black" points="297.341,-210 233.341,-210 233.341,-174 297.341,-174 297.341,-210"/>
<text text-anchor="middle" x="265.341" y="-188.3" font-family="Times New Roman,serif" font-size="14.00">CRP (1)</text>
</g>
<!-- 9118780525858573852&#45;&gt;8794229938327540079 -->
<g id="edge1" class="edge"><title>9118780525858573852&#45;&gt;8794229938327540079</title>
<path fill="none" stroke="black" d="M445.878,-260.901C405.358,-245.661 346.537,-223.538 307.163,-208.73"/>
<polygon fill="black" stroke="black" points="308.187,-205.375 297.595,-205.131 305.723,-211.927 308.187,-205.375"/>
<text text-anchor="middle" x="451.841" y="-231.8" font-family="Times New Roman,serif" font-size="14.00">368.89428264886743</text>
</g>
<!-- &#45;4990305070490083274 -->
<g id="node9" class="node"><title>&#45;4990305070490083274</title>
<polygon fill="#ffffff" stroke="black" points="315.841,-36 214.841,-36 214.841,-0 315.841,-0 315.841,-36"/>
<text text-anchor="middle" x="265.341" y="-14.3" font-family="Times New Roman,serif" font-size="14.00">Leucocytes (1)</text>
</g>
<!-- 9118780525858573852&#45;&gt;&#45;4990305070490083274 -->
<g id="edge2" class="edge"><title>9118780525858573852&#45;&gt;&#45;4990305070490083274</title>
<path fill="none" stroke="black" stroke-width="1.04422" d="M505.985,-260.905C509.76,-255.518 513.325,-249.317 515.341,-243 536.419,-176.942 559.503,-142.048 517.341,-87 494.211,-56.8023 393.043,-36.9672 326.137,-26.8902"/>
<polygon fill="black" stroke="black" stroke-width="1.04422" points="326.523,-23.4093 316.119,-25.4153 325.503,-30.3346 326.523,-23.4093"/>
<text text-anchor="middle" x="597.341" y="-144.8" font-family="Times New Roman,serif" font-size="14.00">407.8380133730579</text>
</g>
<!-- 5659693541288529527 -->
<g id="node8" class="node"><title>5659693541288529527</title>
<polygon fill="#ffffff" stroke="black" points="125.341,-123 27.3407,-123 27.3407,-87 125.341,-87 125.341,-123"/>
<text text-anchor="middle" x="76.3407" y="-101.3" font-family="Times New Roman,serif" font-size="14.00">LacticAcid (1)</text>
</g>
<!-- 8794229938327540079&#45;&gt;5659693541288529527 -->
<g id="edge3" class="edge"><title>8794229938327540079&#45;&gt;5659693541288529527</title>
<path fill="none" stroke="black" stroke-width="1.29585" d="M233.018,-191.46C172.13,-191.561 44.0493,-187.876 16.3407,-156 7.73968,-146.105 14.1944,-136.553 25.5591,-128.495"/>
<polygon fill="black" stroke="black" stroke-width="1.29585" points="27.4587,-131.435 34.0867,-123.169 23.7509,-125.498 27.4587,-131.435"/>
<text text-anchor="middle" x="69.3407" y="-144.8" font-family="Times New Roman,serif" font-size="14.00">629.423111206616</text>
</g>
<!-- 8794229938327540079&#45;&gt;&#45;4990305070490083274 -->
<g id="edge4" class="edge"><title>8794229938327540079&#45;&gt;&#45;4990305070490083274</title>
<path fill="none" stroke="black" stroke-width="2.22189" d="M265.341,-173.879C265.341,-144.001 265.341,-82.1129 265.341,-46.2736"/>
<polygon fill="black" stroke="black" stroke-width="2.22189" points="268.841,-46.0516 265.341,-36.0516 261.841,-46.0516 268.841,-46.0516"/>
<text text-anchor="middle" x="324.841" y="-101.3" font-family="Times New Roman,serif" font-size="14.00">1444.8890343645814</text>
</g>
<!-- 4941573644585563234 -->
<g id="node3" class="node"><title>4941573644585563234</title>
<polygon fill="#ffffff" stroke="black" points="698.841,-471 573.841,-471 573.841,-435 698.841,-435 698.841,-471"/>
<text text-anchor="middle" x="636.341" y="-449.3" font-family="Times New Roman,serif" font-size="14.00">ER Registration (1)</text>
</g>
<!-- 7781181950460006610 -->
<g id="node5" class="node"><title>7781181950460006610</title>
<polygon fill="#ffffff" stroke="black" points="682.841,-384 589.841,-384 589.841,-348 682.841,-348 682.841,-384"/>
<text text-anchor="middle" x="636.341" y="-362.3" font-family="Times New Roman,serif" font-size="14.00">ER Triage (1)</text>
</g>
<!-- 4941573644585563234&#45;&gt;7781181950460006610 -->
<g id="edge5" class="edge"><title>4941573644585563234&#45;&gt;7781181950460006610</title>
<path fill="none" stroke="black" stroke-width="1.68374" d="M636.341,-434.799C636.341,-423.163 636.341,-407.548 636.341,-394.237"/>
<polygon fill="black" stroke="black" stroke-width="1.68374" points="639.841,-394.175 636.341,-384.175 632.841,-394.175 639.841,-394.175"/>
<text text-anchor="middle" x="692.341" y="-405.8" font-family="Times New Roman,serif" font-size="14.00">970.9984874819264</text>
</g>
<!-- &#45;1916228938975785919 -->
<g id="node4" class="node"><title>&#45;1916228938975785919</title>
<polygon fill="#ffffff" stroke="black" points="703.341,-297 569.341,-297 569.341,-261 703.341,-261 703.341,-297"/>
<text text-anchor="middle" x="636.341" y="-275.3" font-family="Times New Roman,serif" font-size="14.00">ER Sepsis Triage (1)</text>
</g>
<!-- 7781181950460006610&#45;&gt;&#45;1916228938975785919 -->
<g id="edge6" class="edge"><title>7781181950460006610&#45;&gt;&#45;1916228938975785919</title>
<path fill="none" stroke="black" stroke-width="1.60865" d="M636.341,-347.799C636.341,-336.163 636.341,-320.548 636.341,-307.237"/>
<polygon fill="black" stroke="black" stroke-width="1.60865" points="639.841,-307.175 636.341,-297.175 632.841,-307.175 639.841,-307.175"/>
<text text-anchor="middle" x="692.341" y="-318.8" font-family="Times New Roman,serif" font-size="14.00">904.8673665977955</text>
</g>
<!-- 1341266047991071662 -->
<g id="node6" class="node"><title>1341266047991071662</title>
<polygon fill="#ffffff" stroke="black" points="548.841,-384 433.841,-384 433.841,-348 548.841,-348 548.841,-384"/>
<text text-anchor="middle" x="491.341" y="-362.3" font-family="Times New Roman,serif" font-size="14.00">IV Antibiotics (1)</text>
</g>
<!-- 1341266047991071662&#45;&gt;9118780525858573852 -->
<g id="edge7" class="edge"><title>1341266047991071662&#45;&gt;9118780525858573852</title>
<path fill="none" stroke="black" stroke-width="1.13634" d="M491.341,-347.799C491.341,-336.163 491.341,-320.548 491.341,-307.237"/>
<polygon fill="black" stroke="black" stroke-width="1.13634" points="494.841,-307.175 491.341,-297.175 487.841,-307.175 494.841,-307.175"/>
<text text-anchor="middle" x="550.841" y="-318.8" font-family="Times New Roman,serif" font-size="14.00">488.95863186136273</text>
</g>
<!-- 1513237216211266658 -->
<g id="node7" class="node"><title>1513237216211266658</title>
<polygon fill="#ffffff" stroke="black" points="536.341,-471 446.341,-471 446.341,-435 536.341,-435 536.341,-471"/>
<text text-anchor="middle" x="491.341" y="-449.3" font-family="Times New Roman,serif" font-size="14.00">IV Liquid (1)</text>
</g>
<!-- 1513237216211266658&#45;&gt;1341266047991071662 -->
<g id="edge8" class="edge"><title>1513237216211266658&#45;&gt;1341266047991071662</title>
<path fill="none" stroke="black" stroke-width="1.15024" d="M491.341,-434.799C491.341,-423.163 491.341,-407.548 491.341,-394.237"/>
<polygon fill="black" stroke="black" stroke-width="1.15024" points="494.841,-394.175 491.341,-384.175 487.841,-394.175 494.841,-394.175"/>
<text text-anchor="middle" x="547.341" y="-405.8" font-family="Times New Roman,serif" font-size="14.00">501.1958589332698</text>
</g>
<!-- 5659693541288529527&#45;&gt;8794229938327540079 -->
<g id="edge9" class="edge"><title>5659693541288529527&#45;&gt;8794229938327540079</title>
<path fill="none" stroke="black" stroke-width="1.03986" d="M99.1108,-123.095C117.22,-136.589 140.325,-153.544 145.341,-156 169.957,-168.057 199.495,-176.736 223.105,-182.436"/>
<polygon fill="black" stroke="black" stroke-width="1.03986" points="222.63,-185.919 233.162,-184.772 224.214,-179.1 222.63,-185.919"/>
<text text-anchor="middle" x="198.341" y="-144.8" font-family="Times New Roman,serif" font-size="14.00">403.996818390179</text>
</g>
<!-- 5659693541288529527&#45;&gt;&#45;4990305070490083274 -->
<g id="edge10" class="edge"><title>5659693541288529527&#45;&gt;&#45;4990305070490083274</title>
<path fill="none" stroke="black" stroke-width="1.22283" d="M27.2751,-88.5137C7.63795,-79.7874 -7.78406,-67.8592 4.34071,-54 29.7881,-24.9123 135.464,-18.9795 204.297,-18.3044"/>
<polygon fill="black" stroke="black" stroke-width="1.22283" points="204.613,-21.8026 214.591,-18.2395 204.569,-14.8027 204.613,-21.8026"/>
<text text-anchor="middle" x="60.3407" y="-57.8" font-family="Times New Roman,serif" font-size="14.00">565.1167986421307</text>
</g>
<!-- &#45;4990305070490083274&#45;&gt;8794229938327540079 -->
<g id="edge11" class="edge"><title>&#45;4990305070490083274&#45;&gt;8794229938327540079</title>
<path fill="none" stroke="black" stroke-width="2.6" d="M315.074,-36.1523C358.342,-54.0524 410.858,-84.8222 388.341,-123 370.932,-152.517 335.606,-170.113 307.261,-179.985"/>
<polygon fill="black" stroke="black" stroke-width="2.6" points="305.979,-176.721 297.566,-183.161 308.159,-183.373 305.979,-176.721"/>
<text text-anchor="middle" x="453.841" y="-101.3" font-family="Times New Roman,serif" font-size="14.00">1777.8549213336723</text>
</g>
<!-- &#45;4990305070490083274&#45;&gt;5659693541288529527 -->
<g id="edge12" class="edge"><title>&#45;4990305070490083274&#45;&gt;5659693541288529527</title>
<path fill="none" stroke="black" stroke-width="1.07519" d="M214.564,-28.2335C190.881,-33.7453 162.81,-42.0517 139.341,-54 131.818,-57.8298 117.349,-69.1949 104.172,-80.1234"/>
<polygon fill="black" stroke="black" stroke-width="1.07519" points="101.623,-77.6933 96.2084,-86.8002 106.12,-83.0574 101.623,-77.6933"/>
<text text-anchor="middle" x="195.341" y="-57.8" font-family="Times New Roman,serif" font-size="14.00">435.1074016055278</text>
</g>
<!-- &#45;4990305070490083274&#45;&gt;&#45;4990305070490083274 -->
<g id="edge13" class="edge"><title>&#45;4990305070490083274&#45;&gt;&#45;4990305070490083274</title>
<path fill="none" stroke="black" stroke-width="1.10123" d="M316.125,-25.5746C326.448,-24.7495 333.841,-22.2246 333.841,-18 333.841,-15.3596 330.953,-13.3832 326.267,-12.0707"/>
<polygon fill="black" stroke="black" stroke-width="1.10123" points="326.556,-8.57199 316.125,-10.4254 325.435,-15.4817 326.556,-8.57199"/>
<text text-anchor="middle" x="389.841" y="-14.3" font-family="Times New Roman,serif" font-size="14.00">458.0346881687314</text>
</g>
</g>
</svg>
