<?xml version="1.0" encoding="UTF-8" standalone="no"?>
<!DOCTYPE svg PUBLIC "-//W3C//DTD SVG 1.1//EN"
 "http://www.w3.org/Graphics/SVG/1.1/DTD/svg11.dtd">
<!-- Generated by graphviz version 2.38.0 (20140413.2041)
 -->
<!-- Title: %3 Pages: 1 -->
<svg width="742pt" height="479pt"
 viewBox="0.00 0.00 742.25 479.00" xmlns="http://www.w3.org/2000/svg" xmlns:xlink="http://www.w3.org/1999/xlink">
<g id="graph0" class="graph" transform="scale(1 1) rotate(0) translate(4 475)">
<title>%3</title>
<!-- 118450489566830562 -->
<g id="node1" class="node"><title>118450489566830562</title>
<polygon fill="#ffffff" stroke="black" points="536.753,-297 417.753,-297 417.753,-261 536.753,-261 536.753,-297"/>
<text text-anchor="middle" x="477.253" y="-275.3" font-family="Times New Roman,serif" font-size="14.00">Admission NC (1)</text>
</g>
<!-- 4941769122289558835 -->
<g id="node2" class="node"><title>4941769122289558835</title>
<polygon fill="#ffffff" stroke="black" points="298.253,-210 234.253,-210 234.253,-174 298.253,-174 298.253,-210"/>
<text text-anchor="middle" x="266.253" y="-188.3" font-family="Times New Roman,serif" font-size="14.00">CRP (1)</text>
</g>
<!-- 118450489566830562&#45;&gt;4941769122289558835 -->
<g id="edge1" class="edge"><title>118450489566830562&#45;&gt;4941769122289558835</title>
<path fill="none" stroke="black" d="M434.807,-260.901C397.8,-245.993 344.441,-224.498 307.724,-209.707"/>
<polygon fill="black" stroke="black" points="308.886,-206.402 298.303,-205.911 306.271,-212.894 308.886,-206.402"/>
<text text-anchor="middle" x="444.753" y="-231.8" font-family="Times New Roman,serif" font-size="14.00">368.28228768878677</text>
</g>
<!-- 6570115252564267433 -->
<g id="node9" class="node"><title>6570115252564267433</title>
<polygon fill="#ffffff" stroke="black" points="316.753,-36 215.753,-36 215.753,-0 316.753,-0 316.753,-36"/>
<text text-anchor="middle" x="266.253" y="-14.3" font-family="Times New Roman,serif" font-size="14.00">Leucocytes (1)</text>
</g>
<!-- 118450489566830562&#45;&gt;6570115252564267433 -->
<g id="edge2" class="edge"><title>118450489566830562&#45;&gt;6570115252564267433</title>
<path fill="none" stroke="black" stroke-width="1.04282" d="M496.833,-260.831C501.467,-255.619 505.778,-249.527 508.253,-243 524.751,-199.489 639.923,-262.824 498.253,-87 476.737,-60.2976 388.167,-39.9786 326.909,-28.7732"/>
<polygon fill="black" stroke="black" stroke-width="1.04282" points="327.409,-25.3071 316.948,-26.987 326.173,-32.1972 327.409,-25.3071"/>
<text text-anchor="middle" x="602.253" y="-144.8" font-family="Times New Roman,serif" font-size="14.00">405.857305426058</text>
</g>
<!-- &#45;5670009864185339888 -->
<g id="node8" class="node"><title>&#45;5670009864185339888</title>
<polygon fill="#ffffff" stroke="black" points="120.253,-123 22.2525,-123 22.2525,-87 120.253,-87 120.253,-123"/>
<text text-anchor="middle" x="71.2525" y="-101.3" font-family="Times New Roman,serif" font-size="14.00">LacticAcid (1)</text>
</g>
<!-- 4941769122289558835&#45;&gt;&#45;5670009864185339888 -->
<g id="edge3" class="edge"><title>4941769122289558835&#45;&gt;&#45;5670009864185339888</title>
<path fill="none" stroke="black" stroke-width="1.30043" d="M234.119,-191.581C172.173,-191.94 39.8157,-188.751 11.2525,-156 2.63546,-146.119 9.08625,-136.57 20.4523,-128.511"/>
<polygon fill="black" stroke="black" stroke-width="1.30043" points="22.3539,-131.45 28.9816,-123.184 18.6458,-125.513 22.3539,-131.45"/>
<text text-anchor="middle" x="64.2525" y="-144.8" font-family="Times New Roman,serif" font-size="14.00">631.937463292585</text>
</g>
<!-- 4941769122289558835&#45;&gt;6570115252564267433 -->
<g id="edge4" class="edge"><title>4941769122289558835&#45;&gt;6570115252564267433</title>
<path fill="none" stroke="black" stroke-width="2.22349" d="M266.253,-173.879C266.253,-144.001 266.253,-82.1129 266.253,-46.2736"/>
<polygon fill="black" stroke="black" stroke-width="2.22349" points="269.753,-46.0516 266.253,-36.0516 262.753,-46.0516 269.753,-46.0516"/>
<text text-anchor="middle" x="319.253" y="-101.3" font-family="Times New Roman,serif" font-size="14.00">1442.01097103443</text>
</g>
<!-- &#45;1744131764726653331 -->
<g id="node3" class="node"><title>&#45;1744131764726653331</title>
<polygon fill="#ffffff" stroke="black" points="684.753,-471 559.753,-471 559.753,-435 684.753,-435 684.753,-471"/>
<text text-anchor="middle" x="622.253" y="-449.3" font-family="Times New Roman,serif" font-size="14.00">ER Registration (1)</text>
</g>
<!-- &#45;8305476247514553090 -->
<g id="node5" class="node"><title>&#45;8305476247514553090</title>
<polygon fill="#ffffff" stroke="black" points="668.753,-384 575.753,-384 575.753,-348 668.753,-348 668.753,-384"/>
<text text-anchor="middle" x="622.253" y="-362.3" font-family="Times New Roman,serif" font-size="14.00">ER Triage (1)</text>
</g>
<!-- &#45;1744131764726653331&#45;&gt;&#45;8305476247514553090 -->
<g id="edge5" class="edge"><title>&#45;1744131764726653331&#45;&gt;&#45;8305476247514553090</title>
<path fill="none" stroke="black" stroke-width="1.68546" d="M622.253,-434.799C622.253,-423.163 622.253,-407.548 622.253,-394.237"/>
<polygon fill="black" stroke="black" stroke-width="1.68546" points="625.753,-394.175 622.253,-384.175 618.753,-394.175 625.753,-394.175"/>
<text text-anchor="middle" x="678.253" y="-405.8" font-family="Times New Roman,serif" font-size="14.00">969.8397881281624</text>
</g>
<!-- 3296544575651183754 -->
<g id="node4" class="node"><title>3296544575651183754</title>
<polygon fill="#ffffff" stroke="black" points="689.253,-297 555.253,-297 555.253,-261 689.253,-261 689.253,-297"/>
<text text-anchor="middle" x="622.253" y="-275.3" font-family="Times New Roman,serif" font-size="14.00">ER Sepsis Triage (1)</text>
</g>
<!-- &#45;8305476247514553090&#45;&gt;3296544575651183754 -->
<g id="edge6" class="edge"><title>&#45;8305476247514553090&#45;&gt;3296544575651183754</title>
<path fill="none" stroke="black" stroke-width="1.61074" d="M622.253,-347.799C622.253,-336.163 622.253,-320.548 622.253,-307.237"/>
<polygon fill="black" stroke="black" stroke-width="1.61074" points="625.753,-307.175 622.253,-297.175 618.753,-307.175 625.753,-307.175"/>
<text text-anchor="middle" x="678.253" y="-318.8" font-family="Times New Roman,serif" font-size="14.00">904.2653715869264</text>
</g>
<!-- &#45;8429177058128869877 -->
<g id="node6" class="node"><title>&#45;8429177058128869877</title>
<polygon fill="#ffffff" stroke="black" points="534.753,-384 419.753,-384 419.753,-348 534.753,-348 534.753,-384"/>
<text text-anchor="middle" x="477.253" y="-362.3" font-family="Times New Roman,serif" font-size="14.00">IV Antibiotics (1)</text>
</g>
<!-- &#45;8429177058128869877&#45;&gt;118450489566830562 -->
<g id="edge7" class="edge"><title>&#45;8429177058128869877&#45;&gt;118450489566830562</title>
<path fill="none" stroke="black" stroke-width="1.13759" d="M477.253,-347.799C477.253,-336.163 477.253,-320.548 477.253,-307.237"/>
<polygon fill="black" stroke="black" stroke-width="1.13759" points="480.753,-307.175 477.253,-297.175 473.753,-307.175 480.753,-307.175"/>
<text text-anchor="middle" x="536.753" y="-318.8" font-family="Times New Roman,serif" font-size="14.00">489.03383441201265</text>
</g>
<!-- 6215314419735287562 -->
<g id="node7" class="node"><title>6215314419735287562</title>
<polygon fill="#ffffff" stroke="black" points="522.253,-471 432.253,-471 432.253,-435 522.253,-435 522.253,-471"/>
<text text-anchor="middle" x="477.253" y="-449.3" font-family="Times New Roman,serif" font-size="14.00">IV Liquid (1)</text>
</g>
<!-- 6215314419735287562&#45;&gt;&#45;8429177058128869877 -->
<g id="edge8" class="edge"><title>6215314419735287562&#45;&gt;&#45;8429177058128869877</title>
<path fill="none" stroke="black" stroke-width="1.14965" d="M477.253,-434.799C477.253,-423.163 477.253,-407.548 477.253,-394.237"/>
<polygon fill="black" stroke="black" stroke-width="1.14965" points="480.753,-394.175 477.253,-384.175 473.753,-394.175 480.753,-394.175"/>
<text text-anchor="middle" x="533.253" y="-405.8" font-family="Times New Roman,serif" font-size="14.00">499.6142028861965</text>
</g>
<!-- &#45;5670009864185339888&#45;&gt;4941769122289558835 -->
<g id="edge9" class="edge"><title>&#45;5670009864185339888&#45;&gt;4941769122289558835</title>
<path fill="none" stroke="black" stroke-width="1.03997" d="M94.0147,-123.111C112.119,-136.616 135.221,-153.576 140.253,-156 166.857,-168.819 198.956,-177.647 224.098,-183.231"/>
<polygon fill="black" stroke="black" stroke-width="1.03997" points="223.55,-186.693 234.06,-185.356 225.01,-179.847 223.55,-186.693"/>
<text text-anchor="middle" x="196.253" y="-144.8" font-family="Times New Roman,serif" font-size="14.00">403.3608913707338</text>
</g>
<!-- &#45;5670009864185339888&#45;&gt;6570115252564267433 -->
<g id="edge10" class="edge"><title>&#45;5670009864185339888&#45;&gt;6570115252564267433</title>
<path fill="none" stroke="black" stroke-width="1.22368" d="M23.1063,-86.8612C5.88073,-78.1224 -6.83628,-66.6686 4.25253,-54 29.839,-24.7682 136.18,-18.893 205.269,-18.2661"/>
<polygon fill="black" stroke="black" stroke-width="1.22368" points="205.618,-21.7643 215.598,-18.2085 205.579,-14.7644 205.618,-21.7643"/>
<text text-anchor="middle" x="57.2525" y="-57.8" font-family="Times New Roman,serif" font-size="14.00">564.580332466317</text>
</g>
<!-- 6570115252564267433&#45;&gt;4941769122289558835 -->
<g id="edge11" class="edge"><title>6570115252564267433&#45;&gt;4941769122289558835</title>
<path fill="none" stroke="black" stroke-width="2.6" d="M315.009,-36.1243C337.936,-46.9188 363.079,-63.3696 376.253,-87 384.043,-100.975 384.043,-109.025 376.253,-123 361.68,-149.141 332.457,-166.496 307.793,-177.127"/>
<polygon fill="black" stroke="black" stroke-width="2.6" points="306.199,-173.997 298.257,-181.01 308.838,-180.48 306.199,-173.997"/>
<text text-anchor="middle" x="438.253" y="-101.3" font-family="Times New Roman,serif" font-size="14.00">1772.438463742267</text>
</g>
<!-- 6570115252564267433&#45;&gt;&#45;5670009864185339888 -->
<g id="edge12" class="edge"><title>6570115252564267433&#45;&gt;&#45;5670009864185339888</title>
<path fill="none" stroke="black" stroke-width="1.07809" d="M215.496,-27.1283C189.902,-32.5064 158.93,-41.0215 133.253,-54 125.792,-57.7709 111.549,-69.1328 98.5941,-80.0742"/>
<polygon fill="black" stroke="black" stroke-width="1.07809" points="96.0967,-77.6044 90.7665,-86.7609 100.643,-82.9269 96.0967,-77.6044"/>
<text text-anchor="middle" x="192.753" y="-57.8" font-family="Times New Roman,serif" font-size="14.00">436.81759745846455</text>
</g>
<!-- 6570115252564267433&#45;&gt;6570115252564267433 -->
<g id="edge13" class="edge"><title>6570115252564267433&#45;&gt;6570115252564267433</title>
<path fill="none" stroke="black" stroke-width="1.10083" d="M317.036,-25.5746C327.36,-24.7495 334.753,-22.2246 334.753,-18 334.753,-15.3596 331.865,-13.3832 327.179,-12.0707"/>
<polygon fill="black" stroke="black" stroke-width="1.10083" points="327.468,-8.57199 317.036,-10.4254 326.347,-15.4817 327.468,-8.57199"/>
<text text-anchor="middle" x="390.753" y="-14.3" font-family="Times New Roman,serif" font-size="14.00">456.7678064683787</text>
</g>
</g>
</svg>
