<?xml version="1.0" encoding="UTF-8" standalone="no"?>
<!DOCTYPE svg PUBLIC "-//W3C//DTD SVG 1.1//EN"
 "http://www.w3.org/Graphics/SVG/1.1/DTD/svg11.dtd">
<!-- Generated by graphviz version 2.38.0 (20140413.2041)
 -->
<!-- Title: %3 Pages: 1 -->
<svg width="753pt" height="479pt"
 viewBox="0.00 0.00 753.29 479.00" xmlns="http://www.w3.org/2000/svg" xmlns:xlink="http://www.w3.org/1999/xlink">
<g id="graph0" class="graph" transform="scale(1 1) rotate(0) translate(4 475)">
<title>%3</title>
<!-- &#45;6760735685208204671 -->
<g id="node1" class="node"><title>&#45;6760735685208204671</title>
<polygon fill="#ffffff" stroke="black" points="547.789,-297 428.789,-297 428.789,-261 547.789,-261 547.789,-297"/>
<text text-anchor="middle" x="488.289" y="-275.3" font-family="Times New Roman,serif" font-size="14.00">Admission NC (1)</text>
</g>
<!-- 7850561497370058999 -->
<g id="node2" class="node"><title>7850561497370058999</title>
<polygon fill="#ffffff" stroke="black" points="304.289,-210 240.289,-210 240.289,-174 304.289,-174 304.289,-210"/>
<text text-anchor="middle" x="272.289" y="-188.3" font-family="Times New Roman,serif" font-size="14.00">CRP (1)</text>
</g>
<!-- &#45;6760735685208204671&#45;&gt;7850561497370058999 -->
<g id="edge1" class="edge"><title>&#45;6760735685208204671&#45;&gt;7850561497370058999</title>
<path fill="none" stroke="black" d="M444.838,-260.901C406.727,-245.904 351.677,-224.241 314.072,-209.442"/>
<polygon fill="black" stroke="black" points="315.019,-206.054 304.432,-205.649 312.456,-212.568 315.019,-206.054"/>
<text text-anchor="middle" x="449.289" y="-231.8" font-family="Times New Roman,serif" font-size="14.00">368.3208542763217</text>
</g>
<!-- 6179918396602481755 -->
<g id="node9" class="node"><title>6179918396602481755</title>
<polygon fill="#ffffff" stroke="black" points="322.789,-36 221.789,-36 221.789,-0 322.789,-0 322.789,-36"/>
<text text-anchor="middle" x="272.289" y="-14.3" font-family="Times New Roman,serif" font-size="14.00">Leucocytes (1)</text>
</g>
<!-- &#45;6760735685208204671&#45;&gt;6179918396602481755 -->
<g id="edge2" class="edge"><title>&#45;6760735685208204671&#45;&gt;6179918396602481755</title>
<path fill="none" stroke="black" stroke-width="1.04891" d="M501.147,-260.68C504.452,-255.287 507.561,-249.139 509.289,-243 528.075,-176.259 552.042,-142.353 510.289,-87 488.918,-58.6683 396.056,-38.5895 332.847,-27.9074"/>
<polygon fill="black" stroke="black" stroke-width="1.04891" points="333.409,-24.453 322.972,-26.2739 332.267,-31.3591 333.409,-24.453"/>
<text text-anchor="middle" x="593.789" y="-144.8" font-family="Times New Roman,serif" font-size="14.00">411.49908680221523</text>
</g>
<!-- 1152587832168206417 -->
<g id="node8" class="node"><title>1152587832168206417</title>
<polygon fill="#ffffff" stroke="black" points="122.289,-123 24.2887,-123 24.2887,-87 122.289,-87 122.289,-123"/>
<text text-anchor="middle" x="73.2887" y="-101.3" font-family="Times New Roman,serif" font-size="14.00">LacticAcid (1)</text>
</g>
<!-- 7850561497370058999&#45;&gt;1152587832168206417 -->
<g id="edge3" class="edge"><title>7850561497370058999&#45;&gt;1152587832168206417</title>
<path fill="none" stroke="black" stroke-width="1.29589" d="M240.256,-191.715C177.05,-192.366 39.8333,-189.754 10.2887,-156 1.47121,-145.926 8.09455,-136.385 19.8299,-128.39"/>
<polygon fill="black" stroke="black" stroke-width="1.29589" points="21.8609,-131.254 28.6442,-123.115 18.2661,-125.247 21.8609,-131.254"/>
<text text-anchor="middle" x="63.2887" y="-144.8" font-family="Times New Roman,serif" font-size="14.00">629.548934329121</text>
</g>
<!-- 7850561497370058999&#45;&gt;6179918396602481755 -->
<g id="edge4" class="edge"><title>7850561497370058999&#45;&gt;6179918396602481755</title>
<path fill="none" stroke="black" stroke-width="2.21795" d="M272.289,-173.879C272.289,-144.001 272.289,-82.1129 272.289,-46.2736"/>
<polygon fill="black" stroke="black" stroke-width="2.21795" points="275.789,-46.0516 272.289,-36.0516 268.789,-46.0516 275.789,-46.0516"/>
<text text-anchor="middle" x="328.289" y="-101.3" font-family="Times New Roman,serif" font-size="14.00">1443.579795666994</text>
</g>
<!-- &#45;2410219256766748193 -->
<g id="node3" class="node"><title>&#45;2410219256766748193</title>
<polygon fill="#ffffff" stroke="black" points="695.789,-471 570.789,-471 570.789,-435 695.789,-435 695.789,-471"/>
<text text-anchor="middle" x="633.289" y="-449.3" font-family="Times New Roman,serif" font-size="14.00">ER Registration (1)</text>
</g>
<!-- &#45;2872325205858232948 -->
<g id="node5" class="node"><title>&#45;2872325205858232948</title>
<polygon fill="#ffffff" stroke="black" points="679.789,-384 586.789,-384 586.789,-348 679.789,-348 679.789,-384"/>
<text text-anchor="middle" x="633.289" y="-362.3" font-family="Times New Roman,serif" font-size="14.00">ER Triage (1)</text>
</g>
<!-- &#45;2410219256766748193&#45;&gt;&#45;2872325205858232948 -->
<g id="edge5" class="edge"><title>&#45;2410219256766748193&#45;&gt;&#45;2872325205858232948</title>
<path fill="none" stroke="black" stroke-width="1.68195" d="M633.289,-434.799C633.289,-423.163 633.289,-407.548 633.289,-394.237"/>
<polygon fill="black" stroke="black" stroke-width="1.68195" points="636.789,-394.175 633.289,-384.175 629.789,-394.175 636.789,-394.175"/>
<text text-anchor="middle" x="689.289" y="-405.8" font-family="Times New Roman,serif" font-size="14.00">970.3738300451148</text>
</g>
<!-- 8892003065059452103 -->
<g id="node4" class="node"><title>8892003065059452103</title>
<polygon fill="#ffffff" stroke="black" points="700.289,-297 566.289,-297 566.289,-261 700.289,-261 700.289,-297"/>
<text text-anchor="middle" x="633.289" y="-275.3" font-family="Times New Roman,serif" font-size="14.00">ER Sepsis Triage (1)</text>
</g>
<!-- &#45;2872325205858232948&#45;&gt;8892003065059452103 -->
<g id="edge6" class="edge"><title>&#45;2872325205858232948&#45;&gt;8892003065059452103</title>
<path fill="none" stroke="black" stroke-width="1.606" d="M633.289,-347.799C633.289,-336.163 633.289,-320.548 633.289,-307.237"/>
<polygon fill="black" stroke="black" stroke-width="1.606" points="636.789,-307.175 633.289,-297.175 629.789,-307.175 636.789,-307.175"/>
<text text-anchor="middle" x="689.289" y="-318.8" font-family="Times New Roman,serif" font-size="14.00">903.3208370386726</text>
</g>
<!-- &#45;6564841300794043563 -->
<g id="node6" class="node"><title>&#45;6564841300794043563</title>
<polygon fill="#ffffff" stroke="black" points="545.789,-384 430.789,-384 430.789,-348 545.789,-348 545.789,-384"/>
<text text-anchor="middle" x="488.289" y="-362.3" font-family="Times New Roman,serif" font-size="14.00">IV Antibiotics (1)</text>
</g>
<!-- &#45;6564841300794043563&#45;&gt;&#45;6760735685208204671 -->
<g id="edge7" class="edge"><title>&#45;6564841300794043563&#45;&gt;&#45;6760735685208204671</title>
<path fill="none" stroke="black" stroke-width="1.1329" d="M488.289,-347.799C488.289,-336.163 488.289,-320.548 488.289,-307.237"/>
<polygon fill="black" stroke="black" stroke-width="1.1329" points="491.789,-307.175 488.289,-297.175 484.789,-307.175 491.789,-307.175"/>
<text text-anchor="middle" x="547.789" y="-318.8" font-family="Times New Roman,serif" font-size="14.00">485.64852927291844</text>
</g>
<!-- &#45;1926219633770359302 -->
<g id="node7" class="node"><title>&#45;1926219633770359302</title>
<polygon fill="#ffffff" stroke="black" points="533.289,-471 443.289,-471 443.289,-435 533.289,-435 533.289,-471"/>
<text text-anchor="middle" x="488.289" y="-449.3" font-family="Times New Roman,serif" font-size="14.00">IV Liquid (1)</text>
</g>
<!-- &#45;1926219633770359302&#45;&gt;&#45;6564841300794043563 -->
<g id="edge8" class="edge"><title>&#45;1926219633770359302&#45;&gt;&#45;6564841300794043563</title>
<path fill="none" stroke="black" stroke-width="1.15082" d="M488.289,-434.799C488.289,-423.163 488.289,-407.548 488.289,-394.237"/>
<polygon fill="black" stroke="black" stroke-width="1.15082" points="491.789,-394.175 488.289,-384.175 484.789,-394.175 491.789,-394.175"/>
<text text-anchor="middle" x="547.789" y="-405.8" font-family="Times New Roman,serif" font-size="14.00">501.46776268194446</text>
</g>
<!-- 1152587832168206417&#45;&gt;7850561497370058999 -->
<g id="edge9" class="edge"><title>1152587832168206417&#45;&gt;7850561497370058999</title>
<path fill="none" stroke="black" stroke-width="1.04021" d="M94.1469,-123.218C109.712,-135.792 129.852,-151.409 139.289,-156 168.131,-170.033 203.327,-178.976 230.266,-184.307"/>
<polygon fill="black" stroke="black" stroke-width="1.04021" points="229.68,-187.758 240.156,-186.176 230.98,-180.88 229.68,-187.758"/>
<text text-anchor="middle" x="198.789" y="-144.8" font-family="Times New Roman,serif" font-size="14.00">403.81821917290625</text>
</g>
<!-- 1152587832168206417&#45;&gt;6179918396602481755 -->
<g id="edge10" class="edge"><title>1152587832168206417&#45;&gt;6179918396602481755</title>
<path fill="none" stroke="black" stroke-width="1.22255" d="M24.2528,-87.2896C6.3008,-78.5691 -7.13043,-67.0074 4.28867,-54 30.6962,-23.9195 140.937,-18.3878 211.542,-18.0442"/>
<polygon fill="black" stroke="black" stroke-width="1.22255" points="211.662,-21.5441 221.656,-18.0289 211.651,-14.5441 211.662,-21.5441"/>
<text text-anchor="middle" x="60.2887" y="-57.8" font-family="Times New Roman,serif" font-size="14.00">564.7936633920774</text>
</g>
<!-- 6179918396602481755&#45;&gt;7850561497370058999 -->
<g id="edge11" class="edge"><title>6179918396602481755&#45;&gt;7850561497370058999</title>
<path fill="none" stroke="black" stroke-width="2.6" d="M318.068,-36.0649C359.112,-54.2127 409.803,-85.4502 388.289,-123 372.372,-150.781 340.213,-168.313 313.785,-178.604"/>
<polygon fill="black" stroke="black" stroke-width="2.6" points="312.526,-175.337 304.348,-182.073 314.942,-181.907 312.526,-175.337"/>
<text text-anchor="middle" x="450.289" y="-101.3" font-family="Times New Roman,serif" font-size="14.00">1780.869493087016</text>
</g>
<!-- 6179918396602481755&#45;&gt;1152587832168206417 -->
<g id="edge12" class="edge"><title>6179918396602481755&#45;&gt;1152587832168206417</title>
<path fill="none" stroke="black" stroke-width="1.07559" d="M221.695,-27.4568C196.144,-32.9202 165.16,-41.4124 139.289,-54 131.401,-57.8379 116.033,-69.3808 102.11,-80.4096"/>
<polygon fill="black" stroke="black" stroke-width="1.07559" points="99.7681,-77.801 94.1469,-86.7817 104.142,-83.2665 99.7681,-77.801"/>
<text text-anchor="middle" x="198.789" y="-57.8" font-family="Times New Roman,serif" font-size="14.00">435.05374270719574</text>
</g>
<!-- 6179918396602481755&#45;&gt;6179918396602481755 -->
<g id="edge13" class="edge"><title>6179918396602481755&#45;&gt;6179918396602481755</title>
<path fill="none" stroke="black" stroke-width="1.09962" d="M323.073,-25.5746C333.396,-24.7495 340.789,-22.2246 340.789,-18 340.789,-15.3596 337.901,-13.3832 333.215,-12.0707"/>
<polygon fill="black" stroke="black" stroke-width="1.09962" points="333.504,-8.57199 323.073,-10.4254 332.383,-15.4817 333.504,-8.57199"/>
<text text-anchor="middle" x="396.789" y="-14.3" font-family="Times New Roman,serif" font-size="14.00">456.2712490207157</text>
</g>
</g>
</svg>
