<?xml version="1.0" encoding="UTF-8" standalone="no"?>
<!DOCTYPE svg PUBLIC "-//W3C//DTD SVG 1.1//EN"
 "http://www.w3.org/Graphics/SVG/1.1/DTD/svg11.dtd">
<!-- Generated by graphviz version 2.38.0 (20140413.2041)
 -->
<!-- Title: %3 Pages: 1 -->
<svg width="753pt" height="479pt"
 viewBox="0.00 0.00 753.41 479.00" xmlns="http://www.w3.org/2000/svg" xmlns:xlink="http://www.w3.org/1999/xlink">
<g id="graph0" class="graph" transform="scale(1 1) rotate(0) translate(4 475)">
<title>%3</title>
<!-- 9118780525858573852 -->
<g id="node1" class="node"><title>9118780525858573852</title>
<polygon fill="#ffffff" stroke="black" points="547.908,-297 428.908,-297 428.908,-261 547.908,-261 547.908,-297"/>
<text text-anchor="middle" x="488.408" y="-275.3" font-family="Times New Roman,serif" font-size="14.00">Admission NC (1)</text>
</g>
<!-- 8794229938327540079 -->
<g id="node2" class="node"><title>8794229938327540079</title>
<polygon fill="#ffffff" stroke="black" points="304.408,-210 240.408,-210 240.408,-174 304.408,-174 304.408,-210"/>
<text text-anchor="middle" x="272.408" y="-188.3" font-family="Times New Roman,serif" font-size="14.00">CRP (1)</text>
</g>
<!-- 9118780525858573852&#45;&gt;8794229938327540079 -->
<g id="edge1" class="edge"><title>9118780525858573852&#45;&gt;8794229938327540079</title>
<path fill="none" stroke="black" d="M444.957,-260.901C406.846,-245.904 351.797,-224.241 314.191,-209.442"/>
<polygon fill="black" stroke="black" points="315.139,-206.054 304.551,-205.649 312.575,-212.568 315.139,-206.054"/>
<text text-anchor="middle" x="449.408" y="-231.8" font-family="Times New Roman,serif" font-size="14.00">368.9866035981335</text>
</g>
<!-- &#45;4990305070490083274 -->
<g id="node9" class="node"><title>&#45;4990305070490083274</title>
<polygon fill="#ffffff" stroke="black" points="322.908,-36 221.908,-36 221.908,-0 322.908,-0 322.908,-36"/>
<text text-anchor="middle" x="272.408" y="-14.3" font-family="Times New Roman,serif" font-size="14.00">Leucocytes (1)</text>
</g>
<!-- 9118780525858573852&#45;&gt;&#45;4990305070490083274 -->
<g id="edge2" class="edge"><title>9118780525858573852&#45;&gt;&#45;4990305070490083274</title>
<path fill="none" stroke="black" stroke-width="1.04467" d="M501.266,-260.68C504.571,-255.287 507.68,-249.139 509.408,-243 528.194,-176.259 552.161,-142.353 510.408,-87 489.037,-58.6683 396.175,-38.5895 332.966,-27.9074"/>
<polygon fill="black" stroke="black" stroke-width="1.04467" points="333.528,-24.453 323.091,-26.2739 332.386,-31.3591 333.528,-24.453"/>
<text text-anchor="middle" x="590.408" y="-144.8" font-family="Times New Roman,serif" font-size="14.00">408.3093814612686</text>
</g>
<!-- 5659693541288529527 -->
<g id="node8" class="node"><title>5659693541288529527</title>
<polygon fill="#ffffff" stroke="black" points="119.408,-123 21.4078,-123 21.4078,-87 119.408,-87 119.408,-123"/>
<text text-anchor="middle" x="70.4078" y="-101.3" font-family="Times New Roman,serif" font-size="14.00">LacticAcid (1)</text>
</g>
<!-- 8794229938327540079&#45;&gt;5659693541288529527 -->
<g id="edge3" class="edge"><title>8794229938327540079&#45;&gt;5659693541288529527</title>
<path fill="none" stroke="black" stroke-width="1.29516" d="M240.143,-191.828C175.725,-192.715 34.7453,-190.557 4.40776,-156 -4.69448,-145.632 2.30501,-136.01 14.6123,-128.032"/>
<polygon fill="black" stroke="black" stroke-width="1.29516" points="16.4067,-131.038 23.3505,-123.036 12.932,-124.961 16.4067,-131.038"/>
<text text-anchor="middle" x="60.4078" y="-144.8" font-family="Times New Roman,serif" font-size="14.00">628.8266342267536</text>
</g>
<!-- 8794229938327540079&#45;&gt;&#45;4990305070490083274 -->
<g id="edge4" class="edge"><title>8794229938327540079&#45;&gt;&#45;4990305070490083274</title>
<path fill="none" stroke="black" stroke-width="2.22297" d="M272.408,-173.879C272.408,-144.001 272.408,-82.1129 272.408,-46.2736"/>
<polygon fill="black" stroke="black" stroke-width="2.22297" points="275.908,-46.0516 272.408,-36.0516 268.908,-46.0516 275.908,-46.0516"/>
<text text-anchor="middle" x="328.408" y="-101.3" font-family="Times New Roman,serif" font-size="14.00">1445.615425538896</text>
</g>
<!-- 4941573644585563234 -->
<g id="node3" class="node"><title>4941573644585563234</title>
<polygon fill="#ffffff" stroke="black" points="695.908,-471 570.908,-471 570.908,-435 695.908,-435 695.908,-471"/>
<text text-anchor="middle" x="633.408" y="-449.3" font-family="Times New Roman,serif" font-size="14.00">ER Registration (1)</text>
</g>
<!-- 7781181950460006610 -->
<g id="node5" class="node"><title>7781181950460006610</title>
<polygon fill="#ffffff" stroke="black" points="679.908,-384 586.908,-384 586.908,-348 679.908,-348 679.908,-384"/>
<text text-anchor="middle" x="633.408" y="-362.3" font-family="Times New Roman,serif" font-size="14.00">ER Triage (1)</text>
</g>
<!-- 4941573644585563234&#45;&gt;7781181950460006610 -->
<g id="edge5" class="edge"><title>4941573644585563234&#45;&gt;7781181950460006610</title>
<path fill="none" stroke="black" stroke-width="1.68399" d="M633.408,-434.799C633.408,-423.163 633.408,-407.548 633.408,-394.237"/>
<polygon fill="black" stroke="black" stroke-width="1.68399" points="636.908,-394.175 633.408,-384.175 629.908,-394.175 636.908,-394.175"/>
<text text-anchor="middle" x="689.408" y="-405.8" font-family="Times New Roman,serif" font-size="14.00">971.1337099394445</text>
</g>
<!-- &#45;1916228938975785919 -->
<g id="node4" class="node"><title>&#45;1916228938975785919</title>
<polygon fill="#ffffff" stroke="black" points="700.408,-297 566.408,-297 566.408,-261 700.408,-261 700.408,-297"/>
<text text-anchor="middle" x="633.408" y="-275.3" font-family="Times New Roman,serif" font-size="14.00">ER Sepsis Triage (1)</text>
</g>
<!-- 7781181950460006610&#45;&gt;&#45;1916228938975785919 -->
<g id="edge6" class="edge"><title>7781181950460006610&#45;&gt;&#45;1916228938975785919</title>
<path fill="none" stroke="black" stroke-width="1.60879" d="M633.408,-347.799C633.408,-336.163 633.408,-320.548 633.408,-307.237"/>
<polygon fill="black" stroke="black" stroke-width="1.60879" points="636.908,-307.175 633.408,-297.175 629.908,-307.175 636.908,-307.175"/>
<text text-anchor="middle" x="689.408" y="-318.8" font-family="Times New Roman,serif" font-size="14.00">904.9300527519076</text>
</g>
<!-- 1341266047991071662 -->
<g id="node6" class="node"><title>1341266047991071662</title>
<polygon fill="#ffffff" stroke="black" points="545.908,-384 430.908,-384 430.908,-348 545.908,-348 545.908,-384"/>
<text text-anchor="middle" x="488.408" y="-362.3" font-family="Times New Roman,serif" font-size="14.00">IV Antibiotics (1)</text>
</g>
<!-- 1341266047991071662&#45;&gt;9118780525858573852 -->
<g id="edge7" class="edge"><title>1341266047991071662&#45;&gt;9118780525858573852</title>
<path fill="none" stroke="black" stroke-width="1.1366" d="M488.408,-347.799C488.408,-336.163 488.408,-320.548 488.408,-307.237"/>
<polygon fill="black" stroke="black" stroke-width="1.1366" points="491.908,-307.175 488.408,-297.175 484.908,-307.175 491.908,-307.175"/>
<text text-anchor="middle" x="544.408" y="-318.8" font-family="Times New Roman,serif" font-size="14.00">489.2409250051453</text>
</g>
<!-- 1513237216211266658 -->
<g id="node7" class="node"><title>1513237216211266658</title>
<polygon fill="#ffffff" stroke="black" points="533.408,-471 443.408,-471 443.408,-435 533.408,-435 533.408,-471"/>
<text text-anchor="middle" x="488.408" y="-449.3" font-family="Times New Roman,serif" font-size="14.00">IV Liquid (1)</text>
</g>
<!-- 1513237216211266658&#45;&gt;1341266047991071662 -->
<g id="edge8" class="edge"><title>1513237216211266658&#45;&gt;1341266047991071662</title>
<path fill="none" stroke="black" stroke-width="1.14971" d="M488.408,-434.799C488.408,-423.163 488.408,-407.548 488.408,-394.237"/>
<polygon fill="black" stroke="black" stroke-width="1.14971" points="491.908,-394.175 488.408,-384.175 484.908,-394.175 491.908,-394.175"/>
<text text-anchor="middle" x="547.908" y="-405.8" font-family="Times New Roman,serif" font-size="14.00">500.78378933326167</text>
</g>
<!-- 5659693541288529527&#45;&gt;8794229938327540079 -->
<g id="edge9" class="edge"><title>5659693541288529527&#45;&gt;8794229938327540079</title>
<path fill="none" stroke="black" stroke-width="1.03996" d="M93.1616,-123.128C111.261,-136.644 134.36,-153.61 139.408,-156 168.398,-169.726 203.586,-178.684 230.485,-184.099"/>
<polygon fill="black" stroke="black" stroke-width="1.03996" points="229.877,-187.546 240.359,-186.003 231.202,-180.673 229.877,-187.546"/>
<text text-anchor="middle" x="198.908" y="-144.8" font-family="Times New Roman,serif" font-size="14.00">404.16817026581793</text>
</g>
<!-- 5659693541288529527&#45;&gt;&#45;4990305070490083274 -->
<g id="edge10" class="edge"><title>5659693541288529527&#45;&gt;&#45;4990305070490083274</title>
<path fill="none" stroke="black" stroke-width="1.22276" d="M23.3505,-86.9641C6.14405,-78.1695 -6.6883,-66.6394 4.40776,-54 30.8153,-23.9195 141.056,-18.3878 211.661,-18.0442"/>
<polygon fill="black" stroke="black" stroke-width="1.22276" points="211.781,-21.5441 221.775,-18.0289 211.77,-14.5441 211.781,-21.5441"/>
<text text-anchor="middle" x="60.4078" y="-57.8" font-family="Times New Roman,serif" font-size="14.00">565.0876098276822</text>
</g>
<!-- &#45;4990305070490083274&#45;&gt;8794229938327540079 -->
<g id="edge11" class="edge"><title>&#45;4990305070490083274&#45;&gt;8794229938327540079</title>
<path fill="none" stroke="black" stroke-width="2.6" d="M318.187,-36.0649C359.231,-54.2127 409.922,-85.4502 388.408,-123 372.491,-150.781 340.332,-168.313 313.904,-178.604"/>
<polygon fill="black" stroke="black" stroke-width="2.6" points="312.645,-175.337 304.467,-182.073 315.061,-181.907 312.645,-175.337"/>
<text text-anchor="middle" x="450.408" y="-101.3" font-family="Times New Roman,serif" font-size="14.00">1777.534937060223</text>
</g>
<!-- &#45;4990305070490083274&#45;&gt;5659693541288529527 -->
<g id="edge12" class="edge"><title>&#45;4990305070490083274&#45;&gt;5659693541288529527</title>
<path fill="none" stroke="black" stroke-width="1.07544" d="M221.607,-27.7575C196.146,-33.2825 165.304,-41.7392 139.408,-54 135.11,-56.0351 117.721,-68.6405 101.477,-80.684"/>
<polygon fill="black" stroke="black" stroke-width="1.07544" points="99.0945,-78.0939 93.1616,-86.8719 103.274,-83.7096 99.0945,-78.0939"/>
<text text-anchor="middle" x="198.908" y="-57.8" font-family="Times New Roman,serif" font-size="14.00">435.40282092372877</text>
</g>
<!-- &#45;4990305070490083274&#45;&gt;&#45;4990305070490083274 -->
<g id="edge13" class="edge"><title>&#45;4990305070490083274&#45;&gt;&#45;4990305070490083274</title>
<path fill="none" stroke="black" stroke-width="1.10138" d="M323.192,-25.5746C333.515,-24.7495 340.908,-22.2246 340.908,-18 340.908,-15.3596 338.02,-13.3832 333.334,-12.0707"/>
<polygon fill="black" stroke="black" stroke-width="1.10138" points="333.623,-8.57199 323.192,-10.4254 332.502,-15.4817 333.623,-8.57199"/>
<text text-anchor="middle" x="393.908" y="-14.3" font-family="Times New Roman,serif" font-size="14.00">458.234353104772</text>
</g>
</g>
</svg>
