<?xml version="1.0" encoding="UTF-8" standalone="no"?>
<!DOCTYPE svg PUBLIC "-//W3C//DTD SVG 1.1//EN"
 "http://www.w3.org/Graphics/SVG/1.1/DTD/svg11.dtd">
<!-- Generated by graphviz version 2.38.0 (20140413.2041)
 -->
<!-- Title: %3 Pages: 1 -->
<svg width="758pt" height="479pt"
 viewBox="0.00 0.00 758.29 479.00" xmlns="http://www.w3.org/2000/svg" xmlns:xlink="http://www.w3.org/1999/xlink">
<g id="graph0" class="graph" transform="scale(1 1) rotate(0) translate(4 475)">
<title>%3</title>
<!-- &#45;6760735685208204671 -->
<g id="node1" class="node"><title>&#45;6760735685208204671</title>
<polygon fill="#ffffff" stroke="black" points="552.789,-297 433.789,-297 433.789,-261 552.789,-261 552.789,-297"/>
<text text-anchor="middle" x="493.289" y="-275.3" font-family="Times New Roman,serif" font-size="14.00">Admission NC (1)</text>
</g>
<!-- 7850561497370058999 -->
<g id="node2" class="node"><title>7850561497370058999</title>
<polygon fill="#ffffff" stroke="black" points="304.289,-210 240.289,-210 240.289,-174 304.289,-174 304.289,-210"/>
<text text-anchor="middle" x="272.289" y="-188.3" font-family="Times New Roman,serif" font-size="14.00">CRP (1)</text>
</g>
<!-- &#45;6760735685208204671&#45;&gt;7850561497370058999 -->
<g id="edge1" class="edge"><title>&#45;6760735685208204671&#45;&gt;7850561497370058999</title>
<path fill="none" stroke="black" d="M448.833,-260.901C409.441,-245.751 352.363,-223.798 313.866,-208.991"/>
<polygon fill="black" stroke="black" points="315.091,-205.712 304.501,-205.389 312.578,-212.246 315.091,-205.712"/>
<text text-anchor="middle" x="452.289" y="-231.8" font-family="Times New Roman,serif" font-size="14.00">368.3788424057821</text>
</g>
<!-- 6179918396602481755 -->
<g id="node9" class="node"><title>6179918396602481755</title>
<polygon fill="#ffffff" stroke="black" points="322.789,-36 221.789,-36 221.789,-0 322.789,-0 322.789,-36"/>
<text text-anchor="middle" x="272.289" y="-14.3" font-family="Times New Roman,serif" font-size="14.00">Leucocytes (1)</text>
</g>
<!-- &#45;6760735685208204671&#45;&gt;6179918396602481755 -->
<g id="edge2" class="edge"><title>&#45;6760735685208204671&#45;&gt;6179918396602481755</title>
<path fill="none" stroke="black" stroke-width="1.04519" d="M504.606,-260.861C507.666,-255.376 510.596,-249.131 512.289,-243 530.758,-176.135 559.272,-142.222 517.289,-87 495.069,-57.7718 398.275,-37.8161 333.208,-27.4237"/>
<polygon fill="black" stroke="black" stroke-width="1.04519" points="333.474,-23.9229 323.053,-25.838 332.393,-30.8391 333.474,-23.9229"/>
<text text-anchor="middle" x="598.789" y="-144.8" font-family="Times New Roman,serif" font-size="14.00">408.18156847994925</text>
</g>
<!-- 1152587832168206417 -->
<g id="node8" class="node"><title>1152587832168206417</title>
<polygon fill="#ffffff" stroke="black" points="123.289,-123 25.2894,-123 25.2894,-87 123.289,-87 123.289,-123"/>
<text text-anchor="middle" x="74.2894" y="-101.3" font-family="Times New Roman,serif" font-size="14.00">LacticAcid (1)</text>
</g>
<!-- 7850561497370058999&#45;&gt;1152587832168206417 -->
<g id="edge3" class="edge"><title>7850561497370058999&#45;&gt;1152587832168206417</title>
<path fill="none" stroke="black" stroke-width="1.29573" d="M239.894,-191.7C176.713,-192.296 40.6395,-189.549 11.2894,-156 2.47447,-145.924 9.09845,-136.382 20.8336,-128.388"/>
<polygon fill="black" stroke="black" stroke-width="1.29573" points="22.8643,-131.252 29.6476,-123.113 19.2695,-125.245 22.8643,-131.252"/>
<text text-anchor="middle" x="67.2894" y="-144.8" font-family="Times New Roman,serif" font-size="14.00">628.8706849479832</text>
</g>
<!-- 7850561497370058999&#45;&gt;6179918396602481755 -->
<g id="edge4" class="edge"><title>7850561497370058999&#45;&gt;6179918396602481755</title>
<path fill="none" stroke="black" stroke-width="2.22219" d="M272.289,-173.879C272.289,-144.001 272.289,-82.1129 272.289,-46.2736"/>
<polygon fill="black" stroke="black" stroke-width="2.22219" points="275.789,-46.0516 272.289,-36.0516 268.789,-46.0516 275.789,-46.0516"/>
<text text-anchor="middle" x="331.789" y="-101.3" font-family="Times New Roman,serif" font-size="14.00">1444.9466011870347</text>
</g>
<!-- &#45;2410219256766748193 -->
<g id="node3" class="node"><title>&#45;2410219256766748193</title>
<polygon fill="#ffffff" stroke="black" points="700.789,-471 575.789,-471 575.789,-435 700.789,-435 700.789,-471"/>
<text text-anchor="middle" x="638.289" y="-449.3" font-family="Times New Roman,serif" font-size="14.00">ER Registration (1)</text>
</g>
<!-- &#45;2872325205858232948 -->
<g id="node5" class="node"><title>&#45;2872325205858232948</title>
<polygon fill="#ffffff" stroke="black" points="684.789,-384 591.789,-384 591.789,-348 684.789,-348 684.789,-384"/>
<text text-anchor="middle" x="638.289" y="-362.3" font-family="Times New Roman,serif" font-size="14.00">ER Triage (1)</text>
</g>
<!-- &#45;2410219256766748193&#45;&gt;&#45;2872325205858232948 -->
<g id="edge5" class="edge"><title>&#45;2410219256766748193&#45;&gt;&#45;2872325205858232948</title>
<path fill="none" stroke="black" stroke-width="1.68415" d="M638.289,-434.799C638.289,-423.163 638.289,-407.548 638.289,-394.237"/>
<polygon fill="black" stroke="black" stroke-width="1.68415" points="641.789,-394.175 638.289,-384.175 634.789,-394.175 641.789,-394.175"/>
<text text-anchor="middle" x="691.289" y="-405.8" font-family="Times New Roman,serif" font-size="14.00">971.013604973285</text>
</g>
<!-- 8892003065059452103 -->
<g id="node4" class="node"><title>8892003065059452103</title>
<polygon fill="#ffffff" stroke="black" points="705.289,-297 571.289,-297 571.289,-261 705.289,-261 705.289,-297"/>
<text text-anchor="middle" x="638.289" y="-275.3" font-family="Times New Roman,serif" font-size="14.00">ER Sepsis Triage (1)</text>
</g>
<!-- &#45;2872325205858232948&#45;&gt;8892003065059452103 -->
<g id="edge6" class="edge"><title>&#45;2872325205858232948&#45;&gt;8892003065059452103</title>
<path fill="none" stroke="black" stroke-width="1.6093" d="M638.289,-347.799C638.289,-336.163 638.289,-320.548 638.289,-307.237"/>
<polygon fill="black" stroke="black" stroke-width="1.6093" points="641.789,-307.175 638.289,-297.175 634.789,-307.175 641.789,-307.175"/>
<text text-anchor="middle" x="694.289" y="-318.8" font-family="Times New Roman,serif" font-size="14.00">905.0834875825975</text>
</g>
<!-- &#45;6564841300794043563 -->
<g id="node6" class="node"><title>&#45;6564841300794043563</title>
<polygon fill="#ffffff" stroke="black" points="550.789,-384 435.789,-384 435.789,-348 550.789,-348 550.789,-384"/>
<text text-anchor="middle" x="493.289" y="-362.3" font-family="Times New Roman,serif" font-size="14.00">IV Antibiotics (1)</text>
</g>
<!-- &#45;6564841300794043563&#45;&gt;&#45;6760735685208204671 -->
<g id="edge7" class="edge"><title>&#45;6564841300794043563&#45;&gt;&#45;6760735685208204671</title>
<path fill="none" stroke="black" stroke-width="1.13682" d="M493.289,-347.799C493.289,-336.163 493.289,-320.548 493.289,-307.237"/>
<polygon fill="black" stroke="black" stroke-width="1.13682" points="496.789,-307.175 493.289,-297.175 489.789,-307.175 496.789,-307.175"/>
<text text-anchor="middle" x="549.289" y="-318.8" font-family="Times New Roman,serif" font-size="14.00">488.8927491015434</text>
</g>
<!-- &#45;1926219633770359302 -->
<g id="node7" class="node"><title>&#45;1926219633770359302</title>
<polygon fill="#ffffff" stroke="black" points="538.289,-471 448.289,-471 448.289,-435 538.289,-435 538.289,-471"/>
<text text-anchor="middle" x="493.289" y="-449.3" font-family="Times New Roman,serif" font-size="14.00">IV Liquid (1)</text>
</g>
<!-- &#45;1926219633770359302&#45;&gt;&#45;6564841300794043563 -->
<g id="edge8" class="edge"><title>&#45;1926219633770359302&#45;&gt;&#45;6564841300794043563</title>
<path fill="none" stroke="black" stroke-width="1.15064" d="M493.289,-434.799C493.289,-423.163 493.289,-407.548 493.289,-394.237"/>
<polygon fill="black" stroke="black" stroke-width="1.15064" points="496.789,-394.175 493.289,-384.175 489.789,-394.175 496.789,-394.175"/>
<text text-anchor="middle" x="549.289" y="-405.8" font-family="Times New Roman,serif" font-size="14.00">501.0699054968413</text>
</g>
<!-- 1152587832168206417&#45;&gt;7850561497370058999 -->
<g id="edge9" class="edge"><title>1152587832168206417&#45;&gt;7850561497370058999</title>
<path fill="none" stroke="black" stroke-width="1.04067" d="M98.0662,-123.102C116.974,-136.601 141.089,-153.558 146.289,-156 173.021,-168.551 205.119,-177.384 230.227,-183.036"/>
<polygon fill="black" stroke="black" stroke-width="1.04067" points="229.66,-186.495 240.175,-185.193 231.143,-179.654 229.66,-186.495"/>
<text text-anchor="middle" x="202.289" y="-144.8" font-family="Times New Roman,serif" font-size="14.00">404.2024471259344</text>
</g>
<!-- 1152587832168206417&#45;&gt;6179918396602481755 -->
<g id="edge10" class="edge"><title>1152587832168206417&#45;&gt;6179918396602481755</title>
<path fill="none" stroke="black" stroke-width="1.22332" d="M25.0607,-87.6215C6.62712,-78.9013 -7.33701,-67.2435 4.2894,-54 30.6969,-23.9195 140.937,-18.3878 211.542,-18.0442"/>
<polygon fill="black" stroke="black" stroke-width="1.22332" points="211.662,-21.5441 221.657,-18.0289 211.652,-14.5441 211.662,-21.5441"/>
<text text-anchor="middle" x="60.2894" y="-57.8" font-family="Times New Roman,serif" font-size="14.00">565.0870868834497</text>
</g>
<!-- 6179918396602481755&#45;&gt;7850561497370058999 -->
<g id="edge11" class="edge"><title>6179918396602481755&#45;&gt;7850561497370058999</title>
<path fill="none" stroke="black" stroke-width="2.6" d="M322.023,-36.1523C365.291,-54.0524 417.807,-84.8222 395.289,-123 377.881,-152.517 342.554,-170.113 314.209,-179.985"/>
<polygon fill="black" stroke="black" stroke-width="2.6" points="312.928,-176.721 304.515,-183.161 315.108,-183.373 312.928,-176.721"/>
<text text-anchor="middle" x="457.289" y="-101.3" font-family="Times New Roman,serif" font-size="14.00">1777.740596065419</text>
</g>
<!-- 6179918396602481755&#45;&gt;1152587832168206417 -->
<g id="edge12" class="edge"><title>6179918396602481755&#45;&gt;1152587832168206417</title>
<path fill="none" stroke="black" stroke-width="1.07507" d="M221.656,-27.3769C196.095,-32.8194 165.114,-41.3172 139.289,-54 131.491,-57.8298 116.355,-69.3723 102.65,-80.4029"/>
<polygon fill="black" stroke="black" stroke-width="1.07507" points="100.362,-77.7517 94.8119,-86.7763 104.779,-83.1828 100.362,-77.7517"/>
<text text-anchor="middle" x="198.789" y="-57.8" font-family="Times New Roman,serif" font-size="14.00">434.50479316743656</text>
</g>
<!-- 6179918396602481755&#45;&gt;6179918396602481755 -->
<g id="edge13" class="edge"><title>6179918396602481755&#45;&gt;6179918396602481755</title>
<path fill="none" stroke="black" stroke-width="1.10091" d="M323.073,-25.5746C333.397,-24.7495 340.789,-22.2246 340.789,-18 340.789,-15.3596 337.902,-13.3832 333.215,-12.0707"/>
<polygon fill="black" stroke="black" stroke-width="1.10091" points="333.505,-8.57199 323.073,-10.4254 332.384,-15.4817 333.505,-8.57199"/>
<text text-anchor="middle" x="396.789" y="-14.3" font-family="Times New Roman,serif" font-size="14.00">457.2681359715268</text>
</g>
</g>
</svg>
