<?xml version="1.0" encoding="UTF-8" standalone="no"?>
<!DOCTYPE svg PUBLIC "-//W3C//DTD SVG 1.1//EN"
 "http://www.w3.org/Graphics/SVG/1.1/DTD/svg11.dtd">
<!-- Generated by graphviz version 2.38.0 (20140413.2041)
 -->
<!-- Title: %3 Pages: 1 -->
<svg width="753pt" height="479pt"
 viewBox="0.00 0.00 753.41 479.00" xmlns="http://www.w3.org/2000/svg" xmlns:xlink="http://www.w3.org/1999/xlink">
<g id="graph0" class="graph" transform="scale(1 1) rotate(0) translate(4 475)">
<title>%3</title>
<!-- &#45;6760735685208204671 -->
<g id="node1" class="node"><title>&#45;6760735685208204671</title>
<polygon fill="#ffffff" stroke="black" points="547.908,-297 428.908,-297 428.908,-261 547.908,-261 547.908,-297"/>
<text text-anchor="middle" x="488.408" y="-275.3" font-family="Times New Roman,serif" font-size="14.00">Admission NC (1)</text>
</g>
<!-- 7850561497370058999 -->
<g id="node2" class="node"><title>7850561497370058999</title>
<polygon fill="#ffffff" stroke="black" points="304.408,-210 240.408,-210 240.408,-174 304.408,-174 304.408,-210"/>
<text text-anchor="middle" x="272.408" y="-188.3" font-family="Times New Roman,serif" font-size="14.00">CRP (1)</text>
</g>
<!-- &#45;6760735685208204671&#45;&gt;7850561497370058999 -->
<g id="edge1" class="edge"><title>&#45;6760735685208204671&#45;&gt;7850561497370058999</title>
<path fill="none" stroke="black" d="M444.957,-260.901C406.846,-245.904 351.797,-224.241 314.191,-209.442"/>
<polygon fill="black" stroke="black" points="315.139,-206.054 304.551,-205.649 312.575,-212.568 315.139,-206.054"/>
<text text-anchor="middle" x="452.908" y="-231.8" font-family="Times New Roman,serif" font-size="14.00">368.86161731334204</text>
</g>
<!-- 6179918396602481755 -->
<g id="node9" class="node"><title>6179918396602481755</title>
<polygon fill="#ffffff" stroke="black" points="322.908,-36 221.908,-36 221.908,-0 322.908,-0 322.908,-36"/>
<text text-anchor="middle" x="272.408" y="-14.3" font-family="Times New Roman,serif" font-size="14.00">Leucocytes (1)</text>
</g>
<!-- &#45;6760735685208204671&#45;&gt;6179918396602481755 -->
<g id="edge2" class="edge"><title>&#45;6760735685208204671&#45;&gt;6179918396602481755</title>
<path fill="none" stroke="black" stroke-width="1.04395" d="M505.828,-260.912C510.124,-255.617 514.141,-249.462 516.408,-243 531.659,-199.522 647.958,-261.309 511.408,-87 489.438,-58.955 396.334,-38.7929 333.028,-28.0157"/>
<polygon fill="black" stroke="black" stroke-width="1.04395" points="333.578,-24.5593 323.139,-26.3669 332.427,-31.464 333.578,-24.5593"/>
<text text-anchor="middle" x="618.908" y="-144.8" font-family="Times New Roman,serif" font-size="14.00">407.56471866740964</text>
</g>
<!-- 1152587832168206417 -->
<g id="node8" class="node"><title>1152587832168206417</title>
<polygon fill="#ffffff" stroke="black" points="119.408,-123 21.4078,-123 21.4078,-87 119.408,-87 119.408,-123"/>
<text text-anchor="middle" x="70.4078" y="-101.3" font-family="Times New Roman,serif" font-size="14.00">LacticAcid (1)</text>
</g>
<!-- 7850561497370058999&#45;&gt;1152587832168206417 -->
<g id="edge3" class="edge"><title>7850561497370058999&#45;&gt;1152587832168206417</title>
<path fill="none" stroke="black" stroke-width="1.29538" d="M240.143,-191.828C175.725,-192.715 34.7453,-190.557 4.40776,-156 -4.69448,-145.632 2.30501,-136.01 14.6123,-128.032"/>
<polygon fill="black" stroke="black" stroke-width="1.29538" points="16.4067,-131.038 23.3505,-123.036 12.932,-124.961 16.4067,-131.038"/>
<text text-anchor="middle" x="60.4078" y="-144.8" font-family="Times New Roman,serif" font-size="14.00">628.9786401107832</text>
</g>
<!-- 7850561497370058999&#45;&gt;6179918396602481755 -->
<g id="edge4" class="edge"><title>7850561497370058999&#45;&gt;6179918396602481755</title>
<path fill="none" stroke="black" stroke-width="2.22151" d="M272.408,-173.879C272.408,-144.001 272.408,-82.1129 272.408,-46.2736"/>
<polygon fill="black" stroke="black" stroke-width="2.22151" points="275.908,-46.0516 272.408,-36.0516 268.908,-46.0516 275.908,-46.0516"/>
<text text-anchor="middle" x="331.908" y="-101.3" font-family="Times New Roman,serif" font-size="14.00">1444.5516047461251</text>
</g>
<!-- &#45;2410219256766748193 -->
<g id="node3" class="node"><title>&#45;2410219256766748193</title>
<polygon fill="#ffffff" stroke="black" points="695.908,-471 570.908,-471 570.908,-435 695.908,-435 695.908,-471"/>
<text text-anchor="middle" x="633.408" y="-449.3" font-family="Times New Roman,serif" font-size="14.00">ER Registration (1)</text>
</g>
<!-- &#45;2872325205858232948 -->
<g id="node5" class="node"><title>&#45;2872325205858232948</title>
<polygon fill="#ffffff" stroke="black" points="679.908,-384 586.908,-384 586.908,-348 679.908,-348 679.908,-384"/>
<text text-anchor="middle" x="633.408" y="-362.3" font-family="Times New Roman,serif" font-size="14.00">ER Triage (1)</text>
</g>
<!-- &#45;2410219256766748193&#45;&gt;&#45;2872325205858232948 -->
<g id="edge5" class="edge"><title>&#45;2410219256766748193&#45;&gt;&#45;2872325205858232948</title>
<path fill="none" stroke="black" stroke-width="1.68361" d="M633.408,-434.799C633.408,-423.163 633.408,-407.548 633.408,-394.237"/>
<polygon fill="black" stroke="black" stroke-width="1.68361" points="636.908,-394.175 633.408,-384.175 629.908,-394.175 636.908,-394.175"/>
<text text-anchor="middle" x="689.408" y="-405.8" font-family="Times New Roman,serif" font-size="14.00">970.8688275394785</text>
</g>
<!-- 8892003065059452103 -->
<g id="node4" class="node"><title>8892003065059452103</title>
<polygon fill="#ffffff" stroke="black" points="700.408,-297 566.408,-297 566.408,-261 700.408,-261 700.408,-297"/>
<text text-anchor="middle" x="633.408" y="-275.3" font-family="Times New Roman,serif" font-size="14.00">ER Sepsis Triage (1)</text>
</g>
<!-- &#45;2872325205858232948&#45;&gt;8892003065059452103 -->
<g id="edge6" class="edge"><title>&#45;2872325205858232948&#45;&gt;8892003065059452103</title>
<path fill="none" stroke="black" stroke-width="1.60884" d="M633.408,-347.799C633.408,-336.163 633.408,-320.548 633.408,-307.237"/>
<polygon fill="black" stroke="black" stroke-width="1.60884" points="636.908,-307.175 633.408,-297.175 629.908,-307.175 636.908,-307.175"/>
<text text-anchor="middle" x="689.408" y="-318.8" font-family="Times New Roman,serif" font-size="14.00">905.0183487171705</text>
</g>
<!-- &#45;6564841300794043563 -->
<g id="node6" class="node"><title>&#45;6564841300794043563</title>
<polygon fill="#ffffff" stroke="black" points="545.908,-384 430.908,-384 430.908,-348 545.908,-348 545.908,-384"/>
<text text-anchor="middle" x="488.408" y="-362.3" font-family="Times New Roman,serif" font-size="14.00">IV Antibiotics (1)</text>
</g>
<!-- &#45;6564841300794043563&#45;&gt;&#45;6760735685208204671 -->
<g id="edge7" class="edge"><title>&#45;6564841300794043563&#45;&gt;&#45;6760735685208204671</title>
<path fill="none" stroke="black" stroke-width="1.13736" d="M488.408,-347.799C488.408,-336.163 488.408,-320.548 488.408,-307.237"/>
<polygon fill="black" stroke="black" stroke-width="1.13736" points="491.908,-307.175 488.408,-297.175 484.908,-307.175 491.908,-307.175"/>
<text text-anchor="middle" x="544.408" y="-318.8" font-family="Times New Roman,serif" font-size="14.00">489.8249774343104</text>
</g>
<!-- &#45;1926219633770359302 -->
<g id="node7" class="node"><title>&#45;1926219633770359302</title>
<polygon fill="#ffffff" stroke="black" points="533.408,-471 443.408,-471 443.408,-435 533.408,-435 533.408,-471"/>
<text text-anchor="middle" x="488.408" y="-449.3" font-family="Times New Roman,serif" font-size="14.00">IV Liquid (1)</text>
</g>
<!-- &#45;1926219633770359302&#45;&gt;&#45;6564841300794043563 -->
<g id="edge8" class="edge"><title>&#45;1926219633770359302&#45;&gt;&#45;6564841300794043563</title>
<path fill="none" stroke="black" stroke-width="1.15011" d="M488.408,-434.799C488.408,-423.163 488.408,-407.548 488.408,-394.237"/>
<polygon fill="black" stroke="black" stroke-width="1.15011" points="491.908,-394.175 488.408,-384.175 484.908,-394.175 491.908,-394.175"/>
<text text-anchor="middle" x="544.408" y="-405.8" font-family="Times New Roman,serif" font-size="14.00">501.0501332761204</text>
</g>
<!-- 1152587832168206417&#45;&gt;7850561497370058999 -->
<g id="edge9" class="edge"><title>1152587832168206417&#45;&gt;7850561497370058999</title>
<path fill="none" stroke="black" stroke-width="1.04024" d="M93.1616,-123.128C111.261,-136.644 134.36,-153.61 139.408,-156 168.398,-169.726 203.586,-178.684 230.485,-184.099"/>
<polygon fill="black" stroke="black" stroke-width="1.04024" points="229.877,-187.546 240.359,-186.003 231.202,-180.673 229.877,-187.546"/>
<text text-anchor="middle" x="198.908" y="-144.8" font-family="Times New Roman,serif" font-size="14.00">404.30000494515207</text>
</g>
<!-- 1152587832168206417&#45;&gt;6179918396602481755 -->
<g id="edge10" class="edge"><title>1152587832168206417&#45;&gt;6179918396602481755</title>
<path fill="none" stroke="black" stroke-width="1.22318" d="M23.3505,-86.9641C6.14405,-78.1695 -6.6883,-66.6394 4.40776,-54 30.8153,-23.9195 141.056,-18.3878 211.661,-18.0442"/>
<polygon fill="black" stroke="black" stroke-width="1.22318" points="211.781,-21.5441 221.775,-18.0289 211.77,-14.5441 211.781,-21.5441"/>
<text text-anchor="middle" x="60.4078" y="-57.8" font-family="Times New Roman,serif" font-size="14.00">565.3998481575917</text>
</g>
<!-- 6179918396602481755&#45;&gt;7850561497370058999 -->
<g id="edge11" class="edge"><title>6179918396602481755&#45;&gt;7850561497370058999</title>
<path fill="none" stroke="black" stroke-width="2.6" d="M322.141,-36.1523C365.409,-54.0524 417.925,-84.8222 395.408,-123 377.999,-152.517 342.673,-170.113 314.328,-179.985"/>
<polygon fill="black" stroke="black" stroke-width="2.6" points="313.047,-176.721 304.634,-183.161 315.226,-183.373 313.047,-176.721"/>
<text text-anchor="middle" x="454.408" y="-101.3" font-family="Times New Roman,serif" font-size="14.00">1777.85899232012</text>
</g>
<!-- 6179918396602481755&#45;&gt;1152587832168206417 -->
<g id="edge12" class="edge"><title>6179918396602481755&#45;&gt;1152587832168206417</title>
<path fill="none" stroke="black" stroke-width="1.07478" d="M221.607,-27.7575C196.146,-33.2825 165.304,-41.7392 139.408,-54 135.11,-56.0351 117.721,-68.6405 101.477,-80.684"/>
<polygon fill="black" stroke="black" stroke-width="1.07478" points="99.0945,-78.0939 93.1616,-86.8719 103.274,-83.7096 99.0945,-78.0939"/>
<text text-anchor="middle" x="198.908" y="-57.8" font-family="Times New Roman,serif" font-size="14.00">434.71786615853756</text>
</g>
<!-- 6179918396602481755&#45;&gt;6179918396602481755 -->
<g id="edge13" class="edge"><title>6179918396602481755&#45;&gt;6179918396602481755</title>
<path fill="none" stroke="black" stroke-width="1.10097" d="M323.192,-25.5746C333.515,-24.7495 340.908,-22.2246 340.908,-18 340.908,-15.3596 338.02,-13.3832 333.334,-12.0707"/>
<polygon fill="black" stroke="black" stroke-width="1.10097" points="333.623,-8.57199 323.192,-10.4254 332.502,-15.4817 333.623,-8.57199"/>
<text text-anchor="middle" x="396.908" y="-14.3" font-family="Times New Roman,serif" font-size="14.00">457.7788644578018</text>
</g>
</g>
</svg>
