<?xml version="1.0" encoding="UTF-8" standalone="no"?>
<!DOCTYPE svg PUBLIC "-//W3C//DTD SVG 1.1//EN"
 "http://www.w3.org/Graphics/SVG/1.1/DTD/svg11.dtd">
<!-- Generated by graphviz version 2.38.0 (20140413.2041)
 -->
<!-- Title: %3 Pages: 1 -->
<svg width="771pt" height="479pt"
 viewBox="0.00 0.00 770.68 479.00" xmlns="http://www.w3.org/2000/svg" xmlns:xlink="http://www.w3.org/1999/xlink">
<g id="graph0" class="graph" transform="scale(1 1) rotate(0) translate(4 475)">
<title>%3</title>
<!-- &#45;6760735685208204671 -->
<g id="node1" class="node"><title>&#45;6760735685208204671</title>
<polygon fill="#ffffff" stroke="black" points="565.176,-297 446.176,-297 446.176,-261 565.176,-261 565.176,-297"/>
<text text-anchor="middle" x="505.676" y="-275.3" font-family="Times New Roman,serif" font-size="14.00">Admission NC (1)</text>
</g>
<!-- 7850561497370058999 -->
<g id="node2" class="node"><title>7850561497370058999</title>
<polygon fill="#ffffff" stroke="black" points="311.676,-210 247.676,-210 247.676,-174 311.676,-174 311.676,-210"/>
<text text-anchor="middle" x="279.676" y="-188.3" font-family="Times New Roman,serif" font-size="14.00">CRP (1)</text>
</g>
<!-- &#45;6760735685208204671&#45;&gt;7850561497370058999 -->
<g id="edge1" class="edge"><title>&#45;6760735685208204671&#45;&gt;7850561497370058999</title>
<path fill="none" stroke="black" stroke-width="1.19711" d="M460.213,-260.901C419.693,-245.661 360.872,-223.538 321.498,-208.73"/>
<polygon fill="black" stroke="black" stroke-width="1.19711" points="322.522,-205.375 311.93,-205.131 320.058,-211.927 322.522,-205.375"/>
<text text-anchor="middle" x="466.176" y="-231.8" font-family="Times New Roman,serif" font-size="14.00">332.68267081773644</text>
</g>
<!-- 6179918396602481755 -->
<g id="node9" class="node"><title>6179918396602481755</title>
<polygon fill="#ffffff" stroke="black" points="330.176,-36 229.176,-36 229.176,-0 330.176,-0 330.176,-36"/>
<text text-anchor="middle" x="279.676" y="-14.3" font-family="Times New Roman,serif" font-size="14.00">Leucocytes (1)</text>
</g>
<!-- &#45;6760735685208204671&#45;&gt;6179918396602481755 -->
<g id="edge2" class="edge"><title>&#45;6760735685208204671&#45;&gt;6179918396602481755</title>
<path fill="none" stroke="black" stroke-width="1.2467" d="M520.32,-260.905C524.095,-255.518 527.66,-249.317 529.676,-243 550.754,-176.942 573.838,-142.048 531.676,-87 508.547,-56.8023 407.378,-36.9672 340.472,-26.8902"/>
<polygon fill="black" stroke="black" stroke-width="1.2467" points="340.858,-23.4093 330.454,-25.4153 339.838,-30.3346 340.858,-23.4093"/>
<text text-anchor="middle" x="615.176" y="-144.8" font-family="Times New Roman,serif" font-size="14.00">383.18447364719566</text>
</g>
<!-- 1152587832168206417 -->
<g id="node8" class="node"><title>1152587832168206417</title>
<polygon fill="#ffffff" stroke="black" points="130.676,-123 32.6758,-123 32.6758,-87 130.676,-87 130.676,-123"/>
<text text-anchor="middle" x="81.6758" y="-101.3" font-family="Times New Roman,serif" font-size="14.00">LacticAcid (1)</text>
</g>
<!-- 7850561497370058999&#45;&gt;1152587832168206417 -->
<g id="edge3" class="edge"><title>7850561497370058999&#45;&gt;1152587832168206417</title>
<path fill="none" stroke="black" stroke-width="1.51803" d="M247.28,-191.7C184.099,-192.296 48.0259,-189.549 18.6758,-156 9.86083,-145.924 16.4848,-136.382 28.22,-128.388"/>
<polygon fill="black" stroke="black" stroke-width="1.51803" points="30.2507,-131.252 37.034,-123.113 26.6559,-125.245 30.2507,-131.252"/>
<text text-anchor="middle" x="74.6758" y="-144.8" font-family="Times New Roman,serif" font-size="14.00">659.4970793740607</text>
</g>
<!-- 7850561497370058999&#45;&gt;6179918396602481755 -->
<g id="edge4" class="edge"><title>7850561497370058999&#45;&gt;6179918396602481755</title>
<path fill="none" stroke="black" stroke-width="2.20323" d="M279.676,-173.879C279.676,-144.001 279.676,-82.1129 279.676,-46.2736"/>
<polygon fill="black" stroke="black" stroke-width="2.20323" points="283.176,-46.0516 279.676,-36.0516 276.176,-46.0516 283.176,-46.0516"/>
<text text-anchor="middle" x="339.176" y="-101.3" font-family="Times New Roman,serif" font-size="14.00">1357.2613192103158</text>
</g>
<!-- &#45;2410219256766748193 -->
<g id="node3" class="node"><title>&#45;2410219256766748193</title>
<polygon fill="#ffffff" stroke="black" points="713.176,-471 588.176,-471 588.176,-435 713.176,-435 713.176,-471"/>
<text text-anchor="middle" x="650.676" y="-449.3" font-family="Times New Roman,serif" font-size="14.00">ER Registration (1)</text>
</g>
<!-- &#45;2872325205858232948 -->
<g id="node5" class="node"><title>&#45;2872325205858232948</title>
<polygon fill="#ffffff" stroke="black" points="697.176,-384 604.176,-384 604.176,-348 697.176,-348 697.176,-384"/>
<text text-anchor="middle" x="650.676" y="-362.3" font-family="Times New Roman,serif" font-size="14.00">ER Triage (1)</text>
</g>
<!-- &#45;2410219256766748193&#45;&gt;&#45;2872325205858232948 -->
<g id="edge5" class="edge"><title>&#45;2410219256766748193&#45;&gt;&#45;2872325205858232948</title>
<path fill="none" stroke="black" stroke-width="1.7427" d="M650.676,-434.799C650.676,-423.163 650.676,-407.548 650.676,-394.237"/>
<polygon fill="black" stroke="black" stroke-width="1.7427" points="654.176,-394.175 650.676,-384.175 647.176,-394.175 654.176,-394.175"/>
<text text-anchor="middle" x="706.676" y="-405.8" font-family="Times New Roman,serif" font-size="14.00">888.2812439158702</text>
</g>
<!-- 8892003065059452103 -->
<g id="node4" class="node"><title>8892003065059452103</title>
<polygon fill="#ffffff" stroke="black" points="717.676,-297 583.676,-297 583.676,-261 717.676,-261 717.676,-297"/>
<text text-anchor="middle" x="650.676" y="-275.3" font-family="Times New Roman,serif" font-size="14.00">ER Sepsis Triage (1)</text>
</g>
<!-- &#45;2872325205858232948&#45;&gt;8892003065059452103 -->
<g id="edge6" class="edge"><title>&#45;2872325205858232948&#45;&gt;8892003065059452103</title>
<path fill="none" stroke="black" stroke-width="1.76434" d="M650.676,-347.799C650.676,-336.163 650.676,-320.548 650.676,-307.237"/>
<polygon fill="black" stroke="black" stroke-width="1.76434" points="654.176,-307.175 650.676,-297.175 647.176,-307.175 654.176,-307.175"/>
<text text-anchor="middle" x="706.676" y="-318.8" font-family="Times New Roman,serif" font-size="14.00">910.3196678882783</text>
</g>
<!-- &#45;6564841300794043563 -->
<g id="node6" class="node"><title>&#45;6564841300794043563</title>
<polygon fill="#ffffff" stroke="black" points="563.176,-384 448.176,-384 448.176,-348 563.176,-348 563.176,-384"/>
<text text-anchor="middle" x="505.676" y="-362.3" font-family="Times New Roman,serif" font-size="14.00">IV Antibiotics (1)</text>
</g>
<!-- &#45;6564841300794043563&#45;&gt;&#45;6760735685208204671 -->
<g id="edge7" class="edge"><title>&#45;6564841300794043563&#45;&gt;&#45;6760735685208204671</title>
<path fill="none" stroke="black" stroke-width="1.35235" d="M505.676,-347.799C505.676,-336.163 505.676,-320.548 505.676,-307.237"/>
<polygon fill="black" stroke="black" stroke-width="1.35235" points="509.176,-307.175 505.676,-297.175 502.176,-307.175 509.176,-307.175"/>
<text text-anchor="middle" x="565.176" y="-318.8" font-family="Times New Roman,serif" font-size="14.00">490.77532816536996</text>
</g>
<!-- &#45;1926219633770359302 -->
<g id="node7" class="node"><title>&#45;1926219633770359302</title>
<polygon fill="#ffffff" stroke="black" points="550.676,-471 460.676,-471 460.676,-435 550.676,-435 550.676,-471"/>
<text text-anchor="middle" x="505.676" y="-449.3" font-family="Times New Roman,serif" font-size="14.00">IV Liquid (1)</text>
</g>
<!-- &#45;1926219633770359302&#45;&gt;&#45;6564841300794043563 -->
<g id="edge8" class="edge"><title>&#45;1926219633770359302&#45;&gt;&#45;6564841300794043563</title>
<path fill="none" stroke="black" stroke-width="1.56882" d="M505.676,-434.799C505.676,-423.163 505.676,-407.548 505.676,-394.237"/>
<polygon fill="black" stroke="black" stroke-width="1.56882" points="509.176,-394.175 505.676,-384.175 502.176,-394.175 509.176,-394.175"/>
<text text-anchor="middle" x="561.676" y="-405.8" font-family="Times New Roman,serif" font-size="14.00">711.2122945200691</text>
</g>
<!-- 1152587832168206417&#45;&gt;7850561497370058999 -->
<g id="edge9" class="edge"><title>1152587832168206417&#45;&gt;7850561497370058999</title>
<path fill="none" stroke="black" stroke-width="1.27089" d="M105.453,-123.102C124.36,-136.601 148.475,-153.558 153.676,-156 180.408,-168.551 212.505,-177.384 237.613,-183.036"/>
<polygon fill="black" stroke="black" stroke-width="1.27089" points="237.046,-186.495 247.561,-185.193 238.53,-179.654 237.046,-186.495"/>
<text text-anchor="middle" x="209.676" y="-144.8" font-family="Times New Roman,serif" font-size="14.00">407.8198815022081</text>
</g>
<!-- 1152587832168206417&#45;&gt;6179918396602481755 -->
<g id="edge10" class="edge"><title>1152587832168206417&#45;&gt;6179918396602481755</title>
<path fill="none" stroke="black" stroke-width="1.35714" d="M32.5324,-90.2786C10.1419,-81.6146 -8.70396,-69.1905 4.67576,-54 18.6039,-38.1868 142.183,-27.629 218.864,-22.537"/>
<polygon fill="black" stroke="black" stroke-width="1.35714" points="219.143,-26.0263 228.895,-21.8842 218.689,-19.0411 219.143,-26.0263"/>
<text text-anchor="middle" x="64.1758" y="-57.8" font-family="Times New Roman,serif" font-size="14.00">495.64825886689874</text>
</g>
<!-- 6179918396602481755&#45;&gt;7850561497370058999 -->
<g id="edge11" class="edge"><title>6179918396602481755&#45;&gt;7850561497370058999</title>
<path fill="none" stroke="black" stroke-width="2.6" d="M329.409,-36.1523C372.677,-54.0524 425.193,-84.8222 402.676,-123 385.267,-152.517 349.941,-170.113 321.596,-179.985"/>
<polygon fill="black" stroke="black" stroke-width="2.6" points="320.315,-176.721 311.902,-183.161 322.494,-183.373 320.315,-176.721"/>
<text text-anchor="middle" x="468.176" y="-101.3" font-family="Times New Roman,serif" font-size="14.00">1761.3052053578856</text>
</g>
<!-- 6179918396602481755&#45;&gt;1152587832168206417 -->
<g id="edge12" class="edge"><title>6179918396602481755&#45;&gt;1152587832168206417</title>
<path fill="none" stroke="black" d="M229.043,-27.3769C203.481,-32.8194 172.501,-41.3172 146.676,-54 138.877,-57.8298 123.741,-69.3723 110.036,-80.4029"/>
<polygon fill="black" stroke="black" points="107.749,-77.7517 102.198,-86.7763 112.165,-83.1828 107.749,-77.7517"/>
<text text-anchor="middle" x="206.176" y="-57.8" font-family="Times New Roman,serif" font-size="14.00">131.96195755247606</text>
</g>
<!-- 6179918396602481755&#45;&gt;6179918396602481755 -->
<g id="edge13" class="edge"><title>6179918396602481755&#45;&gt;6179918396602481755</title>
<path fill="none" stroke="black" stroke-width="1.29197" d="M330.46,-25.5746C340.783,-24.7495 348.176,-22.2246 348.176,-18 348.176,-15.3596 345.288,-13.3832 340.602,-12.0707"/>
<polygon fill="black" stroke="black" stroke-width="1.29197" points="340.891,-8.57199 330.46,-10.4254 339.77,-15.4817 340.891,-8.57199"/>
<text text-anchor="middle" x="404.176" y="-14.3" font-family="Times New Roman,serif" font-size="14.00">429.2835029552949</text>
</g>
</g>
</svg>
