<?xml version="1.0" encoding="UTF-8" standalone="no"?>
<!DOCTYPE svg PUBLIC "-//W3C//DTD SVG 1.1//EN"
 "http://www.w3.org/Graphics/SVG/1.1/DTD/svg11.dtd">
<!-- Generated by graphviz version 2.38.0 (20140413.2041)
 -->
<!-- Title: %3 Pages: 1 -->
<svg width="759pt" height="479pt"
 viewBox="0.00 0.00 758.52 479.00" xmlns="http://www.w3.org/2000/svg" xmlns:xlink="http://www.w3.org/1999/xlink">
<g id="graph0" class="graph" transform="scale(1 1) rotate(0) translate(4 475)">
<title>%3</title>
<!-- 118450489566830562 -->
<g id="node1" class="node"><title>118450489566830562</title>
<polygon fill="#ffffff" stroke="black" points="553.019,-297 434.019,-297 434.019,-261 553.019,-261 553.019,-297"/>
<text text-anchor="middle" x="493.519" y="-275.3" font-family="Times New Roman,serif" font-size="14.00">Admission NC (1)</text>
</g>
<!-- 4941769122289558835 -->
<g id="node2" class="node"><title>4941769122289558835</title>
<polygon fill="#ffffff" stroke="black" points="304.519,-210 240.519,-210 240.519,-174 304.519,-174 304.519,-210"/>
<text text-anchor="middle" x="272.519" y="-188.3" font-family="Times New Roman,serif" font-size="14.00">CRP (1)</text>
</g>
<!-- 118450489566830562&#45;&gt;4941769122289558835 -->
<g id="edge1" class="edge"><title>118450489566830562&#45;&gt;4941769122289558835</title>
<path fill="none" stroke="black" d="M449.062,-260.901C409.67,-245.751 352.593,-223.798 314.095,-208.991"/>
<polygon fill="black" stroke="black" points="315.32,-205.712 304.73,-205.389 312.807,-212.246 315.32,-205.712"/>
<text text-anchor="middle" x="456.019" y="-231.8" font-family="Times New Roman,serif" font-size="14.00">377.38837165516185</text>
</g>
<!-- 6570115252564267433 -->
<g id="node9" class="node"><title>6570115252564267433</title>
<polygon fill="#ffffff" stroke="black" points="323.019,-36 222.019,-36 222.019,-0 323.019,-0 323.019,-36"/>
<text text-anchor="middle" x="272.519" y="-14.3" font-family="Times New Roman,serif" font-size="14.00">Leucocytes (1)</text>
</g>
<!-- 118450489566830562&#45;&gt;6570115252564267433 -->
<g id="edge2" class="edge"><title>118450489566830562&#45;&gt;6570115252564267433</title>
<path fill="none" stroke="black" stroke-width="1.0258" d="M509.711,-260.735C513.701,-255.436 517.427,-249.324 519.519,-243 533.953,-199.363 650.456,-259.309 517.519,-87 495.091,-57.9301 398.36,-37.9269 333.361,-27.482"/>
<polygon fill="black" stroke="black" stroke-width="1.0258" points="333.64,-23.9829 323.218,-25.8877 332.553,-30.898 333.64,-23.9829"/>
<text text-anchor="middle" x="624.019" y="-144.8" font-family="Times New Roman,serif" font-size="14.00">400.01043200927916</text>
</g>
<!-- &#45;5670009864185339888 -->
<g id="node8" class="node"><title>&#45;5670009864185339888</title>
<polygon fill="#ffffff" stroke="black" points="123.519,-123 25.5187,-123 25.5187,-87 123.519,-87 123.519,-123"/>
<text text-anchor="middle" x="74.5187" y="-101.3" font-family="Times New Roman,serif" font-size="14.00">LacticAcid (1)</text>
</g>
<!-- 4941769122289558835&#45;&gt;&#45;5670009864185339888 -->
<g id="edge3" class="edge"><title>4941769122289558835&#45;&gt;&#45;5670009864185339888</title>
<path fill="none" stroke="black" stroke-width="1.29712" d="M240.254,-191.828C175.836,-192.715 34.8562,-190.557 4.51866,-156 -5.10945,-145.033 2.81219,-135.153 16.2885,-127.128"/>
<polygon fill="black" stroke="black" stroke-width="1.29712" points="18.0791,-130.141 25.29,-122.378 14.8123,-123.95 18.0791,-130.141"/>
<text text-anchor="middle" x="60.5187" y="-144.8" font-family="Times New Roman,serif" font-size="14.00">637.8604210392643</text>
</g>
<!-- 4941769122289558835&#45;&gt;6570115252564267433 -->
<g id="edge4" class="edge"><title>4941769122289558835&#45;&gt;6570115252564267433</title>
<path fill="none" stroke="black" stroke-width="2.21532" d="M272.519,-173.879C272.519,-144.001 272.519,-82.1129 272.519,-46.2736"/>
<polygon fill="black" stroke="black" stroke-width="2.21532" points="276.019,-46.0516 272.519,-36.0516 269.019,-46.0516 276.019,-46.0516"/>
<text text-anchor="middle" x="328.519" y="-101.3" font-family="Times New Roman,serif" font-size="14.00">1442.820286661821</text>
</g>
<!-- &#45;1744131764726653331 -->
<g id="node3" class="node"><title>&#45;1744131764726653331</title>
<polygon fill="#ffffff" stroke="black" points="701.019,-471 576.019,-471 576.019,-435 701.019,-435 701.019,-471"/>
<text text-anchor="middle" x="638.519" y="-449.3" font-family="Times New Roman,serif" font-size="14.00">ER Registration (1)</text>
</g>
<!-- &#45;8305476247514553090 -->
<g id="node5" class="node"><title>&#45;8305476247514553090</title>
<polygon fill="#ffffff" stroke="black" points="685.019,-384 592.019,-384 592.019,-348 685.019,-348 685.019,-384"/>
<text text-anchor="middle" x="638.519" y="-362.3" font-family="Times New Roman,serif" font-size="14.00">ER Triage (1)</text>
</g>
<!-- &#45;1744131764726653331&#45;&gt;&#45;8305476247514553090 -->
<g id="edge5" class="edge"><title>&#45;1744131764726653331&#45;&gt;&#45;8305476247514553090</title>
<path fill="none" stroke="black" stroke-width="1.67578" d="M638.519,-434.799C638.519,-423.163 638.519,-407.548 638.519,-394.237"/>
<polygon fill="black" stroke="black" stroke-width="1.67578" points="642.019,-394.175 638.519,-384.175 635.019,-394.175 642.019,-394.175"/>
<text text-anchor="middle" x="694.519" y="-405.8" font-family="Times New Roman,serif" font-size="14.00">969.8222448273341</text>
</g>
<!-- 3296544575651183754 -->
<g id="node4" class="node"><title>3296544575651183754</title>
<polygon fill="#ffffff" stroke="black" points="705.519,-297 571.519,-297 571.519,-261 705.519,-261 705.519,-297"/>
<text text-anchor="middle" x="638.519" y="-275.3" font-family="Times New Roman,serif" font-size="14.00">ER Sepsis Triage (1)</text>
</g>
<!-- &#45;8305476247514553090&#45;&gt;3296544575651183754 -->
<g id="edge6" class="edge"><title>&#45;8305476247514553090&#45;&gt;3296544575651183754</title>
<path fill="none" stroke="black" stroke-width="1.59794" d="M638.519,-347.799C638.519,-336.163 638.519,-320.548 638.519,-307.237"/>
<polygon fill="black" stroke="black" stroke-width="1.59794" points="642.019,-307.175 638.519,-297.175 635.019,-307.175 642.019,-307.175"/>
<text text-anchor="middle" x="694.519" y="-318.8" font-family="Times New Roman,serif" font-size="14.00">901.5834730858924</text>
</g>
<!-- &#45;8429177058128869877 -->
<g id="node6" class="node"><title>&#45;8429177058128869877</title>
<polygon fill="#ffffff" stroke="black" points="551.019,-384 436.019,-384 436.019,-348 551.019,-348 551.019,-384"/>
<text text-anchor="middle" x="493.519" y="-362.3" font-family="Times New Roman,serif" font-size="14.00">IV Antibiotics (1)</text>
</g>
<!-- &#45;8429177058128869877&#45;&gt;118450489566830562 -->
<g id="edge7" class="edge"><title>&#45;8429177058128869877&#45;&gt;118450489566830562</title>
<path fill="none" stroke="black" stroke-width="1.12859" d="M493.519,-347.799C493.519,-336.163 493.519,-320.548 493.519,-307.237"/>
<polygon fill="black" stroke="black" stroke-width="1.12859" points="497.019,-307.175 493.519,-297.175 490.019,-307.175 497.019,-307.175"/>
<text text-anchor="middle" x="549.519" y="-318.8" font-family="Times New Roman,serif" font-size="14.00">490.1168482544193</text>
</g>
<!-- 6215314419735287562 -->
<g id="node7" class="node"><title>6215314419735287562</title>
<polygon fill="#ffffff" stroke="black" points="538.519,-471 448.519,-471 448.519,-435 538.519,-435 538.519,-471"/>
<text text-anchor="middle" x="493.519" y="-449.3" font-family="Times New Roman,serif" font-size="14.00">IV Liquid (1)</text>
</g>
<!-- 6215314419735287562&#45;&gt;&#45;8429177058128869877 -->
<g id="edge8" class="edge"><title>6215314419735287562&#45;&gt;&#45;8429177058128869877</title>
<path fill="none" stroke="black" stroke-width="1.13227" d="M493.519,-434.799C493.519,-423.163 493.519,-407.548 493.519,-394.237"/>
<polygon fill="black" stroke="black" stroke-width="1.13227" points="497.019,-394.175 493.519,-384.175 490.019,-394.175 497.019,-394.175"/>
<text text-anchor="middle" x="549.519" y="-405.8" font-family="Times New Roman,serif" font-size="14.00">493.3423153295958</text>
</g>
<!-- &#45;5670009864185339888&#45;&gt;4941769122289558835 -->
<g id="edge9" class="edge"><title>&#45;5670009864185339888&#45;&gt;4941769122289558835</title>
<path fill="none" stroke="black" stroke-width="1.04333" d="M95.0412,-123.224C110.36,-135.8 130.19,-151.419 139.519,-156 168.309,-170.139 203.508,-179.077 230.461,-184.379"/>
<polygon fill="black" stroke="black" stroke-width="1.04333" points="229.883,-187.832 240.357,-186.236 231.174,-180.952 229.883,-187.832"/>
<text text-anchor="middle" x="199.019" y="-144.8" font-family="Times New Roman,serif" font-size="14.00">415.37226866540834</text>
</g>
<!-- &#45;5670009864185339888&#45;&gt;6570115252564267433 -->
<g id="edge10" class="edge"><title>&#45;5670009864185339888&#45;&gt;6570115252564267433</title>
<path fill="none" stroke="black" stroke-width="1.22338" d="M29.8769,-86.8871C13.2071,-77.9931 0.669527,-66.4011 11.5187,-54 36.9661,-24.9123 142.642,-18.9795 211.475,-18.3044"/>
<polygon fill="black" stroke="black" stroke-width="1.22338" points="211.791,-21.8026 221.769,-18.2395 211.747,-14.8027 211.791,-21.8026"/>
<text text-anchor="middle" x="67.5187" y="-57.8" font-family="Times New Roman,serif" font-size="14.00">573.2160498348064</text>
</g>
<!-- 6570115252564267433&#45;&gt;4941769122289558835 -->
<g id="edge11" class="edge"><title>6570115252564267433&#45;&gt;4941769122289558835</title>
<path fill="none" stroke="black" stroke-width="2.6" d="M318.298,-36.0649C359.342,-54.2127 410.033,-85.4502 388.519,-123 372.602,-150.781 340.443,-168.313 314.015,-178.604"/>
<polygon fill="black" stroke="black" stroke-width="2.6" points="312.756,-175.337 304.578,-182.073 315.172,-181.907 312.756,-175.337"/>
<text text-anchor="middle" x="454.019" y="-101.3" font-family="Times New Roman,serif" font-size="14.00">1780.0574023451238</text>
</g>
<!-- 6570115252564267433&#45;&gt;&#45;5670009864185339888 -->
<g id="edge12" class="edge"><title>6570115252564267433&#45;&gt;&#45;5670009864185339888</title>
<path fill="none" stroke="black" stroke-width="1.06575" d="M221.768,-28.9847C198.221,-34.6426 170.255,-42.8554 146.519,-54 142.05,-56.0983 123.611,-68.9166 106.514,-81.0478"/>
<polygon fill="black" stroke="black" stroke-width="1.06575" points="104.413,-78.2475 98.2955,-86.898 108.472,-83.9502 104.413,-78.2475"/>
<text text-anchor="middle" x="202.519" y="-57.8" font-family="Times New Roman,serif" font-size="14.00">435.0278998956059</text>
</g>
<!-- 6570115252564267433&#45;&gt;6570115252564267433 -->
<g id="edge13" class="edge"><title>6570115252564267433&#45;&gt;6570115252564267433</title>
<path fill="none" stroke="black" stroke-width="1.0782" d="M323.303,-25.5746C333.626,-24.7495 341.019,-22.2246 341.019,-18 341.019,-15.3596 338.131,-13.3832 333.445,-12.0707"/>
<polygon fill="black" stroke="black" stroke-width="1.0782" points="333.734,-8.57199 323.303,-10.4254 332.613,-15.4817 333.734,-8.57199"/>
<text text-anchor="middle" x="400.519" y="-14.3" font-family="Times New Roman,serif" font-size="14.00">445.94689632228216</text>
</g>
</g>
</svg>
