<?xml version="1.0" encoding="UTF-8" standalone="no"?>
<!DOCTYPE svg PUBLIC "-//W3C//DTD SVG 1.1//EN"
 "http://www.w3.org/Graphics/SVG/1.1/DTD/svg11.dtd">
<!-- Generated by graphviz version 2.38.0 (20140413.2041)
 -->
<!-- Title: %3 Pages: 1 -->
<svg width="756pt" height="479pt"
 viewBox="0.00 0.00 756.48 479.00" xmlns="http://www.w3.org/2000/svg" xmlns:xlink="http://www.w3.org/1999/xlink">
<g id="graph0" class="graph" transform="scale(1 1) rotate(0) translate(4 475)">
<title>%3</title>
<!-- 9118780525858573852 -->
<g id="node1" class="node"><title>9118780525858573852</title>
<polygon fill="#ffffff" stroke="black" points="550.978,-297 431.978,-297 431.978,-261 550.978,-261 550.978,-297"/>
<text text-anchor="middle" x="491.478" y="-275.3" font-family="Times New Roman,serif" font-size="14.00">Admission NC (1)</text>
</g>
<!-- 8794229938327540079 -->
<g id="node2" class="node"><title>8794229938327540079</title>
<polygon fill="#ffffff" stroke="black" points="297.478,-210 233.478,-210 233.478,-174 297.478,-174 297.478,-210"/>
<text text-anchor="middle" x="265.478" y="-188.3" font-family="Times New Roman,serif" font-size="14.00">CRP (1)</text>
</g>
<!-- 9118780525858573852&#45;&gt;8794229938327540079 -->
<g id="edge1" class="edge"><title>9118780525858573852&#45;&gt;8794229938327540079</title>
<path fill="none" stroke="black" d="M446.015,-260.901C405.495,-245.661 346.674,-223.538 307.3,-208.73"/>
<polygon fill="black" stroke="black" points="308.324,-205.375 297.732,-205.131 305.86,-211.927 308.324,-205.375"/>
<text text-anchor="middle" x="448.478" y="-231.8" font-family="Times New Roman,serif" font-size="14.00">360.1085071790063</text>
</g>
<!-- &#45;4990305070490083274 -->
<g id="node9" class="node"><title>&#45;4990305070490083274</title>
<polygon fill="#ffffff" stroke="black" points="315.978,-36 214.978,-36 214.978,-0 315.978,-0 315.978,-36"/>
<text text-anchor="middle" x="265.478" y="-14.3" font-family="Times New Roman,serif" font-size="14.00">Leucocytes (1)</text>
</g>
<!-- 9118780525858573852&#45;&gt;&#45;4990305070490083274 -->
<g id="edge2" class="edge"><title>9118780525858573852&#45;&gt;&#45;4990305070490083274</title>
<path fill="none" stroke="black" stroke-width="1.01472" d="M501.227,-260.857C520.371,-224.662 557.667,-139.472 517.478,-87 494.349,-56.8023 393.181,-36.9672 326.274,-26.8902"/>
<polygon fill="black" stroke="black" stroke-width="1.01472" points="326.66,-23.4093 316.257,-25.4153 325.64,-30.3346 326.66,-23.4093"/>
<text text-anchor="middle" x="594.978" y="-144.8" font-family="Times New Roman,serif" font-size="14.00">373.15513439544424</text>
</g>
<!-- 5659693541288529527 -->
<g id="node8" class="node"><title>5659693541288529527</title>
<polygon fill="#ffffff" stroke="black" points="122.478,-123 24.4779,-123 24.4779,-87 122.478,-87 122.478,-123"/>
<text text-anchor="middle" x="73.4779" y="-101.3" font-family="Times New Roman,serif" font-size="14.00">LacticAcid (1)</text>
</g>
<!-- 8794229938327540079&#45;&gt;5659693541288529527 -->
<g id="edge3" class="edge"><title>8794229938327540079&#45;&gt;5659693541288529527</title>
<path fill="none" stroke="black" stroke-width="1.30659" d="M233.082,-191.7C169.901,-192.296 33.8281,-189.549 4.47794,-156 -4.87091,-145.314 2.48856,-135.612 15.3422,-127.66"/>
<polygon fill="black" stroke="black" stroke-width="1.30659" points="17.3537,-130.55 24.4619,-122.693 14.0058,-124.402 17.3537,-130.55"/>
<text text-anchor="middle" x="60.4779" y="-144.8" font-family="Times New Roman,serif" font-size="14.00">631.7841492588345</text>
</g>
<!-- 8794229938327540079&#45;&gt;&#45;4990305070490083274 -->
<g id="edge4" class="edge"><title>8794229938327540079&#45;&gt;&#45;4990305070490083274</title>
<path fill="none" stroke="black" stroke-width="2.23178" d="M265.478,-173.879C265.478,-144.001 265.478,-82.1129 265.478,-46.2736"/>
<polygon fill="black" stroke="black" stroke-width="2.23178" points="268.978,-46.0516 265.478,-36.0516 261.978,-46.0516 268.978,-46.0516"/>
<text text-anchor="middle" x="324.978" y="-101.3" font-family="Times New Roman,serif" font-size="14.00">1451.6203401322562</text>
</g>
<!-- 4941573644585563234 -->
<g id="node3" class="node"><title>4941573644585563234</title>
<polygon fill="#ffffff" stroke="black" points="698.978,-471 573.978,-471 573.978,-435 698.978,-435 698.978,-471"/>
<text text-anchor="middle" x="636.478" y="-449.3" font-family="Times New Roman,serif" font-size="14.00">ER Registration (1)</text>
</g>
<!-- 7781181950460006610 -->
<g id="node5" class="node"><title>7781181950460006610</title>
<polygon fill="#ffffff" stroke="black" points="682.978,-384 589.978,-384 589.978,-348 682.978,-348 682.978,-384"/>
<text text-anchor="middle" x="636.478" y="-362.3" font-family="Times New Roman,serif" font-size="14.00">ER Triage (1)</text>
</g>
<!-- 4941573644585563234&#45;&gt;7781181950460006610 -->
<g id="edge5" class="edge"><title>4941573644585563234&#45;&gt;7781181950460006610</title>
<path fill="none" stroke="black" stroke-width="1.69852" d="M636.478,-434.799C636.478,-423.163 636.478,-407.548 636.478,-394.237"/>
<polygon fill="black" stroke="black" stroke-width="1.69852" points="639.978,-394.175 636.478,-384.175 632.978,-394.175 639.978,-394.175"/>
<text text-anchor="middle" x="692.478" y="-405.8" font-family="Times New Roman,serif" font-size="14.00">979.0803405345264</text>
</g>
<!-- &#45;1916228938975785919 -->
<g id="node4" class="node"><title>&#45;1916228938975785919</title>
<polygon fill="#ffffff" stroke="black" points="703.478,-297 569.478,-297 569.478,-261 703.478,-261 703.478,-297"/>
<text text-anchor="middle" x="636.478" y="-275.3" font-family="Times New Roman,serif" font-size="14.00">ER Sepsis Triage (1)</text>
</g>
<!-- 7781181950460006610&#45;&gt;&#45;1916228938975785919 -->
<g id="edge6" class="edge"><title>7781181950460006610&#45;&gt;&#45;1916228938975785919</title>
<path fill="none" stroke="black" stroke-width="1.63206" d="M636.478,-347.799C636.478,-336.163 636.478,-320.548 636.478,-307.237"/>
<polygon fill="black" stroke="black" stroke-width="1.63206" points="639.978,-307.175 636.478,-297.175 632.978,-307.175 639.978,-307.175"/>
<text text-anchor="middle" x="692.478" y="-318.8" font-family="Times New Roman,serif" font-size="14.00">920.1913579124315</text>
</g>
<!-- 1341266047991071662 -->
<g id="node6" class="node"><title>1341266047991071662</title>
<polygon fill="#ffffff" stroke="black" points="548.978,-384 433.978,-384 433.978,-348 548.978,-348 548.978,-384"/>
<text text-anchor="middle" x="491.478" y="-362.3" font-family="Times New Roman,serif" font-size="14.00">IV Antibiotics (1)</text>
</g>
<!-- 1341266047991071662&#45;&gt;9118780525858573852 -->
<g id="edge7" class="edge"><title>1341266047991071662&#45;&gt;9118780525858573852</title>
<path fill="none" stroke="black" stroke-width="1.14749" d="M491.478,-347.799C491.478,-336.163 491.478,-320.548 491.478,-307.237"/>
<polygon fill="black" stroke="black" stroke-width="1.14749" points="494.978,-307.175 491.478,-297.175 487.978,-307.175 494.978,-307.175"/>
<text text-anchor="middle" x="547.478" y="-318.8" font-family="Times New Roman,serif" font-size="14.00">490.8056654977098</text>
</g>
<!-- 1513237216211266658 -->
<g id="node7" class="node"><title>1513237216211266658</title>
<polygon fill="#ffffff" stroke="black" points="536.478,-471 446.478,-471 446.478,-435 536.478,-435 536.478,-471"/>
<text text-anchor="middle" x="491.478" y="-449.3" font-family="Times New Roman,serif" font-size="14.00">IV Liquid (1)</text>
</g>
<!-- 1513237216211266658&#45;&gt;1341266047991071662 -->
<g id="edge8" class="edge"><title>1513237216211266658&#45;&gt;1341266047991071662</title>
<path fill="none" stroke="black" stroke-width="1.08553" d="M491.478,-434.799C491.478,-423.163 491.478,-407.548 491.478,-394.237"/>
<polygon fill="black" stroke="black" stroke-width="1.08553" points="494.978,-394.175 491.478,-384.175 487.978,-394.175 494.978,-394.175"/>
<text text-anchor="middle" x="547.478" y="-405.8" font-family="Times New Roman,serif" font-size="14.00">435.9025627494748</text>
</g>
<!-- 5659693541288529527&#45;&gt;8794229938327540079 -->
<g id="edge9" class="edge"><title>5659693541288529527&#45;&gt;8794229938327540079</title>
<path fill="none" stroke="black" stroke-width="1.05426" d="M94.3537,-123.183C109.929,-135.736 130.073,-151.345 139.478,-156 166.034,-169.145 198.263,-177.984 223.478,-183.491"/>
<polygon fill="black" stroke="black" stroke-width="1.05426" points="222.963,-186.959 233.467,-185.58 224.395,-180.107 222.963,-186.959"/>
<text text-anchor="middle" x="195.478" y="-144.8" font-family="Times New Roman,serif" font-size="14.00">408.1924420141714</text>
</g>
<!-- 5659693541288529527&#45;&gt;&#45;4990305070490083274 -->
<g id="edge10" class="edge"><title>5659693541288529527&#45;&gt;&#45;4990305070490083274</title>
<path fill="none" stroke="black" stroke-width="1.25024" d="M28.8529,-86.9018C12.1871,-78.0112 -0.351972,-66.4179 10.4779,-54 35.1671,-25.6907 137.404,-19.4691 204.688,-18.5336"/>
<polygon fill="black" stroke="black" stroke-width="1.25024" points="204.795,-22.0328 214.758,-18.4291 204.722,-15.0332 204.795,-22.0328"/>
<text text-anchor="middle" x="66.4779" y="-57.8" font-family="Times New Roman,serif" font-size="14.00">581.8483859936777</text>
</g>
<!-- &#45;4990305070490083274&#45;&gt;8794229938327540079 -->
<g id="edge11" class="edge"><title>&#45;4990305070490083274&#45;&gt;8794229938327540079</title>
<path fill="none" stroke="black" stroke-width="2.6" d="M315.211,-36.1523C358.48,-54.0524 410.995,-84.8222 388.478,-123 371.069,-152.517 335.743,-170.113 307.398,-179.985"/>
<polygon fill="black" stroke="black" stroke-width="2.6" points="306.117,-176.721 297.704,-183.161 308.296,-183.373 306.117,-176.721"/>
<text text-anchor="middle" x="453.978" y="-101.3" font-family="Times New Roman,serif" font-size="14.00">1777.9082557537563</text>
</g>
<!-- &#45;4990305070490083274&#45;&gt;5659693541288529527 -->
<g id="edge12" class="edge"><title>&#45;4990305070490083274&#45;&gt;5659693541288529527</title>
<path fill="none" stroke="black" stroke-width="1.07803" d="M214.812,-29.9012C192.893,-35.5924 167.314,-43.5757 145.478,-54 141.023,-56.127 122.584,-68.9448 105.483,-81.0687"/>
<polygon fill="black" stroke="black" stroke-width="1.07803" points="103.384,-78.267 97.2627,-86.9149 107.441,-83.9715 103.384,-78.267"/>
<text text-anchor="middle" x="198.478" y="-57.8" font-family="Times New Roman,serif" font-size="14.00">429.256958348838</text>
</g>
<!-- &#45;4990305070490083274&#45;&gt;&#45;4990305070490083274 -->
<g id="edge13" class="edge"><title>&#45;4990305070490083274&#45;&gt;&#45;4990305070490083274</title>
<path fill="none" stroke="black" stroke-width="1.10857" d="M316.262,-25.5746C326.585,-24.7495 333.978,-22.2246 333.978,-18 333.978,-15.3596 331.09,-13.3832 326.404,-12.0707"/>
<polygon fill="black" stroke="black" stroke-width="1.10857" points="326.693,-8.57199 316.262,-10.4254 325.572,-15.4817 326.693,-8.57199"/>
<text text-anchor="middle" x="393.478" y="-14.3" font-family="Times New Roman,serif" font-size="14.00">456.31422432467804</text>
</g>
</g>
</svg>
