<?xml version="1.0" encoding="UTF-8" standalone="no"?>
<!DOCTYPE svg PUBLIC "-//W3C//DTD SVG 1.1//EN"
 "http://www.w3.org/Graphics/SVG/1.1/DTD/svg11.dtd">
<!-- Generated by graphviz version 2.38.0 (20140413.2041)
 -->
<!-- Title: %3 Pages: 1 -->
<svg width="759pt" height="479pt"
 viewBox="0.00 0.00 758.58 479.00" xmlns="http://www.w3.org/2000/svg" xmlns:xlink="http://www.w3.org/1999/xlink">
<g id="graph0" class="graph" transform="scale(1 1) rotate(0) translate(4 475)">
<title>%3</title>
<!-- 118450489566830562 -->
<g id="node1" class="node"><title>118450489566830562</title>
<polygon fill="#ffffff" stroke="black" points="553.077,-297 434.077,-297 434.077,-261 553.077,-261 553.077,-297"/>
<text text-anchor="middle" x="493.577" y="-275.3" font-family="Times New Roman,serif" font-size="14.00">Admission NC (1)</text>
</g>
<!-- 4941769122289558835 -->
<g id="node2" class="node"><title>4941769122289558835</title>
<polygon fill="#ffffff" stroke="black" points="304.577,-210 240.577,-210 240.577,-174 304.577,-174 304.577,-210"/>
<text text-anchor="middle" x="272.577" y="-188.3" font-family="Times New Roman,serif" font-size="14.00">CRP (1)</text>
</g>
<!-- 118450489566830562&#45;&gt;4941769122289558835 -->
<g id="edge1" class="edge"><title>118450489566830562&#45;&gt;4941769122289558835</title>
<path fill="none" stroke="black" d="M449.12,-260.901C409.729,-245.751 352.651,-223.798 314.153,-208.991"/>
<polygon fill="black" stroke="black" points="315.378,-205.712 304.788,-205.389 312.865,-212.246 315.378,-205.712"/>
<text text-anchor="middle" x="456.077" y="-231.8" font-family="Times New Roman,serif" font-size="14.00">370.59558568049675</text>
</g>
<!-- 6570115252564267433 -->
<g id="node9" class="node"><title>6570115252564267433</title>
<polygon fill="#ffffff" stroke="black" points="323.077,-36 222.077,-36 222.077,-0 323.077,-0 323.077,-36"/>
<text text-anchor="middle" x="272.577" y="-14.3" font-family="Times New Roman,serif" font-size="14.00">Leucocytes (1)</text>
</g>
<!-- 118450489566830562&#45;&gt;6570115252564267433 -->
<g id="edge2" class="edge"><title>118450489566830562&#45;&gt;6570115252564267433</title>
<path fill="none" stroke="black" stroke-width="1.04669" d="M509.769,-260.735C513.759,-255.436 517.485,-249.324 519.577,-243 534.011,-199.363 650.514,-259.309 517.577,-87 495.149,-57.9301 398.418,-37.9269 333.419,-27.482"/>
<polygon fill="black" stroke="black" stroke-width="1.04669" points="333.698,-23.9829 323.276,-25.8877 332.611,-30.898 333.698,-23.9829"/>
<text text-anchor="middle" x="620.577" y="-144.8" font-family="Times New Roman,serif" font-size="14.00">411.6822183483026</text>
</g>
<!-- &#45;5670009864185339888 -->
<g id="node8" class="node"><title>&#45;5670009864185339888</title>
<polygon fill="#ffffff" stroke="black" points="126.577,-123 28.5768,-123 28.5768,-87 126.577,-87 126.577,-123"/>
<text text-anchor="middle" x="77.5768" y="-101.3" font-family="Times New Roman,serif" font-size="14.00">LacticAcid (1)</text>
</g>
<!-- 4941769122289558835&#45;&gt;&#45;5670009864185339888 -->
<g id="edge3" class="edge"><title>4941769122289558835&#45;&gt;&#45;5670009864185339888</title>
<path fill="none" stroke="black" stroke-width="1.29302" d="M240.312,-191.828C175.894,-192.715 34.9143,-190.557 4.57677,-156 -5.8554,-144.117 3.90492,-133.706 19.3056,-125.505"/>
<polygon fill="black" stroke="black" stroke-width="1.29302" points="20.8376,-128.652 28.3495,-121.18 17.8179,-122.336 20.8376,-128.652"/>
<text text-anchor="middle" x="60.5768" y="-144.8" font-family="Times New Roman,serif" font-size="14.00">628.4343419394324</text>
</g>
<!-- 4941769122289558835&#45;&gt;6570115252564267433 -->
<g id="edge4" class="edge"><title>4941769122289558835&#45;&gt;6570115252564267433</title>
<path fill="none" stroke="black" stroke-width="2.21047" d="M272.577,-173.879C272.577,-144.001 272.577,-82.1129 272.577,-46.2736"/>
<polygon fill="black" stroke="black" stroke-width="2.21047" points="276.077,-46.0516 272.577,-36.0516 269.077,-46.0516 276.077,-46.0516"/>
<text text-anchor="middle" x="328.577" y="-101.3" font-family="Times New Roman,serif" font-size="14.00">1435.734901018245</text>
</g>
<!-- &#45;1744131764726653331 -->
<g id="node3" class="node"><title>&#45;1744131764726653331</title>
<polygon fill="#ffffff" stroke="black" points="701.077,-471 576.077,-471 576.077,-435 701.077,-435 701.077,-471"/>
<text text-anchor="middle" x="638.577" y="-449.3" font-family="Times New Roman,serif" font-size="14.00">ER Registration (1)</text>
</g>
<!-- &#45;8305476247514553090 -->
<g id="node5" class="node"><title>&#45;8305476247514553090</title>
<polygon fill="#ffffff" stroke="black" points="685.077,-384 592.077,-384 592.077,-348 685.077,-348 685.077,-384"/>
<text text-anchor="middle" x="638.577" y="-362.3" font-family="Times New Roman,serif" font-size="14.00">ER Triage (1)</text>
</g>
<!-- &#45;1744131764726653331&#45;&gt;&#45;8305476247514553090 -->
<g id="edge5" class="edge"><title>&#45;1744131764726653331&#45;&gt;&#45;8305476247514553090</title>
<path fill="none" stroke="black" stroke-width="1.6741" d="M638.577,-434.799C638.577,-423.163 638.577,-407.548 638.577,-394.237"/>
<polygon fill="black" stroke="black" stroke-width="1.6741" points="642.077,-394.175 638.577,-384.175 635.077,-394.175 642.077,-394.175"/>
<text text-anchor="middle" x="694.577" y="-405.8" font-family="Times New Roman,serif" font-size="14.00">963.7654770871708</text>
</g>
<!-- 3296544575651183754 -->
<g id="node4" class="node"><title>3296544575651183754</title>
<polygon fill="#ffffff" stroke="black" points="705.577,-297 571.577,-297 571.577,-261 705.577,-261 705.577,-297"/>
<text text-anchor="middle" x="638.577" y="-275.3" font-family="Times New Roman,serif" font-size="14.00">ER Sepsis Triage (1)</text>
</g>
<!-- &#45;8305476247514553090&#45;&gt;3296544575651183754 -->
<g id="edge6" class="edge"><title>&#45;8305476247514553090&#45;&gt;3296544575651183754</title>
<path fill="none" stroke="black" stroke-width="1.60491" d="M638.577,-347.799C638.577,-336.163 638.577,-320.548 638.577,-307.237"/>
<polygon fill="black" stroke="black" stroke-width="1.60491" points="642.077,-307.175 638.577,-297.175 635.077,-307.175 642.077,-307.175"/>
<text text-anchor="middle" x="694.577" y="-318.8" font-family="Times New Roman,serif" font-size="14.00">902.8772153475794</text>
</g>
<!-- &#45;8429177058128869877 -->
<g id="node6" class="node"><title>&#45;8429177058128869877</title>
<polygon fill="#ffffff" stroke="black" points="551.077,-384 436.077,-384 436.077,-348 551.077,-348 551.077,-384"/>
<text text-anchor="middle" x="493.577" y="-362.3" font-family="Times New Roman,serif" font-size="14.00">IV Antibiotics (1)</text>
</g>
<!-- &#45;8429177058128869877&#45;&gt;118450489566830562 -->
<g id="edge7" class="edge"><title>&#45;8429177058128869877&#45;&gt;118450489566830562</title>
<path fill="none" stroke="black" stroke-width="1.13096" d="M493.577,-347.799C493.577,-336.163 493.577,-320.548 493.577,-307.237"/>
<polygon fill="black" stroke="black" stroke-width="1.13096" points="497.077,-307.175 493.577,-297.175 490.077,-307.175 497.077,-307.175"/>
<text text-anchor="middle" x="549.577" y="-318.8" font-family="Times New Roman,serif" font-size="14.00">485.8322745095012</text>
</g>
<!-- 6215314419735287562 -->
<g id="node7" class="node"><title>6215314419735287562</title>
<polygon fill="#ffffff" stroke="black" points="538.577,-471 448.577,-471 448.577,-435 538.577,-435 538.577,-471"/>
<text text-anchor="middle" x="493.577" y="-449.3" font-family="Times New Roman,serif" font-size="14.00">IV Liquid (1)</text>
</g>
<!-- 6215314419735287562&#45;&gt;&#45;8429177058128869877 -->
<g id="edge8" class="edge"><title>6215314419735287562&#45;&gt;&#45;8429177058128869877</title>
<path fill="none" stroke="black" stroke-width="1.14348" d="M493.577,-434.799C493.577,-423.163 493.577,-407.548 493.577,-394.237"/>
<polygon fill="black" stroke="black" stroke-width="1.14348" points="497.077,-394.175 493.577,-384.175 490.077,-394.175 497.077,-394.175"/>
<text text-anchor="middle" x="553.077" y="-405.8" font-family="Times New Roman,serif" font-size="14.00">496.85230123343234</text>
</g>
<!-- &#45;5670009864185339888&#45;&gt;4941769122289558835 -->
<g id="edge9" class="edge"><title>&#45;5670009864185339888&#45;&gt;4941769122289558835</title>
<path fill="none" stroke="black" stroke-width="1.00802" d="M97.0908,-123.239C111.669,-135.824 130.568,-151.446 139.577,-156 168.203,-170.469 203.41,-179.39 230.408,-184.602"/>
<polygon fill="black" stroke="black" stroke-width="1.00802" points="229.855,-188.059 240.323,-186.422 231.119,-181.174 229.855,-188.059"/>
<text text-anchor="middle" x="199.077" y="-144.8" font-family="Times New Roman,serif" font-size="14.00">377.65066455320994</text>
</g>
<!-- &#45;5670009864185339888&#45;&gt;6570115252564267433 -->
<g id="edge10" class="edge"><title>&#45;5670009864185339888&#45;&gt;6570115252564267433</title>
<path fill="none" stroke="black" stroke-width="1.21711" d="M35.3058,-86.8158C19.1902,-77.8198 6.97114,-66.1607 17.5768,-54 42.2659,-25.6907 144.503,-19.4691 211.786,-18.5336"/>
<polygon fill="black" stroke="black" stroke-width="1.21711" points="211.894,-22.0328 221.857,-18.4291 211.821,-15.0332 211.894,-22.0328"/>
<text text-anchor="middle" x="73.5768" y="-57.8" font-family="Times New Roman,serif" font-size="14.00">561.6378688654022</text>
</g>
<!-- 6570115252564267433&#45;&gt;4941769122289558835 -->
<g id="edge11" class="edge"><title>6570115252564267433&#45;&gt;4941769122289558835</title>
<path fill="none" stroke="black" stroke-width="2.6" d="M318.356,-36.0649C359.4,-54.2127 410.091,-85.4502 388.577,-123 372.66,-150.781 340.501,-168.313 314.073,-178.604"/>
<polygon fill="black" stroke="black" stroke-width="2.6" points="312.814,-175.337 304.636,-182.073 315.23,-181.907 312.814,-175.337"/>
<text text-anchor="middle" x="454.077" y="-101.3" font-family="Times New Roman,serif" font-size="14.00">1778.5017069869314</text>
</g>
<!-- 6570115252564267433&#45;&gt;&#45;5670009864185339888 -->
<g id="edge12" class="edge"><title>6570115252564267433&#45;&gt;&#45;5670009864185339888</title>
<path fill="none" stroke="black" stroke-width="1.07534" d="M222.005,-30.0998C200.103,-35.8269 174.511,-43.7834 152.577,-54 151.387,-54.554 130.85,-68.2571 111.569,-81.1764"/>
<polygon fill="black" stroke="black" stroke-width="1.07534" points="109.515,-78.3395 103.158,-86.8153 113.413,-84.1537 109.515,-78.3395"/>
<text text-anchor="middle" x="205.577" y="-57.8" font-family="Times New Roman,serif" font-size="14.00">436.890019349341</text>
</g>
<!-- 6570115252564267433&#45;&gt;6570115252564267433 -->
<g id="edge13" class="edge"><title>6570115252564267433&#45;&gt;6570115252564267433</title>
<path fill="none" stroke="black" stroke-width="1.10704" d="M323.361,-25.5746C333.684,-24.7495 341.077,-22.2246 341.077,-18 341.077,-15.3596 338.189,-13.3832 333.503,-12.0707"/>
<polygon fill="black" stroke="black" stroke-width="1.10704" points="333.792,-8.57199 323.361,-10.4254 332.671,-15.4817 333.792,-8.57199"/>
<text text-anchor="middle" x="397.077" y="-14.3" font-family="Times New Roman,serif" font-size="14.00">464.7819767069925</text>
</g>
</g>
</svg>
