<?xml version="1.0" encoding="UTF-8" standalone="no"?>
<!DOCTYPE svg PUBLIC "-//W3C//DTD SVG 1.1//EN"
 "http://www.w3.org/Graphics/SVG/1.1/DTD/svg11.dtd">
<!-- Generated by graphviz version 2.38.0 (20140413.2041)
 -->
<!-- Title: %3 Pages: 1 -->
<svg width="753pt" height="479pt"
 viewBox="0.00 0.00 753.41 479.00" xmlns="http://www.w3.org/2000/svg" xmlns:xlink="http://www.w3.org/1999/xlink">
<g id="graph0" class="graph" transform="scale(1 1) rotate(0) translate(4 475)">
<title>%3</title>
<!-- &#45;6760735685208204671 -->
<g id="node1" class="node"><title>&#45;6760735685208204671</title>
<polygon fill="#ffffff" stroke="black" points="547.909,-297 428.909,-297 428.909,-261 547.909,-261 547.909,-297"/>
<text text-anchor="middle" x="488.409" y="-275.3" font-family="Times New Roman,serif" font-size="14.00">Admission NC (1)</text>
</g>
<!-- 7850561497370058999 -->
<g id="node2" class="node"><title>7850561497370058999</title>
<polygon fill="#ffffff" stroke="black" points="304.409,-210 240.409,-210 240.409,-174 304.409,-174 304.409,-210"/>
<text text-anchor="middle" x="272.409" y="-188.3" font-family="Times New Roman,serif" font-size="14.00">CRP (1)</text>
</g>
<!-- &#45;6760735685208204671&#45;&gt;7850561497370058999 -->
<g id="edge1" class="edge"><title>&#45;6760735685208204671&#45;&gt;7850561497370058999</title>
<path fill="none" stroke="black" d="M444.958,-260.901C406.847,-245.904 351.798,-224.241 314.192,-209.442"/>
<polygon fill="black" stroke="black" points="315.14,-206.054 304.553,-205.649 312.577,-212.568 315.14,-206.054"/>
<text text-anchor="middle" x="446.409" y="-231.8" font-family="Times New Roman,serif" font-size="14.00">369.663681953837</text>
</g>
<!-- 6179918396602481755 -->
<g id="node9" class="node"><title>6179918396602481755</title>
<polygon fill="#ffffff" stroke="black" points="322.909,-36 221.909,-36 221.909,-0 322.909,-0 322.909,-36"/>
<text text-anchor="middle" x="272.409" y="-14.3" font-family="Times New Roman,serif" font-size="14.00">Leucocytes (1)</text>
</g>
<!-- &#45;6760735685208204671&#45;&gt;6179918396602481755 -->
<g id="edge2" class="edge"><title>&#45;6760735685208204671&#45;&gt;6179918396602481755</title>
<path fill="none" stroke="black" stroke-width="1.04254" d="M497.691,-260.883C515.888,-224.739 551.161,-139.64 511.409,-87 489.909,-58.5292 396.422,-38.4622 332.945,-27.8245"/>
<polygon fill="black" stroke="black" stroke-width="1.04254" points="333.465,-24.3631 323.031,-26.1983 332.332,-31.2708 333.465,-24.3631"/>
<text text-anchor="middle" x="589.909" y="-144.8" font-family="Times New Roman,serif" font-size="14.00">407.11745348849394</text>
</g>
<!-- 1152587832168206417 -->
<g id="node8" class="node"><title>1152587832168206417</title>
<polygon fill="#ffffff" stroke="black" points="126.409,-123 28.4093,-123 28.4093,-87 126.409,-87 126.409,-123"/>
<text text-anchor="middle" x="77.4093" y="-101.3" font-family="Times New Roman,serif" font-size="14.00">LacticAcid (1)</text>
</g>
<!-- 7850561497370058999&#45;&gt;1152587832168206417 -->
<g id="edge3" class="edge"><title>7850561497370058999&#45;&gt;1152587832168206417</title>
<path fill="none" stroke="black" stroke-width="1.29404" d="M240.275,-191.581C178.33,-191.94 45.9725,-188.751 17.4093,-156 8.79222,-146.119 15.243,-136.57 26.609,-128.511"/>
<polygon fill="black" stroke="black" stroke-width="1.29404" points="28.5106,-131.45 35.1383,-123.184 24.8026,-125.513 28.5106,-131.45"/>
<text text-anchor="middle" x="70.4093" y="-144.8" font-family="Times New Roman,serif" font-size="14.00">628.569373379304</text>
</g>
<!-- 7850561497370058999&#45;&gt;6179918396602481755 -->
<g id="edge4" class="edge"><title>7850561497370058999&#45;&gt;6179918396602481755</title>
<path fill="none" stroke="black" stroke-width="2.222" d="M272.409,-173.879C272.409,-144.001 272.409,-82.1129 272.409,-46.2736"/>
<polygon fill="black" stroke="black" stroke-width="2.222" points="275.909,-46.0516 272.409,-36.0516 268.909,-46.0516 275.909,-46.0516"/>
<text text-anchor="middle" x="331.909" y="-101.3" font-family="Times New Roman,serif" font-size="14.00">1445.6501705093833</text>
</g>
<!-- &#45;2410219256766748193 -->
<g id="node3" class="node"><title>&#45;2410219256766748193</title>
<polygon fill="#ffffff" stroke="black" points="695.909,-471 570.909,-471 570.909,-435 695.909,-435 695.909,-471"/>
<text text-anchor="middle" x="633.409" y="-449.3" font-family="Times New Roman,serif" font-size="14.00">ER Registration (1)</text>
</g>
<!-- &#45;2872325205858232948 -->
<g id="node5" class="node"><title>&#45;2872325205858232948</title>
<polygon fill="#ffffff" stroke="black" points="679.909,-384 586.909,-384 586.909,-348 679.909,-348 679.909,-384"/>
<text text-anchor="middle" x="633.409" y="-362.3" font-family="Times New Roman,serif" font-size="14.00">ER Triage (1)</text>
</g>
<!-- &#45;2410219256766748193&#45;&gt;&#45;2872325205858232948 -->
<g id="edge5" class="edge"><title>&#45;2410219256766748193&#45;&gt;&#45;2872325205858232948</title>
<path fill="none" stroke="black" stroke-width="1.68293" d="M633.409,-434.799C633.409,-423.163 633.409,-407.548 633.409,-394.237"/>
<polygon fill="black" stroke="black" stroke-width="1.68293" points="636.909,-394.175 633.409,-384.175 629.909,-394.175 636.909,-394.175"/>
<text text-anchor="middle" x="689.409" y="-405.8" font-family="Times New Roman,serif" font-size="14.00">970.9965935049014</text>
</g>
<!-- 8892003065059452103 -->
<g id="node4" class="node"><title>8892003065059452103</title>
<polygon fill="#ffffff" stroke="black" points="700.409,-297 566.409,-297 566.409,-261 700.409,-261 700.409,-297"/>
<text text-anchor="middle" x="633.409" y="-275.3" font-family="Times New Roman,serif" font-size="14.00">ER Sepsis Triage (1)</text>
</g>
<!-- &#45;2872325205858232948&#45;&gt;8892003065059452103 -->
<g id="edge6" class="edge"><title>&#45;2872325205858232948&#45;&gt;8892003065059452103</title>
<path fill="none" stroke="black" stroke-width="1.60801" d="M633.409,-347.799C633.409,-336.163 633.409,-320.548 633.409,-307.237"/>
<polygon fill="black" stroke="black" stroke-width="1.60801" points="636.909,-307.175 633.409,-297.175 629.909,-307.175 636.909,-307.175"/>
<text text-anchor="middle" x="689.409" y="-318.8" font-family="Times New Roman,serif" font-size="14.00">905.0286464440726</text>
</g>
<!-- &#45;6564841300794043563 -->
<g id="node6" class="node"><title>&#45;6564841300794043563</title>
<polygon fill="#ffffff" stroke="black" points="545.909,-384 430.909,-384 430.909,-348 545.909,-348 545.909,-384"/>
<text text-anchor="middle" x="488.409" y="-362.3" font-family="Times New Roman,serif" font-size="14.00">IV Antibiotics (1)</text>
</g>
<!-- &#45;6564841300794043563&#45;&gt;&#45;6760735685208204671 -->
<g id="edge7" class="edge"><title>&#45;6564841300794043563&#45;&gt;&#45;6760735685208204671</title>
<path fill="none" stroke="black" stroke-width="1.13531" d="M488.409,-347.799C488.409,-336.163 488.409,-320.548 488.409,-307.237"/>
<polygon fill="black" stroke="black" stroke-width="1.13531" points="491.909,-307.175 488.409,-297.175 484.909,-307.175 491.909,-307.175"/>
<text text-anchor="middle" x="544.409" y="-318.8" font-family="Times New Roman,serif" font-size="14.00">488.8026204421764</text>
</g>
<!-- &#45;1926219633770359302 -->
<g id="node7" class="node"><title>&#45;1926219633770359302</title>
<polygon fill="#ffffff" stroke="black" points="533.409,-471 443.409,-471 443.409,-435 533.409,-435 533.409,-471"/>
<text text-anchor="middle" x="488.409" y="-449.3" font-family="Times New Roman,serif" font-size="14.00">IV Liquid (1)</text>
</g>
<!-- &#45;1926219633770359302&#45;&gt;&#45;6564841300794043563 -->
<g id="edge8" class="edge"><title>&#45;1926219633770359302&#45;&gt;&#45;6564841300794043563</title>
<path fill="none" stroke="black" stroke-width="1.14906" d="M488.409,-434.799C488.409,-423.163 488.409,-407.548 488.409,-394.237"/>
<polygon fill="black" stroke="black" stroke-width="1.14906" points="491.909,-394.175 488.409,-384.175 484.909,-394.175 491.909,-394.175"/>
<text text-anchor="middle" x="547.909" y="-405.8" font-family="Times New Roman,serif" font-size="14.00">500.91264010205157</text>
</g>
<!-- 1152587832168206417&#45;&gt;7850561497370058999 -->
<g id="edge9" class="edge"><title>1152587832168206417&#45;&gt;7850561497370058999</title>
<path fill="none" stroke="black" stroke-width="1.03907" d="M100.171,-123.111C118.276,-136.616 141.378,-153.576 146.409,-156 173.014,-168.819 205.113,-177.647 230.254,-183.231"/>
<polygon fill="black" stroke="black" stroke-width="1.03907" points="229.707,-186.693 240.217,-185.356 231.167,-179.847 229.707,-186.693"/>
<text text-anchor="middle" x="202.409" y="-144.8" font-family="Times New Roman,serif" font-size="14.00">404.0618112407786</text>
</g>
<!-- 1152587832168206417&#45;&gt;6179918396602481755 -->
<g id="edge10" class="edge"><title>1152587832168206417&#45;&gt;6179918396602481755</title>
<path fill="none" stroke="black" stroke-width="1.22124" d="M28.182,-88.8198C8.04485,-80.0995 -7.95475,-68.0837 4.40929,-54 30.8168,-23.9195 141.057,-18.3878 211.662,-18.0442"/>
<polygon fill="black" stroke="black" stroke-width="1.22124" points="211.782,-21.5441 221.777,-18.0289 211.772,-14.5441 211.782,-21.5441"/>
<text text-anchor="middle" x="60.4093" y="-57.8" font-family="Times New Roman,serif" font-size="14.00">564.4649810917449</text>
</g>
<!-- 6179918396602481755&#45;&gt;7850561497370058999 -->
<g id="edge11" class="edge"><title>6179918396602481755&#45;&gt;7850561497370058999</title>
<path fill="none" stroke="black" stroke-width="2.6" d="M322.143,-36.1523C365.411,-54.0524 417.927,-84.8222 395.409,-123 378,-152.517 342.674,-170.113 314.329,-179.985"/>
<polygon fill="black" stroke="black" stroke-width="2.6" points="313.048,-176.721 304.635,-183.161 315.228,-183.373 313.048,-176.721"/>
<text text-anchor="middle" x="454.409" y="-101.3" font-family="Times New Roman,serif" font-size="14.00">1778.48866505455</text>
</g>
<!-- 6179918396602481755&#45;&gt;1152587832168206417 -->
<g id="edge12" class="edge"><title>6179918396602481755&#45;&gt;1152587832168206417</title>
<path fill="none" stroke="black" stroke-width="1.07421" d="M221.652,-27.1283C196.059,-32.5064 165.087,-41.0215 139.409,-54 131.949,-57.7709 117.706,-69.1328 104.751,-80.0742"/>
<polygon fill="black" stroke="black" stroke-width="1.07421" points="102.253,-77.6044 96.9233,-86.7609 106.8,-82.9269 102.253,-77.6044"/>
<text text-anchor="middle" x="198.909" y="-57.8" font-family="Times New Roman,serif" font-size="14.00">435.00480539960415</text>
</g>
<!-- 6179918396602481755&#45;&gt;6179918396602481755 -->
<g id="edge13" class="edge"><title>6179918396602481755&#45;&gt;6179918396602481755</title>
<path fill="none" stroke="black" stroke-width="1.10063" d="M323.193,-25.5746C333.517,-24.7495 340.909,-22.2246 340.909,-18 340.909,-15.3596 338.022,-13.3832 333.335,-12.0707"/>
<polygon fill="black" stroke="black" stroke-width="1.10063" points="333.625,-8.57199 323.193,-10.4254 332.504,-15.4817 333.625,-8.57199"/>
<text text-anchor="middle" x="396.909" y="-14.3" font-family="Times New Roman,serif" font-size="14.00">458.2694895342703</text>
</g>
</g>
</svg>
