<?xml version="1.0" encoding="UTF-8" standalone="no"?>
<!DOCTYPE svg PUBLIC "-//W3C//DTD SVG 1.1//EN"
 "http://www.w3.org/Graphics/SVG/1.1/DTD/svg11.dtd">
<!-- Generated by graphviz version 2.38.0 (20140413.2041)
 -->
<!-- Title: %3 Pages: 1 -->
<svg width="758pt" height="479pt"
 viewBox="0.00 0.00 758.41 479.00" xmlns="http://www.w3.org/2000/svg" xmlns:xlink="http://www.w3.org/1999/xlink">
<g id="graph0" class="graph" transform="scale(1 1) rotate(0) translate(4 475)">
<title>%3</title>
<!-- 118450489566830562 -->
<g id="node1" class="node"><title>118450489566830562</title>
<polygon fill="#ffffff" stroke="black" points="552.909,-297 433.909,-297 433.909,-261 552.909,-261 552.909,-297"/>
<text text-anchor="middle" x="493.409" y="-275.3" font-family="Times New Roman,serif" font-size="14.00">Admission NC (1)</text>
</g>
<!-- 4941769122289558835 -->
<g id="node2" class="node"><title>4941769122289558835</title>
<polygon fill="#ffffff" stroke="black" points="304.409,-210 240.409,-210 240.409,-174 304.409,-174 304.409,-210"/>
<text text-anchor="middle" x="272.409" y="-188.3" font-family="Times New Roman,serif" font-size="14.00">CRP (1)</text>
</g>
<!-- 118450489566830562&#45;&gt;4941769122289558835 -->
<g id="edge1" class="edge"><title>118450489566830562&#45;&gt;4941769122289558835</title>
<path fill="none" stroke="black" d="M448.952,-260.901C409.561,-245.751 352.483,-223.798 313.986,-208.991"/>
<polygon fill="black" stroke="black" points="315.211,-205.712 304.621,-205.389 312.698,-212.246 315.211,-205.712"/>
<text text-anchor="middle" x="452.409" y="-231.8" font-family="Times New Roman,serif" font-size="14.00">355.4635456372946</text>
</g>
<!-- 6570115252564267433 -->
<g id="node9" class="node"><title>6570115252564267433</title>
<polygon fill="#ffffff" stroke="black" points="322.909,-36 221.909,-36 221.909,-0 322.909,-0 322.909,-36"/>
<text text-anchor="middle" x="272.409" y="-14.3" font-family="Times New Roman,serif" font-size="14.00">Leucocytes (1)</text>
</g>
<!-- 118450489566830562&#45;&gt;6570115252564267433 -->
<g id="edge2" class="edge"><title>118450489566830562&#45;&gt;6570115252564267433</title>
<path fill="none" stroke="black" stroke-width="1.06245" d="M504.726,-260.861C507.786,-255.376 510.716,-249.131 512.409,-243 530.878,-176.135 559.392,-142.222 517.409,-87 495.189,-57.7718 398.395,-37.8161 333.327,-27.4237"/>
<polygon fill="black" stroke="black" stroke-width="1.06245" points="333.593,-23.9229 323.173,-25.838 332.513,-30.8391 333.593,-23.9229"/>
<text text-anchor="middle" x="598.909" y="-144.8" font-family="Times New Roman,serif" font-size="14.00">410.40597606781193</text>
</g>
<!-- &#45;5670009864185339888 -->
<g id="node8" class="node"><title>&#45;5670009864185339888</title>
<polygon fill="#ffffff" stroke="black" points="126.409,-123 28.4093,-123 28.4093,-87 126.409,-87 126.409,-123"/>
<text text-anchor="middle" x="77.4093" y="-101.3" font-family="Times New Roman,serif" font-size="14.00">LacticAcid (1)</text>
</g>
<!-- 4941769122289558835&#45;&gt;&#45;5670009864185339888 -->
<g id="edge3" class="edge"><title>4941769122289558835&#45;&gt;&#45;5670009864185339888</title>
<path fill="none" stroke="black" stroke-width="1.3171" d="M240.275,-191.581C178.33,-191.94 45.9725,-188.751 17.4093,-156 8.79222,-146.119 15.243,-136.57 26.609,-128.511"/>
<polygon fill="black" stroke="black" stroke-width="1.3171" points="28.5106,-131.45 35.1383,-123.184 24.8026,-125.513 28.5106,-131.45"/>
<text text-anchor="middle" x="70.4093" y="-144.8" font-family="Times New Roman,serif" font-size="14.00">634.462330264626</text>
</g>
<!-- 4941769122289558835&#45;&gt;6570115252564267433 -->
<g id="edge4" class="edge"><title>4941769122289558835&#45;&gt;6570115252564267433</title>
<path fill="none" stroke="black" stroke-width="2.23381" d="M272.409,-173.879C272.409,-144.001 272.409,-82.1129 272.409,-46.2736"/>
<polygon fill="black" stroke="black" stroke-width="2.23381" points="275.909,-46.0516 272.409,-36.0516 268.909,-46.0516 275.909,-46.0516"/>
<text text-anchor="middle" x="328.409" y="-101.3" font-family="Times New Roman,serif" font-size="14.00">1441.032331165481</text>
</g>
<!-- &#45;1744131764726653331 -->
<g id="node3" class="node"><title>&#45;1744131764726653331</title>
<polygon fill="#ffffff" stroke="black" points="700.909,-471 575.909,-471 575.909,-435 700.909,-435 700.909,-471"/>
<text text-anchor="middle" x="638.409" y="-449.3" font-family="Times New Roman,serif" font-size="14.00">ER Registration (1)</text>
</g>
<!-- &#45;8305476247514553090 -->
<g id="node5" class="node"><title>&#45;8305476247514553090</title>
<polygon fill="#ffffff" stroke="black" points="684.909,-384 591.909,-384 591.909,-348 684.909,-348 684.909,-384"/>
<text text-anchor="middle" x="638.409" y="-362.3" font-family="Times New Roman,serif" font-size="14.00">ER Triage (1)</text>
</g>
<!-- &#45;1744131764726653331&#45;&gt;&#45;8305476247514553090 -->
<g id="edge5" class="edge"><title>&#45;1744131764726653331&#45;&gt;&#45;8305476247514553090</title>
<path fill="none" stroke="black" stroke-width="1.70367" d="M638.409,-434.799C638.409,-423.163 638.409,-407.548 638.409,-394.237"/>
<polygon fill="black" stroke="black" stroke-width="1.70367" points="641.909,-394.175 638.409,-384.175 634.909,-394.175 641.909,-394.175"/>
<text text-anchor="middle" x="694.409" y="-405.8" font-family="Times New Roman,serif" font-size="14.00">974.5839084914373</text>
</g>
<!-- 3296544575651183754 -->
<g id="node4" class="node"><title>3296544575651183754</title>
<polygon fill="#ffffff" stroke="black" points="705.409,-297 571.409,-297 571.409,-261 705.409,-261 705.409,-297"/>
<text text-anchor="middle" x="638.409" y="-275.3" font-family="Times New Roman,serif" font-size="14.00">ER Sepsis Triage (1)</text>
</g>
<!-- &#45;8305476247514553090&#45;&gt;3296544575651183754 -->
<g id="edge6" class="edge"><title>&#45;8305476247514553090&#45;&gt;3296544575651183754</title>
<path fill="none" stroke="black" stroke-width="1.6251" d="M638.409,-347.799C638.409,-336.163 638.409,-320.548 638.409,-307.237"/>
<polygon fill="black" stroke="black" stroke-width="1.6251" points="641.909,-307.175 638.409,-297.175 634.909,-307.175 641.909,-307.175"/>
<text text-anchor="middle" x="694.409" y="-318.8" font-family="Times New Roman,serif" font-size="14.00">905.4600693028874</text>
</g>
<!-- &#45;8429177058128869877 -->
<g id="node6" class="node"><title>&#45;8429177058128869877</title>
<polygon fill="#ffffff" stroke="black" points="550.909,-384 435.909,-384 435.909,-348 550.909,-348 550.909,-384"/>
<text text-anchor="middle" x="493.409" y="-362.3" font-family="Times New Roman,serif" font-size="14.00">IV Antibiotics (1)</text>
</g>
<!-- &#45;8429177058128869877&#45;&gt;118450489566830562 -->
<g id="edge7" class="edge"><title>&#45;8429177058128869877&#45;&gt;118450489566830562</title>
<path fill="none" stroke="black" stroke-width="1.15463" d="M493.409,-347.799C493.409,-336.163 493.409,-320.548 493.409,-307.237"/>
<polygon fill="black" stroke="black" stroke-width="1.15463" points="496.909,-307.175 493.409,-297.175 489.909,-307.175 496.909,-307.175"/>
<text text-anchor="middle" x="552.909" y="-318.8" font-family="Times New Roman,serif" font-size="14.00">491.51445119700077</text>
</g>
<!-- 6215314419735287562 -->
<g id="node7" class="node"><title>6215314419735287562</title>
<polygon fill="#ffffff" stroke="black" points="538.409,-471 448.409,-471 448.409,-435 538.409,-435 538.409,-471"/>
<text text-anchor="middle" x="493.409" y="-449.3" font-family="Times New Roman,serif" font-size="14.00">IV Liquid (1)</text>
</g>
<!-- 6215314419735287562&#45;&gt;&#45;8429177058128869877 -->
<g id="edge8" class="edge"><title>6215314419735287562&#45;&gt;&#45;8429177058128869877</title>
<path fill="none" stroke="black" stroke-width="1.16686" d="M493.409,-434.799C493.409,-423.163 493.409,-407.548 493.409,-394.237"/>
<polygon fill="black" stroke="black" stroke-width="1.16686" points="496.909,-394.175 493.409,-384.175 489.909,-394.175 496.909,-394.175"/>
<text text-anchor="middle" x="546.409" y="-405.8" font-family="Times New Roman,serif" font-size="14.00">502.277617243485</text>
</g>
<!-- &#45;5670009864185339888&#45;&gt;4941769122289558835 -->
<g id="edge9" class="edge"><title>&#45;5670009864185339888&#45;&gt;4941769122289558835</title>
<path fill="none" stroke="black" stroke-width="1.05386" d="M100.171,-123.111C118.276,-136.616 141.378,-153.576 146.409,-156 173.014,-168.819 205.113,-177.647 230.254,-183.231"/>
<polygon fill="black" stroke="black" stroke-width="1.05386" points="229.707,-186.693 240.217,-185.356 231.167,-179.847 229.707,-186.693"/>
<text text-anchor="middle" x="202.409" y="-144.8" font-family="Times New Roman,serif" font-size="14.00">402.8499695099825</text>
</g>
<!-- &#45;5670009864185339888&#45;&gt;6570115252564267433 -->
<g id="edge10" class="edge"><title>&#45;5670009864185339888&#45;&gt;6570115252564267433</title>
<path fill="none" stroke="black" stroke-width="1.25184" d="M28.182,-88.8198C8.04485,-80.0995 -7.95475,-68.0837 4.40929,-54 30.8168,-23.9195 141.057,-18.3878 211.662,-18.0442"/>
<polygon fill="black" stroke="black" stroke-width="1.25184" points="211.782,-21.5441 221.777,-18.0289 211.772,-14.5441 211.782,-21.5441"/>
<text text-anchor="middle" x="60.4093" y="-57.8" font-family="Times New Roman,serif" font-size="14.00">577.0417973277441</text>
</g>
<!-- 6570115252564267433&#45;&gt;4941769122289558835 -->
<g id="edge11" class="edge"><title>6570115252564267433&#45;&gt;4941769122289558835</title>
<path fill="none" stroke="black" stroke-width="2.6" d="M318.189,-36.0649C359.232,-54.2127 409.923,-85.4502 388.409,-123 372.492,-150.781 340.333,-168.313 313.906,-178.604"/>
<polygon fill="black" stroke="black" stroke-width="2.6" points="312.647,-175.337 304.469,-182.073 315.062,-181.907 312.647,-175.337"/>
<text text-anchor="middle" x="453.909" y="-101.3" font-family="Times New Roman,serif" font-size="14.00">1763.2203082193796</text>
</g>
<!-- 6570115252564267433&#45;&gt;&#45;5670009864185339888 -->
<g id="edge12" class="edge"><title>6570115252564267433&#45;&gt;&#45;5670009864185339888</title>
<path fill="none" stroke="black" stroke-width="1.0916" d="M221.652,-27.1283C196.059,-32.5064 165.087,-41.0215 139.409,-54 131.949,-57.7709 117.706,-69.1328 104.751,-80.0742"/>
<polygon fill="black" stroke="black" stroke-width="1.0916" points="102.253,-77.6044 96.9233,-86.7609 106.8,-82.9269 102.253,-77.6044"/>
<text text-anchor="middle" x="198.909" y="-57.8" font-family="Times New Roman,serif" font-size="14.00">436.05775402933045</text>
</g>
<!-- 6570115252564267433&#45;&gt;6570115252564267433 -->
<g id="edge13" class="edge"><title>6570115252564267433&#45;&gt;6570115252564267433</title>
<path fill="none" stroke="black" stroke-width="1.1243" d="M323.193,-25.5746C333.517,-24.7495 340.909,-22.2246 340.909,-18 340.909,-15.3596 338.022,-13.3832 333.335,-12.0707"/>
<polygon fill="black" stroke="black" stroke-width="1.1243" points="333.625,-8.57199 323.193,-10.4254 332.504,-15.4817 333.625,-8.57199"/>
<text text-anchor="middle" x="396.909" y="-14.3" font-family="Times New Roman,serif" font-size="14.00">464.8275298077922</text>
</g>
</g>
</svg>
