<?xml version="1.0" encoding="UTF-8" standalone="no"?>
<!DOCTYPE svg PUBLIC "-//W3C//DTD SVG 1.1//EN"
 "http://www.w3.org/Graphics/SVG/1.1/DTD/svg11.dtd">
<!-- Generated by graphviz version 2.38.0 (20140413.2041)
 -->
<!-- Title: %3 Pages: 1 -->
<svg width="763pt" height="479pt"
 viewBox="0.00 0.00 763.41 479.00" xmlns="http://www.w3.org/2000/svg" xmlns:xlink="http://www.w3.org/1999/xlink">
<g id="graph0" class="graph" transform="scale(1 1) rotate(0) translate(4 475)">
<title>%3</title>
<!-- 9118780525858573852 -->
<g id="node1" class="node"><title>9118780525858573852</title>
<polygon fill="#ffffff" stroke="black" points="557.908,-297 438.908,-297 438.908,-261 557.908,-261 557.908,-297"/>
<text text-anchor="middle" x="498.408" y="-275.3" font-family="Times New Roman,serif" font-size="14.00">Admission NC (1)</text>
</g>
<!-- 8794229938327540079 -->
<g id="node2" class="node"><title>8794229938327540079</title>
<polygon fill="#ffffff" stroke="black" points="304.408,-210 240.408,-210 240.408,-174 304.408,-174 304.408,-210"/>
<text text-anchor="middle" x="272.408" y="-188.3" font-family="Times New Roman,serif" font-size="14.00">CRP (1)</text>
</g>
<!-- 9118780525858573852&#45;&gt;8794229938327540079 -->
<g id="edge1" class="edge"><title>9118780525858573852&#45;&gt;8794229938327540079</title>
<path fill="none" stroke="black" d="M452.945,-260.901C412.425,-245.661 353.604,-223.538 314.23,-208.73"/>
<polygon fill="black" stroke="black" points="315.254,-205.375 304.662,-205.131 312.79,-211.927 315.254,-205.375"/>
<text text-anchor="middle" x="458.908" y="-231.8" font-family="Times New Roman,serif" font-size="14.00">368.96677648211744</text>
</g>
<!-- &#45;4990305070490083274 -->
<g id="node9" class="node"><title>&#45;4990305070490083274</title>
<polygon fill="#ffffff" stroke="black" points="322.908,-36 221.908,-36 221.908,-0 322.908,-0 322.908,-36"/>
<text text-anchor="middle" x="272.408" y="-14.3" font-family="Times New Roman,serif" font-size="14.00">Leucocytes (1)</text>
</g>
<!-- 9118780525858573852&#45;&gt;&#45;4990305070490083274 -->
<g id="edge2" class="edge"><title>9118780525858573852&#45;&gt;&#45;4990305070490083274</title>
<path fill="none" stroke="black" stroke-width="1.04473" d="M513.052,-260.905C516.827,-255.518 520.392,-249.317 522.408,-243 543.486,-176.942 566.57,-142.048 524.408,-87 501.279,-56.8023 400.11,-36.9672 333.204,-26.8902"/>
<polygon fill="black" stroke="black" stroke-width="1.04473" points="333.59,-23.4093 323.186,-25.4153 332.57,-30.3346 333.59,-23.4093"/>
<text text-anchor="middle" x="604.408" y="-144.8" font-family="Times New Roman,serif" font-size="14.00">408.3517790756699</text>
</g>
<!-- 5659693541288529527 -->
<g id="node8" class="node"><title>5659693541288529527</title>
<polygon fill="#ffffff" stroke="black" points="119.408,-123 21.4078,-123 21.4078,-87 119.408,-87 119.408,-123"/>
<text text-anchor="middle" x="70.4078" y="-101.3" font-family="Times New Roman,serif" font-size="14.00">LacticAcid (1)</text>
</g>
<!-- 8794229938327540079&#45;&gt;5659693541288529527 -->
<g id="edge3" class="edge"><title>8794229938327540079&#45;&gt;5659693541288529527</title>
<path fill="none" stroke="black" stroke-width="1.29494" d="M240.143,-191.828C175.725,-192.715 34.7453,-190.557 4.40776,-156 -4.69448,-145.632 2.30501,-136.01 14.6123,-128.032"/>
<polygon fill="black" stroke="black" stroke-width="1.29494" points="16.4067,-131.038 23.3505,-123.036 12.932,-124.961 16.4067,-131.038"/>
<text text-anchor="middle" x="60.4078" y="-144.8" font-family="Times New Roman,serif" font-size="14.00">628.6894794842576</text>
</g>
<!-- 8794229938327540079&#45;&gt;&#45;4990305070490083274 -->
<g id="edge4" class="edge"><title>8794229938327540079&#45;&gt;&#45;4990305070490083274</title>
<path fill="none" stroke="black" stroke-width="2.22238" d="M272.408,-173.879C272.408,-144.001 272.408,-82.1129 272.408,-46.2736"/>
<polygon fill="black" stroke="black" stroke-width="2.22238" points="275.908,-46.0516 272.408,-36.0516 268.908,-46.0516 275.908,-46.0516"/>
<text text-anchor="middle" x="331.908" y="-101.3" font-family="Times New Roman,serif" font-size="14.00">1445.3737105502435</text>
</g>
<!-- 4941573644585563234 -->
<g id="node3" class="node"><title>4941573644585563234</title>
<polygon fill="#ffffff" stroke="black" points="705.908,-471 580.908,-471 580.908,-435 705.908,-435 705.908,-471"/>
<text text-anchor="middle" x="643.408" y="-449.3" font-family="Times New Roman,serif" font-size="14.00">ER Registration (1)</text>
</g>
<!-- 7781181950460006610 -->
<g id="node5" class="node"><title>7781181950460006610</title>
<polygon fill="#ffffff" stroke="black" points="689.908,-384 596.908,-384 596.908,-348 689.908,-348 689.908,-384"/>
<text text-anchor="middle" x="643.408" y="-362.3" font-family="Times New Roman,serif" font-size="14.00">ER Triage (1)</text>
</g>
<!-- 4941573644585563234&#45;&gt;7781181950460006610 -->
<g id="edge5" class="edge"><title>4941573644585563234&#45;&gt;7781181950460006610</title>
<path fill="none" stroke="black" stroke-width="1.68358" d="M643.408,-434.799C643.408,-423.163 643.408,-407.548 643.408,-394.237"/>
<polygon fill="black" stroke="black" stroke-width="1.68358" points="646.908,-394.175 643.408,-384.175 639.908,-394.175 646.908,-394.175"/>
<text text-anchor="middle" x="699.408" y="-405.8" font-family="Times New Roman,serif" font-size="14.00">970.9161347331008</text>
</g>
<!-- &#45;1916228938975785919 -->
<g id="node4" class="node"><title>&#45;1916228938975785919</title>
<polygon fill="#ffffff" stroke="black" points="710.408,-297 576.408,-297 576.408,-261 710.408,-261 710.408,-297"/>
<text text-anchor="middle" x="643.408" y="-275.3" font-family="Times New Roman,serif" font-size="14.00">ER Sepsis Triage (1)</text>
</g>
<!-- 7781181950460006610&#45;&gt;&#45;1916228938975785919 -->
<g id="edge6" class="edge"><title>7781181950460006610&#45;&gt;&#45;1916228938975785919</title>
<path fill="none" stroke="black" stroke-width="1.60867" d="M643.408,-347.799C643.408,-336.163 643.408,-320.548 643.408,-307.237"/>
<polygon fill="black" stroke="black" stroke-width="1.60867" points="646.908,-307.175 643.408,-297.175 639.908,-307.175 646.908,-307.175"/>
<text text-anchor="middle" x="699.408" y="-318.8" font-family="Times New Roman,serif" font-size="14.00">904.9473455483545</text>
</g>
<!-- 1341266047991071662 -->
<g id="node6" class="node"><title>1341266047991071662</title>
<polygon fill="#ffffff" stroke="black" points="555.908,-384 440.908,-384 440.908,-348 555.908,-348 555.908,-384"/>
<text text-anchor="middle" x="498.408" y="-362.3" font-family="Times New Roman,serif" font-size="14.00">IV Antibiotics (1)</text>
</g>
<!-- 1341266047991071662&#45;&gt;9118780525858573852 -->
<g id="edge7" class="edge"><title>1341266047991071662&#45;&gt;9118780525858573852</title>
<path fill="none" stroke="black" stroke-width="1.13693" d="M498.408,-347.799C498.408,-336.163 498.408,-320.548 498.408,-307.237"/>
<polygon fill="black" stroke="black" stroke-width="1.13693" points="501.908,-307.175 498.408,-297.175 494.908,-307.175 501.908,-307.175"/>
<text text-anchor="middle" x="557.908" y="-318.8" font-family="Times New Roman,serif" font-size="14.00">489.54091767500245</text>
</g>
<!-- 1513237216211266658 -->
<g id="node7" class="node"><title>1513237216211266658</title>
<polygon fill="#ffffff" stroke="black" points="543.408,-471 453.408,-471 453.408,-435 543.408,-435 543.408,-471"/>
<text text-anchor="middle" x="498.408" y="-449.3" font-family="Times New Roman,serif" font-size="14.00">IV Liquid (1)</text>
</g>
<!-- 1513237216211266658&#45;&gt;1341266047991071662 -->
<g id="edge8" class="edge"><title>1513237216211266658&#45;&gt;1341266047991071662</title>
<path fill="none" stroke="black" stroke-width="1.14905" d="M498.408,-434.799C498.408,-423.163 498.408,-407.548 498.408,-394.237"/>
<polygon fill="black" stroke="black" stroke-width="1.14905" points="501.908,-394.175 498.408,-384.175 494.908,-394.175 501.908,-394.175"/>
<text text-anchor="middle" x="554.408" y="-405.8" font-family="Times New Roman,serif" font-size="14.00">500.2144481769652</text>
</g>
<!-- 5659693541288529527&#45;&gt;8794229938327540079 -->
<g id="edge9" class="edge"><title>5659693541288529527&#45;&gt;8794229938327540079</title>
<path fill="none" stroke="black" stroke-width="1.03979" d="M93.1616,-123.128C111.261,-136.644 134.36,-153.61 139.408,-156 168.398,-169.726 203.586,-178.684 230.485,-184.099"/>
<polygon fill="black" stroke="black" stroke-width="1.03979" points="229.877,-187.546 240.359,-186.003 231.202,-180.673 229.877,-187.546"/>
<text text-anchor="middle" x="198.908" y="-144.8" font-family="Times New Roman,serif" font-size="14.00">404.00337864190374</text>
</g>
<!-- 5659693541288529527&#45;&gt;&#45;4990305070490083274 -->
<g id="edge10" class="edge"><title>5659693541288529527&#45;&gt;&#45;4990305070490083274</title>
<path fill="none" stroke="black" stroke-width="1.22269" d="M23.3505,-86.9641C6.14405,-78.1695 -6.6883,-66.6394 4.40776,-54 30.8153,-23.9195 141.056,-18.3878 211.661,-18.0442"/>
<polygon fill="black" stroke="black" stroke-width="1.22269" points="211.781,-21.5441 221.775,-18.0289 211.77,-14.5441 211.781,-21.5441"/>
<text text-anchor="middle" x="60.4078" y="-57.8" font-family="Times New Roman,serif" font-size="14.00">565.0634673888396</text>
</g>
<!-- &#45;4990305070490083274&#45;&gt;8794229938327540079 -->
<g id="edge11" class="edge"><title>&#45;4990305070490083274&#45;&gt;8794229938327540079</title>
<path fill="none" stroke="black" stroke-width="2.6" d="M322.141,-36.1523C365.409,-54.0524 417.925,-84.8222 395.408,-123 377.999,-152.517 342.673,-170.113 314.328,-179.985"/>
<polygon fill="black" stroke="black" stroke-width="2.6" points="313.047,-176.721 304.634,-183.161 315.226,-183.373 313.047,-176.721"/>
<text text-anchor="middle" x="460.908" y="-101.3" font-family="Times New Roman,serif" font-size="14.00">1777.8982422654644</text>
</g>
<!-- &#45;4990305070490083274&#45;&gt;5659693541288529527 -->
<g id="edge12" class="edge"><title>&#45;4990305070490083274&#45;&gt;5659693541288529527</title>
<path fill="none" stroke="black" stroke-width="1.07522" d="M221.607,-27.7575C196.146,-33.2825 165.304,-41.7392 139.408,-54 135.11,-56.0351 117.721,-68.6405 101.477,-80.684"/>
<polygon fill="black" stroke="black" stroke-width="1.07522" points="99.0945,-78.0939 93.1616,-86.8719 103.274,-83.7096 99.0945,-78.0939"/>
<text text-anchor="middle" x="198.908" y="-57.8" font-family="Times New Roman,serif" font-size="14.00">435.20801588579053</text>
</g>
<!-- &#45;4990305070490083274&#45;&gt;&#45;4990305070490083274 -->
<g id="edge13" class="edge"><title>&#45;4990305070490083274&#45;&gt;&#45;4990305070490083274</title>
<path fill="none" stroke="black" stroke-width="1.10165" d="M323.192,-25.5746C333.515,-24.7495 340.908,-22.2246 340.908,-18 340.908,-15.3596 338.02,-13.3832 333.334,-12.0707"/>
<polygon fill="black" stroke="black" stroke-width="1.10165" points="333.623,-8.57199 323.192,-10.4254 332.502,-15.4817 333.623,-8.57199"/>
<text text-anchor="middle" x="396.908" y="-14.3" font-family="Times New Roman,serif" font-size="14.00">458.4753678022493</text>
</g>
</g>
</svg>
