<?xml version="1.0" encoding="UTF-8" standalone="no"?>
<!DOCTYPE svg PUBLIC "-//W3C//DTD SVG 1.1//EN"
 "http://www.w3.org/Graphics/SVG/1.1/DTD/svg11.dtd">
<!-- Generated by graphviz version 2.38.0 (20140413.2041)
 -->
<!-- Title: %3 Pages: 1 -->
<svg width="763pt" height="479pt"
 viewBox="0.00 0.00 763.49 479.00" xmlns="http://www.w3.org/2000/svg" xmlns:xlink="http://www.w3.org/1999/xlink">
<g id="graph0" class="graph" transform="scale(1 1) rotate(0) translate(4 475)">
<title>%3</title>
<!-- 9118780525858573852 -->
<g id="node1" class="node"><title>9118780525858573852</title>
<polygon fill="#ffffff" stroke="black" points="557.992,-297 438.992,-297 438.992,-261 557.992,-261 557.992,-297"/>
<text text-anchor="middle" x="498.492" y="-275.3" font-family="Times New Roman,serif" font-size="14.00">Admission NC (1)</text>
</g>
<!-- 8794229938327540079 -->
<g id="node2" class="node"><title>8794229938327540079</title>
<polygon fill="#ffffff" stroke="black" points="304.492,-210 240.492,-210 240.492,-174 304.492,-174 304.492,-210"/>
<text text-anchor="middle" x="272.492" y="-188.3" font-family="Times New Roman,serif" font-size="14.00">CRP (1)</text>
</g>
<!-- 9118780525858573852&#45;&gt;8794229938327540079 -->
<g id="edge1" class="edge"><title>9118780525858573852&#45;&gt;8794229938327540079</title>
<path fill="none" stroke="black" d="M453.03,-260.901C412.509,-245.661 353.689,-223.538 314.315,-208.73"/>
<polygon fill="black" stroke="black" points="315.338,-205.375 304.746,-205.131 312.874,-211.927 315.338,-205.375"/>
<text text-anchor="middle" x="458.992" y="-231.8" font-family="Times New Roman,serif" font-size="14.00">368.75479126072963</text>
</g>
<!-- &#45;4990305070490083274 -->
<g id="node9" class="node"><title>&#45;4990305070490083274</title>
<polygon fill="#ffffff" stroke="black" points="322.992,-36 221.992,-36 221.992,-0 322.992,-0 322.992,-36"/>
<text text-anchor="middle" x="272.492" y="-14.3" font-family="Times New Roman,serif" font-size="14.00">Leucocytes (1)</text>
</g>
<!-- 9118780525858573852&#45;&gt;&#45;4990305070490083274 -->
<g id="edge2" class="edge"><title>9118780525858573852&#45;&gt;&#45;4990305070490083274</title>
<path fill="none" stroke="black" stroke-width="1.04452" d="M513.136,-260.905C516.912,-255.518 520.477,-249.317 522.492,-243 543.57,-176.942 566.655,-142.048 524.492,-87 501.363,-56.8023 400.195,-36.9672 333.289,-26.8902"/>
<polygon fill="black" stroke="black" stroke-width="1.04452" points="333.674,-23.4093 323.271,-25.4153 332.654,-30.3346 333.674,-23.4093"/>
<text text-anchor="middle" x="607.992" y="-144.8" font-family="Times New Roman,serif" font-size="14.00">407.94631624716334</text>
</g>
<!-- 5659693541288529527 -->
<g id="node8" class="node"><title>5659693541288529527</title>
<polygon fill="#ffffff" stroke="black" points="122.492,-123 24.4923,-123 24.4923,-87 122.492,-87 122.492,-123"/>
<text text-anchor="middle" x="73.4923" y="-101.3" font-family="Times New Roman,serif" font-size="14.00">LacticAcid (1)</text>
</g>
<!-- 8794229938327540079&#45;&gt;5659693541288529527 -->
<g id="edge3" class="edge"><title>8794229938327540079&#45;&gt;5659693541288529527</title>
<path fill="none" stroke="black" stroke-width="1.29486" d="M240.227,-191.828C175.81,-192.715 34.8298,-190.557 4.49226,-156 -4.87497,-145.33 2.4799,-135.633 15.335,-127.678"/>
<polygon fill="black" stroke="black" stroke-width="1.29486" points="17.3486,-130.567 24.4564,-122.71 14.0004,-124.42 17.3486,-130.567"/>
<text text-anchor="middle" x="60.4923" y="-144.8" font-family="Times New Roman,serif" font-size="14.00">628.3469778364998</text>
</g>
<!-- 8794229938327540079&#45;&gt;&#45;4990305070490083274 -->
<g id="edge4" class="edge"><title>8794229938327540079&#45;&gt;&#45;4990305070490083274</title>
<path fill="none" stroke="black" stroke-width="2.22219" d="M272.492,-173.879C272.492,-144.001 272.492,-82.1129 272.492,-46.2736"/>
<polygon fill="black" stroke="black" stroke-width="2.22219" points="275.992,-46.0516 272.492,-36.0516 268.992,-46.0516 275.992,-46.0516"/>
<text text-anchor="middle" x="331.992" y="-101.3" font-family="Times New Roman,serif" font-size="14.00">1444.7489916082247</text>
</g>
<!-- 4941573644585563234 -->
<g id="node3" class="node"><title>4941573644585563234</title>
<polygon fill="#ffffff" stroke="black" points="705.992,-471 580.992,-471 580.992,-435 705.992,-435 705.992,-471"/>
<text text-anchor="middle" x="643.492" y="-449.3" font-family="Times New Roman,serif" font-size="14.00">ER Registration (1)</text>
</g>
<!-- 7781181950460006610 -->
<g id="node5" class="node"><title>7781181950460006610</title>
<polygon fill="#ffffff" stroke="black" points="689.992,-384 596.992,-384 596.992,-348 689.992,-348 689.992,-384"/>
<text text-anchor="middle" x="643.492" y="-362.3" font-family="Times New Roman,serif" font-size="14.00">ER Triage (1)</text>
</g>
<!-- 4941573644585563234&#45;&gt;7781181950460006610 -->
<g id="edge5" class="edge"><title>4941573644585563234&#45;&gt;7781181950460006610</title>
<path fill="none" stroke="black" stroke-width="1.68407" d="M643.492,-434.799C643.492,-423.163 643.492,-407.548 643.492,-394.237"/>
<polygon fill="black" stroke="black" stroke-width="1.68407" points="646.992,-394.175 643.492,-384.175 639.992,-394.175 646.992,-394.175"/>
<text text-anchor="middle" x="699.492" y="-405.8" font-family="Times New Roman,serif" font-size="14.00">971.0011156532809</text>
</g>
<!-- &#45;1916228938975785919 -->
<g id="node4" class="node"><title>&#45;1916228938975785919</title>
<polygon fill="#ffffff" stroke="black" points="710.492,-297 576.492,-297 576.492,-261 710.492,-261 710.492,-297"/>
<text text-anchor="middle" x="643.492" y="-275.3" font-family="Times New Roman,serif" font-size="14.00">ER Sepsis Triage (1)</text>
</g>
<!-- 7781181950460006610&#45;&gt;&#45;1916228938975785919 -->
<g id="edge6" class="edge"><title>7781181950460006610&#45;&gt;&#45;1916228938975785919</title>
<path fill="none" stroke="black" stroke-width="1.60925" d="M643.492,-347.799C643.492,-336.163 643.492,-320.548 643.492,-307.237"/>
<polygon fill="black" stroke="black" stroke-width="1.60925" points="646.992,-307.175 643.492,-297.175 639.992,-307.175 646.992,-307.175"/>
<text text-anchor="middle" x="699.492" y="-318.8" font-family="Times New Roman,serif" font-size="14.00">905.1247670771853</text>
</g>
<!-- 1341266047991071662 -->
<g id="node6" class="node"><title>1341266047991071662</title>
<polygon fill="#ffffff" stroke="black" points="555.992,-384 440.992,-384 440.992,-348 555.992,-348 555.992,-384"/>
<text text-anchor="middle" x="498.492" y="-362.3" font-family="Times New Roman,serif" font-size="14.00">IV Antibiotics (1)</text>
</g>
<!-- 1341266047991071662&#45;&gt;9118780525858573852 -->
<g id="edge7" class="edge"><title>1341266047991071662&#45;&gt;9118780525858573852</title>
<path fill="none" stroke="black" stroke-width="1.13614" d="M498.492,-347.799C498.492,-336.163 498.492,-320.548 498.492,-307.237"/>
<polygon fill="black" stroke="black" stroke-width="1.13614" points="501.992,-307.175 498.492,-297.175 494.992,-307.175 501.992,-307.175"/>
<text text-anchor="middle" x="554.492" y="-318.8" font-family="Times New Roman,serif" font-size="14.00">488.6060004907215</text>
</g>
<!-- 1513237216211266658 -->
<g id="node7" class="node"><title>1513237216211266658</title>
<polygon fill="#ffffff" stroke="black" points="543.492,-471 453.492,-471 453.492,-435 543.492,-435 543.492,-471"/>
<text text-anchor="middle" x="498.492" y="-449.3" font-family="Times New Roman,serif" font-size="14.00">IV Liquid (1)</text>
</g>
<!-- 1513237216211266658&#45;&gt;1341266047991071662 -->
<g id="edge8" class="edge"><title>1513237216211266658&#45;&gt;1341266047991071662</title>
<path fill="none" stroke="black" stroke-width="1.15025" d="M498.492,-434.799C498.492,-423.163 498.492,-407.548 498.492,-394.237"/>
<polygon fill="black" stroke="black" stroke-width="1.15025" points="501.992,-394.175 498.492,-384.175 494.992,-394.175 501.992,-394.175"/>
<text text-anchor="middle" x="557.992" y="-405.8" font-family="Times New Roman,serif" font-size="14.00">501.02831678410405</text>
</g>
<!-- 5659693541288529527&#45;&gt;8794229938327540079 -->
<g id="edge9" class="edge"><title>5659693541288529527&#45;&gt;8794229938327540079</title>
<path fill="none" stroke="black" stroke-width="1.04096" d="M94.3505,-123.218C109.916,-135.792 130.056,-151.409 139.492,-156 168.335,-170.033 203.531,-178.976 230.47,-184.307"/>
<polygon fill="black" stroke="black" stroke-width="1.04096" points="229.884,-187.758 240.36,-186.176 231.184,-180.88 229.884,-187.758"/>
<text text-anchor="middle" x="198.992" y="-144.8" font-family="Times New Roman,serif" font-size="14.00">404.81312333684804</text>
</g>
<!-- 5659693541288529527&#45;&gt;&#45;4990305070490083274 -->
<g id="edge10" class="edge"><title>5659693541288529527&#45;&gt;&#45;4990305070490083274</title>
<path fill="none" stroke="black" stroke-width="1.22307" d="M28.8477,-86.8848C12.1774,-77.9902 -0.359999,-66.3984 10.4923,-54 36.0787,-24.7682 142.42,-18.893 211.508,-18.2661"/>
<polygon fill="black" stroke="black" stroke-width="1.22307" points="211.857,-21.7643 221.838,-18.2085 211.818,-14.7644 211.857,-21.7643"/>
<text text-anchor="middle" x="63.4923" y="-57.8" font-family="Times New Roman,serif" font-size="14.00">565.143032851557</text>
</g>
<!-- &#45;4990305070490083274&#45;&gt;8794229938327540079 -->
<g id="edge11" class="edge"><title>&#45;4990305070490083274&#45;&gt;8794229938327540079</title>
<path fill="none" stroke="black" stroke-width="2.6" d="M322.225,-36.1523C365.494,-54.0524 418.009,-84.8222 395.492,-123 378.083,-152.517 342.757,-170.113 314.412,-179.985"/>
<polygon fill="black" stroke="black" stroke-width="2.6" points="313.131,-176.721 304.718,-183.161 315.311,-183.373 313.131,-176.721"/>
<text text-anchor="middle" x="460.992" y="-101.3" font-family="Times New Roman,serif" font-size="14.00">1777.3663185220335</text>
</g>
<!-- &#45;4990305070490083274&#45;&gt;5659693541288529527 -->
<g id="edge12" class="edge"><title>&#45;4990305070490083274&#45;&gt;5659693541288529527</title>
<path fill="none" stroke="black" stroke-width="1.07573" d="M221.898,-27.4568C196.347,-32.9202 165.364,-41.4124 139.492,-54 131.604,-57.8379 116.236,-69.3808 102.314,-80.4096"/>
<polygon fill="black" stroke="black" stroke-width="1.07573" points="99.9717,-77.801 94.3505,-86.7817 104.345,-83.2665 99.9717,-77.801"/>
<text text-anchor="middle" x="198.992" y="-57.8" font-family="Times New Roman,serif" font-size="14.00">435.42738254171667</text>
</g>
<!-- &#45;4990305070490083274&#45;&gt;&#45;4990305070490083274 -->
<g id="edge13" class="edge"><title>&#45;4990305070490083274&#45;&gt;&#45;4990305070490083274</title>
<path fill="none" stroke="black" stroke-width="1.10108" d="M323.276,-25.5746C333.6,-24.7495 340.992,-22.2246 340.992,-18 340.992,-15.3596 338.105,-13.3832 333.418,-12.0707"/>
<polygon fill="black" stroke="black" stroke-width="1.10108" points="333.708,-8.57199 323.276,-10.4254 332.587,-15.4817 333.708,-8.57199"/>
<text text-anchor="middle" x="400.492" y="-14.3" font-family="Times New Roman,serif" font-size="14.00">457.74183038677023</text>
</g>
</g>
</svg>
