<?xml version="1.0" encoding="UTF-8" standalone="no"?>
<!DOCTYPE svg PUBLIC "-//W3C//DTD SVG 1.1//EN"
 "http://www.w3.org/Graphics/SVG/1.1/DTD/svg11.dtd">
<!-- Generated by graphviz version 2.38.0 (20140413.2041)
 -->
<!-- Title: %3 Pages: 1 -->
<svg width="756pt" height="479pt"
 viewBox="0.00 0.00 756.40 479.00" xmlns="http://www.w3.org/2000/svg" xmlns:xlink="http://www.w3.org/1999/xlink">
<g id="graph0" class="graph" transform="scale(1 1) rotate(0) translate(4 475)">
<title>%3</title>
<!-- &#45;6760735685208204671 -->
<g id="node1" class="node"><title>&#45;6760735685208204671</title>
<polygon fill="#ffffff" stroke="black" points="550.899,-297 431.899,-297 431.899,-261 550.899,-261 550.899,-297"/>
<text text-anchor="middle" x="491.399" y="-275.3" font-family="Times New Roman,serif" font-size="14.00">Admission NC (1)</text>
</g>
<!-- 7850561497370058999 -->
<g id="node2" class="node"><title>7850561497370058999</title>
<polygon fill="#ffffff" stroke="black" points="297.399,-210 233.399,-210 233.399,-174 297.399,-174 297.399,-210"/>
<text text-anchor="middle" x="265.399" y="-188.3" font-family="Times New Roman,serif" font-size="14.00">CRP (1)</text>
</g>
<!-- &#45;6760735685208204671&#45;&gt;7850561497370058999 -->
<g id="edge1" class="edge"><title>&#45;6760735685208204671&#45;&gt;7850561497370058999</title>
<path fill="none" stroke="black" d="M445.936,-260.901C405.416,-245.661 346.595,-223.538 307.221,-208.73"/>
<polygon fill="black" stroke="black" points="308.245,-205.375 297.653,-205.131 305.78,-211.927 308.245,-205.375"/>
<text text-anchor="middle" x="445.399" y="-231.8" font-family="Times New Roman,serif" font-size="14.00">372.380952261318</text>
</g>
<!-- 6179918396602481755 -->
<g id="node9" class="node"><title>6179918396602481755</title>
<polygon fill="#ffffff" stroke="black" points="315.899,-36 214.899,-36 214.899,-0 315.899,-0 315.899,-36"/>
<text text-anchor="middle" x="265.399" y="-14.3" font-family="Times New Roman,serif" font-size="14.00">Leucocytes (1)</text>
</g>
<!-- &#45;6760735685208204671&#45;&gt;6179918396602481755 -->
<g id="edge2" class="edge"><title>&#45;6760735685208204671&#45;&gt;6179918396602481755</title>
<path fill="none" stroke="black" stroke-width="1.04004" d="M501.147,-260.857C520.292,-224.662 557.588,-139.472 517.399,-87 494.269,-56.8023 393.101,-36.9672 326.195,-26.8902"/>
<polygon fill="black" stroke="black" stroke-width="1.04004" points="326.58,-23.4093 316.177,-25.4153 325.561,-30.3346 326.58,-23.4093"/>
<text text-anchor="middle" x="591.399" y="-144.8" font-family="Times New Roman,serif" font-size="14.00">407.5556500300629</text>
</g>
<!-- 1152587832168206417 -->
<g id="node8" class="node"><title>1152587832168206417</title>
<polygon fill="#ffffff" stroke="black" points="126.399,-123 28.3986,-123 28.3986,-87 126.399,-87 126.399,-123"/>
<text text-anchor="middle" x="77.3986" y="-101.3" font-family="Times New Roman,serif" font-size="14.00">LacticAcid (1)</text>
</g>
<!-- 7850561497370058999&#45;&gt;1152587832168206417 -->
<g id="edge3" class="edge"><title>7850561497370058999&#45;&gt;1152587832168206417</title>
<path fill="none" stroke="black" stroke-width="1.28824" d="M233.204,-191.439C172.559,-191.503 44.9892,-187.758 17.3986,-156 8.80033,-146.103 15.2557,-136.55 26.6202,-128.492"/>
<polygon fill="black" stroke="black" stroke-width="1.28824" points="28.5195,-131.432 35.1475,-123.167 24.8117,-125.495 28.5195,-131.432"/>
<text text-anchor="middle" x="66.8986" y="-144.8" font-family="Times New Roman,serif" font-size="14.00">625.57147022059</text>
</g>
<!-- 7850561497370058999&#45;&gt;6179918396602481755 -->
<g id="edge4" class="edge"><title>7850561497370058999&#45;&gt;6179918396602481755</title>
<path fill="none" stroke="black" stroke-width="2.22097" d="M265.399,-173.879C265.399,-144.001 265.399,-82.1129 265.399,-46.2736"/>
<polygon fill="black" stroke="black" stroke-width="2.22097" points="268.899,-46.0516 265.399,-36.0516 261.899,-46.0516 268.899,-46.0516"/>
<text text-anchor="middle" x="324.899" y="-101.3" font-family="Times New Roman,serif" font-size="14.00">1444.8953252241313</text>
</g>
<!-- &#45;2410219256766748193 -->
<g id="node3" class="node"><title>&#45;2410219256766748193</title>
<polygon fill="#ffffff" stroke="black" points="698.899,-471 573.899,-471 573.899,-435 698.899,-435 698.899,-471"/>
<text text-anchor="middle" x="636.399" y="-449.3" font-family="Times New Roman,serif" font-size="14.00">ER Registration (1)</text>
</g>
<!-- &#45;2872325205858232948 -->
<g id="node5" class="node"><title>&#45;2872325205858232948</title>
<polygon fill="#ffffff" stroke="black" points="682.899,-384 589.899,-384 589.899,-348 682.899,-348 682.899,-384"/>
<text text-anchor="middle" x="636.399" y="-362.3" font-family="Times New Roman,serif" font-size="14.00">ER Triage (1)</text>
</g>
<!-- &#45;2410219256766748193&#45;&gt;&#45;2872325205858232948 -->
<g id="edge5" class="edge"><title>&#45;2410219256766748193&#45;&gt;&#45;2872325205858232948</title>
<path fill="none" stroke="black" stroke-width="1.68228" d="M636.399,-434.799C636.399,-423.163 636.399,-407.548 636.399,-394.237"/>
<polygon fill="black" stroke="black" stroke-width="1.68228" points="639.899,-394.175 636.399,-384.175 632.899,-394.175 639.899,-394.175"/>
<text text-anchor="middle" x="692.399" y="-405.8" font-family="Times New Roman,serif" font-size="14.00">971.7024097100391</text>
</g>
<!-- 8892003065059452103 -->
<g id="node4" class="node"><title>8892003065059452103</title>
<polygon fill="#ffffff" stroke="black" points="703.399,-297 569.399,-297 569.399,-261 703.399,-261 703.399,-297"/>
<text text-anchor="middle" x="636.399" y="-275.3" font-family="Times New Roman,serif" font-size="14.00">ER Sepsis Triage (1)</text>
</g>
<!-- &#45;2872325205858232948&#45;&gt;8892003065059452103 -->
<g id="edge6" class="edge"><title>&#45;2872325205858232948&#45;&gt;8892003065059452103</title>
<path fill="none" stroke="black" stroke-width="1.60638" d="M636.399,-347.799C636.399,-336.163 636.399,-320.548 636.399,-307.237"/>
<polygon fill="black" stroke="black" stroke-width="1.60638" points="639.899,-307.175 636.399,-297.175 632.899,-307.175 639.899,-307.175"/>
<text text-anchor="middle" x="692.399" y="-318.8" font-family="Times New Roman,serif" font-size="14.00">905.0365523051684</text>
</g>
<!-- &#45;6564841300794043563 -->
<g id="node6" class="node"><title>&#45;6564841300794043563</title>
<polygon fill="#ffffff" stroke="black" points="548.899,-384 433.899,-384 433.899,-348 548.899,-348 548.899,-384"/>
<text text-anchor="middle" x="491.399" y="-362.3" font-family="Times New Roman,serif" font-size="14.00">IV Antibiotics (1)</text>
</g>
<!-- &#45;6564841300794043563&#45;&gt;&#45;6760735685208204671 -->
<g id="edge7" class="edge"><title>&#45;6564841300794043563&#45;&gt;&#45;6760735685208204671</title>
<path fill="none" stroke="black" stroke-width="1.13455" d="M491.399,-347.799C491.399,-336.163 491.399,-320.548 491.399,-307.237"/>
<polygon fill="black" stroke="black" stroke-width="1.13455" points="494.899,-307.175 491.399,-297.175 487.899,-307.175 494.899,-307.175"/>
<text text-anchor="middle" x="547.399" y="-318.8" font-family="Times New Roman,serif" font-size="14.00">490.5699659744272</text>
</g>
<!-- &#45;1926219633770359302 -->
<g id="node7" class="node"><title>&#45;1926219633770359302</title>
<polygon fill="#ffffff" stroke="black" points="536.399,-471 446.399,-471 446.399,-435 536.399,-435 536.399,-471"/>
<text text-anchor="middle" x="491.399" y="-449.3" font-family="Times New Roman,serif" font-size="14.00">IV Liquid (1)</text>
</g>
<!-- &#45;1926219633770359302&#45;&gt;&#45;6564841300794043563 -->
<g id="edge8" class="edge"><title>&#45;1926219633770359302&#45;&gt;&#45;6564841300794043563</title>
<path fill="none" stroke="black" stroke-width="1.14846" d="M491.399,-434.799C491.399,-423.163 491.399,-407.548 491.399,-394.237"/>
<polygon fill="black" stroke="black" stroke-width="1.14846" points="494.899,-394.175 491.399,-384.175 487.899,-394.175 494.899,-394.175"/>
<text text-anchor="middle" x="547.399" y="-405.8" font-family="Times New Roman,serif" font-size="14.00">502.7896426021506</text>
</g>
<!-- 1152587832168206417&#45;&gt;7850561497370058999 -->
<g id="edge9" class="edge"><title>1152587832168206417&#45;&gt;7850561497370058999</title>
<path fill="none" stroke="black" stroke-width="1.03626" d="M96.9299,-123.205C111.517,-135.771 130.421,-151.385 139.399,-156 165.753,-169.547 197.986,-178.378 223.253,-183.78"/>
<polygon fill="black" stroke="black" stroke-width="1.03626" points="222.768,-187.254 233.266,-185.822 224.167,-180.395 222.768,-187.254"/>
<text text-anchor="middle" x="195.399" y="-144.8" font-family="Times New Roman,serif" font-size="14.00">404.2308247649894</text>
</g>
<!-- 1152587832168206417&#45;&gt;6179918396602481755 -->
<g id="edge10" class="edge"><title>1152587832168206417&#45;&gt;6179918396602481755</title>
<path fill="none" stroke="black" stroke-width="1.2196" d="M28.1913,-88.8372C8.05956,-80.1218 -7.94118,-68.105 4.39861,-54 29.846,-24.9123 135.522,-18.9795 204.355,-18.3044"/>
<polygon fill="black" stroke="black" stroke-width="1.2196" points="204.671,-21.8026 214.649,-18.2395 204.627,-14.8027 204.671,-21.8026"/>
<text text-anchor="middle" x="60.3986" y="-57.8" font-family="Times New Roman,serif" font-size="14.00">565.2776638865165</text>
</g>
<!-- 6179918396602481755&#45;&gt;7850561497370058999 -->
<g id="edge11" class="edge"><title>6179918396602481755&#45;&gt;7850561497370058999</title>
<path fill="none" stroke="black" stroke-width="2.6" d="M315.132,-36.1523C358.4,-54.0524 410.916,-84.8222 388.399,-123 370.99,-152.517 335.664,-170.113 307.318,-179.985"/>
<polygon fill="black" stroke="black" stroke-width="2.6" points="306.037,-176.721 297.624,-183.161 308.217,-183.373 306.037,-176.721"/>
<text text-anchor="middle" x="453.899" y="-101.3" font-family="Times New Roman,serif" font-size="14.00">1777.8405084333713</text>
</g>
<!-- 6179918396602481755&#45;&gt;1152587832168206417 -->
<g id="edge12" class="edge"><title>6179918396602481755&#45;&gt;1152587832168206417</title>
<path fill="none" stroke="black" stroke-width="1.07176" d="M214.886,-28.0805C191.13,-33.5736 162.922,-41.9083 139.399,-54 131.964,-57.8216 117.722,-69.1863 104.762,-80.1166"/>
<polygon fill="black" stroke="black" stroke-width="1.07176" points="102.268,-77.6431 96.9299,-86.7948 106.81,-82.9696 102.268,-77.6431"/>
<text text-anchor="middle" x="195.399" y="-57.8" font-family="Times New Roman,serif" font-size="14.00">435.4120091150149</text>
</g>
<!-- 6179918396602481755&#45;&gt;6179918396602481755 -->
<g id="edge13" class="edge"><title>6179918396602481755&#45;&gt;6179918396602481755</title>
<path fill="none" stroke="black" stroke-width="1.09688" d="M316.182,-25.5746C326.506,-24.7495 333.899,-22.2246 333.899,-18 333.899,-15.3596 331.011,-13.3832 326.325,-12.0707"/>
<polygon fill="black" stroke="black" stroke-width="1.09688" points="326.614,-8.57199 316.182,-10.4254 325.493,-15.4817 326.614,-8.57199"/>
<text text-anchor="middle" x="393.399" y="-14.3" font-family="Times New Roman,serif" font-size="14.00">457.47886359514916</text>
</g>
</g>
</svg>
