<?xml version="1.0" encoding="UTF-8" standalone="no"?>
<!DOCTYPE svg PUBLIC "-//W3C//DTD SVG 1.1//EN"
 "http://www.w3.org/Graphics/SVG/1.1/DTD/svg11.dtd">
<!-- Generated by graphviz version 2.38.0 (20140413.2041)
 -->
<!-- Title: %3 Pages: 1 -->
<svg width="770pt" height="479pt"
 viewBox="0.00 0.00 770.41 479.00" xmlns="http://www.w3.org/2000/svg" xmlns:xlink="http://www.w3.org/1999/xlink">
<g id="graph0" class="graph" transform="scale(1 1) rotate(0) translate(4 475)">
<title>%3</title>
<!-- &#45;6760735685208204671 -->
<g id="node1" class="node"><title>&#45;6760735685208204671</title>
<polygon fill="#ffffff" stroke="black" points="557.909,-297 438.909,-297 438.909,-261 557.909,-261 557.909,-297"/>
<text text-anchor="middle" x="498.409" y="-275.3" font-family="Times New Roman,serif" font-size="14.00">Admission NC (1)</text>
</g>
<!-- 7850561497370058999 -->
<g id="node2" class="node"><title>7850561497370058999</title>
<polygon fill="#ffffff" stroke="black" points="304.409,-210 240.409,-210 240.409,-174 304.409,-174 304.409,-210"/>
<text text-anchor="middle" x="272.409" y="-188.3" font-family="Times New Roman,serif" font-size="14.00">CRP (1)</text>
</g>
<!-- &#45;6760735685208204671&#45;&gt;7850561497370058999 -->
<g id="edge1" class="edge"><title>&#45;6760735685208204671&#45;&gt;7850561497370058999</title>
<path fill="none" stroke="black" d="M452.947,-260.901C412.426,-245.661 353.606,-223.538 314.232,-208.73"/>
<polygon fill="black" stroke="black" points="315.255,-205.375 304.663,-205.131 312.791,-211.927 315.255,-205.375"/>
<text text-anchor="middle" x="455.409" y="-231.8" font-family="Times New Roman,serif" font-size="14.00">335.8324812993811</text>
</g>
<!-- 6179918396602481755 -->
<g id="node9" class="node"><title>6179918396602481755</title>
<polygon fill="#ffffff" stroke="black" points="322.909,-36 221.909,-36 221.909,-0 322.909,-0 322.909,-36"/>
<text text-anchor="middle" x="272.409" y="-14.3" font-family="Times New Roman,serif" font-size="14.00">Leucocytes (1)</text>
</g>
<!-- &#45;6760735685208204671&#45;&gt;6179918396602481755 -->
<g id="edge2" class="edge"><title>&#45;6760735685208204671&#45;&gt;6179918396602481755</title>
<path fill="none" stroke="black" stroke-width="1.02164" d="M508.158,-260.857C527.302,-224.662 564.599,-139.472 524.409,-87 501.28,-56.8023 400.112,-36.9672 333.206,-26.8902"/>
<polygon fill="black" stroke="black" stroke-width="1.02164" points="333.591,-23.4093 323.188,-25.4153 332.572,-30.3346 333.591,-23.4093"/>
<text text-anchor="middle" x="601.909" y="-144.8" font-family="Times New Roman,serif" font-size="14.00">355.25200996895074</text>
</g>
<!-- 1152587832168206417 -->
<g id="node8" class="node"><title>1152587832168206417</title>
<polygon fill="#ffffff" stroke="black" points="126.409,-123 28.4093,-123 28.4093,-87 126.409,-87 126.409,-123"/>
<text text-anchor="middle" x="77.4093" y="-101.3" font-family="Times New Roman,serif" font-size="14.00">LacticAcid (1)</text>
</g>
<!-- 7850561497370058999&#45;&gt;1152587832168206417 -->
<g id="edge3" class="edge"><title>7850561497370058999&#45;&gt;1152587832168206417</title>
<path fill="none" stroke="black" stroke-width="1.31297" d="M240.275,-191.581C178.33,-191.94 45.9725,-188.751 17.4093,-156 8.79222,-146.119 15.243,-136.57 26.609,-128.511"/>
<polygon fill="black" stroke="black" stroke-width="1.31297" points="28.5106,-131.45 35.1383,-123.184 24.8026,-125.513 28.5106,-131.45"/>
<text text-anchor="middle" x="73.4093" y="-144.8" font-family="Times New Roman,serif" font-size="14.00">616.6559685618702</text>
</g>
<!-- 7850561497370058999&#45;&gt;6179918396602481755 -->
<g id="edge4" class="edge"><title>7850561497370058999&#45;&gt;6179918396602481755</title>
<path fill="none" stroke="black" stroke-width="2.2148" d="M272.409,-173.879C272.409,-144.001 272.409,-82.1129 272.409,-46.2736"/>
<polygon fill="black" stroke="black" stroke-width="2.2148" points="275.909,-46.0516 272.409,-36.0516 268.909,-46.0516 275.909,-46.0516"/>
<text text-anchor="middle" x="331.909" y="-101.3" font-family="Times New Roman,serif" font-size="14.00">1425.8440203085977</text>
</g>
<!-- &#45;2410219256766748193 -->
<g id="node3" class="node"><title>&#45;2410219256766748193</title>
<polygon fill="#ffffff" stroke="black" points="705.909,-471 580.909,-471 580.909,-435 705.909,-435 705.909,-471"/>
<text text-anchor="middle" x="643.409" y="-449.3" font-family="Times New Roman,serif" font-size="14.00">ER Registration (1)</text>
</g>
<!-- &#45;2872325205858232948 -->
<g id="node5" class="node"><title>&#45;2872325205858232948</title>
<polygon fill="#ffffff" stroke="black" points="689.909,-384 596.909,-384 596.909,-348 689.909,-348 689.909,-384"/>
<text text-anchor="middle" x="643.409" y="-362.3" font-family="Times New Roman,serif" font-size="14.00">ER Triage (1)</text>
</g>
<!-- &#45;2410219256766748193&#45;&gt;&#45;2872325205858232948 -->
<g id="edge5" class="edge"><title>&#45;2410219256766748193&#45;&gt;&#45;2872325205858232948</title>
<path fill="none" stroke="black" stroke-width="1.7492" d="M643.409,-434.799C643.409,-423.163 643.409,-407.548 643.409,-394.237"/>
<polygon fill="black" stroke="black" stroke-width="1.7492" points="646.909,-394.175 643.409,-384.175 639.909,-394.175 646.909,-394.175"/>
<text text-anchor="middle" x="702.909" y="-405.8" font-family="Times New Roman,serif" font-size="14.00">1008.0704359875743</text>
</g>
<!-- 8892003065059452103 -->
<g id="node4" class="node"><title>8892003065059452103</title>
<polygon fill="#ffffff" stroke="black" points="710.409,-297 576.409,-297 576.409,-261 710.409,-261 710.409,-297"/>
<text text-anchor="middle" x="643.409" y="-275.3" font-family="Times New Roman,serif" font-size="14.00">ER Sepsis Triage (1)</text>
</g>
<!-- &#45;2872325205858232948&#45;&gt;8892003065059452103 -->
<g id="edge6" class="edge"><title>&#45;2872325205858232948&#45;&gt;8892003065059452103</title>
<path fill="none" stroke="black" stroke-width="1.62232" d="M643.409,-347.799C643.409,-336.163 643.409,-320.548 643.409,-307.237"/>
<polygon fill="black" stroke="black" stroke-width="1.62232" points="646.909,-307.175 643.409,-297.175 639.909,-307.175 646.909,-307.175"/>
<text text-anchor="middle" x="699.409" y="-318.8" font-family="Times New Roman,serif" font-size="14.00">894.2233293578861</text>
</g>
<!-- &#45;6564841300794043563 -->
<g id="node6" class="node"><title>&#45;6564841300794043563</title>
<polygon fill="#ffffff" stroke="black" points="555.909,-384 440.909,-384 440.909,-348 555.909,-348 555.909,-384"/>
<text text-anchor="middle" x="498.409" y="-362.3" font-family="Times New Roman,serif" font-size="14.00">IV Antibiotics (1)</text>
</g>
<!-- &#45;6564841300794043563&#45;&gt;&#45;6760735685208204671 -->
<g id="edge7" class="edge"><title>&#45;6564841300794043563&#45;&gt;&#45;6760735685208204671</title>
<path fill="none" stroke="black" stroke-width="1.17705" d="M498.409,-347.799C498.409,-336.163 498.409,-320.548 498.409,-307.237"/>
<polygon fill="black" stroke="black" stroke-width="1.17705" points="501.909,-307.175 498.409,-297.175 494.909,-307.175 501.909,-307.175"/>
<text text-anchor="middle" x="557.909" y="-318.8" font-family="Times New Roman,serif" font-size="14.00">494.69958648430713</text>
</g>
<!-- &#45;1926219633770359302 -->
<g id="node7" class="node"><title>&#45;1926219633770359302</title>
<polygon fill="#ffffff" stroke="black" points="543.409,-471 453.409,-471 453.409,-435 543.409,-435 543.409,-471"/>
<text text-anchor="middle" x="498.409" y="-449.3" font-family="Times New Roman,serif" font-size="14.00">IV Liquid (1)</text>
</g>
<!-- &#45;1926219633770359302&#45;&gt;&#45;6564841300794043563 -->
<g id="edge8" class="edge"><title>&#45;1926219633770359302&#45;&gt;&#45;6564841300794043563</title>
<path fill="none" stroke="black" stroke-width="1.18688" d="M498.409,-434.799C498.409,-423.163 498.409,-407.548 498.409,-394.237"/>
<polygon fill="black" stroke="black" stroke-width="1.18688" points="501.909,-394.175 498.409,-384.175 494.909,-394.175 501.909,-394.175"/>
<text text-anchor="middle" x="557.909" y="-405.8" font-family="Times New Roman,serif" font-size="14.00">503.51499840147125</text>
</g>
<!-- 1152587832168206417&#45;&gt;7850561497370058999 -->
<g id="edge9" class="edge"><title>1152587832168206417&#45;&gt;7850561497370058999</title>
<path fill="none" stroke="black" stroke-width="1.09219" d="M102.99,-123.185C124.18,-137.399 151.044,-155.364 152.409,-156 177.257,-167.573 206.798,-176.247 230.352,-182.064"/>
<polygon fill="black" stroke="black" stroke-width="1.09219" points="229.841,-185.541 240.38,-184.459 231.467,-178.732 229.841,-185.541"/>
<text text-anchor="middle" x="205.409" y="-144.8" font-family="Times New Roman,serif" font-size="14.00">418.552392185835</text>
</g>
<!-- 1152587832168206417&#45;&gt;6179918396602481755 -->
<g id="edge10" class="edge"><title>1152587832168206417&#45;&gt;6179918396602481755</title>
<path fill="none" stroke="black" stroke-width="1.33962" d="M28.182,-88.8198C8.04485,-80.0995 -7.95475,-68.0837 4.40929,-54 30.8168,-23.9195 141.057,-18.3878 211.662,-18.0442"/>
<polygon fill="black" stroke="black" stroke-width="1.33962" points="211.782,-21.5441 221.777,-18.0289 211.772,-14.5441 211.782,-21.5441"/>
<text text-anchor="middle" x="60.4093" y="-57.8" font-family="Times New Roman,serif" font-size="14.00">640.5699032514204</text>
</g>
<!-- 6179918396602481755&#45;&gt;7850561497370058999 -->
<g id="edge11" class="edge"><title>6179918396602481755&#45;&gt;7850561497370058999</title>
<path fill="none" stroke="black" stroke-width="2.6" d="M322.143,-36.1523C365.411,-54.0524 417.927,-84.8222 395.409,-123 378,-152.517 342.674,-170.113 314.329,-179.985"/>
<polygon fill="black" stroke="black" stroke-width="2.6" points="313.048,-176.721 304.635,-183.161 315.228,-183.373 313.048,-176.721"/>
<text text-anchor="middle" x="460.909" y="-101.3" font-family="Times New Roman,serif" font-size="14.00">1771.4790643286715</text>
</g>
<!-- 6179918396602481755&#45;&gt;1152587832168206417 -->
<g id="edge12" class="edge"><title>6179918396602481755&#45;&gt;1152587832168206417</title>
<path fill="none" stroke="black" stroke-width="1.11823" d="M221.652,-27.1283C196.059,-32.5064 165.087,-41.0215 139.409,-54 131.949,-57.7709 117.706,-69.1328 104.751,-80.0742"/>
<polygon fill="black" stroke="black" stroke-width="1.11823" points="102.253,-77.6044 96.9233,-86.7609 106.8,-82.9269 102.253,-77.6044"/>
<text text-anchor="middle" x="198.909" y="-57.8" font-family="Times New Roman,serif" font-size="14.00">441.91994378634445</text>
</g>
<!-- 6179918396602481755&#45;&gt;6179918396602481755 -->
<g id="edge13" class="edge"><title>6179918396602481755&#45;&gt;6179918396602481755</title>
<path fill="none" stroke="black" stroke-width="1.13385" d="M323.193,-25.5746C333.517,-24.7495 340.909,-22.2246 340.909,-18 340.909,-15.3596 338.022,-13.3832 333.335,-12.0707"/>
<polygon fill="black" stroke="black" stroke-width="1.13385" points="333.625,-8.57199 323.193,-10.4254 332.504,-15.4817 333.625,-8.57199"/>
<text text-anchor="middle" x="396.909" y="-14.3" font-family="Times New Roman,serif" font-size="14.00">455.9346693301435</text>
</g>
</g>
</svg>
