<?xml version="1.0" encoding="UTF-8" standalone="no"?>
<!DOCTYPE svg PUBLIC "-//W3C//DTD SVG 1.1//EN"
 "http://www.w3.org/Graphics/SVG/1.1/DTD/svg11.dtd">
<!-- Generated by graphviz version 2.38.0 (20140413.2041)
 -->
<!-- Title: %3 Pages: 1 -->
<svg width="758pt" height="479pt"
 viewBox="0.00 0.00 758.29 479.00" xmlns="http://www.w3.org/2000/svg" xmlns:xlink="http://www.w3.org/1999/xlink">
<g id="graph0" class="graph" transform="scale(1 1) rotate(0) translate(4 475)">
<title>%3</title>
<!-- 3703627156728642698 -->
<g id="node1" class="node"><title>3703627156728642698</title>
<polygon fill="#ffffff" stroke="black" points="552.789,-297 433.789,-297 433.789,-261 552.789,-261 552.789,-297"/>
<text text-anchor="middle" x="493.289" y="-275.3" font-family="Times New Roman,serif" font-size="14.00">Admission NC (1)</text>
</g>
<!-- 3579705282704473787 -->
<g id="node2" class="node"><title>3579705282704473787</title>
<polygon fill="#ffffff" stroke="black" points="304.289,-210 240.289,-210 240.289,-174 304.289,-174 304.289,-210"/>
<text text-anchor="middle" x="272.289" y="-188.3" font-family="Times New Roman,serif" font-size="14.00">CRP (1)</text>
</g>
<!-- 3703627156728642698&#45;&gt;3579705282704473787 -->
<g id="edge1" class="edge"><title>3703627156728642698&#45;&gt;3579705282704473787</title>
<path fill="none" stroke="black" d="M448.832,-260.901C409.44,-245.751 352.363,-223.798 313.865,-208.991"/>
<polygon fill="black" stroke="black" points="315.09,-205.712 304.5,-205.389 312.577,-212.246 315.09,-205.712"/>
<text text-anchor="middle" x="452.289" y="-231.8" font-family="Times New Roman,serif" font-size="14.00">369.7585361090541</text>
</g>
<!-- &#45;755878416217562554 -->
<g id="node9" class="node"><title>&#45;755878416217562554</title>
<polygon fill="#ffffff" stroke="black" points="322.789,-36 221.789,-36 221.789,-0 322.789,-0 322.789,-36"/>
<text text-anchor="middle" x="272.289" y="-14.3" font-family="Times New Roman,serif" font-size="14.00">Leucocytes (1)</text>
</g>
<!-- 3703627156728642698&#45;&gt;&#45;755878416217562554 -->
<g id="edge2" class="edge"><title>3703627156728642698&#45;&gt;&#45;755878416217562554</title>
<path fill="none" stroke="black" stroke-width="1.04288" d="M504.606,-260.861C507.665,-255.376 510.595,-249.131 512.289,-243 530.758,-176.135 559.271,-142.222 517.289,-87 495.068,-57.7718 398.275,-37.8161 333.207,-27.4237"/>
<polygon fill="black" stroke="black" stroke-width="1.04288" points="333.473,-23.9229 323.053,-25.838 332.393,-30.8391 333.473,-23.9229"/>
<text text-anchor="middle" x="595.289" y="-144.8" font-family="Times New Roman,serif" font-size="14.00">407.5458931466617</text>
</g>
<!-- 8066172473611450852 -->
<g id="node8" class="node"><title>8066172473611450852</title>
<polygon fill="#ffffff" stroke="black" points="122.289,-123 24.2887,-123 24.2887,-87 122.289,-87 122.289,-123"/>
<text text-anchor="middle" x="73.2887" y="-101.3" font-family="Times New Roman,serif" font-size="14.00">LacticAcid (1)</text>
</g>
<!-- 3579705282704473787&#45;&gt;8066172473611450852 -->
<g id="edge3" class="edge"><title>3579705282704473787&#45;&gt;8066172473611450852</title>
<path fill="none" stroke="black" stroke-width="1.29257" d="M240.256,-191.715C177.05,-192.366 39.8333,-189.754 10.2887,-156 1.47121,-145.926 8.09455,-136.385 19.8299,-128.39"/>
<polygon fill="black" stroke="black" stroke-width="1.29257" points="21.8609,-131.254 28.6442,-123.115 18.2661,-125.247 21.8609,-131.254"/>
<text text-anchor="middle" x="63.2887" y="-144.8" font-family="Times New Roman,serif" font-size="14.00">627.590488788202</text>
</g>
<!-- 3579705282704473787&#45;&gt;&#45;755878416217562554 -->
<g id="edge4" class="edge"><title>3579705282704473787&#45;&gt;&#45;755878416217562554</title>
<path fill="none" stroke="black" stroke-width="2.21756" d="M272.289,-173.879C272.289,-144.001 272.289,-82.1129 272.289,-46.2736"/>
<polygon fill="black" stroke="black" stroke-width="2.21756" points="275.789,-46.0516 272.289,-36.0516 268.789,-46.0516 275.789,-46.0516"/>
<text text-anchor="middle" x="328.289" y="-101.3" font-family="Times New Roman,serif" font-size="14.00">1442.737079589494</text>
</g>
<!-- &#45;6320656248013813873 -->
<g id="node3" class="node"><title>&#45;6320656248013813873</title>
<polygon fill="#ffffff" stroke="black" points="700.789,-471 575.789,-471 575.789,-435 700.789,-435 700.789,-471"/>
<text text-anchor="middle" x="638.289" y="-449.3" font-family="Times New Roman,serif" font-size="14.00">ER Registration (1)</text>
</g>
<!-- 2377219762996478470 -->
<g id="node5" class="node"><title>2377219762996478470</title>
<polygon fill="#ffffff" stroke="black" points="684.789,-384 591.789,-384 591.789,-348 684.789,-348 684.789,-384"/>
<text text-anchor="middle" x="638.289" y="-362.3" font-family="Times New Roman,serif" font-size="14.00">ER Triage (1)</text>
</g>
<!-- &#45;6320656248013813873&#45;&gt;2377219762996478470 -->
<g id="edge5" class="edge"><title>&#45;6320656248013813873&#45;&gt;2377219762996478470</title>
<path fill="none" stroke="black" stroke-width="1.68159" d="M638.289,-434.799C638.289,-423.163 638.289,-407.548 638.289,-394.237"/>
<polygon fill="black" stroke="black" stroke-width="1.68159" points="641.789,-394.175 638.289,-384.175 634.789,-394.175 641.789,-394.175"/>
<text text-anchor="middle" x="691.289" y="-405.8" font-family="Times New Roman,serif" font-size="14.00">970.407226951716</text>
</g>
<!-- 7430045975075819265 -->
<g id="node4" class="node"><title>7430045975075819265</title>
<polygon fill="#ffffff" stroke="black" points="705.289,-297 571.289,-297 571.289,-261 705.289,-261 705.289,-297"/>
<text text-anchor="middle" x="638.289" y="-275.3" font-family="Times New Roman,serif" font-size="14.00">ER Sepsis Triage (1)</text>
</g>
<!-- 2377219762996478470&#45;&gt;7430045975075819265 -->
<g id="edge6" class="edge"><title>2377219762996478470&#45;&gt;7430045975075819265</title>
<path fill="none" stroke="black" stroke-width="1.59999" d="M638.289,-347.799C638.289,-336.163 638.289,-320.548 638.289,-307.237"/>
<polygon fill="black" stroke="black" stroke-width="1.59999" points="641.789,-307.175 638.289,-297.175 634.789,-307.175 641.789,-307.175"/>
<text text-anchor="middle" x="694.289" y="-318.8" font-family="Times New Roman,serif" font-size="14.00">898.4971622863221</text>
</g>
<!-- &#45;5705463351445563725 -->
<g id="node6" class="node"><title>&#45;5705463351445563725</title>
<polygon fill="#ffffff" stroke="black" points="550.789,-384 435.789,-384 435.789,-348 550.789,-348 550.789,-384"/>
<text text-anchor="middle" x="493.289" y="-362.3" font-family="Times New Roman,serif" font-size="14.00">IV Antibiotics (1)</text>
</g>
<!-- &#45;5705463351445563725&#45;&gt;3703627156728642698 -->
<g id="edge7" class="edge"><title>&#45;5705463351445563725&#45;&gt;3703627156728642698</title>
<path fill="none" stroke="black" stroke-width="1.13441" d="M493.289,-347.799C493.289,-336.163 493.289,-320.548 493.289,-307.237"/>
<polygon fill="black" stroke="black" stroke-width="1.13441" points="496.789,-307.175 493.289,-297.175 489.789,-307.175 496.789,-307.175"/>
<text text-anchor="middle" x="552.789" y="-318.8" font-family="Times New Roman,serif" font-size="14.00">488.21093004639926</text>
</g>
<!-- &#45;3862139582344886855 -->
<g id="node7" class="node"><title>&#45;3862139582344886855</title>
<polygon fill="#ffffff" stroke="black" points="538.289,-471 448.289,-471 448.289,-435 538.289,-435 538.289,-471"/>
<text text-anchor="middle" x="493.289" y="-449.3" font-family="Times New Roman,serif" font-size="14.00">IV Liquid (1)</text>
</g>
<!-- &#45;3862139582344886855&#45;&gt;&#45;5705463351445563725 -->
<g id="edge8" class="edge"><title>&#45;3862139582344886855&#45;&gt;&#45;5705463351445563725</title>
<path fill="none" stroke="black" stroke-width="1.15068" d="M493.289,-434.799C493.289,-423.163 493.289,-407.548 493.289,-394.237"/>
<polygon fill="black" stroke="black" stroke-width="1.15068" points="496.789,-394.175 493.289,-384.175 489.789,-394.175 496.789,-394.175"/>
<text text-anchor="middle" x="552.789" y="-405.8" font-family="Times New Roman,serif" font-size="14.00">502.54463972256985</text>
</g>
<!-- 8066172473611450852&#45;&gt;3579705282704473787 -->
<g id="edge9" class="edge"><title>8066172473611450852&#45;&gt;3579705282704473787</title>
<path fill="none" stroke="black" stroke-width="1.03214" d="M94.1469,-123.218C109.712,-135.792 129.852,-151.409 139.289,-156 168.131,-170.033 203.327,-178.976 230.266,-184.307"/>
<polygon fill="black" stroke="black" stroke-width="1.03214" points="229.68,-187.758 240.156,-186.176 230.98,-180.88 229.68,-187.758"/>
<text text-anchor="middle" x="198.789" y="-144.8" font-family="Times New Roman,serif" font-size="14.00">398.08552895653514</text>
</g>
<!-- 8066172473611450852&#45;&gt;&#45;755878416217562554 -->
<g id="edge10" class="edge"><title>8066172473611450852&#45;&gt;&#45;755878416217562554</title>
<path fill="none" stroke="black" stroke-width="1.22118" d="M24.2528,-87.2896C6.3008,-78.5691 -7.13043,-67.0074 4.28867,-54 30.6962,-23.9195 140.937,-18.3878 211.542,-18.0442"/>
<polygon fill="black" stroke="black" stroke-width="1.22118" points="211.662,-21.5441 221.656,-18.0289 211.651,-14.5441 211.662,-21.5441"/>
<text text-anchor="middle" x="60.2887" y="-57.8" font-family="Times New Roman,serif" font-size="14.00">564.6778868547708</text>
</g>
<!-- &#45;755878416217562554&#45;&gt;3579705282704473787 -->
<g id="edge11" class="edge"><title>&#45;755878416217562554&#45;&gt;3579705282704473787</title>
<path fill="none" stroke="black" stroke-width="2.6" d="M318.068,-36.0649C359.112,-54.2127 409.803,-85.4502 388.289,-123 372.372,-150.781 340.213,-168.313 313.785,-178.604"/>
<polygon fill="black" stroke="black" stroke-width="2.6" points="312.526,-175.337 304.348,-182.073 314.942,-181.907 312.526,-175.337"/>
<text text-anchor="middle" x="453.789" y="-101.3" font-family="Times New Roman,serif" font-size="14.00">1779.7599519182968</text>
</g>
<!-- &#45;755878416217562554&#45;&gt;8066172473611450852 -->
<g id="edge12" class="edge"><title>&#45;755878416217562554&#45;&gt;8066172473611450852</title>
<path fill="none" stroke="black" stroke-width="1.07363" d="M221.695,-27.4568C196.144,-32.9202 165.16,-41.4124 139.289,-54 131.401,-57.8379 116.033,-69.3808 102.11,-80.4096"/>
<polygon fill="black" stroke="black" stroke-width="1.07363" points="99.7681,-77.801 94.1469,-86.7817 104.142,-83.2665 99.7681,-77.801"/>
<text text-anchor="middle" x="198.789" y="-57.8" font-family="Times New Roman,serif" font-size="14.00">434.64120016446736</text>
</g>
<!-- &#45;755878416217562554&#45;&gt;&#45;755878416217562554 -->
<g id="edge13" class="edge"><title>&#45;755878416217562554&#45;&gt;&#45;755878416217562554</title>
<path fill="none" stroke="black" stroke-width="1.10067" d="M323.073,-25.5746C333.396,-24.7495 340.789,-22.2246 340.789,-18 340.789,-15.3596 337.901,-13.3832 333.215,-12.0707"/>
<polygon fill="black" stroke="black" stroke-width="1.10067" points="333.504,-8.57199 323.073,-10.4254 332.383,-15.4817 333.504,-8.57199"/>
<text text-anchor="middle" x="396.789" y="-14.3" font-family="Times New Roman,serif" font-size="14.00">458.4741548459806</text>
</g>
</g>
</svg>
