<?xml version="1.0" encoding="UTF-8" standalone="no"?>
<!DOCTYPE svg PUBLIC "-//W3C//DTD SVG 1.1//EN"
 "http://www.w3.org/Graphics/SVG/1.1/DTD/svg11.dtd">
<!-- Generated by graphviz version 2.38.0 (20140413.2041)
 -->
<!-- Title: %3 Pages: 1 -->
<svg width="346pt" height="131pt"
 viewBox="0.00 0.00 346.00 131.00" xmlns="http://www.w3.org/2000/svg" xmlns:xlink="http://www.w3.org/1999/xlink">
<g id="graph0" class="graph" transform="scale(1 1) rotate(0) translate(4 127)">
<title>%3</title>
<!-- &#45;6421059332212756720 -->
<g id="node1" class="node"><title>&#45;6421059332212756720</title>
<polygon fill="#ffffff" stroke="black" points="134,-123 0,-123 0,-87 134,-87 134,-123"/>
<text text-anchor="middle" x="67" y="-101.3" font-family="Times New Roman,serif" font-size="14.00">01_HOOFD_330 (1)</text>
</g>
<!-- 5499801361687123427 -->
<g id="node4" class="node"><title>5499801361687123427</title>
<polygon fill="#ffffff" stroke="black" points="125,-36 9,-36 9,-0 125,-0 125,-36"/>
<text text-anchor="middle" x="67" y="-14.3" font-family="Times New Roman,serif" font-size="14.00">09_AH_I_010 (1)</text>
</g>
<!-- &#45;6421059332212756720&#45;&gt;5499801361687123427 -->
<g id="edge1" class="edge"><title>&#45;6421059332212756720&#45;&gt;5499801361687123427</title>
<path fill="none" stroke="black" stroke-width="2.6" d="M67,-86.799C67,-75.1626 67,-59.5479 67,-46.2368"/>
<polygon fill="black" stroke="black" stroke-width="2.6" points="70.5001,-46.1754 67,-36.1754 63.5001,-46.1755 70.5001,-46.1754"/>
<text text-anchor="middle" x="126.5" y="-57.8" font-family="Times New Roman,serif" font-size="14.00">425.96843373510814</text>
</g>
<!-- 9055129201463081987 -->
<g id="node2" class="node"><title>9055129201463081987</title>
<polygon fill="#ffffff" stroke="black" points="286,-123 152,-123 152,-87 286,-87 286,-123"/>
<text text-anchor="middle" x="219" y="-101.3" font-family="Times New Roman,serif" font-size="14.00">01_HOOFD_380 (1)</text>
</g>
<!-- &#45;5679474370231276399 -->
<g id="node3" class="node"><title>&#45;5679474370231276399</title>
<polygon fill="#ffffff" stroke="black" points="286,-36 152,-36 152,-0 286,-0 286,-36"/>
<text text-anchor="middle" x="219" y="-14.3" font-family="Times New Roman,serif" font-size="14.00">01_HOOFD_430 (1)</text>
</g>
<!-- 9055129201463081987&#45;&gt;&#45;5679474370231276399 -->
<g id="edge2" class="edge"><title>9055129201463081987&#45;&gt;&#45;5679474370231276399</title>
<path fill="none" stroke="black" d="M219,-86.799C219,-75.1626 219,-59.5479 219,-46.2368"/>
<polygon fill="black" stroke="black" points="222.5,-46.1754 219,-36.1754 215.5,-46.1755 222.5,-46.1754"/>
<text text-anchor="middle" x="278.5" y="-57.8" font-family="Times New Roman,serif" font-size="14.00">409.76190222920104</text>
</g>
</g>
</svg>
