<?xml version="1.0" encoding="UTF-8" standalone="no"?>
<!DOCTYPE svg PUBLIC "-//W3C//DTD SVG 1.1//EN"
 "http://www.w3.org/Graphics/SVG/1.1/DTD/svg11.dtd">
<!-- Generated by graphviz version 2.38.0 (20140413.2041)
 -->
<!-- Title: %3 Pages: 1 -->
<svg width="741pt" height="479pt"
 viewBox="0.00 0.00 741.39 479.00" xmlns="http://www.w3.org/2000/svg" xmlns:xlink="http://www.w3.org/1999/xlink">
<g id="graph0" class="graph" transform="scale(1 1) rotate(0) translate(4 475)">
<title>%3</title>
<!-- &#45;6760735685208204671 -->
<g id="node1" class="node"><title>&#45;6760735685208204671</title>
<polygon fill="#ffffff" stroke="black" points="535.894,-297 416.894,-297 416.894,-261 535.894,-261 535.894,-297"/>
<text text-anchor="middle" x="476.394" y="-275.3" font-family="Times New Roman,serif" font-size="14.00">Admission NC (1)</text>
</g>
<!-- 7850561497370058999 -->
<g id="node2" class="node"><title>7850561497370058999</title>
<polygon fill="#ffffff" stroke="black" points="297.394,-210 233.394,-210 233.394,-174 297.394,-174 297.394,-210"/>
<text text-anchor="middle" x="265.394" y="-188.3" font-family="Times New Roman,serif" font-size="14.00">CRP (1)</text>
</g>
<!-- &#45;6760735685208204671&#45;&gt;7850561497370058999 -->
<g id="edge1" class="edge"><title>&#45;6760735685208204671&#45;&gt;7850561497370058999</title>
<path fill="none" stroke="black" d="M433.949,-260.901C396.941,-245.993 343.583,-224.498 306.865,-209.707"/>
<polygon fill="black" stroke="black" points="308.028,-206.402 297.444,-205.911 305.412,-212.894 308.028,-206.402"/>
<text text-anchor="middle" x="440.394" y="-231.8" font-family="Times New Roman,serif" font-size="14.00">368.9568724170768</text>
</g>
<!-- 6179918396602481755 -->
<g id="node9" class="node"><title>6179918396602481755</title>
<polygon fill="#ffffff" stroke="black" points="315.894,-36 214.894,-36 214.894,-0 315.894,-0 315.894,-36"/>
<text text-anchor="middle" x="265.394" y="-14.3" font-family="Times New Roman,serif" font-size="14.00">Leucocytes (1)</text>
</g>
<!-- &#45;6760735685208204671&#45;&gt;6179918396602481755 -->
<g id="edge2" class="edge"><title>&#45;6760735685208204671&#45;&gt;6179918396602481755</title>
<path fill="none" stroke="black" stroke-width="1.0443" d="M491.104,-260.925C494.882,-255.54 498.431,-249.334 500.394,-243 514.194,-198.471 623.006,-251.048 497.394,-87 476.516,-59.7335 387.534,-39.5407 326.045,-28.5194"/>
<polygon fill="black" stroke="black" stroke-width="1.0443" points="326.502,-25.0462 316.048,-26.7643 325.292,-31.9408 326.502,-25.0462"/>
<text text-anchor="middle" x="603.894" y="-144.8" font-family="Times New Roman,serif" font-size="14.00">407.96296962448315</text>
</g>
<!-- 1152587832168206417 -->
<g id="node8" class="node"><title>1152587832168206417</title>
<polygon fill="#ffffff" stroke="black" points="119.394,-123 21.3938,-123 21.3938,-87 119.394,-87 119.394,-123"/>
<text text-anchor="middle" x="70.3938" y="-101.3" font-family="Times New Roman,serif" font-size="14.00">LacticAcid (1)</text>
</g>
<!-- 7850561497370058999&#45;&gt;1152587832168206417 -->
<g id="edge3" class="edge"><title>7850561497370058999&#45;&gt;1152587832168206417</title>
<path fill="none" stroke="black" stroke-width="1.29503" d="M232.998,-191.7C169.817,-192.296 33.744,-189.549 4.39385,-156 -4.69053,-145.616 2.31343,-135.99 14.6193,-128.014"/>
<polygon fill="black" stroke="black" stroke-width="1.29503" points="16.4117,-131.021 23.3558,-123.019 12.9373,-124.944 16.4117,-131.021"/>
<text text-anchor="middle" x="60.3938" y="-144.8" font-family="Times New Roman,serif" font-size="14.00">628.7274439871164</text>
</g>
<!-- 7850561497370058999&#45;&gt;6179918396602481755 -->
<g id="edge4" class="edge"><title>7850561497370058999&#45;&gt;6179918396602481755</title>
<path fill="none" stroke="black" stroke-width="2.22103" d="M265.394,-173.879C265.394,-144.001 265.394,-82.1129 265.394,-46.2736"/>
<polygon fill="black" stroke="black" stroke-width="2.22103" points="268.894,-46.0516 265.394,-36.0516 261.894,-46.0516 268.894,-46.0516"/>
<text text-anchor="middle" x="321.394" y="-101.3" font-family="Times New Roman,serif" font-size="14.00">1444.066375447696</text>
</g>
<!-- &#45;2410219256766748193 -->
<g id="node3" class="node"><title>&#45;2410219256766748193</title>
<polygon fill="#ffffff" stroke="black" points="683.894,-471 558.894,-471 558.894,-435 683.894,-435 683.894,-471"/>
<text text-anchor="middle" x="621.394" y="-449.3" font-family="Times New Roman,serif" font-size="14.00">ER Registration (1)</text>
</g>
<!-- &#45;2872325205858232948 -->
<g id="node5" class="node"><title>&#45;2872325205858232948</title>
<polygon fill="#ffffff" stroke="black" points="667.894,-384 574.894,-384 574.894,-348 667.894,-348 667.894,-384"/>
<text text-anchor="middle" x="621.394" y="-362.3" font-family="Times New Roman,serif" font-size="14.00">ER Triage (1)</text>
</g>
<!-- &#45;2410219256766748193&#45;&gt;&#45;2872325205858232948 -->
<g id="edge5" class="edge"><title>&#45;2410219256766748193&#45;&gt;&#45;2872325205858232948</title>
<path fill="none" stroke="black" stroke-width="1.68396" d="M621.394,-434.799C621.394,-423.163 621.394,-407.548 621.394,-394.237"/>
<polygon fill="black" stroke="black" stroke-width="1.68396" points="624.894,-394.175 621.394,-384.175 617.894,-394.175 624.894,-394.175"/>
<text text-anchor="middle" x="677.394" y="-405.8" font-family="Times New Roman,serif" font-size="14.00">971.1816628158922</text>
</g>
<!-- 8892003065059452103 -->
<g id="node4" class="node"><title>8892003065059452103</title>
<polygon fill="#ffffff" stroke="black" points="688.394,-297 554.394,-297 554.394,-261 688.394,-261 688.394,-297"/>
<text text-anchor="middle" x="621.394" y="-275.3" font-family="Times New Roman,serif" font-size="14.00">ER Sepsis Triage (1)</text>
</g>
<!-- &#45;2872325205858232948&#45;&gt;8892003065059452103 -->
<g id="edge6" class="edge"><title>&#45;2872325205858232948&#45;&gt;8892003065059452103</title>
<path fill="none" stroke="black" stroke-width="1.6071" d="M621.394,-347.799C621.394,-336.163 621.394,-320.548 621.394,-307.237"/>
<polygon fill="black" stroke="black" stroke-width="1.6071" points="624.894,-307.175 621.394,-297.175 617.894,-307.175 624.894,-307.175"/>
<text text-anchor="middle" x="677.394" y="-318.8" font-family="Times New Roman,serif" font-size="14.00">903.5045594807523</text>
</g>
<!-- &#45;6564841300794043563 -->
<g id="node6" class="node"><title>&#45;6564841300794043563</title>
<polygon fill="#ffffff" stroke="black" points="533.894,-384 418.894,-384 418.894,-348 533.894,-348 533.894,-384"/>
<text text-anchor="middle" x="476.394" y="-362.3" font-family="Times New Roman,serif" font-size="14.00">IV Antibiotics (1)</text>
</g>
<!-- &#45;6564841300794043563&#45;&gt;&#45;6760735685208204671 -->
<g id="edge7" class="edge"><title>&#45;6564841300794043563&#45;&gt;&#45;6760735685208204671</title>
<path fill="none" stroke="black" stroke-width="1.13663" d="M476.394,-347.799C476.394,-336.163 476.394,-320.548 476.394,-307.237"/>
<polygon fill="black" stroke="black" stroke-width="1.13663" points="479.894,-307.175 476.394,-297.175 472.894,-307.175 479.894,-307.175"/>
<text text-anchor="middle" x="535.894" y="-318.8" font-family="Times New Roman,serif" font-size="14.00">489.25658287427893</text>
</g>
<!-- &#45;1926219633770359302 -->
<g id="node7" class="node"><title>&#45;1926219633770359302</title>
<polygon fill="#ffffff" stroke="black" points="521.394,-471 431.394,-471 431.394,-435 521.394,-435 521.394,-471"/>
<text text-anchor="middle" x="476.394" y="-449.3" font-family="Times New Roman,serif" font-size="14.00">IV Liquid (1)</text>
</g>
<!-- &#45;1926219633770359302&#45;&gt;&#45;6564841300794043563 -->
<g id="edge8" class="edge"><title>&#45;1926219633770359302&#45;&gt;&#45;6564841300794043563</title>
<path fill="none" stroke="black" stroke-width="1.14982" d="M476.394,-434.799C476.394,-423.163 476.394,-407.548 476.394,-394.237"/>
<polygon fill="black" stroke="black" stroke-width="1.14982" points="479.894,-394.175 476.394,-384.175 472.894,-394.175 479.894,-394.175"/>
<text text-anchor="middle" x="535.894" y="-405.8" font-family="Times New Roman,serif" font-size="14.00">500.87394904018413</text>
</g>
<!-- 1152587832168206417&#45;&gt;7850561497370058999 -->
<g id="edge9" class="edge"><title>1152587832168206417&#45;&gt;7850561497370058999</title>
<path fill="none" stroke="black" stroke-width="1.04029" d="M93.156,-123.111C111.261,-136.616 134.363,-153.576 139.394,-156 165.999,-168.819 198.098,-177.647 223.239,-183.231"/>
<polygon fill="black" stroke="black" stroke-width="1.04029" points="222.692,-186.693 233.202,-185.356 224.152,-179.847 222.692,-186.693"/>
<text text-anchor="middle" x="195.394" y="-144.8" font-family="Times New Roman,serif" font-size="14.00">404.4318689072766</text>
</g>
<!-- 1152587832168206417&#45;&gt;6179918396602481755 -->
<g id="edge10" class="edge"><title>1152587832168206417&#45;&gt;6179918396602481755</title>
<path fill="none" stroke="black" stroke-width="1.22144" d="M23.3558,-86.981C6.15378,-78.1902 -6.68044,-66.6585 4.39385,-54 29.8413,-24.9123 135.517,-18.9795 204.351,-18.3044"/>
<polygon fill="black" stroke="black" stroke-width="1.22144" points="204.666,-21.8026 214.644,-18.2395 204.622,-14.8027 204.666,-21.8026"/>
<text text-anchor="middle" x="60.3938" y="-57.8" font-family="Times New Roman,serif" font-size="14.00">563.9313115363443</text>
</g>
<!-- 6179918396602481755&#45;&gt;7850561497370058999 -->
<g id="edge11" class="edge"><title>6179918396602481755&#45;&gt;7850561497370058999</title>
<path fill="none" stroke="black" stroke-width="2.6" d="M311.173,-36.0649C352.217,-54.2127 402.908,-85.4502 381.394,-123 365.477,-150.781 333.318,-168.313 306.89,-178.604"/>
<polygon fill="black" stroke="black" stroke-width="2.6" points="305.632,-175.337 297.453,-182.073 308.047,-181.907 305.632,-175.337"/>
<text text-anchor="middle" x="440.394" y="-101.3" font-family="Times New Roman,serif" font-size="14.00">1777.74228441123</text>
</g>
<!-- 6179918396602481755&#45;&gt;1152587832168206417 -->
<g id="edge12" class="edge"><title>6179918396602481755&#45;&gt;1152587832168206417</title>
<path fill="none" stroke="black" stroke-width="1.07414" d="M214.847,-28.6971C191.214,-34.3104 163.119,-42.5684 139.394,-54 135.11,-56.0643 117.721,-68.6695 101.473,-80.7057"/>
<polygon fill="black" stroke="black" stroke-width="1.07414" points="99.0929,-78.114 93.156,-86.8892 103.269,-83.7316 99.0929,-78.114"/>
<text text-anchor="middle" x="195.394" y="-57.8" font-family="Times New Roman,serif" font-size="14.00">434.2383657479882</text>
</g>
<!-- 6179918396602481755&#45;&gt;6179918396602481755 -->
<g id="edge13" class="edge"><title>6179918396602481755&#45;&gt;6179918396602481755</title>
<path fill="none" stroke="black" stroke-width="1.1021" d="M316.178,-25.5746C326.501,-24.7495 333.894,-22.2246 333.894,-18 333.894,-15.3596 331.006,-13.3832 326.32,-12.0707"/>
<polygon fill="black" stroke="black" stroke-width="1.1021" points="326.609,-8.57199 316.178,-10.4254 325.488,-15.4817 326.609,-8.57199"/>
<text text-anchor="middle" x="393.394" y="-14.3" font-family="Times New Roman,serif" font-size="14.00">458.85673096908096</text>
</g>
</g>
</svg>
