<?xml version="1.0" encoding="UTF-8" standalone="no"?>
<!DOCTYPE svg PUBLIC "-//W3C//DTD SVG 1.1//EN"
 "http://www.w3.org/Graphics/SVG/1.1/DTD/svg11.dtd">
<!-- Generated by graphviz version 2.38.0 (20140413.2041)
 -->
<!-- Title: %3 Pages: 1 -->
<svg width="758pt" height="479pt"
 viewBox="0.00 0.00 757.58 479.00" xmlns="http://www.w3.org/2000/svg" xmlns:xlink="http://www.w3.org/1999/xlink">
<g id="graph0" class="graph" transform="scale(1 1) rotate(0) translate(4 475)">
<title>%3</title>
<!-- 9118780525858573852 -->
<g id="node1" class="node"><title>9118780525858573852</title>
<polygon fill="#ffffff" stroke="black" points="558.077,-297 439.077,-297 439.077,-261 558.077,-261 558.077,-297"/>
<text text-anchor="middle" x="498.577" y="-275.3" font-family="Times New Roman,serif" font-size="14.00">Admission NC (1)</text>
</g>
<!-- 8794229938327540079 -->
<g id="node2" class="node"><title>8794229938327540079</title>
<polygon fill="#ffffff" stroke="black" points="304.577,-210 240.577,-210 240.577,-174 304.577,-174 304.577,-210"/>
<text text-anchor="middle" x="272.577" y="-188.3" font-family="Times New Roman,serif" font-size="14.00">CRP (1)</text>
</g>
<!-- 9118780525858573852&#45;&gt;8794229938327540079 -->
<g id="edge1" class="edge"><title>9118780525858573852&#45;&gt;8794229938327540079</title>
<path fill="none" stroke="black" d="M453.114,-260.901C412.594,-245.661 353.773,-223.538 314.399,-208.73"/>
<polygon fill="black" stroke="black" points="315.423,-205.375 304.831,-205.131 312.959,-211.927 315.423,-205.375"/>
<text text-anchor="middle" x="455.577" y="-231.8" font-family="Times New Roman,serif" font-size="14.00">368.8843978688743</text>
</g>
<!-- &#45;4990305070490083274 -->
<g id="node9" class="node"><title>&#45;4990305070490083274</title>
<polygon fill="#ffffff" stroke="black" points="323.077,-36 222.077,-36 222.077,-0 323.077,-0 323.077,-36"/>
<text text-anchor="middle" x="272.577" y="-14.3" font-family="Times New Roman,serif" font-size="14.00">Leucocytes (1)</text>
</g>
<!-- 9118780525858573852&#45;&gt;&#45;4990305070490083274 -->
<g id="edge2" class="edge"><title>9118780525858573852&#45;&gt;&#45;4990305070490083274</title>
<path fill="none" stroke="black" stroke-width="1.04436" d="M508.325,-260.857C527.47,-224.662 564.766,-139.472 524.577,-87 501.448,-56.8023 400.279,-36.9672 333.373,-26.8902"/>
<polygon fill="black" stroke="black" stroke-width="1.04436" points="333.759,-23.4093 323.355,-25.4153 332.739,-30.3346 333.759,-23.4093"/>
<text text-anchor="middle" x="598.577" y="-144.8" font-family="Times New Roman,serif" font-size="14.00">407.9766014542561</text>
</g>
<!-- 5659693541288529527 -->
<g id="node8" class="node"><title>5659693541288529527</title>
<polygon fill="#ffffff" stroke="black" points="126.577,-123 28.5768,-123 28.5768,-87 126.577,-87 126.577,-123"/>
<text text-anchor="middle" x="77.5768" y="-101.3" font-family="Times New Roman,serif" font-size="14.00">LacticAcid (1)</text>
</g>
<!-- 8794229938327540079&#45;&gt;5659693541288529527 -->
<g id="edge3" class="edge"><title>8794229938327540079&#45;&gt;5659693541288529527</title>
<path fill="none" stroke="black" stroke-width="1.29596" d="M240.312,-191.828C175.894,-192.715 34.9143,-190.557 4.57677,-156 -5.8554,-144.117 3.90492,-133.706 19.3056,-125.505"/>
<polygon fill="black" stroke="black" stroke-width="1.29596" points="20.8376,-128.652 28.3495,-121.18 17.8179,-122.336 20.8376,-128.652"/>
<text text-anchor="middle" x="60.5768" y="-144.8" font-family="Times New Roman,serif" font-size="14.00">629.6816980438425</text>
</g>
<!-- 8794229938327540079&#45;&gt;&#45;4990305070490083274 -->
<g id="edge4" class="edge"><title>8794229938327540079&#45;&gt;&#45;4990305070490083274</title>
<path fill="none" stroke="black" stroke-width="2.22353" d="M272.577,-173.879C272.577,-144.001 272.577,-82.1129 272.577,-46.2736"/>
<polygon fill="black" stroke="black" stroke-width="2.22353" points="276.077,-46.0516 272.577,-36.0516 269.077,-46.0516 276.077,-46.0516"/>
<text text-anchor="middle" x="332.077" y="-101.3" font-family="Times New Roman,serif" font-size="14.00">1447.0569861334066</text>
</g>
<!-- 4941573644585563234 -->
<g id="node3" class="node"><title>4941573644585563234</title>
<polygon fill="#ffffff" stroke="black" points="706.077,-471 581.077,-471 581.077,-435 706.077,-435 706.077,-471"/>
<text text-anchor="middle" x="643.577" y="-449.3" font-family="Times New Roman,serif" font-size="14.00">ER Registration (1)</text>
</g>
<!-- 7781181950460006610 -->
<g id="node5" class="node"><title>7781181950460006610</title>
<polygon fill="#ffffff" stroke="black" points="690.077,-384 597.077,-384 597.077,-348 690.077,-348 690.077,-384"/>
<text text-anchor="middle" x="643.577" y="-362.3" font-family="Times New Roman,serif" font-size="14.00">ER Triage (1)</text>
</g>
<!-- 4941573644585563234&#45;&gt;7781181950460006610 -->
<g id="edge5" class="edge"><title>4941573644585563234&#45;&gt;7781181950460006610</title>
<path fill="none" stroke="black" stroke-width="1.68354" d="M643.577,-434.799C643.577,-423.163 643.577,-407.548 643.577,-394.237"/>
<polygon fill="black" stroke="black" stroke-width="1.68354" points="647.077,-394.175 643.577,-384.175 640.077,-394.175 647.077,-394.175"/>
<text text-anchor="middle" x="693.077" y="-405.8" font-family="Times New Roman,serif" font-size="14.00">971.22285256931</text>
</g>
<!-- &#45;1916228938975785919 -->
<g id="node4" class="node"><title>&#45;1916228938975785919</title>
<polygon fill="#ffffff" stroke="black" points="710.577,-297 576.577,-297 576.577,-261 710.577,-261 710.577,-297"/>
<text text-anchor="middle" x="643.577" y="-275.3" font-family="Times New Roman,serif" font-size="14.00">ER Sepsis Triage (1)</text>
</g>
<!-- 7781181950460006610&#45;&gt;&#45;1916228938975785919 -->
<g id="edge6" class="edge"><title>7781181950460006610&#45;&gt;&#45;1916228938975785919</title>
<path fill="none" stroke="black" stroke-width="1.60841" d="M643.577,-347.799C643.577,-336.163 643.577,-320.548 643.577,-307.237"/>
<polygon fill="black" stroke="black" stroke-width="1.60841" points="647.077,-307.175 643.577,-297.175 640.077,-307.175 647.077,-307.175"/>
<text text-anchor="middle" x="696.577" y="-318.8" font-family="Times New Roman,serif" font-size="14.00">905.018507328747</text>
</g>
<!-- 1341266047991071662 -->
<g id="node6" class="node"><title>1341266047991071662</title>
<polygon fill="#ffffff" stroke="black" points="556.077,-384 441.077,-384 441.077,-348 556.077,-348 556.077,-384"/>
<text text-anchor="middle" x="498.577" y="-362.3" font-family="Times New Roman,serif" font-size="14.00">IV Antibiotics (1)</text>
</g>
<!-- 1341266047991071662&#45;&gt;9118780525858573852 -->
<g id="edge7" class="edge"><title>1341266047991071662&#45;&gt;9118780525858573852</title>
<path fill="none" stroke="black" stroke-width="1.13726" d="M498.577,-347.799C498.577,-336.163 498.577,-320.548 498.577,-307.237"/>
<polygon fill="black" stroke="black" stroke-width="1.13726" points="502.077,-307.175 498.577,-297.175 495.077,-307.175 502.077,-307.175"/>
<text text-anchor="middle" x="558.077" y="-318.8" font-family="Times New Roman,serif" font-size="14.00">489.84144562828624</text>
</g>
<!-- 1513237216211266658 -->
<g id="node7" class="node"><title>1513237216211266658</title>
<polygon fill="#ffffff" stroke="black" points="543.577,-471 453.577,-471 453.577,-435 543.577,-435 543.577,-471"/>
<text text-anchor="middle" x="498.577" y="-449.3" font-family="Times New Roman,serif" font-size="14.00">IV Liquid (1)</text>
</g>
<!-- 1513237216211266658&#45;&gt;1341266047991071662 -->
<g id="edge8" class="edge"><title>1513237216211266658&#45;&gt;1341266047991071662</title>
<path fill="none" stroke="black" stroke-width="1.14916" d="M498.577,-434.799C498.577,-423.163 498.577,-407.548 498.577,-394.237"/>
<polygon fill="black" stroke="black" stroke-width="1.14916" points="502.077,-394.175 498.577,-384.175 495.077,-394.175 502.077,-394.175"/>
<text text-anchor="middle" x="551.577" y="-405.8" font-family="Times New Roman,serif" font-size="14.00">500.326459471313</text>
</g>
<!-- 5659693541288529527&#45;&gt;8794229938327540079 -->
<g id="edge9" class="edge"><title>5659693541288529527&#45;&gt;8794229938327540079</title>
<path fill="none" stroke="black" stroke-width="1.03979" d="M97.0908,-123.239C111.669,-135.824 130.568,-151.446 139.577,-156 168.203,-170.469 203.41,-179.39 230.408,-184.602"/>
<polygon fill="black" stroke="black" stroke-width="1.03979" points="229.855,-188.059 240.323,-186.422 231.119,-181.174 229.855,-188.059"/>
<text text-anchor="middle" x="199.077" y="-144.8" font-family="Times New Roman,serif" font-size="14.00">403.94999524055066</text>
</g>
<!-- 5659693541288529527&#45;&gt;&#45;4990305070490083274 -->
<g id="edge10" class="edge"><title>5659693541288529527&#45;&gt;&#45;4990305070490083274</title>
<path fill="none" stroke="black" stroke-width="1.22091" d="M35.3058,-86.8158C19.1902,-77.8198 6.97114,-66.1607 17.5768,-54 42.2659,-25.6907 144.503,-19.4691 211.786,-18.5336"/>
<polygon fill="black" stroke="black" stroke-width="1.22091" points="211.894,-22.0328 221.857,-18.4291 211.821,-15.0332 211.894,-22.0328"/>
<text text-anchor="middle" x="73.5768" y="-57.8" font-family="Times New Roman,serif" font-size="14.00">563.5503937092316</text>
</g>
<!-- &#45;4990305070490083274&#45;&gt;8794229938327540079 -->
<g id="edge11" class="edge"><title>&#45;4990305070490083274&#45;&gt;8794229938327540079</title>
<path fill="none" stroke="black" stroke-width="2.6" d="M322.31,-36.1523C365.578,-54.0524 418.094,-84.8222 395.577,-123 378.168,-152.517 342.842,-170.113 314.497,-179.985"/>
<polygon fill="black" stroke="black" stroke-width="2.6" points="313.216,-176.721 304.803,-183.161 315.395,-183.373 313.216,-176.721"/>
<text text-anchor="middle" x="461.077" y="-101.3" font-family="Times New Roman,serif" font-size="14.00">1778.8067576953129</text>
</g>
<!-- &#45;4990305070490083274&#45;&gt;5659693541288529527 -->
<g id="edge12" class="edge"><title>&#45;4990305070490083274&#45;&gt;5659693541288529527</title>
<path fill="none" stroke="black" stroke-width="1.07428" d="M222.005,-30.0998C200.103,-35.8269 174.511,-43.7834 152.577,-54 151.387,-54.554 130.85,-68.2571 111.569,-81.1764"/>
<polygon fill="black" stroke="black" stroke-width="1.07428" points="109.515,-78.3395 103.158,-86.8153 113.413,-84.1537 109.515,-78.3395"/>
<text text-anchor="middle" x="205.577" y="-57.8" font-family="Times New Roman,serif" font-size="14.00">434.344279818389</text>
</g>
<!-- &#45;4990305070490083274&#45;&gt;&#45;4990305070490083274 -->
<g id="edge13" class="edge"><title>&#45;4990305070490083274&#45;&gt;&#45;4990305070490083274</title>
<path fill="none" stroke="black" stroke-width="1.10144" d="M323.361,-25.5746C333.684,-24.7495 341.077,-22.2246 341.077,-18 341.077,-15.3596 338.189,-13.3832 333.503,-12.0707"/>
<polygon fill="black" stroke="black" stroke-width="1.10144" points="333.792,-8.57199 323.361,-10.4254 332.671,-15.4817 333.792,-8.57199"/>
<text text-anchor="middle" x="397.077" y="-14.3" font-family="Times New Roman,serif" font-size="14.00">458.2710195654924</text>
</g>
</g>
</svg>
