<?xml version="1.0" encoding="UTF-8" standalone="no"?>
<!DOCTYPE svg PUBLIC "-//W3C//DTD SVG 1.1//EN"
 "http://www.w3.org/Graphics/SVG/1.1/DTD/svg11.dtd">
<!-- Generated by graphviz version 2.38.0 (20140413.2041)
 -->
<!-- Title: %3 Pages: 1 -->
<svg width="771pt" height="479pt"
 viewBox="0.00 0.00 770.64 479.00" xmlns="http://www.w3.org/2000/svg" xmlns:xlink="http://www.w3.org/1999/xlink">
<g id="graph0" class="graph" transform="scale(1 1) rotate(0) translate(4 475)">
<title>%3</title>
<!-- 9118780525858573852 -->
<g id="node1" class="node"><title>9118780525858573852</title>
<polygon fill="#ffffff" stroke="black" points="565.144,-297 446.144,-297 446.144,-261 565.144,-261 565.144,-297"/>
<text text-anchor="middle" x="505.644" y="-275.3" font-family="Times New Roman,serif" font-size="14.00">Admission NC (1)</text>
</g>
<!-- 8794229938327540079 -->
<g id="node2" class="node"><title>8794229938327540079</title>
<polygon fill="#ffffff" stroke="black" points="311.644,-210 247.644,-210 247.644,-174 311.644,-174 311.644,-210"/>
<text text-anchor="middle" x="279.644" y="-188.3" font-family="Times New Roman,serif" font-size="14.00">CRP (1)</text>
</g>
<!-- 9118780525858573852&#45;&gt;8794229938327540079 -->
<g id="edge1" class="edge"><title>9118780525858573852&#45;&gt;8794229938327540079</title>
<path fill="none" stroke="black" stroke-width="1.06367" d="M460.182,-260.901C419.662,-245.661 360.841,-223.538 321.467,-208.73"/>
<polygon fill="black" stroke="black" stroke-width="1.06367" points="322.491,-205.375 311.899,-205.131 320.026,-211.927 322.491,-205.375"/>
<text text-anchor="middle" x="462.644" y="-231.8" font-family="Times New Roman,serif" font-size="14.00">440.4190122635564</text>
</g>
<!-- &#45;4990305070490083274 -->
<g id="node9" class="node"><title>&#45;4990305070490083274</title>
<polygon fill="#ffffff" stroke="black" points="330.144,-36 229.144,-36 229.144,-0 330.144,-0 330.144,-36"/>
<text text-anchor="middle" x="279.644" y="-14.3" font-family="Times New Roman,serif" font-size="14.00">Leucocytes (1)</text>
</g>
<!-- 9118780525858573852&#45;&gt;&#45;4990305070490083274 -->
<g id="edge2" class="edge"><title>9118780525858573852&#45;&gt;&#45;4990305070490083274</title>
<path fill="none" stroke="black" stroke-width="1.01877" d="M515.393,-260.857C534.537,-224.662 571.834,-139.472 531.644,-87 508.515,-56.8023 407.347,-36.9672 340.441,-26.8902"/>
<polygon fill="black" stroke="black" stroke-width="1.01877" points="340.826,-23.4093 330.423,-25.4153 339.807,-30.3346 340.826,-23.4093"/>
<text text-anchor="middle" x="605.644" y="-144.8" font-family="Times New Roman,serif" font-size="14.00">406.0994044202223</text>
</g>
<!-- 5659693541288529527 -->
<g id="node8" class="node"><title>5659693541288529527</title>
<polygon fill="#ffffff" stroke="black" points="130.644,-123 32.6444,-123 32.6444,-87 130.644,-87 130.644,-123"/>
<text text-anchor="middle" x="81.6444" y="-101.3" font-family="Times New Roman,serif" font-size="14.00">LacticAcid (1)</text>
</g>
<!-- 8794229938327540079&#45;&gt;5659693541288529527 -->
<g id="edge3" class="edge"><title>8794229938327540079&#45;&gt;5659693541288529527</title>
<path fill="none" stroke="black" stroke-width="1.14439" d="M247.43,-189.255C178.26,-185.179 20.4903,-173.99 4.64443,-156 -6.74924,-143.064 5.22576,-132.135 22.8584,-123.825"/>
<polygon fill="black" stroke="black" stroke-width="1.14439" points="24.6701,-126.858 32.5011,-119.721 21.9291,-120.417 24.6701,-126.858"/>
<text text-anchor="middle" x="64.1444" y="-144.8" font-family="Times New Roman,serif" font-size="14.00">502.11632898523567</text>
</g>
<!-- 8794229938327540079&#45;&gt;&#45;4990305070490083274 -->
<g id="edge4" class="edge"><title>8794229938327540079&#45;&gt;&#45;4990305070490083274</title>
<path fill="none" stroke="black" stroke-width="2.4587" d="M279.644,-173.879C279.644,-144.001 279.644,-82.1129 279.644,-46.2736"/>
<polygon fill="black" stroke="black" stroke-width="2.4587" points="283.145,-46.0516 279.644,-36.0516 276.145,-46.0516 283.145,-46.0516"/>
<text text-anchor="middle" x="339.144" y="-101.3" font-family="Times New Roman,serif" font-size="14.00">1506.7113262734756</text>
</g>
<!-- 4941573644585563234 -->
<g id="node3" class="node"><title>4941573644585563234</title>
<polygon fill="#ffffff" stroke="black" points="713.144,-471 588.144,-471 588.144,-435 713.144,-435 713.144,-471"/>
<text text-anchor="middle" x="650.644" y="-449.3" font-family="Times New Roman,serif" font-size="14.00">ER Registration (1)</text>
</g>
<!-- 7781181950460006610 -->
<g id="node5" class="node"><title>7781181950460006610</title>
<polygon fill="#ffffff" stroke="black" points="697.144,-384 604.144,-384 604.144,-348 697.144,-348 697.144,-384"/>
<text text-anchor="middle" x="650.644" y="-362.3" font-family="Times New Roman,serif" font-size="14.00">ER Triage (1)</text>
</g>
<!-- 4941573644585563234&#45;&gt;7781181950460006610 -->
<g id="edge5" class="edge"><title>4941573644585563234&#45;&gt;7781181950460006610</title>
<path fill="none" stroke="black" stroke-width="1.71882" d="M650.644,-434.799C650.644,-423.163 650.644,-407.548 650.644,-394.237"/>
<polygon fill="black" stroke="black" stroke-width="1.71882" points="654.145,-394.175 650.644,-384.175 647.145,-394.175 654.145,-394.175"/>
<text text-anchor="middle" x="706.644" y="-405.8" font-family="Times New Roman,serif" font-size="14.00">941.1838319529844</text>
</g>
<!-- &#45;1916228938975785919 -->
<g id="node4" class="node"><title>&#45;1916228938975785919</title>
<polygon fill="#ffffff" stroke="black" points="717.644,-297 583.644,-297 583.644,-261 717.644,-261 717.644,-297"/>
<text text-anchor="middle" x="650.644" y="-275.3" font-family="Times New Roman,serif" font-size="14.00">ER Sepsis Triage (1)</text>
</g>
<!-- 7781181950460006610&#45;&gt;&#45;1916228938975785919 -->
<g id="edge6" class="edge"><title>7781181950460006610&#45;&gt;&#45;1916228938975785919</title>
<path fill="none" stroke="black" stroke-width="1.79114" d="M650.644,-347.799C650.644,-336.163 650.644,-320.548 650.644,-307.237"/>
<polygon fill="black" stroke="black" stroke-width="1.79114" points="654.145,-307.175 650.644,-297.175 647.145,-307.175 654.145,-307.175"/>
<text text-anchor="middle" x="706.644" y="-318.8" font-family="Times New Roman,serif" font-size="14.00">996.4573379044459</text>
</g>
<!-- 1341266047991071662 -->
<g id="node6" class="node"><title>1341266047991071662</title>
<polygon fill="#ffffff" stroke="black" points="563.144,-384 448.144,-384 448.144,-348 563.144,-348 563.144,-384"/>
<text text-anchor="middle" x="505.644" y="-362.3" font-family="Times New Roman,serif" font-size="14.00">IV Antibiotics (1)</text>
</g>
<!-- 1341266047991071662&#45;&gt;9118780525858573852 -->
<g id="edge7" class="edge"><title>1341266047991071662&#45;&gt;9118780525858573852</title>
<path fill="none" stroke="black" stroke-width="1.13686" d="M505.644,-347.799C505.644,-336.163 505.644,-320.548 505.644,-307.237"/>
<polygon fill="black" stroke="black" stroke-width="1.13686" points="509.145,-307.175 505.644,-297.175 502.145,-307.175 509.145,-307.175"/>
<text text-anchor="middle" x="565.144" y="-318.8" font-family="Times New Roman,serif" font-size="14.00">496.35959423879376</text>
</g>
<!-- 1513237216211266658 -->
<g id="node7" class="node"><title>1513237216211266658</title>
<polygon fill="#ffffff" stroke="black" points="550.644,-471 460.644,-471 460.644,-435 550.644,-435 550.644,-471"/>
<text text-anchor="middle" x="505.644" y="-449.3" font-family="Times New Roman,serif" font-size="14.00">IV Liquid (1)</text>
</g>
<!-- 1513237216211266658&#45;&gt;1341266047991071662 -->
<g id="edge8" class="edge"><title>1513237216211266658&#45;&gt;1341266047991071662</title>
<path fill="none" stroke="black" stroke-width="1.13051" d="M505.644,-434.799C505.644,-423.163 505.644,-407.548 505.644,-394.237"/>
<polygon fill="black" stroke="black" stroke-width="1.13051" points="509.145,-394.175 505.644,-384.175 502.145,-394.175 509.145,-394.175"/>
<text text-anchor="middle" x="565.144" y="-405.8" font-family="Times New Roman,serif" font-size="14.00">491.50165235399527</text>
</g>
<!-- 5659693541288529527&#45;&gt;8794229938327540079 -->
<g id="edge9" class="edge"><title>5659693541288529527&#45;&gt;8794229938327540079</title>
<path fill="none" stroke="black" stroke-width="1.02147" d="M102.167,-123.224C117.486,-135.8 137.316,-151.419 146.644,-156 175.435,-170.139 210.634,-179.077 237.587,-184.379"/>
<polygon fill="black" stroke="black" stroke-width="1.02147" points="237.009,-187.832 247.483,-186.236 238.3,-180.952 237.009,-187.832"/>
<text text-anchor="middle" x="206.144" y="-144.8" font-family="Times New Roman,serif" font-size="14.00">408.15929009726693</text>
</g>
<!-- 5659693541288529527&#45;&gt;&#45;4990305070490083274 -->
<g id="edge10" class="edge"><title>5659693541288529527&#45;&gt;&#45;4990305070490083274</title>
<path fill="none" stroke="black" stroke-width="1.5408" d="M37.0026,-86.8871C20.3329,-77.9931 7.79529,-66.4011 18.6444,-54 44.0919,-24.9123 149.767,-18.9795 218.601,-18.3044"/>
<polygon fill="black" stroke="black" stroke-width="1.5408" points="218.917,-21.8026 228.895,-18.2395 218.873,-14.8027 218.917,-21.8026"/>
<text text-anchor="middle" x="74.6444" y="-57.8" font-family="Times New Roman,serif" font-size="14.00">805.1097202667179</text>
</g>
<!-- &#45;4990305070490083274&#45;&gt;8794229938327540079 -->
<g id="edge11" class="edge"><title>&#45;4990305070490083274&#45;&gt;8794229938327540079</title>
<path fill="none" stroke="black" stroke-width="2.6" d="M329.378,-36.1523C372.646,-54.0524 425.162,-84.8222 402.644,-123 385.236,-152.517 349.909,-170.113 321.564,-179.985"/>
<polygon fill="black" stroke="black" stroke-width="2.6" points="320.283,-176.721 311.87,-183.161 322.463,-183.373 320.283,-176.721"/>
<text text-anchor="middle" x="468.144" y="-101.3" font-family="Times New Roman,serif" font-size="14.00">1614.7123142795067</text>
</g>
<!-- &#45;4990305070490083274&#45;&gt;5659693541288529527 -->
<g id="edge12" class="edge"><title>&#45;4990305070490083274&#45;&gt;5659693541288529527</title>
<path fill="none" stroke="black" stroke-width="1.07359" d="M228.894,-28.9847C205.347,-34.6426 177.381,-42.8554 153.644,-54 149.175,-56.0983 130.737,-68.9166 113.64,-81.0478"/>
<polygon fill="black" stroke="black" stroke-width="1.07359" points="111.538,-78.2475 105.421,-86.898 115.598,-83.9502 111.538,-78.2475"/>
<text text-anchor="middle" x="209.644" y="-57.8" font-family="Times New Roman,serif" font-size="14.00">447.9975476511459</text>
</g>
<!-- &#45;4990305070490083274&#45;&gt;&#45;4990305070490083274 -->
<g id="edge13" class="edge"><title>&#45;4990305070490083274&#45;&gt;&#45;4990305070490083274</title>
<path fill="none" stroke="black" d="M330.428,-25.5746C340.752,-24.7495 348.144,-22.2246 348.144,-18 348.144,-15.3596 345.257,-13.3832 340.571,-12.0707"/>
<polygon fill="black" stroke="black" points="340.86,-8.57199 330.428,-10.4254 339.739,-15.4817 340.86,-8.57199"/>
<text text-anchor="middle" x="404.144" y="-14.3" font-family="Times New Roman,serif" font-size="14.00">391.7496774690294</text>
</g>
</g>
</svg>
