<?xml version="1.0" encoding="UTF-8" standalone="no"?>
<!DOCTYPE svg PUBLIC "-//W3C//DTD SVG 1.1//EN"
 "http://www.w3.org/Graphics/SVG/1.1/DTD/svg11.dtd">
<!-- Generated by graphviz version 2.38.0 (20140413.2041)
 -->
<!-- Title: %3 Pages: 1 -->
<svg width="754pt" height="479pt"
 viewBox="0.00 0.00 753.58 479.00" xmlns="http://www.w3.org/2000/svg" xmlns:xlink="http://www.w3.org/1999/xlink">
<g id="graph0" class="graph" transform="scale(1 1) rotate(0) translate(4 475)">
<title>%3</title>
<!-- &#45;6760735685208204671 -->
<g id="node1" class="node"><title>&#45;6760735685208204671</title>
<polygon fill="#ffffff" stroke="black" points="548.077,-297 429.077,-297 429.077,-261 548.077,-261 548.077,-297"/>
<text text-anchor="middle" x="488.577" y="-275.3" font-family="Times New Roman,serif" font-size="14.00">Admission NC (1)</text>
</g>
<!-- 7850561497370058999 -->
<g id="node2" class="node"><title>7850561497370058999</title>
<polygon fill="#ffffff" stroke="black" points="304.577,-210 240.577,-210 240.577,-174 304.577,-174 304.577,-210"/>
<text text-anchor="middle" x="272.577" y="-188.3" font-family="Times New Roman,serif" font-size="14.00">CRP (1)</text>
</g>
<!-- &#45;6760735685208204671&#45;&gt;7850561497370058999 -->
<g id="edge1" class="edge"><title>&#45;6760735685208204671&#45;&gt;7850561497370058999</title>
<path fill="none" stroke="black" d="M445.126,-260.901C407.015,-245.904 351.966,-224.241 314.36,-209.442"/>
<polygon fill="black" stroke="black" points="315.308,-206.054 304.72,-205.649 312.744,-212.568 315.308,-206.054"/>
<text text-anchor="middle" x="453.077" y="-231.8" font-family="Times New Roman,serif" font-size="14.00">372.45760851708025</text>
</g>
<!-- 6179918396602481755 -->
<g id="node9" class="node"><title>6179918396602481755</title>
<polygon fill="#ffffff" stroke="black" points="323.077,-36 222.077,-36 222.077,-0 323.077,-0 323.077,-36"/>
<text text-anchor="middle" x="272.577" y="-14.3" font-family="Times New Roman,serif" font-size="14.00">Leucocytes (1)</text>
</g>
<!-- &#45;6760735685208204671&#45;&gt;6179918396602481755 -->
<g id="edge2" class="edge"><title>&#45;6760735685208204671&#45;&gt;6179918396602481755</title>
<path fill="none" stroke="black" stroke-width="1.02879" d="M505.997,-260.912C510.293,-255.617 514.31,-249.462 516.577,-243 531.828,-199.522 648.127,-261.309 511.577,-87 489.607,-58.955 396.503,-38.7929 333.197,-28.0157"/>
<polygon fill="black" stroke="black" stroke-width="1.02879" points="333.747,-24.5593 323.308,-26.3669 332.596,-31.464 333.747,-24.5593"/>
<text text-anchor="middle" x="615.577" y="-144.8" font-family="Times New Roman,serif" font-size="14.00">397.7300213450178</text>
</g>
<!-- 1152587832168206417 -->
<g id="node8" class="node"><title>1152587832168206417</title>
<polygon fill="#ffffff" stroke="black" points="126.577,-123 28.5768,-123 28.5768,-87 126.577,-87 126.577,-123"/>
<text text-anchor="middle" x="77.5768" y="-101.3" font-family="Times New Roman,serif" font-size="14.00">LacticAcid (1)</text>
</g>
<!-- 7850561497370058999&#45;&gt;1152587832168206417 -->
<g id="edge3" class="edge"><title>7850561497370058999&#45;&gt;1152587832168206417</title>
<path fill="none" stroke="black" stroke-width="1.2918" d="M240.312,-191.828C175.894,-192.715 34.9143,-190.557 4.57677,-156 -5.8554,-144.117 3.90492,-133.706 19.3056,-125.505"/>
<polygon fill="black" stroke="black" stroke-width="1.2918" points="20.8376,-128.652 28.3495,-121.18 17.8179,-122.336 20.8376,-128.652"/>
<text text-anchor="middle" x="60.5768" y="-144.8" font-family="Times New Roman,serif" font-size="14.00">628.6468514153189</text>
</g>
<!-- 7850561497370058999&#45;&gt;6179918396602481755 -->
<g id="edge4" class="edge"><title>7850561497370058999&#45;&gt;6179918396602481755</title>
<path fill="none" stroke="black" stroke-width="2.22043" d="M272.577,-173.879C272.577,-144.001 272.577,-82.1129 272.577,-46.2736"/>
<polygon fill="black" stroke="black" stroke-width="2.22043" points="276.077,-46.0516 272.577,-36.0516 269.077,-46.0516 276.077,-46.0516"/>
<text text-anchor="middle" x="332.077" y="-101.3" font-family="Times New Roman,serif" font-size="14.00">1443.9359736672286</text>
</g>
<!-- &#45;2410219256766748193 -->
<g id="node3" class="node"><title>&#45;2410219256766748193</title>
<polygon fill="#ffffff" stroke="black" points="696.077,-471 571.077,-471 571.077,-435 696.077,-435 696.077,-471"/>
<text text-anchor="middle" x="633.577" y="-449.3" font-family="Times New Roman,serif" font-size="14.00">ER Registration (1)</text>
</g>
<!-- &#45;2872325205858232948 -->
<g id="node5" class="node"><title>&#45;2872325205858232948</title>
<polygon fill="#ffffff" stroke="black" points="680.077,-384 587.077,-384 587.077,-348 680.077,-348 680.077,-384"/>
<text text-anchor="middle" x="633.577" y="-362.3" font-family="Times New Roman,serif" font-size="14.00">ER Triage (1)</text>
</g>
<!-- &#45;2410219256766748193&#45;&gt;&#45;2872325205858232948 -->
<g id="edge5" class="edge"><title>&#45;2410219256766748193&#45;&gt;&#45;2872325205858232948</title>
<path fill="none" stroke="black" stroke-width="1.68198" d="M633.577,-434.799C633.577,-423.163 633.577,-407.548 633.577,-394.237"/>
<polygon fill="black" stroke="black" stroke-width="1.68198" points="637.077,-394.175 633.577,-384.175 630.077,-394.175 637.077,-394.175"/>
<text text-anchor="middle" x="689.577" y="-405.8" font-family="Times New Roman,serif" font-size="14.00">971.2061500658908</text>
</g>
<!-- 8892003065059452103 -->
<g id="node4" class="node"><title>8892003065059452103</title>
<polygon fill="#ffffff" stroke="black" points="700.577,-297 566.577,-297 566.577,-261 700.577,-261 700.577,-297"/>
<text text-anchor="middle" x="633.577" y="-275.3" font-family="Times New Roman,serif" font-size="14.00">ER Sepsis Triage (1)</text>
</g>
<!-- &#45;2872325205858232948&#45;&gt;8892003065059452103 -->
<g id="edge6" class="edge"><title>&#45;2872325205858232948&#45;&gt;8892003065059452103</title>
<path fill="none" stroke="black" stroke-width="1.60588" d="M633.577,-347.799C633.577,-336.163 633.577,-320.548 633.577,-307.237"/>
<polygon fill="black" stroke="black" stroke-width="1.60588" points="637.077,-307.175 633.577,-297.175 630.077,-307.175 637.077,-307.175"/>
<text text-anchor="middle" x="689.577" y="-318.8" font-family="Times New Roman,serif" font-size="14.00">904.3933297567606</text>
</g>
<!-- &#45;6564841300794043563 -->
<g id="node6" class="node"><title>&#45;6564841300794043563</title>
<polygon fill="#ffffff" stroke="black" points="546.077,-384 431.077,-384 431.077,-348 546.077,-348 546.077,-384"/>
<text text-anchor="middle" x="488.577" y="-362.3" font-family="Times New Roman,serif" font-size="14.00">IV Antibiotics (1)</text>
</g>
<!-- &#45;6564841300794043563&#45;&gt;&#45;6760735685208204671 -->
<g id="edge7" class="edge"><title>&#45;6564841300794043563&#45;&gt;&#45;6760735685208204671</title>
<path fill="none" stroke="black" stroke-width="1.13163" d="M488.577,-347.799C488.577,-336.163 488.577,-320.548 488.577,-307.237"/>
<polygon fill="black" stroke="black" stroke-width="1.13163" points="492.077,-307.175 488.577,-297.175 485.077,-307.175 492.077,-307.175"/>
<text text-anchor="middle" x="541.577" y="-318.8" font-family="Times New Roman,serif" font-size="14.00">488.021374090648</text>
</g>
<!-- &#45;1926219633770359302 -->
<g id="node7" class="node"><title>&#45;1926219633770359302</title>
<polygon fill="#ffffff" stroke="black" points="533.577,-471 443.577,-471 443.577,-435 533.577,-435 533.577,-471"/>
<text text-anchor="middle" x="488.577" y="-449.3" font-family="Times New Roman,serif" font-size="14.00">IV Liquid (1)</text>
</g>
<!-- &#45;1926219633770359302&#45;&gt;&#45;6564841300794043563 -->
<g id="edge8" class="edge"><title>&#45;1926219633770359302&#45;&gt;&#45;6564841300794043563</title>
<path fill="none" stroke="black" stroke-width="1.14701" d="M488.577,-434.799C488.577,-423.163 488.577,-407.548 488.577,-394.237"/>
<polygon fill="black" stroke="black" stroke-width="1.14701" points="492.077,-394.175 488.577,-384.175 485.077,-394.175 492.077,-394.175"/>
<text text-anchor="middle" x="544.577" y="-405.8" font-family="Times New Roman,serif" font-size="14.00">501.5274605701797</text>
</g>
<!-- 1152587832168206417&#45;&gt;7850561497370058999 -->
<g id="edge9" class="edge"><title>1152587832168206417&#45;&gt;7850561497370058999</title>
<path fill="none" stroke="black" stroke-width="1.03537" d="M97.0908,-123.239C111.669,-135.824 130.568,-151.446 139.577,-156 168.203,-170.469 203.41,-179.39 230.408,-184.602"/>
<polygon fill="black" stroke="black" stroke-width="1.03537" points="229.855,-188.059 240.323,-186.422 231.119,-181.174 229.855,-188.059"/>
<text text-anchor="middle" x="199.077" y="-144.8" font-family="Times New Roman,serif" font-size="14.00">403.51158508018574</text>
</g>
<!-- 1152587832168206417&#45;&gt;6179918396602481755 -->
<g id="edge10" class="edge"><title>1152587832168206417&#45;&gt;6179918396602481755</title>
<path fill="none" stroke="black" stroke-width="1.21986" d="M35.3058,-86.8158C19.1902,-77.8198 6.97114,-66.1607 17.5768,-54 42.2659,-25.6907 144.503,-19.4691 211.786,-18.5336"/>
<polygon fill="black" stroke="black" stroke-width="1.21986" points="211.894,-22.0328 221.857,-18.4291 211.821,-15.0332 211.894,-22.0328"/>
<text text-anchor="middle" x="70.5768" y="-57.8" font-family="Times New Roman,serif" font-size="14.00">565.480349926518</text>
</g>
<!-- 6179918396602481755&#45;&gt;7850561497370058999 -->
<g id="edge11" class="edge"><title>6179918396602481755&#45;&gt;7850561497370058999</title>
<path fill="none" stroke="black" stroke-width="2.6" d="M322.31,-36.1523C365.578,-54.0524 418.094,-84.8222 395.577,-123 378.168,-152.517 342.842,-170.113 314.497,-179.985"/>
<polygon fill="black" stroke="black" stroke-width="2.6" points="313.216,-176.721 304.803,-183.161 315.395,-183.373 313.216,-176.721"/>
<text text-anchor="middle" x="454.577" y="-101.3" font-family="Times New Roman,serif" font-size="14.00">1777.18122472202</text>
</g>
<!-- 6179918396602481755&#45;&gt;1152587832168206417 -->
<g id="edge12" class="edge"><title>6179918396602481755&#45;&gt;1152587832168206417</title>
<path fill="none" stroke="black" stroke-width="1.07214" d="M222.03,-28.6971C198.397,-34.3104 170.302,-42.5684 146.577,-54 142.293,-56.0643 124.904,-68.6695 108.656,-80.7057"/>
<polygon fill="black" stroke="black" stroke-width="1.07214" points="106.276,-78.114 100.339,-86.8892 110.452,-83.7316 106.276,-78.114"/>
<text text-anchor="middle" x="202.577" y="-57.8" font-family="Times New Roman,serif" font-size="14.00">435.7950923802349</text>
</g>
<!-- 6179918396602481755&#45;&gt;6179918396602481755 -->
<g id="edge13" class="edge"><title>6179918396602481755&#45;&gt;6179918396602481755</title>
<path fill="none" stroke="black" stroke-width="1.10213" d="M323.361,-25.5746C333.684,-24.7495 341.077,-22.2246 341.077,-18 341.077,-15.3596 338.189,-13.3832 333.503,-12.0707"/>
<polygon fill="black" stroke="black" stroke-width="1.10213" points="333.792,-8.57199 323.361,-10.4254 332.671,-15.4817 333.792,-8.57199"/>
<text text-anchor="middle" x="397.077" y="-14.3" font-family="Times New Roman,serif" font-size="14.00">462.1190975563847</text>
</g>
</g>
</svg>
