<?xml version="1.0" encoding="UTF-8" standalone="no"?>
<!DOCTYPE svg PUBLIC "-//W3C//DTD SVG 1.1//EN"
 "http://www.w3.org/Graphics/SVG/1.1/DTD/svg11.dtd">
<!-- Generated by graphviz version 2.38.0 (20140413.2041)
 -->
<!-- Title: %3 Pages: 1 -->
<svg width="757pt" height="479pt"
 viewBox="0.00 0.00 757.42 479.00" xmlns="http://www.w3.org/2000/svg" xmlns:xlink="http://www.w3.org/1999/xlink">
<g id="graph0" class="graph" transform="scale(1 1) rotate(0) translate(4 475)">
<title>%3</title>
<!-- &#45;6760735685208204671 -->
<g id="node1" class="node"><title>&#45;6760735685208204671</title>
<polygon fill="#ffffff" stroke="black" points="551.923,-297 432.923,-297 432.923,-261 551.923,-261 551.923,-297"/>
<text text-anchor="middle" x="492.423" y="-275.3" font-family="Times New Roman,serif" font-size="14.00">Admission NC (1)</text>
</g>
<!-- 7850561497370058999 -->
<g id="node2" class="node"><title>7850561497370058999</title>
<polygon fill="#ffffff" stroke="black" points="298.423,-210 234.423,-210 234.423,-174 298.423,-174 298.423,-210"/>
<text text-anchor="middle" x="266.423" y="-188.3" font-family="Times New Roman,serif" font-size="14.00">CRP (1)</text>
</g>
<!-- &#45;6760735685208204671&#45;&gt;7850561497370058999 -->
<g id="edge1" class="edge"><title>&#45;6760735685208204671&#45;&gt;7850561497370058999</title>
<path fill="none" stroke="black" d="M446.961,-260.901C406.44,-245.661 347.619,-223.538 308.246,-208.73"/>
<polygon fill="black" stroke="black" points="309.269,-205.375 298.677,-205.131 306.805,-211.927 309.269,-205.375"/>
<text text-anchor="middle" x="452.923" y="-231.8" font-family="Times New Roman,serif" font-size="14.00">367.29809987739725</text>
</g>
<!-- 6179918396602481755 -->
<g id="node9" class="node"><title>6179918396602481755</title>
<polygon fill="#ffffff" stroke="black" points="316.923,-36 215.923,-36 215.923,-0 316.923,-0 316.923,-36"/>
<text text-anchor="middle" x="266.423" y="-14.3" font-family="Times New Roman,serif" font-size="14.00">Leucocytes (1)</text>
</g>
<!-- &#45;6760735685208204671&#45;&gt;6179918396602481755 -->
<g id="edge2" class="edge"><title>&#45;6760735685208204671&#45;&gt;6179918396602481755</title>
<path fill="none" stroke="black" stroke-width="1.05658" d="M507.067,-260.905C510.843,-255.518 514.407,-249.317 516.423,-243 537.501,-176.942 560.586,-142.048 518.423,-87 495.294,-56.8023 394.126,-36.9672 327.22,-26.8902"/>
<polygon fill="black" stroke="black" stroke-width="1.05658" points="327.605,-23.4093 317.202,-25.4153 326.585,-30.3346 327.605,-23.4093"/>
<text text-anchor="middle" x="601.923" y="-144.8" font-family="Times New Roman,serif" font-size="14.00">417.11255981217664</text>
</g>
<!-- 1152587832168206417 -->
<g id="node8" class="node"><title>1152587832168206417</title>
<polygon fill="#ffffff" stroke="black" points="120.423,-123 22.4232,-123 22.4232,-87 120.423,-87 120.423,-123"/>
<text text-anchor="middle" x="71.4232" y="-101.3" font-family="Times New Roman,serif" font-size="14.00">LacticAcid (1)</text>
</g>
<!-- 7850561497370058999&#45;&gt;1152587832168206417 -->
<g id="edge3" class="edge"><title>7850561497370058999&#45;&gt;1152587832168206417</title>
<path fill="none" stroke="black" stroke-width="1.30134" d="M234.391,-191.715C171.185,-192.366 33.9678,-189.754 4.42315,-156 -4.67314,-145.608 2.24982,-136.033 14.54,-128.104"/>
<polygon fill="black" stroke="black" stroke-width="1.30134" points="16.312,-131.123 23.277,-123.139 12.8535,-125.037 16.312,-131.123"/>
<text text-anchor="middle" x="57.4232" y="-144.8" font-family="Times New Roman,serif" font-size="14.00">632.584939826136</text>
</g>
<!-- 7850561497370058999&#45;&gt;6179918396602481755 -->
<g id="edge4" class="edge"><title>7850561497370058999&#45;&gt;6179918396602481755</title>
<path fill="none" stroke="black" stroke-width="2.22221" d="M266.423,-173.879C266.423,-144.001 266.423,-82.1129 266.423,-46.2736"/>
<polygon fill="black" stroke="black" stroke-width="2.22221" points="269.923,-46.0516 266.423,-36.0516 262.923,-46.0516 269.923,-46.0516"/>
<text text-anchor="middle" x="325.923" y="-101.3" font-family="Times New Roman,serif" font-size="14.00">1443.2863172635584</text>
</g>
<!-- &#45;2410219256766748193 -->
<g id="node3" class="node"><title>&#45;2410219256766748193</title>
<polygon fill="#ffffff" stroke="black" points="699.923,-471 574.923,-471 574.923,-435 699.923,-435 699.923,-471"/>
<text text-anchor="middle" x="637.423" y="-449.3" font-family="Times New Roman,serif" font-size="14.00">ER Registration (1)</text>
</g>
<!-- &#45;2872325205858232948 -->
<g id="node5" class="node"><title>&#45;2872325205858232948</title>
<polygon fill="#ffffff" stroke="black" points="683.923,-384 590.923,-384 590.923,-348 683.923,-348 683.923,-384"/>
<text text-anchor="middle" x="637.423" y="-362.3" font-family="Times New Roman,serif" font-size="14.00">ER Triage (1)</text>
</g>
<!-- &#45;2410219256766748193&#45;&gt;&#45;2872325205858232948 -->
<g id="edge5" class="edge"><title>&#45;2410219256766748193&#45;&gt;&#45;2872325205858232948</title>
<path fill="none" stroke="black" stroke-width="1.68531" d="M637.423,-434.799C637.423,-423.163 637.423,-407.548 637.423,-394.237"/>
<polygon fill="black" stroke="black" stroke-width="1.68531" points="640.923,-394.175 637.423,-384.175 633.923,-394.175 640.923,-394.175"/>
<text text-anchor="middle" x="693.423" y="-405.8" font-family="Times New Roman,serif" font-size="14.00">970.6242931603502</text>
</g>
<!-- 8892003065059452103 -->
<g id="node4" class="node"><title>8892003065059452103</title>
<polygon fill="#ffffff" stroke="black" points="704.423,-297 570.423,-297 570.423,-261 704.423,-261 704.423,-297"/>
<text text-anchor="middle" x="637.423" y="-275.3" font-family="Times New Roman,serif" font-size="14.00">ER Sepsis Triage (1)</text>
</g>
<!-- &#45;2872325205858232948&#45;&gt;8892003065059452103 -->
<g id="edge6" class="edge"><title>&#45;2872325205858232948&#45;&gt;8892003065059452103</title>
<path fill="none" stroke="black" stroke-width="1.59553" d="M637.423,-347.799C637.423,-336.163 637.423,-320.548 637.423,-307.237"/>
<polygon fill="black" stroke="black" stroke-width="1.59553" points="640.923,-307.175 637.423,-297.175 633.923,-307.175 640.923,-307.175"/>
<text text-anchor="middle" x="693.423" y="-318.8" font-family="Times New Roman,serif" font-size="14.00">891.5771258910388</text>
</g>
<!-- &#45;6564841300794043563 -->
<g id="node6" class="node"><title>&#45;6564841300794043563</title>
<polygon fill="#ffffff" stroke="black" points="549.923,-384 434.923,-384 434.923,-348 549.923,-348 549.923,-384"/>
<text text-anchor="middle" x="492.423" y="-362.3" font-family="Times New Roman,serif" font-size="14.00">IV Antibiotics (1)</text>
</g>
<!-- &#45;6564841300794043563&#45;&gt;&#45;6760735685208204671 -->
<g id="edge7" class="edge"><title>&#45;6564841300794043563&#45;&gt;&#45;6760735685208204671</title>
<path fill="none" stroke="black" stroke-width="1.13864" d="M492.423,-347.799C492.423,-336.163 492.423,-320.548 492.423,-307.237"/>
<polygon fill="black" stroke="black" stroke-width="1.13864" points="495.923,-307.175 492.423,-297.175 488.923,-307.175 495.923,-307.175"/>
<text text-anchor="middle" x="548.423" y="-318.8" font-family="Times New Roman,serif" font-size="14.00">489.3477059832056</text>
</g>
<!-- &#45;1926219633770359302 -->
<g id="node7" class="node"><title>&#45;1926219633770359302</title>
<polygon fill="#ffffff" stroke="black" points="537.423,-471 447.423,-471 447.423,-435 537.423,-435 537.423,-471"/>
<text text-anchor="middle" x="492.423" y="-449.3" font-family="Times New Roman,serif" font-size="14.00">IV Liquid (1)</text>
</g>
<!-- &#45;1926219633770359302&#45;&gt;&#45;6564841300794043563 -->
<g id="edge8" class="edge"><title>&#45;1926219633770359302&#45;&gt;&#45;6564841300794043563</title>
<path fill="none" stroke="black" stroke-width="1.13298" d="M492.423,-434.799C492.423,-423.163 492.423,-407.548 492.423,-394.237"/>
<polygon fill="black" stroke="black" stroke-width="1.13298" points="495.923,-394.175 492.423,-384.175 488.923,-394.175 495.923,-394.175"/>
<text text-anchor="middle" x="548.423" y="-405.8" font-family="Times New Roman,serif" font-size="14.00">484.3699764693168</text>
</g>
<!-- 1152587832168206417&#45;&gt;7850561497370058999 -->
<g id="edge9" class="edge"><title>1152587832168206417&#45;&gt;7850561497370058999</title>
<path fill="none" stroke="black" stroke-width="1.04364" d="M90.9371,-123.239C105.515,-135.824 124.414,-151.446 133.423,-156 162.049,-170.469 197.256,-179.39 224.254,-184.602"/>
<polygon fill="black" stroke="black" stroke-width="1.04364" points="223.701,-188.059 234.169,-186.422 224.965,-181.174 223.701,-188.059"/>
<text text-anchor="middle" x="192.923" y="-144.8" font-family="Times New Roman,serif" font-size="14.00">405.71989497811273</text>
</g>
<!-- 1152587832168206417&#45;&gt;6179918396602481755 -->
<g id="edge10" class="edge"><title>1152587832168206417&#45;&gt;6179918396602481755</title>
<path fill="none" stroke="black" stroke-width="1.2253" d="M29.1522,-86.8158C13.0366,-77.8198 0.817528,-66.1607 11.4232,-54 36.1123,-25.6907 138.35,-19.4691 205.633,-18.5336"/>
<polygon fill="black" stroke="black" stroke-width="1.2253" points="205.74,-22.0328 215.703,-18.4291 205.667,-15.0332 205.74,-22.0328"/>
<text text-anchor="middle" x="64.4232" y="-57.8" font-family="Times New Roman,serif" font-size="14.00">565.640154174087</text>
</g>
<!-- 6179918396602481755&#45;&gt;7850561497370058999 -->
<g id="edge11" class="edge"><title>6179918396602481755&#45;&gt;7850561497370058999</title>
<path fill="none" stroke="black" stroke-width="2.6" d="M316.156,-36.1523C359.425,-54.0524 411.94,-84.8222 389.423,-123 372.014,-152.517 336.688,-170.113 308.343,-179.985"/>
<polygon fill="black" stroke="black" stroke-width="2.6" points="307.062,-176.721 298.649,-183.161 309.242,-183.373 307.062,-176.721"/>
<text text-anchor="middle" x="454.923" y="-101.3" font-family="Times New Roman,serif" font-size="14.00">1775.8796719091504</text>
</g>
<!-- 6179918396602481755&#45;&gt;1152587832168206417 -->
<g id="edge12" class="edge"><title>6179918396602481755&#45;&gt;1152587832168206417</title>
<path fill="none" stroke="black" stroke-width="1.06775" d="M215.876,-28.6971C192.243,-34.3104 164.148,-42.5684 140.423,-54 136.139,-56.0643 118.75,-68.6695 102.502,-80.7057"/>
<polygon fill="black" stroke="black" stroke-width="1.06775" points="100.122,-78.114 94.1853,-86.8892 104.299,-83.7316 100.122,-78.114"/>
<text text-anchor="middle" x="196.423" y="-57.8" font-family="Times New Roman,serif" font-size="14.00">426.9458752721662</text>
</g>
<!-- 6179918396602481755&#45;&gt;6179918396602481755 -->
<g id="edge13" class="edge"><title>6179918396602481755&#45;&gt;6179918396602481755</title>
<path fill="none" stroke="black" stroke-width="1.11255" d="M317.207,-25.5746C327.531,-24.7495 334.923,-22.2246 334.923,-18 334.923,-15.3596 332.035,-13.3832 327.349,-12.0707"/>
<polygon fill="black" stroke="black" stroke-width="1.11255" points="327.638,-8.57199 317.207,-10.4254 326.518,-15.4817 327.638,-8.57199"/>
<text text-anchor="middle" x="394.423" y="-14.3" font-family="Times New Roman,serif" font-size="14.00">466.38124827131963</text>
</g>
</g>
</svg>
