<?xml version="1.0" encoding="UTF-8" standalone="no"?>
<!DOCTYPE svg PUBLIC "-//W3C//DTD SVG 1.1//EN"
 "http://www.w3.org/Graphics/SVG/1.1/DTD/svg11.dtd">
<!-- Generated by graphviz version 2.38.0 (20140413.2041)
 -->
<!-- Title: %3 Pages: 1 -->
<svg width="748pt" height="479pt"
 viewBox="0.00 0.00 748.49 479.00" xmlns="http://www.w3.org/2000/svg" xmlns:xlink="http://www.w3.org/1999/xlink">
<g id="graph0" class="graph" transform="scale(1 1) rotate(0) translate(4 475)">
<title>%3</title>
<!-- 9118780525858573852 -->
<g id="node1" class="node"><title>9118780525858573852</title>
<polygon fill="#ffffff" stroke="black" points="542.992,-297 423.992,-297 423.992,-261 542.992,-261 542.992,-297"/>
<text text-anchor="middle" x="483.492" y="-275.3" font-family="Times New Roman,serif" font-size="14.00">Admission NC (1)</text>
</g>
<!-- 8794229938327540079 -->
<g id="node2" class="node"><title>8794229938327540079</title>
<polygon fill="#ffffff" stroke="black" points="304.492,-210 240.492,-210 240.492,-174 304.492,-174 304.492,-210"/>
<text text-anchor="middle" x="272.492" y="-188.3" font-family="Times New Roman,serif" font-size="14.00">CRP (1)</text>
</g>
<!-- 9118780525858573852&#45;&gt;8794229938327540079 -->
<g id="edge1" class="edge"><title>9118780525858573852&#45;&gt;8794229938327540079</title>
<path fill="none" stroke="black" d="M441.047,-260.901C404.039,-245.993 350.681,-224.498 313.964,-209.707"/>
<polygon fill="black" stroke="black" points="315.126,-206.402 304.543,-205.911 312.51,-212.894 315.126,-206.402"/>
<text text-anchor="middle" x="447.492" y="-231.8" font-family="Times New Roman,serif" font-size="14.00">369.6254446991162</text>
</g>
<!-- &#45;4990305070490083274 -->
<g id="node9" class="node"><title>&#45;4990305070490083274</title>
<polygon fill="#ffffff" stroke="black" points="322.992,-36 221.992,-36 221.992,-0 322.992,-0 322.992,-36"/>
<text text-anchor="middle" x="272.492" y="-14.3" font-family="Times New Roman,serif" font-size="14.00">Leucocytes (1)</text>
</g>
<!-- 9118780525858573852&#45;&gt;&#45;4990305070490083274 -->
<g id="edge2" class="edge"><title>9118780525858573852&#45;&gt;&#45;4990305070490083274</title>
<path fill="none" stroke="black" stroke-width="1.04319" d="M498.203,-260.925C501.98,-255.54 505.529,-249.334 507.492,-243 521.293,-198.471 630.104,-251.048 504.492,-87 483.614,-59.7335 394.632,-39.5407 333.143,-28.5194"/>
<polygon fill="black" stroke="black" stroke-width="1.04319" points="333.601,-25.0462 323.146,-26.7643 332.39,-31.9408 333.601,-25.0462"/>
<text text-anchor="middle" x="610.992" y="-144.8" font-family="Times New Roman,serif" font-size="14.00">407.60612016912927</text>
</g>
<!-- 5659693541288529527 -->
<g id="node8" class="node"><title>5659693541288529527</title>
<polygon fill="#ffffff" stroke="black" points="122.492,-123 24.4923,-123 24.4923,-87 122.492,-87 122.492,-123"/>
<text text-anchor="middle" x="73.4923" y="-101.3" font-family="Times New Roman,serif" font-size="14.00">LacticAcid (1)</text>
</g>
<!-- 8794229938327540079&#45;&gt;5659693541288529527 -->
<g id="edge3" class="edge"><title>8794229938327540079&#45;&gt;5659693541288529527</title>
<path fill="none" stroke="black" stroke-width="1.29344" d="M240.227,-191.828C175.81,-192.715 34.8298,-190.557 4.49226,-156 -4.87497,-145.33 2.4799,-135.633 15.335,-127.678"/>
<polygon fill="black" stroke="black" stroke-width="1.29344" points="17.3486,-130.567 24.4564,-122.71 14.0004,-124.42 17.3486,-130.567"/>
<text text-anchor="middle" x="60.4923" y="-144.8" font-family="Times New Roman,serif" font-size="14.00">627.6526653898222</text>
</g>
<!-- 8794229938327540079&#45;&gt;&#45;4990305070490083274 -->
<g id="edge4" class="edge"><title>8794229938327540079&#45;&gt;&#45;4990305070490083274</title>
<path fill="none" stroke="black" stroke-width="2.2237" d="M272.492,-173.879C272.492,-144.001 272.492,-82.1129 272.492,-46.2736"/>
<polygon fill="black" stroke="black" stroke-width="2.2237" points="275.992,-46.0516 272.492,-36.0516 268.992,-46.0516 275.992,-46.0516"/>
<text text-anchor="middle" x="325.492" y="-101.3" font-family="Times New Roman,serif" font-size="14.00">1445.66214412979</text>
</g>
<!-- 4941573644585563234 -->
<g id="node3" class="node"><title>4941573644585563234</title>
<polygon fill="#ffffff" stroke="black" points="690.992,-471 565.992,-471 565.992,-435 690.992,-435 690.992,-471"/>
<text text-anchor="middle" x="628.492" y="-449.3" font-family="Times New Roman,serif" font-size="14.00">ER Registration (1)</text>
</g>
<!-- 7781181950460006610 -->
<g id="node5" class="node"><title>7781181950460006610</title>
<polygon fill="#ffffff" stroke="black" points="674.992,-384 581.992,-384 581.992,-348 674.992,-348 674.992,-384"/>
<text text-anchor="middle" x="628.492" y="-362.3" font-family="Times New Roman,serif" font-size="14.00">ER Triage (1)</text>
</g>
<!-- 4941573644585563234&#45;&gt;7781181950460006610 -->
<g id="edge5" class="edge"><title>4941573644585563234&#45;&gt;7781181950460006610</title>
<path fill="none" stroke="black" stroke-width="1.68154" d="M628.492,-434.799C628.492,-423.163 628.492,-407.548 628.492,-394.237"/>
<polygon fill="black" stroke="black" stroke-width="1.68154" points="631.992,-394.175 628.492,-384.175 624.992,-394.175 631.992,-394.175"/>
<text text-anchor="middle" x="684.492" y="-405.8" font-family="Times New Roman,serif" font-size="14.00">968.9225391536252</text>
</g>
<!-- &#45;1916228938975785919 -->
<g id="node4" class="node"><title>&#45;1916228938975785919</title>
<polygon fill="#ffffff" stroke="black" points="695.492,-297 561.492,-297 561.492,-261 695.492,-261 695.492,-297"/>
<text text-anchor="middle" x="628.492" y="-275.3" font-family="Times New Roman,serif" font-size="14.00">ER Sepsis Triage (1)</text>
</g>
<!-- 7781181950460006610&#45;&gt;&#45;1916228938975785919 -->
<g id="edge6" class="edge"><title>7781181950460006610&#45;&gt;&#45;1916228938975785919</title>
<path fill="none" stroke="black" stroke-width="1.60967" d="M628.492,-347.799C628.492,-336.163 628.492,-320.548 628.492,-307.237"/>
<polygon fill="black" stroke="black" stroke-width="1.60967" points="631.992,-307.175 628.492,-297.175 624.992,-307.175 631.992,-307.175"/>
<text text-anchor="middle" x="684.492" y="-318.8" font-family="Times New Roman,serif" font-size="14.00">905.7264395776266</text>
</g>
<!-- 1341266047991071662 -->
<g id="node6" class="node"><title>1341266047991071662</title>
<polygon fill="#ffffff" stroke="black" points="540.992,-384 425.992,-384 425.992,-348 540.992,-348 540.992,-384"/>
<text text-anchor="middle" x="483.492" y="-362.3" font-family="Times New Roman,serif" font-size="14.00">IV Antibiotics (1)</text>
</g>
<!-- 1341266047991071662&#45;&gt;9118780525858573852 -->
<g id="edge7" class="edge"><title>1341266047991071662&#45;&gt;9118780525858573852</title>
<path fill="none" stroke="black" stroke-width="1.13552" d="M483.492,-347.799C483.492,-336.163 483.492,-320.548 483.492,-307.237"/>
<polygon fill="black" stroke="black" stroke-width="1.13552" points="486.992,-307.175 483.492,-297.175 479.992,-307.175 486.992,-307.175"/>
<text text-anchor="middle" x="539.492" y="-318.8" font-family="Times New Roman,serif" font-size="14.00">488.7964279025912</text>
</g>
<!-- 1513237216211266658 -->
<g id="node7" class="node"><title>1513237216211266658</title>
<polygon fill="#ffffff" stroke="black" points="528.492,-471 438.492,-471 438.492,-435 528.492,-435 528.492,-471"/>
<text text-anchor="middle" x="483.492" y="-449.3" font-family="Times New Roman,serif" font-size="14.00">IV Liquid (1)</text>
</g>
<!-- 1513237216211266658&#45;&gt;1341266047991071662 -->
<g id="edge8" class="edge"><title>1513237216211266658&#45;&gt;1341266047991071662</title>
<path fill="none" stroke="black" stroke-width="1.14971" d="M483.492,-434.799C483.492,-423.163 483.492,-407.548 483.492,-394.237"/>
<polygon fill="black" stroke="black" stroke-width="1.14971" points="486.992,-394.175 483.492,-384.175 479.992,-394.175 486.992,-394.175"/>
<text text-anchor="middle" x="542.992" y="-405.8" font-family="Times New Roman,serif" font-size="14.00">501.26990019713685</text>
</g>
<!-- 5659693541288529527&#45;&gt;8794229938327540079 -->
<g id="edge9" class="edge"><title>5659693541288529527&#45;&gt;8794229938327540079</title>
<path fill="none" stroke="black" stroke-width="1.03907" d="M94.3505,-123.218C109.916,-135.792 130.056,-151.409 139.492,-156 168.335,-170.033 203.531,-178.976 230.47,-184.307"/>
<polygon fill="black" stroke="black" stroke-width="1.03907" points="229.884,-187.758 240.36,-186.176 231.184,-180.88 229.884,-187.758"/>
<text text-anchor="middle" x="198.992" y="-144.8" font-family="Times New Roman,serif" font-size="14.00">403.97836197133023</text>
</g>
<!-- 5659693541288529527&#45;&gt;&#45;4990305070490083274 -->
<g id="edge10" class="edge"><title>5659693541288529527&#45;&gt;&#45;4990305070490083274</title>
<path fill="none" stroke="black" stroke-width="1.22264" d="M28.8477,-86.8848C12.1774,-77.9902 -0.359999,-66.3984 10.4923,-54 36.0787,-24.7682 142.42,-18.893 211.508,-18.2661"/>
<polygon fill="black" stroke="black" stroke-width="1.22264" points="211.857,-21.7643 221.838,-18.2085 211.818,-14.7644 211.857,-21.7643"/>
<text text-anchor="middle" x="63.4923" y="-57.8" font-family="Times New Roman,serif" font-size="14.00">565.396153182783</text>
</g>
<!-- &#45;4990305070490083274&#45;&gt;8794229938327540079 -->
<g id="edge11" class="edge"><title>&#45;4990305070490083274&#45;&gt;8794229938327540079</title>
<path fill="none" stroke="black" stroke-width="2.6" d="M321.249,-36.1243C344.175,-46.9188 369.319,-63.3696 382.492,-87 390.283,-100.975 390.283,-109.025 382.492,-123 367.919,-149.141 338.697,-166.496 314.033,-177.127"/>
<polygon fill="black" stroke="black" stroke-width="2.6" points="312.438,-173.997 304.497,-181.01 315.078,-180.48 312.438,-173.997"/>
<text text-anchor="middle" x="444.492" y="-101.3" font-family="Times New Roman,serif" font-size="14.00">1776.555644118855</text>
</g>
<!-- &#45;4990305070490083274&#45;&gt;5659693541288529527 -->
<g id="edge12" class="edge"><title>&#45;4990305070490083274&#45;&gt;5659693541288529527</title>
<path fill="none" stroke="black" stroke-width="1.07485" d="M221.898,-27.4568C196.347,-32.9202 165.364,-41.4124 139.492,-54 131.604,-57.8379 116.236,-69.3808 102.314,-80.4096"/>
<polygon fill="black" stroke="black" stroke-width="1.07485" points="99.9717,-77.801 94.3505,-86.7817 104.345,-83.2665 99.9717,-77.801"/>
<text text-anchor="middle" x="198.992" y="-57.8" font-family="Times New Roman,serif" font-size="14.00">435.44098125817436</text>
</g>
<!-- &#45;4990305070490083274&#45;&gt;&#45;4990305070490083274 -->
<g id="edge13" class="edge"><title>&#45;4990305070490083274&#45;&gt;&#45;4990305070490083274</title>
<path fill="none" stroke="black" stroke-width="1.10046" d="M323.276,-25.5746C333.6,-24.7495 340.992,-22.2246 340.992,-18 340.992,-15.3596 338.105,-13.3832 333.418,-12.0707"/>
<polygon fill="black" stroke="black" stroke-width="1.10046" points="333.708,-8.57199 323.276,-10.4254 332.587,-15.4817 333.708,-8.57199"/>
<text text-anchor="middle" x="400.492" y="-14.3" font-family="Times New Roman,serif" font-size="14.00">457.95971207281184</text>
</g>
</g>
</svg>
