<?xml version="1.0" encoding="UTF-8" standalone="no"?>
<!DOCTYPE svg PUBLIC "-//W3C//DTD SVG 1.1//EN"
 "http://www.w3.org/Graphics/SVG/1.1/DTD/svg11.dtd">
<!-- Generated by graphviz version 2.38.0 (20140413.2041)
 -->
<!-- Title: %3 Pages: 1 -->
<svg width="752pt" height="479pt"
 viewBox="0.00 0.00 751.55 479.00" xmlns="http://www.w3.org/2000/svg" xmlns:xlink="http://www.w3.org/1999/xlink">
<g id="graph0" class="graph" transform="scale(1 1) rotate(0) translate(4 475)">
<title>%3</title>
<!-- 118450489566830562 -->
<g id="node1" class="node"><title>118450489566830562</title>
<polygon fill="#ffffff" stroke="black" points="546.046,-297 427.046,-297 427.046,-261 546.046,-261 546.046,-297"/>
<text text-anchor="middle" x="486.546" y="-275.3" font-family="Times New Roman,serif" font-size="14.00">Admission NC (1)</text>
</g>
<!-- 4941769122289558835 -->
<g id="node2" class="node"><title>4941769122289558835</title>
<polygon fill="#ffffff" stroke="black" points="297.546,-210 233.546,-210 233.546,-174 297.546,-174 297.546,-210"/>
<text text-anchor="middle" x="265.546" y="-188.3" font-family="Times New Roman,serif" font-size="14.00">CRP (1)</text>
</g>
<!-- 118450489566830562&#45;&gt;4941769122289558835 -->
<g id="edge1" class="edge"><title>118450489566830562&#45;&gt;4941769122289558835</title>
<path fill="none" stroke="black" d="M442.089,-260.901C402.698,-245.751 345.62,-223.798 307.123,-208.991"/>
<polygon fill="black" stroke="black" points="308.347,-205.712 297.758,-205.389 305.835,-212.246 308.347,-205.712"/>
<text text-anchor="middle" x="445.546" y="-231.8" font-family="Times New Roman,serif" font-size="14.00">369.7382092545817</text>
</g>
<!-- 6570115252564267433 -->
<g id="node9" class="node"><title>6570115252564267433</title>
<polygon fill="#ffffff" stroke="black" points="316.046,-36 215.046,-36 215.046,-0 316.046,-0 316.046,-36"/>
<text text-anchor="middle" x="265.546" y="-14.3" font-family="Times New Roman,serif" font-size="14.00">Leucocytes (1)</text>
</g>
<!-- 118450489566830562&#45;&gt;6570115252564267433 -->
<g id="edge2" class="edge"><title>118450489566830562&#45;&gt;6570115252564267433</title>
<path fill="none" stroke="black" stroke-width="1.04791" d="M497.863,-260.861C500.922,-255.376 503.852,-249.131 505.546,-243 524.015,-176.135 552.529,-142.222 510.546,-87 488.325,-57.7718 391.532,-37.8161 326.464,-27.4237"/>
<polygon fill="black" stroke="black" stroke-width="1.04791" points="326.73,-23.9229 316.31,-25.838 325.65,-30.8391 326.73,-23.9229"/>
<text text-anchor="middle" x="588.546" y="-144.8" font-family="Times New Roman,serif" font-size="14.00">411.7288947780719</text>
</g>
<!-- &#45;5670009864185339888 -->
<g id="node8" class="node"><title>&#45;5670009864185339888</title>
<polygon fill="#ffffff" stroke="black" points="125.546,-123 27.546,-123 27.546,-87 125.546,-87 125.546,-123"/>
<text text-anchor="middle" x="76.546" y="-101.3" font-family="Times New Roman,serif" font-size="14.00">LacticAcid (1)</text>
</g>
<!-- 4941769122289558835&#45;&gt;&#45;5670009864185339888 -->
<g id="edge3" class="edge"><title>4941769122289558835&#45;&gt;&#45;5670009864185339888</title>
<path fill="none" stroke="black" stroke-width="1.29052" d="M233.15,-191.7C169.969,-192.296 33.8961,-189.549 4.54601,-156 -5.58955,-144.415 3.52436,-134.179 18.2587,-126.034"/>
<polygon fill="black" stroke="black" stroke-width="1.29052" points="20.0599,-129.048 27.4804,-121.486 16.9637,-122.77 20.0599,-129.048"/>
<text text-anchor="middle" x="60.546" y="-144.8" font-family="Times New Roman,serif" font-size="14.00">624.3668221465839</text>
</g>
<!-- 4941769122289558835&#45;&gt;6570115252564267433 -->
<g id="edge4" class="edge"><title>4941769122289558835&#45;&gt;6570115252564267433</title>
<path fill="none" stroke="black" stroke-width="2.23167" d="M265.546,-173.879C265.546,-144.001 265.546,-82.1129 265.546,-46.2736"/>
<polygon fill="black" stroke="black" stroke-width="2.23167" points="269.046,-46.0516 265.546,-36.0516 262.046,-46.0516 269.046,-46.0516"/>
<text text-anchor="middle" x="325.046" y="-101.3" font-family="Times New Roman,serif" font-size="14.00">1449.2340614198167</text>
</g>
<!-- &#45;1744131764726653331 -->
<g id="node3" class="node"><title>&#45;1744131764726653331</title>
<polygon fill="#ffffff" stroke="black" points="694.046,-471 569.046,-471 569.046,-435 694.046,-435 694.046,-471"/>
<text text-anchor="middle" x="631.546" y="-449.3" font-family="Times New Roman,serif" font-size="14.00">ER Registration (1)</text>
</g>
<!-- &#45;8305476247514553090 -->
<g id="node5" class="node"><title>&#45;8305476247514553090</title>
<polygon fill="#ffffff" stroke="black" points="678.046,-384 585.046,-384 585.046,-348 678.046,-348 678.046,-384"/>
<text text-anchor="middle" x="631.546" y="-362.3" font-family="Times New Roman,serif" font-size="14.00">ER Triage (1)</text>
</g>
<!-- &#45;1744131764726653331&#45;&gt;&#45;8305476247514553090 -->
<g id="edge5" class="edge"><title>&#45;1744131764726653331&#45;&gt;&#45;8305476247514553090</title>
<path fill="none" stroke="black" stroke-width="1.68545" d="M631.546,-434.799C631.546,-423.163 631.546,-407.548 631.546,-394.237"/>
<polygon fill="black" stroke="black" stroke-width="1.68545" points="635.046,-394.175 631.546,-384.175 628.046,-394.175 635.046,-394.175"/>
<text text-anchor="middle" x="687.546" y="-405.8" font-family="Times New Roman,serif" font-size="14.00">970.5013119797127</text>
</g>
<!-- 3296544575651183754 -->
<g id="node4" class="node"><title>3296544575651183754</title>
<polygon fill="#ffffff" stroke="black" points="698.546,-297 564.546,-297 564.546,-261 698.546,-261 698.546,-297"/>
<text text-anchor="middle" x="631.546" y="-275.3" font-family="Times New Roman,serif" font-size="14.00">ER Sepsis Triage (1)</text>
</g>
<!-- &#45;8305476247514553090&#45;&gt;3296544575651183754 -->
<g id="edge6" class="edge"><title>&#45;8305476247514553090&#45;&gt;3296544575651183754</title>
<path fill="none" stroke="black" stroke-width="1.60717" d="M631.546,-347.799C631.546,-336.163 631.546,-320.548 631.546,-307.237"/>
<polygon fill="black" stroke="black" stroke-width="1.60717" points="635.046,-307.175 631.546,-297.175 628.046,-307.175 635.046,-307.175"/>
<text text-anchor="middle" x="687.546" y="-318.8" font-family="Times New Roman,serif" font-size="14.00">901.8879360408953</text>
</g>
<!-- &#45;8429177058128869877 -->
<g id="node6" class="node"><title>&#45;8429177058128869877</title>
<polygon fill="#ffffff" stroke="black" points="544.046,-384 429.046,-384 429.046,-348 544.046,-348 544.046,-384"/>
<text text-anchor="middle" x="486.546" y="-362.3" font-family="Times New Roman,serif" font-size="14.00">IV Antibiotics (1)</text>
</g>
<!-- &#45;8429177058128869877&#45;&gt;118450489566830562 -->
<g id="edge7" class="edge"><title>&#45;8429177058128869877&#45;&gt;118450489566830562</title>
<path fill="none" stroke="black" stroke-width="1.15143" d="M486.546,-347.799C486.546,-336.163 486.546,-320.548 486.546,-307.237"/>
<polygon fill="black" stroke="black" stroke-width="1.15143" points="490.046,-307.175 486.546,-297.175 483.046,-307.175 490.046,-307.175"/>
<text text-anchor="middle" x="546.046" y="-318.8" font-family="Times New Roman,serif" font-size="14.00">502.46251183776155</text>
</g>
<!-- 6215314419735287562 -->
<g id="node7" class="node"><title>6215314419735287562</title>
<polygon fill="#ffffff" stroke="black" points="531.546,-471 441.546,-471 441.546,-435 531.546,-435 531.546,-471"/>
<text text-anchor="middle" x="486.546" y="-449.3" font-family="Times New Roman,serif" font-size="14.00">IV Liquid (1)</text>
</g>
<!-- 6215314419735287562&#45;&gt;&#45;8429177058128869877 -->
<g id="edge8" class="edge"><title>6215314419735287562&#45;&gt;&#45;8429177058128869877</title>
<path fill="none" stroke="black" stroke-width="1.1503" d="M486.546,-434.799C486.546,-423.163 486.546,-407.548 486.546,-394.237"/>
<polygon fill="black" stroke="black" stroke-width="1.1503" points="490.046,-394.175 486.546,-384.175 483.046,-394.175 490.046,-394.175"/>
<text text-anchor="middle" x="546.046" y="-405.8" font-family="Times New Roman,serif" font-size="14.00">501.46698326678523</text>
</g>
<!-- &#45;5670009864185339888&#45;&gt;4941769122289558835 -->
<g id="edge9" class="edge"><title>&#45;5670009864185339888&#45;&gt;4941769122289558835</title>
<path fill="none" stroke="black" stroke-width="1.04035" d="M96.4137,-123.2C111.248,-135.763 130.462,-151.375 139.546,-156 165.953,-169.444 198.185,-178.277 223.438,-183.706"/>
<polygon fill="black" stroke="black" stroke-width="1.04035" points="222.946,-187.178 233.445,-185.76 224.353,-180.321 222.946,-187.178"/>
<text text-anchor="middle" x="195.546" y="-144.8" font-family="Times New Roman,serif" font-size="14.00">405.1048123168926</text>
</g>
<!-- &#45;5670009864185339888&#45;&gt;6570115252564267433 -->
<g id="edge10" class="edge"><title>&#45;5670009864185339888&#45;&gt;6570115252564267433</title>
<path fill="none" stroke="black" stroke-width="1.21997" d="M34.292,-86.8306C18.1806,-77.8382 5.96012,-66.1779 16.546,-54 40.4348,-26.5185 138.93,-19.9911 204.65,-18.7782"/>
<polygon fill="black" stroke="black" stroke-width="1.21997" points="204.953,-22.2742 214.9,-18.6267 204.849,-15.2749 204.953,-22.2742"/>
<text text-anchor="middle" x="69.546" y="-57.8" font-family="Times New Roman,serif" font-size="14.00">562.531223353262</text>
</g>
<!-- 6570115252564267433&#45;&gt;4941769122289558835 -->
<g id="edge11" class="edge"><title>6570115252564267433&#45;&gt;4941769122289558835</title>
<path fill="none" stroke="black" stroke-width="2.6" d="M315.279,-36.1523C358.548,-54.0524 411.063,-84.8222 388.546,-123 371.137,-152.517 335.811,-170.113 307.466,-179.985"/>
<polygon fill="black" stroke="black" stroke-width="2.6" points="306.185,-176.721 297.772,-183.161 308.364,-183.373 306.185,-176.721"/>
<text text-anchor="middle" x="450.546" y="-101.3" font-family="Times New Roman,serif" font-size="14.00">1772.054816781514</text>
</g>
<!-- 6570115252564267433&#45;&gt;&#45;5670009864185339888 -->
<g id="edge12" class="edge"><title>6570115252564267433&#45;&gt;&#45;5670009864185339888</title>
<path fill="none" stroke="black" stroke-width="1.07474" d="M214.779,-29.6921C192.842,-35.3454 167.277,-43.3569 145.546,-54 141.275,-56.0918 123.886,-68.6969 107.635,-80.7262"/>
<polygon fill="black" stroke="black" stroke-width="1.07474" points="105.257,-78.1329 99.3161,-86.9055 109.431,-83.7523 105.257,-78.1329"/>
<text text-anchor="middle" x="198.546" y="-57.8" font-family="Times New Roman,serif" font-size="14.00">435.241308152288</text>
</g>
<!-- 6570115252564267433&#45;&gt;6570115252564267433 -->
<g id="edge13" class="edge"><title>6570115252564267433&#45;&gt;6570115252564267433</title>
<path fill="none" stroke="black" stroke-width="1.09397" d="M316.33,-25.5746C326.653,-24.7495 334.046,-22.2246 334.046,-18 334.046,-15.3596 331.158,-13.3832 326.472,-12.0707"/>
<polygon fill="black" stroke="black" stroke-width="1.09397" points="326.761,-8.57199 316.33,-10.4254 325.64,-15.4817 326.761,-8.57199"/>
<text text-anchor="middle" x="393.546" y="-14.3" font-family="Times New Roman,serif" font-size="14.00">452.10112488183523</text>
</g>
</g>
</svg>
