<?xml version="1.0" encoding="UTF-8" standalone="no"?>
<!DOCTYPE svg PUBLIC "-//W3C//DTD SVG 1.1//EN"
 "http://www.w3.org/Graphics/SVG/1.1/DTD/svg11.dtd">
<!-- Generated by graphviz version 2.38.0 (20140413.2041)
 -->
<!-- Title: %3 Pages: 1 -->
<svg width="756pt" height="479pt"
 viewBox="0.00 0.00 756.39 479.00" xmlns="http://www.w3.org/2000/svg" xmlns:xlink="http://www.w3.org/1999/xlink">
<g id="graph0" class="graph" transform="scale(1 1) rotate(0) translate(4 475)">
<title>%3</title>
<!-- 3703627156728642698 -->
<g id="node1" class="node"><title>3703627156728642698</title>
<polygon fill="#ffffff" stroke="black" points="550.894,-297 431.894,-297 431.894,-261 550.894,-261 550.894,-297"/>
<text text-anchor="middle" x="491.394" y="-275.3" font-family="Times New Roman,serif" font-size="14.00">Admission NC (1)</text>
</g>
<!-- 3579705282704473787 -->
<g id="node2" class="node"><title>3579705282704473787</title>
<polygon fill="#ffffff" stroke="black" points="297.394,-210 233.394,-210 233.394,-174 297.394,-174 297.394,-210"/>
<text text-anchor="middle" x="265.394" y="-188.3" font-family="Times New Roman,serif" font-size="14.00">CRP (1)</text>
</g>
<!-- 3703627156728642698&#45;&gt;3579705282704473787 -->
<g id="edge1" class="edge"><title>3703627156728642698&#45;&gt;3579705282704473787</title>
<path fill="none" stroke="black" d="M445.931,-260.901C405.411,-245.661 346.59,-223.538 307.216,-208.73"/>
<polygon fill="black" stroke="black" points="308.24,-205.375 297.648,-205.131 305.776,-211.927 308.24,-205.375"/>
<text text-anchor="middle" x="451.894" y="-231.8" font-family="Times New Roman,serif" font-size="14.00">362.60643209489234</text>
</g>
<!-- &#45;755878416217562554 -->
<g id="node9" class="node"><title>&#45;755878416217562554</title>
<polygon fill="#ffffff" stroke="black" points="315.894,-36 214.894,-36 214.894,-0 315.894,-0 315.894,-36"/>
<text text-anchor="middle" x="265.394" y="-14.3" font-family="Times New Roman,serif" font-size="14.00">Leucocytes (1)</text>
</g>
<!-- 3703627156728642698&#45;&gt;&#45;755878416217562554 -->
<g id="edge2" class="edge"><title>3703627156728642698&#45;&gt;&#45;755878416217562554</title>
<path fill="none" stroke="black" stroke-width="1.04788" d="M506.038,-260.905C509.813,-255.518 513.378,-249.317 515.394,-243 536.472,-176.942 559.556,-142.048 517.394,-87 494.265,-56.8023 393.096,-36.9672 326.19,-26.8902"/>
<polygon fill="black" stroke="black" stroke-width="1.04788" points="326.576,-23.4093 316.173,-25.4153 325.556,-30.3346 326.576,-23.4093"/>
<text text-anchor="middle" x="597.394" y="-144.8" font-family="Times New Roman,serif" font-size="14.00">404.9137029733715</text>
</g>
<!-- 8066172473611450852 -->
<g id="node8" class="node"><title>8066172473611450852</title>
<polygon fill="#ffffff" stroke="black" points="119.394,-123 21.3938,-123 21.3938,-87 119.394,-87 119.394,-123"/>
<text text-anchor="middle" x="70.3938" y="-101.3" font-family="Times New Roman,serif" font-size="14.00">LacticAcid (1)</text>
</g>
<!-- 3579705282704473787&#45;&gt;8066172473611450852 -->
<g id="edge3" class="edge"><title>3579705282704473787&#45;&gt;8066172473611450852</title>
<path fill="none" stroke="black" stroke-width="1.30995" d="M232.998,-191.7C169.817,-192.296 33.744,-189.549 4.39385,-156 -4.69053,-145.616 2.31343,-135.99 14.6193,-128.014"/>
<polygon fill="black" stroke="black" stroke-width="1.30995" points="16.4117,-131.021 23.3558,-123.019 12.9373,-124.944 16.4117,-131.021"/>
<text text-anchor="middle" x="60.3938" y="-144.8" font-family="Times New Roman,serif" font-size="14.00">636.5008110912371</text>
</g>
<!-- 3579705282704473787&#45;&gt;&#45;755878416217562554 -->
<g id="edge4" class="edge"><title>3579705282704473787&#45;&gt;&#45;755878416217562554</title>
<path fill="none" stroke="black" stroke-width="2.24221" d="M265.394,-173.879C265.394,-144.001 265.394,-82.1129 265.394,-46.2736"/>
<polygon fill="black" stroke="black" stroke-width="2.24221" points="268.894,-46.0516 265.394,-36.0516 261.894,-46.0516 268.894,-46.0516"/>
<text text-anchor="middle" x="324.894" y="-101.3" font-family="Times New Roman,serif" font-size="14.00">1460.3210660107598</text>
</g>
<!-- &#45;6320656248013813873 -->
<g id="node3" class="node"><title>&#45;6320656248013813873</title>
<polygon fill="#ffffff" stroke="black" points="698.894,-471 573.894,-471 573.894,-435 698.894,-435 698.894,-471"/>
<text text-anchor="middle" x="636.394" y="-449.3" font-family="Times New Roman,serif" font-size="14.00">ER Registration (1)</text>
</g>
<!-- 2377219762996478470 -->
<g id="node5" class="node"><title>2377219762996478470</title>
<polygon fill="#ffffff" stroke="black" points="682.894,-384 589.894,-384 589.894,-348 682.894,-348 682.894,-384"/>
<text text-anchor="middle" x="636.394" y="-362.3" font-family="Times New Roman,serif" font-size="14.00">ER Triage (1)</text>
</g>
<!-- &#45;6320656248013813873&#45;&gt;2377219762996478470 -->
<g id="edge5" class="edge"><title>&#45;6320656248013813873&#45;&gt;2377219762996478470</title>
<path fill="none" stroke="black" stroke-width="1.68794" d="M636.394,-434.799C636.394,-423.163 636.394,-407.548 636.394,-394.237"/>
<polygon fill="black" stroke="black" stroke-width="1.68794" points="639.894,-394.175 636.394,-384.175 632.894,-394.175 639.894,-394.175"/>
<text text-anchor="middle" x="692.394" y="-405.8" font-family="Times New Roman,serif" font-size="14.00">970.5297563017901</text>
</g>
<!-- 7430045975075819265 -->
<g id="node4" class="node"><title>7430045975075819265</title>
<polygon fill="#ffffff" stroke="black" points="703.394,-297 569.394,-297 569.394,-261 703.394,-261 703.394,-297"/>
<text text-anchor="middle" x="636.394" y="-275.3" font-family="Times New Roman,serif" font-size="14.00">ER Sepsis Triage (1)</text>
</g>
<!-- 2377219762996478470&#45;&gt;7430045975075819265 -->
<g id="edge6" class="edge"><title>2377219762996478470&#45;&gt;7430045975075819265</title>
<path fill="none" stroke="black" stroke-width="1.61094" d="M636.394,-347.799C636.394,-336.163 636.394,-320.548 636.394,-307.237"/>
<polygon fill="black" stroke="black" stroke-width="1.61094" points="639.894,-307.175 636.394,-297.175 632.894,-307.175 639.894,-307.175"/>
<text text-anchor="middle" x="692.394" y="-318.8" font-family="Times New Roman,serif" font-size="14.00">902.4807881930255</text>
</g>
<!-- &#45;5705463351445563725 -->
<g id="node6" class="node"><title>&#45;5705463351445563725</title>
<polygon fill="#ffffff" stroke="black" points="548.894,-384 433.894,-384 433.894,-348 548.894,-348 548.894,-384"/>
<text text-anchor="middle" x="491.394" y="-362.3" font-family="Times New Roman,serif" font-size="14.00">IV Antibiotics (1)</text>
</g>
<!-- &#45;5705463351445563725&#45;&gt;3703627156728642698 -->
<g id="edge7" class="edge"><title>&#45;5705463351445563725&#45;&gt;3703627156728642698</title>
<path fill="none" stroke="black" stroke-width="1.13599" d="M491.394,-347.799C491.394,-336.163 491.394,-320.548 491.394,-307.237"/>
<polygon fill="black" stroke="black" stroke-width="1.13599" points="494.894,-307.175 491.394,-297.175 487.894,-307.175 494.894,-307.175"/>
<text text-anchor="middle" x="547.394" y="-318.8" font-family="Times New Roman,serif" font-size="14.00">482.7763513125383</text>
</g>
<!-- &#45;3862139582344886855 -->
<g id="node7" class="node"><title>&#45;3862139582344886855</title>
<polygon fill="#ffffff" stroke="black" points="536.394,-471 446.394,-471 446.394,-435 536.394,-435 536.394,-471"/>
<text text-anchor="middle" x="491.394" y="-449.3" font-family="Times New Roman,serif" font-size="14.00">IV Liquid (1)</text>
</g>
<!-- &#45;3862139582344886855&#45;&gt;&#45;5705463351445563725 -->
<g id="edge8" class="edge"><title>&#45;3862139582344886855&#45;&gt;&#45;5705463351445563725</title>
<path fill="none" stroke="black" stroke-width="1.1554" d="M491.394,-434.799C491.394,-423.163 491.394,-407.548 491.394,-394.237"/>
<polygon fill="black" stroke="black" stroke-width="1.1554" points="494.894,-394.175 491.394,-384.175 487.894,-394.175 494.894,-394.175"/>
<text text-anchor="middle" x="547.394" y="-405.8" font-family="Times New Roman,serif" font-size="14.00">499.9321933292906</text>
</g>
<!-- 8066172473611450852&#45;&gt;3579705282704473787 -->
<g id="edge9" class="edge"><title>8066172473611450852&#45;&gt;3579705282704473787</title>
<path fill="none" stroke="black" stroke-width="1.045" d="M93.156,-123.111C111.261,-136.616 134.363,-153.576 139.394,-156 165.999,-168.819 198.098,-177.647 223.239,-183.231"/>
<polygon fill="black" stroke="black" stroke-width="1.045" points="222.692,-186.693 233.202,-185.356 224.152,-179.847 222.692,-186.693"/>
<text text-anchor="middle" x="195.394" y="-144.8" font-family="Times New Roman,serif" font-size="14.00">402.3731391374124</text>
</g>
<!-- 8066172473611450852&#45;&gt;&#45;755878416217562554 -->
<g id="edge10" class="edge"><title>8066172473611450852&#45;&gt;&#45;755878416217562554</title>
<path fill="none" stroke="black" stroke-width="1.22602" d="M23.3558,-86.981C6.15378,-78.1902 -6.68044,-66.6585 4.39385,-54 29.8413,-24.9123 135.517,-18.9795 204.351,-18.3044"/>
<polygon fill="black" stroke="black" stroke-width="1.22602" points="204.666,-21.8026 214.644,-18.2395 204.622,-14.8027 204.666,-21.8026"/>
<text text-anchor="middle" x="60.3938" y="-57.8" font-family="Times New Roman,serif" font-size="14.00">562.3338120639417</text>
</g>
<!-- &#45;755878416217562554&#45;&gt;3579705282704473787 -->
<g id="edge11" class="edge"><title>&#45;755878416217562554&#45;&gt;3579705282704473787</title>
<path fill="none" stroke="black" stroke-width="2.6" d="M315.127,-36.1523C358.395,-54.0524 410.911,-84.8222 388.394,-123 370.985,-152.517 335.659,-170.113 307.314,-179.985"/>
<polygon fill="black" stroke="black" stroke-width="2.6" points="306.033,-176.721 297.62,-183.161 308.212,-183.373 306.033,-176.721"/>
<text text-anchor="middle" x="453.894" y="-101.3" font-family="Times New Roman,serif" font-size="14.00">1776.4949440426003</text>
</g>
<!-- &#45;755878416217562554&#45;&gt;8066172473611450852 -->
<g id="edge12" class="edge"><title>&#45;755878416217562554&#45;&gt;8066172473611450852</title>
<path fill="none" stroke="black" stroke-width="1.079" d="M214.847,-28.6971C191.214,-34.3104 163.119,-42.5684 139.394,-54 135.11,-56.0643 117.721,-68.6695 101.473,-80.7057"/>
<polygon fill="black" stroke="black" stroke-width="1.079" points="99.0929,-78.114 93.156,-86.8892 103.269,-83.7316 99.0929,-78.114"/>
<text text-anchor="middle" x="195.394" y="-57.8" font-family="Times New Roman,serif" font-size="14.00">432.4181079678884</text>
</g>
<!-- &#45;755878416217562554&#45;&gt;&#45;755878416217562554 -->
<g id="edge13" class="edge"><title>&#45;755878416217562554&#45;&gt;&#45;755878416217562554</title>
<path fill="none" stroke="black" stroke-width="1.10939" d="M316.178,-25.5746C326.501,-24.7495 333.894,-22.2246 333.894,-18 333.894,-15.3596 331.006,-13.3832 326.32,-12.0707"/>
<polygon fill="black" stroke="black" stroke-width="1.10939" points="326.609,-8.57199 316.178,-10.4254 325.488,-15.4817 326.609,-8.57199"/>
<text text-anchor="middle" x="389.894" y="-14.3" font-family="Times New Roman,serif" font-size="14.00">459.2757947927856</text>
</g>
</g>
</svg>
