<?xml version="1.0" encoding="UTF-8" standalone="no"?>
<!DOCTYPE svg PUBLIC "-//W3C//DTD SVG 1.1//EN"
 "http://www.w3.org/Graphics/SVG/1.1/DTD/svg11.dtd">
<!-- Generated by graphviz version 2.38.0 (20140413.2041)
 -->
<!-- Title: %3 Pages: 1 -->
<svg width="763pt" height="479pt"
 viewBox="0.00 0.00 763.41 479.00" xmlns="http://www.w3.org/2000/svg" xmlns:xlink="http://www.w3.org/1999/xlink">
<g id="graph0" class="graph" transform="scale(1 1) rotate(0) translate(4 475)">
<title>%3</title>
<!-- 118450489566830562 -->
<g id="node1" class="node"><title>118450489566830562</title>
<polygon fill="#ffffff" stroke="black" points="557.909,-297 438.909,-297 438.909,-261 557.909,-261 557.909,-297"/>
<text text-anchor="middle" x="498.409" y="-275.3" font-family="Times New Roman,serif" font-size="14.00">Admission NC (1)</text>
</g>
<!-- 4941769122289558835 -->
<g id="node2" class="node"><title>4941769122289558835</title>
<polygon fill="#ffffff" stroke="black" points="304.409,-210 240.409,-210 240.409,-174 304.409,-174 304.409,-210"/>
<text text-anchor="middle" x="272.409" y="-188.3" font-family="Times New Roman,serif" font-size="14.00">CRP (1)</text>
</g>
<!-- 118450489566830562&#45;&gt;4941769122289558835 -->
<g id="edge1" class="edge"><title>118450489566830562&#45;&gt;4941769122289558835</title>
<path fill="none" stroke="black" d="M452.947,-260.901C412.426,-245.661 353.606,-223.538 314.232,-208.73"/>
<polygon fill="black" stroke="black" points="315.255,-205.375 304.663,-205.131 312.791,-211.927 315.255,-205.375"/>
<text text-anchor="middle" x="458.909" y="-231.8" font-family="Times New Roman,serif" font-size="14.00">368.87483932090777</text>
</g>
<!-- 6570115252564267433 -->
<g id="node9" class="node"><title>6570115252564267433</title>
<polygon fill="#ffffff" stroke="black" points="322.909,-36 221.909,-36 221.909,-0 322.909,-0 322.909,-36"/>
<text text-anchor="middle" x="272.409" y="-14.3" font-family="Times New Roman,serif" font-size="14.00">Leucocytes (1)</text>
</g>
<!-- 118450489566830562&#45;&gt;6570115252564267433 -->
<g id="edge2" class="edge"><title>118450489566830562&#45;&gt;6570115252564267433</title>
<path fill="none" stroke="black" stroke-width="1.0468" d="M513.053,-260.905C516.829,-255.518 520.394,-249.317 522.409,-243 543.487,-176.942 566.572,-142.048 524.409,-87 501.28,-56.8023 400.112,-36.9672 333.206,-26.8902"/>
<polygon fill="black" stroke="black" stroke-width="1.0468" points="333.591,-23.4093 323.188,-25.4153 332.572,-30.3346 333.591,-23.4093"/>
<text text-anchor="middle" x="604.409" y="-144.8" font-family="Times New Roman,serif" font-size="14.00">410.1880986996401</text>
</g>
<!-- &#45;5670009864185339888 -->
<g id="node8" class="node"><title>&#45;5670009864185339888</title>
<polygon fill="#ffffff" stroke="black" points="126.409,-123 28.4093,-123 28.4093,-87 126.409,-87 126.409,-123"/>
<text text-anchor="middle" x="77.4093" y="-101.3" font-family="Times New Roman,serif" font-size="14.00">LacticAcid (1)</text>
</g>
<!-- 4941769122289558835&#45;&gt;&#45;5670009864185339888 -->
<g id="edge3" class="edge"><title>4941769122289558835&#45;&gt;&#45;5670009864185339888</title>
<path fill="none" stroke="black" stroke-width="1.29534" d="M240.275,-191.581C178.33,-191.94 45.9725,-188.751 17.4093,-156 8.79222,-146.119 15.243,-136.57 26.609,-128.511"/>
<polygon fill="black" stroke="black" stroke-width="1.29534" points="28.5106,-131.45 35.1383,-123.184 24.8026,-125.513 28.5106,-131.45"/>
<text text-anchor="middle" x="73.4093" y="-144.8" font-family="Times New Roman,serif" font-size="14.00">629.5934532907411</text>
</g>
<!-- 4941769122289558835&#45;&gt;6570115252564267433 -->
<g id="edge4" class="edge"><title>4941769122289558835&#45;&gt;6570115252564267433</title>
<path fill="none" stroke="black" stroke-width="2.22306" d="M272.409,-173.879C272.409,-144.001 272.409,-82.1129 272.409,-46.2736"/>
<polygon fill="black" stroke="black" stroke-width="2.22306" points="275.909,-46.0516 272.409,-36.0516 268.909,-46.0516 275.909,-46.0516"/>
<text text-anchor="middle" x="331.909" y="-101.3" font-family="Times New Roman,serif" font-size="14.00">1448.5483099273417</text>
</g>
<!-- &#45;1744131764726653331 -->
<g id="node3" class="node"><title>&#45;1744131764726653331</title>
<polygon fill="#ffffff" stroke="black" points="705.909,-471 580.909,-471 580.909,-435 705.909,-435 705.909,-471"/>
<text text-anchor="middle" x="643.409" y="-449.3" font-family="Times New Roman,serif" font-size="14.00">ER Registration (1)</text>
</g>
<!-- &#45;8305476247514553090 -->
<g id="node5" class="node"><title>&#45;8305476247514553090</title>
<polygon fill="#ffffff" stroke="black" points="689.909,-384 596.909,-384 596.909,-348 689.909,-348 689.909,-384"/>
<text text-anchor="middle" x="643.409" y="-362.3" font-family="Times New Roman,serif" font-size="14.00">ER Triage (1)</text>
</g>
<!-- &#45;1744131764726653331&#45;&gt;&#45;8305476247514553090 -->
<g id="edge5" class="edge"><title>&#45;1744131764726653331&#45;&gt;&#45;8305476247514553090</title>
<path fill="none" stroke="black" stroke-width="1.68067" d="M643.409,-434.799C643.409,-423.163 643.409,-407.548 643.409,-394.237"/>
<polygon fill="black" stroke="black" stroke-width="1.68067" points="646.909,-394.175 643.409,-384.175 639.909,-394.175 646.909,-394.175"/>
<text text-anchor="middle" x="699.409" y="-405.8" font-family="Times New Roman,serif" font-size="14.00">969.7444112104952</text>
</g>
<!-- 3296544575651183754 -->
<g id="node4" class="node"><title>3296544575651183754</title>
<polygon fill="#ffffff" stroke="black" points="710.409,-297 576.409,-297 576.409,-261 710.409,-261 710.409,-297"/>
<text text-anchor="middle" x="643.409" y="-275.3" font-family="Times New Roman,serif" font-size="14.00">ER Sepsis Triage (1)</text>
</g>
<!-- &#45;8305476247514553090&#45;&gt;3296544575651183754 -->
<g id="edge6" class="edge"><title>&#45;8305476247514553090&#45;&gt;3296544575651183754</title>
<path fill="none" stroke="black" stroke-width="1.60702" d="M643.409,-347.799C643.409,-336.163 643.409,-320.548 643.409,-307.237"/>
<polygon fill="black" stroke="black" stroke-width="1.60702" points="646.909,-307.175 643.409,-297.175 639.909,-307.175 646.909,-307.175"/>
<text text-anchor="middle" x="699.409" y="-318.8" font-family="Times New Roman,serif" font-size="14.00">904.7330593732497</text>
</g>
<!-- &#45;8429177058128869877 -->
<g id="node6" class="node"><title>&#45;8429177058128869877</title>
<polygon fill="#ffffff" stroke="black" points="555.909,-384 440.909,-384 440.909,-348 555.909,-348 555.909,-384"/>
<text text-anchor="middle" x="498.409" y="-362.3" font-family="Times New Roman,serif" font-size="14.00">IV Antibiotics (1)</text>
</g>
<!-- &#45;8429177058128869877&#45;&gt;118450489566830562 -->
<g id="edge7" class="edge"><title>&#45;8429177058128869877&#45;&gt;118450489566830562</title>
<path fill="none" stroke="black" stroke-width="1.13891" d="M498.409,-347.799C498.409,-336.163 498.409,-320.548 498.409,-307.237"/>
<polygon fill="black" stroke="black" stroke-width="1.13891" points="501.909,-307.175 498.409,-297.175 494.909,-307.175 501.909,-307.175"/>
<text text-anchor="middle" x="551.409" y="-318.8" font-family="Times New Roman,serif" font-size="14.00">491.502482049629</text>
</g>
<!-- 6215314419735287562 -->
<g id="node7" class="node"><title>6215314419735287562</title>
<polygon fill="#ffffff" stroke="black" points="543.409,-471 453.409,-471 453.409,-435 543.409,-435 543.409,-471"/>
<text text-anchor="middle" x="498.409" y="-449.3" font-family="Times New Roman,serif" font-size="14.00">IV Liquid (1)</text>
</g>
<!-- 6215314419735287562&#45;&gt;&#45;8429177058128869877 -->
<g id="edge8" class="edge"><title>6215314419735287562&#45;&gt;&#45;8429177058128869877</title>
<path fill="none" stroke="black" stroke-width="1.15234" d="M498.409,-434.799C498.409,-423.163 498.409,-407.548 498.409,-394.237"/>
<polygon fill="black" stroke="black" stroke-width="1.15234" points="501.909,-394.175 498.409,-384.175 494.909,-394.175 501.909,-394.175"/>
<text text-anchor="middle" x="554.409" y="-405.8" font-family="Times New Roman,serif" font-size="14.00">503.3523425319696</text>
</g>
<!-- &#45;5670009864185339888&#45;&gt;4941769122289558835 -->
<g id="edge9" class="edge"><title>&#45;5670009864185339888&#45;&gt;4941769122289558835</title>
<path fill="none" stroke="black" stroke-width="1.04464" d="M102.99,-123.185C124.18,-137.399 151.044,-155.364 152.409,-156 177.257,-167.573 206.798,-176.247 230.352,-182.064"/>
<polygon fill="black" stroke="black" stroke-width="1.04464" points="229.841,-185.541 240.38,-184.459 231.467,-178.732 229.841,-185.541"/>
<text text-anchor="middle" x="205.409" y="-144.8" font-family="Times New Roman,serif" font-size="14.00">408.280505845463</text>
</g>
<!-- &#45;5670009864185339888&#45;&gt;6570115252564267433 -->
<g id="edge10" class="edge"><title>&#45;5670009864185339888&#45;&gt;6570115252564267433</title>
<path fill="none" stroke="black" stroke-width="1.21831" d="M28.182,-88.8198C8.04485,-80.0995 -7.95475,-68.0837 4.40929,-54 30.8168,-23.9195 141.057,-18.3878 211.662,-18.0442"/>
<polygon fill="black" stroke="black" stroke-width="1.21831" points="211.782,-21.5441 221.777,-18.0289 211.772,-14.5441 211.782,-21.5441"/>
<text text-anchor="middle" x="60.4093" y="-57.8" font-family="Times New Roman,serif" font-size="14.00">561.5914011945845</text>
</g>
<!-- 6570115252564267433&#45;&gt;4941769122289558835 -->
<g id="edge11" class="edge"><title>6570115252564267433&#45;&gt;4941769122289558835</title>
<path fill="none" stroke="black" stroke-width="2.6" d="M322.143,-36.1523C365.411,-54.0524 417.927,-84.8222 395.409,-123 378,-152.517 342.674,-170.113 314.329,-179.985"/>
<polygon fill="black" stroke="black" stroke-width="2.6" points="313.048,-176.721 304.635,-183.161 315.228,-183.373 313.048,-176.721"/>
<text text-anchor="middle" x="460.909" y="-101.3" font-family="Times New Roman,serif" font-size="14.00">1781.3015531929116</text>
</g>
<!-- 6570115252564267433&#45;&gt;&#45;5670009864185339888 -->
<g id="edge12" class="edge"><title>6570115252564267433&#45;&gt;&#45;5670009864185339888</title>
<path fill="none" stroke="black" stroke-width="1.07371" d="M221.652,-27.1283C196.059,-32.5064 165.087,-41.0215 139.409,-54 131.949,-57.7709 117.706,-69.1328 104.751,-80.0742"/>
<polygon fill="black" stroke="black" stroke-width="1.07371" points="102.253,-77.6044 96.9233,-86.7609 106.8,-82.9269 102.253,-77.6044"/>
<text text-anchor="middle" x="198.909" y="-57.8" font-family="Times New Roman,serif" font-size="14.00">433.94282647959534</text>
</g>
<!-- 6570115252564267433&#45;&gt;6570115252564267433 -->
<g id="edge13" class="edge"><title>6570115252564267433&#45;&gt;6570115252564267433</title>
<path fill="none" stroke="black" stroke-width="1.10665" d="M323.193,-25.5746C333.517,-24.7495 340.909,-22.2246 340.909,-18 340.909,-15.3596 338.022,-13.3832 333.335,-12.0707"/>
<polygon fill="black" stroke="black" stroke-width="1.10665" points="333.625,-8.57199 323.193,-10.4254 332.504,-15.4817 333.625,-8.57199"/>
<text text-anchor="middle" x="396.909" y="-14.3" font-family="Times New Roman,serif" font-size="14.00">463.0180931509431</text>
</g>
</g>
</svg>
