<?xml version="1.0" encoding="UTF-8" standalone="no"?>
<!DOCTYPE svg PUBLIC "-//W3C//DTD SVG 1.1//EN"
 "http://www.w3.org/Graphics/SVG/1.1/DTD/svg11.dtd">
<!-- Generated by graphviz version 2.38.0 (20140413.2041)
 -->
<!-- Title: %3 Pages: 1 -->
<svg width="752pt" height="479pt"
 viewBox="0.00 0.00 752.16 479.00" xmlns="http://www.w3.org/2000/svg" xmlns:xlink="http://www.w3.org/1999/xlink">
<g id="graph0" class="graph" transform="scale(1 1) rotate(0) translate(4 475)">
<title>%3</title>
<!-- 118450489566830562 -->
<g id="node1" class="node"><title>118450489566830562</title>
<polygon fill="#ffffff" stroke="black" points="546.662,-297 427.662,-297 427.662,-261 546.662,-261 546.662,-297"/>
<text text-anchor="middle" x="487.162" y="-275.3" font-family="Times New Roman,serif" font-size="14.00">Admission NC (1)</text>
</g>
<!-- 4941769122289558835 -->
<g id="node2" class="node"><title>4941769122289558835</title>
<polygon fill="#ffffff" stroke="black" points="298.162,-210 234.162,-210 234.162,-174 298.162,-174 298.162,-210"/>
<text text-anchor="middle" x="266.162" y="-188.3" font-family="Times New Roman,serif" font-size="14.00">CRP (1)</text>
</g>
<!-- 118450489566830562&#45;&gt;4941769122289558835 -->
<g id="edge1" class="edge"><title>118450489566830562&#45;&gt;4941769122289558835</title>
<path fill="none" stroke="black" d="M442.705,-260.901C403.314,-245.751 346.236,-223.798 307.739,-208.991"/>
<polygon fill="black" stroke="black" points="308.963,-205.712 298.374,-205.389 306.451,-212.246 308.963,-205.712"/>
<text text-anchor="middle" x="446.162" y="-231.8" font-family="Times New Roman,serif" font-size="14.00">370.2278159067462</text>
</g>
<!-- 6570115252564267433 -->
<g id="node9" class="node"><title>6570115252564267433</title>
<polygon fill="#ffffff" stroke="black" points="316.662,-36 215.662,-36 215.662,-0 316.662,-0 316.662,-36"/>
<text text-anchor="middle" x="266.162" y="-14.3" font-family="Times New Roman,serif" font-size="14.00">Leucocytes (1)</text>
</g>
<!-- 118450489566830562&#45;&gt;6570115252564267433 -->
<g id="edge2" class="edge"><title>118450489566830562&#45;&gt;6570115252564267433</title>
<path fill="none" stroke="black" stroke-width="1.04357" d="M498.479,-260.861C501.538,-255.376 504.469,-249.131 506.162,-243 524.631,-176.135 553.145,-142.222 511.162,-87 488.941,-57.7718 392.148,-37.8161 327.08,-27.4237"/>
<polygon fill="black" stroke="black" stroke-width="1.04357" points="327.346,-23.9229 316.926,-25.838 326.266,-30.8391 327.346,-23.9229"/>
<text text-anchor="middle" x="586.162" y="-144.8" font-family="Times New Roman,serif" font-size="14.00">408.636632396328</text>
</g>
<!-- &#45;5670009864185339888 -->
<g id="node8" class="node"><title>&#45;5670009864185339888</title>
<polygon fill="#ffffff" stroke="black" points="117.162,-123 19.1621,-123 19.1621,-87 117.162,-87 117.162,-123"/>
<text text-anchor="middle" x="68.1621" y="-101.3" font-family="Times New Roman,serif" font-size="14.00">LacticAcid (1)</text>
</g>
<!-- 4941769122289558835&#45;&gt;&#45;5670009864185339888 -->
<g id="edge3" class="edge"><title>4941769122289558835&#45;&gt;&#45;5670009864185339888</title>
<path fill="none" stroke="black" stroke-width="1.29091" d="M233.766,-191.7C170.585,-192.296 34.5122,-189.549 5.16208,-156 -3.65285,-145.924 2.97113,-136.382 14.7063,-128.388"/>
<polygon fill="black" stroke="black" stroke-width="1.29091" points="16.737,-131.252 23.5203,-123.113 13.1422,-125.245 16.737,-131.252"/>
<text text-anchor="middle" x="61.1621" y="-144.8" font-family="Times New Roman,serif" font-size="14.00">626.6731804600975</text>
</g>
<!-- 4941769122289558835&#45;&gt;6570115252564267433 -->
<g id="edge4" class="edge"><title>4941769122289558835&#45;&gt;6570115252564267433</title>
<path fill="none" stroke="black" stroke-width="2.22158" d="M266.162,-173.879C266.162,-144.001 266.162,-82.1129 266.162,-46.2736"/>
<polygon fill="black" stroke="black" stroke-width="2.22158" points="269.662,-46.0516 266.162,-36.0516 262.662,-46.0516 269.662,-46.0516"/>
<text text-anchor="middle" x="325.662" y="-101.3" font-family="Times New Roman,serif" font-size="14.00">1447.0814747676966</text>
</g>
<!-- &#45;1744131764726653331 -->
<g id="node3" class="node"><title>&#45;1744131764726653331</title>
<polygon fill="#ffffff" stroke="black" points="694.662,-471 569.662,-471 569.662,-435 694.662,-435 694.662,-471"/>
<text text-anchor="middle" x="632.162" y="-449.3" font-family="Times New Roman,serif" font-size="14.00">ER Registration (1)</text>
</g>
<!-- &#45;8305476247514553090 -->
<g id="node5" class="node"><title>&#45;8305476247514553090</title>
<polygon fill="#ffffff" stroke="black" points="678.662,-384 585.662,-384 585.662,-348 678.662,-348 678.662,-384"/>
<text text-anchor="middle" x="632.162" y="-362.3" font-family="Times New Roman,serif" font-size="14.00">ER Triage (1)</text>
</g>
<!-- &#45;1744131764726653331&#45;&gt;&#45;8305476247514553090 -->
<g id="edge5" class="edge"><title>&#45;1744131764726653331&#45;&gt;&#45;8305476247514553090</title>
<path fill="none" stroke="black" stroke-width="1.68272" d="M632.162,-434.799C632.162,-423.163 632.162,-407.548 632.162,-394.237"/>
<polygon fill="black" stroke="black" stroke-width="1.68272" points="635.662,-394.175 632.162,-384.175 628.662,-394.175 635.662,-394.175"/>
<text text-anchor="middle" x="688.162" y="-405.8" font-family="Times New Roman,serif" font-size="14.00">972.0673707083223</text>
</g>
<!-- 3296544575651183754 -->
<g id="node4" class="node"><title>3296544575651183754</title>
<polygon fill="#ffffff" stroke="black" points="699.162,-297 565.162,-297 565.162,-261 699.162,-261 699.162,-297"/>
<text text-anchor="middle" x="632.162" y="-275.3" font-family="Times New Roman,serif" font-size="14.00">ER Sepsis Triage (1)</text>
</g>
<!-- &#45;8305476247514553090&#45;&gt;3296544575651183754 -->
<g id="edge6" class="edge"><title>&#45;8305476247514553090&#45;&gt;3296544575651183754</title>
<path fill="none" stroke="black" stroke-width="1.61035" d="M632.162,-347.799C632.162,-336.163 632.162,-320.548 632.162,-307.237"/>
<polygon fill="black" stroke="black" stroke-width="1.61035" points="635.662,-307.175 632.162,-297.175 628.662,-307.175 635.662,-307.175"/>
<text text-anchor="middle" x="688.162" y="-318.8" font-family="Times New Roman,serif" font-size="14.00">908.2724737613887</text>
</g>
<!-- &#45;8429177058128869877 -->
<g id="node6" class="node"><title>&#45;8429177058128869877</title>
<polygon fill="#ffffff" stroke="black" points="544.662,-384 429.662,-384 429.662,-348 544.662,-348 544.662,-384"/>
<text text-anchor="middle" x="487.162" y="-362.3" font-family="Times New Roman,serif" font-size="14.00">IV Antibiotics (1)</text>
</g>
<!-- &#45;8429177058128869877&#45;&gt;118450489566830562 -->
<g id="edge7" class="edge"><title>&#45;8429177058128869877&#45;&gt;118450489566830562</title>
<path fill="none" stroke="black" stroke-width="1.13335" d="M487.162,-347.799C487.162,-336.163 487.162,-320.548 487.162,-307.237"/>
<polygon fill="black" stroke="black" stroke-width="1.13335" points="490.662,-307.175 487.162,-297.175 483.662,-307.175 490.662,-307.175"/>
<text text-anchor="middle" x="546.662" y="-318.8" font-family="Times New Roman,serif" font-size="14.00">487.77855124675096</text>
</g>
<!-- 6215314419735287562 -->
<g id="node7" class="node"><title>6215314419735287562</title>
<polygon fill="#ffffff" stroke="black" points="532.162,-471 442.162,-471 442.162,-435 532.162,-435 532.162,-471"/>
<text text-anchor="middle" x="487.162" y="-449.3" font-family="Times New Roman,serif" font-size="14.00">IV Liquid (1)</text>
</g>
<!-- 6215314419735287562&#45;&gt;&#45;8429177058128869877 -->
<g id="edge8" class="edge"><title>6215314419735287562&#45;&gt;&#45;8429177058128869877</title>
<path fill="none" stroke="black" stroke-width="1.14974" d="M487.162,-434.799C487.162,-423.163 487.162,-407.548 487.162,-394.237"/>
<polygon fill="black" stroke="black" stroke-width="1.14974" points="490.662,-394.175 487.162,-384.175 483.662,-394.175 490.662,-394.175"/>
<text text-anchor="middle" x="546.662" y="-405.8" font-family="Times New Roman,serif" font-size="14.00">502.22680067852446</text>
</g>
<!-- &#45;5670009864185339888&#45;&gt;4941769122289558835 -->
<g id="edge9" class="edge"><title>&#45;5670009864185339888&#45;&gt;4941769122289558835</title>
<path fill="none" stroke="black" stroke-width="1.03836" d="M91.9389,-123.102C110.846,-136.601 134.962,-153.558 140.162,-156 166.894,-168.551 198.991,-177.384 224.1,-183.036"/>
<polygon fill="black" stroke="black" stroke-width="1.03836" points="223.533,-186.495 234.047,-185.193 225.016,-179.654 223.533,-186.495"/>
<text text-anchor="middle" x="196.162" y="-144.8" font-family="Times New Roman,serif" font-size="14.00">404.0475566604227</text>
</g>
<!-- &#45;5670009864185339888&#45;&gt;6570115252564267433 -->
<g id="edge10" class="edge"><title>&#45;5670009864185339888&#45;&gt;6570115252564267433</title>
<path fill="none" stroke="black" stroke-width="1.21977" d="M22.8667,-86.9903C5.94535,-78.1208 -6.79619,-66.5195 4.16208,-54 29.7486,-24.7682 136.09,-18.893 205.178,-18.2661"/>
<polygon fill="black" stroke="black" stroke-width="1.21977" points="205.527,-21.7643 215.508,-18.2085 205.488,-14.7644 205.527,-21.7643"/>
<text text-anchor="middle" x="57.1621" y="-57.8" font-family="Times New Roman,serif" font-size="14.00">563.962745861305</text>
</g>
<!-- 6570115252564267433&#45;&gt;4941769122289558835 -->
<g id="edge11" class="edge"><title>6570115252564267433&#45;&gt;4941769122289558835</title>
<path fill="none" stroke="black" stroke-width="2.6" d="M315.895,-36.1523C359.164,-54.0524 411.679,-84.8222 389.162,-123 371.753,-152.517 336.427,-170.113 308.082,-179.985"/>
<polygon fill="black" stroke="black" stroke-width="2.6" points="306.801,-176.721 298.388,-183.161 308.981,-183.373 306.801,-176.721"/>
<text text-anchor="middle" x="451.162" y="-101.3" font-family="Times New Roman,serif" font-size="14.00">1780.673379531943</text>
</g>
<!-- 6570115252564267433&#45;&gt;&#45;5670009864185339888 -->
<g id="edge12" class="edge"><title>6570115252564267433&#45;&gt;&#45;5670009864185339888</title>
<path fill="none" stroke="black" stroke-width="1.07449" d="M215.529,-27.3769C189.968,-32.8194 158.987,-41.3172 133.162,-54 125.364,-57.8298 110.227,-69.3723 96.5223,-80.4029"/>
<polygon fill="black" stroke="black" stroke-width="1.07449" points="94.235,-77.7517 88.6846,-86.7763 98.6514,-83.1828 94.235,-77.7517"/>
<text text-anchor="middle" x="192.662" y="-57.8" font-family="Times New Roman,serif" font-size="14.00">435.89342886955257</text>
</g>
<!-- 6570115252564267433&#45;&gt;6570115252564267433 -->
<g id="edge13" class="edge"><title>6570115252564267433&#45;&gt;6570115252564267433</title>
<path fill="none" stroke="black" stroke-width="1.10037" d="M316.946,-25.5746C327.27,-24.7495 334.662,-22.2246 334.662,-18 334.662,-15.3596 331.774,-13.3832 327.088,-12.0707"/>
<polygon fill="black" stroke="black" stroke-width="1.10037" points="327.377,-8.57199 316.946,-10.4254 326.256,-15.4817 327.377,-8.57199"/>
<text text-anchor="middle" x="394.162" y="-14.3" font-family="Times New Roman,serif" font-size="14.00">458.70849143600293</text>
</g>
</g>
</svg>
