<?xml version="1.0" encoding="UTF-8" standalone="no"?>
<!DOCTYPE svg PUBLIC "-//W3C//DTD SVG 1.1//EN"
 "http://www.w3.org/Graphics/SVG/1.1/DTD/svg11.dtd">
<!-- Generated by graphviz version 2.38.0 (20140413.2041)
 -->
<!-- Title: %3 Pages: 1 -->
<svg width="758pt" height="479pt"
 viewBox="0.00 0.00 758.49 479.00" xmlns="http://www.w3.org/2000/svg" xmlns:xlink="http://www.w3.org/1999/xlink">
<g id="graph0" class="graph" transform="scale(1 1) rotate(0) translate(4 475)">
<title>%3</title>
<!-- 9118780525858573852 -->
<g id="node1" class="node"><title>9118780525858573852</title>
<polygon fill="#ffffff" stroke="black" points="552.992,-297 433.992,-297 433.992,-261 552.992,-261 552.992,-297"/>
<text text-anchor="middle" x="493.492" y="-275.3" font-family="Times New Roman,serif" font-size="14.00">Admission NC (1)</text>
</g>
<!-- 8794229938327540079 -->
<g id="node2" class="node"><title>8794229938327540079</title>
<polygon fill="#ffffff" stroke="black" points="304.492,-210 240.492,-210 240.492,-174 304.492,-174 304.492,-210"/>
<text text-anchor="middle" x="272.492" y="-188.3" font-family="Times New Roman,serif" font-size="14.00">CRP (1)</text>
</g>
<!-- 9118780525858573852&#45;&gt;8794229938327540079 -->
<g id="edge1" class="edge"><title>9118780525858573852&#45;&gt;8794229938327540079</title>
<path fill="none" stroke="black" d="M449.035,-260.901C409.644,-245.751 352.566,-223.798 314.069,-208.991"/>
<polygon fill="black" stroke="black" points="315.294,-205.712 304.704,-205.389 312.781,-212.246 315.294,-205.712"/>
<text text-anchor="middle" x="455.992" y="-231.8" font-family="Times New Roman,serif" font-size="14.00">369.03710189744595</text>
</g>
<!-- &#45;4990305070490083274 -->
<g id="node9" class="node"><title>&#45;4990305070490083274</title>
<polygon fill="#ffffff" stroke="black" points="322.992,-36 221.992,-36 221.992,-0 322.992,-0 322.992,-36"/>
<text text-anchor="middle" x="272.492" y="-14.3" font-family="Times New Roman,serif" font-size="14.00">Leucocytes (1)</text>
</g>
<!-- 9118780525858573852&#45;&gt;&#45;4990305070490083274 -->
<g id="edge2" class="edge"><title>9118780525858573852&#45;&gt;&#45;4990305070490083274</title>
<path fill="none" stroke="black" stroke-width="1.04417" d="M509.685,-260.735C513.674,-255.436 517.4,-249.324 519.492,-243 533.927,-199.363 650.429,-259.309 517.492,-87 495.065,-57.9301 398.333,-37.9269 333.334,-27.482"/>
<polygon fill="black" stroke="black" stroke-width="1.04417" points="333.613,-23.9829 323.191,-25.8877 332.526,-30.898 333.613,-23.9829"/>
<text text-anchor="middle" x="623.992" y="-144.8" font-family="Times New Roman,serif" font-size="14.00">407.93716100602813</text>
</g>
<!-- 5659693541288529527 -->
<g id="node8" class="node"><title>5659693541288529527</title>
<polygon fill="#ffffff" stroke="black" points="122.492,-123 24.4923,-123 24.4923,-87 122.492,-87 122.492,-123"/>
<text text-anchor="middle" x="73.4923" y="-101.3" font-family="Times New Roman,serif" font-size="14.00">LacticAcid (1)</text>
</g>
<!-- 8794229938327540079&#45;&gt;5659693541288529527 -->
<g id="edge3" class="edge"><title>8794229938327540079&#45;&gt;5659693541288529527</title>
<path fill="none" stroke="black" stroke-width="1.29559" d="M240.227,-191.828C175.81,-192.715 34.8298,-190.557 4.49226,-156 -4.87497,-145.33 2.4799,-135.633 15.335,-127.678"/>
<polygon fill="black" stroke="black" stroke-width="1.29559" points="17.3486,-130.567 24.4564,-122.71 14.0004,-124.42 17.3486,-130.567"/>
<text text-anchor="middle" x="60.4923" y="-144.8" font-family="Times New Roman,serif" font-size="14.00">629.3584191930273</text>
</g>
<!-- 8794229938327540079&#45;&gt;&#45;4990305070490083274 -->
<g id="edge4" class="edge"><title>8794229938327540079&#45;&gt;&#45;4990305070490083274</title>
<path fill="none" stroke="black" stroke-width="2.22157" d="M272.492,-173.879C272.492,-144.001 272.492,-82.1129 272.492,-46.2736"/>
<polygon fill="black" stroke="black" stroke-width="2.22157" points="275.992,-46.0516 272.492,-36.0516 268.992,-46.0516 275.992,-46.0516"/>
<text text-anchor="middle" x="328.492" y="-101.3" font-family="Times New Roman,serif" font-size="14.00">1444.843910272338</text>
</g>
<!-- 4941573644585563234 -->
<g id="node3" class="node"><title>4941573644585563234</title>
<polygon fill="#ffffff" stroke="black" points="700.992,-471 575.992,-471 575.992,-435 700.992,-435 700.992,-471"/>
<text text-anchor="middle" x="638.492" y="-449.3" font-family="Times New Roman,serif" font-size="14.00">ER Registration (1)</text>
</g>
<!-- 7781181950460006610 -->
<g id="node5" class="node"><title>7781181950460006610</title>
<polygon fill="#ffffff" stroke="black" points="684.992,-384 591.992,-384 591.992,-348 684.992,-348 684.992,-384"/>
<text text-anchor="middle" x="638.492" y="-362.3" font-family="Times New Roman,serif" font-size="14.00">ER Triage (1)</text>
</g>
<!-- 4941573644585563234&#45;&gt;7781181950460006610 -->
<g id="edge5" class="edge"><title>4941573644585563234&#45;&gt;7781181950460006610</title>
<path fill="none" stroke="black" stroke-width="1.68337" d="M638.492,-434.799C638.492,-423.163 638.492,-407.548 638.492,-394.237"/>
<polygon fill="black" stroke="black" stroke-width="1.68337" points="641.992,-394.175 638.492,-384.175 634.992,-394.175 641.992,-394.175"/>
<text text-anchor="middle" x="687.992" y="-405.8" font-family="Times New Roman,serif" font-size="14.00">970.86087466344</text>
</g>
<!-- &#45;1916228938975785919 -->
<g id="node4" class="node"><title>&#45;1916228938975785919</title>
<polygon fill="#ffffff" stroke="black" points="705.492,-297 571.492,-297 571.492,-261 705.492,-261 705.492,-297"/>
<text text-anchor="middle" x="638.492" y="-275.3" font-family="Times New Roman,serif" font-size="14.00">ER Sepsis Triage (1)</text>
</g>
<!-- 7781181950460006610&#45;&gt;&#45;1916228938975785919 -->
<g id="edge6" class="edge"><title>7781181950460006610&#45;&gt;&#45;1916228938975785919</title>
<path fill="none" stroke="black" stroke-width="1.60811" d="M638.492,-347.799C638.492,-336.163 638.492,-320.548 638.492,-307.237"/>
<polygon fill="black" stroke="black" stroke-width="1.60811" points="641.992,-307.175 638.492,-297.175 634.992,-307.175 641.992,-307.175"/>
<text text-anchor="middle" x="694.492" y="-318.8" font-family="Times New Roman,serif" font-size="14.00">904.5793961100677</text>
</g>
<!-- 1341266047991071662 -->
<g id="node6" class="node"><title>1341266047991071662</title>
<polygon fill="#ffffff" stroke="black" points="550.992,-384 435.992,-384 435.992,-348 550.992,-348 550.992,-384"/>
<text text-anchor="middle" x="493.492" y="-362.3" font-family="Times New Roman,serif" font-size="14.00">IV Antibiotics (1)</text>
</g>
<!-- 1341266047991071662&#45;&gt;9118780525858573852 -->
<g id="edge7" class="edge"><title>1341266047991071662&#45;&gt;9118780525858573852</title>
<path fill="none" stroke="black" stroke-width="1.13604" d="M493.492,-347.799C493.492,-336.163 493.492,-320.548 493.492,-307.237"/>
<polygon fill="black" stroke="black" stroke-width="1.13604" points="496.992,-307.175 493.492,-297.175 489.992,-307.175 496.992,-307.175"/>
<text text-anchor="middle" x="552.992" y="-318.8" font-family="Times New Roman,serif" font-size="14.00">488.83981761386326</text>
</g>
<!-- 1513237216211266658 -->
<g id="node7" class="node"><title>1513237216211266658</title>
<polygon fill="#ffffff" stroke="black" points="538.492,-471 448.492,-471 448.492,-435 538.492,-435 538.492,-471"/>
<text text-anchor="middle" x="493.492" y="-449.3" font-family="Times New Roman,serif" font-size="14.00">IV Liquid (1)</text>
</g>
<!-- 1513237216211266658&#45;&gt;1341266047991071662 -->
<g id="edge8" class="edge"><title>1513237216211266658&#45;&gt;1341266047991071662</title>
<path fill="none" stroke="black" stroke-width="1.14968" d="M493.492,-434.799C493.492,-423.163 493.492,-407.548 493.492,-394.237"/>
<polygon fill="black" stroke="black" stroke-width="1.14968" points="496.992,-394.175 493.492,-384.175 489.992,-394.175 496.992,-394.175"/>
<text text-anchor="middle" x="552.992" y="-405.8" font-family="Times New Roman,serif" font-size="14.00">500.86040085025724</text>
</g>
<!-- 5659693541288529527&#45;&gt;8794229938327540079 -->
<g id="edge9" class="edge"><title>5659693541288529527&#45;&gt;8794229938327540079</title>
<path fill="none" stroke="black" stroke-width="1.03991" d="M94.3505,-123.218C109.916,-135.792 130.056,-151.409 139.492,-156 168.335,-170.033 203.531,-178.976 230.47,-184.307"/>
<polygon fill="black" stroke="black" stroke-width="1.03991" points="229.884,-187.758 240.36,-186.176 231.184,-180.88 229.884,-187.758"/>
<text text-anchor="middle" x="198.992" y="-144.8" font-family="Times New Roman,serif" font-size="14.00">404.18465467864263</text>
</g>
<!-- 5659693541288529527&#45;&gt;&#45;4990305070490083274 -->
<g id="edge10" class="edge"><title>5659693541288529527&#45;&gt;&#45;4990305070490083274</title>
<path fill="none" stroke="black" stroke-width="1.22275" d="M28.8477,-86.8848C12.1774,-77.9902 -0.359999,-66.3984 10.4923,-54 36.0787,-24.7682 142.42,-18.893 211.508,-18.2661"/>
<polygon fill="black" stroke="black" stroke-width="1.22275" points="211.857,-21.7643 221.838,-18.2085 211.818,-14.7644 211.857,-21.7643"/>
<text text-anchor="middle" x="63.4923" y="-57.8" font-family="Times New Roman,serif" font-size="14.00">565.203004946081</text>
</g>
<!-- &#45;4990305070490083274&#45;&gt;8794229938327540079 -->
<g id="edge11" class="edge"><title>&#45;4990305070490083274&#45;&gt;8794229938327540079</title>
<path fill="none" stroke="black" stroke-width="2.6" d="M318.272,-36.0649C359.315,-54.2127 410.006,-85.4502 388.492,-123 372.575,-150.781 340.416,-168.313 313.988,-178.604"/>
<polygon fill="black" stroke="black" stroke-width="2.6" points="312.73,-175.337 304.552,-182.073 315.145,-181.907 312.73,-175.337"/>
<text text-anchor="middle" x="453.992" y="-101.3" font-family="Times New Roman,serif" font-size="14.00">1778.1134307276882</text>
</g>
<!-- &#45;4990305070490083274&#45;&gt;5659693541288529527 -->
<g id="edge12" class="edge"><title>&#45;4990305070490083274&#45;&gt;5659693541288529527</title>
<path fill="none" stroke="black" stroke-width="1.07535" d="M221.898,-27.4568C196.347,-32.9202 165.364,-41.4124 139.492,-54 131.604,-57.8379 116.236,-69.3808 102.314,-80.4096"/>
<polygon fill="black" stroke="black" stroke-width="1.07535" points="99.9717,-77.801 94.3505,-86.7817 104.345,-83.2665 99.9717,-77.801"/>
<text text-anchor="middle" x="198.992" y="-57.8" font-family="Times New Roman,serif" font-size="14.00">435.39371394275736</text>
</g>
<!-- &#45;4990305070490083274&#45;&gt;&#45;4990305070490083274 -->
<g id="edge13" class="edge"><title>&#45;4990305070490083274&#45;&gt;&#45;4990305070490083274</title>
<path fill="none" stroke="black" stroke-width="1.10047" d="M323.276,-25.5746C333.6,-24.7495 340.992,-22.2246 340.992,-18 340.992,-15.3596 338.105,-13.3832 333.418,-12.0707"/>
<polygon fill="black" stroke="black" stroke-width="1.10047" points="333.708,-8.57199 323.276,-10.4254 332.587,-15.4817 333.708,-8.57199"/>
<text text-anchor="middle" x="396.992" y="-14.3" font-family="Times New Roman,serif" font-size="14.00">457.5149585081819</text>
</g>
</g>
</svg>
