<?xml version="1.0" encoding="UTF-8" standalone="no"?>
<!DOCTYPE svg PUBLIC "-//W3C//DTD SVG 1.1//EN"
 "http://www.w3.org/Graphics/SVG/1.1/DTD/svg11.dtd">
<!-- Generated by graphviz version 2.38.0 (20140413.2041)
 -->
<!-- Title: %3 Pages: 1 -->
<svg width="750pt" height="479pt"
 viewBox="0.00 0.00 750.38 479.00" xmlns="http://www.w3.org/2000/svg" xmlns:xlink="http://www.w3.org/1999/xlink">
<g id="graph0" class="graph" transform="scale(1 1) rotate(0) translate(4 475)">
<title>%3</title>
<!-- 118450489566830562 -->
<g id="node1" class="node"><title>118450489566830562</title>
<polygon fill="#ffffff" stroke="black" points="544.881,-297 425.881,-297 425.881,-261 544.881,-261 544.881,-297"/>
<text text-anchor="middle" x="485.381" y="-275.3" font-family="Times New Roman,serif" font-size="14.00">Admission NC (1)</text>
</g>
<!-- 4941769122289558835 -->
<g id="node2" class="node"><title>4941769122289558835</title>
<polygon fill="#ffffff" stroke="black" points="291.381,-210 227.381,-210 227.381,-174 291.381,-174 291.381,-210"/>
<text text-anchor="middle" x="259.381" y="-188.3" font-family="Times New Roman,serif" font-size="14.00">CRP (1)</text>
</g>
<!-- 118450489566830562&#45;&gt;4941769122289558835 -->
<g id="edge1" class="edge"><title>118450489566830562&#45;&gt;4941769122289558835</title>
<path fill="none" stroke="black" d="M439.919,-260.901C399.398,-245.661 340.578,-223.538 301.204,-208.73"/>
<polygon fill="black" stroke="black" points="302.227,-205.375 291.635,-205.131 299.763,-211.927 302.227,-205.375"/>
<text text-anchor="middle" x="442.381" y="-231.8" font-family="Times New Roman,serif" font-size="14.00">370.9491793189898</text>
</g>
<!-- 6570115252564267433 -->
<g id="node9" class="node"><title>6570115252564267433</title>
<polygon fill="#ffffff" stroke="black" points="309.881,-36 208.881,-36 208.881,-0 309.881,-0 309.881,-36"/>
<text text-anchor="middle" x="259.381" y="-14.3" font-family="Times New Roman,serif" font-size="14.00">Leucocytes (1)</text>
</g>
<!-- 118450489566830562&#45;&gt;6570115252564267433 -->
<g id="edge2" class="edge"><title>118450489566830562&#45;&gt;6570115252564267433</title>
<path fill="none" stroke="black" stroke-width="1.04218" d="M495.13,-260.857C514.274,-224.662 551.571,-139.472 511.381,-87 488.252,-56.8023 387.084,-36.9672 320.178,-26.8902"/>
<polygon fill="black" stroke="black" stroke-width="1.04218" points="320.563,-23.4093 310.16,-25.4153 319.544,-30.3346 320.563,-23.4093"/>
<text text-anchor="middle" x="585.381" y="-144.8" font-family="Times New Roman,serif" font-size="14.00">408.1299720646988</text>
</g>
<!-- &#45;5670009864185339888 -->
<g id="node8" class="node"><title>&#45;5670009864185339888</title>
<polygon fill="#ffffff" stroke="black" points="119.381,-123 21.3813,-123 21.3813,-87 119.381,-87 119.381,-123"/>
<text text-anchor="middle" x="70.3813" y="-101.3" font-family="Times New Roman,serif" font-size="14.00">LacticAcid (1)</text>
</g>
<!-- 4941769122289558835&#45;&gt;&#45;5670009864185339888 -->
<g id="edge3" class="edge"><title>4941769122289558835&#45;&gt;&#45;5670009864185339888</title>
<path fill="none" stroke="black" stroke-width="1.29418" d="M227.247,-191.581C165.302,-191.94 32.9445,-188.751 4.38131,-156 -4.68697,-145.602 2.32102,-135.973 14.6256,-127.997"/>
<polygon fill="black" stroke="black" stroke-width="1.29418" points="16.4162,-131.005 23.3606,-123.004 12.942,-124.928 16.4162,-131.005"/>
<text text-anchor="middle" x="60.3813" y="-144.8" font-family="Times New Roman,serif" font-size="14.00">630.2487460560644</text>
</g>
<!-- 4941769122289558835&#45;&gt;6570115252564267433 -->
<g id="edge4" class="edge"><title>4941769122289558835&#45;&gt;6570115252564267433</title>
<path fill="none" stroke="black" stroke-width="2.21826" d="M259.381,-173.879C259.381,-144.001 259.381,-82.1129 259.381,-46.2736"/>
<polygon fill="black" stroke="black" stroke-width="2.21826" points="262.881,-46.0516 259.381,-36.0516 255.881,-46.0516 262.881,-46.0516"/>
<text text-anchor="middle" x="318.881" y="-101.3" font-family="Times New Roman,serif" font-size="14.00">1444.7603249471767</text>
</g>
<!-- &#45;1744131764726653331 -->
<g id="node3" class="node"><title>&#45;1744131764726653331</title>
<polygon fill="#ffffff" stroke="black" points="692.881,-471 567.881,-471 567.881,-435 692.881,-435 692.881,-471"/>
<text text-anchor="middle" x="630.381" y="-449.3" font-family="Times New Roman,serif" font-size="14.00">ER Registration (1)</text>
</g>
<!-- &#45;8305476247514553090 -->
<g id="node5" class="node"><title>&#45;8305476247514553090</title>
<polygon fill="#ffffff" stroke="black" points="676.881,-384 583.881,-384 583.881,-348 676.881,-348 676.881,-384"/>
<text text-anchor="middle" x="630.381" y="-362.3" font-family="Times New Roman,serif" font-size="14.00">ER Triage (1)</text>
</g>
<!-- &#45;1744131764726653331&#45;&gt;&#45;8305476247514553090 -->
<g id="edge5" class="edge"><title>&#45;1744131764726653331&#45;&gt;&#45;8305476247514553090</title>
<path fill="none" stroke="black" stroke-width="1.68217" d="M630.381,-434.799C630.381,-423.163 630.381,-407.548 630.381,-394.237"/>
<polygon fill="black" stroke="black" stroke-width="1.68217" points="633.881,-394.175 630.381,-384.175 626.881,-394.175 633.881,-394.175"/>
<text text-anchor="middle" x="686.381" y="-405.8" font-family="Times New Roman,serif" font-size="14.00">972.2341900434744</text>
</g>
<!-- 3296544575651183754 -->
<g id="node4" class="node"><title>3296544575651183754</title>
<polygon fill="#ffffff" stroke="black" points="697.381,-297 563.381,-297 563.381,-261 697.381,-261 697.381,-297"/>
<text text-anchor="middle" x="630.381" y="-275.3" font-family="Times New Roman,serif" font-size="14.00">ER Sepsis Triage (1)</text>
</g>
<!-- &#45;8305476247514553090&#45;&gt;3296544575651183754 -->
<g id="edge6" class="edge"><title>&#45;8305476247514553090&#45;&gt;3296544575651183754</title>
<path fill="none" stroke="black" stroke-width="1.60687" d="M630.381,-347.799C630.381,-336.163 630.381,-320.548 630.381,-307.237"/>
<polygon fill="black" stroke="black" stroke-width="1.60687" points="633.881,-307.175 630.381,-297.175 626.881,-307.175 633.881,-307.175"/>
<text text-anchor="middle" x="686.381" y="-318.8" font-family="Times New Roman,serif" font-size="14.00">905.8620576615051</text>
</g>
<!-- &#45;8429177058128869877 -->
<g id="node6" class="node"><title>&#45;8429177058128869877</title>
<polygon fill="#ffffff" stroke="black" points="542.881,-384 427.881,-384 427.881,-348 542.881,-348 542.881,-384"/>
<text text-anchor="middle" x="485.381" y="-362.3" font-family="Times New Roman,serif" font-size="14.00">IV Antibiotics (1)</text>
</g>
<!-- &#45;8429177058128869877&#45;&gt;118450489566830562 -->
<g id="edge7" class="edge"><title>&#45;8429177058128869877&#45;&gt;118450489566830562</title>
<path fill="none" stroke="black" stroke-width="1.13303" d="M485.381,-347.799C485.381,-336.163 485.381,-320.548 485.381,-307.237"/>
<polygon fill="black" stroke="black" stroke-width="1.13303" points="488.881,-307.175 485.381,-297.175 481.881,-307.175 488.881,-307.175"/>
<text text-anchor="middle" x="544.881" y="-318.8" font-family="Times New Roman,serif" font-size="14.00">488.20174873606555</text>
</g>
<!-- 6215314419735287562 -->
<g id="node7" class="node"><title>6215314419735287562</title>
<polygon fill="#ffffff" stroke="black" points="530.381,-471 440.381,-471 440.381,-435 530.381,-435 530.381,-471"/>
<text text-anchor="middle" x="485.381" y="-449.3" font-family="Times New Roman,serif" font-size="14.00">IV Liquid (1)</text>
</g>
<!-- 6215314419735287562&#45;&gt;&#45;8429177058128869877 -->
<g id="edge8" class="edge"><title>6215314419735287562&#45;&gt;&#45;8429177058128869877</title>
<path fill="none" stroke="black" stroke-width="1.14871" d="M485.381,-434.799C485.381,-423.163 485.381,-407.548 485.381,-394.237"/>
<polygon fill="black" stroke="black" stroke-width="1.14871" points="488.881,-394.175 485.381,-384.175 481.881,-394.175 488.881,-394.175"/>
<text text-anchor="middle" x="541.381" y="-405.8" font-family="Times New Roman,serif" font-size="14.00">502.0234616188711</text>
</g>
<!-- &#45;5670009864185339888&#45;&gt;4941769122289558835 -->
<g id="edge9" class="edge"><title>&#45;5670009864185339888&#45;&gt;4941769122289558835</title>
<path fill="none" stroke="black" stroke-width="1.0373" d="M93.1514,-123.095C111.261,-136.589 134.366,-153.544 139.381,-156 163.998,-168.057 193.536,-176.736 217.146,-182.436"/>
<polygon fill="black" stroke="black" stroke-width="1.0373" points="216.67,-185.919 227.203,-184.772 218.254,-179.1 216.67,-185.919"/>
<text text-anchor="middle" x="192.381" y="-144.8" font-family="Times New Roman,serif" font-size="14.00">403.824266441252</text>
</g>
<!-- &#45;5670009864185339888&#45;&gt;6570115252564267433 -->
<g id="edge10" class="edge"><title>&#45;5670009864185339888&#45;&gt;6570115252564267433</title>
<path fill="none" stroke="black" stroke-width="1.21611" d="M23.3606,-86.9962C6.16255,-78.2088 -6.67336,-66.6756 4.38131,-54 29.0704,-25.6907 131.308,-19.4691 198.591,-18.5336"/>
<polygon fill="black" stroke="black" stroke-width="1.21611" points="198.698,-22.0328 208.661,-18.4291 198.625,-15.0332 198.698,-22.0328"/>
<text text-anchor="middle" x="60.3813" y="-57.8" font-family="Times New Roman,serif" font-size="14.00">561.4378997318162</text>
</g>
<!-- 6570115252564267433&#45;&gt;4941769122289558835 -->
<g id="edge11" class="edge"><title>6570115252564267433&#45;&gt;4941769122289558835</title>
<path fill="none" stroke="black" stroke-width="2.6" d="M309.115,-36.1523C352.383,-54.0524 404.899,-84.8222 382.381,-123 364.972,-152.517 329.646,-170.113 301.301,-179.985"/>
<polygon fill="black" stroke="black" stroke-width="2.6" points="300.02,-176.721 291.607,-183.161 302.2,-183.373 300.02,-176.721"/>
<text text-anchor="middle" x="447.881" y="-101.3" font-family="Times New Roman,serif" font-size="14.00">1781.2364531098697</text>
</g>
<!-- 6570115252564267433&#45;&gt;&#45;5670009864185339888 -->
<g id="edge12" class="edge"><title>6570115252564267433&#45;&gt;&#45;5670009864185339888</title>
<path fill="none" stroke="black" stroke-width="1.07481" d="M208.615,-29.6921C186.677,-35.3454 161.112,-43.3569 139.381,-54 135.11,-56.0918 117.722,-68.6969 101.471,-80.7262"/>
<polygon fill="black" stroke="black" stroke-width="1.07481" points="99.0921,-78.1329 93.1514,-86.9055 103.266,-83.7523 99.0921,-78.1329"/>
<text text-anchor="middle" x="192.381" y="-57.8" font-family="Times New Roman,serif" font-size="14.00">436.893050108509</text>
</g>
<!-- 6570115252564267433&#45;&gt;6570115252564267433 -->
<g id="edge13" class="edge"><title>6570115252564267433&#45;&gt;6570115252564267433</title>
<path fill="none" stroke="black" stroke-width="1.09873" d="M310.165,-25.5746C320.489,-24.7495 327.881,-22.2246 327.881,-18 327.881,-15.3596 324.994,-13.3832 320.307,-12.0707"/>
<polygon fill="black" stroke="black" stroke-width="1.09873" points="320.597,-8.57199 310.165,-10.4254 319.476,-15.4817 320.597,-8.57199"/>
<text text-anchor="middle" x="387.381" y="-14.3" font-family="Times New Roman,serif" font-size="14.00">457.97420587204056</text>
</g>
</g>
</svg>
