<?xml version="1.0" encoding="UTF-8" standalone="no"?>
<!DOCTYPE svg PUBLIC "-//W3C//DTD SVG 1.1//EN"
 "http://www.w3.org/Graphics/SVG/1.1/DTD/svg11.dtd">
<!-- Generated by graphviz version 2.38.0 (20140413.2041)
 -->
<!-- Title: %3 Pages: 1 -->
<svg width="757pt" height="479pt"
 viewBox="0.00 0.00 757.16 479.00" xmlns="http://www.w3.org/2000/svg" xmlns:xlink="http://www.w3.org/1999/xlink">
<g id="graph0" class="graph" transform="scale(1 1) rotate(0) translate(4 475)">
<title>%3</title>
<!-- 9118780525858573852 -->
<g id="node1" class="node"><title>9118780525858573852</title>
<polygon fill="#ffffff" stroke="black" points="551.662,-297 432.662,-297 432.662,-261 551.662,-261 551.662,-297"/>
<text text-anchor="middle" x="492.162" y="-275.3" font-family="Times New Roman,serif" font-size="14.00">Admission NC (1)</text>
</g>
<!-- 8794229938327540079 -->
<g id="node2" class="node"><title>8794229938327540079</title>
<polygon fill="#ffffff" stroke="black" points="298.162,-210 234.162,-210 234.162,-174 298.162,-174 298.162,-210"/>
<text text-anchor="middle" x="266.162" y="-188.3" font-family="Times New Roman,serif" font-size="14.00">CRP (1)</text>
</g>
<!-- 9118780525858573852&#45;&gt;8794229938327540079 -->
<g id="edge1" class="edge"><title>9118780525858573852&#45;&gt;8794229938327540079</title>
<path fill="none" stroke="black" d="M446.699,-260.901C406.179,-245.661 347.358,-223.538 307.985,-208.73"/>
<polygon fill="black" stroke="black" points="309.008,-205.375 298.416,-205.131 306.544,-211.927 309.008,-205.375"/>
<text text-anchor="middle" x="449.162" y="-231.8" font-family="Times New Roman,serif" font-size="14.00">369.1407362967519</text>
</g>
<!-- &#45;4990305070490083274 -->
<g id="node9" class="node"><title>&#45;4990305070490083274</title>
<polygon fill="#ffffff" stroke="black" points="316.662,-36 215.662,-36 215.662,-0 316.662,-0 316.662,-36"/>
<text text-anchor="middle" x="266.162" y="-14.3" font-family="Times New Roman,serif" font-size="14.00">Leucocytes (1)</text>
</g>
<!-- 9118780525858573852&#45;&gt;&#45;4990305070490083274 -->
<g id="edge2" class="edge"><title>9118780525858573852&#45;&gt;&#45;4990305070490083274</title>
<path fill="none" stroke="black" stroke-width="1.04516" d="M501.911,-260.857C521.055,-224.662 558.352,-139.472 518.162,-87 495.033,-56.8023 393.865,-36.9672 326.959,-26.8902"/>
<polygon fill="black" stroke="black" stroke-width="1.04516" points="327.344,-23.4093 316.941,-25.4153 326.324,-30.3346 327.344,-23.4093"/>
<text text-anchor="middle" x="595.662" y="-144.8" font-family="Times New Roman,serif" font-size="14.00">408.89459223646156</text>
</g>
<!-- 5659693541288529527 -->
<g id="node8" class="node"><title>5659693541288529527</title>
<polygon fill="#ffffff" stroke="black" points="117.162,-123 19.1621,-123 19.1621,-87 117.162,-87 117.162,-123"/>
<text text-anchor="middle" x="68.1621" y="-101.3" font-family="Times New Roman,serif" font-size="14.00">LacticAcid (1)</text>
</g>
<!-- 8794229938327540079&#45;&gt;5659693541288529527 -->
<g id="edge3" class="edge"><title>8794229938327540079&#45;&gt;5659693541288529527</title>
<path fill="none" stroke="black" stroke-width="1.29405" d="M233.766,-191.7C170.585,-192.296 34.5122,-189.549 5.16208,-156 -3.65285,-145.924 2.97113,-136.382 14.7063,-128.388"/>
<polygon fill="black" stroke="black" stroke-width="1.29405" points="16.737,-131.252 23.5203,-123.113 13.1422,-125.245 16.737,-131.252"/>
<text text-anchor="middle" x="61.1621" y="-144.8" font-family="Times New Roman,serif" font-size="14.00">627.9827856960449</text>
</g>
<!-- 8794229938327540079&#45;&gt;&#45;4990305070490083274 -->
<g id="edge4" class="edge"><title>8794229938327540079&#45;&gt;&#45;4990305070490083274</title>
<path fill="none" stroke="black" stroke-width="2.22221" d="M266.162,-173.879C266.162,-144.001 266.162,-82.1129 266.162,-46.2736"/>
<polygon fill="black" stroke="black" stroke-width="2.22221" points="269.662,-46.0516 266.162,-36.0516 262.662,-46.0516 269.662,-46.0516"/>
<text text-anchor="middle" x="325.662" y="-101.3" font-family="Times New Roman,serif" font-size="14.00">1445.0138770942158</text>
</g>
<!-- 4941573644585563234 -->
<g id="node3" class="node"><title>4941573644585563234</title>
<polygon fill="#ffffff" stroke="black" points="699.662,-471 574.662,-471 574.662,-435 699.662,-435 699.662,-471"/>
<text text-anchor="middle" x="637.162" y="-449.3" font-family="Times New Roman,serif" font-size="14.00">ER Registration (1)</text>
</g>
<!-- 7781181950460006610 -->
<g id="node5" class="node"><title>7781181950460006610</title>
<polygon fill="#ffffff" stroke="black" points="683.662,-384 590.662,-384 590.662,-348 683.662,-348 683.662,-384"/>
<text text-anchor="middle" x="637.162" y="-362.3" font-family="Times New Roman,serif" font-size="14.00">ER Triage (1)</text>
</g>
<!-- 4941573644585563234&#45;&gt;7781181950460006610 -->
<g id="edge5" class="edge"><title>4941573644585563234&#45;&gt;7781181950460006610</title>
<path fill="none" stroke="black" stroke-width="1.68345" d="M637.162,-434.799C637.162,-423.163 637.162,-407.548 637.162,-394.237"/>
<polygon fill="black" stroke="black" stroke-width="1.68345" points="640.662,-394.175 637.162,-384.175 633.662,-394.175 640.662,-394.175"/>
<text text-anchor="middle" x="693.162" y="-405.8" font-family="Times New Roman,serif" font-size="14.00">970.7571609664607</text>
</g>
<!-- &#45;1916228938975785919 -->
<g id="node4" class="node"><title>&#45;1916228938975785919</title>
<polygon fill="#ffffff" stroke="black" points="704.162,-297 570.162,-297 570.162,-261 704.162,-261 704.162,-297"/>
<text text-anchor="middle" x="637.162" y="-275.3" font-family="Times New Roman,serif" font-size="14.00">ER Sepsis Triage (1)</text>
</g>
<!-- 7781181950460006610&#45;&gt;&#45;1916228938975785919 -->
<g id="edge6" class="edge"><title>7781181950460006610&#45;&gt;&#45;1916228938975785919</title>
<path fill="none" stroke="black" stroke-width="1.60861" d="M637.162,-347.799C637.162,-336.163 637.162,-320.548 637.162,-307.237"/>
<polygon fill="black" stroke="black" stroke-width="1.60861" points="640.662,-307.175 637.162,-297.175 633.662,-307.175 640.662,-307.175"/>
<text text-anchor="middle" x="693.162" y="-318.8" font-family="Times New Roman,serif" font-size="14.00">904.8838347031797</text>
</g>
<!-- 1341266047991071662 -->
<g id="node6" class="node"><title>1341266047991071662</title>
<polygon fill="#ffffff" stroke="black" points="549.662,-384 434.662,-384 434.662,-348 549.662,-348 549.662,-384"/>
<text text-anchor="middle" x="492.162" y="-362.3" font-family="Times New Roman,serif" font-size="14.00">IV Antibiotics (1)</text>
</g>
<!-- 1341266047991071662&#45;&gt;9118780525858573852 -->
<g id="edge7" class="edge"><title>1341266047991071662&#45;&gt;9118780525858573852</title>
<path fill="none" stroke="black" stroke-width="1.13609" d="M492.162,-347.799C492.162,-336.163 492.162,-320.548 492.162,-307.237"/>
<polygon fill="black" stroke="black" stroke-width="1.13609" points="495.662,-307.175 492.162,-297.175 488.662,-307.175 495.662,-307.175"/>
<text text-anchor="middle" x="548.162" y="-318.8" font-family="Times New Roman,serif" font-size="14.00">488.9407617792442</text>
</g>
<!-- 1513237216211266658 -->
<g id="node7" class="node"><title>1513237216211266658</title>
<polygon fill="#ffffff" stroke="black" points="537.162,-471 447.162,-471 447.162,-435 537.162,-435 537.162,-471"/>
<text text-anchor="middle" x="492.162" y="-449.3" font-family="Times New Roman,serif" font-size="14.00">IV Liquid (1)</text>
</g>
<!-- 1513237216211266658&#45;&gt;1341266047991071662 -->
<g id="edge8" class="edge"><title>1513237216211266658&#45;&gt;1341266047991071662</title>
<path fill="none" stroke="black" stroke-width="1.14963" d="M492.162,-434.799C492.162,-423.163 492.162,-407.548 492.162,-394.237"/>
<polygon fill="black" stroke="black" stroke-width="1.14963" points="495.662,-394.175 492.162,-384.175 488.662,-394.175 495.662,-394.175"/>
<text text-anchor="middle" x="548.162" y="-405.8" font-family="Times New Roman,serif" font-size="14.00">500.8550249829404</text>
</g>
<!-- 5659693541288529527&#45;&gt;8794229938327540079 -->
<g id="edge9" class="edge"><title>5659693541288529527&#45;&gt;8794229938327540079</title>
<path fill="none" stroke="black" stroke-width="1.04099" d="M91.9389,-123.102C110.846,-136.601 134.962,-153.558 140.162,-156 166.894,-168.551 198.991,-177.384 224.1,-183.036"/>
<polygon fill="black" stroke="black" stroke-width="1.04099" points="223.533,-186.495 234.047,-185.193 225.016,-179.654 223.533,-186.495"/>
<text text-anchor="middle" x="196.162" y="-144.8" font-family="Times New Roman,serif" font-size="14.00">405.2243853320666</text>
</g>
<!-- 5659693541288529527&#45;&gt;&#45;4990305070490083274 -->
<g id="edge10" class="edge"><title>5659693541288529527&#45;&gt;&#45;4990305070490083274</title>
<path fill="none" stroke="black" stroke-width="1.22304" d="M22.8667,-86.9903C5.94535,-78.1208 -6.79619,-66.5195 4.16208,-54 29.7486,-24.7682 136.09,-18.893 205.178,-18.2661"/>
<polygon fill="black" stroke="black" stroke-width="1.22304" points="205.527,-21.7643 215.508,-18.2085 205.488,-14.7644 205.527,-21.7643"/>
<text text-anchor="middle" x="57.1621" y="-57.8" font-family="Times New Roman,serif" font-size="14.00">565.475122209631</text>
</g>
<!-- &#45;4990305070490083274&#45;&gt;8794229938327540079 -->
<g id="edge11" class="edge"><title>&#45;4990305070490083274&#45;&gt;8794229938327540079</title>
<path fill="none" stroke="black" stroke-width="2.6" d="M315.895,-36.1523C359.164,-54.0524 411.679,-84.8222 389.162,-123 371.753,-152.517 336.427,-170.113 308.082,-179.985"/>
<polygon fill="black" stroke="black" stroke-width="2.6" points="306.801,-176.721 298.388,-183.161 308.981,-183.373 306.801,-176.721"/>
<text text-anchor="middle" x="454.662" y="-101.3" font-family="Times New Roman,serif" font-size="14.00">1777.5715503365009</text>
</g>
<!-- &#45;4990305070490083274&#45;&gt;5659693541288529527 -->
<g id="edge12" class="edge"><title>&#45;4990305070490083274&#45;&gt;5659693541288529527</title>
<path fill="none" stroke="black" stroke-width="1.07492" d="M215.529,-27.3769C189.968,-32.8194 158.987,-41.3172 133.162,-54 125.364,-57.8298 110.227,-69.3723 96.5223,-80.4029"/>
<polygon fill="black" stroke="black" stroke-width="1.07492" points="94.235,-77.7517 88.6846,-86.7763 98.6514,-83.1828 94.235,-77.7517"/>
<text text-anchor="middle" x="192.662" y="-57.8" font-family="Times New Roman,serif" font-size="14.00">435.09174271720434</text>
</g>
<!-- &#45;4990305070490083274&#45;&gt;&#45;4990305070490083274 -->
<g id="edge13" class="edge"><title>&#45;4990305070490083274&#45;&gt;&#45;4990305070490083274</title>
<path fill="none" stroke="black" stroke-width="1.10146" d="M316.946,-25.5746C327.27,-24.7495 334.662,-22.2246 334.662,-18 334.662,-15.3596 331.774,-13.3832 327.088,-12.0707"/>
<polygon fill="black" stroke="black" stroke-width="1.10146" points="327.377,-8.57199 316.946,-10.4254 326.256,-15.4817 327.377,-8.57199"/>
<text text-anchor="middle" x="394.162" y="-14.3" font-family="Times New Roman,serif" font-size="14.00">458.45557120881614</text>
</g>
</g>
</svg>
