<?xml version="1.0" encoding="UTF-8" standalone="no"?>
<!DOCTYPE svg PUBLIC "-//W3C//DTD SVG 1.1//EN"
 "http://www.w3.org/Graphics/SVG/1.1/DTD/svg11.dtd">
<!-- Generated by graphviz version 2.38.0 (20140413.2041)
 -->
<!-- Title: %3 Pages: 1 -->
<svg width="751pt" height="479pt"
 viewBox="0.00 0.00 751.48 479.00" xmlns="http://www.w3.org/2000/svg" xmlns:xlink="http://www.w3.org/1999/xlink">
<g id="graph0" class="graph" transform="scale(1 1) rotate(0) translate(4 475)">
<title>%3</title>
<!-- 118450489566830562 -->
<g id="node1" class="node"><title>118450489566830562</title>
<polygon fill="#ffffff" stroke="black" points="545.978,-297 426.978,-297 426.978,-261 545.978,-261 545.978,-297"/>
<text text-anchor="middle" x="486.478" y="-275.3" font-family="Times New Roman,serif" font-size="14.00">Admission NC (1)</text>
</g>
<!-- 4941769122289558835 -->
<g id="node2" class="node"><title>4941769122289558835</title>
<polygon fill="#ffffff" stroke="black" points="297.478,-210 233.478,-210 233.478,-174 297.478,-174 297.478,-210"/>
<text text-anchor="middle" x="265.478" y="-188.3" font-family="Times New Roman,serif" font-size="14.00">CRP (1)</text>
</g>
<!-- 118450489566830562&#45;&gt;4941769122289558835 -->
<g id="edge1" class="edge"><title>118450489566830562&#45;&gt;4941769122289558835</title>
<path fill="none" stroke="black" d="M442.021,-260.901C402.63,-245.751 345.552,-223.798 307.055,-208.991"/>
<polygon fill="black" stroke="black" points="308.279,-205.712 297.689,-205.389 305.766,-212.246 308.279,-205.712"/>
<text text-anchor="middle" x="448.978" y="-231.8" font-family="Times New Roman,serif" font-size="14.00">366.29324430985184</text>
</g>
<!-- 6570115252564267433 -->
<g id="node9" class="node"><title>6570115252564267433</title>
<polygon fill="#ffffff" stroke="black" points="315.978,-36 214.978,-36 214.978,-0 315.978,-0 315.978,-36"/>
<text text-anchor="middle" x="265.478" y="-14.3" font-family="Times New Roman,serif" font-size="14.00">Leucocytes (1)</text>
</g>
<!-- 118450489566830562&#45;&gt;6570115252564267433 -->
<g id="edge2" class="edge"><title>118450489566830562&#45;&gt;6570115252564267433</title>
<path fill="none" stroke="black" stroke-width="1.046" d="M502.671,-260.735C506.66,-255.436 510.386,-249.324 512.478,-243 526.912,-199.363 643.415,-259.309 510.478,-87 488.05,-57.9301 391.319,-37.9269 326.32,-27.482"/>
<polygon fill="black" stroke="black" stroke-width="1.046" points="326.599,-23.9829 316.177,-25.8877 325.512,-30.898 326.599,-23.9829"/>
<text text-anchor="middle" x="613.478" y="-144.8" font-family="Times New Roman,serif" font-size="14.00">406.9200670897706</text>
</g>
<!-- &#45;5670009864185339888 -->
<g id="node8" class="node"><title>&#45;5670009864185339888</title>
<polygon fill="#ffffff" stroke="black" points="122.478,-123 24.4779,-123 24.4779,-87 122.478,-87 122.478,-123"/>
<text text-anchor="middle" x="73.4779" y="-101.3" font-family="Times New Roman,serif" font-size="14.00">LacticAcid (1)</text>
</g>
<!-- 4941769122289558835&#45;&gt;&#45;5670009864185339888 -->
<g id="edge3" class="edge"><title>4941769122289558835&#45;&gt;&#45;5670009864185339888</title>
<path fill="none" stroke="black" stroke-width="1.29756" d="M233.082,-191.7C169.901,-192.296 33.8281,-189.549 4.47794,-156 -4.87091,-145.314 2.48856,-135.612 15.3422,-127.66"/>
<polygon fill="black" stroke="black" stroke-width="1.29756" points="17.3537,-130.55 24.4619,-122.693 14.0058,-124.402 17.3537,-130.55"/>
<text text-anchor="middle" x="60.4779" y="-144.8" font-family="Times New Roman,serif" font-size="14.00">629.0980845861419</text>
</g>
<!-- 4941769122289558835&#45;&gt;6570115252564267433 -->
<g id="edge4" class="edge"><title>4941769122289558835&#45;&gt;6570115252564267433</title>
<path fill="none" stroke="black" stroke-width="2.2212" d="M265.478,-173.879C265.478,-144.001 265.478,-82.1129 265.478,-46.2736"/>
<polygon fill="black" stroke="black" stroke-width="2.2212" points="268.978,-46.0516 265.478,-36.0516 261.978,-46.0516 268.978,-46.0516"/>
<text text-anchor="middle" x="321.478" y="-101.3" font-family="Times New Roman,serif" font-size="14.00">1444.848747910759</text>
</g>
<!-- &#45;1744131764726653331 -->
<g id="node3" class="node"><title>&#45;1744131764726653331</title>
<polygon fill="#ffffff" stroke="black" points="693.978,-471 568.978,-471 568.978,-435 693.978,-435 693.978,-471"/>
<text text-anchor="middle" x="631.478" y="-449.3" font-family="Times New Roman,serif" font-size="14.00">ER Registration (1)</text>
</g>
<!-- &#45;8305476247514553090 -->
<g id="node5" class="node"><title>&#45;8305476247514553090</title>
<polygon fill="#ffffff" stroke="black" points="677.978,-384 584.978,-384 584.978,-348 677.978,-348 677.978,-384"/>
<text text-anchor="middle" x="631.478" y="-362.3" font-family="Times New Roman,serif" font-size="14.00">ER Triage (1)</text>
</g>
<!-- &#45;1744131764726653331&#45;&gt;&#45;8305476247514553090 -->
<g id="edge5" class="edge"><title>&#45;1744131764726653331&#45;&gt;&#45;8305476247514553090</title>
<path fill="none" stroke="black" stroke-width="1.68372" d="M631.478,-434.799C631.478,-423.163 631.478,-407.548 631.478,-394.237"/>
<polygon fill="black" stroke="black" stroke-width="1.68372" points="634.978,-394.175 631.478,-384.175 627.978,-394.175 634.978,-394.175"/>
<text text-anchor="middle" x="687.478" y="-405.8" font-family="Times New Roman,serif" font-size="14.00">970.1474332462319</text>
</g>
<!-- 3296544575651183754 -->
<g id="node4" class="node"><title>3296544575651183754</title>
<polygon fill="#ffffff" stroke="black" points="698.478,-297 564.478,-297 564.478,-261 698.478,-261 698.478,-297"/>
<text text-anchor="middle" x="631.478" y="-275.3" font-family="Times New Roman,serif" font-size="14.00">ER Sepsis Triage (1)</text>
</g>
<!-- &#45;8305476247514553090&#45;&gt;3296544575651183754 -->
<g id="edge6" class="edge"><title>&#45;8305476247514553090&#45;&gt;3296544575651183754</title>
<path fill="none" stroke="black" stroke-width="1.60793" d="M631.478,-347.799C631.478,-336.163 631.478,-320.548 631.478,-307.237"/>
<polygon fill="black" stroke="black" stroke-width="1.60793" points="634.978,-307.175 631.478,-297.175 627.978,-307.175 634.978,-307.175"/>
<text text-anchor="middle" x="687.478" y="-318.8" font-family="Times New Roman,serif" font-size="14.00">903.2095893224197</text>
</g>
<!-- &#45;8429177058128869877 -->
<g id="node6" class="node"><title>&#45;8429177058128869877</title>
<polygon fill="#ffffff" stroke="black" points="543.978,-384 428.978,-384 428.978,-348 543.978,-348 543.978,-384"/>
<text text-anchor="middle" x="486.478" y="-362.3" font-family="Times New Roman,serif" font-size="14.00">IV Antibiotics (1)</text>
</g>
<!-- &#45;8429177058128869877&#45;&gt;118450489566830562 -->
<g id="edge7" class="edge"><title>&#45;8429177058128869877&#45;&gt;118450489566830562</title>
<path fill="none" stroke="black" stroke-width="1.13914" d="M486.478,-347.799C486.478,-336.163 486.478,-320.548 486.478,-307.237"/>
<polygon fill="black" stroke="black" stroke-width="1.13914" points="489.978,-307.175 486.478,-297.175 482.978,-307.175 489.978,-307.175"/>
<text text-anchor="middle" x="545.978" y="-318.8" font-family="Times New Roman,serif" font-size="14.00">489.18151827150325</text>
</g>
<!-- 6215314419735287562 -->
<g id="node7" class="node"><title>6215314419735287562</title>
<polygon fill="#ffffff" stroke="black" points="531.478,-471 441.478,-471 441.478,-435 531.478,-435 531.478,-471"/>
<text text-anchor="middle" x="486.478" y="-449.3" font-family="Times New Roman,serif" font-size="14.00">IV Liquid (1)</text>
</g>
<!-- 6215314419735287562&#45;&gt;&#45;8429177058128869877 -->
<g id="edge8" class="edge"><title>6215314419735287562&#45;&gt;&#45;8429177058128869877</title>
<path fill="none" stroke="black" stroke-width="1.14884" d="M486.478,-434.799C486.478,-423.163 486.478,-407.548 486.478,-394.237"/>
<polygon fill="black" stroke="black" stroke-width="1.14884" points="489.978,-394.175 486.478,-384.175 482.978,-394.175 489.978,-394.175"/>
<text text-anchor="middle" x="545.978" y="-405.8" font-family="Times New Roman,serif" font-size="14.00">497.74927878455435</text>
</g>
<!-- &#45;5670009864185339888&#45;&gt;4941769122289558835 -->
<g id="edge9" class="edge"><title>&#45;5670009864185339888&#45;&gt;4941769122289558835</title>
<path fill="none" stroke="black" stroke-width="1.043" d="M94.3537,-123.183C109.929,-135.736 130.073,-151.345 139.478,-156 166.034,-169.145 198.263,-177.984 223.478,-183.491"/>
<polygon fill="black" stroke="black" stroke-width="1.043" points="222.963,-186.959 233.467,-185.58 224.395,-180.107 222.963,-186.959"/>
<text text-anchor="middle" x="195.478" y="-144.8" font-family="Times New Roman,serif" font-size="14.00">404.2721785914657</text>
</g>
<!-- &#45;5670009864185339888&#45;&gt;6570115252564267433 -->
<g id="edge10" class="edge"><title>&#45;5670009864185339888&#45;&gt;6570115252564267433</title>
<path fill="none" stroke="black" stroke-width="1.22424" d="M28.8529,-86.9018C12.1871,-78.0112 -0.351972,-66.4179 10.4779,-54 35.1671,-25.6907 137.404,-19.4691 204.688,-18.5336"/>
<polygon fill="black" stroke="black" stroke-width="1.22424" points="204.795,-22.0328 214.758,-18.4291 204.722,-15.0332 204.795,-22.0328"/>
<text text-anchor="middle" x="66.4779" y="-57.8" font-family="Times New Roman,serif" font-size="14.00">564.3361457071725</text>
</g>
<!-- 6570115252564267433&#45;&gt;4941769122289558835 -->
<g id="edge11" class="edge"><title>6570115252564267433&#45;&gt;4941769122289558835</title>
<path fill="none" stroke="black" stroke-width="2.6" d="M311.257,-36.0649C352.301,-54.2127 402.992,-85.4502 381.478,-123 365.561,-150.781 333.402,-168.313 306.974,-178.604"/>
<polygon fill="black" stroke="black" stroke-width="2.6" points="305.716,-175.337 297.538,-182.073 308.131,-181.907 305.716,-175.337"/>
<text text-anchor="middle" x="446.978" y="-101.3" font-family="Times New Roman,serif" font-size="14.00">1779.3968159274848</text>
</g>
<!-- 6570115252564267433&#45;&gt;&#45;5670009864185339888 -->
<g id="edge12" class="edge"><title>6570115252564267433&#45;&gt;&#45;5670009864185339888</title>
<path fill="none" stroke="black" stroke-width="1.07515" d="M214.812,-29.9012C192.893,-35.5924 167.314,-43.5757 145.478,-54 141.023,-56.127 122.584,-68.9448 105.483,-81.0687"/>
<polygon fill="black" stroke="black" stroke-width="1.07515" points="103.384,-78.267 97.2627,-86.9149 107.441,-83.9715 103.384,-78.267"/>
<text text-anchor="middle" x="198.478" y="-57.8" font-family="Times New Roman,serif" font-size="14.00">432.666419753178</text>
</g>
<!-- 6570115252564267433&#45;&gt;6570115252564267433 -->
<g id="edge13" class="edge"><title>6570115252564267433&#45;&gt;6570115252564267433</title>
<path fill="none" stroke="black" stroke-width="1.10637" d="M316.262,-25.5746C326.585,-24.7495 333.978,-22.2246 333.978,-18 333.978,-15.3596 331.09,-13.3832 326.404,-12.0707"/>
<polygon fill="black" stroke="black" stroke-width="1.10637" points="326.693,-8.57199 316.262,-10.4254 325.572,-15.4817 326.693,-8.57199"/>
<text text-anchor="middle" x="393.478" y="-14.3" font-family="Times New Roman,serif" font-size="14.00">460.23403632985594</text>
</g>
</g>
</svg>
