<?xml version="1.0" encoding="UTF-8" standalone="no"?>
<!DOCTYPE svg PUBLIC "-//W3C//DTD SVG 1.1//EN"
 "http://www.w3.org/Graphics/SVG/1.1/DTD/svg11.dtd">
<!-- Generated by graphviz version 2.38.0 (20140413.2041)
 -->
<!-- Title: %3 Pages: 1 -->
<svg width="764pt" height="479pt"
 viewBox="0.00 0.00 763.61 479.00" xmlns="http://www.w3.org/2000/svg" xmlns:xlink="http://www.w3.org/1999/xlink">
<g id="graph0" class="graph" transform="scale(1 1) rotate(0) translate(4 475)">
<title>%3</title>
<!-- 118450489566830562 -->
<g id="node1" class="node"><title>118450489566830562</title>
<polygon fill="#ffffff" stroke="black" points="558.106,-297 439.106,-297 439.106,-261 558.106,-261 558.106,-297"/>
<text text-anchor="middle" x="498.606" y="-275.3" font-family="Times New Roman,serif" font-size="14.00">Admission NC (1)</text>
</g>
<!-- 4941769122289558835 -->
<g id="node2" class="node"><title>4941769122289558835</title>
<polygon fill="#ffffff" stroke="black" points="304.606,-210 240.606,-210 240.606,-174 304.606,-174 304.606,-210"/>
<text text-anchor="middle" x="272.606" y="-188.3" font-family="Times New Roman,serif" font-size="14.00">CRP (1)</text>
</g>
<!-- 118450489566830562&#45;&gt;4941769122289558835 -->
<g id="edge1" class="edge"><title>118450489566830562&#45;&gt;4941769122289558835</title>
<path fill="none" stroke="black" d="M453.143,-260.901C412.623,-245.661 353.802,-223.538 314.428,-208.73"/>
<polygon fill="black" stroke="black" points="315.452,-205.375 304.86,-205.131 312.988,-211.927 315.452,-205.375"/>
<text text-anchor="middle" x="459.106" y="-231.8" font-family="Times New Roman,serif" font-size="14.00">373.97873922673693</text>
</g>
<!-- 6570115252564267433 -->
<g id="node9" class="node"><title>6570115252564267433</title>
<polygon fill="#ffffff" stroke="black" points="323.106,-36 222.106,-36 222.106,-0 323.106,-0 323.106,-36"/>
<text text-anchor="middle" x="272.606" y="-14.3" font-family="Times New Roman,serif" font-size="14.00">Leucocytes (1)</text>
</g>
<!-- 118450489566830562&#45;&gt;6570115252564267433 -->
<g id="edge2" class="edge"><title>118450489566830562&#45;&gt;6570115252564267433</title>
<path fill="none" stroke="black" stroke-width="1.03865" d="M513.25,-260.905C517.026,-255.518 520.59,-249.317 522.606,-243 543.684,-176.942 566.768,-142.048 524.606,-87 501.477,-56.8023 400.309,-36.9672 333.402,-26.8902"/>
<polygon fill="black" stroke="black" stroke-width="1.03865" points="333.788,-23.4093 323.385,-25.4153 332.768,-30.3346 333.788,-23.4093"/>
<text text-anchor="middle" x="608.106" y="-144.8" font-family="Times New Roman,serif" font-size="14.00">407.86609513405176</text>
</g>
<!-- &#45;5670009864185339888 -->
<g id="node8" class="node"><title>&#45;5670009864185339888</title>
<polygon fill="#ffffff" stroke="black" points="129.606,-123 31.606,-123 31.606,-87 129.606,-87 129.606,-123"/>
<text text-anchor="middle" x="80.606" y="-101.3" font-family="Times New Roman,serif" font-size="14.00">LacticAcid (1)</text>
</g>
<!-- 4941769122289558835&#45;&gt;&#45;5670009864185339888 -->
<g id="edge3" class="edge"><title>4941769122289558835&#45;&gt;&#45;5670009864185339888</title>
<path fill="none" stroke="black" stroke-width="1.29088" d="M240.412,-191.439C179.766,-191.503 52.1967,-187.758 24.606,-156 16.2831,-146.42 22.3922,-136.894 33.1591,-128.768"/>
<polygon fill="black" stroke="black" stroke-width="1.29088" points="35.282,-131.56 41.6825,-123.117 31.4139,-125.725 35.282,-131.56"/>
<text text-anchor="middle" x="74.106" y="-144.8" font-family="Times New Roman,serif" font-size="14.00">629.00995491736</text>
</g>
<!-- 4941769122289558835&#45;&gt;6570115252564267433 -->
<g id="edge4" class="edge"><title>4941769122289558835&#45;&gt;6570115252564267433</title>
<path fill="none" stroke="black" stroke-width="2.22125" d="M272.606,-173.879C272.606,-144.001 272.606,-82.1129 272.606,-46.2736"/>
<polygon fill="black" stroke="black" stroke-width="2.22125" points="276.106,-46.0516 272.606,-36.0516 269.106,-46.0516 276.106,-46.0516"/>
<text text-anchor="middle" x="332.106" y="-101.3" font-family="Times New Roman,serif" font-size="14.00">1444.7348934037911</text>
</g>
<!-- &#45;1744131764726653331 -->
<g id="node3" class="node"><title>&#45;1744131764726653331</title>
<polygon fill="#ffffff" stroke="black" points="706.106,-471 581.106,-471 581.106,-435 706.106,-435 706.106,-471"/>
<text text-anchor="middle" x="643.606" y="-449.3" font-family="Times New Roman,serif" font-size="14.00">ER Registration (1)</text>
</g>
<!-- &#45;8305476247514553090 -->
<g id="node5" class="node"><title>&#45;8305476247514553090</title>
<polygon fill="#ffffff" stroke="black" points="690.106,-384 597.106,-384 597.106,-348 690.106,-348 690.106,-384"/>
<text text-anchor="middle" x="643.606" y="-362.3" font-family="Times New Roman,serif" font-size="14.00">ER Triage (1)</text>
</g>
<!-- &#45;1744131764726653331&#45;&gt;&#45;8305476247514553090 -->
<g id="edge5" class="edge"><title>&#45;1744131764726653331&#45;&gt;&#45;8305476247514553090</title>
<path fill="none" stroke="black" stroke-width="1.67948" d="M643.606,-434.799C643.606,-423.163 643.606,-407.548 643.606,-394.237"/>
<polygon fill="black" stroke="black" stroke-width="1.67948" points="647.106,-394.175 643.606,-384.175 640.106,-394.175 647.106,-394.175"/>
<text text-anchor="middle" x="699.606" y="-405.8" font-family="Times New Roman,serif" font-size="14.00">969.7291540910711</text>
</g>
<!-- 3296544575651183754 -->
<g id="node4" class="node"><title>3296544575651183754</title>
<polygon fill="#ffffff" stroke="black" points="710.606,-297 576.606,-297 576.606,-261 710.606,-261 710.606,-297"/>
<text text-anchor="middle" x="643.606" y="-275.3" font-family="Times New Roman,serif" font-size="14.00">ER Sepsis Triage (1)</text>
</g>
<!-- &#45;8305476247514553090&#45;&gt;3296544575651183754 -->
<g id="edge6" class="edge"><title>&#45;8305476247514553090&#45;&gt;3296544575651183754</title>
<path fill="none" stroke="black" stroke-width="1.60962" d="M643.606,-347.799C643.606,-336.163 643.606,-320.548 643.606,-307.237"/>
<polygon fill="black" stroke="black" stroke-width="1.60962" points="647.106,-307.175 643.606,-297.175 640.106,-307.175 647.106,-307.175"/>
<text text-anchor="middle" x="699.606" y="-318.8" font-family="Times New Roman,serif" font-size="14.00">908.4753377803482</text>
</g>
<!-- &#45;8429177058128869877 -->
<g id="node6" class="node"><title>&#45;8429177058128869877</title>
<polygon fill="#ffffff" stroke="black" points="556.106,-384 441.106,-384 441.106,-348 556.106,-348 556.106,-384"/>
<text text-anchor="middle" x="498.606" y="-362.3" font-family="Times New Roman,serif" font-size="14.00">IV Antibiotics (1)</text>
</g>
<!-- &#45;8429177058128869877&#45;&gt;118450489566830562 -->
<g id="edge7" class="edge"><title>&#45;8429177058128869877&#45;&gt;118450489566830562</title>
<path fill="none" stroke="black" stroke-width="1.12957" d="M498.606,-347.799C498.606,-336.163 498.606,-320.548 498.606,-307.237"/>
<polygon fill="black" stroke="black" stroke-width="1.12957" points="502.106,-307.175 498.606,-297.175 495.106,-307.175 502.106,-307.175"/>
<text text-anchor="middle" x="558.106" y="-318.8" font-family="Times New Roman,serif" font-size="14.00">487.58154639530056</text>
</g>
<!-- 6215314419735287562 -->
<g id="node7" class="node"><title>6215314419735287562</title>
<polygon fill="#ffffff" stroke="black" points="543.606,-471 453.606,-471 453.606,-435 543.606,-435 543.606,-471"/>
<text text-anchor="middle" x="498.606" y="-449.3" font-family="Times New Roman,serif" font-size="14.00">IV Liquid (1)</text>
</g>
<!-- 6215314419735287562&#45;&gt;&#45;8429177058128869877 -->
<g id="edge8" class="edge"><title>6215314419735287562&#45;&gt;&#45;8429177058128869877</title>
<path fill="none" stroke="black" stroke-width="1.14549" d="M498.606,-434.799C498.606,-423.163 498.606,-407.548 498.606,-394.237"/>
<polygon fill="black" stroke="black" stroke-width="1.14549" points="502.106,-394.175 498.606,-384.175 495.106,-394.175 502.106,-394.175"/>
<text text-anchor="middle" x="554.606" y="-405.8" font-family="Times New Roman,serif" font-size="14.00">501.5437626006105</text>
</g>
<!-- &#45;5670009864185339888&#45;&gt;4941769122289558835 -->
<g id="edge9" class="edge"><title>&#45;5670009864185339888&#45;&gt;4941769122289558835</title>
<path fill="none" stroke="black" stroke-width="1.03316" d="M101.482,-123.183C117.057,-135.736 137.201,-151.345 146.606,-156 173.162,-169.145 205.391,-177.984 230.606,-183.491"/>
<polygon fill="black" stroke="black" stroke-width="1.03316" points="230.091,-186.959 240.595,-185.58 231.524,-180.107 230.091,-186.959"/>
<text text-anchor="middle" x="202.606" y="-144.8" font-family="Times New Roman,serif" font-size="14.00">403.0485028166566</text>
</g>
<!-- &#45;5670009864185339888&#45;&gt;6570115252564267433 -->
<g id="edge10" class="edge"><title>&#45;5670009864185339888&#45;&gt;6570115252564267433</title>
<path fill="none" stroke="black" stroke-width="1.21751" d="M31.5587,-89.9836C9.68288,-81.3011 -8.52287,-68.955 4.60603,-54 31.0136,-23.9195 141.254,-18.3878 211.859,-18.0442"/>
<polygon fill="black" stroke="black" stroke-width="1.21751" points="211.979,-21.5441 221.974,-18.0289 211.968,-14.5441 211.979,-21.5441"/>
<text text-anchor="middle" x="60.606" y="-57.8" font-family="Times New Roman,serif" font-size="14.00">564.6893349118759</text>
</g>
<!-- 6570115252564267433&#45;&gt;4941769122289558835 -->
<g id="edge11" class="edge"><title>6570115252564267433&#45;&gt;4941769122289558835</title>
<path fill="none" stroke="black" stroke-width="2.6" d="M322.339,-36.1523C365.608,-54.0524 418.123,-84.8222 395.606,-123 378.197,-152.517 342.871,-170.113 314.526,-179.985"/>
<polygon fill="black" stroke="black" stroke-width="2.6" points="313.245,-176.721 304.832,-183.161 315.425,-183.373 313.245,-176.721"/>
<text text-anchor="middle" x="461.106" y="-101.3" font-family="Times New Roman,serif" font-size="14.00">1776.8148060685567</text>
</g>
<!-- 6570115252564267433&#45;&gt;&#45;5670009864185339888 -->
<g id="edge12" class="edge"><title>6570115252564267433&#45;&gt;&#45;5670009864185339888</title>
<path fill="none" stroke="black" stroke-width="1.07399" d="M222.033,-26.8004C196.343,-32.1057 165.229,-40.6546 139.606,-54 126.7,-60.7216 114.148,-70.7129 103.963,-80.001"/>
<polygon fill="black" stroke="black" stroke-width="1.07399" points="101.528,-77.4862 96.6685,-86.9008 106.338,-82.5715 101.528,-77.4862"/>
<text text-anchor="middle" x="199.106" y="-57.8" font-family="Times New Roman,serif" font-size="14.00">438.84746838213294</text>
</g>
<!-- 6570115252564267433&#45;&gt;6570115252564267433 -->
<g id="edge13" class="edge"><title>6570115252564267433&#45;&gt;6570115252564267433</title>
<path fill="none" stroke="black" stroke-width="1.09614" d="M323.39,-25.5746C333.713,-24.7495 341.106,-22.2246 341.106,-18 341.106,-15.3596 338.218,-13.3832 333.532,-12.0707"/>
<polygon fill="black" stroke="black" stroke-width="1.09614" points="333.821,-8.57199 323.39,-10.4254 332.7,-15.4817 333.821,-8.57199"/>
<text text-anchor="middle" x="397.106" y="-14.3" font-family="Times New Roman,serif" font-size="14.00">458.2699835709596</text>
</g>
</g>
</svg>
