<?xml version="1.0" encoding="UTF-8" standalone="no"?>
<!DOCTYPE svg PUBLIC "-//W3C//DTD SVG 1.1//EN"
 "http://www.w3.org/Graphics/SVG/1.1/DTD/svg11.dtd">
<!-- Generated by graphviz version 2.38.0 (20140413.2041)
 -->
<!-- Title: %3 Pages: 1 -->
<svg width="764pt" height="479pt"
 viewBox="0.00 0.00 763.58 479.00" xmlns="http://www.w3.org/2000/svg" xmlns:xlink="http://www.w3.org/1999/xlink">
<g id="graph0" class="graph" transform="scale(1 1) rotate(0) translate(4 475)">
<title>%3</title>
<!-- 9118780525858573852 -->
<g id="node1" class="node"><title>9118780525858573852</title>
<polygon fill="#ffffff" stroke="black" points="558.077,-297 439.077,-297 439.077,-261 558.077,-261 558.077,-297"/>
<text text-anchor="middle" x="498.577" y="-275.3" font-family="Times New Roman,serif" font-size="14.00">Admission NC (1)</text>
</g>
<!-- 8794229938327540079 -->
<g id="node2" class="node"><title>8794229938327540079</title>
<polygon fill="#ffffff" stroke="black" points="304.577,-210 240.577,-210 240.577,-174 304.577,-174 304.577,-210"/>
<text text-anchor="middle" x="272.577" y="-188.3" font-family="Times New Roman,serif" font-size="14.00">CRP (1)</text>
</g>
<!-- 9118780525858573852&#45;&gt;8794229938327540079 -->
<g id="edge1" class="edge"><title>9118780525858573852&#45;&gt;8794229938327540079</title>
<path fill="none" stroke="black" stroke-width="1.00621" d="M453.114,-260.901C412.594,-245.661 353.773,-223.538 314.399,-208.73"/>
<polygon fill="black" stroke="black" stroke-width="1.00621" points="315.423,-205.375 304.831,-205.131 312.959,-211.927 315.423,-205.375"/>
<text text-anchor="middle" x="455.577" y="-231.8" font-family="Times New Roman,serif" font-size="14.00">407.1791864208194</text>
</g>
<!-- &#45;4990305070490083274 -->
<g id="node9" class="node"><title>&#45;4990305070490083274</title>
<polygon fill="#ffffff" stroke="black" points="323.077,-36 222.077,-36 222.077,-0 323.077,-0 323.077,-36"/>
<text text-anchor="middle" x="272.577" y="-14.3" font-family="Times New Roman,serif" font-size="14.00">Leucocytes (1)</text>
</g>
<!-- 9118780525858573852&#45;&gt;&#45;4990305070490083274 -->
<g id="edge2" class="edge"><title>9118780525858573852&#45;&gt;&#45;4990305070490083274</title>
<path fill="none" stroke="black" stroke-width="1.23388" d="M508.325,-260.857C527.47,-224.662 564.766,-139.472 524.577,-87 501.448,-56.8023 400.279,-36.9672 333.373,-26.8902"/>
<polygon fill="black" stroke="black" stroke-width="1.23388" points="333.759,-23.4093 323.355,-25.4153 332.739,-30.3346 333.759,-23.4093"/>
<text text-anchor="middle" x="598.577" y="-144.8" font-family="Times New Roman,serif" font-size="14.00">604.6424144706805</text>
</g>
<!-- 5659693541288529527 -->
<g id="node8" class="node"><title>5659693541288529527</title>
<polygon fill="#ffffff" stroke="black" points="126.577,-123 28.5768,-123 28.5768,-87 126.577,-87 126.577,-123"/>
<text text-anchor="middle" x="77.5768" y="-101.3" font-family="Times New Roman,serif" font-size="14.00">LacticAcid (1)</text>
</g>
<!-- 8794229938327540079&#45;&gt;5659693541288529527 -->
<g id="edge3" class="edge"><title>8794229938327540079&#45;&gt;5659693541288529527</title>
<path fill="none" stroke="black" stroke-width="1.31664" d="M240.312,-191.828C175.894,-192.715 34.9143,-190.557 4.57677,-156 -5.8554,-144.117 3.90492,-133.706 19.3056,-125.505"/>
<polygon fill="black" stroke="black" stroke-width="1.31664" points="20.8376,-128.652 28.3495,-121.18 17.8179,-122.336 20.8376,-128.652"/>
<text text-anchor="middle" x="60.5768" y="-144.8" font-family="Times New Roman,serif" font-size="14.00">676.4171109860188</text>
</g>
<!-- 8794229938327540079&#45;&gt;&#45;4990305070490083274 -->
<g id="edge4" class="edge"><title>8794229938327540079&#45;&gt;&#45;4990305070490083274</title>
<path fill="none" stroke="black" stroke-width="2.20811" d="M272.577,-173.879C272.577,-144.001 272.577,-82.1129 272.577,-46.2736"/>
<polygon fill="black" stroke="black" stroke-width="2.20811" points="276.077,-46.0516 272.577,-36.0516 269.077,-46.0516 276.077,-46.0516"/>
<text text-anchor="middle" x="332.077" y="-101.3" font-family="Times New Roman,serif" font-size="14.00">1449.6085765832645</text>
</g>
<!-- 4941573644585563234 -->
<g id="node3" class="node"><title>4941573644585563234</title>
<polygon fill="#ffffff" stroke="black" points="706.077,-471 581.077,-471 581.077,-435 706.077,-435 706.077,-471"/>
<text text-anchor="middle" x="643.577" y="-449.3" font-family="Times New Roman,serif" font-size="14.00">ER Registration (1)</text>
</g>
<!-- 7781181950460006610 -->
<g id="node5" class="node"><title>7781181950460006610</title>
<polygon fill="#ffffff" stroke="black" points="690.077,-384 597.077,-384 597.077,-348 690.077,-348 690.077,-384"/>
<text text-anchor="middle" x="643.577" y="-362.3" font-family="Times New Roman,serif" font-size="14.00">ER Triage (1)</text>
</g>
<!-- 4941573644585563234&#45;&gt;7781181950460006610 -->
<g id="edge5" class="edge"><title>4941573644585563234&#45;&gt;7781181950460006610</title>
<path fill="none" stroke="black" stroke-width="1.65339" d="M643.577,-434.799C643.577,-423.163 643.577,-407.548 643.577,-394.237"/>
<polygon fill="black" stroke="black" stroke-width="1.65339" points="647.077,-394.175 643.577,-384.175 640.077,-394.175 647.077,-394.175"/>
<text text-anchor="middle" x="699.577" y="-405.8" font-family="Times New Roman,serif" font-size="14.00">968.4875307900887</text>
</g>
<!-- &#45;1916228938975785919 -->
<g id="node4" class="node"><title>&#45;1916228938975785919</title>
<polygon fill="#ffffff" stroke="black" points="710.577,-297 576.577,-297 576.577,-261 710.577,-261 710.577,-297"/>
<text text-anchor="middle" x="643.577" y="-275.3" font-family="Times New Roman,serif" font-size="14.00">ER Sepsis Triage (1)</text>
</g>
<!-- 7781181950460006610&#45;&gt;&#45;1916228938975785919 -->
<g id="edge6" class="edge"><title>7781181950460006610&#45;&gt;&#45;1916228938975785919</title>
<path fill="none" stroke="black" stroke-width="1.63638" d="M643.577,-347.799C643.577,-336.163 643.577,-320.548 643.577,-307.237"/>
<polygon fill="black" stroke="black" stroke-width="1.63638" points="647.077,-307.175 643.577,-297.175 640.077,-307.175 647.077,-307.175"/>
<text text-anchor="middle" x="699.577" y="-318.8" font-family="Times New Roman,serif" font-size="14.00">953.7391923983852</text>
</g>
<!-- 1341266047991071662 -->
<g id="node6" class="node"><title>1341266047991071662</title>
<polygon fill="#ffffff" stroke="black" points="556.077,-384 441.077,-384 441.077,-348 556.077,-348 556.077,-384"/>
<text text-anchor="middle" x="498.577" y="-362.3" font-family="Times New Roman,serif" font-size="14.00">IV Antibiotics (1)</text>
</g>
<!-- 1341266047991071662&#45;&gt;9118780525858573852 -->
<g id="edge7" class="edge"><title>1341266047991071662&#45;&gt;9118780525858573852</title>
<path fill="none" stroke="black" stroke-width="1.1166" d="M498.577,-347.799C498.577,-336.163 498.577,-320.548 498.577,-307.237"/>
<polygon fill="black" stroke="black" stroke-width="1.1166" points="502.077,-307.175 498.577,-297.175 495.077,-307.175 502.077,-307.175"/>
<text text-anchor="middle" x="554.577" y="-318.8" font-family="Times New Roman,serif" font-size="14.00">502.9204722983259</text>
</g>
<!-- 1513237216211266658 -->
<g id="node7" class="node"><title>1513237216211266658</title>
<polygon fill="#ffffff" stroke="black" points="543.577,-471 453.577,-471 453.577,-435 543.577,-435 543.577,-471"/>
<text text-anchor="middle" x="498.577" y="-449.3" font-family="Times New Roman,serif" font-size="14.00">IV Liquid (1)</text>
</g>
<!-- 1513237216211266658&#45;&gt;1341266047991071662 -->
<g id="edge8" class="edge"><title>1513237216211266658&#45;&gt;1341266047991071662</title>
<path fill="none" stroke="black" stroke-width="1.04695" d="M498.577,-434.799C498.577,-423.163 498.577,-407.548 498.577,-394.237"/>
<polygon fill="black" stroke="black" stroke-width="1.04695" points="502.077,-394.175 498.577,-384.175 495.077,-394.175 502.077,-394.175"/>
<text text-anchor="middle" x="558.077" y="-405.8" font-family="Times New Roman,serif" font-size="14.00">442.51746392495374</text>
</g>
<!-- 5659693541288529527&#45;&gt;8794229938327540079 -->
<g id="edge9" class="edge"><title>5659693541288529527&#45;&gt;8794229938327540079</title>
<path fill="none" stroke="black" stroke-width="1.02092" d="M97.0908,-123.239C111.669,-135.824 130.568,-151.446 139.577,-156 168.203,-170.469 203.41,-179.39 230.408,-184.602"/>
<polygon fill="black" stroke="black" stroke-width="1.02092" points="229.855,-188.059 240.323,-186.422 231.119,-181.174 229.855,-188.059"/>
<text text-anchor="middle" x="199.077" y="-144.8" font-family="Times New Roman,serif" font-size="14.00">419.93536610922007</text>
</g>
<!-- 5659693541288529527&#45;&gt;&#45;4990305070490083274 -->
<g id="edge10" class="edge"><title>5659693541288529527&#45;&gt;&#45;4990305070490083274</title>
<path fill="none" stroke="black" stroke-width="1.17651" d="M35.3058,-86.8158C19.1902,-77.8198 6.97114,-66.1607 17.5768,-54 42.2659,-25.6907 144.503,-19.4691 211.786,-18.5336"/>
<polygon fill="black" stroke="black" stroke-width="1.17651" points="211.894,-22.0328 221.857,-18.4291 211.821,-15.0332 211.894,-22.0328"/>
<text text-anchor="middle" x="70.5768" y="-57.8" font-family="Times New Roman,serif" font-size="14.00">554.885368447152</text>
</g>
<!-- &#45;4990305070490083274&#45;&gt;8794229938327540079 -->
<g id="edge11" class="edge"><title>&#45;4990305070490083274&#45;&gt;8794229938327540079</title>
<path fill="none" stroke="black" stroke-width="2.6" d="M322.31,-36.1523C365.578,-54.0524 418.094,-84.8222 395.577,-123 378.168,-152.517 342.842,-170.113 314.497,-179.985"/>
<polygon fill="black" stroke="black" stroke-width="2.6" points="313.216,-176.721 304.803,-183.161 315.395,-183.373 313.216,-176.721"/>
<text text-anchor="middle" x="461.077" y="-101.3" font-family="Times New Roman,serif" font-size="14.00">1789.5022247634986</text>
</g>
<!-- &#45;4990305070490083274&#45;&gt;5659693541288529527 -->
<g id="edge12" class="edge"><title>&#45;4990305070490083274&#45;&gt;5659693541288529527</title>
<path fill="none" stroke="black" d="M222.03,-28.6971C198.397,-34.3104 170.302,-42.5684 146.577,-54 142.293,-56.0643 124.904,-68.6695 108.656,-80.7057"/>
<polygon fill="black" stroke="black" points="106.276,-78.114 100.339,-86.8892 110.452,-83.7316 106.276,-78.114"/>
<text text-anchor="middle" x="202.577" y="-57.8" font-family="Times New Roman,serif" font-size="14.00">401.7932983713315</text>
</g>
<!-- &#45;4990305070490083274&#45;&gt;&#45;4990305070490083274 -->
<g id="edge13" class="edge"><title>&#45;4990305070490083274&#45;&gt;&#45;4990305070490083274</title>
<path fill="none" stroke="black" stroke-width="1.06027" d="M323.361,-25.5746C333.684,-24.7495 341.077,-22.2246 341.077,-18 341.077,-15.3596 338.189,-13.3832 333.503,-12.0707"/>
<polygon fill="black" stroke="black" stroke-width="1.06027" points="333.792,-8.57199 323.361,-10.4254 332.671,-15.4817 333.792,-8.57199"/>
<text text-anchor="middle" x="400.577" y="-14.3" font-family="Times New Roman,serif" font-size="14.00">454.06671430595907</text>
</g>
</g>
</svg>
