<?xml version="1.0" encoding="UTF-8" standalone="no"?>
<!DOCTYPE svg PUBLIC "-//W3C//DTD SVG 1.1//EN"
 "http://www.w3.org/Graphics/SVG/1.1/DTD/svg11.dtd">
<!-- Generated by graphviz version 2.38.0 (20140413.2041)
 -->
<!-- Title: %3 Pages: 1 -->
<svg width="751pt" height="479pt"
 viewBox="0.00 0.00 751.48 479.00" xmlns="http://www.w3.org/2000/svg" xmlns:xlink="http://www.w3.org/1999/xlink">
<g id="graph0" class="graph" transform="scale(1 1) rotate(0) translate(4 475)">
<title>%3</title>
<!-- &#45;6760735685208204671 -->
<g id="node1" class="node"><title>&#45;6760735685208204671</title>
<polygon fill="#ffffff" stroke="black" points="545.978,-297 426.978,-297 426.978,-261 545.978,-261 545.978,-297"/>
<text text-anchor="middle" x="486.478" y="-275.3" font-family="Times New Roman,serif" font-size="14.00">Admission NC (1)</text>
</g>
<!-- 7850561497370058999 -->
<g id="node2" class="node"><title>7850561497370058999</title>
<polygon fill="#ffffff" stroke="black" points="297.478,-210 233.478,-210 233.478,-174 297.478,-174 297.478,-210"/>
<text text-anchor="middle" x="265.478" y="-188.3" font-family="Times New Roman,serif" font-size="14.00">CRP (1)</text>
</g>
<!-- &#45;6760735685208204671&#45;&gt;7850561497370058999 -->
<g id="edge1" class="edge"><title>&#45;6760735685208204671&#45;&gt;7850561497370058999</title>
<path fill="none" stroke="black" d="M442.021,-260.901C402.63,-245.751 345.552,-223.798 307.055,-208.991"/>
<polygon fill="black" stroke="black" points="308.279,-205.712 297.689,-205.389 305.766,-212.246 308.279,-205.712"/>
<text text-anchor="middle" x="448.978" y="-231.8" font-family="Times New Roman,serif" font-size="14.00">352.89774961237293</text>
</g>
<!-- 6179918396602481755 -->
<g id="node9" class="node"><title>6179918396602481755</title>
<polygon fill="#ffffff" stroke="black" points="315.978,-36 214.978,-36 214.978,-0 315.978,-0 315.978,-36"/>
<text text-anchor="middle" x="265.478" y="-14.3" font-family="Times New Roman,serif" font-size="14.00">Leucocytes (1)</text>
</g>
<!-- &#45;6760735685208204671&#45;&gt;6179918396602481755 -->
<g id="edge2" class="edge"><title>&#45;6760735685208204671&#45;&gt;6179918396602481755</title>
<path fill="none" stroke="black" stroke-width="1.03893" d="M502.671,-260.735C506.66,-255.436 510.386,-249.324 512.478,-243 526.912,-199.363 643.415,-259.309 510.478,-87 488.05,-57.9301 391.319,-37.9269 326.32,-27.482"/>
<polygon fill="black" stroke="black" stroke-width="1.03893" points="326.599,-23.9829 316.177,-25.8877 325.512,-30.898 326.599,-23.9829"/>
<text text-anchor="middle" x="610.478" y="-144.8" font-family="Times New Roman,serif" font-size="14.00">386.837207757394</text>
</g>
<!-- 1152587832168206417 -->
<g id="node8" class="node"><title>1152587832168206417</title>
<polygon fill="#ffffff" stroke="black" points="122.478,-123 24.4779,-123 24.4779,-87 122.478,-87 122.478,-123"/>
<text text-anchor="middle" x="73.4779" y="-101.3" font-family="Times New Roman,serif" font-size="14.00">LacticAcid (1)</text>
</g>
<!-- 7850561497370058999&#45;&gt;1152587832168206417 -->
<g id="edge3" class="edge"><title>7850561497370058999&#45;&gt;1152587832168206417</title>
<path fill="none" stroke="black" stroke-width="1.43942" d="M233.082,-191.7C169.901,-192.296 33.8281,-189.549 4.47794,-156 -4.87091,-145.314 2.48856,-135.612 15.3422,-127.66"/>
<polygon fill="black" stroke="black" stroke-width="1.43942" points="17.3537,-130.55 24.4619,-122.693 14.0058,-124.402 17.3537,-130.55"/>
<text text-anchor="middle" x="60.4779" y="-144.8" font-family="Times New Roman,serif" font-size="14.00">736.0208674531175</text>
</g>
<!-- 7850561497370058999&#45;&gt;6179918396602481755 -->
<g id="edge4" class="edge"><title>7850561497370058999&#45;&gt;6179918396602481755</title>
<path fill="none" stroke="black" stroke-width="2.2469" d="M265.478,-173.879C265.478,-144.001 265.478,-82.1129 265.478,-46.2736"/>
<polygon fill="black" stroke="black" stroke-width="2.2469" points="268.978,-46.0516 265.478,-36.0516 261.978,-46.0516 268.978,-46.0516"/>
<text text-anchor="middle" x="324.978" y="-101.3" font-family="Times New Roman,serif" font-size="14.00">1440.0439957209383</text>
</g>
<!-- &#45;2410219256766748193 -->
<g id="node3" class="node"><title>&#45;2410219256766748193</title>
<polygon fill="#ffffff" stroke="black" points="693.978,-471 568.978,-471 568.978,-435 693.978,-435 693.978,-471"/>
<text text-anchor="middle" x="631.478" y="-449.3" font-family="Times New Roman,serif" font-size="14.00">ER Registration (1)</text>
</g>
<!-- &#45;2872325205858232948 -->
<g id="node5" class="node"><title>&#45;2872325205858232948</title>
<polygon fill="#ffffff" stroke="black" points="677.978,-384 584.978,-384 584.978,-348 677.978,-348 677.978,-384"/>
<text text-anchor="middle" x="631.478" y="-362.3" font-family="Times New Roman,serif" font-size="14.00">ER Triage (1)</text>
</g>
<!-- &#45;2410219256766748193&#45;&gt;&#45;2872325205858232948 -->
<g id="edge5" class="edge"><title>&#45;2410219256766748193&#45;&gt;&#45;2872325205858232948</title>
<path fill="none" stroke="black" stroke-width="1.70965" d="M631.478,-434.799C631.478,-423.163 631.478,-407.548 631.478,-394.237"/>
<polygon fill="black" stroke="black" stroke-width="1.70965" points="634.978,-394.175 631.478,-384.175 627.978,-394.175 634.978,-394.175"/>
<text text-anchor="middle" x="687.478" y="-405.8" font-family="Times New Roman,serif" font-size="14.00">971.6308511757347</text>
</g>
<!-- 8892003065059452103 -->
<g id="node4" class="node"><title>8892003065059452103</title>
<polygon fill="#ffffff" stroke="black" points="698.478,-297 564.478,-297 564.478,-261 698.478,-261 698.478,-297"/>
<text text-anchor="middle" x="631.478" y="-275.3" font-family="Times New Roman,serif" font-size="14.00">ER Sepsis Triage (1)</text>
</g>
<!-- &#45;2872325205858232948&#45;&gt;8892003065059452103 -->
<g id="edge6" class="edge"><title>&#45;2872325205858232948&#45;&gt;8892003065059452103</title>
<path fill="none" stroke="black" stroke-width="1.69189" d="M631.478,-347.799C631.478,-336.163 631.478,-320.548 631.478,-307.237"/>
<polygon fill="black" stroke="black" stroke-width="1.69189" points="634.978,-307.175 631.478,-297.175 627.978,-307.175 634.978,-307.175"/>
<text text-anchor="middle" x="687.478" y="-318.8" font-family="Times New Roman,serif" font-size="14.00">956.1483480271172</text>
</g>
<!-- &#45;6564841300794043563 -->
<g id="node6" class="node"><title>&#45;6564841300794043563</title>
<polygon fill="#ffffff" stroke="black" points="543.978,-384 428.978,-384 428.978,-348 543.978,-348 543.978,-384"/>
<text text-anchor="middle" x="486.478" y="-362.3" font-family="Times New Roman,serif" font-size="14.00">IV Antibiotics (1)</text>
</g>
<!-- &#45;6564841300794043563&#45;&gt;&#45;6760735685208204671 -->
<g id="edge7" class="edge"><title>&#45;6564841300794043563&#45;&gt;&#45;6760735685208204671</title>
<path fill="none" stroke="black" stroke-width="1.21871" d="M486.478,-347.799C486.478,-336.163 486.478,-320.548 486.478,-307.237"/>
<polygon fill="black" stroke="black" stroke-width="1.21871" points="489.978,-307.175 486.478,-297.175 482.978,-307.175 489.978,-307.175"/>
<text text-anchor="middle" x="542.478" y="-318.8" font-family="Times New Roman,serif" font-size="14.00">543.5846129489142</text>
</g>
<!-- &#45;1926219633770359302 -->
<g id="node7" class="node"><title>&#45;1926219633770359302</title>
<polygon fill="#ffffff" stroke="black" points="531.478,-471 441.478,-471 441.478,-435 531.478,-435 531.478,-471"/>
<text text-anchor="middle" x="486.478" y="-449.3" font-family="Times New Roman,serif" font-size="14.00">IV Liquid (1)</text>
</g>
<!-- &#45;1926219633770359302&#45;&gt;&#45;6564841300794043563 -->
<g id="edge8" class="edge"><title>&#45;1926219633770359302&#45;&gt;&#45;6564841300794043563</title>
<path fill="none" stroke="black" stroke-width="1.1789" d="M486.478,-434.799C486.478,-423.163 486.478,-407.548 486.478,-394.237"/>
<polygon fill="black" stroke="black" stroke-width="1.1789" points="489.978,-394.175 486.478,-384.175 482.978,-394.175 489.978,-394.175"/>
<text text-anchor="middle" x="545.978" y="-405.8" font-family="Times New Roman,serif" font-size="14.00">508.87746496639926</text>
</g>
<!-- 1152587832168206417&#45;&gt;7850561497370058999 -->
<g id="edge9" class="edge"><title>1152587832168206417&#45;&gt;7850561497370058999</title>
<path fill="none" stroke="black" stroke-width="1.02089" d="M94.3537,-123.183C109.929,-135.736 130.073,-151.345 139.478,-156 166.034,-169.145 198.263,-177.984 223.478,-183.491"/>
<polygon fill="black" stroke="black" stroke-width="1.02089" points="222.963,-186.959 233.467,-185.58 224.395,-180.107 222.963,-186.959"/>
<text text-anchor="middle" x="195.478" y="-144.8" font-family="Times New Roman,serif" font-size="14.00">371.1087217936738</text>
</g>
<!-- 1152587832168206417&#45;&gt;6179918396602481755 -->
<g id="edge10" class="edge"><title>1152587832168206417&#45;&gt;6179918396602481755</title>
<path fill="none" stroke="black" stroke-width="1.34524" d="M28.8529,-86.9018C12.1871,-78.0112 -0.351972,-66.4179 10.4779,-54 35.1671,-25.6907 137.404,-19.4691 204.688,-18.5336"/>
<polygon fill="black" stroke="black" stroke-width="1.34524" points="204.795,-22.0328 214.758,-18.4291 204.722,-15.0332 204.795,-22.0328"/>
<text text-anchor="middle" x="66.4779" y="-57.8" font-family="Times New Roman,serif" font-size="14.00">653.9069574824252</text>
</g>
<!-- 6179918396602481755&#45;&gt;7850561497370058999 -->
<g id="edge11" class="edge"><title>6179918396602481755&#45;&gt;7850561497370058999</title>
<path fill="none" stroke="black" stroke-width="2.6" d="M315.211,-36.1523C358.48,-54.0524 410.995,-84.8222 388.478,-123 371.069,-152.517 335.743,-170.113 307.398,-179.985"/>
<polygon fill="black" stroke="black" stroke-width="2.6" points="306.117,-176.721 297.704,-183.161 308.296,-183.373 306.117,-176.721"/>
<text text-anchor="middle" x="450.478" y="-101.3" font-family="Times New Roman,serif" font-size="14.00">1747.908891213372</text>
</g>
<!-- 6179918396602481755&#45;&gt;1152587832168206417 -->
<g id="edge12" class="edge"><title>6179918396602481755&#45;&gt;1152587832168206417</title>
<path fill="none" stroke="black" stroke-width="1.09563" d="M214.812,-29.9012C192.893,-35.5924 167.314,-43.5757 145.478,-54 141.023,-56.127 122.584,-68.9448 105.483,-81.0687"/>
<polygon fill="black" stroke="black" stroke-width="1.09563" points="103.384,-78.267 97.2627,-86.9149 107.441,-83.9715 103.384,-78.267"/>
<text text-anchor="middle" x="198.478" y="-57.8" font-family="Times New Roman,serif" font-size="14.00">436.277877748293</text>
</g>
<!-- 6179918396602481755&#45;&gt;6179918396602481755 -->
<g id="edge13" class="edge"><title>6179918396602481755&#45;&gt;6179918396602481755</title>
<path fill="none" stroke="black" stroke-width="1.11304" d="M316.262,-25.5746C326.585,-24.7495 333.978,-22.2246 333.978,-18 333.978,-15.3596 331.09,-13.3832 326.404,-12.0707"/>
<polygon fill="black" stroke="black" stroke-width="1.11304" points="326.693,-8.57199 316.262,-10.4254 325.572,-15.4817 326.693,-8.57199"/>
<text text-anchor="middle" x="389.978" y="-14.3" font-family="Times New Roman,serif" font-size="14.00">451.4545160000927</text>
</g>
</g>
</svg>
