<?xml version="1.0" encoding="UTF-8" standalone="no"?>
<!DOCTYPE svg PUBLIC "-//W3C//DTD SVG 1.1//EN"
 "http://www.w3.org/Graphics/SVG/1.1/DTD/svg11.dtd">
<!-- Generated by graphviz version 2.38.0 (20140413.2041)
 -->
<!-- Title: %3 Pages: 1 -->
<svg width="754pt" height="479pt"
 viewBox="0.00 0.00 753.52 479.00" xmlns="http://www.w3.org/2000/svg" xmlns:xlink="http://www.w3.org/1999/xlink">
<g id="graph0" class="graph" transform="scale(1 1) rotate(0) translate(4 475)">
<title>%3</title>
<!-- 118450489566830562 -->
<g id="node1" class="node"><title>118450489566830562</title>
<polygon fill="#ffffff" stroke="black" points="548.019,-297 429.019,-297 429.019,-261 548.019,-261 548.019,-297"/>
<text text-anchor="middle" x="488.519" y="-275.3" font-family="Times New Roman,serif" font-size="14.00">Admission NC (1)</text>
</g>
<!-- 4941769122289558835 -->
<g id="node2" class="node"><title>4941769122289558835</title>
<polygon fill="#ffffff" stroke="black" points="304.519,-210 240.519,-210 240.519,-174 304.519,-174 304.519,-210"/>
<text text-anchor="middle" x="272.519" y="-188.3" font-family="Times New Roman,serif" font-size="14.00">CRP (1)</text>
</g>
<!-- 118450489566830562&#45;&gt;4941769122289558835 -->
<g id="edge1" class="edge"><title>118450489566830562&#45;&gt;4941769122289558835</title>
<path fill="none" stroke="black" d="M445.068,-260.901C406.957,-245.904 351.907,-224.241 314.302,-209.442"/>
<polygon fill="black" stroke="black" points="315.249,-206.054 304.662,-205.649 312.686,-212.568 315.249,-206.054"/>
<text text-anchor="middle" x="453.019" y="-231.8" font-family="Times New Roman,serif" font-size="14.00">368.50699727641853</text>
</g>
<!-- 6570115252564267433 -->
<g id="node9" class="node"><title>6570115252564267433</title>
<polygon fill="#ffffff" stroke="black" points="323.019,-36 222.019,-36 222.019,-0 323.019,-0 323.019,-36"/>
<text text-anchor="middle" x="272.519" y="-14.3" font-family="Times New Roman,serif" font-size="14.00">Leucocytes (1)</text>
</g>
<!-- 118450489566830562&#45;&gt;6570115252564267433 -->
<g id="edge2" class="edge"><title>118450489566830562&#45;&gt;6570115252564267433</title>
<path fill="none" stroke="black" stroke-width="1.04427" d="M505.939,-260.912C510.235,-255.617 514.252,-249.462 516.519,-243 531.77,-199.522 648.069,-261.309 511.519,-87 489.549,-58.955 396.445,-38.7929 333.139,-28.0157"/>
<polygon fill="black" stroke="black" stroke-width="1.04427" points="333.689,-24.5593 323.25,-26.3669 332.538,-31.464 333.689,-24.5593"/>
<text text-anchor="middle" x="615.519" y="-144.8" font-family="Times New Roman,serif" font-size="14.00">407.4933045596975</text>
</g>
<!-- &#45;5670009864185339888 -->
<g id="node8" class="node"><title>&#45;5670009864185339888</title>
<polygon fill="#ffffff" stroke="black" points="123.519,-123 25.5187,-123 25.5187,-87 123.519,-87 123.519,-123"/>
<text text-anchor="middle" x="74.5187" y="-101.3" font-family="Times New Roman,serif" font-size="14.00">LacticAcid (1)</text>
</g>
<!-- 4941769122289558835&#45;&gt;&#45;5670009864185339888 -->
<g id="edge3" class="edge"><title>4941769122289558835&#45;&gt;&#45;5670009864185339888</title>
<path fill="none" stroke="black" stroke-width="1.29616" d="M240.254,-191.828C175.836,-192.715 34.8562,-190.557 4.51866,-156 -5.10945,-145.033 2.81219,-135.153 16.2885,-127.128"/>
<polygon fill="black" stroke="black" stroke-width="1.29616" points="18.0791,-130.141 25.29,-122.378 14.8123,-123.95 18.0791,-130.141"/>
<text text-anchor="middle" x="60.5187" y="-144.8" font-family="Times New Roman,serif" font-size="14.00">629.3411080187207</text>
</g>
<!-- 4941769122289558835&#45;&gt;6570115252564267433 -->
<g id="edge4" class="edge"><title>4941769122289558835&#45;&gt;6570115252564267433</title>
<path fill="none" stroke="black" stroke-width="2.2213" d="M272.519,-173.879C272.519,-144.001 272.519,-82.1129 272.519,-46.2736"/>
<polygon fill="black" stroke="black" stroke-width="2.2213" points="276.019,-46.0516 272.519,-36.0516 269.019,-46.0516 276.019,-46.0516"/>
<text text-anchor="middle" x="332.019" y="-101.3" font-family="Times New Roman,serif" font-size="14.00">1444.1218083973858</text>
</g>
<!-- &#45;1744131764726653331 -->
<g id="node3" class="node"><title>&#45;1744131764726653331</title>
<polygon fill="#ffffff" stroke="black" points="696.019,-471 571.019,-471 571.019,-435 696.019,-435 696.019,-471"/>
<text text-anchor="middle" x="633.519" y="-449.3" font-family="Times New Roman,serif" font-size="14.00">ER Registration (1)</text>
</g>
<!-- &#45;8305476247514553090 -->
<g id="node5" class="node"><title>&#45;8305476247514553090</title>
<polygon fill="#ffffff" stroke="black" points="680.019,-384 587.019,-384 587.019,-348 680.019,-348 680.019,-384"/>
<text text-anchor="middle" x="633.519" y="-362.3" font-family="Times New Roman,serif" font-size="14.00">ER Triage (1)</text>
</g>
<!-- &#45;1744131764726653331&#45;&gt;&#45;8305476247514553090 -->
<g id="edge5" class="edge"><title>&#45;1744131764726653331&#45;&gt;&#45;8305476247514553090</title>
<path fill="none" stroke="black" stroke-width="1.68485" d="M633.519,-434.799C633.519,-423.163 633.519,-407.548 633.519,-394.237"/>
<polygon fill="black" stroke="black" stroke-width="1.68485" points="637.019,-394.175 633.519,-384.175 630.019,-394.175 637.019,-394.175"/>
<text text-anchor="middle" x="689.519" y="-405.8" font-family="Times New Roman,serif" font-size="14.00">971.6663602924677</text>
</g>
<!-- 3296544575651183754 -->
<g id="node4" class="node"><title>3296544575651183754</title>
<polygon fill="#ffffff" stroke="black" points="700.519,-297 566.519,-297 566.519,-261 700.519,-261 700.519,-297"/>
<text text-anchor="middle" x="633.519" y="-275.3" font-family="Times New Roman,serif" font-size="14.00">ER Sepsis Triage (1)</text>
</g>
<!-- &#45;8305476247514553090&#45;&gt;3296544575651183754 -->
<g id="edge6" class="edge"><title>&#45;8305476247514553090&#45;&gt;3296544575651183754</title>
<path fill="none" stroke="black" stroke-width="1.60989" d="M633.519,-347.799C633.519,-336.163 633.519,-320.548 633.519,-307.237"/>
<polygon fill="black" stroke="black" stroke-width="1.60989" points="637.019,-307.175 633.519,-297.175 630.019,-307.175 637.019,-307.175"/>
<text text-anchor="middle" x="689.519" y="-318.8" font-family="Times New Roman,serif" font-size="14.00">905.6494670659706</text>
</g>
<!-- &#45;8429177058128869877 -->
<g id="node6" class="node"><title>&#45;8429177058128869877</title>
<polygon fill="#ffffff" stroke="black" points="546.019,-384 431.019,-384 431.019,-348 546.019,-348 546.019,-384"/>
<text text-anchor="middle" x="488.519" y="-362.3" font-family="Times New Roman,serif" font-size="14.00">IV Antibiotics (1)</text>
</g>
<!-- &#45;8429177058128869877&#45;&gt;118450489566830562 -->
<g id="edge7" class="edge"><title>&#45;8429177058128869877&#45;&gt;118450489566830562</title>
<path fill="none" stroke="black" stroke-width="1.13709" d="M488.519,-347.799C488.519,-336.163 488.519,-320.548 488.519,-307.237"/>
<polygon fill="black" stroke="black" stroke-width="1.13709" points="492.019,-307.175 488.519,-297.175 485.019,-307.175 492.019,-307.175"/>
<text text-anchor="middle" x="544.519" y="-318.8" font-family="Times New Roman,serif" font-size="14.00">489.2413296541783</text>
</g>
<!-- 6215314419735287562 -->
<g id="node7" class="node"><title>6215314419735287562</title>
<polygon fill="#ffffff" stroke="black" points="533.519,-471 443.519,-471 443.519,-435 533.519,-435 533.519,-471"/>
<text text-anchor="middle" x="488.519" y="-449.3" font-family="Times New Roman,serif" font-size="14.00">IV Liquid (1)</text>
</g>
<!-- 6215314419735287562&#45;&gt;&#45;8429177058128869877 -->
<g id="edge8" class="edge"><title>6215314419735287562&#45;&gt;&#45;8429177058128869877</title>
<path fill="none" stroke="black" stroke-width="1.15039" d="M488.519,-434.799C488.519,-423.163 488.519,-407.548 488.519,-394.237"/>
<polygon fill="black" stroke="black" stroke-width="1.15039" points="492.019,-394.175 488.519,-384.175 485.019,-394.175 492.019,-394.175"/>
<text text-anchor="middle" x="544.519" y="-405.8" font-family="Times New Roman,serif" font-size="14.00">500.9610037645633</text>
</g>
<!-- &#45;5670009864185339888&#45;&gt;4941769122289558835 -->
<g id="edge9" class="edge"><title>&#45;5670009864185339888&#45;&gt;4941769122289558835</title>
<path fill="none" stroke="black" stroke-width="1.0403" d="M95.0412,-123.224C110.36,-135.8 130.19,-151.419 139.519,-156 168.309,-170.139 203.508,-179.077 230.461,-184.379"/>
<polygon fill="black" stroke="black" stroke-width="1.0403" points="229.883,-187.832 240.357,-186.236 231.174,-180.952 229.883,-187.832"/>
<text text-anchor="middle" x="199.019" y="-144.8" font-family="Times New Roman,serif" font-size="14.00">403.99707968216023</text>
</g>
<!-- &#45;5670009864185339888&#45;&gt;6570115252564267433 -->
<g id="edge10" class="edge"><title>&#45;5670009864185339888&#45;&gt;6570115252564267433</title>
<path fill="none" stroke="black" stroke-width="1.22299" d="M29.8769,-86.8871C13.2071,-77.9931 0.669527,-66.4011 11.5187,-54 36.9661,-24.9123 142.642,-18.9795 211.475,-18.3044"/>
<polygon fill="black" stroke="black" stroke-width="1.22299" points="211.791,-21.8026 221.769,-18.2395 211.747,-14.8027 211.791,-21.8026"/>
<text text-anchor="middle" x="67.5187" y="-57.8" font-family="Times New Roman,serif" font-size="14.00">564.8935866698795</text>
</g>
<!-- 6570115252564267433&#45;&gt;4941769122289558835 -->
<g id="edge11" class="edge"><title>6570115252564267433&#45;&gt;4941769122289558835</title>
<path fill="none" stroke="black" stroke-width="2.6" d="M322.252,-36.1523C365.52,-54.0524 418.036,-84.8222 395.519,-123 378.11,-152.517 342.784,-170.113 314.439,-179.985"/>
<polygon fill="black" stroke="black" stroke-width="2.6" points="313.157,-176.721 304.744,-183.161 315.337,-183.373 313.157,-176.721"/>
<text text-anchor="middle" x="454.519" y="-101.3" font-family="Times New Roman,serif" font-size="14.00">1777.65313076654</text>
</g>
<!-- 6570115252564267433&#45;&gt;&#45;5670009864185339888 -->
<g id="edge12" class="edge"><title>6570115252564267433&#45;&gt;&#45;5670009864185339888</title>
<path fill="none" stroke="black" stroke-width="1.07329" d="M221.768,-28.9847C198.221,-34.6426 170.255,-42.8554 146.519,-54 142.05,-56.0983 123.611,-68.9166 106.514,-81.0478"/>
<polygon fill="black" stroke="black" stroke-width="1.07329" points="104.413,-78.2475 98.2955,-86.898 108.472,-83.9502 104.413,-78.2475"/>
<text text-anchor="middle" x="202.519" y="-57.8" font-family="Times New Roman,serif" font-size="14.00">433.0558436962986</text>
</g>
<!-- 6570115252564267433&#45;&gt;6570115252564267433 -->
<g id="edge13" class="edge"><title>6570115252564267433&#45;&gt;6570115252564267433</title>
<path fill="none" stroke="black" stroke-width="1.10087" d="M323.303,-25.5746C333.626,-24.7495 341.019,-22.2246 341.019,-18 341.019,-15.3596 338.131,-13.3832 333.445,-12.0707"/>
<polygon fill="black" stroke="black" stroke-width="1.10087" points="333.734,-8.57199 323.303,-10.4254 332.613,-15.4817 333.734,-8.57199"/>
<text text-anchor="middle" x="400.519" y="-14.3" font-family="Times New Roman,serif" font-size="14.00">457.34198651206697</text>
</g>
</g>
</svg>
