<?xml version="1.0" encoding="UTF-8" standalone="no"?>
<!DOCTYPE svg PUBLIC "-//W3C//DTD SVG 1.1//EN"
 "http://www.w3.org/Graphics/SVG/1.1/DTD/svg11.dtd">
<!-- Generated by graphviz version 2.38.0 (20140413.2041)
 -->
<!-- Title: %3 Pages: 1 -->
<svg width="765pt" height="479pt"
 viewBox="0.00 0.00 765.49 479.00" xmlns="http://www.w3.org/2000/svg" xmlns:xlink="http://www.w3.org/1999/xlink">
<g id="graph0" class="graph" transform="scale(1 1) rotate(0) translate(4 475)">
<title>%3</title>
<!-- &#45;6760735685208204671 -->
<g id="node1" class="node"><title>&#45;6760735685208204671</title>
<polygon fill="#ffffff" stroke="black" points="552.992,-297 433.992,-297 433.992,-261 552.992,-261 552.992,-297"/>
<text text-anchor="middle" x="493.492" y="-275.3" font-family="Times New Roman,serif" font-size="14.00">Admission NC (1)</text>
</g>
<!-- 7850561497370058999 -->
<g id="node2" class="node"><title>7850561497370058999</title>
<polygon fill="#ffffff" stroke="black" points="304.492,-210 240.492,-210 240.492,-174 304.492,-174 304.492,-210"/>
<text text-anchor="middle" x="272.492" y="-188.3" font-family="Times New Roman,serif" font-size="14.00">CRP (1)</text>
</g>
<!-- &#45;6760735685208204671&#45;&gt;7850561497370058999 -->
<g id="edge1" class="edge"><title>&#45;6760735685208204671&#45;&gt;7850561497370058999</title>
<path fill="none" stroke="black" d="M449.035,-260.901C409.644,-245.751 352.566,-223.798 314.069,-208.991"/>
<polygon fill="black" stroke="black" points="315.294,-205.712 304.704,-205.389 312.781,-212.246 315.294,-205.712"/>
<text text-anchor="middle" x="452.492" y="-231.8" font-family="Times New Roman,serif" font-size="14.00">338.9619949764125</text>
</g>
<!-- 6179918396602481755 -->
<g id="node9" class="node"><title>6179918396602481755</title>
<polygon fill="#ffffff" stroke="black" points="322.992,-36 221.992,-36 221.992,-0 322.992,-0 322.992,-36"/>
<text text-anchor="middle" x="272.492" y="-14.3" font-family="Times New Roman,serif" font-size="14.00">Leucocytes (1)</text>
</g>
<!-- &#45;6760735685208204671&#45;&gt;6179918396602481755 -->
<g id="edge2" class="edge"><title>&#45;6760735685208204671&#45;&gt;6179918396602481755</title>
<path fill="none" stroke="black" stroke-width="1.21241" d="M504.809,-260.861C507.869,-255.376 510.799,-249.131 512.492,-243 530.961,-176.135 559.475,-142.222 517.492,-87 495.271,-57.7718 398.478,-37.8161 333.41,-27.4237"/>
<polygon fill="black" stroke="black" stroke-width="1.21241" points="333.676,-23.9229 323.256,-25.838 332.596,-30.8391 333.676,-23.9229"/>
<text text-anchor="middle" x="595.492" y="-144.8" font-family="Times New Roman,serif" font-size="14.00">528.6338536910704</text>
</g>
<!-- 1152587832168206417 -->
<g id="node8" class="node"><title>1152587832168206417</title>
<polygon fill="#ffffff" stroke="black" points="122.492,-123 24.4923,-123 24.4923,-87 122.492,-87 122.492,-123"/>
<text text-anchor="middle" x="73.4923" y="-101.3" font-family="Times New Roman,serif" font-size="14.00">LacticAcid (1)</text>
</g>
<!-- 7850561497370058999&#45;&gt;1152587832168206417 -->
<g id="edge3" class="edge"><title>7850561497370058999&#45;&gt;1152587832168206417</title>
<path fill="none" stroke="black" stroke-width="1.25927" d="M240.227,-191.828C175.81,-192.715 34.8298,-190.557 4.49226,-156 -4.87497,-145.33 2.4799,-135.633 15.335,-127.678"/>
<polygon fill="black" stroke="black" stroke-width="1.25927" points="17.3486,-130.567 24.4564,-122.71 14.0004,-124.42 17.3486,-130.567"/>
<text text-anchor="middle" x="60.4923" y="-144.8" font-family="Times New Roman,serif" font-size="14.00">570.4781430155293</text>
</g>
<!-- 7850561497370058999&#45;&gt;6179918396602481755 -->
<g id="edge4" class="edge"><title>7850561497370058999&#45;&gt;6179918396602481755</title>
<path fill="none" stroke="black" stroke-width="2.47501" d="M272.492,-173.879C272.492,-144.001 272.492,-82.1129 272.492,-46.2736"/>
<polygon fill="black" stroke="black" stroke-width="2.47501" points="275.992,-46.0516 272.492,-36.0516 268.992,-46.0516 275.992,-46.0516"/>
<text text-anchor="middle" x="328.492" y="-101.3" font-family="Times New Roman,serif" font-size="14.00">1656.078521128972</text>
</g>
<!-- &#45;2410219256766748193 -->
<g id="node3" class="node"><title>&#45;2410219256766748193</title>
<polygon fill="#ffffff" stroke="black" points="700.992,-471 575.992,-471 575.992,-435 700.992,-435 700.992,-471"/>
<text text-anchor="middle" x="638.492" y="-449.3" font-family="Times New Roman,serif" font-size="14.00">ER Registration (1)</text>
</g>
<!-- &#45;2872325205858232948 -->
<g id="node5" class="node"><title>&#45;2872325205858232948</title>
<polygon fill="#ffffff" stroke="black" points="684.992,-384 591.992,-384 591.992,-348 684.992,-348 684.992,-384"/>
<text text-anchor="middle" x="638.492" y="-362.3" font-family="Times New Roman,serif" font-size="14.00">ER Triage (1)</text>
</g>
<!-- &#45;2410219256766748193&#45;&gt;&#45;2872325205858232948 -->
<g id="edge5" class="edge"><title>&#45;2410219256766748193&#45;&gt;&#45;2872325205858232948</title>
<path fill="none" stroke="black" stroke-width="2.16958" d="M638.492,-434.799C638.492,-423.163 638.492,-407.548 638.492,-394.237"/>
<polygon fill="black" stroke="black" stroke-width="2.16958" points="641.992,-394.175 638.492,-384.175 634.992,-394.175 641.992,-394.175"/>
<text text-anchor="middle" x="697.992" y="-405.8" font-family="Times New Roman,serif" font-size="14.00">1383.3484071119697</text>
</g>
<!-- 8892003065059452103 -->
<g id="node4" class="node"><title>8892003065059452103</title>
<polygon fill="#ffffff" stroke="black" points="705.492,-297 571.492,-297 571.492,-261 705.492,-261 705.492,-297"/>
<text text-anchor="middle" x="638.492" y="-275.3" font-family="Times New Roman,serif" font-size="14.00">ER Sepsis Triage (1)</text>
</g>
<!-- &#45;2872325205858232948&#45;&gt;8892003065059452103 -->
<g id="edge6" class="edge"><title>&#45;2872325205858232948&#45;&gt;8892003065059452103</title>
<path fill="none" stroke="black" stroke-width="1.93299" d="M638.492,-347.799C638.492,-336.163 638.492,-320.548 638.492,-307.237"/>
<polygon fill="black" stroke="black" stroke-width="1.93299" points="641.992,-307.175 638.492,-297.175 634.992,-307.175 641.992,-307.175"/>
<text text-anchor="middle" x="691.492" y="-318.8" font-family="Times New Roman,serif" font-size="14.00">1172.07928734808</text>
</g>
<!-- &#45;6564841300794043563 -->
<g id="node6" class="node"><title>&#45;6564841300794043563</title>
<polygon fill="#ffffff" stroke="black" points="550.992,-384 435.992,-384 435.992,-348 550.992,-348 550.992,-384"/>
<text text-anchor="middle" x="493.492" y="-362.3" font-family="Times New Roman,serif" font-size="14.00">IV Antibiotics (1)</text>
</g>
<!-- &#45;6564841300794043563&#45;&gt;&#45;6760735685208204671 -->
<g id="edge7" class="edge"><title>&#45;6564841300794043563&#45;&gt;&#45;6760735685208204671</title>
<path fill="none" stroke="black" stroke-width="1.23833" d="M493.492,-347.799C493.492,-336.163 493.492,-320.548 493.492,-307.237"/>
<polygon fill="black" stroke="black" stroke-width="1.23833" points="496.992,-307.175 493.492,-297.175 489.992,-307.175 496.992,-307.175"/>
<text text-anchor="middle" x="549.492" y="-318.8" font-family="Times New Roman,serif" font-size="14.00">551.7821459120879</text>
</g>
<!-- &#45;1926219633770359302 -->
<g id="node7" class="node"><title>&#45;1926219633770359302</title>
<polygon fill="#ffffff" stroke="black" points="538.492,-471 448.492,-471 448.492,-435 538.492,-435 538.492,-471"/>
<text text-anchor="middle" x="493.492" y="-449.3" font-family="Times New Roman,serif" font-size="14.00">IV Liquid (1)</text>
</g>
<!-- &#45;1926219633770359302&#45;&gt;&#45;6564841300794043563 -->
<g id="edge8" class="edge"><title>&#45;1926219633770359302&#45;&gt;&#45;6564841300794043563</title>
<path fill="none" stroke="black" stroke-width="1.18232" d="M493.492,-434.799C493.492,-423.163 493.492,-407.548 493.492,-394.237"/>
<polygon fill="black" stroke="black" stroke-width="1.18232" points="496.992,-394.175 493.492,-384.175 489.992,-394.175 496.992,-394.175"/>
<text text-anchor="middle" x="552.992" y="-405.8" font-family="Times New Roman,serif" font-size="14.00">501.76411122009955</text>
</g>
<!-- 1152587832168206417&#45;&gt;7850561497370058999 -->
<g id="edge9" class="edge"><title>1152587832168206417&#45;&gt;7850561497370058999</title>
<path fill="none" stroke="black" stroke-width="1.08944" d="M94.3505,-123.218C109.916,-135.792 130.056,-151.409 139.492,-156 168.335,-170.033 203.531,-178.976 230.47,-184.307"/>
<polygon fill="black" stroke="black" stroke-width="1.08944" points="229.884,-187.758 240.36,-186.176 231.184,-180.88 229.884,-187.758"/>
<text text-anchor="middle" x="198.992" y="-144.8" font-family="Times New Roman,serif" font-size="14.00">418.82510646727906</text>
</g>
<!-- 1152587832168206417&#45;&gt;6179918396602481755 -->
<g id="edge10" class="edge"><title>1152587832168206417&#45;&gt;6179918396602481755</title>
<path fill="none" stroke="black" stroke-width="1.26079" d="M28.8477,-86.8848C12.1774,-77.9902 -0.359999,-66.3984 10.4923,-54 36.0787,-24.7682 142.42,-18.893 211.508,-18.2661"/>
<polygon fill="black" stroke="black" stroke-width="1.26079" points="211.857,-21.7643 221.838,-18.2085 211.818,-14.7644 211.857,-21.7643"/>
<text text-anchor="middle" x="63.4923" y="-57.8" font-family="Times New Roman,serif" font-size="14.00">571.835327532011</text>
</g>
<!-- 6179918396602481755&#45;&gt;7850561497370058999 -->
<g id="edge11" class="edge"><title>6179918396602481755&#45;&gt;7850561497370058999</title>
<path fill="none" stroke="black" stroke-width="2.6" d="M318.272,-36.0649C359.315,-54.2127 410.006,-85.4502 388.492,-123 372.575,-150.781 340.416,-168.313 313.988,-178.604"/>
<polygon fill="black" stroke="black" stroke-width="2.6" points="312.73,-175.337 304.552,-182.073 315.145,-181.907 312.73,-175.337"/>
<text text-anchor="middle" x="453.992" y="-101.3" font-family="Times New Roman,serif" font-size="14.00">1767.6931731352727</text>
</g>
<!-- 6179918396602481755&#45;&gt;1152587832168206417 -->
<g id="edge12" class="edge"><title>6179918396602481755&#45;&gt;1152587832168206417</title>
<path fill="none" stroke="black" stroke-width="1.15085" d="M221.898,-27.4568C196.347,-32.9202 165.364,-41.4124 139.492,-54 131.604,-57.8379 116.236,-69.3808 102.314,-80.4096"/>
<polygon fill="black" stroke="black" stroke-width="1.15085" points="99.9717,-77.801 94.3505,-86.7817 104.345,-83.2665 99.9717,-77.801"/>
<text text-anchor="middle" x="198.992" y="-57.8" font-family="Times New Roman,serif" font-size="14.00">473.66669790269617</text>
</g>
<!-- 6179918396602481755&#45;&gt;6179918396602481755 -->
<g id="edge13" class="edge"><title>6179918396602481755&#45;&gt;6179918396602481755</title>
<path fill="none" stroke="black" stroke-width="1.25464" d="M323.276,-25.5746C333.6,-24.7495 340.992,-22.2246 340.992,-18 340.992,-15.3596 338.105,-13.3832 333.418,-12.0707"/>
<polygon fill="black" stroke="black" stroke-width="1.25464" points="333.708,-8.57199 323.276,-10.4254 332.587,-15.4817 333.708,-8.57199"/>
<text text-anchor="middle" x="396.992" y="-14.3" font-family="Times New Roman,serif" font-size="14.00">566.3443432310199</text>
</g>
</g>
</svg>
