<?xml version="1.0" encoding="UTF-8" standalone="no"?>
<!DOCTYPE svg PUBLIC "-//W3C//DTD SVG 1.1//EN"
 "http://www.w3.org/Graphics/SVG/1.1/DTD/svg11.dtd">
<!-- Generated by graphviz version 2.38.0 (20140413.2041)
 -->
<!-- Title: %3 Pages: 1 -->
<svg width="761pt" height="479pt"
 viewBox="0.00 0.00 760.52 479.00" xmlns="http://www.w3.org/2000/svg" xmlns:xlink="http://www.w3.org/1999/xlink">
<g id="graph0" class="graph" transform="scale(1 1) rotate(0) translate(4 475)">
<title>%3</title>
<!-- 118450489566830562 -->
<g id="node1" class="node"><title>118450489566830562</title>
<polygon fill="#ffffff" stroke="black" points="548.019,-297 429.019,-297 429.019,-261 548.019,-261 548.019,-297"/>
<text text-anchor="middle" x="488.519" y="-275.3" font-family="Times New Roman,serif" font-size="14.00">Admission NC (1)</text>
</g>
<!-- 4941769122289558835 -->
<g id="node2" class="node"><title>4941769122289558835</title>
<polygon fill="#ffffff" stroke="black" points="304.519,-210 240.519,-210 240.519,-174 304.519,-174 304.519,-210"/>
<text text-anchor="middle" x="272.519" y="-188.3" font-family="Times New Roman,serif" font-size="14.00">CRP (1)</text>
</g>
<!-- 118450489566830562&#45;&gt;4941769122289558835 -->
<g id="edge1" class="edge"><title>118450489566830562&#45;&gt;4941769122289558835</title>
<path fill="none" stroke="black" stroke-width="1.02471" d="M445.068,-260.901C406.957,-245.904 351.907,-224.241 314.302,-209.442"/>
<polygon fill="black" stroke="black" stroke-width="1.02471" points="315.249,-206.054 304.662,-205.649 312.686,-212.568 315.249,-206.054"/>
<text text-anchor="middle" x="449.519" y="-231.8" font-family="Times New Roman,serif" font-size="14.00">369.2690214716631</text>
</g>
<!-- 6570115252564267433 -->
<g id="node9" class="node"><title>6570115252564267433</title>
<polygon fill="#ffffff" stroke="black" points="323.019,-36 222.019,-36 222.019,-0 323.019,-0 323.019,-36"/>
<text text-anchor="middle" x="272.519" y="-14.3" font-family="Times New Roman,serif" font-size="14.00">Leucocytes (1)</text>
</g>
<!-- 118450489566830562&#45;&gt;6570115252564267433 -->
<g id="edge2" class="edge"><title>118450489566830562&#45;&gt;6570115252564267433</title>
<path fill="none" stroke="black" stroke-width="1.0183" d="M501.345,-260.671C504.649,-255.278 507.765,-249.132 509.519,-243 528.584,-176.333 553.305,-142.334 511.519,-87 490.018,-58.5292 396.532,-38.4622 333.054,-27.8245"/>
<polygon fill="black" stroke="black" stroke-width="1.0183" points="333.575,-24.3631 323.14,-26.1983 332.442,-31.2708 333.575,-24.3631"/>
<text text-anchor="middle" x="594.019" y="-144.8" font-family="Times New Roman,serif" font-size="14.00">363.58372303074947</text>
</g>
<!-- &#45;5670009864185339888 -->
<g id="node8" class="node"><title>&#45;5670009864185339888</title>
<polygon fill="#ffffff" stroke="black" points="123.519,-123 25.5187,-123 25.5187,-87 123.519,-87 123.519,-123"/>
<text text-anchor="middle" x="74.5187" y="-101.3" font-family="Times New Roman,serif" font-size="14.00">LacticAcid (1)</text>
</g>
<!-- 4941769122289558835&#45;&gt;&#45;5670009864185339888 -->
<g id="edge3" class="edge"><title>4941769122289558835&#45;&gt;&#45;5670009864185339888</title>
<path fill="none" stroke="black" stroke-width="1.29395" d="M240.254,-191.828C175.836,-192.715 34.8562,-190.557 4.51866,-156 -5.10945,-145.033 2.81219,-135.153 16.2885,-127.128"/>
<polygon fill="black" stroke="black" stroke-width="1.29395" points="18.0791,-130.141 25.29,-122.378 14.8123,-123.95 18.0791,-130.141"/>
<text text-anchor="middle" x="60.5187" y="-144.8" font-family="Times New Roman,serif" font-size="14.00">607.9816191276082</text>
</g>
<!-- 4941769122289558835&#45;&gt;6570115252564267433 -->
<g id="edge4" class="edge"><title>4941769122289558835&#45;&gt;6570115252564267433</title>
<path fill="none" stroke="black" stroke-width="2.16667" d="M272.519,-173.879C272.519,-144.001 272.519,-82.1129 272.519,-46.2736"/>
<polygon fill="black" stroke="black" stroke-width="2.16667" points="276.019,-46.0516 272.519,-36.0516 269.019,-46.0516 276.019,-46.0516"/>
<text text-anchor="middle" x="325.519" y="-101.3" font-family="Times New Roman,serif" font-size="14.00">1381.76235376061</text>
</g>
<!-- &#45;1744131764726653331 -->
<g id="node3" class="node"><title>&#45;1744131764726653331</title>
<polygon fill="#ffffff" stroke="black" points="696.019,-471 571.019,-471 571.019,-435 696.019,-435 696.019,-471"/>
<text text-anchor="middle" x="633.519" y="-449.3" font-family="Times New Roman,serif" font-size="14.00">ER Registration (1)</text>
</g>
<!-- &#45;8305476247514553090 -->
<g id="node5" class="node"><title>&#45;8305476247514553090</title>
<polygon fill="#ffffff" stroke="black" points="680.019,-384 587.019,-384 587.019,-348 680.019,-348 680.019,-384"/>
<text text-anchor="middle" x="633.519" y="-362.3" font-family="Times New Roman,serif" font-size="14.00">ER Triage (1)</text>
</g>
<!-- &#45;1744131764726653331&#45;&gt;&#45;8305476247514553090 -->
<g id="edge5" class="edge"><title>&#45;1744131764726653331&#45;&gt;&#45;8305476247514553090</title>
<path fill="none" stroke="black" stroke-width="1.76874" d="M633.519,-434.799C633.519,-423.163 633.519,-407.548 633.519,-394.237"/>
<polygon fill="black" stroke="black" stroke-width="1.76874" points="637.019,-394.175 633.519,-384.175 630.019,-394.175 637.019,-394.175"/>
<text text-anchor="middle" x="693.019" y="-405.8" font-family="Times New Roman,serif" font-size="14.00">1028.9425832745937</text>
</g>
<!-- 3296544575651183754 -->
<g id="node4" class="node"><title>3296544575651183754</title>
<polygon fill="#ffffff" stroke="black" points="700.519,-297 566.519,-297 566.519,-261 700.519,-261 700.519,-297"/>
<text text-anchor="middle" x="633.519" y="-275.3" font-family="Times New Roman,serif" font-size="14.00">ER Sepsis Triage (1)</text>
</g>
<!-- &#45;8305476247514553090&#45;&gt;3296544575651183754 -->
<g id="edge6" class="edge"><title>&#45;8305476247514553090&#45;&gt;3296544575651183754</title>
<path fill="none" stroke="black" stroke-width="1.68437" d="M633.519,-347.799C633.519,-336.163 633.519,-320.548 633.519,-307.237"/>
<polygon fill="black" stroke="black" stroke-width="1.68437" points="637.019,-307.175 633.519,-297.175 630.019,-307.175 637.019,-307.175"/>
<text text-anchor="middle" x="689.519" y="-318.8" font-family="Times New Roman,serif" font-size="14.00">954.1452794461756</text>
</g>
<!-- &#45;8429177058128869877 -->
<g id="node6" class="node"><title>&#45;8429177058128869877</title>
<polygon fill="#ffffff" stroke="black" points="546.019,-384 431.019,-384 431.019,-348 546.019,-348 546.019,-384"/>
<text text-anchor="middle" x="488.519" y="-362.3" font-family="Times New Roman,serif" font-size="14.00">IV Antibiotics (1)</text>
</g>
<!-- &#45;8429177058128869877&#45;&gt;118450489566830562 -->
<g id="edge7" class="edge"><title>&#45;8429177058128869877&#45;&gt;118450489566830562</title>
<path fill="none" stroke="black" stroke-width="1.23107" d="M488.519,-347.799C488.519,-336.163 488.519,-320.548 488.519,-307.237"/>
<polygon fill="black" stroke="black" stroke-width="1.23107" points="492.019,-307.175 488.519,-297.175 485.019,-307.175 492.019,-307.175"/>
<text text-anchor="middle" x="544.519" y="-318.8" font-family="Times New Roman,serif" font-size="14.00">552.2371530194606</text>
</g>
<!-- 6215314419735287562 -->
<g id="node7" class="node"><title>6215314419735287562</title>
<polygon fill="#ffffff" stroke="black" points="533.519,-471 443.519,-471 443.519,-435 533.519,-435 533.519,-471"/>
<text text-anchor="middle" x="488.519" y="-449.3" font-family="Times New Roman,serif" font-size="14.00">IV Liquid (1)</text>
</g>
<!-- 6215314419735287562&#45;&gt;&#45;8429177058128869877 -->
<g id="edge8" class="edge"><title>6215314419735287562&#45;&gt;&#45;8429177058128869877</title>
<path fill="none" stroke="black" stroke-width="1.14936" d="M488.519,-434.799C488.519,-423.163 488.519,-407.548 488.519,-394.237"/>
<polygon fill="black" stroke="black" stroke-width="1.14936" points="492.019,-394.175 488.519,-384.175 485.019,-394.175 492.019,-394.175"/>
<text text-anchor="middle" x="544.519" y="-405.8" font-family="Times New Roman,serif" font-size="14.00">479.7855507940418</text>
</g>
<!-- &#45;5670009864185339888&#45;&gt;4941769122289558835 -->
<g id="edge9" class="edge"><title>&#45;5670009864185339888&#45;&gt;4941769122289558835</title>
<path fill="none" stroke="black" d="M95.0412,-123.224C110.36,-135.8 130.19,-151.419 139.519,-156 168.309,-170.139 203.508,-179.077 230.461,-184.379"/>
<polygon fill="black" stroke="black" points="229.883,-187.832 240.357,-186.236 231.174,-180.952 229.883,-187.832"/>
<text text-anchor="middle" x="199.019" y="-144.8" font-family="Times New Roman,serif" font-size="14.00">347.36201686509946</text>
</g>
<!-- &#45;5670009864185339888&#45;&gt;6570115252564267433 -->
<g id="edge10" class="edge"><title>&#45;5670009864185339888&#45;&gt;6570115252564267433</title>
<path fill="none" stroke="black" stroke-width="1.2189" d="M29.8769,-86.8871C13.2071,-77.9931 0.669527,-66.4011 11.5187,-54 36.9661,-24.9123 142.642,-18.9795 211.475,-18.3044"/>
<polygon fill="black" stroke="black" stroke-width="1.2189" points="211.791,-21.8026 221.769,-18.2395 211.747,-14.8027 211.791,-21.8026"/>
<text text-anchor="middle" x="67.5187" y="-57.8" font-family="Times New Roman,serif" font-size="14.00">541.4433800785858</text>
</g>
<!-- 6570115252564267433&#45;&gt;4941769122289558835 -->
<g id="edge11" class="edge"><title>6570115252564267433&#45;&gt;4941769122289558835</title>
<path fill="none" stroke="black" stroke-width="2.6" d="M321.276,-36.1243C344.202,-46.9188 369.345,-63.3696 382.519,-87 390.309,-100.975 390.309,-109.025 382.519,-123 367.946,-149.141 338.723,-166.496 314.059,-177.127"/>
<polygon fill="black" stroke="black" stroke-width="2.6" points="312.465,-173.997 304.523,-181.01 315.105,-180.48 312.465,-173.997"/>
<text text-anchor="middle" x="448.019" y="-101.3" font-family="Times New Roman,serif" font-size="14.00">1765.9603790742385</text>
</g>
<!-- 6570115252564267433&#45;&gt;&#45;5670009864185339888 -->
<g id="edge12" class="edge"><title>6570115252564267433&#45;&gt;&#45;5670009864185339888</title>
<path fill="none" stroke="black" stroke-width="1.10412" d="M221.768,-28.9847C198.221,-34.6426 170.255,-42.8554 146.519,-54 142.05,-56.0983 123.611,-68.9166 106.514,-81.0478"/>
<polygon fill="black" stroke="black" stroke-width="1.10412" points="104.413,-78.2475 98.2955,-86.898 108.472,-83.9502 104.413,-78.2475"/>
<text text-anchor="middle" x="202.519" y="-57.8" font-family="Times New Roman,serif" font-size="14.00">439.6750462154234</text>
</g>
<!-- 6570115252564267433&#45;&gt;6570115252564267433 -->
<g id="edge13" class="edge"><title>6570115252564267433&#45;&gt;6570115252564267433</title>
<path fill="none" stroke="black" stroke-width="1.11202" d="M323.303,-25.5746C333.626,-24.7495 341.019,-22.2246 341.019,-18 341.019,-15.3596 338.131,-13.3832 333.445,-12.0707"/>
<polygon fill="black" stroke="black" stroke-width="1.11202" points="333.734,-8.57199 323.303,-10.4254 332.613,-15.4817 333.734,-8.57199"/>
<text text-anchor="middle" x="394.019" y="-14.3" font-family="Times New Roman,serif" font-size="14.00">446.677266469389</text>
</g>
</g>
</svg>
