<?xml version="1.0" encoding="UTF-8" standalone="no"?>
<!DOCTYPE svg PUBLIC "-//W3C//DTD SVG 1.1//EN"
 "http://www.w3.org/Graphics/SVG/1.1/DTD/svg11.dtd">
<!-- Generated by graphviz version 2.38.0 (20140413.2041)
 -->
<!-- Title: %3 Pages: 1 -->
<svg width="763pt" height="479pt"
 viewBox="0.00 0.00 763.41 479.00" xmlns="http://www.w3.org/2000/svg" xmlns:xlink="http://www.w3.org/1999/xlink">
<g id="graph0" class="graph" transform="scale(1 1) rotate(0) translate(4 475)">
<title>%3</title>
<!-- 3703627156728642698 -->
<g id="node1" class="node"><title>3703627156728642698</title>
<polygon fill="#ffffff" stroke="black" points="557.909,-297 438.909,-297 438.909,-261 557.909,-261 557.909,-297"/>
<text text-anchor="middle" x="498.409" y="-275.3" font-family="Times New Roman,serif" font-size="14.00">Admission NC (1)</text>
</g>
<!-- 3579705282704473787 -->
<g id="node2" class="node"><title>3579705282704473787</title>
<polygon fill="#ffffff" stroke="black" points="304.409,-210 240.409,-210 240.409,-174 304.409,-174 304.409,-210"/>
<text text-anchor="middle" x="272.409" y="-188.3" font-family="Times New Roman,serif" font-size="14.00">CRP (1)</text>
</g>
<!-- 3703627156728642698&#45;&gt;3579705282704473787 -->
<g id="edge1" class="edge"><title>3703627156728642698&#45;&gt;3579705282704473787</title>
<path fill="none" stroke="black" d="M452.947,-260.901C412.426,-245.661 353.606,-223.538 314.232,-208.73"/>
<polygon fill="black" stroke="black" points="315.255,-205.375 304.663,-205.131 312.791,-211.927 315.255,-205.375"/>
<text text-anchor="middle" x="455.409" y="-231.8" font-family="Times New Roman,serif" font-size="14.00">369.2744183769417</text>
</g>
<!-- &#45;755878416217562554 -->
<g id="node9" class="node"><title>&#45;755878416217562554</title>
<polygon fill="#ffffff" stroke="black" points="322.909,-36 221.909,-36 221.909,-0 322.909,-0 322.909,-36"/>
<text text-anchor="middle" x="272.409" y="-14.3" font-family="Times New Roman,serif" font-size="14.00">Leucocytes (1)</text>
</g>
<!-- 3703627156728642698&#45;&gt;&#45;755878416217562554 -->
<g id="edge2" class="edge"><title>3703627156728642698&#45;&gt;&#45;755878416217562554</title>
<path fill="none" stroke="black" stroke-width="1.04636" d="M508.158,-260.857C527.302,-224.662 564.599,-139.472 524.409,-87 501.28,-56.8023 400.112,-36.9672 333.206,-26.8902"/>
<polygon fill="black" stroke="black" stroke-width="1.04636" points="333.591,-23.4093 323.188,-25.4153 332.572,-30.3346 333.591,-23.4093"/>
<text text-anchor="middle" x="598.409" y="-144.8" font-family="Times New Roman,serif" font-size="14.00">410.0480002462718</text>
</g>
<!-- 8066172473611450852 -->
<g id="node8" class="node"><title>8066172473611450852</title>
<polygon fill="#ffffff" stroke="black" points="126.409,-123 28.4093,-123 28.4093,-87 126.409,-87 126.409,-123"/>
<text text-anchor="middle" x="77.4093" y="-101.3" font-family="Times New Roman,serif" font-size="14.00">LacticAcid (1)</text>
</g>
<!-- 3579705282704473787&#45;&gt;8066172473611450852 -->
<g id="edge3" class="edge"><title>3579705282704473787&#45;&gt;8066172473611450852</title>
<path fill="none" stroke="black" stroke-width="1.29505" d="M240.275,-191.581C178.33,-191.94 45.9725,-188.751 17.4093,-156 8.79222,-146.119 15.243,-136.57 26.609,-128.511"/>
<polygon fill="black" stroke="black" stroke-width="1.29505" points="28.5106,-131.45 35.1383,-123.184 24.8026,-125.513 28.5106,-131.45"/>
<text text-anchor="middle" x="73.4093" y="-144.8" font-family="Times New Roman,serif" font-size="14.00">628.7835306666219</text>
</g>
<!-- 3579705282704473787&#45;&gt;&#45;755878416217562554 -->
<g id="edge4" class="edge"><title>3579705282704473787&#45;&gt;&#45;755878416217562554</title>
<path fill="none" stroke="black" stroke-width="2.22132" d="M272.409,-173.879C272.409,-144.001 272.409,-82.1129 272.409,-46.2736"/>
<polygon fill="black" stroke="black" stroke-width="2.22132" points="275.909,-46.0516 272.409,-36.0516 268.909,-46.0516 275.909,-46.0516"/>
<text text-anchor="middle" x="331.909" y="-101.3" font-family="Times New Roman,serif" font-size="14.00">1443.4857036401909</text>
</g>
<!-- &#45;6320656248013813873 -->
<g id="node3" class="node"><title>&#45;6320656248013813873</title>
<polygon fill="#ffffff" stroke="black" points="705.909,-471 580.909,-471 580.909,-435 705.909,-435 705.909,-471"/>
<text text-anchor="middle" x="643.409" y="-449.3" font-family="Times New Roman,serif" font-size="14.00">ER Registration (1)</text>
</g>
<!-- 2377219762996478470 -->
<g id="node5" class="node"><title>2377219762996478470</title>
<polygon fill="#ffffff" stroke="black" points="689.909,-384 596.909,-384 596.909,-348 689.909,-348 689.909,-384"/>
<text text-anchor="middle" x="643.409" y="-362.3" font-family="Times New Roman,serif" font-size="14.00">ER Triage (1)</text>
</g>
<!-- &#45;6320656248013813873&#45;&gt;2377219762996478470 -->
<g id="edge5" class="edge"><title>&#45;6320656248013813873&#45;&gt;2377219762996478470</title>
<path fill="none" stroke="black" stroke-width="1.68811" d="M643.409,-434.799C643.409,-423.163 643.409,-407.548 643.409,-394.237"/>
<polygon fill="black" stroke="black" stroke-width="1.68811" points="646.909,-394.175 643.409,-384.175 639.909,-394.175 646.909,-394.175"/>
<text text-anchor="middle" x="699.409" y="-405.8" font-family="Times New Roman,serif" font-size="14.00">974.5034520997136</text>
</g>
<!-- 7430045975075819265 -->
<g id="node4" class="node"><title>7430045975075819265</title>
<polygon fill="#ffffff" stroke="black" points="710.409,-297 576.409,-297 576.409,-261 710.409,-261 710.409,-297"/>
<text text-anchor="middle" x="643.409" y="-275.3" font-family="Times New Roman,serif" font-size="14.00">ER Sepsis Triage (1)</text>
</g>
<!-- 2377219762996478470&#45;&gt;7430045975075819265 -->
<g id="edge6" class="edge"><title>2377219762996478470&#45;&gt;7430045975075819265</title>
<path fill="none" stroke="black" stroke-width="1.60937" d="M643.409,-347.799C643.409,-336.163 643.409,-320.548 643.409,-307.237"/>
<polygon fill="black" stroke="black" stroke-width="1.60937" points="646.909,-307.175 643.409,-297.175 639.909,-307.175 646.909,-307.175"/>
<text text-anchor="middle" x="699.409" y="-318.8" font-family="Times New Roman,serif" font-size="14.00">905.2426822125661</text>
</g>
<!-- &#45;5705463351445563725 -->
<g id="node6" class="node"><title>&#45;5705463351445563725</title>
<polygon fill="#ffffff" stroke="black" points="555.909,-384 440.909,-384 440.909,-348 555.909,-348 555.909,-384"/>
<text text-anchor="middle" x="498.409" y="-362.3" font-family="Times New Roman,serif" font-size="14.00">IV Antibiotics (1)</text>
</g>
<!-- &#45;5705463351445563725&#45;&gt;3703627156728642698 -->
<g id="edge7" class="edge"><title>&#45;5705463351445563725&#45;&gt;3703627156728642698</title>
<path fill="none" stroke="black" stroke-width="1.1412" d="M498.409,-347.799C498.409,-336.163 498.409,-320.548 498.409,-307.237"/>
<polygon fill="black" stroke="black" stroke-width="1.1412" points="501.909,-307.175 498.409,-297.175 494.909,-307.175 501.909,-307.175"/>
<text text-anchor="middle" x="554.409" y="-318.8" font-family="Times New Roman,serif" font-size="14.00">493.4691707132597</text>
</g>
<!-- &#45;3862139582344886855 -->
<g id="node7" class="node"><title>&#45;3862139582344886855</title>
<polygon fill="#ffffff" stroke="black" points="543.409,-471 453.409,-471 453.409,-435 543.409,-435 543.409,-471"/>
<text text-anchor="middle" x="498.409" y="-449.3" font-family="Times New Roman,serif" font-size="14.00">IV Liquid (1)</text>
</g>
<!-- &#45;3862139582344886855&#45;&gt;&#45;5705463351445563725 -->
<g id="edge8" class="edge"><title>&#45;3862139582344886855&#45;&gt;&#45;5705463351445563725</title>
<path fill="none" stroke="black" stroke-width="1.14922" d="M498.409,-434.799C498.409,-423.163 498.409,-407.548 498.409,-394.237"/>
<polygon fill="black" stroke="black" stroke-width="1.14922" points="501.909,-394.175 498.409,-384.175 494.909,-394.175 501.909,-394.175"/>
<text text-anchor="middle" x="554.409" y="-405.8" font-family="Times New Roman,serif" font-size="14.00">500.5184704077428</text>
</g>
<!-- 8066172473611450852&#45;&gt;3579705282704473787 -->
<g id="edge9" class="edge"><title>8066172473611450852&#45;&gt;3579705282704473787</title>
<path fill="none" stroke="black" stroke-width="1.04283" d="M102.99,-123.185C124.18,-137.399 151.044,-155.364 152.409,-156 177.257,-167.573 206.798,-176.247 230.352,-182.064"/>
<polygon fill="black" stroke="black" stroke-width="1.04283" points="229.841,-185.541 240.38,-184.459 231.467,-178.732 229.841,-185.541"/>
<text text-anchor="middle" x="205.409" y="-144.8" font-family="Times New Roman,serif" font-size="14.00">406.945730170017</text>
</g>
<!-- 8066172473611450852&#45;&gt;&#45;755878416217562554 -->
<g id="edge10" class="edge"><title>8066172473611450852&#45;&gt;&#45;755878416217562554</title>
<path fill="none" stroke="black" stroke-width="1.22411" d="M28.182,-88.8198C8.04485,-80.0995 -7.95475,-68.0837 4.40929,-54 30.8168,-23.9195 141.057,-18.3878 211.662,-18.0442"/>
<polygon fill="black" stroke="black" stroke-width="1.22411" points="211.782,-21.5441 221.777,-18.0289 211.772,-14.5441 211.782,-21.5441"/>
<text text-anchor="middle" x="60.4093" y="-57.8" font-family="Times New Roman,serif" font-size="14.00">566.3867829662436</text>
</g>
<!-- &#45;755878416217562554&#45;&gt;3579705282704473787 -->
<g id="edge11" class="edge"><title>&#45;755878416217562554&#45;&gt;3579705282704473787</title>
<path fill="none" stroke="black" stroke-width="2.6" d="M322.143,-36.1523C365.411,-54.0524 417.927,-84.8222 395.409,-123 378,-152.517 342.674,-170.113 314.329,-179.985"/>
<polygon fill="black" stroke="black" stroke-width="2.6" points="313.048,-176.721 304.635,-183.161 315.228,-183.373 313.048,-176.721"/>
<text text-anchor="middle" x="460.909" y="-101.3" font-family="Times New Roman,serif" font-size="14.00">1776.5501820787479</text>
</g>
<!-- &#45;755878416217562554&#45;&gt;8066172473611450852 -->
<g id="edge12" class="edge"><title>&#45;755878416217562554&#45;&gt;8066172473611450852</title>
<path fill="none" stroke="black" stroke-width="1.08577" d="M221.652,-27.1283C196.059,-32.5064 165.087,-41.0215 139.409,-54 131.949,-57.7709 117.706,-69.1328 104.751,-80.0742"/>
<polygon fill="black" stroke="black" stroke-width="1.08577" points="102.253,-77.6044 96.9233,-86.7609 106.8,-82.9269 102.253,-77.6044"/>
<text text-anchor="middle" x="198.909" y="-57.8" font-family="Times New Roman,serif" font-size="14.00">444.70963407507435</text>
</g>
<!-- &#45;755878416217562554&#45;&gt;&#45;755878416217562554 -->
<g id="edge13" class="edge"><title>&#45;755878416217562554&#45;&gt;&#45;755878416217562554</title>
<path fill="none" stroke="black" stroke-width="1.1062" d="M323.193,-25.5746C333.517,-24.7495 340.909,-22.2246 340.909,-18 340.909,-15.3596 338.022,-13.3832 333.335,-12.0707"/>
<polygon fill="black" stroke="black" stroke-width="1.1062" points="333.625,-8.57199 323.193,-10.4254 332.504,-15.4817 333.625,-8.57199"/>
<text text-anchor="middle" x="396.909" y="-14.3" font-family="Times New Roman,serif" font-size="14.00">462.6796774924384</text>
</g>
</g>
</svg>
