<?xml version="1.0" encoding="UTF-8" standalone="no"?>
<!DOCTYPE svg PUBLIC "-//W3C//DTD SVG 1.1//EN"
 "http://www.w3.org/Graphics/SVG/1.1/DTD/svg11.dtd">
<!-- Generated by graphviz version 2.38.0 (20140413.2041)
 -->
<!-- Title: %3 Pages: 1 -->
<svg width="751pt" height="479pt"
 viewBox="0.00 0.00 751.27 479.00" xmlns="http://www.w3.org/2000/svg" xmlns:xlink="http://www.w3.org/1999/xlink">
<g id="graph0" class="graph" transform="scale(1 1) rotate(0) translate(4 475)">
<title>%3</title>
<!-- 9118780525858573852 -->
<g id="node1" class="node"><title>9118780525858573852</title>
<polygon fill="#ffffff" stroke="black" points="545.772,-297 426.772,-297 426.772,-261 545.772,-261 545.772,-297"/>
<text text-anchor="middle" x="486.272" y="-275.3" font-family="Times New Roman,serif" font-size="14.00">Admission NC (1)</text>
</g>
<!-- 8794229938327540079 -->
<g id="node2" class="node"><title>8794229938327540079</title>
<polygon fill="#ffffff" stroke="black" points="297.272,-210 233.272,-210 233.272,-174 297.272,-174 297.272,-210"/>
<text text-anchor="middle" x="265.272" y="-188.3" font-family="Times New Roman,serif" font-size="14.00">CRP (1)</text>
</g>
<!-- 9118780525858573852&#45;&gt;8794229938327540079 -->
<g id="edge1" class="edge"><title>9118780525858573852&#45;&gt;8794229938327540079</title>
<path fill="none" stroke="black" d="M441.815,-260.901C402.424,-245.751 345.346,-223.798 306.849,-208.991"/>
<polygon fill="black" stroke="black" points="308.074,-205.712 297.484,-205.389 305.561,-212.246 308.074,-205.712"/>
<text text-anchor="middle" x="448.772" y="-231.8" font-family="Times New Roman,serif" font-size="14.00">371.99208380629346</text>
</g>
<!-- &#45;4990305070490083274 -->
<g id="node9" class="node"><title>&#45;4990305070490083274</title>
<polygon fill="#ffffff" stroke="black" points="315.772,-36 214.772,-36 214.772,-0 315.772,-0 315.772,-36"/>
<text text-anchor="middle" x="265.272" y="-14.3" font-family="Times New Roman,serif" font-size="14.00">Leucocytes (1)</text>
</g>
<!-- 9118780525858573852&#45;&gt;&#45;4990305070490083274 -->
<g id="edge2" class="edge"><title>9118780525858573852&#45;&gt;&#45;4990305070490083274</title>
<path fill="none" stroke="black" stroke-width="1.01476" d="M502.465,-260.735C506.454,-255.436 510.18,-249.324 512.272,-243 526.707,-199.363 643.209,-259.309 510.272,-87 487.845,-57.9301 391.113,-37.9269 326.114,-27.482"/>
<polygon fill="black" stroke="black" stroke-width="1.01476" points="326.393,-23.9829 315.971,-25.8877 325.306,-30.898 326.393,-23.9829"/>
<text text-anchor="middle" x="616.772" y="-144.8" font-family="Times New Roman,serif" font-size="14.00">385.00297251345893</text>
</g>
<!-- 5659693541288529527 -->
<g id="node8" class="node"><title>5659693541288529527</title>
<polygon fill="#ffffff" stroke="black" points="122.272,-123 24.2722,-123 24.2722,-87 122.272,-87 122.272,-123"/>
<text text-anchor="middle" x="73.2722" y="-101.3" font-family="Times New Roman,serif" font-size="14.00">LacticAcid (1)</text>
</g>
<!-- 8794229938327540079&#45;&gt;5659693541288529527 -->
<g id="edge3" class="edge"><title>8794229938327540079&#45;&gt;5659693541288529527</title>
<path fill="none" stroke="black" stroke-width="1.29072" d="M233.138,-191.581C171.193,-191.94 38.8354,-188.751 10.2722,-156 1.47292,-145.91 8.10082,-136.365 19.8348,-128.372"/>
<polygon fill="black" stroke="black" stroke-width="1.29072" points="21.8636,-131.237 28.6472,-123.098 18.269,-125.23 21.8636,-131.237"/>
<text text-anchor="middle" x="63.2722" y="-144.8" font-family="Times New Roman,serif" font-size="14.00">628.299307607984</text>
</g>
<!-- 8794229938327540079&#45;&gt;&#45;4990305070490083274 -->
<g id="edge4" class="edge"><title>8794229938327540079&#45;&gt;&#45;4990305070490083274</title>
<path fill="none" stroke="black" stroke-width="2.18963" d="M265.272,-173.879C265.272,-144.001 265.272,-82.1129 265.272,-46.2736"/>
<polygon fill="black" stroke="black" stroke-width="2.18963" points="268.772,-46.0516 265.272,-36.0516 261.772,-46.0516 268.772,-46.0516"/>
<text text-anchor="middle" x="321.272" y="-101.3" font-family="Times New Roman,serif" font-size="14.00">1420.790040951716</text>
</g>
<!-- 4941573644585563234 -->
<g id="node3" class="node"><title>4941573644585563234</title>
<polygon fill="#ffffff" stroke="black" points="693.772,-471 568.772,-471 568.772,-435 693.772,-435 693.772,-471"/>
<text text-anchor="middle" x="631.272" y="-449.3" font-family="Times New Roman,serif" font-size="14.00">ER Registration (1)</text>
</g>
<!-- 7781181950460006610 -->
<g id="node5" class="node"><title>7781181950460006610</title>
<polygon fill="#ffffff" stroke="black" points="677.772,-384 584.772,-384 584.772,-348 677.772,-348 677.772,-384"/>
<text text-anchor="middle" x="631.272" y="-362.3" font-family="Times New Roman,serif" font-size="14.00">ER Triage (1)</text>
</g>
<!-- 4941573644585563234&#45;&gt;7781181950460006610 -->
<g id="edge5" class="edge"><title>4941573644585563234&#45;&gt;7781181950460006610</title>
<path fill="none" stroke="black" stroke-width="1.66231" d="M631.272,-434.799C631.272,-423.163 631.272,-407.548 631.272,-394.237"/>
<polygon fill="black" stroke="black" stroke-width="1.66231" points="634.772,-394.175 631.272,-384.175 627.772,-394.175 634.772,-394.175"/>
<text text-anchor="middle" x="687.272" y="-405.8" font-family="Times New Roman,serif" font-size="14.00">955.8956939481825</text>
</g>
<!-- &#45;1916228938975785919 -->
<g id="node4" class="node"><title>&#45;1916228938975785919</title>
<polygon fill="#ffffff" stroke="black" points="698.272,-297 564.272,-297 564.272,-261 698.272,-261 698.272,-297"/>
<text text-anchor="middle" x="631.272" y="-275.3" font-family="Times New Roman,serif" font-size="14.00">ER Sepsis Triage (1)</text>
</g>
<!-- 7781181950460006610&#45;&gt;&#45;1916228938975785919 -->
<g id="edge6" class="edge"><title>7781181950460006610&#45;&gt;&#45;1916228938975785919</title>
<path fill="none" stroke="black" stroke-width="1.60991" d="M631.272,-347.799C631.272,-336.163 631.272,-320.548 631.272,-307.237"/>
<polygon fill="black" stroke="black" stroke-width="1.60991" points="634.772,-307.175 631.272,-297.175 627.772,-307.175 634.772,-307.175"/>
<text text-anchor="middle" x="687.272" y="-318.8" font-family="Times New Roman,serif" font-size="14.00">909.6937468129602</text>
</g>
<!-- 1341266047991071662 -->
<g id="node6" class="node"><title>1341266047991071662</title>
<polygon fill="#ffffff" stroke="black" points="543.772,-384 428.772,-384 428.772,-348 543.772,-348 543.772,-384"/>
<text text-anchor="middle" x="486.272" y="-362.3" font-family="Times New Roman,serif" font-size="14.00">IV Antibiotics (1)</text>
</g>
<!-- 1341266047991071662&#45;&gt;9118780525858573852 -->
<g id="edge7" class="edge"><title>1341266047991071662&#45;&gt;9118780525858573852</title>
<path fill="none" stroke="black" stroke-width="1.13217" d="M486.272,-347.799C486.272,-336.163 486.272,-320.548 486.272,-307.237"/>
<polygon fill="black" stroke="black" stroke-width="1.13217" points="489.772,-307.175 486.272,-297.175 482.772,-307.175 489.772,-307.175"/>
<text text-anchor="middle" x="542.272" y="-318.8" font-family="Times New Roman,serif" font-size="14.00">488.5159005058175</text>
</g>
<!-- 1513237216211266658 -->
<g id="node7" class="node"><title>1513237216211266658</title>
<polygon fill="#ffffff" stroke="black" points="531.272,-471 441.272,-471 441.272,-435 531.272,-435 531.272,-471"/>
<text text-anchor="middle" x="486.272" y="-449.3" font-family="Times New Roman,serif" font-size="14.00">IV Liquid (1)</text>
</g>
<!-- 1513237216211266658&#45;&gt;1341266047991071662 -->
<g id="edge8" class="edge"><title>1513237216211266658&#45;&gt;1341266047991071662</title>
<path fill="none" stroke="black" stroke-width="1.14678" d="M486.272,-434.799C486.272,-423.163 486.272,-407.548 486.272,-394.237"/>
<polygon fill="black" stroke="black" stroke-width="1.14678" points="489.772,-394.175 486.272,-384.175 482.772,-394.175 489.772,-394.175"/>
<text text-anchor="middle" x="545.772" y="-405.8" font-family="Times New Roman,serif" font-size="14.00">501.39115833701635</text>
</g>
<!-- 5659693541288529527&#45;&gt;8794229938327540079 -->
<g id="edge9" class="edge"><title>5659693541288529527&#45;&gt;8794229938327540079</title>
<path fill="none" stroke="black" stroke-width="1.03499" d="M94.1479,-123.183C109.723,-135.736 129.867,-151.345 139.272,-156 165.829,-169.145 198.058,-177.984 223.272,-183.491"/>
<polygon fill="black" stroke="black" stroke-width="1.03499" points="222.757,-186.959 233.262,-185.58 224.19,-180.107 222.757,-186.959"/>
<text text-anchor="middle" x="195.272" y="-144.8" font-family="Times New Roman,serif" font-size="14.00">402.8400425201814</text>
</g>
<!-- 5659693541288529527&#45;&gt;&#45;4990305070490083274 -->
<g id="edge10" class="edge"><title>5659693541288529527&#45;&gt;&#45;4990305070490083274</title>
<path fill="none" stroke="black" stroke-width="1.20791" d="M24.2562,-87.3069C6.30868,-78.5904 -7.12446,-67.027 4.27222,-54 29.7197,-24.9123 135.395,-18.9795 204.229,-18.3044"/>
<polygon fill="black" stroke="black" stroke-width="1.20791" points="204.545,-21.8026 214.522,-18.2395 204.501,-14.8027 204.545,-21.8026"/>
<text text-anchor="middle" x="60.2722" y="-57.8" font-family="Times New Roman,serif" font-size="14.00">555.2869795271921</text>
</g>
<!-- &#45;4990305070490083274&#45;&gt;8794229938327540079 -->
<g id="edge11" class="edge"><title>&#45;4990305070490083274&#45;&gt;8794229938327540079</title>
<path fill="none" stroke="black" stroke-width="2.6" d="M311.052,-36.0649C352.095,-54.2127 402.786,-85.4502 381.272,-123 365.355,-150.781 333.196,-168.313 306.768,-178.604"/>
<polygon fill="black" stroke="black" stroke-width="2.6" points="305.51,-175.337 297.332,-182.073 307.925,-181.907 305.51,-175.337"/>
<text text-anchor="middle" x="446.772" y="-101.3" font-family="Times New Roman,serif" font-size="14.00">1782.5760140058744</text>
</g>
<!-- &#45;4990305070490083274&#45;&gt;5659693541288529527 -->
<g id="edge12" class="edge"><title>&#45;4990305070490083274&#45;&gt;5659693541288529527</title>
<path fill="none" stroke="black" stroke-width="1.03744" d="M214.615,-28.4714C190.958,-34.0352 162.875,-42.3168 139.272,-54 131.41,-57.8916 116.044,-69.4369 102.115,-80.4537"/>
<polygon fill="black" stroke="black" stroke-width="1.03744" points="99.7772,-77.8416 94.1479,-86.8172 104.146,-83.3111 99.7772,-77.8416"/>
<text text-anchor="middle" x="195.272" y="-57.8" font-family="Times New Roman,serif" font-size="14.00">404.9985787471226</text>
</g>
<!-- &#45;4990305070490083274&#45;&gt;&#45;4990305070490083274 -->
<g id="edge13" class="edge"><title>&#45;4990305070490083274&#45;&gt;&#45;4990305070490083274</title>
<path fill="none" stroke="black" stroke-width="1.08962" d="M316.056,-25.5746C326.38,-24.7495 333.772,-22.2246 333.772,-18 333.772,-15.3596 330.885,-13.3832 326.198,-12.0707"/>
<polygon fill="black" stroke="black" stroke-width="1.08962" points="326.488,-8.57199 316.056,-10.4254 325.367,-15.4817 326.488,-8.57199"/>
<text text-anchor="middle" x="386.772" y="-14.3" font-family="Times New Roman,serif" font-size="14.00">451.001797012464</text>
</g>
</g>
</svg>
