<?xml version="1.0" encoding="UTF-8" standalone="no"?>
<!DOCTYPE svg PUBLIC "-//W3C//DTD SVG 1.1//EN"
 "http://www.w3.org/Graphics/SVG/1.1/DTD/svg11.dtd">
<!-- Generated by graphviz version 2.38.0 (20140413.2041)
 -->
<!-- Title: %3 Pages: 1 -->
<svg width="759pt" height="479pt"
 viewBox="0.00 0.00 758.58 479.00" xmlns="http://www.w3.org/2000/svg" xmlns:xlink="http://www.w3.org/1999/xlink">
<g id="graph0" class="graph" transform="scale(1 1) rotate(0) translate(4 475)">
<title>%3</title>
<!-- &#45;6760735685208204671 -->
<g id="node1" class="node"><title>&#45;6760735685208204671</title>
<polygon fill="#ffffff" stroke="black" points="553.077,-297 434.077,-297 434.077,-261 553.077,-261 553.077,-297"/>
<text text-anchor="middle" x="493.577" y="-275.3" font-family="Times New Roman,serif" font-size="14.00">Admission NC (1)</text>
</g>
<!-- 7850561497370058999 -->
<g id="node2" class="node"><title>7850561497370058999</title>
<polygon fill="#ffffff" stroke="black" points="304.577,-210 240.577,-210 240.577,-174 304.577,-174 304.577,-210"/>
<text text-anchor="middle" x="272.577" y="-188.3" font-family="Times New Roman,serif" font-size="14.00">CRP (1)</text>
</g>
<!-- &#45;6760735685208204671&#45;&gt;7850561497370058999 -->
<g id="edge1" class="edge"><title>&#45;6760735685208204671&#45;&gt;7850561497370058999</title>
<path fill="none" stroke="black" d="M449.12,-260.901C409.729,-245.751 352.651,-223.798 314.153,-208.991"/>
<polygon fill="black" stroke="black" points="315.378,-205.712 304.788,-205.389 312.865,-212.246 315.378,-205.712"/>
<text text-anchor="middle" x="456.077" y="-231.8" font-family="Times New Roman,serif" font-size="14.00">366.10288152946885</text>
</g>
<!-- 6179918396602481755 -->
<g id="node9" class="node"><title>6179918396602481755</title>
<polygon fill="#ffffff" stroke="black" points="323.077,-36 222.077,-36 222.077,-0 323.077,-0 323.077,-36"/>
<text text-anchor="middle" x="272.577" y="-14.3" font-family="Times New Roman,serif" font-size="14.00">Leucocytes (1)</text>
</g>
<!-- &#45;6760735685208204671&#45;&gt;6179918396602481755 -->
<g id="edge2" class="edge"><title>&#45;6760735685208204671&#45;&gt;6179918396602481755</title>
<path fill="none" stroke="black" stroke-width="1.003" d="M509.769,-260.735C513.759,-255.436 517.485,-249.324 519.577,-243 534.011,-199.363 650.514,-259.309 517.577,-87 495.149,-57.9301 398.418,-37.9269 333.419,-27.482"/>
<polygon fill="black" stroke="black" stroke-width="1.003" points="333.698,-23.9829 323.276,-25.8877 332.611,-30.898 333.698,-23.9829"/>
<text text-anchor="middle" x="620.577" y="-144.8" font-family="Times New Roman,serif" font-size="14.00">368.3837233996496</text>
</g>
<!-- 1152587832168206417 -->
<g id="node8" class="node"><title>1152587832168206417</title>
<polygon fill="#ffffff" stroke="black" points="126.577,-123 28.5768,-123 28.5768,-87 126.577,-87 126.577,-123"/>
<text text-anchor="middle" x="77.5768" y="-101.3" font-family="Times New Roman,serif" font-size="14.00">LacticAcid (1)</text>
</g>
<!-- 7850561497370058999&#45;&gt;1152587832168206417 -->
<g id="edge3" class="edge"><title>7850561497370058999&#45;&gt;1152587832168206417</title>
<path fill="none" stroke="black" stroke-width="1.3597" d="M240.312,-191.828C175.894,-192.715 34.9143,-190.557 4.57677,-156 -5.8554,-144.117 3.90492,-133.706 19.3056,-125.505"/>
<polygon fill="black" stroke="black" stroke-width="1.3597" points="20.8376,-128.652 28.3495,-121.18 17.8179,-122.336 20.8376,-128.652"/>
<text text-anchor="middle" x="60.5768" y="-144.8" font-family="Times New Roman,serif" font-size="14.00">639.5781863606599</text>
</g>
<!-- 7850561497370058999&#45;&gt;6179918396602481755 -->
<g id="edge4" class="edge"><title>7850561497370058999&#45;&gt;6179918396602481755</title>
<path fill="none" stroke="black" stroke-width="2.3104" d="M272.577,-173.879C272.577,-144.001 272.577,-82.1129 272.577,-46.2736"/>
<polygon fill="black" stroke="black" stroke-width="2.3104" points="276.077,-46.0516 272.577,-36.0516 269.077,-46.0516 276.077,-46.0516"/>
<text text-anchor="middle" x="328.577" y="-101.3" font-family="Times New Roman,serif" font-size="14.00">1362.392105575882</text>
</g>
<!-- &#45;2410219256766748193 -->
<g id="node3" class="node"><title>&#45;2410219256766748193</title>
<polygon fill="#ffffff" stroke="black" points="701.077,-471 576.077,-471 576.077,-435 701.077,-435 701.077,-471"/>
<text text-anchor="middle" x="638.577" y="-449.3" font-family="Times New Roman,serif" font-size="14.00">ER Registration (1)</text>
</g>
<!-- &#45;2872325205858232948 -->
<g id="node5" class="node"><title>&#45;2872325205858232948</title>
<polygon fill="#ffffff" stroke="black" points="685.077,-384 592.077,-384 592.077,-348 685.077,-348 685.077,-384"/>
<text text-anchor="middle" x="638.577" y="-362.3" font-family="Times New Roman,serif" font-size="14.00">ER Triage (1)</text>
</g>
<!-- &#45;2410219256766748193&#45;&gt;&#45;2872325205858232948 -->
<g id="edge5" class="edge"><title>&#45;2410219256766748193&#45;&gt;&#45;2872325205858232948</title>
<path fill="none" stroke="black" stroke-width="1.78997" d="M638.577,-434.799C638.577,-423.163 638.577,-407.548 638.577,-394.237"/>
<polygon fill="black" stroke="black" stroke-width="1.78997" points="642.077,-394.175 638.577,-384.175 635.077,-394.175 642.077,-394.175"/>
<text text-anchor="middle" x="694.577" y="-405.8" font-family="Times New Roman,serif" font-size="14.00">966.7142540908801</text>
</g>
<!-- 8892003065059452103 -->
<g id="node4" class="node"><title>8892003065059452103</title>
<polygon fill="#ffffff" stroke="black" points="705.577,-297 571.577,-297 571.577,-261 705.577,-261 705.577,-297"/>
<text text-anchor="middle" x="638.577" y="-275.3" font-family="Times New Roman,serif" font-size="14.00">ER Sepsis Triage (1)</text>
</g>
<!-- &#45;2872325205858232948&#45;&gt;8892003065059452103 -->
<g id="edge6" class="edge"><title>&#45;2872325205858232948&#45;&gt;8892003065059452103</title>
<path fill="none" stroke="black" stroke-width="1.67685" d="M638.577,-347.799C638.577,-336.163 638.577,-320.548 638.577,-307.237"/>
<polygon fill="black" stroke="black" stroke-width="1.67685" points="642.077,-307.175 638.577,-297.175 635.077,-307.175 642.077,-307.175"/>
<text text-anchor="middle" x="694.577" y="-318.8" font-family="Times New Roman,serif" font-size="14.00">880.7049114153423</text>
</g>
<!-- &#45;6564841300794043563 -->
<g id="node6" class="node"><title>&#45;6564841300794043563</title>
<polygon fill="#ffffff" stroke="black" points="551.077,-384 436.077,-384 436.077,-348 551.077,-348 551.077,-384"/>
<text text-anchor="middle" x="493.577" y="-362.3" font-family="Times New Roman,serif" font-size="14.00">IV Antibiotics (1)</text>
</g>
<!-- &#45;6564841300794043563&#45;&gt;&#45;6760735685208204671 -->
<g id="edge7" class="edge"><title>&#45;6564841300794043563&#45;&gt;&#45;6760735685208204671</title>
<path fill="none" stroke="black" stroke-width="1.13421" d="M493.577,-347.799C493.577,-336.163 493.577,-320.548 493.577,-307.237"/>
<polygon fill="black" stroke="black" stroke-width="1.13421" points="497.077,-307.175 493.577,-297.175 490.077,-307.175 497.077,-307.175"/>
<text text-anchor="middle" x="549.577" y="-318.8" font-family="Times New Roman,serif" font-size="14.00">468.1383554292028</text>
</g>
<!-- &#45;1926219633770359302 -->
<g id="node7" class="node"><title>&#45;1926219633770359302</title>
<polygon fill="#ffffff" stroke="black" points="538.577,-471 448.577,-471 448.577,-435 538.577,-435 538.577,-471"/>
<text text-anchor="middle" x="493.577" y="-449.3" font-family="Times New Roman,serif" font-size="14.00">IV Liquid (1)</text>
</g>
<!-- &#45;1926219633770359302&#45;&gt;&#45;6564841300794043563 -->
<g id="edge8" class="edge"><title>&#45;1926219633770359302&#45;&gt;&#45;6564841300794043563</title>
<path fill="none" stroke="black" stroke-width="1.17889" d="M493.577,-434.799C493.577,-423.163 493.577,-407.548 493.577,-394.237"/>
<polygon fill="black" stroke="black" stroke-width="1.17889" points="497.077,-394.175 493.577,-384.175 490.077,-394.175 497.077,-394.175"/>
<text text-anchor="middle" x="553.077" y="-405.8" font-family="Times New Roman,serif" font-size="14.00">502.11188369574535</text>
</g>
<!-- 1152587832168206417&#45;&gt;7850561497370058999 -->
<g id="edge9" class="edge"><title>1152587832168206417&#45;&gt;7850561497370058999</title>
<path fill="none" stroke="black" stroke-width="1.06563" d="M97.0908,-123.239C111.669,-135.824 130.568,-151.446 139.577,-156 168.203,-170.469 203.41,-179.39 230.408,-184.602"/>
<polygon fill="black" stroke="black" stroke-width="1.06563" points="229.855,-188.059 240.323,-186.422 231.119,-181.174 229.855,-188.059"/>
<text text-anchor="middle" x="199.077" y="-144.8" font-family="Times New Roman,serif" font-size="14.00">415.99955439593697</text>
</g>
<!-- 1152587832168206417&#45;&gt;6179918396602481755 -->
<g id="edge10" class="edge"><title>1152587832168206417&#45;&gt;6179918396602481755</title>
<path fill="none" stroke="black" stroke-width="1.17664" d="M35.3058,-86.8158C19.1902,-77.8198 6.97114,-66.1607 17.5768,-54 42.2659,-25.6907 144.503,-19.4691 211.786,-18.5336"/>
<polygon fill="black" stroke="black" stroke-width="1.17664" points="211.894,-22.0328 221.857,-18.4291 211.821,-15.0332 211.894,-22.0328"/>
<text text-anchor="middle" x="73.5768" y="-57.8" font-family="Times New Roman,serif" font-size="14.00">500.4024142665574</text>
</g>
<!-- 6179918396602481755&#45;&gt;7850561497370058999 -->
<g id="edge11" class="edge"><title>6179918396602481755&#45;&gt;7850561497370058999</title>
<path fill="none" stroke="black" stroke-width="2.6" d="M318.356,-36.0649C359.4,-54.2127 410.091,-85.4502 388.577,-123 372.66,-150.781 340.501,-168.313 314.073,-178.604"/>
<polygon fill="black" stroke="black" stroke-width="2.6" points="312.814,-175.337 304.636,-182.073 315.23,-181.907 312.814,-175.337"/>
<text text-anchor="middle" x="454.077" y="-101.3" font-family="Times New Roman,serif" font-size="14.00">1582.5735906686439</text>
</g>
<!-- 6179918396602481755&#45;&gt;1152587832168206417 -->
<g id="edge12" class="edge"><title>6179918396602481755&#45;&gt;1152587832168206417</title>
<path fill="none" stroke="black" stroke-width="1.05192" d="M222.005,-30.0998C200.103,-35.8269 174.511,-43.7834 152.577,-54 151.387,-54.554 130.85,-68.2571 111.569,-81.1764"/>
<polygon fill="black" stroke="black" stroke-width="1.05192" points="109.515,-78.3395 103.158,-86.8153 113.413,-84.1537 109.515,-78.3395"/>
<text text-anchor="middle" x="205.577" y="-57.8" font-family="Times New Roman,serif" font-size="14.00">405.579720256048</text>
</g>
<!-- 6179918396602481755&#45;&gt;6179918396602481755 -->
<g id="edge13" class="edge"><title>6179918396602481755&#45;&gt;6179918396602481755</title>
<path fill="none" stroke="black" stroke-width="1.09759" d="M323.361,-25.5746C333.684,-24.7495 341.077,-22.2246 341.077,-18 341.077,-15.3596 338.189,-13.3832 333.503,-12.0707"/>
<polygon fill="black" stroke="black" stroke-width="1.09759" points="333.792,-8.57199 323.361,-10.4254 332.671,-15.4817 333.792,-8.57199"/>
<text text-anchor="middle" x="397.077" y="-14.3" font-family="Times New Roman,serif" font-size="14.00">440.3007818619881</text>
</g>
</g>
</svg>
