<?xml version="1.0" encoding="UTF-8" standalone="no"?>
<!DOCTYPE svg PUBLIC "-//W3C//DTD SVG 1.1//EN"
 "http://www.w3.org/Graphics/SVG/1.1/DTD/svg11.dtd">
<!-- Generated by graphviz version 2.38.0 (20140413.2041)
 -->
<!-- Title: %3 Pages: 1 -->
<svg width="759pt" height="479pt"
 viewBox="0.00 0.00 758.52 479.00" xmlns="http://www.w3.org/2000/svg" xmlns:xlink="http://www.w3.org/1999/xlink">
<g id="graph0" class="graph" transform="scale(1 1) rotate(0) translate(4 475)">
<title>%3</title>
<!-- &#45;6760735685208204671 -->
<g id="node1" class="node"><title>&#45;6760735685208204671</title>
<polygon fill="#ffffff" stroke="black" points="553.019,-297 434.019,-297 434.019,-261 553.019,-261 553.019,-297"/>
<text text-anchor="middle" x="493.519" y="-275.3" font-family="Times New Roman,serif" font-size="14.00">Admission NC (1)</text>
</g>
<!-- 7850561497370058999 -->
<g id="node2" class="node"><title>7850561497370058999</title>
<polygon fill="#ffffff" stroke="black" points="304.519,-210 240.519,-210 240.519,-174 304.519,-174 304.519,-210"/>
<text text-anchor="middle" x="272.519" y="-188.3" font-family="Times New Roman,serif" font-size="14.00">CRP (1)</text>
</g>
<!-- &#45;6760735685208204671&#45;&gt;7850561497370058999 -->
<g id="edge1" class="edge"><title>&#45;6760735685208204671&#45;&gt;7850561497370058999</title>
<path fill="none" stroke="black" d="M449.062,-260.901C409.67,-245.751 352.593,-223.798 314.095,-208.991"/>
<polygon fill="black" stroke="black" points="315.32,-205.712 304.73,-205.389 312.807,-212.246 315.32,-205.712"/>
<text text-anchor="middle" x="452.519" y="-231.8" font-family="Times New Roman,serif" font-size="14.00">369.0006649326678</text>
</g>
<!-- 6179918396602481755 -->
<g id="node9" class="node"><title>6179918396602481755</title>
<polygon fill="#ffffff" stroke="black" points="323.019,-36 222.019,-36 222.019,-0 323.019,-0 323.019,-36"/>
<text text-anchor="middle" x="272.519" y="-14.3" font-family="Times New Roman,serif" font-size="14.00">Leucocytes (1)</text>
</g>
<!-- &#45;6760735685208204671&#45;&gt;6179918396602481755 -->
<g id="edge2" class="edge"><title>&#45;6760735685208204671&#45;&gt;6179918396602481755</title>
<path fill="none" stroke="black" stroke-width="1.04434" d="M504.836,-260.861C507.895,-255.376 510.825,-249.131 512.519,-243 530.988,-176.135 559.501,-142.222 517.519,-87 495.298,-57.7718 398.505,-37.8161 333.437,-27.4237"/>
<polygon fill="black" stroke="black" stroke-width="1.04434" points="333.703,-23.9229 323.283,-25.838 332.623,-30.8391 333.703,-23.9229"/>
<text text-anchor="middle" x="599.019" y="-144.8" font-family="Times New Roman,serif" font-size="14.00">408.04726514225445</text>
</g>
<!-- 1152587832168206417 -->
<g id="node8" class="node"><title>1152587832168206417</title>
<polygon fill="#ffffff" stroke="black" points="123.519,-123 25.5187,-123 25.5187,-87 123.519,-87 123.519,-123"/>
<text text-anchor="middle" x="74.5187" y="-101.3" font-family="Times New Roman,serif" font-size="14.00">LacticAcid (1)</text>
</g>
<!-- 7850561497370058999&#45;&gt;1152587832168206417 -->
<g id="edge3" class="edge"><title>7850561497370058999&#45;&gt;1152587832168206417</title>
<path fill="none" stroke="black" stroke-width="1.29526" d="M240.254,-191.828C175.836,-192.715 34.8562,-190.557 4.51866,-156 -5.10945,-145.033 2.81219,-135.153 16.2885,-127.128"/>
<polygon fill="black" stroke="black" stroke-width="1.29526" points="18.0791,-130.141 25.29,-122.378 14.8123,-123.95 18.0791,-130.141"/>
<text text-anchor="middle" x="60.5187" y="-144.8" font-family="Times New Roman,serif" font-size="14.00">628.9888010343391</text>
</g>
<!-- 7850561497370058999&#45;&gt;6179918396602481755 -->
<g id="edge4" class="edge"><title>7850561497370058999&#45;&gt;6179918396602481755</title>
<path fill="none" stroke="black" stroke-width="2.22223" d="M272.519,-173.879C272.519,-144.001 272.519,-82.1129 272.519,-46.2736"/>
<polygon fill="black" stroke="black" stroke-width="2.22223" points="276.019,-46.0516 272.519,-36.0516 269.019,-46.0516 276.019,-46.0516"/>
<text text-anchor="middle" x="328.519" y="-101.3" font-family="Times New Roman,serif" font-size="14.00">1445.206149999526</text>
</g>
<!-- &#45;2410219256766748193 -->
<g id="node3" class="node"><title>&#45;2410219256766748193</title>
<polygon fill="#ffffff" stroke="black" points="701.019,-471 576.019,-471 576.019,-435 701.019,-435 701.019,-471"/>
<text text-anchor="middle" x="638.519" y="-449.3" font-family="Times New Roman,serif" font-size="14.00">ER Registration (1)</text>
</g>
<!-- &#45;2872325205858232948 -->
<g id="node5" class="node"><title>&#45;2872325205858232948</title>
<polygon fill="#ffffff" stroke="black" points="685.019,-384 592.019,-384 592.019,-348 685.019,-348 685.019,-384"/>
<text text-anchor="middle" x="638.519" y="-362.3" font-family="Times New Roman,serif" font-size="14.00">ER Triage (1)</text>
</g>
<!-- &#45;2410219256766748193&#45;&gt;&#45;2872325205858232948 -->
<g id="edge5" class="edge"><title>&#45;2410219256766748193&#45;&gt;&#45;2872325205858232948</title>
<path fill="none" stroke="black" stroke-width="1.68367" d="M638.519,-434.799C638.519,-423.163 638.519,-407.548 638.519,-394.237"/>
<polygon fill="black" stroke="black" stroke-width="1.68367" points="642.019,-394.175 638.519,-384.175 635.019,-394.175 642.019,-394.175"/>
<text text-anchor="middle" x="694.519" y="-405.8" font-family="Times New Roman,serif" font-size="14.00">970.9926640893345</text>
</g>
<!-- 8892003065059452103 -->
<g id="node4" class="node"><title>8892003065059452103</title>
<polygon fill="#ffffff" stroke="black" points="705.519,-297 571.519,-297 571.519,-261 705.519,-261 705.519,-297"/>
<text text-anchor="middle" x="638.519" y="-275.3" font-family="Times New Roman,serif" font-size="14.00">ER Sepsis Triage (1)</text>
</g>
<!-- &#45;2872325205858232948&#45;&gt;8892003065059452103 -->
<g id="edge6" class="edge"><title>&#45;2872325205858232948&#45;&gt;8892003065059452103</title>
<path fill="none" stroke="black" stroke-width="1.60888" d="M638.519,-347.799C638.519,-336.163 638.519,-320.548 638.519,-307.237"/>
<polygon fill="black" stroke="black" stroke-width="1.60888" points="642.019,-307.175 638.519,-297.175 635.019,-307.175 642.019,-307.175"/>
<text text-anchor="middle" x="694.519" y="-318.8" font-family="Times New Roman,serif" font-size="14.00">905.1365755480335</text>
</g>
<!-- &#45;6564841300794043563 -->
<g id="node6" class="node"><title>&#45;6564841300794043563</title>
<polygon fill="#ffffff" stroke="black" points="551.019,-384 436.019,-384 436.019,-348 551.019,-348 551.019,-384"/>
<text text-anchor="middle" x="493.519" y="-362.3" font-family="Times New Roman,serif" font-size="14.00">IV Antibiotics (1)</text>
</g>
<!-- &#45;6564841300794043563&#45;&gt;&#45;6760735685208204671 -->
<g id="edge7" class="edge"><title>&#45;6564841300794043563&#45;&gt;&#45;6760735685208204671</title>
<path fill="none" stroke="black" stroke-width="1.1357" d="M493.519,-347.799C493.519,-336.163 493.519,-320.548 493.519,-307.237"/>
<polygon fill="black" stroke="black" stroke-width="1.1357" points="497.019,-307.175 493.519,-297.175 490.019,-307.175 497.019,-307.175"/>
<text text-anchor="middle" x="549.519" y="-318.8" font-family="Times New Roman,serif" font-size="14.00">488.4923381788455</text>
</g>
<!-- &#45;1926219633770359302 -->
<g id="node7" class="node"><title>&#45;1926219633770359302</title>
<polygon fill="#ffffff" stroke="black" points="538.519,-471 448.519,-471 448.519,-435 538.519,-435 538.519,-471"/>
<text text-anchor="middle" x="493.519" y="-449.3" font-family="Times New Roman,serif" font-size="14.00">IV Liquid (1)</text>
</g>
<!-- &#45;1926219633770359302&#45;&gt;&#45;6564841300794043563 -->
<g id="edge8" class="edge"><title>&#45;1926219633770359302&#45;&gt;&#45;6564841300794043563</title>
<path fill="none" stroke="black" stroke-width="1.15083" d="M493.519,-434.799C493.519,-423.163 493.519,-407.548 493.519,-394.237"/>
<polygon fill="black" stroke="black" stroke-width="1.15083" points="497.019,-394.175 493.519,-384.175 490.019,-394.175 497.019,-394.175"/>
<text text-anchor="middle" x="553.019" y="-405.8" font-family="Times New Roman,serif" font-size="14.00">501.81453399566567</text>
</g>
<!-- 1152587832168206417&#45;&gt;7850561497370058999 -->
<g id="edge9" class="edge"><title>1152587832168206417&#45;&gt;7850561497370058999</title>
<path fill="none" stroke="black" stroke-width="1.03982" d="M95.0412,-123.224C110.36,-135.8 130.19,-151.419 139.519,-156 168.309,-170.139 203.508,-179.077 230.461,-184.379"/>
<polygon fill="black" stroke="black" stroke-width="1.03982" points="229.883,-187.832 240.357,-186.236 231.174,-180.952 229.883,-187.832"/>
<text text-anchor="middle" x="199.019" y="-144.8" font-family="Times New Roman,serif" font-size="14.00">404.06011878985396</text>
</g>
<!-- 1152587832168206417&#45;&gt;6179918396602481755 -->
<g id="edge10" class="edge"><title>1152587832168206417&#45;&gt;6179918396602481755</title>
<path fill="none" stroke="black" stroke-width="1.22309" d="M29.8769,-86.8871C13.2071,-77.9931 0.669527,-66.4011 11.5187,-54 36.9661,-24.9123 142.642,-18.9795 211.475,-18.3044"/>
<polygon fill="black" stroke="black" stroke-width="1.22309" points="211.791,-21.8026 221.769,-18.2395 211.747,-14.8027 211.791,-21.8026"/>
<text text-anchor="middle" x="67.5187" y="-57.8" font-family="Times New Roman,serif" font-size="14.00">565.4390985616677</text>
</g>
<!-- 6179918396602481755&#45;&gt;7850561497370058999 -->
<g id="edge11" class="edge"><title>6179918396602481755&#45;&gt;7850561497370058999</title>
<path fill="none" stroke="black" stroke-width="2.6" d="M318.298,-36.0649C359.342,-54.2127 410.033,-85.4502 388.519,-123 372.602,-150.781 340.443,-168.313 314.015,-178.604"/>
<polygon fill="black" stroke="black" stroke-width="2.6" points="312.756,-175.337 304.578,-182.073 315.172,-181.907 312.756,-175.337"/>
<text text-anchor="middle" x="454.019" y="-101.3" font-family="Times New Roman,serif" font-size="14.00">1777.8462509271474</text>
</g>
<!-- 6179918396602481755&#45;&gt;1152587832168206417 -->
<g id="edge12" class="edge"><title>6179918396602481755&#45;&gt;1152587832168206417</title>
<path fill="none" stroke="black" stroke-width="1.0751" d="M221.768,-28.9847C198.221,-34.6426 170.255,-42.8554 146.519,-54 142.05,-56.0983 123.611,-68.9166 106.514,-81.0478"/>
<polygon fill="black" stroke="black" stroke-width="1.0751" points="104.413,-78.2475 98.2955,-86.898 108.472,-83.9502 104.413,-78.2475"/>
<text text-anchor="middle" x="202.519" y="-57.8" font-family="Times New Roman,serif" font-size="14.00">435.1264838053992</text>
</g>
<!-- 6179918396602481755&#45;&gt;6179918396602481755 -->
<g id="edge13" class="edge"><title>6179918396602481755&#45;&gt;6179918396602481755</title>
<path fill="none" stroke="black" stroke-width="1.10134" d="M323.303,-25.5746C333.626,-24.7495 341.019,-22.2246 341.019,-18 341.019,-15.3596 338.131,-13.3832 333.445,-12.0707"/>
<polygon fill="black" stroke="black" stroke-width="1.10134" points="333.734,-8.57199 323.303,-10.4254 332.613,-15.4817 333.734,-8.57199"/>
<text text-anchor="middle" x="397.019" y="-14.3" font-family="Times New Roman,serif" font-size="14.00">458.2332817527126</text>
</g>
</g>
</svg>
