<?xml version="1.0" encoding="UTF-8" standalone="no"?>
<!DOCTYPE svg PUBLIC "-//W3C//DTD SVG 1.1//EN"
 "http://www.w3.org/Graphics/SVG/1.1/DTD/svg11.dtd">
<!-- Generated by graphviz version 2.38.0 (20140413.2041)
 -->
<!-- Title: %3 Pages: 1 -->
<svg width="753pt" height="479pt"
 viewBox="0.00 0.00 752.56 479.00" xmlns="http://www.w3.org/2000/svg" xmlns:xlink="http://www.w3.org/1999/xlink">
<g id="graph0" class="graph" transform="scale(1 1) rotate(0) translate(4 475)">
<title>%3</title>
<!-- 9118780525858573852 -->
<g id="node1" class="node"><title>9118780525858573852</title>
<polygon fill="#ffffff" stroke="black" points="547.063,-297 428.063,-297 428.063,-261 547.063,-261 547.063,-297"/>
<text text-anchor="middle" x="487.563" y="-275.3" font-family="Times New Roman,serif" font-size="14.00">Admission NC (1)</text>
</g>
<!-- 8794229938327540079 -->
<g id="node2" class="node"><title>8794229938327540079</title>
<polygon fill="#ffffff" stroke="black" points="298.563,-210 234.563,-210 234.563,-174 298.563,-174 298.563,-210"/>
<text text-anchor="middle" x="266.563" y="-188.3" font-family="Times New Roman,serif" font-size="14.00">CRP (1)</text>
</g>
<!-- 9118780525858573852&#45;&gt;8794229938327540079 -->
<g id="edge1" class="edge"><title>9118780525858573852&#45;&gt;8794229938327540079</title>
<path fill="none" stroke="black" d="M443.107,-260.901C403.715,-245.751 346.637,-223.798 308.14,-208.991"/>
<polygon fill="black" stroke="black" points="309.365,-205.712 298.775,-205.389 306.852,-212.246 309.365,-205.712"/>
<text text-anchor="middle" x="446.563" y="-231.8" font-family="Times New Roman,serif" font-size="14.00">368.7371093921345</text>
</g>
<!-- &#45;4990305070490083274 -->
<g id="node9" class="node"><title>&#45;4990305070490083274</title>
<polygon fill="#ffffff" stroke="black" points="317.063,-36 216.063,-36 216.063,-0 317.063,-0 317.063,-36"/>
<text text-anchor="middle" x="266.563" y="-14.3" font-family="Times New Roman,serif" font-size="14.00">Leucocytes (1)</text>
</g>
<!-- 9118780525858573852&#45;&gt;&#45;4990305070490083274 -->
<g id="edge2" class="edge"><title>9118780525858573852&#45;&gt;&#45;4990305070490083274</title>
<path fill="none" stroke="black" stroke-width="1.0431" d="M498.88,-260.861C501.94,-255.376 504.87,-249.131 506.563,-243 525.032,-176.135 553.546,-142.222 511.563,-87 489.343,-57.7718 392.549,-37.8161 327.482,-27.4237"/>
<polygon fill="black" stroke="black" stroke-width="1.0431" points="327.748,-23.9229 317.327,-25.838 326.667,-30.8391 327.748,-23.9229"/>
<text text-anchor="middle" x="593.063" y="-144.8" font-family="Times New Roman,serif" font-size="14.00">406.69176438336694</text>
</g>
<!-- 5659693541288529527 -->
<g id="node8" class="node"><title>5659693541288529527</title>
<polygon fill="#ffffff" stroke="black" points="126.563,-123 28.5634,-123 28.5634,-87 126.563,-87 126.563,-123"/>
<text text-anchor="middle" x="77.5634" y="-101.3" font-family="Times New Roman,serif" font-size="14.00">LacticAcid (1)</text>
</g>
<!-- 8794229938327540079&#45;&gt;5659693541288529527 -->
<g id="edge3" class="edge"><title>8794229938327540079&#45;&gt;5659693541288529527</title>
<path fill="none" stroke="black" stroke-width="1.29608" d="M234.531,-191.715C171.325,-192.366 34.108,-189.754 4.56342,-156 -5.85127,-144.102 3.91247,-133.688 19.311,-125.488"/>
<polygon fill="black" stroke="black" stroke-width="1.29608" points="20.8408,-128.636 28.3532,-121.165 17.8215,-122.321 20.8408,-128.636"/>
<text text-anchor="middle" x="57.5634" y="-144.8" font-family="Times New Roman,serif" font-size="14.00">629.452851044727</text>
</g>
<!-- 8794229938327540079&#45;&gt;&#45;4990305070490083274 -->
<g id="edge4" class="edge"><title>8794229938327540079&#45;&gt;&#45;4990305070490083274</title>
<path fill="none" stroke="black" stroke-width="2.22171" d="M266.563,-173.879C266.563,-144.001 266.563,-82.1129 266.563,-46.2736"/>
<polygon fill="black" stroke="black" stroke-width="2.22171" points="270.064,-46.0516 266.563,-36.0516 263.064,-46.0516 270.064,-46.0516"/>
<text text-anchor="middle" x="322.563" y="-101.3" font-family="Times New Roman,serif" font-size="14.00">1444.521228420556</text>
</g>
<!-- 4941573644585563234 -->
<g id="node3" class="node"><title>4941573644585563234</title>
<polygon fill="#ffffff" stroke="black" points="695.063,-471 570.063,-471 570.063,-435 695.063,-435 695.063,-471"/>
<text text-anchor="middle" x="632.563" y="-449.3" font-family="Times New Roman,serif" font-size="14.00">ER Registration (1)</text>
</g>
<!-- 7781181950460006610 -->
<g id="node5" class="node"><title>7781181950460006610</title>
<polygon fill="#ffffff" stroke="black" points="679.063,-384 586.063,-384 586.063,-348 679.063,-348 679.063,-384"/>
<text text-anchor="middle" x="632.563" y="-362.3" font-family="Times New Roman,serif" font-size="14.00">ER Triage (1)</text>
</g>
<!-- 4941573644585563234&#45;&gt;7781181950460006610 -->
<g id="edge5" class="edge"><title>4941573644585563234&#45;&gt;7781181950460006610</title>
<path fill="none" stroke="black" stroke-width="1.6826" d="M632.563,-434.799C632.563,-423.163 632.563,-407.548 632.563,-394.237"/>
<polygon fill="black" stroke="black" stroke-width="1.6826" points="636.064,-394.175 632.563,-384.175 629.064,-394.175 636.064,-394.175"/>
<text text-anchor="middle" x="688.563" y="-405.8" font-family="Times New Roman,serif" font-size="14.00">969.8053233635059</text>
</g>
<!-- &#45;1916228938975785919 -->
<g id="node4" class="node"><title>&#45;1916228938975785919</title>
<polygon fill="#ffffff" stroke="black" points="699.563,-297 565.563,-297 565.563,-261 699.563,-261 699.563,-297"/>
<text text-anchor="middle" x="632.563" y="-275.3" font-family="Times New Roman,serif" font-size="14.00">ER Sepsis Triage (1)</text>
</g>
<!-- 7781181950460006610&#45;&gt;&#45;1916228938975785919 -->
<g id="edge6" class="edge"><title>7781181950460006610&#45;&gt;&#45;1916228938975785919</title>
<path fill="none" stroke="black" stroke-width="1.60897" d="M632.563,-347.799C632.563,-336.163 632.563,-320.548 632.563,-307.237"/>
<polygon fill="black" stroke="black" stroke-width="1.60897" points="636.064,-307.175 632.563,-297.175 629.064,-307.175 636.064,-307.175"/>
<text text-anchor="middle" x="688.563" y="-318.8" font-family="Times New Roman,serif" font-size="14.00">904.9715290994556</text>
</g>
<!-- 1341266047991071662 -->
<g id="node6" class="node"><title>1341266047991071662</title>
<polygon fill="#ffffff" stroke="black" points="545.063,-384 430.063,-384 430.063,-348 545.063,-348 545.063,-384"/>
<text text-anchor="middle" x="487.563" y="-362.3" font-family="Times New Roman,serif" font-size="14.00">IV Antibiotics (1)</text>
</g>
<!-- 1341266047991071662&#45;&gt;9118780525858573852 -->
<g id="edge7" class="edge"><title>1341266047991071662&#45;&gt;9118780525858573852</title>
<path fill="none" stroke="black" stroke-width="1.13725" d="M487.563,-347.799C487.563,-336.163 487.563,-320.548 487.563,-307.237"/>
<polygon fill="black" stroke="black" stroke-width="1.13725" points="491.064,-307.175 487.563,-297.175 484.064,-307.175 491.064,-307.175"/>
<text text-anchor="middle" x="543.563" y="-318.8" font-family="Times New Roman,serif" font-size="14.00">489.5940345176057</text>
</g>
<!-- 1513237216211266658 -->
<g id="node7" class="node"><title>1513237216211266658</title>
<polygon fill="#ffffff" stroke="black" points="532.563,-471 442.563,-471 442.563,-435 532.563,-435 532.563,-471"/>
<text text-anchor="middle" x="487.563" y="-449.3" font-family="Times New Roman,serif" font-size="14.00">IV Liquid (1)</text>
</g>
<!-- 1513237216211266658&#45;&gt;1341266047991071662 -->
<g id="edge8" class="edge"><title>1513237216211266658&#45;&gt;1341266047991071662</title>
<path fill="none" stroke="black" stroke-width="1.14976" d="M487.563,-434.799C487.563,-423.163 487.563,-407.548 487.563,-394.237"/>
<polygon fill="black" stroke="black" stroke-width="1.14976" points="491.064,-394.175 487.563,-384.175 484.064,-394.175 491.064,-394.175"/>
<text text-anchor="middle" x="547.063" y="-405.8" font-family="Times New Roman,serif" font-size="14.00">500.61311652229045</text>
</g>
<!-- 5659693541288529527&#45;&gt;8794229938327540079 -->
<g id="edge9" class="edge"><title>5659693541288529527&#45;&gt;8794229938327540079</title>
<path fill="none" stroke="black" stroke-width="1.0407" d="M92.6494,-123.129C103.121,-134.023 117.949,-147.61 133.563,-156 161.911,-171.233 197.275,-180.127 224.411,-185.136"/>
<polygon fill="black" stroke="black" stroke-width="1.0407" points="223.924,-188.603 234.376,-186.87 225.124,-181.707 223.924,-188.603"/>
<text text-anchor="middle" x="193.063" y="-144.8" font-family="Times New Roman,serif" font-size="14.00">404.57683550810833</text>
</g>
<!-- 5659693541288529527&#45;&gt;&#45;4990305070490083274 -->
<g id="edge10" class="edge"><title>5659693541288529527&#45;&gt;&#45;4990305070490083274</title>
<path fill="none" stroke="black" stroke-width="1.22206" d="M40.8985,-86.8337C26.0254,-77.57 14.462,-65.6675 24.5634,-54 47.5284,-27.4747 141.732,-20.6117 205.602,-19.0782"/>
<polygon fill="black" stroke="black" stroke-width="1.22206" points="206.042,-22.5701 215.97,-18.8692 205.901,-15.5715 206.042,-22.5701"/>
<text text-anchor="middle" x="77.5634" y="-57.8" font-family="Times New Roman,serif" font-size="14.00">564.269668750928</text>
</g>
<!-- &#45;4990305070490083274&#45;&gt;8794229938327540079 -->
<g id="edge11" class="edge"><title>&#45;4990305070490083274&#45;&gt;8794229938327540079</title>
<path fill="none" stroke="black" stroke-width="2.6" d="M312.343,-36.0649C353.386,-54.2127 404.077,-85.4502 382.563,-123 366.646,-150.781 334.488,-168.313 308.06,-178.604"/>
<polygon fill="black" stroke="black" stroke-width="2.6" points="306.801,-175.337 298.623,-182.073 309.217,-181.907 306.801,-175.337"/>
<text text-anchor="middle" x="448.063" y="-101.3" font-family="Times New Roman,serif" font-size="14.00">1777.6255607888324</text>
</g>
<!-- &#45;4990305070490083274&#45;&gt;5659693541288529527 -->
<g id="edge12" class="edge"><title>&#45;4990305070490083274&#45;&gt;5659693541288529527</title>
<path fill="none" stroke="black" stroke-width="1.07476" d="M215.916,-31.3938C196.006,-37.1068 173.249,-44.7051 153.563,-54 152.958,-54.2858 131.663,-68.3024 111.77,-81.4208"/>
<polygon fill="black" stroke="black" stroke-width="1.07476" points="109.816,-78.5174 103.395,-86.9454 113.67,-84.3606 109.816,-78.5174"/>
<text text-anchor="middle" x="203.063" y="-57.8" font-family="Times New Roman,serif" font-size="14.00">434.56766058052</text>
</g>
<!-- &#45;4990305070490083274&#45;&gt;&#45;4990305070490083274 -->
<g id="edge13" class="edge"><title>&#45;4990305070490083274&#45;&gt;&#45;4990305070490083274</title>
<path fill="none" stroke="black" stroke-width="1.10134" d="M317.347,-25.5746C327.671,-24.7495 335.063,-22.2246 335.063,-18 335.063,-15.3596 332.176,-13.3832 327.49,-12.0707"/>
<polygon fill="black" stroke="black" stroke-width="1.10134" points="327.779,-8.57199 317.347,-10.4254 326.658,-15.4817 327.779,-8.57199"/>
<text text-anchor="middle" x="391.063" y="-14.3" font-family="Times New Roman,serif" font-size="14.00">457.9753934495786</text>
</g>
</g>
</svg>
