<?xml version="1.0" encoding="UTF-8" standalone="no"?>
<!DOCTYPE svg PUBLIC "-//W3C//DTD SVG 1.1//EN"
 "http://www.w3.org/Graphics/SVG/1.1/DTD/svg11.dtd">
<!-- Generated by graphviz version 2.38.0 (20140413.2041)
 -->
<!-- Title: %3 Pages: 1 -->
<svg width="746pt" height="479pt"
 viewBox="0.00 0.00 746.21 479.00" xmlns="http://www.w3.org/2000/svg" xmlns:xlink="http://www.w3.org/1999/xlink">
<g id="graph0" class="graph" transform="scale(1 1) rotate(0) translate(4 475)">
<title>%3</title>
<!-- 3703627156728642698 -->
<g id="node1" class="node"><title>3703627156728642698</title>
<polygon fill="#ffffff" stroke="black" points="540.714,-297 421.714,-297 421.714,-261 540.714,-261 540.714,-297"/>
<text text-anchor="middle" x="481.214" y="-275.3" font-family="Times New Roman,serif" font-size="14.00">Admission NC (1)</text>
</g>
<!-- 3579705282704473787 -->
<g id="node2" class="node"><title>3579705282704473787</title>
<polygon fill="#ffffff" stroke="black" points="297.214,-210 233.214,-210 233.214,-174 297.214,-174 297.214,-210"/>
<text text-anchor="middle" x="265.214" y="-188.3" font-family="Times New Roman,serif" font-size="14.00">CRP (1)</text>
</g>
<!-- 3703627156728642698&#45;&gt;3579705282704473787 -->
<g id="edge1" class="edge"><title>3703627156728642698&#45;&gt;3579705282704473787</title>
<path fill="none" stroke="black" d="M437.763,-260.901C399.652,-245.904 344.602,-224.241 306.996,-209.442"/>
<polygon fill="black" stroke="black" points="307.944,-206.054 297.357,-205.649 305.381,-212.568 307.944,-206.054"/>
<text text-anchor="middle" x="445.714" y="-231.8" font-family="Times New Roman,serif" font-size="14.00">368.36739230921063</text>
</g>
<!-- &#45;755878416217562554 -->
<g id="node9" class="node"><title>&#45;755878416217562554</title>
<polygon fill="#ffffff" stroke="black" points="315.714,-36 214.714,-36 214.714,-0 315.714,-0 315.714,-36"/>
<text text-anchor="middle" x="265.214" y="-14.3" font-family="Times New Roman,serif" font-size="14.00">Leucocytes (1)</text>
</g>
<!-- 3703627156728642698&#45;&gt;&#45;755878416217562554 -->
<g id="edge2" class="edge"><title>3703627156728642698&#45;&gt;&#45;755878416217562554</title>
<path fill="none" stroke="black" stroke-width="1.04612" d="M498.634,-260.912C502.93,-255.617 506.947,-249.462 509.214,-243 524.543,-199.298 639.16,-259.475 503.214,-87 481.322,-59.2264 389.203,-39.0577 326.207,-28.1953"/>
<polygon fill="black" stroke="black" stroke-width="1.04612" points="326.417,-24.6813 315.974,-26.468 325.252,-31.5837 326.417,-24.6813"/>
<text text-anchor="middle" x="607.214" y="-144.8" font-family="Times New Roman,serif" font-size="14.00">409.0930025397444</text>
</g>
<!-- 8066172473611450852 -->
<g id="node8" class="node"><title>8066172473611450852</title>
<polygon fill="#ffffff" stroke="black" points="119.214,-123 21.2135,-123 21.2135,-87 119.214,-87 119.214,-123"/>
<text text-anchor="middle" x="70.2135" y="-101.3" font-family="Times New Roman,serif" font-size="14.00">LacticAcid (1)</text>
</g>
<!-- 3579705282704473787&#45;&gt;8066172473611450852 -->
<g id="edge3" class="edge"><title>3579705282704473787&#45;&gt;8066172473611450852</title>
<path fill="none" stroke="black" stroke-width="1.29394" d="M233.08,-191.581C171.134,-191.94 38.7767,-188.751 10.2135,-156 1.59646,-146.119 8.04725,-136.57 19.4133,-128.511"/>
<polygon fill="black" stroke="black" stroke-width="1.29394" points="21.3149,-131.45 27.9426,-123.184 17.6068,-125.513 21.3149,-131.45"/>
<text text-anchor="middle" x="59.7135" y="-144.8" font-family="Times New Roman,serif" font-size="14.00">627.90671518867</text>
</g>
<!-- 3579705282704473787&#45;&gt;&#45;755878416217562554 -->
<g id="edge4" class="edge"><title>3579705282704473787&#45;&gt;&#45;755878416217562554</title>
<path fill="none" stroke="black" stroke-width="2.22446" d="M265.214,-173.879C265.214,-144.001 265.214,-82.1129 265.214,-46.2736"/>
<polygon fill="black" stroke="black" stroke-width="2.22446" points="268.714,-46.0516 265.214,-36.0516 261.714,-46.0516 268.714,-46.0516"/>
<text text-anchor="middle" x="321.214" y="-101.3" font-family="Times New Roman,serif" font-size="14.00">1449.509565114864</text>
</g>
<!-- &#45;6320656248013813873 -->
<g id="node3" class="node"><title>&#45;6320656248013813873</title>
<polygon fill="#ffffff" stroke="black" points="688.714,-471 563.714,-471 563.714,-435 688.714,-435 688.714,-471"/>
<text text-anchor="middle" x="626.214" y="-449.3" font-family="Times New Roman,serif" font-size="14.00">ER Registration (1)</text>
</g>
<!-- 2377219762996478470 -->
<g id="node5" class="node"><title>2377219762996478470</title>
<polygon fill="#ffffff" stroke="black" points="672.714,-384 579.714,-384 579.714,-348 672.714,-348 672.714,-384"/>
<text text-anchor="middle" x="626.214" y="-362.3" font-family="Times New Roman,serif" font-size="14.00">ER Triage (1)</text>
</g>
<!-- &#45;6320656248013813873&#45;&gt;2377219762996478470 -->
<g id="edge5" class="edge"><title>&#45;6320656248013813873&#45;&gt;2377219762996478470</title>
<path fill="none" stroke="black" stroke-width="1.67697" d="M626.214,-434.799C626.214,-423.163 626.214,-407.548 626.214,-394.237"/>
<polygon fill="black" stroke="black" stroke-width="1.67697" points="629.714,-394.175 626.214,-384.175 622.714,-394.175 629.714,-394.175"/>
<text text-anchor="middle" x="682.214" y="-405.8" font-family="Times New Roman,serif" font-size="14.00">966.0986939629071</text>
</g>
<!-- 7430045975075819265 -->
<g id="node4" class="node"><title>7430045975075819265</title>
<polygon fill="#ffffff" stroke="black" points="693.214,-297 559.214,-297 559.214,-261 693.214,-261 693.214,-297"/>
<text text-anchor="middle" x="626.214" y="-275.3" font-family="Times New Roman,serif" font-size="14.00">ER Sepsis Triage (1)</text>
</g>
<!-- 2377219762996478470&#45;&gt;7430045975075819265 -->
<g id="edge6" class="edge"><title>2377219762996478470&#45;&gt;7430045975075819265</title>
<path fill="none" stroke="black" stroke-width="1.6085" d="M626.214,-347.799C626.214,-336.163 626.214,-320.548 626.214,-307.237"/>
<polygon fill="black" stroke="black" stroke-width="1.6085" points="629.714,-307.175 626.214,-297.175 622.714,-307.175 629.714,-307.175"/>
<text text-anchor="middle" x="679.214" y="-318.8" font-family="Times New Roman,serif" font-size="14.00">905.641753071393</text>
</g>
<!-- &#45;5705463351445563725 -->
<g id="node6" class="node"><title>&#45;5705463351445563725</title>
<polygon fill="#ffffff" stroke="black" points="538.714,-384 423.714,-384 423.714,-348 538.714,-348 538.714,-384"/>
<text text-anchor="middle" x="481.214" y="-362.3" font-family="Times New Roman,serif" font-size="14.00">IV Antibiotics (1)</text>
</g>
<!-- &#45;5705463351445563725&#45;&gt;3703627156728642698 -->
<g id="edge7" class="edge"><title>&#45;5705463351445563725&#45;&gt;3703627156728642698</title>
<path fill="none" stroke="black" stroke-width="1.14348" d="M481.214,-347.799C481.214,-336.163 481.214,-320.548 481.214,-307.237"/>
<polygon fill="black" stroke="black" stroke-width="1.14348" points="484.714,-307.175 481.214,-297.175 477.714,-307.175 484.714,-307.175"/>
<text text-anchor="middle" x="537.214" y="-318.8" font-family="Times New Roman,serif" font-size="14.00">495.0539971221478</text>
</g>
<!-- &#45;3862139582344886855 -->
<g id="node7" class="node"><title>&#45;3862139582344886855</title>
<polygon fill="#ffffff" stroke="black" points="526.214,-471 436.214,-471 436.214,-435 526.214,-435 526.214,-471"/>
<text text-anchor="middle" x="481.214" y="-449.3" font-family="Times New Roman,serif" font-size="14.00">IV Liquid (1)</text>
</g>
<!-- &#45;3862139582344886855&#45;&gt;&#45;5705463351445563725 -->
<g id="edge8" class="edge"><title>&#45;3862139582344886855&#45;&gt;&#45;5705463351445563725</title>
<path fill="none" stroke="black" stroke-width="1.15026" d="M481.214,-434.799C481.214,-423.163 481.214,-407.548 481.214,-394.237"/>
<polygon fill="black" stroke="black" stroke-width="1.15026" points="484.714,-394.175 481.214,-384.175 477.714,-394.175 484.714,-394.175"/>
<text text-anchor="middle" x="537.214" y="-405.8" font-family="Times New Roman,serif" font-size="14.00">501.0362805909022</text>
</g>
<!-- 8066172473611450852&#45;&gt;3579705282704473787 -->
<g id="edge9" class="edge"><title>8066172473611450852&#45;&gt;3579705282704473787</title>
<path fill="none" stroke="black" stroke-width="1.0483" d="M89.7275,-123.239C104.305,-135.824 123.204,-151.446 132.214,-156 160.84,-170.469 196.047,-179.39 223.045,-184.602"/>
<polygon fill="black" stroke="black" stroke-width="1.0483" points="222.492,-188.059 232.959,-186.422 223.755,-181.174 222.492,-188.059"/>
<text text-anchor="middle" x="191.714" y="-144.8" font-family="Times New Roman,serif" font-size="14.00">411.01546614607344</text>
</g>
<!-- 8066172473611450852&#45;&gt;&#45;755878416217562554 -->
<g id="edge10" class="edge"><title>8066172473611450852&#45;&gt;&#45;755878416217562554</title>
<path fill="none" stroke="black" stroke-width="1.22259" d="M23.1755,-86.981C5.97346,-78.1902 -6.86076,-66.6585 4.21353,-54 29.661,-24.9123 135.337,-18.9795 204.17,-18.3044"/>
<polygon fill="black" stroke="black" stroke-width="1.22259" points="204.486,-21.8026 214.464,-18.2395 204.442,-14.8027 204.486,-21.8026"/>
<text text-anchor="middle" x="60.2135" y="-57.8" font-family="Times New Roman,serif" font-size="14.00">564.9028359818241</text>
</g>
<!-- &#45;755878416217562554&#45;&gt;3579705282704473787 -->
<g id="edge11" class="edge"><title>&#45;755878416217562554&#45;&gt;3579705282704473787</title>
<path fill="none" stroke="black" stroke-width="2.6" d="M310.993,-36.0649C352.037,-54.2127 402.728,-85.4502 381.214,-123 365.296,-150.781 333.138,-168.313 306.71,-178.604"/>
<polygon fill="black" stroke="black" stroke-width="2.6" points="305.451,-175.337 297.273,-182.073 307.867,-181.907 305.451,-175.337"/>
<text text-anchor="middle" x="443.214" y="-101.3" font-family="Times New Roman,serif" font-size="14.00">1781.093381833322</text>
</g>
<!-- &#45;755878416217562554&#45;&gt;8066172473611450852 -->
<g id="edge12" class="edge"><title>&#45;755878416217562554&#45;&gt;8066172473611450852</title>
<path fill="none" stroke="black" stroke-width="1.07567" d="M214.667,-28.6971C191.034,-34.3104 162.939,-42.5684 139.214,-54 134.929,-56.0643 117.541,-68.6695 101.293,-80.7057"/>
<polygon fill="black" stroke="black" stroke-width="1.07567" points="98.9126,-78.114 92.9757,-86.8892 103.089,-83.7316 98.9126,-78.114"/>
<text text-anchor="middle" x="195.214" y="-57.8" font-family="Times New Roman,serif" font-size="14.00">435.1817602468271</text>
</g>
<!-- &#45;755878416217562554&#45;&gt;&#45;755878416217562554 -->
<g id="edge13" class="edge"><title>&#45;755878416217562554&#45;&gt;&#45;755878416217562554</title>
<path fill="none" stroke="black" stroke-width="1.09998" d="M315.997,-25.5746C326.321,-24.7495 333.714,-22.2246 333.714,-18 333.714,-15.3596 330.826,-13.3832 326.14,-12.0707"/>
<polygon fill="black" stroke="black" stroke-width="1.09998" points="326.429,-8.57199 315.997,-10.4254 325.308,-15.4817 326.429,-8.57199"/>
<text text-anchor="middle" x="386.714" y="-14.3" font-family="Times New Roman,serif" font-size="14.00">456.645894530827</text>
</g>
</g>
</svg>
