<?xml version="1.0" encoding="UTF-8" standalone="no"?>
<!DOCTYPE svg PUBLIC "-//W3C//DTD SVG 1.1//EN"
 "http://www.w3.org/Graphics/SVG/1.1/DTD/svg11.dtd">
<!-- Generated by graphviz version 2.38.0 (20140413.2041)
 -->
<!-- Title: %3 Pages: 1 -->
<svg width="764pt" height="479pt"
 viewBox="0.00 0.00 763.61 479.00" xmlns="http://www.w3.org/2000/svg" xmlns:xlink="http://www.w3.org/1999/xlink">
<g id="graph0" class="graph" transform="scale(1 1) rotate(0) translate(4 475)">
<title>%3</title>
<!-- 3703627156728642698 -->
<g id="node1" class="node"><title>3703627156728642698</title>
<polygon fill="#ffffff" stroke="black" points="558.113,-297 439.113,-297 439.113,-261 558.113,-261 558.113,-297"/>
<text text-anchor="middle" x="498.613" y="-275.3" font-family="Times New Roman,serif" font-size="14.00">Admission NC (1)</text>
</g>
<!-- 3579705282704473787 -->
<g id="node2" class="node"><title>3579705282704473787</title>
<polygon fill="#ffffff" stroke="black" points="304.613,-210 240.613,-210 240.613,-174 304.613,-174 304.613,-210"/>
<text text-anchor="middle" x="272.613" y="-188.3" font-family="Times New Roman,serif" font-size="14.00">CRP (1)</text>
</g>
<!-- 3703627156728642698&#45;&gt;3579705282704473787 -->
<g id="edge1" class="edge"><title>3703627156728642698&#45;&gt;3579705282704473787</title>
<path fill="none" stroke="black" d="M453.151,-260.901C412.63,-245.661 353.809,-223.538 314.436,-208.73"/>
<polygon fill="black" stroke="black" points="315.459,-205.375 304.867,-205.131 312.995,-211.927 315.459,-205.375"/>
<text text-anchor="middle" x="455.613" y="-231.8" font-family="Times New Roman,serif" font-size="14.00">367.0639190728457</text>
</g>
<!-- &#45;755878416217562554 -->
<g id="node9" class="node"><title>&#45;755878416217562554</title>
<polygon fill="#ffffff" stroke="black" points="323.113,-36 222.113,-36 222.113,-0 323.113,-0 323.113,-36"/>
<text text-anchor="middle" x="272.613" y="-14.3" font-family="Times New Roman,serif" font-size="14.00">Leucocytes (1)</text>
</g>
<!-- 3703627156728642698&#45;&gt;&#45;755878416217562554 -->
<g id="edge2" class="edge"><title>3703627156728642698&#45;&gt;&#45;755878416217562554</title>
<path fill="none" stroke="black" stroke-width="1.04759" d="M508.362,-260.857C527.506,-224.662 564.803,-139.472 524.613,-87 501.484,-56.8023 400.316,-36.9672 333.41,-26.8902"/>
<polygon fill="black" stroke="black" stroke-width="1.04759" points="333.795,-23.4093 323.392,-25.4153 332.775,-30.3346 333.795,-23.4093"/>
<text text-anchor="middle" x="598.613" y="-144.8" font-family="Times New Roman,serif" font-size="14.00">409.0097776131977</text>
</g>
<!-- 8066172473611450852 -->
<g id="node8" class="node"><title>8066172473611450852</title>
<polygon fill="#ffffff" stroke="black" points="129.613,-123 31.6131,-123 31.6131,-87 129.613,-87 129.613,-123"/>
<text text-anchor="middle" x="80.6131" y="-101.3" font-family="Times New Roman,serif" font-size="14.00">LacticAcid (1)</text>
</g>
<!-- 3579705282704473787&#45;&gt;8066172473611450852 -->
<g id="edge3" class="edge"><title>3579705282704473787&#45;&gt;8066172473611450852</title>
<path fill="none" stroke="black" stroke-width="1.29671" d="M240.348,-191.828C175.931,-192.715 34.9507,-190.557 4.61312,-156 -6.56695,-143.265 4.97556,-132.422 22.1573,-124.122"/>
<polygon fill="black" stroke="black" stroke-width="1.29671" points="23.8,-127.224 31.5658,-120.016 21.0005,-120.808 23.8,-127.224"/>
<text text-anchor="middle" x="60.6131" y="-144.8" font-family="Times New Roman,serif" font-size="14.00">628.5903066146849</text>
</g>
<!-- 3579705282704473787&#45;&gt;&#45;755878416217562554 -->
<g id="edge4" class="edge"><title>3579705282704473787&#45;&gt;&#45;755878416217562554</title>
<path fill="none" stroke="black" stroke-width="2.2227" d="M272.613,-173.879C272.613,-144.001 272.613,-82.1129 272.613,-46.2736"/>
<polygon fill="black" stroke="black" stroke-width="2.2227" points="276.113,-46.0516 272.613,-36.0516 269.113,-46.0516 276.113,-46.0516"/>
<text text-anchor="middle" x="332.113" y="-101.3" font-family="Times New Roman,serif" font-size="14.00">1444.7914624505663</text>
</g>
<!-- &#45;6320656248013813873 -->
<g id="node3" class="node"><title>&#45;6320656248013813873</title>
<polygon fill="#ffffff" stroke="black" points="706.113,-471 581.113,-471 581.113,-435 706.113,-435 706.113,-471"/>
<text text-anchor="middle" x="643.613" y="-449.3" font-family="Times New Roman,serif" font-size="14.00">ER Registration (1)</text>
</g>
<!-- 2377219762996478470 -->
<g id="node5" class="node"><title>2377219762996478470</title>
<polygon fill="#ffffff" stroke="black" points="690.113,-384 597.113,-384 597.113,-348 690.113,-348 690.113,-384"/>
<text text-anchor="middle" x="643.613" y="-362.3" font-family="Times New Roman,serif" font-size="14.00">ER Triage (1)</text>
</g>
<!-- &#45;6320656248013813873&#45;&gt;2377219762996478470 -->
<g id="edge5" class="edge"><title>&#45;6320656248013813873&#45;&gt;2377219762996478470</title>
<path fill="none" stroke="black" stroke-width="1.68497" d="M643.613,-434.799C643.613,-423.163 643.613,-407.548 643.613,-394.237"/>
<polygon fill="black" stroke="black" stroke-width="1.68497" points="647.113,-394.175 643.613,-384.175 640.113,-394.175 647.113,-394.175"/>
<text text-anchor="middle" x="699.613" y="-405.8" font-family="Times New Roman,serif" font-size="14.00">970.8234048379576</text>
</g>
<!-- 7430045975075819265 -->
<g id="node4" class="node"><title>7430045975075819265</title>
<polygon fill="#ffffff" stroke="black" points="710.613,-297 576.613,-297 576.613,-261 710.613,-261 710.613,-297"/>
<text text-anchor="middle" x="643.613" y="-275.3" font-family="Times New Roman,serif" font-size="14.00">ER Sepsis Triage (1)</text>
</g>
<!-- 2377219762996478470&#45;&gt;7430045975075819265 -->
<g id="edge6" class="edge"><title>2377219762996478470&#45;&gt;7430045975075819265</title>
<path fill="none" stroke="black" stroke-width="1.61509" d="M643.613,-347.799C643.613,-336.163 643.613,-320.548 643.613,-307.237"/>
<polygon fill="black" stroke="black" stroke-width="1.61509" points="647.113,-307.175 643.613,-297.175 640.113,-307.175 647.113,-307.175"/>
<text text-anchor="middle" x="699.613" y="-318.8" font-family="Times New Roman,serif" font-size="14.00">909.2268520908378</text>
</g>
<!-- &#45;5705463351445563725 -->
<g id="node6" class="node"><title>&#45;5705463351445563725</title>
<polygon fill="#ffffff" stroke="black" points="556.113,-384 441.113,-384 441.113,-348 556.113,-348 556.113,-384"/>
<text text-anchor="middle" x="498.613" y="-362.3" font-family="Times New Roman,serif" font-size="14.00">IV Antibiotics (1)</text>
</g>
<!-- &#45;5705463351445563725&#45;&gt;3703627156728642698 -->
<g id="edge7" class="edge"><title>&#45;5705463351445563725&#45;&gt;3703627156728642698</title>
<path fill="none" stroke="black" stroke-width="1.13407" d="M498.613,-347.799C498.613,-336.163 498.613,-320.548 498.613,-307.237"/>
<polygon fill="black" stroke="black" stroke-width="1.13407" points="502.113,-307.175 498.613,-297.175 495.113,-307.175 502.113,-307.175"/>
<text text-anchor="middle" x="554.613" y="-318.8" font-family="Times New Roman,serif" font-size="14.00">485.2389603302546</text>
</g>
<!-- &#45;3862139582344886855 -->
<g id="node7" class="node"><title>&#45;3862139582344886855</title>
<polygon fill="#ffffff" stroke="black" points="543.613,-471 453.613,-471 453.613,-435 543.613,-435 543.613,-471"/>
<text text-anchor="middle" x="498.613" y="-449.3" font-family="Times New Roman,serif" font-size="14.00">IV Liquid (1)</text>
</g>
<!-- &#45;3862139582344886855&#45;&gt;&#45;5705463351445563725 -->
<g id="edge8" class="edge"><title>&#45;3862139582344886855&#45;&gt;&#45;5705463351445563725</title>
<path fill="none" stroke="black" stroke-width="1.15577" d="M498.613,-434.799C498.613,-423.163 498.613,-407.548 498.613,-394.237"/>
<polygon fill="black" stroke="black" stroke-width="1.15577" points="502.113,-394.175 498.613,-384.175 495.113,-394.175 502.113,-394.175"/>
<text text-anchor="middle" x="558.113" y="-405.8" font-family="Times New Roman,serif" font-size="14.00">504.36056740613515</text>
</g>
<!-- 8066172473611450852&#45;&gt;3579705282704473787 -->
<g id="edge9" class="edge"><title>8066172473611450852&#45;&gt;3579705282704473787</title>
<path fill="none" stroke="black" stroke-width="1.04129" d="M96.6756,-123.099C107.779,-133.981 123.418,-147.565 139.613,-156 168.155,-170.865 203.509,-179.779 230.591,-184.888"/>
<polygon fill="black" stroke="black" stroke-width="1.04129" points="230.074,-188.351 240.534,-186.665 231.305,-181.46 230.074,-188.351"/>
<text text-anchor="middle" x="199.113" y="-144.8" font-family="Times New Roman,serif" font-size="14.00">403.45663266204775</text>
</g>
<!-- 8066172473611450852&#45;&gt;&#45;755878416217562554 -->
<g id="edge10" class="edge"><title>8066172473611450852&#45;&gt;&#45;755878416217562554</title>
<path fill="none" stroke="black" stroke-width="1.22515" d="M41.6896,-86.8835C26.2151,-77.7265 14.2701,-65.9052 24.6131,-54 48.3664,-26.659 146.222,-20.0805 211.68,-18.8205"/>
<polygon fill="black" stroke="black" stroke-width="1.22515" points="211.947,-22.3169 221.891,-18.6616 211.838,-15.3177 211.947,-22.3169"/>
<text text-anchor="middle" x="74.1131" y="-57.8" font-family="Times New Roman,serif" font-size="14.00">565.51579710945</text>
</g>
<!-- &#45;755878416217562554&#45;&gt;3579705282704473787 -->
<g id="edge11" class="edge"><title>&#45;755878416217562554&#45;&gt;3579705282704473787</title>
<path fill="none" stroke="black" stroke-width="2.6" d="M322.346,-36.1523C365.615,-54.0524 418.13,-84.8222 395.613,-123 378.204,-152.517 342.878,-170.113 314.533,-179.985"/>
<polygon fill="black" stroke="black" stroke-width="2.6" points="313.252,-176.721 304.839,-183.161 315.432,-183.373 313.252,-176.721"/>
<text text-anchor="middle" x="461.113" y="-101.3" font-family="Times New Roman,serif" font-size="14.00">1777.3582216725933</text>
</g>
<!-- &#45;755878416217562554&#45;&gt;8066172473611450852 -->
<g id="edge12" class="edge"><title>&#45;755878416217562554&#45;&gt;8066172473611450852</title>
<path fill="none" stroke="black" stroke-width="1.07872" d="M221.956,-28.4714C198.299,-34.0352 170.216,-42.3168 146.613,-54 138.751,-57.8916 123.385,-69.4369 109.456,-80.4537"/>
<polygon fill="black" stroke="black" stroke-width="1.07872" points="107.118,-77.8416 101.489,-86.8172 111.487,-83.3111 107.118,-77.8416"/>
<text text-anchor="middle" x="202.613" y="-57.8" font-family="Times New Roman,serif" font-size="14.00">436.4539474389221</text>
</g>
<!-- &#45;755878416217562554&#45;&gt;&#45;755878416217562554 -->
<g id="edge13" class="edge"><title>&#45;755878416217562554&#45;&gt;&#45;755878416217562554</title>
<path fill="none" stroke="black" stroke-width="1.10298" d="M323.397,-25.5746C333.721,-24.7495 341.113,-22.2246 341.113,-18 341.113,-15.3596 338.225,-13.3832 333.539,-12.0707"/>
<polygon fill="black" stroke="black" stroke-width="1.10298" points="333.828,-8.57199 323.397,-10.4254 332.707,-15.4817 333.828,-8.57199"/>
<text text-anchor="middle" x="397.113" y="-14.3" font-family="Times New Roman,serif" font-size="14.00">457.8343218933633</text>
</g>
</g>
</svg>
