<?xml version="1.0" encoding="UTF-8" standalone="no"?>
<!DOCTYPE svg PUBLIC "-//W3C//DTD SVG 1.1//EN"
 "http://www.w3.org/Graphics/SVG/1.1/DTD/svg11.dtd">
<!-- Generated by graphviz version 2.38.0 (20140413.2041)
 -->
<!-- Title: %3 Pages: 1 -->
<svg width="752pt" height="479pt"
 viewBox="0.00 0.00 752.34 479.00" xmlns="http://www.w3.org/2000/svg" xmlns:xlink="http://www.w3.org/1999/xlink">
<g id="graph0" class="graph" transform="scale(1 1) rotate(0) translate(4 475)">
<title>%3</title>
<!-- &#45;6760735685208204671 -->
<g id="node1" class="node"><title>&#45;6760735685208204671</title>
<polygon fill="#ffffff" stroke="black" points="546.842,-297 427.842,-297 427.842,-261 546.842,-261 546.842,-297"/>
<text text-anchor="middle" x="487.342" y="-275.3" font-family="Times New Roman,serif" font-size="14.00">Admission NC (1)</text>
</g>
<!-- 7850561497370058999 -->
<g id="node2" class="node"><title>7850561497370058999</title>
<polygon fill="#ffffff" stroke="black" points="298.342,-210 234.342,-210 234.342,-174 298.342,-174 298.342,-210"/>
<text text-anchor="middle" x="266.342" y="-188.3" font-family="Times New Roman,serif" font-size="14.00">CRP (1)</text>
</g>
<!-- &#45;6760735685208204671&#45;&gt;7850561497370058999 -->
<g id="edge1" class="edge"><title>&#45;6760735685208204671&#45;&gt;7850561497370058999</title>
<path fill="none" stroke="black" d="M442.885,-260.901C403.493,-245.751 346.416,-223.798 307.918,-208.991"/>
<polygon fill="black" stroke="black" points="309.143,-205.712 298.553,-205.389 306.63,-212.246 309.143,-205.712"/>
<text text-anchor="middle" x="446.342" y="-231.8" font-family="Times New Roman,serif" font-size="14.00">369.0604353467877</text>
</g>
<!-- 6179918396602481755 -->
<g id="node9" class="node"><title>6179918396602481755</title>
<polygon fill="#ffffff" stroke="black" points="316.842,-36 215.842,-36 215.842,-0 316.842,-0 316.842,-36"/>
<text text-anchor="middle" x="266.342" y="-14.3" font-family="Times New Roman,serif" font-size="14.00">Leucocytes (1)</text>
</g>
<!-- &#45;6760735685208204671&#45;&gt;6179918396602481755 -->
<g id="edge2" class="edge"><title>&#45;6760735685208204671&#45;&gt;6179918396602481755</title>
<path fill="none" stroke="black" stroke-width="1.04425" d="M498.659,-260.861C501.718,-255.376 504.648,-249.131 506.342,-243 524.81,-176.135 553.324,-142.222 511.342,-87 489.121,-57.7718 392.327,-37.8161 327.26,-27.4237"/>
<polygon fill="black" stroke="black" stroke-width="1.04425" points="327.526,-23.9229 317.105,-25.838 326.446,-30.8391 327.526,-23.9229"/>
<text text-anchor="middle" x="589.342" y="-144.8" font-family="Times New Roman,serif" font-size="14.00">408.0287012119591</text>
</g>
<!-- 1152587832168206417 -->
<g id="node8" class="node"><title>1152587832168206417</title>
<polygon fill="#ffffff" stroke="black" points="117.342,-123 19.3415,-123 19.3415,-87 117.342,-87 117.342,-123"/>
<text text-anchor="middle" x="68.3415" y="-101.3" font-family="Times New Roman,serif" font-size="14.00">LacticAcid (1)</text>
</g>
<!-- 7850561497370058999&#45;&gt;1152587832168206417 -->
<g id="edge3" class="edge"><title>7850561497370058999&#45;&gt;1152587832168206417</title>
<path fill="none" stroke="black" stroke-width="1.29517" d="M234.309,-191.715C171.103,-192.366 33.8862,-189.754 4.34154,-156 -4.56205,-145.828 2.17993,-136.262 14.0974,-128.275"/>
<polygon fill="black" stroke="black" stroke-width="1.29517" points="16.2023,-131.097 23.0461,-123.01 12.6524,-125.064 16.2023,-131.097"/>
<text text-anchor="middle" x="57.3415" y="-144.8" font-family="Times New Roman,serif" font-size="14.00">628.969434258754</text>
</g>
<!-- 7850561497370058999&#45;&gt;6179918396602481755 -->
<g id="edge4" class="edge"><title>7850561497370058999&#45;&gt;6179918396602481755</title>
<path fill="none" stroke="black" stroke-width="2.22201" d="M266.342,-173.879C266.342,-144.001 266.342,-82.1129 266.342,-46.2736"/>
<polygon fill="black" stroke="black" stroke-width="2.22201" points="269.842,-46.0516 266.342,-36.0516 262.842,-46.0516 269.842,-46.0516"/>
<text text-anchor="middle" x="322.342" y="-101.3" font-family="Times New Roman,serif" font-size="14.00">1445.103140038583</text>
</g>
<!-- &#45;2410219256766748193 -->
<g id="node3" class="node"><title>&#45;2410219256766748193</title>
<polygon fill="#ffffff" stroke="black" points="694.842,-471 569.842,-471 569.842,-435 694.842,-435 694.842,-471"/>
<text text-anchor="middle" x="632.342" y="-449.3" font-family="Times New Roman,serif" font-size="14.00">ER Registration (1)</text>
</g>
<!-- &#45;2872325205858232948 -->
<g id="node5" class="node"><title>&#45;2872325205858232948</title>
<polygon fill="#ffffff" stroke="black" points="678.842,-384 585.842,-384 585.842,-348 678.842,-348 678.842,-384"/>
<text text-anchor="middle" x="632.342" y="-362.3" font-family="Times New Roman,serif" font-size="14.00">ER Triage (1)</text>
</g>
<!-- &#45;2410219256766748193&#45;&gt;&#45;2872325205858232948 -->
<g id="edge5" class="edge"><title>&#45;2410219256766748193&#45;&gt;&#45;2872325205858232948</title>
<path fill="none" stroke="black" stroke-width="1.68356" d="M632.342,-434.799C632.342,-423.163 632.342,-407.548 632.342,-394.237"/>
<polygon fill="black" stroke="black" stroke-width="1.68356" points="635.842,-394.175 632.342,-384.175 628.842,-394.175 635.842,-394.175"/>
<text text-anchor="middle" x="688.342" y="-405.8" font-family="Times New Roman,serif" font-size="14.00">970.9723666486293</text>
</g>
<!-- 8892003065059452103 -->
<g id="node4" class="node"><title>8892003065059452103</title>
<polygon fill="#ffffff" stroke="black" points="699.342,-297 565.342,-297 565.342,-261 699.342,-261 699.342,-297"/>
<text text-anchor="middle" x="632.342" y="-275.3" font-family="Times New Roman,serif" font-size="14.00">ER Sepsis Triage (1)</text>
</g>
<!-- &#45;2872325205858232948&#45;&gt;8892003065059452103 -->
<g id="edge6" class="edge"><title>&#45;2872325205858232948&#45;&gt;8892003065059452103</title>
<path fill="none" stroke="black" stroke-width="1.60814" d="M632.342,-347.799C632.342,-336.163 632.342,-320.548 632.342,-307.237"/>
<polygon fill="black" stroke="black" stroke-width="1.60814" points="635.842,-307.175 632.342,-297.175 628.842,-307.175 635.842,-307.175"/>
<text text-anchor="middle" x="688.342" y="-318.8" font-family="Times New Roman,serif" font-size="14.00">904.5613500936205</text>
</g>
<!-- &#45;6564841300794043563 -->
<g id="node6" class="node"><title>&#45;6564841300794043563</title>
<polygon fill="#ffffff" stroke="black" points="544.842,-384 429.842,-384 429.842,-348 544.842,-348 544.842,-384"/>
<text text-anchor="middle" x="487.342" y="-362.3" font-family="Times New Roman,serif" font-size="14.00">IV Antibiotics (1)</text>
</g>
<!-- &#45;6564841300794043563&#45;&gt;&#45;6760735685208204671 -->
<g id="edge7" class="edge"><title>&#45;6564841300794043563&#45;&gt;&#45;6760735685208204671</title>
<path fill="none" stroke="black" stroke-width="1.13634" d="M487.342,-347.799C487.342,-336.163 487.342,-320.548 487.342,-307.237"/>
<polygon fill="black" stroke="black" stroke-width="1.13634" points="490.842,-307.175 487.342,-297.175 483.842,-307.175 490.842,-307.175"/>
<text text-anchor="middle" x="540.342" y="-318.8" font-family="Times New Roman,serif" font-size="14.00">489.114167875147</text>
</g>
<!-- &#45;1926219633770359302 -->
<g id="node7" class="node"><title>&#45;1926219633770359302</title>
<polygon fill="#ffffff" stroke="black" points="532.342,-471 442.342,-471 442.342,-435 532.342,-435 532.342,-471"/>
<text text-anchor="middle" x="487.342" y="-449.3" font-family="Times New Roman,serif" font-size="14.00">IV Liquid (1)</text>
</g>
<!-- &#45;1926219633770359302&#45;&gt;&#45;6564841300794043563 -->
<g id="edge8" class="edge"><title>&#45;1926219633770359302&#45;&gt;&#45;6564841300794043563</title>
<path fill="none" stroke="black" stroke-width="1.14988" d="M487.342,-434.799C487.342,-423.163 487.342,-407.548 487.342,-394.237"/>
<polygon fill="black" stroke="black" stroke-width="1.14988" points="490.842,-394.175 487.342,-384.175 483.842,-394.175 490.842,-394.175"/>
<text text-anchor="middle" x="546.842" y="-405.8" font-family="Times New Roman,serif" font-size="14.00">501.03734474478836</text>
</g>
<!-- 1152587832168206417&#45;&gt;7850561497370058999 -->
<g id="edge9" class="edge"><title>1152587832168206417&#45;&gt;7850561497370058999</title>
<path fill="none" stroke="black" stroke-width="1.03939" d="M88.8641,-123.224C104.183,-135.8 124.013,-151.419 133.342,-156 162.132,-170.139 197.331,-179.077 224.284,-184.379"/>
<polygon fill="black" stroke="black" stroke-width="1.03939" points="223.706,-187.832 234.18,-186.236 224.997,-180.952 223.706,-187.832"/>
<text text-anchor="middle" x="192.842" y="-144.8" font-family="Times New Roman,serif" font-size="14.00">403.74749903555903</text>
</g>
<!-- 1152587832168206417&#45;&gt;6179918396602481755 -->
<g id="edge10" class="edge"><title>1152587832168206417&#45;&gt;6179918396602481755</title>
<path fill="none" stroke="black" stroke-width="1.22277" d="M23.6997,-86.8871C7.03,-77.9931 -5.5076,-66.4011 5.34154,-54 30.789,-24.9123 136.465,-18.9795 205.298,-18.3044"/>
<polygon fill="black" stroke="black" stroke-width="1.22277" points="205.614,-21.8026 215.592,-18.2395 205.57,-14.8027 205.614,-21.8026"/>
<text text-anchor="middle" x="61.3415" y="-57.8" font-family="Times New Roman,serif" font-size="14.00">565.2234359741456</text>
</g>
<!-- 6179918396602481755&#45;&gt;7850561497370058999 -->
<g id="edge11" class="edge"><title>6179918396602481755&#45;&gt;7850561497370058999</title>
<path fill="none" stroke="black" stroke-width="2.6" d="M312.121,-36.0649C353.165,-54.2127 403.856,-85.4502 382.342,-123 366.424,-150.781 334.266,-168.313 307.838,-178.604"/>
<polygon fill="black" stroke="black" stroke-width="2.6" points="306.579,-175.337 298.401,-182.073 308.995,-181.907 306.579,-175.337"/>
<text text-anchor="middle" x="447.842" y="-101.3" font-family="Times New Roman,serif" font-size="14.00">1777.9397085236953</text>
</g>
<!-- 6179918396602481755&#45;&gt;1152587832168206417 -->
<g id="edge12" class="edge"><title>6179918396602481755&#45;&gt;1152587832168206417</title>
<path fill="none" stroke="black" stroke-width="1.07489" d="M215.591,-28.9847C192.044,-34.6426 164.078,-42.8554 140.342,-54 135.873,-56.0983 117.434,-68.9166 100.337,-81.0478"/>
<polygon fill="black" stroke="black" stroke-width="1.07489" points="98.2354,-78.2475 92.1183,-86.898 102.295,-83.9502 98.2354,-78.2475"/>
<text text-anchor="middle" x="196.342" y="-57.8" font-family="Times New Roman,serif" font-size="14.00">435.0088535657942</text>
</g>
<!-- 6179918396602481755&#45;&gt;6179918396602481755 -->
<g id="edge13" class="edge"><title>6179918396602481755&#45;&gt;6179918396602481755</title>
<path fill="none" stroke="black" stroke-width="1.10087" d="M317.125,-25.5746C327.449,-24.7495 334.842,-22.2246 334.842,-18 334.842,-15.3596 331.954,-13.3832 327.268,-12.0707"/>
<polygon fill="black" stroke="black" stroke-width="1.10087" points="327.557,-8.57199 317.125,-10.4254 326.436,-15.4817 327.557,-8.57199"/>
<text text-anchor="middle" x="394.342" y="-14.3" font-family="Times New Roman,serif" font-size="14.00">457.88583237441804</text>
</g>
</g>
</svg>
