<?xml version="1.0" encoding="UTF-8" standalone="no"?>
<!DOCTYPE svg PUBLIC "-//W3C//DTD SVG 1.1//EN"
 "http://www.w3.org/Graphics/SVG/1.1/DTD/svg11.dtd">
<!-- Generated by graphviz version 2.38.0 (20140413.2041)
 -->
<!-- Title: %3 Pages: 1 -->
<svg width="747pt" height="479pt"
 viewBox="0.00 0.00 747.25 479.00" xmlns="http://www.w3.org/2000/svg" xmlns:xlink="http://www.w3.org/1999/xlink">
<g id="graph0" class="graph" transform="scale(1 1) rotate(0) translate(4 475)">
<title>%3</title>
<!-- &#45;6760735685208204671 -->
<g id="node1" class="node"><title>&#45;6760735685208204671</title>
<polygon fill="#ffffff" stroke="black" points="541.753,-297 422.753,-297 422.753,-261 541.753,-261 541.753,-297"/>
<text text-anchor="middle" x="482.253" y="-275.3" font-family="Times New Roman,serif" font-size="14.00">Admission NC (1)</text>
</g>
<!-- 7850561497370058999 -->
<g id="node2" class="node"><title>7850561497370058999</title>
<polygon fill="#ffffff" stroke="black" points="298.253,-210 234.253,-210 234.253,-174 298.253,-174 298.253,-210"/>
<text text-anchor="middle" x="266.253" y="-188.3" font-family="Times New Roman,serif" font-size="14.00">CRP (1)</text>
</g>
<!-- &#45;6760735685208204671&#45;&gt;7850561497370058999 -->
<g id="edge1" class="edge"><title>&#45;6760735685208204671&#45;&gt;7850561497370058999</title>
<path fill="none" stroke="black" d="M438.802,-260.901C400.691,-245.904 345.641,-224.241 308.035,-209.442"/>
<polygon fill="black" stroke="black" points="308.983,-206.054 298.396,-205.649 306.42,-212.568 308.983,-206.054"/>
<text text-anchor="middle" x="443.253" y="-231.8" font-family="Times New Roman,serif" font-size="14.00">366.5992277251045</text>
</g>
<!-- 6179918396602481755 -->
<g id="node9" class="node"><title>6179918396602481755</title>
<polygon fill="#ffffff" stroke="black" points="316.753,-36 215.753,-36 215.753,-0 316.753,-0 316.753,-36"/>
<text text-anchor="middle" x="266.253" y="-14.3" font-family="Times New Roman,serif" font-size="14.00">Leucocytes (1)</text>
</g>
<!-- &#45;6760735685208204671&#45;&gt;6179918396602481755 -->
<g id="edge2" class="edge"><title>&#45;6760735685208204671&#45;&gt;6179918396602481755</title>
<path fill="none" stroke="black" stroke-width="1.04865" d="M495.111,-260.68C498.416,-255.287 501.525,-249.139 503.253,-243 522.039,-176.259 546.006,-142.353 504.253,-87 482.882,-58.6683 390.02,-38.5895 326.811,-27.9074"/>
<polygon fill="black" stroke="black" stroke-width="1.04865" points="327.373,-24.453 316.936,-26.2739 326.231,-31.3591 327.373,-24.453"/>
<text text-anchor="middle" x="584.253" y="-144.8" font-family="Times New Roman,serif" font-size="14.00">409.4020864994465</text>
</g>
<!-- 1152587832168206417 -->
<g id="node8" class="node"><title>1152587832168206417</title>
<polygon fill="#ffffff" stroke="black" points="120.253,-123 22.2525,-123 22.2525,-87 120.253,-87 120.253,-123"/>
<text text-anchor="middle" x="71.2525" y="-101.3" font-family="Times New Roman,serif" font-size="14.00">LacticAcid (1)</text>
</g>
<!-- 7850561497370058999&#45;&gt;1152587832168206417 -->
<g id="edge3" class="edge"><title>7850561497370058999&#45;&gt;1152587832168206417</title>
<path fill="none" stroke="black" stroke-width="1.29387" d="M234.119,-191.581C172.173,-191.94 39.8157,-188.751 11.2525,-156 2.63546,-146.119 9.08625,-136.57 20.4523,-128.511"/>
<polygon fill="black" stroke="black" stroke-width="1.29387" points="22.3539,-131.45 28.9816,-123.184 18.6458,-125.513 22.3539,-131.45"/>
<text text-anchor="middle" x="67.2525" y="-144.8" font-family="Times New Roman,serif" font-size="14.00">625.1219245975176</text>
</g>
<!-- 7850561497370058999&#45;&gt;6179918396602481755 -->
<g id="edge4" class="edge"><title>7850561497370058999&#45;&gt;6179918396602481755</title>
<path fill="none" stroke="black" stroke-width="2.22315" d="M266.253,-173.879C266.253,-144.001 266.253,-82.1129 266.253,-46.2736"/>
<polygon fill="black" stroke="black" stroke-width="2.22315" points="269.753,-46.0516 266.253,-36.0516 262.753,-46.0516 269.753,-46.0516"/>
<text text-anchor="middle" x="322.253" y="-101.3" font-family="Times New Roman,serif" font-size="14.00">1442.635479868576</text>
</g>
<!-- &#45;2410219256766748193 -->
<g id="node3" class="node"><title>&#45;2410219256766748193</title>
<polygon fill="#ffffff" stroke="black" points="689.753,-471 564.753,-471 564.753,-435 689.753,-435 689.753,-471"/>
<text text-anchor="middle" x="627.253" y="-449.3" font-family="Times New Roman,serif" font-size="14.00">ER Registration (1)</text>
</g>
<!-- &#45;2872325205858232948 -->
<g id="node5" class="node"><title>&#45;2872325205858232948</title>
<polygon fill="#ffffff" stroke="black" points="673.753,-384 580.753,-384 580.753,-348 673.753,-348 673.753,-384"/>
<text text-anchor="middle" x="627.253" y="-362.3" font-family="Times New Roman,serif" font-size="14.00">ER Triage (1)</text>
</g>
<!-- &#45;2410219256766748193&#45;&gt;&#45;2872325205858232948 -->
<g id="edge5" class="edge"><title>&#45;2410219256766748193&#45;&gt;&#45;2872325205858232948</title>
<path fill="none" stroke="black" stroke-width="1.68745" d="M627.253,-434.799C627.253,-423.163 627.253,-407.548 627.253,-394.237"/>
<polygon fill="black" stroke="black" stroke-width="1.68745" points="630.753,-394.175 627.253,-384.175 623.753,-394.175 630.753,-394.175"/>
<text text-anchor="middle" x="683.253" y="-405.8" font-family="Times New Roman,serif" font-size="14.00">971.3677202480649</text>
</g>
<!-- 8892003065059452103 -->
<g id="node4" class="node"><title>8892003065059452103</title>
<polygon fill="#ffffff" stroke="black" points="694.253,-297 560.253,-297 560.253,-261 694.253,-261 694.253,-297"/>
<text text-anchor="middle" x="627.253" y="-275.3" font-family="Times New Roman,serif" font-size="14.00">ER Sepsis Triage (1)</text>
</g>
<!-- &#45;2872325205858232948&#45;&gt;8892003065059452103 -->
<g id="edge6" class="edge"><title>&#45;2872325205858232948&#45;&gt;8892003065059452103</title>
<path fill="none" stroke="black" stroke-width="1.6183" d="M627.253,-347.799C627.253,-336.163 627.253,-320.548 627.253,-307.237"/>
<polygon fill="black" stroke="black" stroke-width="1.6183" points="630.753,-307.175 627.253,-297.175 623.753,-307.175 630.753,-307.175"/>
<text text-anchor="middle" x="683.253" y="-318.8" font-family="Times New Roman,serif" font-size="14.00">910.5341061665881</text>
</g>
<!-- &#45;6564841300794043563 -->
<g id="node6" class="node"><title>&#45;6564841300794043563</title>
<polygon fill="#ffffff" stroke="black" points="539.753,-384 424.753,-384 424.753,-348 539.753,-348 539.753,-384"/>
<text text-anchor="middle" x="482.253" y="-362.3" font-family="Times New Roman,serif" font-size="14.00">IV Antibiotics (1)</text>
</g>
<!-- &#45;6564841300794043563&#45;&gt;&#45;6760735685208204671 -->
<g id="edge7" class="edge"><title>&#45;6564841300794043563&#45;&gt;&#45;6760735685208204671</title>
<path fill="none" stroke="black" stroke-width="1.13488" d="M482.253,-347.799C482.253,-336.163 482.253,-320.548 482.253,-307.237"/>
<polygon fill="black" stroke="black" stroke-width="1.13488" points="485.753,-307.175 482.253,-297.175 478.753,-307.175 485.753,-307.175"/>
<text text-anchor="middle" x="538.253" y="-318.8" font-family="Times New Roman,serif" font-size="14.00">485.2546337676032</text>
</g>
<!-- &#45;1926219633770359302 -->
<g id="node7" class="node"><title>&#45;1926219633770359302</title>
<polygon fill="#ffffff" stroke="black" points="527.253,-471 437.253,-471 437.253,-435 527.253,-435 527.253,-471"/>
<text text-anchor="middle" x="482.253" y="-449.3" font-family="Times New Roman,serif" font-size="14.00">IV Liquid (1)</text>
</g>
<!-- &#45;1926219633770359302&#45;&gt;&#45;6564841300794043563 -->
<g id="edge8" class="edge"><title>&#45;1926219633770359302&#45;&gt;&#45;6564841300794043563</title>
<path fill="none" stroke="black" stroke-width="1.15203" d="M482.253,-434.799C482.253,-423.163 482.253,-407.548 482.253,-394.237"/>
<polygon fill="black" stroke="black" stroke-width="1.15203" points="485.753,-394.175 482.253,-384.175 478.753,-394.175 485.753,-394.175"/>
<text text-anchor="middle" x="535.253" y="-405.8" font-family="Times New Roman,serif" font-size="14.00">500.341631340715</text>
</g>
<!-- 1152587832168206417&#45;&gt;7850561497370058999 -->
<g id="edge9" class="edge"><title>1152587832168206417&#45;&gt;7850561497370058999</title>
<path fill="none" stroke="black" stroke-width="1.06592" d="M96.8336,-123.185C118.024,-137.399 144.887,-155.364 146.253,-156 171.1,-167.573 200.641,-176.247 224.195,-182.064"/>
<polygon fill="black" stroke="black" stroke-width="1.06592" points="223.684,-185.541 234.224,-184.459 225.31,-178.732 223.684,-185.541"/>
<text text-anchor="middle" x="199.253" y="-144.8" font-family="Times New Roman,serif" font-size="14.00">424.589263891407</text>
</g>
<!-- 1152587832168206417&#45;&gt;6179918396602481755 -->
<g id="edge10" class="edge"><title>1152587832168206417&#45;&gt;6179918396602481755</title>
<path fill="none" stroke="black" stroke-width="1.22644" d="M23.1063,-86.8612C5.88073,-78.1224 -6.83628,-66.6686 4.25253,-54 29.839,-24.7682 136.18,-18.893 205.269,-18.2661"/>
<polygon fill="black" stroke="black" stroke-width="1.22644" points="205.618,-21.7643 215.598,-18.2085 205.579,-14.7644 205.618,-21.7643"/>
<text text-anchor="middle" x="57.2525" y="-57.8" font-family="Times New Roman,serif" font-size="14.00">565.806706536127</text>
</g>
<!-- 6179918396602481755&#45;&gt;7850561497370058999 -->
<g id="edge11" class="edge"><title>6179918396602481755&#45;&gt;7850561497370058999</title>
<path fill="none" stroke="black" stroke-width="2.6" d="M312.032,-36.0649C353.076,-54.2127 403.767,-85.4502 382.253,-123 366.335,-150.781 334.177,-168.313 307.749,-178.604"/>
<polygon fill="black" stroke="black" stroke-width="2.6" points="306.49,-175.337 298.312,-182.073 308.906,-181.907 306.49,-175.337"/>
<text text-anchor="middle" x="444.253" y="-101.3" font-family="Times New Roman,serif" font-size="14.00">1774.162693066621</text>
</g>
<!-- 6179918396602481755&#45;&gt;1152587832168206417 -->
<g id="edge12" class="edge"><title>6179918396602481755&#45;&gt;1152587832168206417</title>
<path fill="none" stroke="black" stroke-width="1.07439" d="M215.496,-27.1283C189.902,-32.5064 158.93,-41.0215 133.253,-54 125.792,-57.7709 111.549,-69.1328 98.5941,-80.0742"/>
<polygon fill="black" stroke="black" stroke-width="1.07439" points="96.0967,-77.6044 90.7665,-86.7609 100.643,-82.9269 96.0967,-77.6044"/>
<text text-anchor="middle" x="192.753" y="-57.8" font-family="Times New Roman,serif" font-size="14.00">432.04286952080815</text>
</g>
<!-- 6179918396602481755&#45;&gt;6179918396602481755 -->
<g id="edge13" class="edge"><title>6179918396602481755&#45;&gt;6179918396602481755</title>
<path fill="none" stroke="black" stroke-width="1.10228" d="M317.036,-25.5746C327.36,-24.7495 334.753,-22.2246 334.753,-18 334.753,-15.3596 331.865,-13.3832 327.179,-12.0707"/>
<polygon fill="black" stroke="black" stroke-width="1.10228" points="327.468,-8.57199 317.036,-10.4254 326.347,-15.4817 327.468,-8.57199"/>
<text text-anchor="middle" x="394.253" y="-14.3" font-family="Times New Roman,serif" font-size="14.00">456.58036883782034</text>
</g>
</g>
</svg>
