<?xml version="1.0" encoding="UTF-8" standalone="no"?>
<!DOCTYPE svg PUBLIC "-//W3C//DTD SVG 1.1//EN"
 "http://www.w3.org/Graphics/SVG/1.1/DTD/svg11.dtd">
<!-- Generated by graphviz version 2.38.0 (20140413.2041)
 -->
<!-- Title: %3 Pages: 1 -->
<svg width="747pt" height="479pt"
 viewBox="0.00 0.00 747.29 479.00" xmlns="http://www.w3.org/2000/svg" xmlns:xlink="http://www.w3.org/1999/xlink">
<g id="graph0" class="graph" transform="scale(1 1) rotate(0) translate(4 475)">
<title>%3</title>
<!-- 3703627156728642698 -->
<g id="node1" class="node"><title>3703627156728642698</title>
<polygon fill="#ffffff" stroke="black" points="547.789,-297 428.789,-297 428.789,-261 547.789,-261 547.789,-297"/>
<text text-anchor="middle" x="488.289" y="-275.3" font-family="Times New Roman,serif" font-size="14.00">Admission NC (1)</text>
</g>
<!-- 3579705282704473787 -->
<g id="node2" class="node"><title>3579705282704473787</title>
<polygon fill="#ffffff" stroke="black" points="304.289,-210 240.289,-210 240.289,-174 304.289,-174 304.289,-210"/>
<text text-anchor="middle" x="272.289" y="-188.3" font-family="Times New Roman,serif" font-size="14.00">CRP (1)</text>
</g>
<!-- 3703627156728642698&#45;&gt;3579705282704473787 -->
<g id="edge1" class="edge"><title>3703627156728642698&#45;&gt;3579705282704473787</title>
<path fill="none" stroke="black" d="M444.838,-260.901C406.728,-245.904 351.678,-224.241 314.072,-209.442"/>
<polygon fill="black" stroke="black" points="315.02,-206.054 304.433,-205.649 312.457,-212.568 315.02,-206.054"/>
<text text-anchor="middle" x="449.289" y="-231.8" font-family="Times New Roman,serif" font-size="14.00">370.0044016063043</text>
</g>
<!-- &#45;755878416217562554 -->
<g id="node9" class="node"><title>&#45;755878416217562554</title>
<polygon fill="#ffffff" stroke="black" points="322.789,-36 221.789,-36 221.789,-0 322.789,-0 322.789,-36"/>
<text text-anchor="middle" x="272.289" y="-14.3" font-family="Times New Roman,serif" font-size="14.00">Leucocytes (1)</text>
</g>
<!-- 3703627156728642698&#45;&gt;&#45;755878416217562554 -->
<g id="edge2" class="edge"><title>3703627156728642698&#45;&gt;&#45;755878416217562554</title>
<path fill="none" stroke="black" stroke-width="1.0367" d="M501.148,-260.68C504.453,-255.287 507.561,-249.139 509.289,-243 528.075,-176.259 552.042,-142.353 510.289,-87 488.919,-58.6683 396.057,-38.5895 332.847,-27.9074"/>
<polygon fill="black" stroke="black" stroke-width="1.0367" points="333.41,-24.453 322.973,-26.2739 332.267,-31.3591 333.41,-24.453"/>
<text text-anchor="middle" x="593.789" y="-144.8" font-family="Times New Roman,serif" font-size="14.00">402.33617515191094</text>
</g>
<!-- 8066172473611450852 -->
<g id="node8" class="node"><title>8066172473611450852</title>
<polygon fill="#ffffff" stroke="black" points="123.289,-123 25.2894,-123 25.2894,-87 123.289,-87 123.289,-123"/>
<text text-anchor="middle" x="74.2894" y="-101.3" font-family="Times New Roman,serif" font-size="14.00">LacticAcid (1)</text>
</g>
<!-- 3579705282704473787&#45;&gt;8066172473611450852 -->
<g id="edge3" class="edge"><title>3579705282704473787&#45;&gt;8066172473611450852</title>
<path fill="none" stroke="black" stroke-width="1.28784" d="M239.894,-191.7C176.713,-192.296 40.6395,-189.549 11.2894,-156 2.47447,-145.924 9.09845,-136.382 20.8336,-128.388"/>
<polygon fill="black" stroke="black" stroke-width="1.28784" points="22.8643,-131.252 29.6476,-123.113 19.2695,-125.245 22.8643,-131.252"/>
<text text-anchor="middle" x="67.2894" y="-144.8" font-family="Times New Roman,serif" font-size="14.00">623.5638140117472</text>
</g>
<!-- 3579705282704473787&#45;&gt;&#45;755878416217562554 -->
<g id="edge4" class="edge"><title>3579705282704473787&#45;&gt;&#45;755878416217562554</title>
<path fill="none" stroke="black" stroke-width="2.21984" d="M272.289,-173.879C272.289,-144.001 272.289,-82.1129 272.289,-46.2736"/>
<polygon fill="black" stroke="black" stroke-width="2.21984" points="275.789,-46.0516 272.289,-36.0516 268.789,-46.0516 275.789,-46.0516"/>
<text text-anchor="middle" x="328.289" y="-101.3" font-family="Times New Roman,serif" font-size="14.00">1444.569695910689</text>
</g>
<!-- &#45;6320656248013813873 -->
<g id="node3" class="node"><title>&#45;6320656248013813873</title>
<polygon fill="#ffffff" stroke="black" points="695.789,-471 570.789,-471 570.789,-435 695.789,-435 695.789,-471"/>
<text text-anchor="middle" x="633.289" y="-449.3" font-family="Times New Roman,serif" font-size="14.00">ER Registration (1)</text>
</g>
<!-- 2377219762996478470 -->
<g id="node5" class="node"><title>2377219762996478470</title>
<polygon fill="#ffffff" stroke="black" points="679.789,-384 586.789,-384 586.789,-348 679.789,-348 679.789,-384"/>
<text text-anchor="middle" x="633.289" y="-362.3" font-family="Times New Roman,serif" font-size="14.00">ER Triage (1)</text>
</g>
<!-- &#45;6320656248013813873&#45;&gt;2377219762996478470 -->
<g id="edge5" class="edge"><title>&#45;6320656248013813873&#45;&gt;2377219762996478470</title>
<path fill="none" stroke="black" stroke-width="1.68225" d="M633.289,-434.799C633.289,-423.163 633.289,-407.548 633.289,-394.237"/>
<polygon fill="black" stroke="black" stroke-width="1.68225" points="636.789,-394.175 633.289,-384.175 629.789,-394.175 636.789,-394.175"/>
<text text-anchor="middle" x="686.289" y="-405.8" font-family="Times New Roman,serif" font-size="14.00">970.999201093409</text>
</g>
<!-- 7430045975075819265 -->
<g id="node4" class="node"><title>7430045975075819265</title>
<polygon fill="#ffffff" stroke="black" points="700.289,-297 566.289,-297 566.289,-261 700.289,-261 700.289,-297"/>
<text text-anchor="middle" x="633.289" y="-275.3" font-family="Times New Roman,serif" font-size="14.00">ER Sepsis Triage (1)</text>
</g>
<!-- 2377219762996478470&#45;&gt;7430045975075819265 -->
<g id="edge6" class="edge"><title>2377219762996478470&#45;&gt;7430045975075819265</title>
<path fill="none" stroke="black" stroke-width="1.60814" d="M633.289,-347.799C633.289,-336.163 633.289,-320.548 633.289,-307.237"/>
<polygon fill="black" stroke="black" stroke-width="1.60814" points="636.789,-307.175 633.289,-297.175 629.789,-307.175 636.789,-307.175"/>
<text text-anchor="middle" x="686.289" y="-318.8" font-family="Times New Roman,serif" font-size="14.00">905.714845815794</text>
</g>
<!-- &#45;5705463351445563725 -->
<g id="node6" class="node"><title>&#45;5705463351445563725</title>
<polygon fill="#ffffff" stroke="black" points="545.789,-384 430.789,-384 430.789,-348 545.789,-348 545.789,-384"/>
<text text-anchor="middle" x="488.289" y="-362.3" font-family="Times New Roman,serif" font-size="14.00">IV Antibiotics (1)</text>
</g>
<!-- &#45;5705463351445563725&#45;&gt;3703627156728642698 -->
<g id="edge7" class="edge"><title>&#45;5705463351445563725&#45;&gt;3703627156728642698</title>
<path fill="none" stroke="black" stroke-width="1.13722" d="M488.289,-347.799C488.289,-336.163 488.289,-320.548 488.289,-307.237"/>
<polygon fill="black" stroke="black" stroke-width="1.13722" points="491.789,-307.175 488.289,-297.175 484.789,-307.175 491.789,-307.175"/>
<text text-anchor="middle" x="544.289" y="-318.8" font-family="Times New Roman,serif" font-size="14.00">490.8785249341747</text>
</g>
<!-- &#45;3862139582344886855 -->
<g id="node7" class="node"><title>&#45;3862139582344886855</title>
<polygon fill="#ffffff" stroke="black" points="533.289,-471 443.289,-471 443.289,-435 533.289,-435 533.289,-471"/>
<text text-anchor="middle" x="488.289" y="-449.3" font-family="Times New Roman,serif" font-size="14.00">IV Liquid (1)</text>
</g>
<!-- &#45;3862139582344886855&#45;&gt;&#45;5705463351445563725 -->
<g id="edge8" class="edge"><title>&#45;3862139582344886855&#45;&gt;&#45;5705463351445563725</title>
<path fill="none" stroke="black" stroke-width="1.14837" d="M488.289,-434.799C488.289,-423.163 488.289,-407.548 488.289,-394.237"/>
<polygon fill="black" stroke="black" stroke-width="1.14837" points="491.789,-394.175 488.289,-384.175 484.789,-394.175 491.789,-394.175"/>
<text text-anchor="middle" x="547.789" y="-405.8" font-family="Times New Roman,serif" font-size="14.00">500.70774068442415</text>
</g>
<!-- 8066172473611450852&#45;&gt;3579705282704473787 -->
<g id="edge9" class="edge"><title>8066172473611450852&#45;&gt;3579705282704473787</title>
<path fill="none" stroke="black" stroke-width="1.04303" d="M98.0662,-123.102C116.974,-136.601 141.089,-153.558 146.289,-156 173.021,-168.551 205.119,-177.384 230.227,-183.036"/>
<polygon fill="black" stroke="black" stroke-width="1.04303" points="229.66,-186.495 240.175,-185.193 231.143,-179.654 229.66,-186.495"/>
<text text-anchor="middle" x="202.289" y="-144.8" font-family="Times New Roman,serif" font-size="14.00">407.9060957082784</text>
</g>
<!-- 8066172473611450852&#45;&gt;&#45;755878416217562554 -->
<g id="edge10" class="edge"><title>8066172473611450852&#45;&gt;&#45;755878416217562554</title>
<path fill="none" stroke="black" stroke-width="1.22121" d="M25.0607,-87.6215C6.62712,-78.9013 -7.33701,-67.2435 4.2894,-54 30.6969,-23.9195 140.937,-18.3878 211.542,-18.0442"/>
<polygon fill="black" stroke="black" stroke-width="1.22121" points="211.662,-21.5441 221.657,-18.0289 211.652,-14.5441 211.662,-21.5441"/>
<text text-anchor="middle" x="60.2894" y="-57.8" font-family="Times New Roman,serif" font-size="14.00">564.8732974748402</text>
</g>
<!-- &#45;755878416217562554&#45;&gt;3579705282704473787 -->
<g id="edge11" class="edge"><title>&#45;755878416217562554&#45;&gt;3579705282704473787</title>
<path fill="none" stroke="black" stroke-width="2.6" d="M318.069,-36.0649C359.112,-54.2127 409.803,-85.4502 388.289,-123 372.372,-150.781 340.214,-168.313 313.786,-178.604"/>
<polygon fill="black" stroke="black" stroke-width="2.6" points="312.527,-175.337 304.349,-182.073 314.943,-181.907 312.527,-175.337"/>
<text text-anchor="middle" x="450.289" y="-101.3" font-family="Times New Roman,serif" font-size="14.00">1779.454970781023</text>
</g>
<!-- &#45;755878416217562554&#45;&gt;8066172473611450852 -->
<g id="edge12" class="edge"><title>&#45;755878416217562554&#45;&gt;8066172473611450852</title>
<path fill="none" stroke="black" stroke-width="1.06803" d="M221.656,-27.3769C196.095,-32.8194 165.114,-41.3172 139.289,-54 131.491,-57.8298 116.355,-69.3723 102.65,-80.4029"/>
<polygon fill="black" stroke="black" stroke-width="1.06803" points="100.362,-77.7517 94.8119,-86.7763 104.779,-83.1828 100.362,-77.7517"/>
<text text-anchor="middle" x="198.789" y="-57.8" font-family="Times New Roman,serif" font-size="14.00">429.93088350424756</text>
</g>
<!-- &#45;755878416217562554&#45;&gt;&#45;755878416217562554 -->
<g id="edge13" class="edge"><title>&#45;755878416217562554&#45;&gt;&#45;755878416217562554</title>
<path fill="none" stroke="black" stroke-width="1.10746" d="M323.073,-25.5746C333.397,-24.7495 340.789,-22.2246 340.789,-18 340.789,-15.3596 337.902,-13.3832 333.215,-12.0707"/>
<polygon fill="black" stroke="black" stroke-width="1.10746" points="333.505,-8.57199 323.073,-10.4254 332.384,-15.4817 333.505,-8.57199"/>
<text text-anchor="middle" x="396.789" y="-14.3" font-family="Times New Roman,serif" font-size="14.00">464.6690872186883</text>
</g>
</g>
</svg>
