<?xml version="1.0" encoding="UTF-8" standalone="no"?>
<!DOCTYPE svg PUBLIC "-//W3C//DTD SVG 1.1//EN"
 "http://www.w3.org/Graphics/SVG/1.1/DTD/svg11.dtd">
<!-- Generated by graphviz version 2.38.0 (20140413.2041)
 -->
<!-- Title: %3 Pages: 1 -->
<svg width="763pt" height="479pt"
 viewBox="0.00 0.00 763.29 479.00" xmlns="http://www.w3.org/2000/svg" xmlns:xlink="http://www.w3.org/1999/xlink">
<g id="graph0" class="graph" transform="scale(1 1) rotate(0) translate(4 475)">
<title>%3</title>
<!-- 118450489566830562 -->
<g id="node1" class="node"><title>118450489566830562</title>
<polygon fill="#ffffff" stroke="black" points="557.789,-297 438.789,-297 438.789,-261 557.789,-261 557.789,-297"/>
<text text-anchor="middle" x="498.289" y="-275.3" font-family="Times New Roman,serif" font-size="14.00">Admission NC (1)</text>
</g>
<!-- 4941769122289558835 -->
<g id="node2" class="node"><title>4941769122289558835</title>
<polygon fill="#ffffff" stroke="black" points="304.289,-210 240.289,-210 240.289,-174 304.289,-174 304.289,-210"/>
<text text-anchor="middle" x="272.289" y="-188.3" font-family="Times New Roman,serif" font-size="14.00">CRP (1)</text>
</g>
<!-- 118450489566830562&#45;&gt;4941769122289558835 -->
<g id="edge1" class="edge"><title>118450489566830562&#45;&gt;4941769122289558835</title>
<path fill="none" stroke="black" d="M452.826,-260.901C412.306,-245.661 353.485,-223.538 314.111,-208.73"/>
<polygon fill="black" stroke="black" points="315.135,-205.375 304.543,-205.131 312.671,-211.927 315.135,-205.375"/>
<text text-anchor="middle" x="455.289" y="-231.8" font-family="Times New Roman,serif" font-size="14.00">373.2177462618029</text>
</g>
<!-- 6570115252564267433 -->
<g id="node9" class="node"><title>6570115252564267433</title>
<polygon fill="#ffffff" stroke="black" points="322.789,-36 221.789,-36 221.789,-0 322.789,-0 322.789,-36"/>
<text text-anchor="middle" x="272.289" y="-14.3" font-family="Times New Roman,serif" font-size="14.00">Leucocytes (1)</text>
</g>
<!-- 118450489566830562&#45;&gt;6570115252564267433 -->
<g id="edge2" class="edge"><title>118450489566830562&#45;&gt;6570115252564267433</title>
<path fill="none" stroke="black" stroke-width="1.03624" d="M508.037,-260.857C527.182,-224.662 564.478,-139.472 524.289,-87 501.159,-56.8023 399.991,-36.9672 333.085,-26.8902"/>
<polygon fill="black" stroke="black" stroke-width="1.03624" points="333.471,-23.4093 323.067,-25.4153 332.451,-30.3346 333.471,-23.4093"/>
<text text-anchor="middle" x="595.289" y="-144.8" font-family="Times New Roman,serif" font-size="14.00">405.004890972965</text>
</g>
<!-- &#45;5670009864185339888 -->
<g id="node8" class="node"><title>&#45;5670009864185339888</title>
<polygon fill="#ffffff" stroke="black" points="122.289,-123 24.2887,-123 24.2887,-87 122.289,-87 122.289,-123"/>
<text text-anchor="middle" x="73.2887" y="-101.3" font-family="Times New Roman,serif" font-size="14.00">LacticAcid (1)</text>
</g>
<!-- 4941769122289558835&#45;&gt;&#45;5670009864185339888 -->
<g id="edge3" class="edge"><title>4941769122289558835&#45;&gt;&#45;5670009864185339888</title>
<path fill="none" stroke="black" stroke-width="1.2987" d="M240.256,-191.715C177.05,-192.366 39.8333,-189.754 10.2887,-156 1.47121,-145.926 8.09455,-136.385 19.8299,-128.39"/>
<polygon fill="black" stroke="black" stroke-width="1.2987" points="21.8609,-131.254 28.6442,-123.115 18.2661,-125.247 21.8609,-131.254"/>
<text text-anchor="middle" x="63.2887" y="-144.8" font-family="Times New Roman,serif" font-size="14.00">635.202817452058</text>
</g>
<!-- 4941769122289558835&#45;&gt;6570115252564267433 -->
<g id="edge4" class="edge"><title>4941769122289558835&#45;&gt;6570115252564267433</title>
<path fill="none" stroke="black" stroke-width="2.20637" d="M272.289,-173.879C272.289,-144.001 272.289,-82.1129 272.289,-46.2736"/>
<polygon fill="black" stroke="black" stroke-width="2.20637" points="275.789,-46.0516 272.289,-36.0516 268.789,-46.0516 275.789,-46.0516"/>
<text text-anchor="middle" x="331.789" y="-101.3" font-family="Times New Roman,serif" font-size="14.00">1431.3193802988662</text>
</g>
<!-- &#45;1744131764726653331 -->
<g id="node3" class="node"><title>&#45;1744131764726653331</title>
<polygon fill="#ffffff" stroke="black" points="705.789,-471 580.789,-471 580.789,-435 705.789,-435 705.789,-471"/>
<text text-anchor="middle" x="643.289" y="-449.3" font-family="Times New Roman,serif" font-size="14.00">ER Registration (1)</text>
</g>
<!-- &#45;8305476247514553090 -->
<g id="node5" class="node"><title>&#45;8305476247514553090</title>
<polygon fill="#ffffff" stroke="black" points="689.789,-384 596.789,-384 596.789,-348 689.789,-348 689.789,-384"/>
<text text-anchor="middle" x="643.289" y="-362.3" font-family="Times New Roman,serif" font-size="14.00">ER Triage (1)</text>
</g>
<!-- &#45;1744131764726653331&#45;&gt;&#45;8305476247514553090 -->
<g id="edge5" class="edge"><title>&#45;1744131764726653331&#45;&gt;&#45;8305476247514553090</title>
<path fill="none" stroke="black" stroke-width="1.67744" d="M643.289,-434.799C643.289,-423.163 643.289,-407.548 643.289,-394.237"/>
<polygon fill="black" stroke="black" stroke-width="1.67744" points="646.789,-394.175 643.289,-384.175 639.789,-394.175 646.789,-394.175"/>
<text text-anchor="middle" x="699.289" y="-405.8" font-family="Times New Roman,serif" font-size="14.00">967.3974521557935</text>
</g>
<!-- 3296544575651183754 -->
<g id="node4" class="node"><title>3296544575651183754</title>
<polygon fill="#ffffff" stroke="black" points="710.289,-297 576.289,-297 576.289,-261 710.289,-261 710.289,-297"/>
<text text-anchor="middle" x="643.289" y="-275.3" font-family="Times New Roman,serif" font-size="14.00">ER Sepsis Triage (1)</text>
</g>
<!-- &#45;8305476247514553090&#45;&gt;3296544575651183754 -->
<g id="edge6" class="edge"><title>&#45;8305476247514553090&#45;&gt;3296544575651183754</title>
<path fill="none" stroke="black" stroke-width="1.60923" d="M643.289,-347.799C643.289,-336.163 643.289,-320.548 643.289,-307.237"/>
<polygon fill="black" stroke="black" stroke-width="1.60923" points="646.789,-307.175 643.289,-297.175 639.789,-307.175 646.789,-307.175"/>
<text text-anchor="middle" x="699.289" y="-318.8" font-family="Times New Roman,serif" font-size="14.00">907.5729557941463</text>
</g>
<!-- &#45;8429177058128869877 -->
<g id="node6" class="node"><title>&#45;8429177058128869877</title>
<polygon fill="#ffffff" stroke="black" points="555.789,-384 440.789,-384 440.789,-348 555.789,-348 555.789,-384"/>
<text text-anchor="middle" x="498.289" y="-362.3" font-family="Times New Roman,serif" font-size="14.00">IV Antibiotics (1)</text>
</g>
<!-- &#45;8429177058128869877&#45;&gt;118450489566830562 -->
<g id="edge7" class="edge"><title>&#45;8429177058128869877&#45;&gt;118450489566830562</title>
<path fill="none" stroke="black" stroke-width="1.13493" d="M498.289,-347.799C498.289,-336.163 498.289,-320.548 498.289,-307.237"/>
<polygon fill="black" stroke="black" stroke-width="1.13493" points="501.789,-307.175 498.289,-297.175 494.789,-307.175 501.789,-307.175"/>
<text text-anchor="middle" x="551.289" y="-318.8" font-family="Times New Roman,serif" font-size="14.00">491.565219916508</text>
</g>
<!-- 6215314419735287562 -->
<g id="node7" class="node"><title>6215314419735287562</title>
<polygon fill="#ffffff" stroke="black" points="543.289,-471 453.289,-471 453.289,-435 543.289,-435 543.289,-471"/>
<text text-anchor="middle" x="498.289" y="-449.3" font-family="Times New Roman,serif" font-size="14.00">IV Liquid (1)</text>
</g>
<!-- 6215314419735287562&#45;&gt;&#45;8429177058128869877 -->
<g id="edge8" class="edge"><title>6215314419735287562&#45;&gt;&#45;8429177058128869877</title>
<path fill="none" stroke="black" stroke-width="1.13991" d="M498.289,-434.799C498.289,-423.163 498.289,-407.548 498.289,-394.237"/>
<polygon fill="black" stroke="black" stroke-width="1.13991" points="501.789,-394.175 498.289,-384.175 494.789,-394.175 501.789,-394.175"/>
<text text-anchor="middle" x="554.289" y="-405.8" font-family="Times New Roman,serif" font-size="14.00">495.9302093285595</text>
</g>
<!-- &#45;5670009864185339888&#45;&gt;4941769122289558835 -->
<g id="edge9" class="edge"><title>&#45;5670009864185339888&#45;&gt;4941769122289558835</title>
<path fill="none" stroke="black" stroke-width="1.04294" d="M94.1469,-123.218C109.712,-135.792 129.852,-151.409 139.289,-156 168.131,-170.033 203.327,-178.976 230.266,-184.307"/>
<polygon fill="black" stroke="black" stroke-width="1.04294" points="229.68,-187.758 240.156,-186.176 230.98,-180.88 229.68,-187.758"/>
<text text-anchor="middle" x="198.789" y="-144.8" font-family="Times New Roman,serif" font-size="14.00">410.88374745413404</text>
</g>
<!-- &#45;5670009864185339888&#45;&gt;6570115252564267433 -->
<g id="edge10" class="edge"><title>&#45;5670009864185339888&#45;&gt;6570115252564267433</title>
<path fill="none" stroke="black" stroke-width="1.22432" d="M24.2528,-87.2896C6.3008,-78.5691 -7.13043,-67.0074 4.28867,-54 30.6962,-23.9195 140.937,-18.3878 211.542,-18.0442"/>
<polygon fill="black" stroke="black" stroke-width="1.22432" points="211.662,-21.5441 221.656,-18.0289 211.651,-14.5441 211.662,-21.5441"/>
<text text-anchor="middle" x="60.2887" y="-57.8" font-family="Times New Roman,serif" font-size="14.00">569.9708041774259</text>
</g>
<!-- 6570115252564267433&#45;&gt;4941769122289558835 -->
<g id="edge11" class="edge"><title>6570115252564267433&#45;&gt;4941769122289558835</title>
<path fill="none" stroke="black" stroke-width="2.6" d="M322.022,-36.1523C365.29,-54.0524 417.806,-84.8222 395.289,-123 377.88,-152.517 342.554,-170.113 314.209,-179.985"/>
<polygon fill="black" stroke="black" stroke-width="2.6" points="312.927,-176.721 304.514,-183.161 315.107,-183.373 312.927,-176.721"/>
<text text-anchor="middle" x="460.789" y="-101.3" font-family="Times New Roman,serif" font-size="14.00">1776.5672678063477</text>
</g>
<!-- 6570115252564267433&#45;&gt;&#45;5670009864185339888 -->
<g id="edge12" class="edge"><title>6570115252564267433&#45;&gt;&#45;5670009864185339888</title>
<path fill="none" stroke="black" stroke-width="1.06986" d="M221.695,-27.4568C196.144,-32.9202 165.16,-41.4124 139.289,-54 131.401,-57.8379 116.033,-69.3808 102.11,-80.4096"/>
<polygon fill="black" stroke="black" stroke-width="1.06986" points="99.7681,-77.801 94.1469,-86.7817 104.142,-83.2665 99.7681,-77.801"/>
<text text-anchor="middle" x="198.789" y="-57.8" font-family="Times New Roman,serif" font-size="14.00">434.49524908813294</text>
</g>
<!-- 6570115252564267433&#45;&gt;6570115252564267433 -->
<g id="edge13" class="edge"><title>6570115252564267433&#45;&gt;6570115252564267433</title>
<path fill="none" stroke="black" stroke-width="1.09673" d="M323.073,-25.5746C333.396,-24.7495 340.789,-22.2246 340.789,-18 340.789,-15.3596 337.901,-13.3832 333.215,-12.0707"/>
<polygon fill="black" stroke="black" stroke-width="1.09673" points="333.504,-8.57199 323.073,-10.4254 332.383,-15.4817 333.504,-8.57199"/>
<text text-anchor="middle" x="393.789" y="-14.3" font-family="Times New Roman,serif" font-size="14.00">458.062637455007</text>
</g>
</g>
</svg>
