<?xml version="1.0" encoding="UTF-8" standalone="no"?>
<!DOCTYPE svg PUBLIC "-//W3C//DTD SVG 1.1//EN"
 "http://www.w3.org/Graphics/SVG/1.1/DTD/svg11.dtd">
<!-- Generated by graphviz version 2.38.0 (20140413.2041)
 -->
<!-- Title: %3 Pages: 1 -->
<svg width="753pt" height="479pt"
 viewBox="0.00 0.00 753.41 479.00" xmlns="http://www.w3.org/2000/svg" xmlns:xlink="http://www.w3.org/1999/xlink">
<g id="graph0" class="graph" transform="scale(1 1) rotate(0) translate(4 475)">
<title>%3</title>
<!-- 3703627156728642698 -->
<g id="node1" class="node"><title>3703627156728642698</title>
<polygon fill="#ffffff" stroke="black" points="547.909,-297 428.909,-297 428.909,-261 547.909,-261 547.909,-297"/>
<text text-anchor="middle" x="488.409" y="-275.3" font-family="Times New Roman,serif" font-size="14.00">Admission NC (1)</text>
</g>
<!-- 3579705282704473787 -->
<g id="node2" class="node"><title>3579705282704473787</title>
<polygon fill="#ffffff" stroke="black" points="304.409,-210 240.409,-210 240.409,-174 304.409,-174 304.409,-210"/>
<text text-anchor="middle" x="272.409" y="-188.3" font-family="Times New Roman,serif" font-size="14.00">CRP (1)</text>
</g>
<!-- 3703627156728642698&#45;&gt;3579705282704473787 -->
<g id="edge1" class="edge"><title>3703627156728642698&#45;&gt;3579705282704473787</title>
<path fill="none" stroke="black" d="M444.958,-260.901C406.847,-245.904 351.798,-224.241 314.192,-209.442"/>
<polygon fill="black" stroke="black" points="315.14,-206.054 304.553,-205.649 312.577,-212.568 315.14,-206.054"/>
<text text-anchor="middle" x="449.409" y="-231.8" font-family="Times New Roman,serif" font-size="14.00">368.8521315771449</text>
</g>
<!-- &#45;755878416217562554 -->
<g id="node9" class="node"><title>&#45;755878416217562554</title>
<polygon fill="#ffffff" stroke="black" points="322.909,-36 221.909,-36 221.909,-0 322.909,-0 322.909,-36"/>
<text text-anchor="middle" x="272.409" y="-14.3" font-family="Times New Roman,serif" font-size="14.00">Leucocytes (1)</text>
</g>
<!-- 3703627156728642698&#45;&gt;&#45;755878416217562554 -->
<g id="edge2" class="edge"><title>3703627156728642698&#45;&gt;&#45;755878416217562554</title>
<path fill="none" stroke="black" stroke-width="1.04331" d="M501.268,-260.68C504.573,-255.287 507.681,-249.139 509.409,-243 528.195,-176.259 552.162,-142.353 510.409,-87 489.039,-58.6683 396.177,-38.5895 332.967,-27.9074"/>
<polygon fill="black" stroke="black" stroke-width="1.04331" points="333.53,-24.453 323.093,-26.2739 332.387,-31.3591 333.53,-24.453"/>
<text text-anchor="middle" x="590.409" y="-144.8" font-family="Times New Roman,serif" font-size="14.00">407.0143131512937</text>
</g>
<!-- 8066172473611450852 -->
<g id="node8" class="node"><title>8066172473611450852</title>
<polygon fill="#ffffff" stroke="black" points="126.409,-123 28.4093,-123 28.4093,-87 126.409,-87 126.409,-123"/>
<text text-anchor="middle" x="77.4093" y="-101.3" font-family="Times New Roman,serif" font-size="14.00">LacticAcid (1)</text>
</g>
<!-- 3579705282704473787&#45;&gt;8066172473611450852 -->
<g id="edge3" class="edge"><title>3579705282704473787&#45;&gt;8066172473611450852</title>
<path fill="none" stroke="black" stroke-width="1.30212" d="M240.275,-191.581C178.33,-191.94 45.9725,-188.751 17.4093,-156 8.79222,-146.119 15.243,-136.57 26.609,-128.511"/>
<polygon fill="black" stroke="black" stroke-width="1.30212" points="28.5106,-131.45 35.1383,-123.184 24.8026,-125.513 28.5106,-131.45"/>
<text text-anchor="middle" x="66.9093" y="-144.8" font-family="Times New Roman,serif" font-size="14.00">635.09180057516</text>
</g>
<!-- 3579705282704473787&#45;&gt;&#45;755878416217562554 -->
<g id="edge4" class="edge"><title>3579705282704473787&#45;&gt;&#45;755878416217562554</title>
<path fill="none" stroke="black" stroke-width="2.22418" d="M272.409,-173.879C272.409,-144.001 272.409,-82.1129 272.409,-46.2736"/>
<polygon fill="black" stroke="black" stroke-width="2.22418" points="275.909,-46.0516 272.409,-36.0516 268.909,-46.0516 275.909,-46.0516"/>
<text text-anchor="middle" x="328.409" y="-101.3" font-family="Times New Roman,serif" font-size="14.00">1447.637027575181</text>
</g>
<!-- &#45;6320656248013813873 -->
<g id="node3" class="node"><title>&#45;6320656248013813873</title>
<polygon fill="#ffffff" stroke="black" points="695.909,-471 570.909,-471 570.909,-435 695.909,-435 695.909,-471"/>
<text text-anchor="middle" x="633.409" y="-449.3" font-family="Times New Roman,serif" font-size="14.00">ER Registration (1)</text>
</g>
<!-- 2377219762996478470 -->
<g id="node5" class="node"><title>2377219762996478470</title>
<polygon fill="#ffffff" stroke="black" points="679.909,-384 586.909,-384 586.909,-348 679.909,-348 679.909,-384"/>
<text text-anchor="middle" x="633.409" y="-362.3" font-family="Times New Roman,serif" font-size="14.00">ER Triage (1)</text>
</g>
<!-- &#45;6320656248013813873&#45;&gt;2377219762996478470 -->
<g id="edge5" class="edge"><title>&#45;6320656248013813873&#45;&gt;2377219762996478470</title>
<path fill="none" stroke="black" stroke-width="1.68134" d="M633.409,-434.799C633.409,-423.163 633.409,-407.548 633.409,-394.237"/>
<polygon fill="black" stroke="black" stroke-width="1.68134" points="636.909,-394.175 633.409,-384.175 629.909,-394.175 636.909,-394.175"/>
<text text-anchor="middle" x="689.409" y="-405.8" font-family="Times New Roman,serif" font-size="14.00">969.2754804039214</text>
</g>
<!-- 7430045975075819265 -->
<g id="node4" class="node"><title>7430045975075819265</title>
<polygon fill="#ffffff" stroke="black" points="700.409,-297 566.409,-297 566.409,-261 700.409,-261 700.409,-297"/>
<text text-anchor="middle" x="633.409" y="-275.3" font-family="Times New Roman,serif" font-size="14.00">ER Sepsis Triage (1)</text>
</g>
<!-- 2377219762996478470&#45;&gt;7430045975075819265 -->
<g id="edge6" class="edge"><title>2377219762996478470&#45;&gt;7430045975075819265</title>
<path fill="none" stroke="black" stroke-width="1.60679" d="M633.409,-347.799C633.409,-336.163 633.409,-320.548 633.409,-307.237"/>
<polygon fill="black" stroke="black" stroke-width="1.60679" points="636.909,-307.175 633.409,-297.175 629.909,-307.175 636.909,-307.175"/>
<text text-anchor="middle" x="689.409" y="-318.8" font-family="Times New Roman,serif" font-size="14.00">903.5773794288209</text>
</g>
<!-- &#45;5705463351445563725 -->
<g id="node6" class="node"><title>&#45;5705463351445563725</title>
<polygon fill="#ffffff" stroke="black" points="545.909,-384 430.909,-384 430.909,-348 545.909,-348 545.909,-384"/>
<text text-anchor="middle" x="488.409" y="-362.3" font-family="Times New Roman,serif" font-size="14.00">IV Antibiotics (1)</text>
</g>
<!-- &#45;5705463351445563725&#45;&gt;3703627156728642698 -->
<g id="edge7" class="edge"><title>&#45;5705463351445563725&#45;&gt;3703627156728642698</title>
<path fill="none" stroke="black" stroke-width="1.13686" d="M488.409,-347.799C488.409,-336.163 488.409,-320.548 488.409,-307.237"/>
<polygon fill="black" stroke="black" stroke-width="1.13686" points="491.909,-307.175 488.409,-297.175 484.909,-307.175 491.909,-307.175"/>
<text text-anchor="middle" x="544.409" y="-318.8" font-family="Times New Roman,serif" font-size="14.00">489.4549765893129</text>
</g>
<!-- &#45;3862139582344886855 -->
<g id="node7" class="node"><title>&#45;3862139582344886855</title>
<polygon fill="#ffffff" stroke="black" points="533.409,-471 443.409,-471 443.409,-435 533.409,-435 533.409,-471"/>
<text text-anchor="middle" x="488.409" y="-449.3" font-family="Times New Roman,serif" font-size="14.00">IV Liquid (1)</text>
</g>
<!-- &#45;3862139582344886855&#45;&gt;&#45;5705463351445563725 -->
<g id="edge8" class="edge"><title>&#45;3862139582344886855&#45;&gt;&#45;5705463351445563725</title>
<path fill="none" stroke="black" stroke-width="1.14966" d="M488.409,-434.799C488.409,-423.163 488.409,-407.548 488.409,-394.237"/>
<polygon fill="black" stroke="black" stroke-width="1.14966" points="491.909,-394.175 488.409,-384.175 484.909,-394.175 491.909,-394.175"/>
<text text-anchor="middle" x="547.909" y="-405.8" font-family="Times New Roman,serif" font-size="14.00">500.73730983200676</text>
</g>
<!-- 8066172473611450852&#45;&gt;3579705282704473787 -->
<g id="edge9" class="edge"><title>8066172473611450852&#45;&gt;3579705282704473787</title>
<path fill="none" stroke="black" stroke-width="1.03711" d="M96.9233,-123.239C111.501,-135.824 130.4,-151.446 139.409,-156 168.036,-170.469 203.242,-179.39 230.241,-184.602"/>
<polygon fill="black" stroke="black" stroke-width="1.03711" points="229.688,-188.059 240.155,-186.422 230.951,-181.174 229.688,-188.059"/>
<text text-anchor="middle" x="198.909" y="-144.8" font-family="Times New Roman,serif" font-size="14.00">401.55612281466915</text>
</g>
<!-- 8066172473611450852&#45;&gt;&#45;755878416217562554 -->
<g id="edge10" class="edge"><title>8066172473611450852&#45;&gt;&#45;755878416217562554</title>
<path fill="none" stroke="black" stroke-width="1.22295" d="M28.182,-88.8198C8.04485,-80.0995 -7.95475,-68.0837 4.40929,-54 30.8168,-23.9195 141.057,-18.3878 211.662,-18.0442"/>
<polygon fill="black" stroke="black" stroke-width="1.22295" points="211.782,-21.5441 221.777,-18.0289 211.772,-14.5441 211.782,-21.5441"/>
<text text-anchor="middle" x="60.4093" y="-57.8" font-family="Times New Roman,serif" font-size="14.00">565.3199683339839</text>
</g>
<!-- &#45;755878416217562554&#45;&gt;3579705282704473787 -->
<g id="edge11" class="edge"><title>&#45;755878416217562554&#45;&gt;3579705282704473787</title>
<path fill="none" stroke="black" stroke-width="2.6" d="M318.189,-36.0649C359.232,-54.2127 409.923,-85.4502 388.409,-123 372.492,-150.781 340.333,-168.313 313.906,-178.604"/>
<polygon fill="black" stroke="black" stroke-width="2.6" points="312.647,-175.337 304.469,-182.073 315.062,-181.907 312.647,-175.337"/>
<text text-anchor="middle" x="450.409" y="-101.3" font-family="Times New Roman,serif" font-size="14.00">1778.825045895424</text>
</g>
<!-- &#45;755878416217562554&#45;&gt;8066172473611450852 -->
<g id="edge12" class="edge"><title>&#45;755878416217562554&#45;&gt;8066172473611450852</title>
<path fill="none" stroke="black" stroke-width="1.07513" d="M221.652,-27.1283C196.059,-32.5064 165.087,-41.0215 139.409,-54 131.949,-57.7709 117.706,-69.1328 104.751,-80.0742"/>
<polygon fill="black" stroke="black" stroke-width="1.07513" points="102.253,-77.6044 96.9233,-86.7609 106.8,-82.9269 102.253,-77.6044"/>
<text text-anchor="middle" x="198.909" y="-57.8" font-family="Times New Roman,serif" font-size="14.00">435.05991012960277</text>
</g>
<!-- &#45;755878416217562554&#45;&gt;&#45;755878416217562554 -->
<g id="edge13" class="edge"><title>&#45;755878416217562554&#45;&gt;&#45;755878416217562554</title>
<path fill="none" stroke="black" stroke-width="1.09783" d="M323.193,-25.5746C333.517,-24.7495 340.909,-22.2246 340.909,-18 340.909,-15.3596 338.022,-13.3832 333.335,-12.0707"/>
<polygon fill="black" stroke="black" stroke-width="1.09783" points="333.625,-8.57199 323.193,-10.4254 332.504,-15.4817 333.625,-8.57199"/>
<text text-anchor="middle" x="396.909" y="-14.3" font-family="Times New Roman,serif" font-size="14.00">455.0618354980581</text>
</g>
</g>
</svg>
