<?xml version="1.0" encoding="UTF-8" standalone="no"?>
<!DOCTYPE svg PUBLIC "-//W3C//DTD SVG 1.1//EN"
 "http://www.w3.org/Graphics/SVG/1.1/DTD/svg11.dtd">
<!-- Generated by graphviz version 2.38.0 (20140413.2041)
 -->
<!-- Title: %3 Pages: 1 -->
<svg width="753pt" height="479pt"
 viewBox="0.00 0.00 753.29 479.00" xmlns="http://www.w3.org/2000/svg" xmlns:xlink="http://www.w3.org/1999/xlink">
<g id="graph0" class="graph" transform="scale(1 1) rotate(0) translate(4 475)">
<title>%3</title>
<!-- &#45;6760735685208204671 -->
<g id="node1" class="node"><title>&#45;6760735685208204671</title>
<polygon fill="#ffffff" stroke="black" points="547.789,-297 428.789,-297 428.789,-261 547.789,-261 547.789,-297"/>
<text text-anchor="middle" x="488.289" y="-275.3" font-family="Times New Roman,serif" font-size="14.00">Admission NC (1)</text>
</g>
<!-- 7850561497370058999 -->
<g id="node2" class="node"><title>7850561497370058999</title>
<polygon fill="#ffffff" stroke="black" points="304.289,-210 240.289,-210 240.289,-174 304.289,-174 304.289,-210"/>
<text text-anchor="middle" x="272.289" y="-188.3" font-family="Times New Roman,serif" font-size="14.00">CRP (1)</text>
</g>
<!-- &#45;6760735685208204671&#45;&gt;7850561497370058999 -->
<g id="edge1" class="edge"><title>&#45;6760735685208204671&#45;&gt;7850561497370058999</title>
<path fill="none" stroke="black" d="M444.838,-260.901C406.727,-245.904 351.677,-224.241 314.072,-209.442"/>
<polygon fill="black" stroke="black" points="315.019,-206.054 304.432,-205.649 312.456,-212.568 315.019,-206.054"/>
<text text-anchor="middle" x="449.289" y="-231.8" font-family="Times New Roman,serif" font-size="14.00">376.7969253464754</text>
</g>
<!-- 6179918396602481755 -->
<g id="node9" class="node"><title>6179918396602481755</title>
<polygon fill="#ffffff" stroke="black" points="322.789,-36 221.789,-36 221.789,-0 322.789,-0 322.789,-36"/>
<text text-anchor="middle" x="272.289" y="-14.3" font-family="Times New Roman,serif" font-size="14.00">Leucocytes (1)</text>
</g>
<!-- &#45;6760735685208204671&#45;&gt;6179918396602481755 -->
<g id="edge2" class="edge"><title>&#45;6760735685208204671&#45;&gt;6179918396602481755</title>
<path fill="none" stroke="black" stroke-width="1.02531" d="M501.115,-260.671C504.419,-255.278 507.535,-249.132 509.289,-243 528.354,-176.333 553.075,-142.334 511.289,-87 489.788,-58.5292 396.302,-38.4622 332.824,-27.8245"/>
<polygon fill="black" stroke="black" stroke-width="1.02531" points="333.345,-24.3631 322.91,-26.1983 332.212,-31.2708 333.345,-24.3631"/>
<text text-anchor="middle" x="593.789" y="-144.8" font-family="Times New Roman,serif" font-size="14.00">399.40091325402994</text>
</g>
<!-- 1152587832168206417 -->
<g id="node8" class="node"><title>1152587832168206417</title>
<polygon fill="#ffffff" stroke="black" points="122.289,-123 24.2887,-123 24.2887,-87 122.289,-87 122.289,-123"/>
<text text-anchor="middle" x="73.2887" y="-101.3" font-family="Times New Roman,serif" font-size="14.00">LacticAcid (1)</text>
</g>
<!-- 7850561497370058999&#45;&gt;1152587832168206417 -->
<g id="edge3" class="edge"><title>7850561497370058999&#45;&gt;1152587832168206417</title>
<path fill="none" stroke="black" stroke-width="1.25697" d="M240.256,-191.715C177.05,-192.366 39.8333,-189.754 10.2887,-156 1.47121,-145.926 8.09455,-136.385 19.8299,-128.39"/>
<polygon fill="black" stroke="black" stroke-width="1.25697" points="21.8609,-131.254 28.6442,-123.115 18.2661,-125.247 21.8609,-131.254"/>
<text text-anchor="middle" x="63.2887" y="-144.8" font-family="Times New Roman,serif" font-size="14.00">606.283625591249</text>
</g>
<!-- 7850561497370058999&#45;&gt;6179918396602481755 -->
<g id="edge4" class="edge"><title>7850561497370058999&#45;&gt;6179918396602481755</title>
<path fill="none" stroke="black" stroke-width="2.23126" d="M272.289,-173.879C272.289,-144.001 272.289,-82.1129 272.289,-46.2736"/>
<polygon fill="black" stroke="black" stroke-width="2.23126" points="275.789,-46.0516 272.289,-36.0516 268.789,-46.0516 275.789,-46.0516"/>
<text text-anchor="middle" x="325.289" y="-101.3" font-family="Times New Roman,serif" font-size="14.00">1476.38497407301</text>
</g>
<!-- &#45;2410219256766748193 -->
<g id="node3" class="node"><title>&#45;2410219256766748193</title>
<polygon fill="#ffffff" stroke="black" points="695.789,-471 570.789,-471 570.789,-435 695.789,-435 695.789,-471"/>
<text text-anchor="middle" x="633.289" y="-449.3" font-family="Times New Roman,serif" font-size="14.00">ER Registration (1)</text>
</g>
<!-- &#45;2872325205858232948 -->
<g id="node5" class="node"><title>&#45;2872325205858232948</title>
<polygon fill="#ffffff" stroke="black" points="679.789,-384 586.789,-384 586.789,-348 679.789,-348 679.789,-384"/>
<text text-anchor="middle" x="633.289" y="-362.3" font-family="Times New Roman,serif" font-size="14.00">ER Triage (1)</text>
</g>
<!-- &#45;2410219256766748193&#45;&gt;&#45;2872325205858232948 -->
<g id="edge5" class="edge"><title>&#45;2410219256766748193&#45;&gt;&#45;2872325205858232948</title>
<path fill="none" stroke="black" stroke-width="1.64483" d="M633.289,-434.799C633.289,-423.163 633.289,-407.548 633.289,-394.237"/>
<polygon fill="black" stroke="black" stroke-width="1.64483" points="636.789,-394.175 633.289,-384.175 629.789,-394.175 636.789,-394.175"/>
<text text-anchor="middle" x="689.289" y="-405.8" font-family="Times New Roman,serif" font-size="14.00">952.6680102170759</text>
</g>
<!-- 8892003065059452103 -->
<g id="node4" class="node"><title>8892003065059452103</title>
<polygon fill="#ffffff" stroke="black" points="700.289,-297 566.289,-297 566.289,-261 700.289,-261 700.289,-297"/>
<text text-anchor="middle" x="633.289" y="-275.3" font-family="Times New Roman,serif" font-size="14.00">ER Sepsis Triage (1)</text>
</g>
<!-- &#45;2872325205858232948&#45;&gt;8892003065059452103 -->
<g id="edge6" class="edge"><title>&#45;2872325205858232948&#45;&gt;8892003065059452103</title>
<path fill="none" stroke="black" stroke-width="1.59869" d="M633.289,-347.799C633.289,-336.163 633.289,-320.548 633.289,-307.237"/>
<polygon fill="black" stroke="black" stroke-width="1.59869" points="636.789,-307.175 633.289,-297.175 629.789,-307.175 636.789,-307.175"/>
<text text-anchor="middle" x="689.289" y="-318.8" font-family="Times New Roman,serif" font-size="14.00">911.4596441232317</text>
</g>
<!-- &#45;6564841300794043563 -->
<g id="node6" class="node"><title>&#45;6564841300794043563</title>
<polygon fill="#ffffff" stroke="black" points="545.789,-384 430.789,-384 430.789,-348 545.789,-348 545.789,-384"/>
<text text-anchor="middle" x="488.289" y="-362.3" font-family="Times New Roman,serif" font-size="14.00">IV Antibiotics (1)</text>
</g>
<!-- &#45;6564841300794043563&#45;&gt;&#45;6760735685208204671 -->
<g id="edge7" class="edge"><title>&#45;6564841300794043563&#45;&gt;&#45;6760735685208204671</title>
<path fill="none" stroke="black" stroke-width="1.1256" d="M488.289,-347.799C488.289,-336.163 488.289,-320.548 488.289,-307.237"/>
<polygon fill="black" stroke="black" stroke-width="1.1256" points="491.789,-307.175 488.289,-297.175 484.789,-307.175 491.789,-307.175"/>
<text text-anchor="middle" x="547.789" y="-318.8" font-family="Times New Roman,serif" font-size="14.00">488.96498108247266</text>
</g>
<!-- &#45;1926219633770359302 -->
<g id="node7" class="node"><title>&#45;1926219633770359302</title>
<polygon fill="#ffffff" stroke="black" points="533.289,-471 443.289,-471 443.289,-435 533.289,-435 533.289,-471"/>
<text text-anchor="middle" x="488.289" y="-449.3" font-family="Times New Roman,serif" font-size="14.00">IV Liquid (1)</text>
</g>
<!-- &#45;1926219633770359302&#45;&gt;&#45;6564841300794043563 -->
<g id="edge8" class="edge"><title>&#45;1926219633770359302&#45;&gt;&#45;6564841300794043563</title>
<path fill="none" stroke="black" stroke-width="1.07767" d="M488.289,-434.799C488.289,-423.163 488.289,-407.548 488.289,-394.237"/>
<polygon fill="black" stroke="black" stroke-width="1.07767" points="491.789,-394.175 488.289,-384.175 484.789,-394.175 491.789,-394.175"/>
<text text-anchor="middle" x="547.789" y="-405.8" font-family="Times New Roman,serif" font-size="14.00">446.15834954023256</text>
</g>
<!-- 1152587832168206417&#45;&gt;7850561497370058999 -->
<g id="edge9" class="edge"><title>1152587832168206417&#45;&gt;7850561497370058999</title>
<path fill="none" stroke="black" stroke-width="1.04107" d="M94.1469,-123.218C109.712,-135.792 129.852,-151.409 139.289,-156 168.131,-170.033 203.327,-178.976 230.266,-184.307"/>
<polygon fill="black" stroke="black" stroke-width="1.04107" points="229.68,-187.758 240.156,-186.176 230.98,-180.88 229.68,-187.758"/>
<text text-anchor="middle" x="198.789" y="-144.8" font-family="Times New Roman,serif" font-size="14.00">413.47470540787776</text>
</g>
<!-- 1152587832168206417&#45;&gt;6179918396602481755 -->
<g id="edge10" class="edge"><title>1152587832168206417&#45;&gt;6179918396602481755</title>
<path fill="none" stroke="black" stroke-width="1.2216" d="M24.2528,-87.2896C6.3008,-78.5691 -7.13043,-67.0074 4.28867,-54 30.6962,-23.9195 140.937,-18.3878 211.542,-18.0442"/>
<polygon fill="black" stroke="black" stroke-width="1.2216" points="211.662,-21.5441 221.656,-18.0289 211.651,-14.5441 211.662,-21.5441"/>
<text text-anchor="middle" x="60.2887" y="-57.8" font-family="Times New Roman,serif" font-size="14.00">574.6990869829269</text>
</g>
<!-- 6179918396602481755&#45;&gt;7850561497370058999 -->
<g id="edge11" class="edge"><title>6179918396602481755&#45;&gt;7850561497370058999</title>
<path fill="none" stroke="black" stroke-width="2.6" d="M321.046,-36.1243C343.972,-46.9188 369.115,-63.3696 382.289,-87 390.079,-100.975 390.079,-109.025 382.289,-123 367.716,-149.141 338.493,-166.496 313.829,-177.127"/>
<polygon fill="black" stroke="black" stroke-width="2.6" points="312.235,-173.997 304.293,-181.01 314.875,-180.48 312.235,-173.997"/>
<text text-anchor="middle" x="447.789" y="-101.3" font-family="Times New Roman,serif" font-size="14.00">1805.6913615142412</text>
</g>
<!-- 6179918396602481755&#45;&gt;1152587832168206417 -->
<g id="edge12" class="edge"><title>6179918396602481755&#45;&gt;1152587832168206417</title>
<path fill="none" stroke="black" stroke-width="1.06621" d="M221.695,-27.4568C196.144,-32.9202 165.16,-41.4124 139.289,-54 131.401,-57.8379 116.033,-69.3808 102.11,-80.4096"/>
<polygon fill="black" stroke="black" stroke-width="1.06621" points="99.7681,-77.801 94.1469,-86.7817 104.142,-83.2665 99.7681,-77.801"/>
<text text-anchor="middle" x="198.789" y="-57.8" font-family="Times New Roman,serif" font-size="14.00">435.92605439389484</text>
</g>
<!-- 6179918396602481755&#45;&gt;6179918396602481755 -->
<g id="edge13" class="edge"><title>6179918396602481755&#45;&gt;6179918396602481755</title>
<path fill="none" stroke="black" stroke-width="1.10629" d="M323.073,-25.5746C333.396,-24.7495 340.789,-22.2246 340.789,-18 340.789,-15.3596 337.901,-13.3832 333.215,-12.0707"/>
<polygon fill="black" stroke="black" stroke-width="1.10629" points="333.504,-8.57199 323.073,-10.4254 332.383,-15.4817 333.504,-8.57199"/>
<text text-anchor="middle" x="396.789" y="-14.3" font-family="Times New Roman,serif" font-size="14.00">471.7180247782673</text>
</g>
</g>
</svg>
