<?xml version="1.0" encoding="UTF-8" standalone="no"?>
<!DOCTYPE svg PUBLIC "-//W3C//DTD SVG 1.1//EN"
 "http://www.w3.org/Graphics/SVG/1.1/DTD/svg11.dtd">
<!-- Generated by graphviz version 2.38.0 (20140413.2041)
 -->
<!-- Title: %3 Pages: 1 -->
<svg width="389pt" height="479pt"
 viewBox="0.00 0.00 389.00 479.00" xmlns="http://www.w3.org/2000/svg" xmlns:xlink="http://www.w3.org/1999/xlink">
<g id="graph0" class="graph" transform="scale(1 1) rotate(0) translate(4 475)">
<title>%3</title>
<!-- &#45;3492962446882065389 -->
<g id="node1" class="node"><title>&#45;3492962446882065389</title>
<polygon fill="none" stroke="black" points="249,-297 149,-297 149,-261 249,-261 249,-297"/>
<text text-anchor="middle" x="199" y="-275.3" font-family="Times New Roman,serif" font-size="14.00">Admission NC</text>
</g>
<!-- &#45;4216261333602951318 -->
<g id="node2" class="node"><title>&#45;4216261333602951318</title>
<polygon fill="none" stroke="black" points="141,-210 87,-210 87,-174 141,-174 141,-210"/>
<text text-anchor="middle" x="114" y="-188.3" font-family="Times New Roman,serif" font-size="14.00">CRP</text>
</g>
<!-- &#45;3492962446882065389&#45;&gt;&#45;4216261333602951318 -->
<g id="edge1" class="edge"><title>&#45;3492962446882065389&#45;&gt;&#45;4216261333602951318</title>
<path fill="none" stroke="black" d="M181.799,-260.799C169.356,-248.356 152.364,-231.364 138.504,-217.504"/>
<polygon fill="black" stroke="black" points="140.721,-214.772 131.175,-210.175 135.772,-219.721 140.721,-214.772"/>
<text text-anchor="middle" x="171" y="-231.8" font-family="Times New Roman,serif" font-size="14.00">6m</text>
</g>
<!-- &#45;5472726865306734006 -->
<g id="node9" class="node"><title>&#45;5472726865306734006</title>
<polygon fill="none" stroke="black" points="154.5,-36 73.5,-36 73.5,-0 154.5,-0 154.5,-36"/>
<text text-anchor="middle" x="114" y="-14.3" font-family="Times New Roman,serif" font-size="14.00">Leucocytes</text>
</g>
<!-- &#45;3492962446882065389&#45;&gt;&#45;5472726865306734006 -->
<g id="edge2" class="edge"><title>&#45;3492962446882065389&#45;&gt;&#45;5472726865306734006</title>
<path fill="none" stroke="black" stroke-width="1.05148" d="M199.845,-260.875C200.909,-226.473 200.147,-147.123 175,-87 168.006,-70.2792 155.1,-54.9359 142.955,-43.0723"/>
<polygon fill="black" stroke="black" stroke-width="1.05148" points="145.247,-40.4237 135.55,-36.1541 140.468,-45.5386 145.247,-40.4237"/>
<text text-anchor="middle" x="203" y="-144.8" font-family="Times New Roman,serif" font-size="14.00">6m</text>
</g>
<!-- 6521040110597749957 -->
<g id="node8" class="node"><title>6521040110597749957</title>
<polygon fill="none" stroke="black" points="78,-123 0,-123 0,-87 78,-87 78,-123"/>
<text text-anchor="middle" x="39" y="-101.3" font-family="Times New Roman,serif" font-size="14.00">LacticAcid</text>
</g>
<!-- &#45;4216261333602951318&#45;&gt;6521040110597749957 -->
<g id="edge3" class="edge"><title>&#45;4216261333602951318&#45;&gt;6521040110597749957</title>
<path fill="none" stroke="black" stroke-width="1.29674" d="M86.7641,-186.895C68.4536,-182.565 45.6169,-173.762 34,-156 29.6175,-149.299 29.0201,-140.976 30.057,-133.055"/>
<polygon fill="black" stroke="black" stroke-width="1.29674" points="33.5291,-133.554 32.1807,-123.045 26.6815,-132.101 33.5291,-133.554"/>
<text text-anchor="middle" x="46.5" y="-144.8" font-family="Times New Roman,serif" font-size="14.00">10m</text>
</g>
<!-- &#45;4216261333602951318&#45;&gt;&#45;5472726865306734006 -->
<g id="edge4" class="edge"><title>&#45;4216261333602951318&#45;&gt;&#45;5472726865306734006</title>
<path fill="none" stroke="black" stroke-width="2.23227" d="M114,-173.879C114,-144.001 114,-82.1129 114,-46.2736"/>
<polygon fill="black" stroke="black" stroke-width="2.23227" points="117.5,-46.0516 114,-36.0516 110.5,-46.0516 117.5,-46.0516"/>
<text text-anchor="middle" x="126.5" y="-101.3" font-family="Times New Roman,serif" font-size="14.00">24m</text>
</g>
<!-- &#45;1534358263521429554 -->
<g id="node3" class="node"><title>&#45;1534358263521429554</title>
<polygon fill="none" stroke="black" points="376.5,-471 271.5,-471 271.5,-435 376.5,-435 376.5,-471"/>
<text text-anchor="middle" x="324" y="-449.3" font-family="Times New Roman,serif" font-size="14.00">ER Registration</text>
</g>
<!-- 7122541138946668179 -->
<g id="node5" class="node"><title>7122541138946668179</title>
<polygon fill="none" stroke="black" points="361,-384 287,-384 287,-348 361,-348 361,-384"/>
<text text-anchor="middle" x="324" y="-362.3" font-family="Times New Roman,serif" font-size="14.00">ER Triage</text>
</g>
<!-- &#45;1534358263521429554&#45;&gt;7122541138946668179 -->
<g id="edge5" class="edge"><title>&#45;1534358263521429554&#45;&gt;7122541138946668179</title>
<path fill="none" stroke="black" stroke-width="1.6931" d="M324,-434.799C324,-423.163 324,-407.548 324,-394.237"/>
<polygon fill="black" stroke="black" stroke-width="1.6931" points="327.5,-394.175 324,-384.175 320.5,-394.175 327.5,-394.175"/>
<text text-anchor="middle" x="336.5" y="-405.8" font-family="Times New Roman,serif" font-size="14.00">16m</text>
</g>
<!-- 4495186749941843654 -->
<g id="node4" class="node"><title>4495186749941843654</title>
<polygon fill="none" stroke="black" points="381,-297 267,-297 267,-261 381,-261 381,-297"/>
<text text-anchor="middle" x="324" y="-275.3" font-family="Times New Roman,serif" font-size="14.00">ER Sepsis Triage</text>
</g>
<!-- 7122541138946668179&#45;&gt;4495186749941843654 -->
<g id="edge6" class="edge"><title>7122541138946668179&#45;&gt;4495186749941843654</title>
<path fill="none" stroke="black" stroke-width="1.61512" d="M324,-347.799C324,-336.163 324,-320.548 324,-307.237"/>
<polygon fill="black" stroke="black" stroke-width="1.61512" points="327.5,-307.175 324,-297.175 320.5,-307.175 327.5,-307.175"/>
<text text-anchor="middle" x="336.5" y="-318.8" font-family="Times New Roman,serif" font-size="14.00">15m</text>
</g>
<!-- 2087335661875509009 -->
<g id="node6" class="node"><title>2087335661875509009</title>
<polygon fill="none" stroke="black" points="246.5,-384 151.5,-384 151.5,-348 246.5,-348 246.5,-384"/>
<text text-anchor="middle" x="199" y="-362.3" font-family="Times New Roman,serif" font-size="14.00">IV Antibiotics</text>
</g>
<!-- 2087335661875509009&#45;&gt;&#45;3492962446882065389 -->
<g id="edge7" class="edge"><title>2087335661875509009&#45;&gt;&#45;3492962446882065389</title>
<path fill="none" stroke="black" stroke-width="1.13792" d="M199,-347.799C199,-336.163 199,-320.548 199,-307.237"/>
<polygon fill="black" stroke="black" stroke-width="1.13792" points="202.5,-307.175 199,-297.175 195.5,-307.175 202.5,-307.175"/>
<text text-anchor="middle" x="208" y="-318.8" font-family="Times New Roman,serif" font-size="14.00">8m</text>
</g>
<!-- 1087041013860448215 -->
<g id="node7" class="node"><title>1087041013860448215</title>
<polygon fill="none" stroke="black" points="234.5,-471 163.5,-471 163.5,-435 234.5,-435 234.5,-471"/>
<text text-anchor="middle" x="199" y="-449.3" font-family="Times New Roman,serif" font-size="14.00">IV Liquid</text>
</g>
<!-- 1087041013860448215&#45;&gt;2087335661875509009 -->
<g id="edge8" class="edge"><title>1087041013860448215&#45;&gt;2087335661875509009</title>
<path fill="none" stroke="black" stroke-width="1.14727" d="M199,-434.799C199,-423.163 199,-407.548 199,-394.237"/>
<polygon fill="black" stroke="black" stroke-width="1.14727" points="202.5,-394.175 199,-384.175 195.5,-394.175 202.5,-394.175"/>
<text text-anchor="middle" x="208" y="-405.8" font-family="Times New Roman,serif" font-size="14.00">8m</text>
</g>
<!-- 6521040110597749957&#45;&gt;&#45;4216261333602951318 -->
<g id="edge9" class="edge"><title>6521040110597749957&#45;&gt;&#45;4216261333602951318</title>
<path fill="none" stroke="black" stroke-width="1.04439" d="M53.5993,-123.236C61.8625,-132.926 72.4287,-145.207 82,-156 84.8884,-159.257 87.9487,-162.662 90.9868,-166.014"/>
<polygon fill="black" stroke="black" stroke-width="1.04439" points="88.6208,-168.614 97.9437,-173.648 93.7945,-163.899 88.6208,-168.614"/>
<text text-anchor="middle" x="91" y="-144.8" font-family="Times New Roman,serif" font-size="14.00">6m</text>
</g>
<!-- 6521040110597749957&#45;&gt;&#45;5472726865306734006 -->
<g id="edge10" class="edge"><title>6521040110597749957&#45;&gt;&#45;5472726865306734006</title>
<path fill="none" stroke="black" stroke-width="1.233" d="M35.5173,-86.9148C34.363,-76.5746 34.6978,-63.5805 41,-54 46.6194,-45.4575 54.9403,-38.9437 63.9734,-33.9955"/>
<polygon fill="black" stroke="black" stroke-width="1.233" points="65.6889,-37.0538 73.1703,-29.5519 62.6436,-30.7509 65.6889,-37.0538"/>
<text text-anchor="middle" x="50" y="-57.8" font-family="Times New Roman,serif" font-size="14.00">9m</text>
</g>
<!-- &#45;5472726865306734006&#45;&gt;&#45;4216261333602951318 -->
<g id="edge11" class="edge"><title>&#45;5472726865306734006&#45;&gt;&#45;4216261333602951318</title>
<path fill="none" stroke="black" stroke-width="2.6" d="M123.671,-36.2607C130.587,-49.6405 139.3,-68.8927 143,-87 146.203,-102.676 146.203,-107.324 143,-123 140.081,-137.288 134.04,-152.288 128.223,-164.554"/>
<polygon fill="black" stroke="black" stroke-width="2.6" points="124.976,-163.225 123.671,-173.739 131.248,-166.334 124.976,-163.225"/>
<text text-anchor="middle" x="158.5" y="-101.3" font-family="Times New Roman,serif" font-size="14.00">29m</text>
</g>
<!-- &#45;5472726865306734006&#45;&gt;6521040110597749957 -->
<g id="edge12" class="edge"><title>&#45;5472726865306734006&#45;&gt;6521040110597749957</title>
<path fill="none" stroke="black" stroke-width="1.08705" d="M97.9437,-36.3523C92.8133,-41.9525 87.1349,-48.2095 82,-54 74.8215,-62.095 67.0834,-71.0269 60.177,-79.0747"/>
<polygon fill="black" stroke="black" stroke-width="1.08705" points="57.44,-76.8899 53.5993,-86.7641 62.7594,-81.4402 57.44,-76.8899"/>
<text text-anchor="middle" x="91" y="-57.8" font-family="Times New Roman,serif" font-size="14.00">7m</text>
</g>
<!-- &#45;5472726865306734006&#45;&gt;&#45;5472726865306734006 -->
<g id="edge13" class="edge"><title>&#45;5472726865306734006&#45;&gt;&#45;5472726865306734006</title>
<path fill="none" stroke="black" stroke-width="1.10218" d="M154.735,-25.7669C164.901,-25.2237 172.5,-22.6348 172.5,-18 172.5,-15.1033 169.532,-13.0057 164.824,-11.7073"/>
<polygon fill="black" stroke="black" stroke-width="1.10218" points="165.136,-8.21582 154.735,-10.2331 164.124,-15.1423 165.136,-8.21582"/>
<text text-anchor="middle" x="181.5" y="-14.3" font-family="Times New Roman,serif" font-size="14.00">7m</text>
</g>
</g>
</svg>
