<?xml version="1.0" encoding="UTF-8" standalone="no"?>
<!DOCTYPE svg PUBLIC "-//W3C//DTD SVG 1.1//EN"
 "http://www.w3.org/Graphics/SVG/1.1/DTD/svg11.dtd">
<!-- Generated by graphviz version 2.38.0 (20140413.2041)
 -->
<!-- Title: %3 Pages: 1 -->
<svg width="745pt" height="479pt"
 viewBox="0.00 0.00 745.38 479.00" xmlns="http://www.w3.org/2000/svg" xmlns:xlink="http://www.w3.org/1999/xlink">
<g id="graph0" class="graph" transform="scale(1 1) rotate(0) translate(4 475)">
<title>%3</title>
<!-- 9118780525858573852 -->
<g id="node1" class="node"><title>9118780525858573852</title>
<polygon fill="#ffffff" stroke="black" points="539.881,-297 420.881,-297 420.881,-261 539.881,-261 539.881,-297"/>
<text text-anchor="middle" x="480.381" y="-275.3" font-family="Times New Roman,serif" font-size="14.00">Admission NC (1)</text>
</g>
<!-- 8794229938327540079 -->
<g id="node2" class="node"><title>8794229938327540079</title>
<polygon fill="#ffffff" stroke="black" points="291.381,-210 227.381,-210 227.381,-174 291.381,-174 291.381,-210"/>
<text text-anchor="middle" x="259.381" y="-188.3" font-family="Times New Roman,serif" font-size="14.00">CRP (1)</text>
</g>
<!-- 9118780525858573852&#45;&gt;8794229938327540079 -->
<g id="edge1" class="edge"><title>9118780525858573852&#45;&gt;8794229938327540079</title>
<path fill="none" stroke="black" d="M435.925,-260.901C396.533,-245.751 339.455,-223.798 300.958,-208.991"/>
<polygon fill="black" stroke="black" points="302.183,-205.712 291.593,-205.389 299.67,-212.246 302.183,-205.712"/>
<text text-anchor="middle" x="439.381" y="-231.8" font-family="Times New Roman,serif" font-size="14.00">367.0176224477179</text>
</g>
<!-- &#45;4990305070490083274 -->
<g id="node9" class="node"><title>&#45;4990305070490083274</title>
<polygon fill="#ffffff" stroke="black" points="309.881,-36 208.881,-36 208.881,-0 309.881,-0 309.881,-36"/>
<text text-anchor="middle" x="259.381" y="-14.3" font-family="Times New Roman,serif" font-size="14.00">Leucocytes (1)</text>
</g>
<!-- 9118780525858573852&#45;&gt;&#45;4990305070490083274 -->
<g id="edge2" class="edge"><title>9118780525858573852&#45;&gt;&#45;4990305070490083274</title>
<path fill="none" stroke="black" stroke-width="1.05173" d="M491.698,-260.861C494.758,-255.376 497.688,-249.131 499.381,-243 517.85,-176.135 546.364,-142.222 504.381,-87 482.161,-57.7718 385.367,-37.8161 320.299,-27.4237"/>
<polygon fill="black" stroke="black" stroke-width="1.05173" points="320.566,-23.9229 310.145,-25.838 319.485,-30.8391 320.566,-23.9229"/>
<text text-anchor="middle" x="585.881" y="-144.8" font-family="Times New Roman,serif" font-size="14.00">412.69907613075213</text>
</g>
<!-- 5659693541288529527 -->
<g id="node8" class="node"><title>5659693541288529527</title>
<polygon fill="#ffffff" stroke="black" points="119.381,-123 21.3813,-123 21.3813,-87 119.381,-87 119.381,-123"/>
<text text-anchor="middle" x="70.3813" y="-101.3" font-family="Times New Roman,serif" font-size="14.00">LacticAcid (1)</text>
</g>
<!-- 8794229938327540079&#45;&gt;5659693541288529527 -->
<g id="edge3" class="edge"><title>8794229938327540079&#45;&gt;5659693541288529527</title>
<path fill="none" stroke="black" stroke-width="1.29546" d="M227.247,-191.581C165.302,-191.94 32.9445,-188.751 4.38131,-156 -4.68697,-145.602 2.32102,-135.973 14.6256,-127.997"/>
<polygon fill="black" stroke="black" stroke-width="1.29546" points="16.4162,-131.005 23.3606,-123.004 12.942,-124.928 16.4162,-131.005"/>
<text text-anchor="middle" x="60.3813" y="-144.8" font-family="Times New Roman,serif" font-size="14.00">627.9421175924342</text>
</g>
<!-- 8794229938327540079&#45;&gt;&#45;4990305070490083274 -->
<g id="edge4" class="edge"><title>8794229938327540079&#45;&gt;&#45;4990305070490083274</title>
<path fill="none" stroke="black" stroke-width="2.227" d="M259.381,-173.879C259.381,-144.001 259.381,-82.1129 259.381,-46.2736"/>
<polygon fill="black" stroke="black" stroke-width="2.227" points="262.881,-46.0516 259.381,-36.0516 255.881,-46.0516 262.881,-46.0516"/>
<text text-anchor="middle" x="318.881" y="-101.3" font-family="Times New Roman,serif" font-size="14.00">1450.5953208381904</text>
</g>
<!-- 4941573644585563234 -->
<g id="node3" class="node"><title>4941573644585563234</title>
<polygon fill="#ffffff" stroke="black" points="687.881,-471 562.881,-471 562.881,-435 687.881,-435 687.881,-471"/>
<text text-anchor="middle" x="625.381" y="-449.3" font-family="Times New Roman,serif" font-size="14.00">ER Registration (1)</text>
</g>
<!-- 7781181950460006610 -->
<g id="node5" class="node"><title>7781181950460006610</title>
<polygon fill="#ffffff" stroke="black" points="671.881,-384 578.881,-384 578.881,-348 671.881,-348 671.881,-384"/>
<text text-anchor="middle" x="625.381" y="-362.3" font-family="Times New Roman,serif" font-size="14.00">ER Triage (1)</text>
</g>
<!-- 4941573644585563234&#45;&gt;7781181950460006610 -->
<g id="edge5" class="edge"><title>4941573644585563234&#45;&gt;7781181950460006610</title>
<path fill="none" stroke="black" stroke-width="1.68368" d="M625.381,-434.799C625.381,-423.163 625.381,-407.548 625.381,-394.237"/>
<polygon fill="black" stroke="black" stroke-width="1.68368" points="628.881,-394.175 625.381,-384.175 621.881,-394.175 628.881,-394.175"/>
<text text-anchor="middle" x="681.381" y="-405.8" font-family="Times New Roman,serif" font-size="14.00">970.7829620140803</text>
</g>
<!-- &#45;1916228938975785919 -->
<g id="node4" class="node"><title>&#45;1916228938975785919</title>
<polygon fill="#ffffff" stroke="black" points="692.381,-297 558.381,-297 558.381,-261 692.381,-261 692.381,-297"/>
<text text-anchor="middle" x="625.381" y="-275.3" font-family="Times New Roman,serif" font-size="14.00">ER Sepsis Triage (1)</text>
</g>
<!-- 7781181950460006610&#45;&gt;&#45;1916228938975785919 -->
<g id="edge6" class="edge"><title>7781181950460006610&#45;&gt;&#45;1916228938975785919</title>
<path fill="none" stroke="black" stroke-width="1.6143" d="M625.381,-347.799C625.381,-336.163 625.381,-320.548 625.381,-307.237"/>
<polygon fill="black" stroke="black" stroke-width="1.6143" points="628.881,-307.175 625.381,-297.175 621.881,-307.175 628.881,-307.175"/>
<text text-anchor="middle" x="681.381" y="-318.8" font-family="Times New Roman,serif" font-size="14.00">909.5131021144248</text>
</g>
<!-- 1341266047991071662 -->
<g id="node6" class="node"><title>1341266047991071662</title>
<polygon fill="#ffffff" stroke="black" points="537.881,-384 422.881,-384 422.881,-348 537.881,-348 537.881,-384"/>
<text text-anchor="middle" x="480.381" y="-362.3" font-family="Times New Roman,serif" font-size="14.00">IV Antibiotics (1)</text>
</g>
<!-- 1341266047991071662&#45;&gt;9118780525858573852 -->
<g id="edge7" class="edge"><title>1341266047991071662&#45;&gt;9118780525858573852</title>
<path fill="none" stroke="black" stroke-width="1.13773" d="M480.381,-347.799C480.381,-336.163 480.381,-320.548 480.381,-307.237"/>
<polygon fill="black" stroke="black" stroke-width="1.13773" points="483.881,-307.175 480.381,-297.175 476.881,-307.175 483.881,-307.175"/>
<text text-anchor="middle" x="536.381" y="-318.8" font-family="Times New Roman,serif" font-size="14.00">488.6481126115808</text>
</g>
<!-- 1513237216211266658 -->
<g id="node7" class="node"><title>1513237216211266658</title>
<polygon fill="#ffffff" stroke="black" points="525.381,-471 435.381,-471 435.381,-435 525.381,-435 525.381,-471"/>
<text text-anchor="middle" x="480.381" y="-449.3" font-family="Times New Roman,serif" font-size="14.00">IV Liquid (1)</text>
</g>
<!-- 1513237216211266658&#45;&gt;1341266047991071662 -->
<g id="edge8" class="edge"><title>1513237216211266658&#45;&gt;1341266047991071662</title>
<path fill="none" stroke="black" stroke-width="1.15318" d="M480.381,-434.799C480.381,-423.163 480.381,-407.548 480.381,-394.237"/>
<polygon fill="black" stroke="black" stroke-width="1.15318" points="483.881,-394.175 480.381,-384.175 476.881,-394.175 483.881,-394.175"/>
<text text-anchor="middle" x="539.881" y="-405.8" font-family="Times New Roman,serif" font-size="14.00">502.29361411146107</text>
</g>
<!-- 5659693541288529527&#45;&gt;8794229938327540079 -->
<g id="edge9" class="edge"><title>5659693541288529527&#45;&gt;8794229938327540079</title>
<path fill="none" stroke="black" stroke-width="1.0403" d="M93.1514,-123.095C111.261,-136.589 134.366,-153.544 139.381,-156 163.998,-168.057 193.536,-176.736 217.146,-182.436"/>
<polygon fill="black" stroke="black" stroke-width="1.0403" points="216.67,-185.919 227.203,-184.772 218.254,-179.1 216.67,-185.919"/>
<text text-anchor="middle" x="192.381" y="-144.8" font-family="Times New Roman,serif" font-size="14.00">402.609102574149</text>
</g>
<!-- 5659693541288529527&#45;&gt;&#45;4990305070490083274 -->
<g id="edge10" class="edge"><title>5659693541288529527&#45;&gt;&#45;4990305070490083274</title>
<path fill="none" stroke="black" stroke-width="1.22473" d="M23.3606,-86.9962C6.16255,-78.2088 -6.67336,-66.6756 4.38131,-54 29.0704,-25.6907 131.308,-19.4691 198.591,-18.5336"/>
<polygon fill="black" stroke="black" stroke-width="1.22473" points="198.698,-22.0328 208.661,-18.4291 198.625,-15.0332 198.698,-22.0328"/>
<text text-anchor="middle" x="60.3813" y="-57.8" font-family="Times New Roman,serif" font-size="14.00">565.4746899256925</text>
</g>
<!-- &#45;4990305070490083274&#45;&gt;8794229938327540079 -->
<g id="edge11" class="edge"><title>&#45;4990305070490083274&#45;&gt;8794229938327540079</title>
<path fill="none" stroke="black" stroke-width="2.6" d="M309.115,-36.1523C352.383,-54.0524 404.899,-84.8222 382.381,-123 364.972,-152.517 329.646,-170.113 301.301,-179.985"/>
<polygon fill="black" stroke="black" stroke-width="2.6" points="300.02,-176.721 291.607,-183.161 302.2,-183.373 300.02,-176.721"/>
<text text-anchor="middle" x="444.381" y="-101.3" font-family="Times New Roman,serif" font-size="14.00">1779.993812970184</text>
</g>
<!-- &#45;4990305070490083274&#45;&gt;5659693541288529527 -->
<g id="edge12" class="edge"><title>&#45;4990305070490083274&#45;&gt;5659693541288529527</title>
<path fill="none" stroke="black" stroke-width="1.07706" d="M208.615,-29.6921C186.677,-35.3454 161.112,-43.3569 139.381,-54 135.11,-56.0918 117.722,-68.6969 101.471,-80.7262"/>
<polygon fill="black" stroke="black" stroke-width="1.07706" points="99.0921,-78.1329 93.1514,-86.9055 103.266,-83.7523 99.0921,-78.1329"/>
<text text-anchor="middle" x="192.381" y="-57.8" font-family="Times New Roman,serif" font-size="14.00">435.067811754567</text>
</g>
<!-- &#45;4990305070490083274&#45;&gt;&#45;4990305070490083274 -->
<g id="edge13" class="edge"><title>&#45;4990305070490083274&#45;&gt;&#45;4990305070490083274</title>
<path fill="none" stroke="black" stroke-width="1.10807" d="M310.165,-25.5746C320.489,-24.7495 327.881,-22.2246 327.881,-18 327.881,-15.3596 324.994,-13.3832 320.307,-12.0707"/>
<polygon fill="black" stroke="black" stroke-width="1.10807" points="320.597,-8.57199 310.165,-10.4254 319.476,-15.4817 320.597,-8.57199"/>
<text text-anchor="middle" x="383.881" y="-14.3" font-family="Times New Roman,serif" font-size="14.00">462.4561705823587</text>
</g>
</g>
</svg>
