<?xml version="1.0" encoding="UTF-8" standalone="no"?>
<!DOCTYPE svg PUBLIC "-//W3C//DTD SVG 1.1//EN"
 "http://www.w3.org/Graphics/SVG/1.1/DTD/svg11.dtd">
<!-- Generated by graphviz version 2.38.0 (20140413.2041)
 -->
<!-- Title: %3 Pages: 1 -->
<svg width="746pt" height="479pt"
 viewBox="0.00 0.00 746.34 479.00" xmlns="http://www.w3.org/2000/svg" xmlns:xlink="http://www.w3.org/1999/xlink">
<g id="graph0" class="graph" transform="scale(1 1) rotate(0) translate(4 475)">
<title>%3</title>
<!-- 118450489566830562 -->
<g id="node1" class="node"><title>118450489566830562</title>
<polygon fill="#ffffff" stroke="black" points="540.841,-297 421.841,-297 421.841,-261 540.841,-261 540.841,-297"/>
<text text-anchor="middle" x="481.341" y="-275.3" font-family="Times New Roman,serif" font-size="14.00">Admission NC (1)</text>
</g>
<!-- 4941769122289558835 -->
<g id="node2" class="node"><title>4941769122289558835</title>
<polygon fill="#ffffff" stroke="black" points="297.341,-210 233.341,-210 233.341,-174 297.341,-174 297.341,-210"/>
<text text-anchor="middle" x="265.341" y="-188.3" font-family="Times New Roman,serif" font-size="14.00">CRP (1)</text>
</g>
<!-- 118450489566830562&#45;&gt;4941769122289558835 -->
<g id="edge1" class="edge"><title>118450489566830562&#45;&gt;4941769122289558835</title>
<path fill="none" stroke="black" d="M437.89,-260.901C399.779,-245.904 344.73,-224.241 307.124,-209.442"/>
<polygon fill="black" stroke="black" points="308.072,-206.054 297.484,-205.649 305.508,-212.568 308.072,-206.054"/>
<text text-anchor="middle" x="442.341" y="-231.8" font-family="Times New Roman,serif" font-size="14.00">372.6422699185582</text>
</g>
<!-- 6570115252564267433 -->
<g id="node9" class="node"><title>6570115252564267433</title>
<polygon fill="#ffffff" stroke="black" points="315.841,-36 214.841,-36 214.841,-0 315.841,-0 315.841,-36"/>
<text text-anchor="middle" x="265.341" y="-14.3" font-family="Times New Roman,serif" font-size="14.00">Leucocytes (1)</text>
</g>
<!-- 118450489566830562&#45;&gt;6570115252564267433 -->
<g id="edge2" class="edge"><title>118450489566830562&#45;&gt;6570115252564267433</title>
<path fill="none" stroke="black" stroke-width="1.04129" d="M494.167,-260.671C497.471,-255.278 500.587,-249.132 502.341,-243 521.406,-176.333 546.127,-142.334 504.341,-87 482.84,-58.5292 389.354,-38.4622 325.876,-27.8245"/>
<polygon fill="black" stroke="black" stroke-width="1.04129" points="326.397,-24.3631 315.962,-26.1983 325.264,-31.2708 326.397,-24.3631"/>
<text text-anchor="middle" x="583.341" y="-144.8" font-family="Times New Roman,serif" font-size="14.00">408.9322812694095</text>
</g>
<!-- &#45;5670009864185339888 -->
<g id="node8" class="node"><title>&#45;5670009864185339888</title>
<polygon fill="#ffffff" stroke="black" points="125.341,-123 27.3407,-123 27.3407,-87 125.341,-87 125.341,-123"/>
<text text-anchor="middle" x="76.3407" y="-101.3" font-family="Times New Roman,serif" font-size="14.00">LacticAcid (1)</text>
</g>
<!-- 4941769122289558835&#45;&gt;&#45;5670009864185339888 -->
<g id="edge3" class="edge"><title>4941769122289558835&#45;&gt;&#45;5670009864185339888</title>
<path fill="none" stroke="black" stroke-width="1.33059" d="M233.018,-191.46C172.13,-191.561 44.0493,-187.876 16.3407,-156 7.73968,-146.105 14.1944,-136.553 25.5591,-128.495"/>
<polygon fill="black" stroke="black" stroke-width="1.33059" points="27.4587,-131.435 34.0867,-123.169 23.7509,-125.498 27.4587,-131.435"/>
<text text-anchor="middle" x="69.3407" y="-144.8" font-family="Times New Roman,serif" font-size="14.00">663.188921384139</text>
</g>
<!-- 4941769122289558835&#45;&gt;6570115252564267433 -->
<g id="edge4" class="edge"><title>4941769122289558835&#45;&gt;6570115252564267433</title>
<path fill="none" stroke="black" stroke-width="2.22109" d="M265.341,-173.879C265.341,-144.001 265.341,-82.1129 265.341,-46.2736"/>
<polygon fill="black" stroke="black" stroke-width="2.22109" points="268.841,-46.0516 265.341,-36.0516 261.841,-46.0516 268.841,-46.0516"/>
<text text-anchor="middle" x="324.841" y="-101.3" font-family="Times New Roman,serif" font-size="14.00">1445.8129625815016</text>
</g>
<!-- &#45;1744131764726653331 -->
<g id="node3" class="node"><title>&#45;1744131764726653331</title>
<polygon fill="#ffffff" stroke="black" points="688.841,-471 563.841,-471 563.841,-435 688.841,-435 688.841,-471"/>
<text text-anchor="middle" x="626.341" y="-449.3" font-family="Times New Roman,serif" font-size="14.00">ER Registration (1)</text>
</g>
<!-- &#45;8305476247514553090 -->
<g id="node5" class="node"><title>&#45;8305476247514553090</title>
<polygon fill="#ffffff" stroke="black" points="672.841,-384 579.841,-384 579.841,-348 672.841,-348 672.841,-384"/>
<text text-anchor="middle" x="626.341" y="-362.3" font-family="Times New Roman,serif" font-size="14.00">ER Triage (1)</text>
</g>
<!-- &#45;1744131764726653331&#45;&gt;&#45;8305476247514553090 -->
<g id="edge5" class="edge"><title>&#45;1744131764726653331&#45;&gt;&#45;8305476247514553090</title>
<path fill="none" stroke="black" stroke-width="1.67234" d="M626.341,-434.799C626.341,-423.163 626.341,-407.548 626.341,-394.237"/>
<polygon fill="black" stroke="black" stroke-width="1.67234" points="629.841,-394.175 626.341,-384.175 622.841,-394.175 629.841,-394.175"/>
<text text-anchor="middle" x="682.341" y="-405.8" font-family="Times New Roman,serif" font-size="14.00">963.5378866782806</text>
</g>
<!-- 3296544575651183754 -->
<g id="node4" class="node"><title>3296544575651183754</title>
<polygon fill="#ffffff" stroke="black" points="693.341,-297 559.341,-297 559.341,-261 693.341,-261 693.341,-297"/>
<text text-anchor="middle" x="626.341" y="-275.3" font-family="Times New Roman,serif" font-size="14.00">ER Sepsis Triage (1)</text>
</g>
<!-- &#45;8305476247514553090&#45;&gt;3296544575651183754 -->
<g id="edge6" class="edge"><title>&#45;8305476247514553090&#45;&gt;3296544575651183754</title>
<path fill="none" stroke="black" stroke-width="1.61015" d="M626.341,-347.799C626.341,-336.163 626.341,-320.548 626.341,-307.237"/>
<polygon fill="black" stroke="black" stroke-width="1.61015" points="629.841,-307.175 626.341,-297.175 622.841,-307.175 629.841,-307.175"/>
<text text-anchor="middle" x="682.341" y="-318.8" font-family="Times New Roman,serif" font-size="14.00">908.8784029110304</text>
</g>
<!-- &#45;8429177058128869877 -->
<g id="node6" class="node"><title>&#45;8429177058128869877</title>
<polygon fill="#ffffff" stroke="black" points="538.841,-384 423.841,-384 423.841,-348 538.841,-348 538.841,-384"/>
<text text-anchor="middle" x="481.341" y="-362.3" font-family="Times New Roman,serif" font-size="14.00">IV Antibiotics (1)</text>
</g>
<!-- &#45;8429177058128869877&#45;&gt;118450489566830562 -->
<g id="edge7" class="edge"><title>&#45;8429177058128869877&#45;&gt;118450489566830562</title>
<path fill="none" stroke="black" stroke-width="1.08091" d="M481.341,-347.799C481.341,-336.163 481.341,-320.548 481.341,-307.237"/>
<polygon fill="black" stroke="black" stroke-width="1.08091" points="484.841,-307.175 481.341,-297.175 477.841,-307.175 484.841,-307.175"/>
<text text-anchor="middle" x="540.841" y="-318.8" font-family="Times New Roman,serif" font-size="14.00">443.75380375708954</text>
</g>
<!-- 6215314419735287562 -->
<g id="node7" class="node"><title>6215314419735287562</title>
<polygon fill="#ffffff" stroke="black" points="526.341,-471 436.341,-471 436.341,-435 526.341,-435 526.341,-471"/>
<text text-anchor="middle" x="481.341" y="-449.3" font-family="Times New Roman,serif" font-size="14.00">IV Liquid (1)</text>
</g>
<!-- 6215314419735287562&#45;&gt;&#45;8429177058128869877 -->
<g id="edge8" class="edge"><title>6215314419735287562&#45;&gt;&#45;8429177058128869877</title>
<path fill="none" stroke="black" stroke-width="1.15964" d="M481.341,-434.799C481.341,-423.163 481.341,-407.548 481.341,-394.237"/>
<polygon fill="black" stroke="black" stroke-width="1.15964" points="484.841,-394.175 481.341,-384.175 477.841,-394.175 484.841,-394.175"/>
<text text-anchor="middle" x="537.341" y="-405.8" font-family="Times New Roman,serif" font-size="14.00">512.9445765137531</text>
</g>
<!-- &#45;5670009864185339888&#45;&gt;4941769122289558835 -->
<g id="edge9" class="edge"><title>&#45;5670009864185339888&#45;&gt;4941769122289558835</title>
<path fill="none" stroke="black" stroke-width="1.02682" d="M99.1108,-123.095C117.22,-136.589 140.325,-153.544 145.341,-156 169.957,-168.057 199.495,-176.736 223.105,-182.436"/>
<polygon fill="black" stroke="black" stroke-width="1.02682" points="222.63,-185.919 233.162,-184.772 224.214,-179.1 222.63,-185.919"/>
<text text-anchor="middle" x="198.341" y="-144.8" font-family="Times New Roman,serif" font-size="14.00">396.212704930299</text>
</g>
<!-- &#45;5670009864185339888&#45;&gt;6570115252564267433 -->
<g id="edge10" class="edge"><title>&#45;5670009864185339888&#45;&gt;6570115252564267433</title>
<path fill="none" stroke="black" stroke-width="1.19482" d="M27.2751,-88.5137C7.63795,-79.7874 -7.78406,-67.8592 4.34071,-54 29.7881,-24.9123 135.464,-18.9795 204.297,-18.3044"/>
<polygon fill="black" stroke="black" stroke-width="1.19482" points="204.613,-21.8026 214.591,-18.2395 204.569,-14.8027 204.613,-21.8026"/>
<text text-anchor="middle" x="60.3407" y="-57.8" font-family="Times New Roman,serif" font-size="14.00">543.8613143210003</text>
</g>
<!-- 6570115252564267433&#45;&gt;4941769122289558835 -->
<g id="edge11" class="edge"><title>6570115252564267433&#45;&gt;4941769122289558835</title>
<path fill="none" stroke="black" stroke-width="2.6" d="M315.074,-36.1523C358.342,-54.0524 410.858,-84.8222 388.341,-123 370.932,-152.517 335.606,-170.113 307.261,-179.985"/>
<polygon fill="black" stroke="black" stroke-width="2.6" points="305.979,-176.721 297.566,-183.161 308.159,-183.373 305.979,-176.721"/>
<text text-anchor="middle" x="447.341" y="-101.3" font-family="Times New Roman,serif" font-size="14.00">1778.82160188161</text>
</g>
<!-- 6570115252564267433&#45;&gt;&#45;5670009864185339888 -->
<g id="edge12" class="edge"><title>6570115252564267433&#45;&gt;&#45;5670009864185339888</title>
<path fill="none" stroke="black" stroke-width="1.06535" d="M214.564,-28.2335C190.881,-33.7453 162.81,-42.0517 139.341,-54 131.818,-57.8298 117.349,-69.1949 104.172,-80.1234"/>
<polygon fill="black" stroke="black" stroke-width="1.06535" points="101.623,-77.6933 96.2084,-86.8002 106.12,-83.0574 101.623,-77.6933"/>
<text text-anchor="middle" x="195.341" y="-57.8" font-family="Times New Roman,serif" font-size="14.00">430.0744743390275</text>
</g>
<!-- 6570115252564267433&#45;&gt;6570115252564267433 -->
<g id="edge13" class="edge"><title>6570115252564267433&#45;&gt;6570115252564267433</title>
<path fill="none" stroke="black" stroke-width="1.09617" d="M316.125,-25.5746C326.448,-24.7495 333.841,-22.2246 333.841,-18 333.841,-15.3596 330.953,-13.3832 326.267,-12.0707"/>
<polygon fill="black" stroke="black" stroke-width="1.09617" points="326.556,-8.57199 316.125,-10.4254 325.435,-15.4817 326.556,-8.57199"/>
<text text-anchor="middle" x="389.841" y="-14.3" font-family="Times New Roman,serif" font-size="14.00">457.1616221461304</text>
</g>
</g>
</svg>
