<?xml version="1.0" encoding="UTF-8" standalone="no"?>
<!DOCTYPE svg PUBLIC "-//W3C//DTD SVG 1.1//EN"
 "http://www.w3.org/Graphics/SVG/1.1/DTD/svg11.dtd">
<!-- Generated by graphviz version 2.38.0 (20140413.2041)
 -->
<!-- Title: %3 Pages: 1 -->
<svg width="742pt" height="479pt"
 viewBox="0.00 0.00 742.34 479.00" xmlns="http://www.w3.org/2000/svg" xmlns:xlink="http://www.w3.org/1999/xlink">
<g id="graph0" class="graph" transform="scale(1 1) rotate(0) translate(4 475)">
<title>%3</title>
<!-- 118450489566830562 -->
<g id="node1" class="node"><title>118450489566830562</title>
<polygon fill="#ffffff" stroke="black" points="536.842,-297 417.842,-297 417.842,-261 536.842,-261 536.842,-297"/>
<text text-anchor="middle" x="477.342" y="-275.3" font-family="Times New Roman,serif" font-size="14.00">Admission NC (1)</text>
</g>
<!-- 4941769122289558835 -->
<g id="node2" class="node"><title>4941769122289558835</title>
<polygon fill="#ffffff" stroke="black" points="298.342,-210 234.342,-210 234.342,-174 298.342,-174 298.342,-210"/>
<text text-anchor="middle" x="266.342" y="-188.3" font-family="Times New Roman,serif" font-size="14.00">CRP (1)</text>
</g>
<!-- 118450489566830562&#45;&gt;4941769122289558835 -->
<g id="edge1" class="edge"><title>118450489566830562&#45;&gt;4941769122289558835</title>
<path fill="none" stroke="black" d="M434.896,-260.901C397.889,-245.993 344.53,-224.498 307.813,-209.707"/>
<polygon fill="black" stroke="black" points="308.975,-206.402 298.392,-205.911 306.36,-212.894 308.975,-206.402"/>
<text text-anchor="middle" x="441.342" y="-231.8" font-family="Times New Roman,serif" font-size="14.00">368.8308632893209</text>
</g>
<!-- 6570115252564267433 -->
<g id="node9" class="node"><title>6570115252564267433</title>
<polygon fill="#ffffff" stroke="black" points="316.842,-36 215.842,-36 215.842,-0 316.842,-0 316.842,-36"/>
<text text-anchor="middle" x="266.342" y="-14.3" font-family="Times New Roman,serif" font-size="14.00">Leucocytes (1)</text>
</g>
<!-- 118450489566830562&#45;&gt;6570115252564267433 -->
<g id="edge2" class="edge"><title>118450489566830562&#45;&gt;6570115252564267433</title>
<path fill="none" stroke="black" stroke-width="1.04519" d="M492.052,-260.925C495.829,-255.54 499.379,-249.334 501.342,-243 515.142,-198.471 623.954,-251.048 498.342,-87 477.463,-59.7335 388.481,-39.5407 326.993,-28.5194"/>
<polygon fill="black" stroke="black" stroke-width="1.04519" points="327.45,-25.0462 316.996,-26.7643 326.24,-31.9408 327.45,-25.0462"/>
<text text-anchor="middle" x="601.342" y="-144.8" font-family="Times New Roman,serif" font-size="14.00">408.6204622960607</text>
</g>
<!-- &#45;5670009864185339888 -->
<g id="node8" class="node"><title>&#45;5670009864185339888</title>
<polygon fill="#ffffff" stroke="black" points="117.342,-123 19.3415,-123 19.3415,-87 117.342,-87 117.342,-123"/>
<text text-anchor="middle" x="68.3415" y="-101.3" font-family="Times New Roman,serif" font-size="14.00">LacticAcid (1)</text>
</g>
<!-- 4941769122289558835&#45;&gt;&#45;5670009864185339888 -->
<g id="edge3" class="edge"><title>4941769122289558835&#45;&gt;&#45;5670009864185339888</title>
<path fill="none" stroke="black" stroke-width="1.29081" d="M234.309,-191.715C171.103,-192.366 33.8862,-189.754 4.34154,-156 -4.56205,-145.828 2.17993,-136.262 14.0974,-128.275"/>
<polygon fill="black" stroke="black" stroke-width="1.29081" points="16.2023,-131.097 23.0461,-123.01 12.6524,-125.064 16.2023,-131.097"/>
<text text-anchor="middle" x="57.3415" y="-144.8" font-family="Times New Roman,serif" font-size="14.00">624.911535582037</text>
</g>
<!-- 4941769122289558835&#45;&gt;6570115252564267433 -->
<g id="edge4" class="edge"><title>4941769122289558835&#45;&gt;6570115252564267433</title>
<path fill="none" stroke="black" stroke-width="2.22248" d="M266.342,-173.879C266.342,-144.001 266.342,-82.1129 266.342,-46.2736"/>
<polygon fill="black" stroke="black" stroke-width="2.22248" points="269.842,-46.0516 266.342,-36.0516 262.842,-46.0516 269.842,-46.0516"/>
<text text-anchor="middle" x="319.342" y="-101.3" font-family="Times New Roman,serif" font-size="14.00">1445.31385981871</text>
</g>
<!-- &#45;1744131764726653331 -->
<g id="node3" class="node"><title>&#45;1744131764726653331</title>
<polygon fill="#ffffff" stroke="black" points="684.842,-471 559.842,-471 559.842,-435 684.842,-435 684.842,-471"/>
<text text-anchor="middle" x="622.342" y="-449.3" font-family="Times New Roman,serif" font-size="14.00">ER Registration (1)</text>
</g>
<!-- &#45;8305476247514553090 -->
<g id="node5" class="node"><title>&#45;8305476247514553090</title>
<polygon fill="#ffffff" stroke="black" points="668.842,-384 575.842,-384 575.842,-348 668.842,-348 668.842,-384"/>
<text text-anchor="middle" x="622.342" y="-362.3" font-family="Times New Roman,serif" font-size="14.00">ER Triage (1)</text>
</g>
<!-- &#45;1744131764726653331&#45;&gt;&#45;8305476247514553090 -->
<g id="edge5" class="edge"><title>&#45;1744131764726653331&#45;&gt;&#45;8305476247514553090</title>
<path fill="none" stroke="black" stroke-width="1.67478" d="M622.342,-434.799C622.342,-423.163 622.342,-407.548 622.342,-394.237"/>
<polygon fill="black" stroke="black" stroke-width="1.67478" points="625.842,-394.175 622.342,-384.175 618.842,-394.175 625.842,-394.175"/>
<text text-anchor="middle" x="678.342" y="-405.8" font-family="Times New Roman,serif" font-size="14.00">963.0285807487961</text>
</g>
<!-- 3296544575651183754 -->
<g id="node4" class="node"><title>3296544575651183754</title>
<polygon fill="#ffffff" stroke="black" points="689.342,-297 555.342,-297 555.342,-261 689.342,-261 689.342,-297"/>
<text text-anchor="middle" x="622.342" y="-275.3" font-family="Times New Roman,serif" font-size="14.00">ER Sepsis Triage (1)</text>
</g>
<!-- &#45;8305476247514553090&#45;&gt;3296544575651183754 -->
<g id="edge6" class="edge"><title>&#45;8305476247514553090&#45;&gt;3296544575651183754</title>
<path fill="none" stroke="black" stroke-width="1.6096" d="M622.342,-347.799C622.342,-336.163 622.342,-320.548 622.342,-307.237"/>
<polygon fill="black" stroke="black" stroke-width="1.6096" points="625.842,-307.175 622.342,-297.175 618.842,-307.175 625.842,-307.175"/>
<text text-anchor="middle" x="678.342" y="-318.8" font-family="Times New Roman,serif" font-size="14.00">905.6272730831898</text>
</g>
<!-- &#45;8429177058128869877 -->
<g id="node6" class="node"><title>&#45;8429177058128869877</title>
<polygon fill="#ffffff" stroke="black" points="534.842,-384 419.842,-384 419.842,-348 534.842,-348 534.842,-384"/>
<text text-anchor="middle" x="477.342" y="-362.3" font-family="Times New Roman,serif" font-size="14.00">IV Antibiotics (1)</text>
</g>
<!-- &#45;8429177058128869877&#45;&gt;118450489566830562 -->
<g id="edge7" class="edge"><title>&#45;8429177058128869877&#45;&gt;118450489566830562</title>
<path fill="none" stroke="black" stroke-width="1.13618" d="M477.342,-347.799C477.342,-336.163 477.342,-320.548 477.342,-307.237"/>
<polygon fill="black" stroke="black" stroke-width="1.13618" points="480.842,-307.175 477.342,-297.175 473.842,-307.175 480.842,-307.175"/>
<text text-anchor="middle" x="533.342" y="-318.8" font-family="Times New Roman,serif" font-size="14.00">488.7491364766861</text>
</g>
<!-- 6215314419735287562 -->
<g id="node7" class="node"><title>6215314419735287562</title>
<polygon fill="#ffffff" stroke="black" points="522.342,-471 432.342,-471 432.342,-435 522.342,-435 522.342,-471"/>
<text text-anchor="middle" x="477.342" y="-449.3" font-family="Times New Roman,serif" font-size="14.00">IV Liquid (1)</text>
</g>
<!-- 6215314419735287562&#45;&gt;&#45;8429177058128869877 -->
<g id="edge8" class="edge"><title>6215314419735287562&#45;&gt;&#45;8429177058128869877</title>
<path fill="none" stroke="black" stroke-width="1.15323" d="M477.342,-434.799C477.342,-423.163 477.342,-407.548 477.342,-394.237"/>
<polygon fill="black" stroke="black" stroke-width="1.15323" points="480.842,-394.175 477.342,-384.175 473.842,-394.175 480.842,-394.175"/>
<text text-anchor="middle" x="536.842" y="-405.8" font-family="Times New Roman,serif" font-size="14.00">503.76400274243576</text>
</g>
<!-- &#45;5670009864185339888&#45;&gt;4941769122289558835 -->
<g id="edge9" class="edge"><title>&#45;5670009864185339888&#45;&gt;4941769122289558835</title>
<path fill="none" stroke="black" stroke-width="1.04026" d="M88.8641,-123.224C104.183,-135.8 124.013,-151.419 133.342,-156 162.132,-170.139 197.331,-179.077 224.284,-184.379"/>
<polygon fill="black" stroke="black" stroke-width="1.04026" points="223.706,-187.832 234.18,-186.236 224.997,-180.952 223.706,-187.832"/>
<text text-anchor="middle" x="192.842" y="-144.8" font-family="Times New Roman,serif" font-size="14.00">404.27969809861673</text>
</g>
<!-- &#45;5670009864185339888&#45;&gt;6570115252564267433 -->
<g id="edge10" class="edge"><title>&#45;5670009864185339888&#45;&gt;6570115252564267433</title>
<path fill="none" stroke="black" stroke-width="1.21047" d="M23.6997,-86.8871C7.03,-77.9931 -5.5076,-66.4011 5.34154,-54 30.789,-24.9123 136.465,-18.9795 205.298,-18.3044"/>
<polygon fill="black" stroke="black" stroke-width="1.21047" points="205.614,-21.8026 215.592,-18.2395 205.57,-14.8027 205.614,-21.8026"/>
<text text-anchor="middle" x="61.3415" y="-57.8" font-family="Times New Roman,serif" font-size="14.00">554.1627676632359</text>
</g>
<!-- 6570115252564267433&#45;&gt;4941769122289558835 -->
<g id="edge11" class="edge"><title>6570115252564267433&#45;&gt;4941769122289558835</title>
<path fill="none" stroke="black" stroke-width="2.6" d="M315.098,-36.1243C338.025,-46.9188 363.168,-63.3696 376.342,-87 384.132,-100.975 384.132,-109.025 376.342,-123 361.769,-149.141 332.546,-166.496 307.882,-177.127"/>
<polygon fill="black" stroke="black" stroke-width="2.6" points="306.288,-173.997 298.346,-181.01 308.927,-180.48 306.288,-173.997"/>
<text text-anchor="middle" x="438.342" y="-101.3" font-family="Times New Roman,serif" font-size="14.00">1777.752930592187</text>
</g>
<!-- 6570115252564267433&#45;&gt;&#45;5670009864185339888 -->
<g id="edge12" class="edge"><title>6570115252564267433&#45;&gt;&#45;5670009864185339888</title>
<path fill="none" stroke="black" stroke-width="1.07257" d="M215.591,-28.9847C192.044,-34.6426 164.078,-42.8554 140.342,-54 135.873,-56.0983 117.434,-68.9166 100.337,-81.0478"/>
<polygon fill="black" stroke="black" stroke-width="1.07257" points="98.2354,-78.2475 92.1183,-86.898 102.295,-83.9502 98.2354,-78.2475"/>
<text text-anchor="middle" x="196.342" y="-57.8" font-family="Times New Roman,serif" font-size="14.00">432.7327842326454</text>
</g>
<!-- 6570115252564267433&#45;&gt;6570115252564267433 -->
<g id="edge13" class="edge"><title>6570115252564267433&#45;&gt;6570115252564267433</title>
<path fill="none" stroke="black" stroke-width="1.10505" d="M317.125,-25.5746C327.449,-24.7495 334.842,-22.2246 334.842,-18 334.842,-15.3596 331.954,-13.3832 327.268,-12.0707"/>
<polygon fill="black" stroke="black" stroke-width="1.10505" points="327.557,-8.57199 317.125,-10.4254 326.436,-15.4817 327.557,-8.57199"/>
<text text-anchor="middle" x="390.842" y="-14.3" font-family="Times New Roman,serif" font-size="14.00">461.3378591385023</text>
</g>
</g>
</svg>
