<?xml version="1.0" encoding="UTF-8" standalone="no"?>
<!DOCTYPE svg PUBLIC "-//W3C//DTD SVG 1.1//EN"
 "http://www.w3.org/Graphics/SVG/1.1/DTD/svg11.dtd">
<!-- Generated by graphviz version 2.38.0 (20140413.2041)
 -->
<!-- Title: %3 Pages: 1 -->
<svg width="740pt" height="479pt"
 viewBox="0.00 0.00 740.30 479.00" xmlns="http://www.w3.org/2000/svg" xmlns:xlink="http://www.w3.org/1999/xlink">
<g id="graph0" class="graph" transform="scale(1 1) rotate(0) translate(4 475)">
<title>%3</title>
<!-- &#45;6760735685208204671 -->
<g id="node1" class="node"><title>&#45;6760735685208204671</title>
<polygon fill="#ffffff" stroke="black" points="534.801,-297 415.801,-297 415.801,-261 534.801,-261 534.801,-297"/>
<text text-anchor="middle" x="475.301" y="-275.3" font-family="Times New Roman,serif" font-size="14.00">Admission NC (1)</text>
</g>
<!-- 7850561497370058999 -->
<g id="node2" class="node"><title>7850561497370058999</title>
<polygon fill="#ffffff" stroke="black" points="291.301,-210 227.301,-210 227.301,-174 291.301,-174 291.301,-210"/>
<text text-anchor="middle" x="259.301" y="-188.3" font-family="Times New Roman,serif" font-size="14.00">CRP (1)</text>
</g>
<!-- &#45;6760735685208204671&#45;&gt;7850561497370058999 -->
<g id="edge1" class="edge"><title>&#45;6760735685208204671&#45;&gt;7850561497370058999</title>
<path fill="none" stroke="black" d="M431.85,-260.901C393.739,-245.904 338.69,-224.241 301.084,-209.442"/>
<polygon fill="black" stroke="black" points="302.032,-206.054 291.445,-205.649 299.468,-212.568 302.032,-206.054"/>
<text text-anchor="middle" x="436.301" y="-231.8" font-family="Times New Roman,serif" font-size="14.00">368.9236780700818</text>
</g>
<!-- 6179918396602481755 -->
<g id="node9" class="node"><title>6179918396602481755</title>
<polygon fill="#ffffff" stroke="black" points="309.801,-36 208.801,-36 208.801,-0 309.801,-0 309.801,-36"/>
<text text-anchor="middle" x="259.301" y="-14.3" font-family="Times New Roman,serif" font-size="14.00">Leucocytes (1)</text>
</g>
<!-- &#45;6760735685208204671&#45;&gt;6179918396602481755 -->
<g id="edge2" class="edge"><title>&#45;6760735685208204671&#45;&gt;6179918396602481755</title>
<path fill="none" stroke="black" stroke-width="1.04435" d="M488.16,-260.68C491.464,-255.287 494.573,-249.139 496.301,-243 515.087,-176.259 539.054,-142.353 497.301,-87 475.93,-58.6683 383.068,-38.5895 319.859,-27.9074"/>
<polygon fill="black" stroke="black" stroke-width="1.04435" points="320.421,-24.453 309.984,-26.2739 319.279,-31.3591 320.421,-24.453"/>
<text text-anchor="middle" x="577.301" y="-144.8" font-family="Times New Roman,serif" font-size="14.00">407.9887932640325</text>
</g>
<!-- 1152587832168206417 -->
<g id="node8" class="node"><title>1152587832168206417</title>
<polygon fill="#ffffff" stroke="black" points="116.301,-123 18.3008,-123 18.3008,-87 116.301,-87 116.301,-123"/>
<text text-anchor="middle" x="67.3008" y="-101.3" font-family="Times New Roman,serif" font-size="14.00">LacticAcid (1)</text>
</g>
<!-- 7850561497370058999&#45;&gt;1152587832168206417 -->
<g id="edge3" class="edge"><title>7850561497370058999&#45;&gt;1152587832168206417</title>
<path fill="none" stroke="black" stroke-width="1.29534" d="M227.167,-191.581C165.222,-191.94 32.864,-188.751 4.30084,-156 -4.49847,-145.91 2.12943,-136.365 13.8634,-128.372"/>
<polygon fill="black" stroke="black" stroke-width="1.29534" points="15.8922,-131.237 22.6758,-123.098 12.2976,-125.23 15.8922,-131.237"/>
<text text-anchor="middle" x="57.3008" y="-144.8" font-family="Times New Roman,serif" font-size="14.00">629.054782848659</text>
</g>
<!-- 7850561497370058999&#45;&gt;6179918396602481755 -->
<g id="edge4" class="edge"><title>7850561497370058999&#45;&gt;6179918396602481755</title>
<path fill="none" stroke="black" stroke-width="2.22171" d="M259.301,-173.879C259.301,-144.001 259.301,-82.1129 259.301,-46.2736"/>
<polygon fill="black" stroke="black" stroke-width="2.22171" points="262.801,-46.0516 259.301,-36.0516 255.801,-46.0516 262.801,-46.0516"/>
<text text-anchor="middle" x="315.301" y="-101.3" font-family="Times New Roman,serif" font-size="14.00">1444.976191278813</text>
</g>
<!-- &#45;2410219256766748193 -->
<g id="node3" class="node"><title>&#45;2410219256766748193</title>
<polygon fill="#ffffff" stroke="black" points="682.801,-471 557.801,-471 557.801,-435 682.801,-435 682.801,-471"/>
<text text-anchor="middle" x="620.301" y="-449.3" font-family="Times New Roman,serif" font-size="14.00">ER Registration (1)</text>
</g>
<!-- &#45;2872325205858232948 -->
<g id="node5" class="node"><title>&#45;2872325205858232948</title>
<polygon fill="#ffffff" stroke="black" points="666.801,-384 573.801,-384 573.801,-348 666.801,-348 666.801,-384"/>
<text text-anchor="middle" x="620.301" y="-362.3" font-family="Times New Roman,serif" font-size="14.00">ER Triage (1)</text>
</g>
<!-- &#45;2410219256766748193&#45;&gt;&#45;2872325205858232948 -->
<g id="edge5" class="edge"><title>&#45;2410219256766748193&#45;&gt;&#45;2872325205858232948</title>
<path fill="none" stroke="black" stroke-width="1.68365" d="M620.301,-434.799C620.301,-423.163 620.301,-407.548 620.301,-394.237"/>
<polygon fill="black" stroke="black" stroke-width="1.68365" points="623.801,-394.175 620.301,-384.175 616.801,-394.175 623.801,-394.175"/>
<text text-anchor="middle" x="676.301" y="-405.8" font-family="Times New Roman,serif" font-size="14.00">971.0609277549064</text>
</g>
<!-- 8892003065059452103 -->
<g id="node4" class="node"><title>8892003065059452103</title>
<polygon fill="#ffffff" stroke="black" points="687.301,-297 553.301,-297 553.301,-261 687.301,-261 687.301,-297"/>
<text text-anchor="middle" x="620.301" y="-275.3" font-family="Times New Roman,serif" font-size="14.00">ER Sepsis Triage (1)</text>
</g>
<!-- &#45;2872325205858232948&#45;&gt;8892003065059452103 -->
<g id="edge6" class="edge"><title>&#45;2872325205858232948&#45;&gt;8892003065059452103</title>
<path fill="none" stroke="black" stroke-width="1.60843" d="M620.301,-347.799C620.301,-336.163 620.301,-320.548 620.301,-307.237"/>
<polygon fill="black" stroke="black" stroke-width="1.60843" points="623.801,-307.175 620.301,-297.175 616.801,-307.175 623.801,-307.175"/>
<text text-anchor="middle" x="676.301" y="-318.8" font-family="Times New Roman,serif" font-size="14.00">904.8139523053518</text>
</g>
<!-- &#45;6564841300794043563 -->
<g id="node6" class="node"><title>&#45;6564841300794043563</title>
<polygon fill="#ffffff" stroke="black" points="532.801,-384 417.801,-384 417.801,-348 532.801,-348 532.801,-384"/>
<text text-anchor="middle" x="475.301" y="-362.3" font-family="Times New Roman,serif" font-size="14.00">IV Antibiotics (1)</text>
</g>
<!-- &#45;6564841300794043563&#45;&gt;&#45;6760735685208204671 -->
<g id="edge7" class="edge"><title>&#45;6564841300794043563&#45;&gt;&#45;6760735685208204671</title>
<path fill="none" stroke="black" stroke-width="1.13638" d="M475.301,-347.799C475.301,-336.163 475.301,-320.548 475.301,-307.237"/>
<polygon fill="black" stroke="black" stroke-width="1.13638" points="478.801,-307.175 475.301,-297.175 471.801,-307.175 478.801,-307.175"/>
<text text-anchor="middle" x="531.301" y="-318.8" font-family="Times New Roman,serif" font-size="14.00">489.0451011225306</text>
</g>
<!-- &#45;1926219633770359302 -->
<g id="node7" class="node"><title>&#45;1926219633770359302</title>
<polygon fill="#ffffff" stroke="black" points="520.301,-471 430.301,-471 430.301,-435 520.301,-435 520.301,-471"/>
<text text-anchor="middle" x="475.301" y="-449.3" font-family="Times New Roman,serif" font-size="14.00">IV Liquid (1)</text>
</g>
<!-- &#45;1926219633770359302&#45;&gt;&#45;6564841300794043563 -->
<g id="edge8" class="edge"><title>&#45;1926219633770359302&#45;&gt;&#45;6564841300794043563</title>
<path fill="none" stroke="black" stroke-width="1.14948" d="M475.301,-434.799C475.301,-423.163 475.301,-407.548 475.301,-394.237"/>
<polygon fill="black" stroke="black" stroke-width="1.14948" points="478.801,-394.175 475.301,-384.175 471.801,-394.175 478.801,-394.175"/>
<text text-anchor="middle" x="528.301" y="-405.8" font-family="Times New Roman,serif" font-size="14.00">500.580405655891</text>
</g>
<!-- 1152587832168206417&#45;&gt;7850561497370058999 -->
<g id="edge9" class="edge"><title>1152587832168206417&#45;&gt;7850561497370058999</title>
<path fill="none" stroke="black" stroke-width="1.03955" d="M88.1766,-123.183C103.752,-135.736 123.896,-151.345 133.301,-156 159.857,-169.145 192.086,-177.984 217.301,-183.491"/>
<polygon fill="black" stroke="black" stroke-width="1.03955" points="216.785,-186.959 227.29,-185.58 218.218,-180.107 216.785,-186.959"/>
<text text-anchor="middle" x="189.301" y="-144.8" font-family="Times New Roman,serif" font-size="14.00">403.7616358386649</text>
</g>
<!-- 1152587832168206417&#45;&gt;6179918396602481755 -->
<g id="edge10" class="edge"><title>1152587832168206417&#45;&gt;6179918396602481755</title>
<path fill="none" stroke="black" stroke-width="1.22304" d="M22.6758,-86.9018C6.01003,-78.0112 -6.52907,-66.4179 4.30084,-54 28.99,-25.6907 131.227,-19.4691 198.511,-18.5336"/>
<polygon fill="black" stroke="black" stroke-width="1.22304" points="198.618,-22.0328 208.581,-18.4291 198.545,-15.0332 198.618,-22.0328"/>
<text text-anchor="middle" x="57.3008" y="-57.8" font-family="Times New Roman,serif" font-size="14.00">565.375327638181</text>
</g>
<!-- 6179918396602481755&#45;&gt;7850561497370058999 -->
<g id="edge11" class="edge"><title>6179918396602481755&#45;&gt;7850561497370058999</title>
<path fill="none" stroke="black" stroke-width="2.6" d="M305.08,-36.0649C346.124,-54.2127 396.815,-85.4502 375.301,-123 359.384,-150.781 327.225,-168.313 300.797,-178.604"/>
<polygon fill="black" stroke="black" stroke-width="2.6" points="299.539,-175.337 291.36,-182.073 301.954,-181.907 299.539,-175.337"/>
<text text-anchor="middle" x="437.301" y="-101.3" font-family="Times New Roman,serif" font-size="14.00">1778.160595472885</text>
</g>
<!-- 6179918396602481755&#45;&gt;1152587832168206417 -->
<g id="edge12" class="edge"><title>6179918396602481755&#45;&gt;1152587832168206417</title>
<path fill="none" stroke="black" stroke-width="1.075" d="M208.644,-28.4714C184.987,-34.0352 156.903,-42.3168 133.301,-54 125.439,-57.8916 110.073,-69.4369 96.1438,-80.4537"/>
<polygon fill="black" stroke="black" stroke-width="1.075" points="93.8059,-77.8416 88.1766,-86.8172 98.1745,-83.3111 93.8059,-77.8416"/>
<text text-anchor="middle" x="189.301" y="-57.8" font-family="Times New Roman,serif" font-size="14.00">434.9791552021348</text>
</g>
<!-- 6179918396602481755&#45;&gt;6179918396602481755 -->
<g id="edge13" class="edge"><title>6179918396602481755&#45;&gt;6179918396602481755</title>
<path fill="none" stroke="black" stroke-width="1.10084" d="M310.085,-25.5746C320.408,-24.7495 327.801,-22.2246 327.801,-18 327.801,-15.3596 324.913,-13.3832 320.227,-12.0707"/>
<polygon fill="black" stroke="black" stroke-width="1.10084" points="320.516,-8.57199 310.085,-10.4254 319.395,-15.4817 320.516,-8.57199"/>
<text text-anchor="middle" x="387.301" y="-14.3" font-family="Times New Roman,serif" font-size="14.00">457.73841779818775</text>
</g>
</g>
</svg>
