<?xml version="1.0" encoding="UTF-8" standalone="no"?>
<!DOCTYPE svg PUBLIC "-//W3C//DTD SVG 1.1//EN"
 "http://www.w3.org/Graphics/SVG/1.1/DTD/svg11.dtd">
<!-- Generated by graphviz version 2.38.0 (20140413.2041)
 -->
<!-- Title: %3 Pages: 1 -->
<svg width="764pt" height="479pt"
 viewBox="0.00 0.00 763.61 479.00" xmlns="http://www.w3.org/2000/svg" xmlns:xlink="http://www.w3.org/1999/xlink">
<g id="graph0" class="graph" transform="scale(1 1) rotate(0) translate(4 475)">
<title>%3</title>
<!-- 9118780525858573852 -->
<g id="node1" class="node"><title>9118780525858573852</title>
<polygon fill="#ffffff" stroke="black" points="558.113,-297 439.113,-297 439.113,-261 558.113,-261 558.113,-297"/>
<text text-anchor="middle" x="498.613" y="-275.3" font-family="Times New Roman,serif" font-size="14.00">Admission NC (1)</text>
</g>
<!-- 8794229938327540079 -->
<g id="node2" class="node"><title>8794229938327540079</title>
<polygon fill="#ffffff" stroke="black" points="304.613,-210 240.613,-210 240.613,-174 304.613,-174 304.613,-210"/>
<text text-anchor="middle" x="272.613" y="-188.3" font-family="Times New Roman,serif" font-size="14.00">CRP (1)</text>
</g>
<!-- 9118780525858573852&#45;&gt;8794229938327540079 -->
<g id="edge1" class="edge"><title>9118780525858573852&#45;&gt;8794229938327540079</title>
<path fill="none" stroke="black" d="M453.151,-260.901C412.63,-245.661 353.809,-223.538 314.436,-208.73"/>
<polygon fill="black" stroke="black" points="315.459,-205.375 304.867,-205.131 312.995,-211.927 315.459,-205.375"/>
<text text-anchor="middle" x="459.113" y="-231.8" font-family="Times New Roman,serif" font-size="14.00">363.03773994357005</text>
</g>
<!-- &#45;4990305070490083274 -->
<g id="node9" class="node"><title>&#45;4990305070490083274</title>
<polygon fill="#ffffff" stroke="black" points="323.113,-36 222.113,-36 222.113,-0 323.113,-0 323.113,-36"/>
<text text-anchor="middle" x="272.613" y="-14.3" font-family="Times New Roman,serif" font-size="14.00">Leucocytes (1)</text>
</g>
<!-- 9118780525858573852&#45;&gt;&#45;4990305070490083274 -->
<g id="edge2" class="edge"><title>9118780525858573852&#45;&gt;&#45;4990305070490083274</title>
<path fill="none" stroke="black" stroke-width="1.04851" d="M513.257,-260.905C517.033,-255.518 520.597,-249.317 522.613,-243 543.691,-176.942 566.776,-142.048 524.613,-87 501.484,-56.8023 400.316,-36.9672 333.41,-26.8902"/>
<polygon fill="black" stroke="black" stroke-width="1.04851" points="333.795,-23.4093 323.392,-25.4153 332.775,-30.3346 333.795,-23.4093"/>
<text text-anchor="middle" x="604.613" y="-144.8" font-family="Times New Roman,serif" font-size="14.00">406.0060074288423</text>
</g>
<!-- 5659693541288529527 -->
<g id="node8" class="node"><title>5659693541288529527</title>
<polygon fill="#ffffff" stroke="black" points="129.613,-123 31.6131,-123 31.6131,-87 129.613,-87 129.613,-123"/>
<text text-anchor="middle" x="80.6131" y="-101.3" font-family="Times New Roman,serif" font-size="14.00">LacticAcid (1)</text>
</g>
<!-- 8794229938327540079&#45;&gt;5659693541288529527 -->
<g id="edge3" class="edge"><title>8794229938327540079&#45;&gt;5659693541288529527</title>
<path fill="none" stroke="black" stroke-width="1.29259" d="M240.348,-191.828C175.931,-192.715 34.9507,-190.557 4.61312,-156 -6.56695,-143.265 4.97556,-132.422 22.1573,-124.122"/>
<polygon fill="black" stroke="black" stroke-width="1.29259" points="23.8,-127.224 31.5658,-120.016 21.0005,-120.808 23.8,-127.224"/>
<text text-anchor="middle" x="60.6131" y="-144.8" font-family="Times New Roman,serif" font-size="14.00">622.2215344126228</text>
</g>
<!-- 8794229938327540079&#45;&gt;&#45;4990305070490083274 -->
<g id="edge4" class="edge"><title>8794229938327540079&#45;&gt;&#45;4990305070490083274</title>
<path fill="none" stroke="black" stroke-width="2.22944" d="M272.613,-173.879C272.613,-144.001 272.613,-82.1129 272.613,-46.2736"/>
<polygon fill="black" stroke="black" stroke-width="2.22944" points="276.113,-46.0516 272.613,-36.0516 269.113,-46.0516 276.113,-46.0516"/>
<text text-anchor="middle" x="332.113" y="-101.3" font-family="Times New Roman,serif" font-size="14.00">1452.1060665179757</text>
</g>
<!-- 4941573644585563234 -->
<g id="node3" class="node"><title>4941573644585563234</title>
<polygon fill="#ffffff" stroke="black" points="706.113,-471 581.113,-471 581.113,-435 706.113,-435 706.113,-471"/>
<text text-anchor="middle" x="643.613" y="-449.3" font-family="Times New Roman,serif" font-size="14.00">ER Registration (1)</text>
</g>
<!-- 7781181950460006610 -->
<g id="node5" class="node"><title>7781181950460006610</title>
<polygon fill="#ffffff" stroke="black" points="690.113,-384 597.113,-384 597.113,-348 690.113,-348 690.113,-384"/>
<text text-anchor="middle" x="643.613" y="-362.3" font-family="Times New Roman,serif" font-size="14.00">ER Triage (1)</text>
</g>
<!-- 4941573644585563234&#45;&gt;7781181950460006610 -->
<g id="edge5" class="edge"><title>4941573644585563234&#45;&gt;7781181950460006610</title>
<path fill="none" stroke="black" stroke-width="1.68679" d="M643.613,-434.799C643.613,-423.163 643.613,-407.548 643.613,-394.237"/>
<polygon fill="black" stroke="black" stroke-width="1.68679" points="647.113,-394.175 643.613,-384.175 640.113,-394.175 647.113,-394.175"/>
<text text-anchor="middle" x="699.613" y="-405.8" font-family="Times New Roman,serif" font-size="14.00">971.4120298998413</text>
</g>
<!-- &#45;1916228938975785919 -->
<g id="node4" class="node"><title>&#45;1916228938975785919</title>
<polygon fill="#ffffff" stroke="black" points="710.613,-297 576.613,-297 576.613,-261 710.613,-261 710.613,-297"/>
<text text-anchor="middle" x="643.613" y="-275.3" font-family="Times New Roman,serif" font-size="14.00">ER Sepsis Triage (1)</text>
</g>
<!-- 7781181950460006610&#45;&gt;&#45;1916228938975785919 -->
<g id="edge6" class="edge"><title>7781181950460006610&#45;&gt;&#45;1916228938975785919</title>
<path fill="none" stroke="black" stroke-width="1.63942" d="M643.613,-347.799C643.613,-336.163 643.613,-320.548 643.613,-307.237"/>
<polygon fill="black" stroke="black" stroke-width="1.63942" points="647.113,-307.175 643.613,-297.175 640.113,-307.175 647.113,-307.175"/>
<text text-anchor="middle" x="699.613" y="-318.8" font-family="Times New Roman,serif" font-size="14.00">929.4514405355794</text>
</g>
<!-- 1341266047991071662 -->
<g id="node6" class="node"><title>1341266047991071662</title>
<polygon fill="#ffffff" stroke="black" points="556.113,-384 441.113,-384 441.113,-348 556.113,-348 556.113,-384"/>
<text text-anchor="middle" x="498.613" y="-362.3" font-family="Times New Roman,serif" font-size="14.00">IV Antibiotics (1)</text>
</g>
<!-- 1341266047991071662&#45;&gt;9118780525858573852 -->
<g id="edge7" class="edge"><title>1341266047991071662&#45;&gt;9118780525858573852</title>
<path fill="none" stroke="black" stroke-width="1.14965" d="M498.613,-347.799C498.613,-336.163 498.613,-320.548 498.613,-307.237"/>
<polygon fill="black" stroke="black" stroke-width="1.14965" points="502.113,-307.175 498.613,-297.175 495.113,-307.175 502.113,-307.175"/>
<text text-anchor="middle" x="554.613" y="-318.8" font-family="Times New Roman,serif" font-size="14.00">495.5993412516081</text>
</g>
<!-- 1513237216211266658 -->
<g id="node7" class="node"><title>1513237216211266658</title>
<polygon fill="#ffffff" stroke="black" points="543.613,-471 453.613,-471 453.613,-435 543.613,-435 543.613,-471"/>
<text text-anchor="middle" x="498.613" y="-449.3" font-family="Times New Roman,serif" font-size="14.00">IV Liquid (1)</text>
</g>
<!-- 1513237216211266658&#45;&gt;1341266047991071662 -->
<g id="edge8" class="edge"><title>1513237216211266658&#45;&gt;1341266047991071662</title>
<path fill="none" stroke="black" stroke-width="1.15521" d="M498.613,-434.799C498.613,-423.163 498.613,-407.548 498.613,-394.237"/>
<polygon fill="black" stroke="black" stroke-width="1.15521" points="502.113,-394.175 498.613,-384.175 495.113,-394.175 502.113,-394.175"/>
<text text-anchor="middle" x="558.113" y="-405.8" font-family="Times New Roman,serif" font-size="14.00">500.53062462936964</text>
</g>
<!-- 5659693541288529527&#45;&gt;8794229938327540079 -->
<g id="edge9" class="edge"><title>5659693541288529527&#45;&gt;8794229938327540079</title>
<path fill="none" stroke="black" stroke-width="1.04699" d="M96.6756,-123.099C107.779,-133.981 123.418,-147.565 139.613,-156 168.155,-170.865 203.509,-179.779 230.591,-184.888"/>
<polygon fill="black" stroke="black" stroke-width="1.04699" points="230.074,-188.351 240.534,-186.665 231.305,-181.46 230.074,-188.351"/>
<text text-anchor="middle" x="199.113" y="-144.8" font-family="Times New Roman,serif" font-size="14.00">404.66581902261396</text>
</g>
<!-- 5659693541288529527&#45;&gt;&#45;4990305070490083274 -->
<g id="edge10" class="edge"><title>5659693541288529527&#45;&gt;&#45;4990305070490083274</title>
<path fill="none" stroke="black" stroke-width="1.22104" d="M41.0598,-86.9801C25.3262,-77.8487 13.1636,-66.0211 23.6131,-54 47.5019,-26.5185 145.997,-19.9911 211.717,-18.7782"/>
<polygon fill="black" stroke="black" stroke-width="1.22104" points="212.02,-22.2742 221.967,-18.6267 211.917,-15.2749 212.02,-22.2742"/>
<text text-anchor="middle" x="76.6131" y="-57.8" font-family="Times New Roman,serif" font-size="14.00">558.839335592461</text>
</g>
<!-- &#45;4990305070490083274&#45;&gt;8794229938327540079 -->
<g id="edge11" class="edge"><title>&#45;4990305070490083274&#45;&gt;8794229938327540079</title>
<path fill="none" stroke="black" stroke-width="2.6" d="M322.346,-36.1523C365.615,-54.0524 418.13,-84.8222 395.613,-123 378.204,-152.517 342.878,-170.113 314.533,-179.985"/>
<polygon fill="black" stroke="black" stroke-width="2.6" points="313.252,-176.721 304.839,-183.161 315.432,-183.373 313.252,-176.721"/>
<text text-anchor="middle" x="461.113" y="-101.3" font-family="Times New Roman,serif" font-size="14.00">1780.3536674707443</text>
</g>
<!-- &#45;4990305070490083274&#45;&gt;5659693541288529527 -->
<g id="edge12" class="edge"><title>&#45;4990305070490083274&#45;&gt;5659693541288529527</title>
<path fill="none" stroke="black" stroke-width="1.08305" d="M221.948,-29.9012C200.029,-35.5924 174.45,-43.5757 152.613,-54 148.158,-56.127 129.719,-68.9448 112.618,-81.0687"/>
<polygon fill="black" stroke="black" stroke-width="1.08305" points="110.519,-78.267 104.398,-86.9149 114.576,-83.9715 110.519,-78.267"/>
<text text-anchor="middle" x="205.613" y="-57.8" font-family="Times New Roman,serif" font-size="14.00">436.609430200196</text>
</g>
<!-- &#45;4990305070490083274&#45;&gt;&#45;4990305070490083274 -->
<g id="edge13" class="edge"><title>&#45;4990305070490083274&#45;&gt;&#45;4990305070490083274</title>
<path fill="none" stroke="black" stroke-width="1.10632" d="M323.397,-25.5746C333.721,-24.7495 341.113,-22.2246 341.113,-18 341.113,-15.3596 338.225,-13.3832 333.539,-12.0707"/>
<polygon fill="black" stroke="black" stroke-width="1.10632" points="333.828,-8.57199 323.397,-10.4254 332.707,-15.4817 333.828,-8.57199"/>
<text text-anchor="middle" x="400.613" y="-14.3" font-family="Times New Roman,serif" font-size="14.00">457.21894802260937</text>
</g>
</g>
</svg>
