<?xml version="1.0" encoding="UTF-8" standalone="no"?>
<!DOCTYPE svg PUBLIC "-//W3C//DTD SVG 1.1//EN"
 "http://www.w3.org/Graphics/SVG/1.1/DTD/svg11.dtd">
<!-- Generated by graphviz version 2.38.0 (20140413.2041)
 -->
<!-- Title: %3 Pages: 1 -->
<svg width="757pt" height="479pt"
 viewBox="0.00 0.00 757.16 479.00" xmlns="http://www.w3.org/2000/svg" xmlns:xlink="http://www.w3.org/1999/xlink">
<g id="graph0" class="graph" transform="scale(1 1) rotate(0) translate(4 475)">
<title>%3</title>
<!-- 3703627156728642698 -->
<g id="node1" class="node"><title>3703627156728642698</title>
<polygon fill="#ffffff" stroke="black" points="551.662,-297 432.662,-297 432.662,-261 551.662,-261 551.662,-297"/>
<text text-anchor="middle" x="492.162" y="-275.3" font-family="Times New Roman,serif" font-size="14.00">Admission NC (1)</text>
</g>
<!-- 3579705282704473787 -->
<g id="node2" class="node"><title>3579705282704473787</title>
<polygon fill="#ffffff" stroke="black" points="298.162,-210 234.162,-210 234.162,-174 298.162,-174 298.162,-210"/>
<text text-anchor="middle" x="266.162" y="-188.3" font-family="Times New Roman,serif" font-size="14.00">CRP (1)</text>
</g>
<!-- 3703627156728642698&#45;&gt;3579705282704473787 -->
<g id="edge1" class="edge"><title>3703627156728642698&#45;&gt;3579705282704473787</title>
<path fill="none" stroke="black" d="M446.699,-260.901C406.179,-245.661 347.358,-223.538 307.985,-208.73"/>
<polygon fill="black" stroke="black" points="309.008,-205.375 298.416,-205.131 306.544,-211.927 309.008,-205.375"/>
<text text-anchor="middle" x="452.662" y="-231.8" font-family="Times New Roman,serif" font-size="14.00">368.89634317930523</text>
</g>
<!-- &#45;755878416217562554 -->
<g id="node9" class="node"><title>&#45;755878416217562554</title>
<polygon fill="#ffffff" stroke="black" points="316.662,-36 215.662,-36 215.662,-0 316.662,-0 316.662,-36"/>
<text text-anchor="middle" x="266.162" y="-14.3" font-family="Times New Roman,serif" font-size="14.00">Leucocytes (1)</text>
</g>
<!-- 3703627156728642698&#45;&gt;&#45;755878416217562554 -->
<g id="edge2" class="edge"><title>3703627156728642698&#45;&gt;&#45;755878416217562554</title>
<path fill="none" stroke="black" stroke-width="1.04472" d="M506.806,-260.905C510.582,-255.518 514.146,-249.317 516.162,-243 537.24,-176.942 560.324,-142.048 518.162,-87 495.033,-56.8023 393.865,-36.9672 326.959,-26.8902"/>
<polygon fill="black" stroke="black" stroke-width="1.04472" points="327.344,-23.4093 316.941,-25.4153 326.324,-30.3346 327.344,-23.4093"/>
<text text-anchor="middle" x="598.162" y="-144.8" font-family="Times New Roman,serif" font-size="14.00">408.2782917626591</text>
</g>
<!-- 8066172473611450852 -->
<g id="node8" class="node"><title>8066172473611450852</title>
<polygon fill="#ffffff" stroke="black" points="117.162,-123 19.1621,-123 19.1621,-87 117.162,-87 117.162,-123"/>
<text text-anchor="middle" x="68.1621" y="-101.3" font-family="Times New Roman,serif" font-size="14.00">LacticAcid (1)</text>
</g>
<!-- 3579705282704473787&#45;&gt;8066172473611450852 -->
<g id="edge3" class="edge"><title>3579705282704473787&#45;&gt;8066172473611450852</title>
<path fill="none" stroke="black" stroke-width="1.29601" d="M233.766,-191.7C170.585,-192.296 34.5122,-189.549 5.16208,-156 -3.65285,-145.924 2.97113,-136.382 14.7063,-128.388"/>
<polygon fill="black" stroke="black" stroke-width="1.29601" points="16.737,-131.252 23.5203,-123.113 13.1422,-125.245 16.737,-131.252"/>
<text text-anchor="middle" x="61.1621" y="-144.8" font-family="Times New Roman,serif" font-size="14.00">629.5868806452302</text>
</g>
<!-- 3579705282704473787&#45;&gt;&#45;755878416217562554 -->
<g id="edge4" class="edge"><title>3579705282704473787&#45;&gt;&#45;755878416217562554</title>
<path fill="none" stroke="black" stroke-width="2.22171" d="M266.162,-173.879C266.162,-144.001 266.162,-82.1129 266.162,-46.2736"/>
<polygon fill="black" stroke="black" stroke-width="2.22171" points="269.662,-46.0516 266.162,-36.0516 262.662,-46.0516 269.662,-46.0516"/>
<text text-anchor="middle" x="325.662" y="-101.3" font-family="Times New Roman,serif" font-size="14.00">1444.8469006139928</text>
</g>
<!-- &#45;6320656248013813873 -->
<g id="node3" class="node"><title>&#45;6320656248013813873</title>
<polygon fill="#ffffff" stroke="black" points="699.662,-471 574.662,-471 574.662,-435 699.662,-435 699.662,-471"/>
<text text-anchor="middle" x="637.162" y="-449.3" font-family="Times New Roman,serif" font-size="14.00">ER Registration (1)</text>
</g>
<!-- 2377219762996478470 -->
<g id="node5" class="node"><title>2377219762996478470</title>
<polygon fill="#ffffff" stroke="black" points="683.662,-384 590.662,-384 590.662,-348 683.662,-348 683.662,-384"/>
<text text-anchor="middle" x="637.162" y="-362.3" font-family="Times New Roman,serif" font-size="14.00">ER Triage (1)</text>
</g>
<!-- &#45;6320656248013813873&#45;&gt;2377219762996478470 -->
<g id="edge5" class="edge"><title>&#45;6320656248013813873&#45;&gt;2377219762996478470</title>
<path fill="none" stroke="black" stroke-width="1.68412" d="M637.162,-434.799C637.162,-423.163 637.162,-407.548 637.162,-394.237"/>
<polygon fill="black" stroke="black" stroke-width="1.68412" points="640.662,-394.175 637.162,-384.175 633.662,-394.175 640.662,-394.175"/>
<text text-anchor="middle" x="690.162" y="-405.8" font-family="Times New Roman,serif" font-size="14.00">971.395380809842</text>
</g>
<!-- 7430045975075819265 -->
<g id="node4" class="node"><title>7430045975075819265</title>
<polygon fill="#ffffff" stroke="black" points="704.162,-297 570.162,-297 570.162,-261 704.162,-261 704.162,-297"/>
<text text-anchor="middle" x="637.162" y="-275.3" font-family="Times New Roman,serif" font-size="14.00">ER Sepsis Triage (1)</text>
</g>
<!-- 2377219762996478470&#45;&gt;7430045975075819265 -->
<g id="edge6" class="edge"><title>2377219762996478470&#45;&gt;7430045975075819265</title>
<path fill="none" stroke="black" stroke-width="1.61548" d="M637.162,-347.799C637.162,-336.163 637.162,-320.548 637.162,-307.237"/>
<polygon fill="black" stroke="black" stroke-width="1.61548" points="640.662,-307.175 637.162,-297.175 633.662,-307.175 640.662,-307.175"/>
<text text-anchor="middle" x="693.162" y="-318.8" font-family="Times New Roman,serif" font-size="14.00">910.9497670189464</text>
</g>
<!-- &#45;5705463351445563725 -->
<g id="node6" class="node"><title>&#45;5705463351445563725</title>
<polygon fill="#ffffff" stroke="black" points="549.662,-384 434.662,-384 434.662,-348 549.662,-348 549.662,-384"/>
<text text-anchor="middle" x="492.162" y="-362.3" font-family="Times New Roman,serif" font-size="14.00">IV Antibiotics (1)</text>
</g>
<!-- &#45;5705463351445563725&#45;&gt;3703627156728642698 -->
<g id="edge7" class="edge"><title>&#45;5705463351445563725&#45;&gt;3703627156728642698</title>
<path fill="none" stroke="black" stroke-width="1.138" d="M492.162,-347.799C492.162,-336.163 492.162,-320.548 492.162,-307.237"/>
<polygon fill="black" stroke="black" stroke-width="1.138" points="495.662,-307.175 492.162,-297.175 488.662,-307.175 495.662,-307.175"/>
<text text-anchor="middle" x="548.162" y="-318.8" font-family="Times New Roman,serif" font-size="14.00">490.4285423636048</text>
</g>
<!-- &#45;3862139582344886855 -->
<g id="node7" class="node"><title>&#45;3862139582344886855</title>
<polygon fill="#ffffff" stroke="black" points="537.162,-471 447.162,-471 447.162,-435 537.162,-435 537.162,-471"/>
<text text-anchor="middle" x="492.162" y="-449.3" font-family="Times New Roman,serif" font-size="14.00">IV Liquid (1)</text>
</g>
<!-- &#45;3862139582344886855&#45;&gt;&#45;5705463351445563725 -->
<g id="edge8" class="edge"><title>&#45;3862139582344886855&#45;&gt;&#45;5705463351445563725</title>
<path fill="none" stroke="black" stroke-width="1.14967" d="M492.162,-434.799C492.162,-423.163 492.162,-407.548 492.162,-394.237"/>
<polygon fill="black" stroke="black" stroke-width="1.14967" points="495.662,-394.175 492.162,-384.175 488.662,-394.175 495.662,-394.175"/>
<text text-anchor="middle" x="548.162" y="-405.8" font-family="Times New Roman,serif" font-size="14.00">500.7111549330794</text>
</g>
<!-- 8066172473611450852&#45;&gt;3579705282704473787 -->
<g id="edge9" class="edge"><title>8066172473611450852&#45;&gt;3579705282704473787</title>
<path fill="none" stroke="black" stroke-width="1.04037" d="M91.9389,-123.102C110.846,-136.601 134.962,-153.558 140.162,-156 166.894,-168.551 198.991,-177.384 224.1,-183.036"/>
<polygon fill="black" stroke="black" stroke-width="1.04037" points="223.533,-186.495 234.047,-185.193 225.016,-179.654 223.533,-186.495"/>
<text text-anchor="middle" x="196.162" y="-144.8" font-family="Times New Roman,serif" font-size="14.00">404.4464341156108</text>
</g>
<!-- 8066172473611450852&#45;&gt;&#45;755878416217562554 -->
<g id="edge10" class="edge"><title>8066172473611450852&#45;&gt;&#45;755878416217562554</title>
<path fill="none" stroke="black" stroke-width="1.22373" d="M22.8667,-86.9903C5.94535,-78.1208 -6.79619,-66.5195 4.16208,-54 29.7486,-24.7682 136.09,-18.893 205.178,-18.2661"/>
<polygon fill="black" stroke="black" stroke-width="1.22373" points="205.527,-21.7643 215.508,-18.2085 205.488,-14.7644 205.527,-21.7643"/>
<text text-anchor="middle" x="57.1621" y="-57.8" font-family="Times New Roman,serif" font-size="14.00">565.933519166376</text>
</g>
<!-- &#45;755878416217562554&#45;&gt;3579705282704473787 -->
<g id="edge11" class="edge"><title>&#45;755878416217562554&#45;&gt;3579705282704473787</title>
<path fill="none" stroke="black" stroke-width="2.6" d="M315.895,-36.1523C359.164,-54.0524 411.679,-84.8222 389.162,-123 371.753,-152.517 336.427,-170.113 308.082,-179.985"/>
<polygon fill="black" stroke="black" stroke-width="2.6" points="306.801,-176.721 298.388,-183.161 308.981,-183.373 306.801,-176.721"/>
<text text-anchor="middle" x="454.662" y="-101.3" font-family="Times New Roman,serif" font-size="14.00">1778.0065643086946</text>
</g>
<!-- &#45;755878416217562554&#45;&gt;8066172473611450852 -->
<g id="edge12" class="edge"><title>&#45;755878416217562554&#45;&gt;8066172473611450852</title>
<path fill="none" stroke="black" stroke-width="1.07354" d="M215.529,-27.3769C189.968,-32.8194 158.987,-41.3172 133.162,-54 125.364,-57.8298 110.227,-69.3723 96.5223,-80.4029"/>
<polygon fill="black" stroke="black" stroke-width="1.07354" points="94.235,-77.7517 88.6846,-86.7763 98.6514,-83.1828 94.235,-77.7517"/>
<text text-anchor="middle" x="192.662" y="-57.8" font-family="Times New Roman,serif" font-size="14.00">433.66189277282444</text>
</g>
<!-- &#45;755878416217562554&#45;&gt;&#45;755878416217562554 -->
<g id="edge13" class="edge"><title>&#45;755878416217562554&#45;&gt;&#45;755878416217562554</title>
<path fill="none" stroke="black" stroke-width="1.10163" d="M316.946,-25.5746C327.27,-24.7495 334.662,-22.2246 334.662,-18 334.662,-15.3596 331.774,-13.3832 327.088,-12.0707"/>
<polygon fill="black" stroke="black" stroke-width="1.10163" points="327.377,-8.57199 316.946,-10.4254 326.256,-15.4817 327.377,-8.57199"/>
<text text-anchor="middle" x="394.162" y="-14.3" font-family="Times New Roman,serif" font-size="14.00">458.40220359192097</text>
</g>
</g>
</svg>
