<?xml version="1.0" encoding="UTF-8" standalone="no"?>
<!DOCTYPE svg PUBLIC "-//W3C//DTD SVG 1.1//EN"
 "http://www.w3.org/Graphics/SVG/1.1/DTD/svg11.dtd">
<!-- Generated by graphviz version 2.38.0 (20140413.2041)
 -->
<!-- Title: %3 Pages: 1 -->
<svg width="756pt" height="479pt"
 viewBox="0.00 0.00 756.27 479.00" xmlns="http://www.w3.org/2000/svg" xmlns:xlink="http://www.w3.org/1999/xlink">
<g id="graph0" class="graph" transform="scale(1 1) rotate(0) translate(4 475)">
<title>%3</title>
<!-- 9118780525858573852 -->
<g id="node1" class="node"><title>9118780525858573852</title>
<polygon fill="#ffffff" stroke="black" points="550.772,-297 431.772,-297 431.772,-261 550.772,-261 550.772,-297"/>
<text text-anchor="middle" x="491.272" y="-275.3" font-family="Times New Roman,serif" font-size="14.00">Admission NC (1)</text>
</g>
<!-- 8794229938327540079 -->
<g id="node2" class="node"><title>8794229938327540079</title>
<polygon fill="#ffffff" stroke="black" points="297.272,-210 233.272,-210 233.272,-174 297.272,-174 297.272,-210"/>
<text text-anchor="middle" x="265.272" y="-188.3" font-family="Times New Roman,serif" font-size="14.00">CRP (1)</text>
</g>
<!-- 9118780525858573852&#45;&gt;8794229938327540079 -->
<g id="edge1" class="edge"><title>9118780525858573852&#45;&gt;8794229938327540079</title>
<path fill="none" stroke="black" stroke-width="1.05033" d="M445.81,-260.901C405.289,-245.661 346.468,-223.538 307.095,-208.73"/>
<polygon fill="black" stroke="black" stroke-width="1.05033" points="308.118,-205.375 297.526,-205.131 305.654,-211.927 308.118,-205.375"/>
<text text-anchor="middle" x="448.272" y="-231.8" font-family="Times New Roman,serif" font-size="14.00">422.4520682924764</text>
</g>
<!-- &#45;4990305070490083274 -->
<g id="node9" class="node"><title>&#45;4990305070490083274</title>
<polygon fill="#ffffff" stroke="black" points="315.772,-36 214.772,-36 214.772,-0 315.772,-0 315.772,-36"/>
<text text-anchor="middle" x="265.272" y="-14.3" font-family="Times New Roman,serif" font-size="14.00">Leucocytes (1)</text>
</g>
<!-- 9118780525858573852&#45;&gt;&#45;4990305070490083274 -->
<g id="edge2" class="edge"><title>9118780525858573852&#45;&gt;&#45;4990305070490083274</title>
<path fill="none" stroke="black" d="M501.021,-260.857C520.165,-224.662 557.462,-139.472 517.272,-87 494.143,-56.8023 392.975,-36.9672 326.069,-26.8902"/>
<polygon fill="black" stroke="black" points="326.454,-23.4093 316.051,-25.4153 325.434,-30.3346 326.454,-23.4093"/>
<text text-anchor="middle" x="591.272" y="-144.8" font-family="Times New Roman,serif" font-size="14.00">385.2031216677552</text>
</g>
<!-- 5659693541288529527 -->
<g id="node8" class="node"><title>5659693541288529527</title>
<polygon fill="#ffffff" stroke="black" points="122.272,-123 24.2722,-123 24.2722,-87 122.272,-87 122.272,-123"/>
<text text-anchor="middle" x="73.2722" y="-101.3" font-family="Times New Roman,serif" font-size="14.00">LacticAcid (1)</text>
</g>
<!-- 8794229938327540079&#45;&gt;5659693541288529527 -->
<g id="edge3" class="edge"><title>8794229938327540079&#45;&gt;5659693541288529527</title>
<path fill="none" stroke="black" stroke-width="1.2862" d="M233.138,-191.581C171.193,-191.94 38.8354,-188.751 10.2722,-156 1.47292,-145.91 8.10082,-136.365 19.8348,-128.372"/>
<polygon fill="black" stroke="black" stroke-width="1.2862" points="21.8636,-131.237 28.6472,-123.098 18.269,-125.23 21.8636,-131.237"/>
<text text-anchor="middle" x="66.2722" y="-144.8" font-family="Times New Roman,serif" font-size="14.00">596.9987820918532</text>
</g>
<!-- 8794229938327540079&#45;&gt;&#45;4990305070490083274 -->
<g id="edge4" class="edge"><title>8794229938327540079&#45;&gt;&#45;4990305070490083274</title>
<path fill="none" stroke="black" stroke-width="2.35928" d="M265.272,-173.879C265.272,-144.001 265.272,-82.1129 265.272,-46.2736"/>
<polygon fill="black" stroke="black" stroke-width="2.35928" points="268.772,-46.0516 265.272,-36.0516 261.772,-46.0516 268.772,-46.0516"/>
<text text-anchor="middle" x="324.772" y="-101.3" font-family="Times New Roman,serif" font-size="14.00">1391.1195465230905</text>
</g>
<!-- 4941573644585563234 -->
<g id="node3" class="node"><title>4941573644585563234</title>
<polygon fill="#ffffff" stroke="black" points="698.772,-471 573.772,-471 573.772,-435 698.772,-435 698.772,-471"/>
<text text-anchor="middle" x="636.272" y="-449.3" font-family="Times New Roman,serif" font-size="14.00">ER Registration (1)</text>
</g>
<!-- 7781181950460006610 -->
<g id="node5" class="node"><title>7781181950460006610</title>
<polygon fill="#ffffff" stroke="black" points="682.772,-384 589.772,-384 589.772,-348 682.772,-348 682.772,-384"/>
<text text-anchor="middle" x="636.272" y="-362.3" font-family="Times New Roman,serif" font-size="14.00">ER Triage (1)</text>
</g>
<!-- 4941573644585563234&#45;&gt;7781181950460006610 -->
<g id="edge5" class="edge"><title>4941573644585563234&#45;&gt;7781181950460006610</title>
<path fill="none" stroke="black" stroke-width="1.71955" d="M636.272,-434.799C636.272,-423.163 636.272,-407.548 636.272,-394.237"/>
<polygon fill="black" stroke="black" stroke-width="1.71955" points="639.772,-394.175 636.272,-384.175 632.772,-394.175 639.772,-394.175"/>
<text text-anchor="middle" x="692.272" y="-405.8" font-family="Times New Roman,serif" font-size="14.00">917.6972897290955</text>
</g>
<!-- &#45;1916228938975785919 -->
<g id="node4" class="node"><title>&#45;1916228938975785919</title>
<polygon fill="#ffffff" stroke="black" points="703.272,-297 569.272,-297 569.272,-261 703.272,-261 703.272,-297"/>
<text text-anchor="middle" x="636.272" y="-275.3" font-family="Times New Roman,serif" font-size="14.00">ER Sepsis Triage (1)</text>
</g>
<!-- 7781181950460006610&#45;&gt;&#45;1916228938975785919 -->
<g id="edge6" class="edge"><title>7781181950460006610&#45;&gt;&#45;1916228938975785919</title>
<path fill="none" stroke="black" stroke-width="1.93702" d="M636.272,-347.799C636.272,-336.163 636.272,-320.548 636.272,-307.237"/>
<polygon fill="black" stroke="black" stroke-width="1.93702" points="639.772,-307.175 636.272,-297.175 632.772,-307.175 639.772,-307.175"/>
<text text-anchor="middle" x="692.272" y="-318.8" font-family="Times New Roman,serif" font-size="14.00">1078.636667185956</text>
</g>
<!-- 1341266047991071662 -->
<g id="node6" class="node"><title>1341266047991071662</title>
<polygon fill="#ffffff" stroke="black" points="548.772,-384 433.772,-384 433.772,-348 548.772,-348 548.772,-384"/>
<text text-anchor="middle" x="491.272" y="-362.3" font-family="Times New Roman,serif" font-size="14.00">IV Antibiotics (1)</text>
</g>
<!-- 1341266047991071662&#45;&gt;9118780525858573852 -->
<g id="edge7" class="edge"><title>1341266047991071662&#45;&gt;9118780525858573852</title>
<path fill="none" stroke="black" stroke-width="1.04106" d="M491.272,-347.799C491.272,-336.163 491.272,-320.548 491.272,-307.237"/>
<polygon fill="black" stroke="black" stroke-width="1.04106" points="494.772,-307.175 491.272,-297.175 487.772,-307.175 494.772,-307.175"/>
<text text-anchor="middle" x="550.772" y="-318.8" font-family="Times New Roman,serif" font-size="14.00">415.58942499378986</text>
</g>
<!-- 1513237216211266658 -->
<g id="node7" class="node"><title>1513237216211266658</title>
<polygon fill="#ffffff" stroke="black" points="536.272,-471 446.272,-471 446.272,-435 536.272,-435 536.272,-471"/>
<text text-anchor="middle" x="491.272" y="-449.3" font-family="Times New Roman,serif" font-size="14.00">IV Liquid (1)</text>
</g>
<!-- 1513237216211266658&#45;&gt;1341266047991071662 -->
<g id="edge8" class="edge"><title>1513237216211266658&#45;&gt;1341266047991071662</title>
<path fill="none" stroke="black" stroke-width="1.2695" d="M491.272,-434.799C491.272,-423.163 491.272,-407.548 491.272,-394.237"/>
<polygon fill="black" stroke="black" stroke-width="1.2695" points="494.772,-394.175 491.272,-384.175 487.772,-394.175 494.772,-394.175"/>
<text text-anchor="middle" x="547.272" y="-405.8" font-family="Times New Roman,serif" font-size="14.00">584.6450128805534</text>
</g>
<!-- 5659693541288529527&#45;&gt;8794229938327540079 -->
<g id="edge9" class="edge"><title>5659693541288529527&#45;&gt;8794229938327540079</title>
<path fill="none" stroke="black" stroke-width="1.08186" d="M97.057,-123.085C115.969,-136.574 140.088,-153.525 145.272,-156 170.009,-167.809 199.548,-176.485 223.129,-182.245"/>
<polygon fill="black" stroke="black" stroke-width="1.08186" points="222.635,-185.725 233.171,-184.612 224.241,-178.911 222.635,-185.725"/>
<text text-anchor="middle" x="198.272" y="-144.8" font-family="Times New Roman,serif" font-size="14.00">445.785621509425</text>
</g>
<!-- 5659693541288529527&#45;&gt;&#45;4990305070490083274 -->
<g id="edge10" class="edge"><title>5659693541288529527&#45;&gt;&#45;4990305070490083274</title>
<path fill="none" stroke="black" stroke-width="1.09468" d="M24.2562,-87.3069C6.30868,-78.5904 -7.12446,-67.027 4.27222,-54 29.7197,-24.9123 135.395,-18.9795 204.229,-18.3044"/>
<polygon fill="black" stroke="black" stroke-width="1.09468" points="204.545,-21.8026 214.522,-18.2395 204.501,-14.8027 204.545,-21.8026"/>
<text text-anchor="middle" x="60.2722" y="-57.8" font-family="Times New Roman,serif" font-size="14.00">455.2697929282334</text>
</g>
<!-- &#45;4990305070490083274&#45;&gt;8794229938327540079 -->
<g id="edge11" class="edge"><title>&#45;4990305070490083274&#45;&gt;8794229938327540079</title>
<path fill="none" stroke="black" stroke-width="2.6" d="M315.005,-36.1523C358.274,-54.0524 410.789,-84.8222 388.272,-123 370.863,-152.517 335.537,-170.113 307.192,-179.985"/>
<polygon fill="black" stroke="black" stroke-width="2.6" points="305.911,-176.721 297.498,-183.161 308.091,-183.373 305.911,-176.721"/>
<text text-anchor="middle" x="453.772" y="-101.3" font-family="Times New Roman,serif" font-size="14.00">1569.2648012860068</text>
</g>
<!-- &#45;4990305070490083274&#45;&gt;5659693541288529527 -->
<g id="edge12" class="edge"><title>&#45;4990305070490083274&#45;&gt;5659693541288529527</title>
<path fill="none" stroke="black" stroke-width="1.00064" d="M214.615,-28.4714C190.958,-34.0352 162.875,-42.3168 139.272,-54 131.41,-57.8916 116.044,-69.4369 102.115,-80.4537"/>
<polygon fill="black" stroke="black" stroke-width="1.00064" points="99.7772,-77.8416 94.1479,-86.8172 104.146,-83.3111 99.7772,-77.8416"/>
<text text-anchor="middle" x="195.272" y="-57.8" font-family="Times New Roman,serif" font-size="14.00">385.6738906794118</text>
</g>
<!-- &#45;4990305070490083274&#45;&gt;&#45;4990305070490083274 -->
<g id="edge13" class="edge"><title>&#45;4990305070490083274&#45;&gt;&#45;4990305070490083274</title>
<path fill="none" stroke="black" stroke-width="1.40099" d="M316.056,-25.5746C326.38,-24.7495 333.772,-22.2246 333.772,-18 333.772,-15.3596 330.885,-13.3832 326.198,-12.0707"/>
<polygon fill="black" stroke="black" stroke-width="1.40099" points="326.488,-8.57199 316.056,-10.4254 325.367,-15.4817 326.488,-8.57199"/>
<text text-anchor="middle" x="389.772" y="-14.3" font-family="Times New Roman,serif" font-size="14.00">681.9474914289426</text>
</g>
</g>
</svg>
