<?xml version="1.0" encoding="UTF-8" standalone="no"?>
<!DOCTYPE svg PUBLIC "-//W3C//DTD SVG 1.1//EN"
 "http://www.w3.org/Graphics/SVG/1.1/DTD/svg11.dtd">
<!-- Generated by graphviz version 2.38.0 (20140413.2041)
 -->
<!-- Title: %3 Pages: 1 -->
<svg width="758pt" height="479pt"
 viewBox="0.00 0.00 758.41 479.00" xmlns="http://www.w3.org/2000/svg" xmlns:xlink="http://www.w3.org/1999/xlink">
<g id="graph0" class="graph" transform="scale(1 1) rotate(0) translate(4 475)">
<title>%3</title>
<!-- 3703627156728642698 -->
<g id="node1" class="node"><title>3703627156728642698</title>
<polygon fill="#ffffff" stroke="black" points="552.908,-297 433.908,-297 433.908,-261 552.908,-261 552.908,-297"/>
<text text-anchor="middle" x="493.408" y="-275.3" font-family="Times New Roman,serif" font-size="14.00">Admission NC (1)</text>
</g>
<!-- 3579705282704473787 -->
<g id="node2" class="node"><title>3579705282704473787</title>
<polygon fill="#ffffff" stroke="black" points="304.408,-210 240.408,-210 240.408,-174 304.408,-174 304.408,-210"/>
<text text-anchor="middle" x="272.408" y="-188.3" font-family="Times New Roman,serif" font-size="14.00">CRP (1)</text>
</g>
<!-- 3703627156728642698&#45;&gt;3579705282704473787 -->
<g id="edge1" class="edge"><title>3703627156728642698&#45;&gt;3579705282704473787</title>
<path fill="none" stroke="black" d="M448.951,-260.901C409.56,-245.751 352.482,-223.798 313.984,-208.991"/>
<polygon fill="black" stroke="black" points="315.209,-205.712 304.619,-205.389 312.696,-212.246 315.209,-205.712"/>
<text text-anchor="middle" x="452.408" y="-231.8" font-family="Times New Roman,serif" font-size="14.00">368.2529124803923</text>
</g>
<!-- &#45;755878416217562554 -->
<g id="node9" class="node"><title>&#45;755878416217562554</title>
<polygon fill="#ffffff" stroke="black" points="322.908,-36 221.908,-36 221.908,-0 322.908,-0 322.908,-36"/>
<text text-anchor="middle" x="272.408" y="-14.3" font-family="Times New Roman,serif" font-size="14.00">Leucocytes (1)</text>
</g>
<!-- 3703627156728642698&#45;&gt;&#45;755878416217562554 -->
<g id="edge2" class="edge"><title>3703627156728642698&#45;&gt;&#45;755878416217562554</title>
<path fill="none" stroke="black" stroke-width="1.04326" d="M504.725,-260.861C507.784,-255.376 510.714,-249.131 512.408,-243 530.877,-176.135 559.391,-142.222 517.408,-87 495.187,-57.7718 398.394,-37.8161 333.326,-27.4237"/>
<polygon fill="black" stroke="black" stroke-width="1.04326" points="333.592,-23.9229 323.172,-25.838 332.512,-30.8391 333.592,-23.9229"/>
<text text-anchor="middle" x="598.908" y="-144.8" font-family="Times New Roman,serif" font-size="14.00">406.30549402757515</text>
</g>
<!-- 8066172473611450852 -->
<g id="node8" class="node"><title>8066172473611450852</title>
<polygon fill="#ffffff" stroke="black" points="119.408,-123 21.4078,-123 21.4078,-87 119.408,-87 119.408,-123"/>
<text text-anchor="middle" x="70.4078" y="-101.3" font-family="Times New Roman,serif" font-size="14.00">LacticAcid (1)</text>
</g>
<!-- 3579705282704473787&#45;&gt;8066172473611450852 -->
<g id="edge3" class="edge"><title>3579705282704473787&#45;&gt;8066172473611450852</title>
<path fill="none" stroke="black" stroke-width="1.29626" d="M240.143,-191.828C175.725,-192.715 34.7453,-190.557 4.40776,-156 -4.69448,-145.632 2.30501,-136.01 14.6123,-128.032"/>
<polygon fill="black" stroke="black" stroke-width="1.29626" points="16.4067,-131.038 23.3505,-123.036 12.932,-124.961 16.4067,-131.038"/>
<text text-anchor="middle" x="60.4078" y="-144.8" font-family="Times New Roman,serif" font-size="14.00">628.8266256349281</text>
</g>
<!-- 3579705282704473787&#45;&gt;&#45;755878416217562554 -->
<g id="edge4" class="edge"><title>3579705282704473787&#45;&gt;&#45;755878416217562554</title>
<path fill="none" stroke="black" stroke-width="2.22277" d="M272.408,-173.879C272.408,-144.001 272.408,-82.1129 272.408,-46.2736"/>
<polygon fill="black" stroke="black" stroke-width="2.22277" points="275.908,-46.0516 272.408,-36.0516 268.908,-46.0516 275.908,-46.0516"/>
<text text-anchor="middle" x="331.908" y="-101.3" font-family="Times New Roman,serif" font-size="14.00">1443.7516776618286</text>
</g>
<!-- &#45;6320656248013813873 -->
<g id="node3" class="node"><title>&#45;6320656248013813873</title>
<polygon fill="#ffffff" stroke="black" points="700.908,-471 575.908,-471 575.908,-435 700.908,-435 700.908,-471"/>
<text text-anchor="middle" x="638.408" y="-449.3" font-family="Times New Roman,serif" font-size="14.00">ER Registration (1)</text>
</g>
<!-- 2377219762996478470 -->
<g id="node5" class="node"><title>2377219762996478470</title>
<polygon fill="#ffffff" stroke="black" points="684.908,-384 591.908,-384 591.908,-348 684.908,-348 684.908,-384"/>
<text text-anchor="middle" x="638.408" y="-362.3" font-family="Times New Roman,serif" font-size="14.00">ER Triage (1)</text>
</g>
<!-- &#45;6320656248013813873&#45;&gt;2377219762996478470 -->
<g id="edge5" class="edge"><title>&#45;6320656248013813873&#45;&gt;2377219762996478470</title>
<path fill="none" stroke="black" stroke-width="1.68933" d="M638.408,-434.799C638.408,-423.163 638.408,-407.548 638.408,-394.237"/>
<polygon fill="black" stroke="black" stroke-width="1.68933" points="641.908,-394.175 638.408,-384.175 634.908,-394.175 641.908,-394.175"/>
<text text-anchor="middle" x="694.408" y="-405.8" font-family="Times New Roman,serif" font-size="14.00">974.5623372225973</text>
</g>
<!-- 7430045975075819265 -->
<g id="node4" class="node"><title>7430045975075819265</title>
<polygon fill="#ffffff" stroke="black" points="705.408,-297 571.408,-297 571.408,-261 705.408,-261 705.408,-297"/>
<text text-anchor="middle" x="638.408" y="-275.3" font-family="Times New Roman,serif" font-size="14.00">ER Sepsis Triage (1)</text>
</g>
<!-- 2377219762996478470&#45;&gt;7430045975075819265 -->
<g id="edge6" class="edge"><title>2377219762996478470&#45;&gt;7430045975075819265</title>
<path fill="none" stroke="black" stroke-width="1.60962" d="M638.408,-347.799C638.408,-336.163 638.408,-320.548 638.408,-307.237"/>
<polygon fill="black" stroke="black" stroke-width="1.60962" points="641.908,-307.175 638.408,-297.175 634.908,-307.175 641.908,-307.175"/>
<text text-anchor="middle" x="694.408" y="-318.8" font-family="Times New Roman,serif" font-size="14.00">904.4525257551373</text>
</g>
<!-- &#45;5705463351445563725 -->
<g id="node6" class="node"><title>&#45;5705463351445563725</title>
<polygon fill="#ffffff" stroke="black" points="550.908,-384 435.908,-384 435.908,-348 550.908,-348 550.908,-384"/>
<text text-anchor="middle" x="493.408" y="-362.3" font-family="Times New Roman,serif" font-size="14.00">IV Antibiotics (1)</text>
</g>
<!-- &#45;5705463351445563725&#45;&gt;3703627156728642698 -->
<g id="edge7" class="edge"><title>&#45;5705463351445563725&#45;&gt;3703627156728642698</title>
<path fill="none" stroke="black" stroke-width="1.13881" d="M493.408,-347.799C493.408,-336.163 493.408,-320.548 493.408,-307.237"/>
<polygon fill="black" stroke="black" stroke-width="1.13881" points="496.908,-307.175 493.408,-297.175 489.908,-307.175 496.908,-307.175"/>
<text text-anchor="middle" x="549.408" y="-318.8" font-family="Times New Roman,serif" font-size="14.00">490.3474801905735</text>
</g>
<!-- &#45;3862139582344886855 -->
<g id="node7" class="node"><title>&#45;3862139582344886855</title>
<polygon fill="#ffffff" stroke="black" points="538.408,-471 448.408,-471 448.408,-435 538.408,-435 538.408,-471"/>
<text text-anchor="middle" x="493.408" y="-449.3" font-family="Times New Roman,serif" font-size="14.00">IV Liquid (1)</text>
</g>
<!-- &#45;3862139582344886855&#45;&gt;&#45;5705463351445563725 -->
<g id="edge8" class="edge"><title>&#45;3862139582344886855&#45;&gt;&#45;5705463351445563725</title>
<path fill="none" stroke="black" stroke-width="1.15172" d="M493.408,-434.799C493.408,-423.163 493.408,-407.548 493.408,-394.237"/>
<polygon fill="black" stroke="black" stroke-width="1.15172" points="496.908,-394.175 493.408,-384.175 489.908,-394.175 496.908,-394.175"/>
<text text-anchor="middle" x="549.408" y="-405.8" font-family="Times New Roman,serif" font-size="14.00">501.6973179210619</text>
</g>
<!-- 8066172473611450852&#45;&gt;3579705282704473787 -->
<g id="edge9" class="edge"><title>8066172473611450852&#45;&gt;3579705282704473787</title>
<path fill="none" stroke="black" stroke-width="1.04245" d="M93.1616,-123.128C111.261,-136.644 134.36,-153.61 139.408,-156 168.398,-169.726 203.586,-178.684 230.485,-184.099"/>
<polygon fill="black" stroke="black" stroke-width="1.04245" points="229.877,-187.546 240.359,-186.003 231.202,-180.673 229.877,-187.546"/>
<text text-anchor="middle" x="198.908" y="-144.8" font-family="Times New Roman,serif" font-size="14.00">405.59409464612594</text>
</g>
<!-- 8066172473611450852&#45;&gt;&#45;755878416217562554 -->
<g id="edge10" class="edge"><title>8066172473611450852&#45;&gt;&#45;755878416217562554</title>
<path fill="none" stroke="black" stroke-width="1.22561" d="M23.3505,-86.9641C6.14405,-78.1695 -6.6883,-66.6394 4.40776,-54 30.8153,-23.9195 141.056,-18.3878 211.661,-18.0442"/>
<polygon fill="black" stroke="black" stroke-width="1.22561" points="211.781,-21.5441 221.775,-18.0289 211.77,-14.5441 211.781,-21.5441"/>
<text text-anchor="middle" x="60.4078" y="-57.8" font-family="Times New Roman,serif" font-size="14.00">566.6911457540724</text>
</g>
<!-- &#45;755878416217562554&#45;&gt;3579705282704473787 -->
<g id="edge11" class="edge"><title>&#45;755878416217562554&#45;&gt;3579705282704473787</title>
<path fill="none" stroke="black" stroke-width="2.6" d="M322.141,-36.1523C365.409,-54.0524 417.925,-84.8222 395.408,-123 377.999,-152.517 342.673,-170.113 314.328,-179.985"/>
<polygon fill="black" stroke="black" stroke-width="2.6" points="313.047,-176.721 304.634,-183.161 315.226,-183.373 313.047,-176.721"/>
<text text-anchor="middle" x="457.408" y="-101.3" font-family="Times New Roman,serif" font-size="14.00">1775.546267951785</text>
</g>
<!-- &#45;755878416217562554&#45;&gt;8066172473611450852 -->
<g id="edge12" class="edge"><title>&#45;755878416217562554&#45;&gt;8066172473611450852</title>
<path fill="none" stroke="black" stroke-width="1.0756" d="M221.607,-27.7575C196.146,-33.2825 165.304,-41.7392 139.408,-54 135.11,-56.0351 117.721,-68.6405 101.477,-80.684"/>
<polygon fill="black" stroke="black" stroke-width="1.0756" points="99.0945,-78.0939 93.1616,-86.8719 103.274,-83.7096 99.0945,-78.0939"/>
<text text-anchor="middle" x="198.908" y="-57.8" font-family="Times New Roman,serif" font-size="14.00">434.74678812348355</text>
</g>
<!-- &#45;755878416217562554&#45;&gt;&#45;755878416217562554 -->
<g id="edge13" class="edge"><title>&#45;755878416217562554&#45;&gt;&#45;755878416217562554</title>
<path fill="none" stroke="black" stroke-width="1.10175" d="M323.192,-25.5746C333.515,-24.7495 340.908,-22.2246 340.908,-18 340.908,-15.3596 338.02,-13.3832 333.334,-12.0707"/>
<polygon fill="black" stroke="black" stroke-width="1.10175" points="333.623,-8.57199 323.192,-10.4254 332.502,-15.4817 333.623,-8.57199"/>
<text text-anchor="middle" x="400.408" y="-14.3" font-family="Times New Roman,serif" font-size="14.00">457.74756154351405</text>
</g>
</g>
</svg>
