<?xml version="1.0" encoding="UTF-8" standalone="no"?>
<!DOCTYPE svg PUBLIC "-//W3C//DTD SVG 1.1//EN"
 "http://www.w3.org/Graphics/SVG/1.1/DTD/svg11.dtd">
<!-- Generated by graphviz version 2.38.0 (20140413.2041)
 -->
<!-- Title: %3 Pages: 1 -->
<svg width="757pt" height="479pt"
 viewBox="0.00 0.00 757.31 479.00" xmlns="http://www.w3.org/2000/svg" xmlns:xlink="http://www.w3.org/1999/xlink">
<g id="graph0" class="graph" transform="scale(1 1) rotate(0) translate(4 475)">
<title>%3</title>
<!-- &#45;6760735685208204671 -->
<g id="node1" class="node"><title>&#45;6760735685208204671</title>
<polygon fill="#ffffff" stroke="black" points="551.815,-297 432.815,-297 432.815,-261 551.815,-261 551.815,-297"/>
<text text-anchor="middle" x="492.315" y="-275.3" font-family="Times New Roman,serif" font-size="14.00">Admission NC (1)</text>
</g>
<!-- 7850561497370058999 -->
<g id="node2" class="node"><title>7850561497370058999</title>
<polygon fill="#ffffff" stroke="black" points="298.315,-210 234.315,-210 234.315,-174 298.315,-174 298.315,-210"/>
<text text-anchor="middle" x="266.315" y="-188.3" font-family="Times New Roman,serif" font-size="14.00">CRP (1)</text>
</g>
<!-- &#45;6760735685208204671&#45;&gt;7850561497370058999 -->
<g id="edge1" class="edge"><title>&#45;6760735685208204671&#45;&gt;7850561497370058999</title>
<path fill="none" stroke="black" d="M446.852,-260.901C406.332,-245.661 347.511,-223.538 308.137,-208.73"/>
<polygon fill="black" stroke="black" points="309.161,-205.375 298.569,-205.131 306.697,-211.927 309.161,-205.375"/>
<text text-anchor="middle" x="452.815" y="-231.8" font-family="Times New Roman,serif" font-size="14.00">367.93784946869323</text>
</g>
<!-- 6179918396602481755 -->
<g id="node9" class="node"><title>6179918396602481755</title>
<polygon fill="#ffffff" stroke="black" points="316.815,-36 215.815,-36 215.815,-0 316.815,-0 316.815,-36"/>
<text text-anchor="middle" x="266.315" y="-14.3" font-family="Times New Roman,serif" font-size="14.00">Leucocytes (1)</text>
</g>
<!-- &#45;6760735685208204671&#45;&gt;6179918396602481755 -->
<g id="edge2" class="edge"><title>&#45;6760735685208204671&#45;&gt;6179918396602481755</title>
<path fill="none" stroke="black" stroke-width="1.04555" d="M506.959,-260.905C510.735,-255.518 514.299,-249.317 516.315,-243 537.393,-176.942 560.477,-142.048 518.315,-87 495.186,-56.8023 394.018,-36.9672 327.111,-26.8902"/>
<polygon fill="black" stroke="black" stroke-width="1.04555" points="327.497,-23.4093 317.094,-25.4153 326.477,-30.3346 327.497,-23.4093"/>
<text text-anchor="middle" x="595.315" y="-144.8" font-family="Times New Roman,serif" font-size="14.00">408.102045528272</text>
</g>
<!-- 1152587832168206417 -->
<g id="node8" class="node"><title>1152587832168206417</title>
<polygon fill="#ffffff" stroke="black" points="116.315,-123 18.315,-123 18.315,-87 116.315,-87 116.315,-123"/>
<text text-anchor="middle" x="67.315" y="-101.3" font-family="Times New Roman,serif" font-size="14.00">LacticAcid (1)</text>
</g>
<!-- 7850561497370058999&#45;&gt;1152587832168206417 -->
<g id="edge3" class="edge"><title>7850561497370058999&#45;&gt;1152587832168206417</title>
<path fill="none" stroke="black" stroke-width="1.29597" d="M234.283,-191.715C171.076,-192.366 33.8596,-189.754 4.31498,-156 -4.50248,-145.926 2.12087,-136.385 13.8562,-128.39"/>
<polygon fill="black" stroke="black" stroke-width="1.29597" points="15.8872,-131.254 22.6705,-123.115 12.2924,-125.247 15.8872,-131.254"/>
<text text-anchor="middle" x="57.315" y="-144.8" font-family="Times New Roman,serif" font-size="14.00">628.919117697094</text>
</g>
<!-- 7850561497370058999&#45;&gt;6179918396602481755 -->
<g id="edge4" class="edge"><title>7850561497370058999&#45;&gt;6179918396602481755</title>
<path fill="none" stroke="black" stroke-width="2.2212" d="M266.315,-173.879C266.315,-144.001 266.315,-82.1129 266.315,-46.2736"/>
<polygon fill="black" stroke="black" stroke-width="2.2212" points="269.815,-46.0516 266.315,-36.0516 262.815,-46.0516 269.815,-46.0516"/>
<text text-anchor="middle" x="325.815" y="-101.3" font-family="Times New Roman,serif" font-size="14.00">1444.7807617152587</text>
</g>
<!-- &#45;2410219256766748193 -->
<g id="node3" class="node"><title>&#45;2410219256766748193</title>
<polygon fill="#ffffff" stroke="black" points="699.815,-471 574.815,-471 574.815,-435 699.815,-435 699.815,-471"/>
<text text-anchor="middle" x="637.315" y="-449.3" font-family="Times New Roman,serif" font-size="14.00">ER Registration (1)</text>
</g>
<!-- &#45;2872325205858232948 -->
<g id="node5" class="node"><title>&#45;2872325205858232948</title>
<polygon fill="#ffffff" stroke="black" points="683.815,-384 590.815,-384 590.815,-348 683.815,-348 683.815,-384"/>
<text text-anchor="middle" x="637.315" y="-362.3" font-family="Times New Roman,serif" font-size="14.00">ER Triage (1)</text>
</g>
<!-- &#45;2410219256766748193&#45;&gt;&#45;2872325205858232948 -->
<g id="edge5" class="edge"><title>&#45;2410219256766748193&#45;&gt;&#45;2872325205858232948</title>
<path fill="none" stroke="black" stroke-width="1.68264" d="M637.315,-434.799C637.315,-423.163 637.315,-407.548 637.315,-394.237"/>
<polygon fill="black" stroke="black" stroke-width="1.68264" points="640.815,-394.175 637.315,-384.175 633.815,-394.175 640.815,-394.175"/>
<text text-anchor="middle" x="693.315" y="-405.8" font-family="Times New Roman,serif" font-size="14.00">969.8855643765785</text>
</g>
<!-- 8892003065059452103 -->
<g id="node4" class="node"><title>8892003065059452103</title>
<polygon fill="#ffffff" stroke="black" points="704.315,-297 570.315,-297 570.315,-261 704.315,-261 704.315,-297"/>
<text text-anchor="middle" x="637.315" y="-275.3" font-family="Times New Roman,serif" font-size="14.00">ER Sepsis Triage (1)</text>
</g>
<!-- &#45;2872325205858232948&#45;&gt;8892003065059452103 -->
<g id="edge6" class="edge"><title>&#45;2872325205858232948&#45;&gt;8892003065059452103</title>
<path fill="none" stroke="black" stroke-width="1.60951" d="M637.315,-347.799C637.315,-336.163 637.315,-320.548 637.315,-307.237"/>
<polygon fill="black" stroke="black" stroke-width="1.60951" points="640.815,-307.175 637.315,-297.175 633.815,-307.175 640.815,-307.175"/>
<text text-anchor="middle" x="693.315" y="-318.8" font-family="Times New Roman,serif" font-size="14.00">905.4031362200417</text>
</g>
<!-- &#45;6564841300794043563 -->
<g id="node6" class="node"><title>&#45;6564841300794043563</title>
<polygon fill="#ffffff" stroke="black" points="549.815,-384 434.815,-384 434.815,-348 549.815,-348 549.815,-384"/>
<text text-anchor="middle" x="492.315" y="-362.3" font-family="Times New Roman,serif" font-size="14.00">IV Antibiotics (1)</text>
</g>
<!-- &#45;6564841300794043563&#45;&gt;&#45;6760735685208204671 -->
<g id="edge7" class="edge"><title>&#45;6564841300794043563&#45;&gt;&#45;6760735685208204671</title>
<path fill="none" stroke="black" stroke-width="1.13765" d="M492.315,-347.799C492.315,-336.163 492.315,-320.548 492.315,-307.237"/>
<polygon fill="black" stroke="black" stroke-width="1.13765" points="495.815,-307.175 492.315,-297.175 488.815,-307.175 495.815,-307.175"/>
<text text-anchor="middle" x="551.815" y="-318.8" font-family="Times New Roman,serif" font-size="14.00">489.31746468161947</text>
</g>
<!-- &#45;1926219633770359302 -->
<g id="node7" class="node"><title>&#45;1926219633770359302</title>
<polygon fill="#ffffff" stroke="black" points="537.315,-471 447.315,-471 447.315,-435 537.315,-435 537.315,-471"/>
<text text-anchor="middle" x="492.315" y="-449.3" font-family="Times New Roman,serif" font-size="14.00">IV Liquid (1)</text>
</g>
<!-- &#45;1926219633770359302&#45;&gt;&#45;6564841300794043563 -->
<g id="edge8" class="edge"><title>&#45;1926219633770359302&#45;&gt;&#45;6564841300794043563</title>
<path fill="none" stroke="black" stroke-width="1.15085" d="M492.315,-434.799C492.315,-423.163 492.315,-407.548 492.315,-394.237"/>
<polygon fill="black" stroke="black" stroke-width="1.15085" points="495.815,-394.175 492.315,-384.175 488.815,-394.175 495.815,-394.175"/>
<text text-anchor="middle" x="548.315" y="-405.8" font-family="Times New Roman,serif" font-size="14.00">500.9583254987645</text>
</g>
<!-- 1152587832168206417&#45;&gt;7850561497370058999 -->
<g id="edge9" class="edge"><title>1152587832168206417&#45;&gt;7850561497370058999</title>
<path fill="none" stroke="black" stroke-width="1.04118" d="M88.1733,-123.218C103.739,-135.792 123.879,-151.409 133.315,-156 162.157,-170.033 197.353,-178.976 224.293,-184.307"/>
<polygon fill="black" stroke="black" stroke-width="1.04118" points="223.707,-187.758 234.183,-186.176 225.007,-180.88 223.707,-187.758"/>
<text text-anchor="middle" x="192.815" y="-144.8" font-family="Times New Roman,serif" font-size="14.00">404.25082576467435</text>
</g>
<!-- 1152587832168206417&#45;&gt;6179918396602481755 -->
<g id="edge10" class="edge"><title>1152587832168206417&#45;&gt;6179918396602481755</title>
<path fill="none" stroke="black" stroke-width="1.22354" d="M22.6705,-86.8848C6.00009,-77.9902 -6.53727,-66.3984 4.31498,-54 29.9015,-24.7682 136.243,-18.893 205.331,-18.2661"/>
<polygon fill="black" stroke="black" stroke-width="1.22354" points="205.68,-21.7643 215.66,-18.2085 205.641,-14.7644 205.68,-21.7643"/>
<text text-anchor="middle" x="57.315" y="-57.8" font-family="Times New Roman,serif" font-size="14.00">565.056526479329</text>
</g>
<!-- 6179918396602481755&#45;&gt;7850561497370058999 -->
<g id="edge11" class="edge"><title>6179918396602481755&#45;&gt;7850561497370058999</title>
<path fill="none" stroke="black" stroke-width="2.6" d="M316.048,-36.1523C359.317,-54.0524 411.832,-84.8222 389.315,-123 371.906,-152.517 336.58,-170.113 308.235,-179.985"/>
<polygon fill="black" stroke="black" stroke-width="2.6" points="306.954,-176.721 298.541,-183.161 309.133,-183.373 306.954,-176.721"/>
<text text-anchor="middle" x="454.815" y="-101.3" font-family="Times New Roman,serif" font-size="14.00">1778.8062431740661</text>
</g>
<!-- 6179918396602481755&#45;&gt;1152587832168206417 -->
<g id="edge12" class="edge"><title>6179918396602481755&#45;&gt;1152587832168206417</title>
<path fill="none" stroke="black" stroke-width="1.07617" d="M215.721,-27.4568C190.17,-32.9202 159.186,-41.4124 133.315,-54 125.427,-57.8379 110.059,-69.3808 96.1363,-80.4096"/>
<polygon fill="black" stroke="black" stroke-width="1.07617" points="93.7944,-77.801 88.1733,-86.7817 98.168,-83.2665 93.7944,-77.801"/>
<text text-anchor="middle" x="192.815" y="-57.8" font-family="Times New Roman,serif" font-size="14.00">435.10132765176417</text>
</g>
<!-- 6179918396602481755&#45;&gt;6179918396602481755 -->
<g id="edge13" class="edge"><title>6179918396602481755&#45;&gt;6179918396602481755</title>
<path fill="none" stroke="black" stroke-width="1.10232" d="M317.099,-25.5746C327.422,-24.7495 334.815,-22.2246 334.815,-18 334.815,-15.3596 331.927,-13.3832 327.241,-12.0707"/>
<polygon fill="black" stroke="black" stroke-width="1.10232" points="327.53,-8.57199 317.099,-10.4254 326.409,-15.4817 327.53,-8.57199"/>
<text text-anchor="middle" x="390.815" y="-14.3" font-family="Times New Roman,serif" font-size="14.00">458.1668661826255</text>
</g>
</g>
</svg>
