<?xml version="1.0" encoding="UTF-8" standalone="no"?>
<!DOCTYPE svg PUBLIC "-//W3C//DTD SVG 1.1//EN"
 "http://www.w3.org/Graphics/SVG/1.1/DTD/svg11.dtd">
<!-- Generated by graphviz version 2.38.0 (20140413.2041)
 -->
<!-- Title: %3 Pages: 1 -->
<svg width="747pt" height="479pt"
 viewBox="0.00 0.00 747.34 479.00" xmlns="http://www.w3.org/2000/svg" xmlns:xlink="http://www.w3.org/1999/xlink">
<g id="graph0" class="graph" transform="scale(1 1) rotate(0) translate(4 475)">
<title>%3</title>
<!-- 118450489566830562 -->
<g id="node1" class="node"><title>118450489566830562</title>
<polygon fill="#ffffff" stroke="black" points="541.842,-297 422.842,-297 422.842,-261 541.842,-261 541.842,-297"/>
<text text-anchor="middle" x="482.342" y="-275.3" font-family="Times New Roman,serif" font-size="14.00">Admission NC (1)</text>
</g>
<!-- 4941769122289558835 -->
<g id="node2" class="node"><title>4941769122289558835</title>
<polygon fill="#ffffff" stroke="black" points="298.342,-210 234.342,-210 234.342,-174 298.342,-174 298.342,-210"/>
<text text-anchor="middle" x="266.342" y="-188.3" font-family="Times New Roman,serif" font-size="14.00">CRP (1)</text>
</g>
<!-- 118450489566830562&#45;&gt;4941769122289558835 -->
<g id="edge1" class="edge"><title>118450489566830562&#45;&gt;4941769122289558835</title>
<path fill="none" stroke="black" d="M438.891,-260.901C400.78,-245.904 345.73,-224.241 308.124,-209.442"/>
<polygon fill="black" stroke="black" points="309.072,-206.054 298.485,-205.649 306.509,-212.568 309.072,-206.054"/>
<text text-anchor="middle" x="446.842" y="-231.8" font-family="Times New Roman,serif" font-size="14.00">348.57605461413095</text>
</g>
<!-- 6570115252564267433 -->
<g id="node9" class="node"><title>6570115252564267433</title>
<polygon fill="#ffffff" stroke="black" points="316.842,-36 215.842,-36 215.842,-0 316.842,-0 316.842,-36"/>
<text text-anchor="middle" x="266.342" y="-14.3" font-family="Times New Roman,serif" font-size="14.00">Leucocytes (1)</text>
</g>
<!-- 118450489566830562&#45;&gt;6570115252564267433 -->
<g id="edge2" class="edge"><title>118450489566830562&#45;&gt;6570115252564267433</title>
<path fill="none" stroke="black" stroke-width="1.09643" d="M499.762,-260.912C504.058,-255.617 508.075,-249.462 510.342,-243 525.671,-199.298 640.288,-259.475 504.342,-87 482.45,-59.2264 390.331,-39.0577 327.335,-28.1953"/>
<polygon fill="black" stroke="black" stroke-width="1.09643" points="327.545,-24.6813 317.102,-26.468 326.38,-31.5837 327.545,-24.6813"/>
<text text-anchor="middle" x="611.842" y="-144.8" font-family="Times New Roman,serif" font-size="14.00">435.27426793742865</text>
</g>
<!-- &#45;5670009864185339888 -->
<g id="node8" class="node"><title>&#45;5670009864185339888</title>
<polygon fill="#ffffff" stroke="black" points="117.342,-123 19.3415,-123 19.3415,-87 117.342,-87 117.342,-123"/>
<text text-anchor="middle" x="68.3415" y="-101.3" font-family="Times New Roman,serif" font-size="14.00">LacticAcid (1)</text>
</g>
<!-- 4941769122289558835&#45;&gt;&#45;5670009864185339888 -->
<g id="edge3" class="edge"><title>4941769122289558835&#45;&gt;&#45;5670009864185339888</title>
<path fill="none" stroke="black" stroke-width="1.28498" d="M234.309,-191.715C171.103,-192.366 33.8862,-189.754 4.34154,-156 -4.56205,-145.828 2.17993,-136.262 14.0974,-128.275"/>
<polygon fill="black" stroke="black" stroke-width="1.28498" points="16.2023,-131.097 23.0461,-123.01 12.6524,-125.064 16.2023,-131.097"/>
<text text-anchor="middle" x="57.3415" y="-144.8" font-family="Times New Roman,serif" font-size="14.00">604.788127164136</text>
</g>
<!-- 4941769122289558835&#45;&gt;6570115252564267433 -->
<g id="edge4" class="edge"><title>4941769122289558835&#45;&gt;6570115252564267433</title>
<path fill="none" stroke="black" stroke-width="2.18121" d="M266.342,-173.879C266.342,-144.001 266.342,-82.1129 266.342,-46.2736"/>
<polygon fill="black" stroke="black" stroke-width="2.18121" points="269.842,-46.0516 266.342,-36.0516 262.842,-46.0516 269.842,-46.0516"/>
<text text-anchor="middle" x="322.342" y="-101.3" font-family="Times New Roman,serif" font-size="14.00">1410.556577120477</text>
</g>
<!-- &#45;1744131764726653331 -->
<g id="node3" class="node"><title>&#45;1744131764726653331</title>
<polygon fill="#ffffff" stroke="black" points="689.842,-471 564.842,-471 564.842,-435 689.842,-435 689.842,-471"/>
<text text-anchor="middle" x="627.342" y="-449.3" font-family="Times New Roman,serif" font-size="14.00">ER Registration (1)</text>
</g>
<!-- &#45;8305476247514553090 -->
<g id="node5" class="node"><title>&#45;8305476247514553090</title>
<polygon fill="#ffffff" stroke="black" points="673.842,-384 580.842,-384 580.842,-348 673.842,-348 673.842,-384"/>
<text text-anchor="middle" x="627.342" y="-362.3" font-family="Times New Roman,serif" font-size="14.00">ER Triage (1)</text>
</g>
<!-- &#45;1744131764726653331&#45;&gt;&#45;8305476247514553090 -->
<g id="edge5" class="edge"><title>&#45;1744131764726653331&#45;&gt;&#45;8305476247514553090</title>
<path fill="none" stroke="black" stroke-width="1.70174" d="M627.342,-434.799C627.342,-423.163 627.342,-407.548 627.342,-394.237"/>
<polygon fill="black" stroke="black" stroke-width="1.70174" points="630.842,-394.175 627.342,-384.175 623.842,-394.175 630.842,-394.175"/>
<text text-anchor="middle" x="683.342" y="-405.8" font-family="Times New Roman,serif" font-size="14.00">979.4785962000456</text>
</g>
<!-- 3296544575651183754 -->
<g id="node4" class="node"><title>3296544575651183754</title>
<polygon fill="#ffffff" stroke="black" points="694.342,-297 560.342,-297 560.342,-261 694.342,-261 694.342,-297"/>
<text text-anchor="middle" x="627.342" y="-275.3" font-family="Times New Roman,serif" font-size="14.00">ER Sepsis Triage (1)</text>
</g>
<!-- &#45;8305476247514553090&#45;&gt;3296544575651183754 -->
<g id="edge6" class="edge"><title>&#45;8305476247514553090&#45;&gt;3296544575651183754</title>
<path fill="none" stroke="black" stroke-width="1.61969" d="M627.342,-347.799C627.342,-336.163 627.342,-320.548 627.342,-307.237"/>
<polygon fill="black" stroke="black" stroke-width="1.61969" points="630.842,-307.175 627.342,-297.175 623.842,-307.175 630.842,-307.175"/>
<text text-anchor="middle" x="683.342" y="-318.8" font-family="Times New Roman,serif" font-size="14.00">905.7097479071971</text>
</g>
<!-- &#45;8429177058128869877 -->
<g id="node6" class="node"><title>&#45;8429177058128869877</title>
<polygon fill="#ffffff" stroke="black" points="539.842,-384 424.842,-384 424.842,-348 539.842,-348 539.842,-384"/>
<text text-anchor="middle" x="482.342" y="-362.3" font-family="Times New Roman,serif" font-size="14.00">IV Antibiotics (1)</text>
</g>
<!-- &#45;8429177058128869877&#45;&gt;118450489566830562 -->
<g id="edge7" class="edge"><title>&#45;8429177058128869877&#45;&gt;118450489566830562</title>
<path fill="none" stroke="black" stroke-width="1.13557" d="M482.342,-347.799C482.342,-336.163 482.342,-320.548 482.342,-307.237"/>
<polygon fill="black" stroke="black" stroke-width="1.13557" points="485.842,-307.175 482.342,-297.175 478.842,-307.175 485.842,-307.175"/>
<text text-anchor="middle" x="541.842" y="-318.8" font-family="Times New Roman,serif" font-size="14.00">470.45947660157276</text>
</g>
<!-- 6215314419735287562 -->
<g id="node7" class="node"><title>6215314419735287562</title>
<polygon fill="#ffffff" stroke="black" points="527.342,-471 437.342,-471 437.342,-435 527.342,-435 527.342,-471"/>
<text text-anchor="middle" x="482.342" y="-449.3" font-family="Times New Roman,serif" font-size="14.00">IV Liquid (1)</text>
</g>
<!-- 6215314419735287562&#45;&gt;&#45;8429177058128869877 -->
<g id="edge8" class="edge"><title>6215314419735287562&#45;&gt;&#45;8429177058128869877</title>
<path fill="none" stroke="black" stroke-width="1.27719" d="M482.342,-434.799C482.342,-423.163 482.342,-407.548 482.342,-394.237"/>
<polygon fill="black" stroke="black" stroke-width="1.27719" points="485.842,-394.175 482.342,-384.175 478.842,-394.175 485.842,-394.175"/>
<text text-anchor="middle" x="538.342" y="-405.8" font-family="Times New Roman,serif" font-size="14.00">597.7898493556692</text>
</g>
<!-- &#45;5670009864185339888&#45;&gt;4941769122289558835 -->
<g id="edge9" class="edge"><title>&#45;5670009864185339888&#45;&gt;4941769122289558835</title>
<path fill="none" stroke="black" stroke-width="1.07474" d="M88.8641,-123.224C104.183,-135.8 124.013,-151.419 133.342,-156 162.132,-170.139 197.331,-179.077 224.284,-184.379"/>
<polygon fill="black" stroke="black" stroke-width="1.07474" points="223.706,-187.832 234.18,-186.236 224.997,-180.952 223.706,-187.832"/>
<text text-anchor="middle" x="192.842" y="-144.8" font-family="Times New Roman,serif" font-size="14.00">415.77129761677145</text>
</g>
<!-- &#45;5670009864185339888&#45;&gt;6570115252564267433 -->
<g id="edge10" class="edge"><title>&#45;5670009864185339888&#45;&gt;6570115252564267433</title>
<path fill="none" stroke="black" stroke-width="1.17382" d="M23.6997,-86.8871C7.03,-77.9931 -5.5076,-66.4011 5.34154,-54 30.789,-24.9123 136.465,-18.9795 205.298,-18.3044"/>
<polygon fill="black" stroke="black" stroke-width="1.17382" points="205.614,-21.8026 215.592,-18.2395 205.57,-14.8027 205.614,-21.8026"/>
<text text-anchor="middle" x="61.3415" y="-57.8" font-family="Times New Roman,serif" font-size="14.00">504.8507142651559</text>
</g>
<!-- 6570115252564267433&#45;&gt;4941769122289558835 -->
<g id="edge11" class="edge"><title>6570115252564267433&#45;&gt;4941769122289558835</title>
<path fill="none" stroke="black" stroke-width="2.6" d="M312.121,-36.0649C353.165,-54.2127 403.856,-85.4502 382.342,-123 366.424,-150.781 334.266,-168.313 307.838,-178.604"/>
<polygon fill="black" stroke="black" stroke-width="2.6" points="306.579,-175.337 298.401,-182.073 308.995,-181.907 306.579,-175.337"/>
<text text-anchor="middle" x="444.342" y="-101.3" font-family="Times New Roman,serif" font-size="14.00">1787.070886719606</text>
</g>
<!-- 6570115252564267433&#45;&gt;&#45;5670009864185339888 -->
<g id="edge12" class="edge"><title>6570115252564267433&#45;&gt;&#45;5670009864185339888</title>
<path fill="none" stroke="black" stroke-width="1.16726" d="M215.591,-28.9847C192.044,-34.6426 164.078,-42.8554 140.342,-54 135.873,-56.0983 117.434,-68.9166 100.337,-81.0478"/>
<polygon fill="black" stroke="black" stroke-width="1.16726" points="98.2354,-78.2475 92.1183,-86.898 102.295,-83.9502 98.2354,-78.2475"/>
<text text-anchor="middle" x="196.342" y="-57.8" font-family="Times New Roman,serif" font-size="14.00">498.9511325633247</text>
</g>
<!-- 6570115252564267433&#45;&gt;6570115252564267433 -->
<g id="edge13" class="edge"><title>6570115252564267433&#45;&gt;6570115252564267433</title>
<path fill="none" stroke="black" stroke-width="1.13088" d="M317.125,-25.5746C327.449,-24.7495 334.842,-22.2246 334.842,-18 334.842,-15.3596 331.954,-13.3832 327.268,-12.0707"/>
<polygon fill="black" stroke="black" stroke-width="1.13088" points="327.557,-8.57199 317.125,-10.4254 326.436,-15.4817 327.557,-8.57199"/>
<text text-anchor="middle" x="390.842" y="-14.3" font-family="Times New Roman,serif" font-size="14.00">466.2435639664629</text>
</g>
</g>
</svg>
