<?xml version="1.0" encoding="UTF-8" standalone="no"?>
<!DOCTYPE svg PUBLIC "-//W3C//DTD SVG 1.1//EN"
 "http://www.w3.org/Graphics/SVG/1.1/DTD/svg11.dtd">
<!-- Generated by graphviz version 2.38.0 (20140413.2041)
 -->
<!-- Title: %3 Pages: 1 -->
<svg width="756pt" height="479pt"
 viewBox="0.00 0.00 756.39 479.00" xmlns="http://www.w3.org/2000/svg" xmlns:xlink="http://www.w3.org/1999/xlink">
<g id="graph0" class="graph" transform="scale(1 1) rotate(0) translate(4 475)">
<title>%3</title>
<!-- &#45;6760735685208204671 -->
<g id="node1" class="node"><title>&#45;6760735685208204671</title>
<polygon fill="#ffffff" stroke="black" points="550.894,-297 431.894,-297 431.894,-261 550.894,-261 550.894,-297"/>
<text text-anchor="middle" x="491.394" y="-275.3" font-family="Times New Roman,serif" font-size="14.00">Admission NC (1)</text>
</g>
<!-- 7850561497370058999 -->
<g id="node2" class="node"><title>7850561497370058999</title>
<polygon fill="#ffffff" stroke="black" points="297.394,-210 233.394,-210 233.394,-174 297.394,-174 297.394,-210"/>
<text text-anchor="middle" x="265.394" y="-188.3" font-family="Times New Roman,serif" font-size="14.00">CRP (1)</text>
</g>
<!-- &#45;6760735685208204671&#45;&gt;7850561497370058999 -->
<g id="edge1" class="edge"><title>&#45;6760735685208204671&#45;&gt;7850561497370058999</title>
<path fill="none" stroke="black" d="M445.931,-260.901C405.411,-245.661 346.59,-223.538 307.216,-208.73"/>
<polygon fill="black" stroke="black" points="308.24,-205.375 297.648,-205.131 305.776,-211.927 308.24,-205.375"/>
<text text-anchor="middle" x="448.394" y="-231.8" font-family="Times New Roman,serif" font-size="14.00">369.5044331928443</text>
</g>
<!-- 6179918396602481755 -->
<g id="node9" class="node"><title>6179918396602481755</title>
<polygon fill="#ffffff" stroke="black" points="315.894,-36 214.894,-36 214.894,-0 315.894,-0 315.894,-36"/>
<text text-anchor="middle" x="265.394" y="-14.3" font-family="Times New Roman,serif" font-size="14.00">Leucocytes (1)</text>
</g>
<!-- &#45;6760735685208204671&#45;&gt;6179918396602481755 -->
<g id="edge2" class="edge"><title>&#45;6760735685208204671&#45;&gt;6179918396602481755</title>
<path fill="none" stroke="black" stroke-width="1.04347" d="M501.142,-260.857C520.287,-224.662 557.583,-139.472 517.394,-87 494.265,-56.8023 393.096,-36.9672 326.19,-26.8902"/>
<polygon fill="black" stroke="black" stroke-width="1.04347" points="326.576,-23.4093 316.173,-25.4153 325.556,-30.3346 326.576,-23.4093"/>
<text text-anchor="middle" x="591.394" y="-144.8" font-family="Times New Roman,serif" font-size="14.00">407.7755660932411</text>
</g>
<!-- 1152587832168206417 -->
<g id="node8" class="node"><title>1152587832168206417</title>
<polygon fill="#ffffff" stroke="black" points="119.394,-123 21.3938,-123 21.3938,-87 119.394,-87 119.394,-123"/>
<text text-anchor="middle" x="70.3938" y="-101.3" font-family="Times New Roman,serif" font-size="14.00">LacticAcid (1)</text>
</g>
<!-- 7850561497370058999&#45;&gt;1152587832168206417 -->
<g id="edge3" class="edge"><title>7850561497370058999&#45;&gt;1152587832168206417</title>
<path fill="none" stroke="black" stroke-width="1.2947" d="M232.998,-191.7C169.817,-192.296 33.744,-189.549 4.39385,-156 -4.69053,-145.616 2.31343,-135.99 14.6193,-128.014"/>
<polygon fill="black" stroke="black" stroke-width="1.2947" points="16.4117,-131.021 23.3558,-123.019 12.9373,-124.944 16.4117,-131.021"/>
<text text-anchor="middle" x="60.3938" y="-144.8" font-family="Times New Roman,serif" font-size="14.00">628.9920071223036</text>
</g>
<!-- 7850561497370058999&#45;&gt;6179918396602481755 -->
<g id="edge4" class="edge"><title>7850561497370058999&#45;&gt;6179918396602481755</title>
<path fill="none" stroke="black" stroke-width="2.22147" d="M265.394,-173.879C265.394,-144.001 265.394,-82.1129 265.394,-46.2736"/>
<polygon fill="black" stroke="black" stroke-width="2.22147" points="268.894,-46.0516 265.394,-36.0516 261.894,-46.0516 268.894,-46.0516"/>
<text text-anchor="middle" x="324.894" y="-101.3" font-family="Times New Roman,serif" font-size="14.00">1445.0161111466793</text>
</g>
<!-- &#45;2410219256766748193 -->
<g id="node3" class="node"><title>&#45;2410219256766748193</title>
<polygon fill="#ffffff" stroke="black" points="698.894,-471 573.894,-471 573.894,-435 698.894,-435 698.894,-471"/>
<text text-anchor="middle" x="636.394" y="-449.3" font-family="Times New Roman,serif" font-size="14.00">ER Registration (1)</text>
</g>
<!-- &#45;2872325205858232948 -->
<g id="node5" class="node"><title>&#45;2872325205858232948</title>
<polygon fill="#ffffff" stroke="black" points="682.894,-384 589.894,-384 589.894,-348 682.894,-348 682.894,-384"/>
<text text-anchor="middle" x="636.394" y="-362.3" font-family="Times New Roman,serif" font-size="14.00">ER Triage (1)</text>
</g>
<!-- &#45;2410219256766748193&#45;&gt;&#45;2872325205858232948 -->
<g id="edge5" class="edge"><title>&#45;2410219256766748193&#45;&gt;&#45;2872325205858232948</title>
<path fill="none" stroke="black" stroke-width="1.68317" d="M636.394,-434.799C636.394,-423.163 636.394,-407.548 636.394,-394.237"/>
<polygon fill="black" stroke="black" stroke-width="1.68317" points="639.894,-394.175 636.394,-384.175 632.894,-394.175 639.894,-394.175"/>
<text text-anchor="middle" x="692.394" y="-405.8" font-family="Times New Roman,serif" font-size="14.00">971.0349015857565</text>
</g>
<!-- 8892003065059452103 -->
<g id="node4" class="node"><title>8892003065059452103</title>
<polygon fill="#ffffff" stroke="black" points="703.394,-297 569.394,-297 569.394,-261 703.394,-261 703.394,-297"/>
<text text-anchor="middle" x="636.394" y="-275.3" font-family="Times New Roman,serif" font-size="14.00">ER Sepsis Triage (1)</text>
</g>
<!-- &#45;2872325205858232948&#45;&gt;8892003065059452103 -->
<g id="edge6" class="edge"><title>&#45;2872325205858232948&#45;&gt;8892003065059452103</title>
<path fill="none" stroke="black" stroke-width="1.60902" d="M636.394,-347.799C636.394,-336.163 636.394,-320.548 636.394,-307.237"/>
<polygon fill="black" stroke="black" stroke-width="1.60902" points="639.894,-307.175 636.394,-297.175 632.894,-307.175 639.894,-307.175"/>
<text text-anchor="middle" x="692.394" y="-318.8" font-family="Times New Roman,serif" font-size="14.00">905.7506943852219</text>
</g>
<!-- &#45;6564841300794043563 -->
<g id="node6" class="node"><title>&#45;6564841300794043563</title>
<polygon fill="#ffffff" stroke="black" points="548.894,-384 433.894,-384 433.894,-348 548.894,-348 548.894,-384"/>
<text text-anchor="middle" x="491.394" y="-362.3" font-family="Times New Roman,serif" font-size="14.00">IV Antibiotics (1)</text>
</g>
<!-- &#45;6564841300794043563&#45;&gt;&#45;6760735685208204671 -->
<g id="edge7" class="edge"><title>&#45;6564841300794043563&#45;&gt;&#45;6760735685208204671</title>
<path fill="none" stroke="black" stroke-width="1.13578" d="M491.394,-347.799C491.394,-336.163 491.394,-320.548 491.394,-307.237"/>
<polygon fill="black" stroke="black" stroke-width="1.13578" points="494.894,-307.175 491.394,-297.175 487.894,-307.175 494.894,-307.175"/>
<text text-anchor="middle" x="547.394" y="-318.8" font-family="Times New Roman,serif" font-size="14.00">489.0556823391245</text>
</g>
<!-- &#45;1926219633770359302 -->
<g id="node7" class="node"><title>&#45;1926219633770359302</title>
<polygon fill="#ffffff" stroke="black" points="536.394,-471 446.394,-471 446.394,-435 536.394,-435 536.394,-471"/>
<text text-anchor="middle" x="491.394" y="-449.3" font-family="Times New Roman,serif" font-size="14.00">IV Liquid (1)</text>
</g>
<!-- &#45;1926219633770359302&#45;&gt;&#45;6564841300794043563 -->
<g id="edge8" class="edge"><title>&#45;1926219633770359302&#45;&gt;&#45;6564841300794043563</title>
<path fill="none" stroke="black" stroke-width="1.14967" d="M491.394,-434.799C491.394,-423.163 491.394,-407.548 491.394,-394.237"/>
<polygon fill="black" stroke="black" stroke-width="1.14967" points="494.894,-394.175 491.394,-384.175 487.894,-394.175 494.894,-394.175"/>
<text text-anchor="middle" x="550.894" y="-405.8" font-family="Times New Roman,serif" font-size="14.00">501.28849021775517</text>
</g>
<!-- 1152587832168206417&#45;&gt;7850561497370058999 -->
<g id="edge9" class="edge"><title>1152587832168206417&#45;&gt;7850561497370058999</title>
<path fill="none" stroke="black" stroke-width="1.03893" d="M93.156,-123.111C111.261,-136.616 134.363,-153.576 139.394,-156 165.999,-168.819 198.098,-177.647 223.239,-183.231"/>
<polygon fill="black" stroke="black" stroke-width="1.03893" points="222.692,-186.693 233.202,-185.356 224.152,-179.847 222.692,-186.693"/>
<text text-anchor="middle" x="195.394" y="-144.8" font-family="Times New Roman,serif" font-size="14.00">403.7817920146804</text>
</g>
<!-- 1152587832168206417&#45;&gt;6179918396602481755 -->
<g id="edge10" class="edge"><title>1152587832168206417&#45;&gt;6179918396602481755</title>
<path fill="none" stroke="black" stroke-width="1.22171" d="M23.3558,-86.981C6.15378,-78.1902 -6.68044,-66.6585 4.39385,-54 29.8413,-24.9123 135.517,-18.9795 204.351,-18.3044"/>
<polygon fill="black" stroke="black" stroke-width="1.22171" points="204.666,-21.8026 214.644,-18.2395 204.622,-14.8027 204.666,-21.8026"/>
<text text-anchor="middle" x="60.3938" y="-57.8" font-family="Times New Roman,serif" font-size="14.00">564.7203144010582</text>
</g>
<!-- 6179918396602481755&#45;&gt;7850561497370058999 -->
<g id="edge11" class="edge"><title>6179918396602481755&#45;&gt;7850561497370058999</title>
<path fill="none" stroke="black" stroke-width="2.6" d="M315.127,-36.1523C358.395,-54.0524 410.911,-84.8222 388.394,-123 370.985,-152.517 335.659,-170.113 307.314,-179.985"/>
<polygon fill="black" stroke="black" stroke-width="2.6" points="306.033,-176.721 297.62,-183.161 308.212,-183.373 306.033,-176.721"/>
<text text-anchor="middle" x="453.894" y="-101.3" font-family="Times New Roman,serif" font-size="14.00">1778.3083732594412</text>
</g>
<!-- 6179918396602481755&#45;&gt;1152587832168206417 -->
<g id="edge12" class="edge"><title>6179918396602481755&#45;&gt;1152587832168206417</title>
<path fill="none" stroke="black" stroke-width="1.07493" d="M214.847,-28.6971C191.214,-34.3104 163.119,-42.5684 139.394,-54 135.11,-56.0643 117.721,-68.6695 101.473,-80.7057"/>
<polygon fill="black" stroke="black" stroke-width="1.07493" points="99.0929,-78.114 93.156,-86.8892 103.269,-83.7316 99.0929,-78.114"/>
<text text-anchor="middle" x="195.394" y="-57.8" font-family="Times New Roman,serif" font-size="14.00">435.4820577310729</text>
</g>
<!-- 6179918396602481755&#45;&gt;6179918396602481755 -->
<g id="edge13" class="edge"><title>6179918396602481755&#45;&gt;6179918396602481755</title>
<path fill="none" stroke="black" stroke-width="1.10039" d="M316.178,-25.5746C326.501,-24.7495 333.894,-22.2246 333.894,-18 333.894,-15.3596 331.006,-13.3832 326.32,-12.0707"/>
<polygon fill="black" stroke="black" stroke-width="1.10039" points="326.609,-8.57199 316.178,-10.4254 325.488,-15.4817 326.609,-8.57199"/>
<text text-anchor="middle" x="393.394" y="-14.3" font-family="Times New Roman,serif" font-size="14.00">457.89812328334136</text>
</g>
</g>
</svg>
